G04 #@! TF.GenerationSoftware,KiCad,Pcbnew,(5.0.0)*
G04 #@! TF.CreationDate,2019-07-01T15:33:15-03:00*
G04 #@! TF.ProjectId,dc_load,64635F6C6F61642E6B696361645F7063,rev?*
G04 #@! TF.SameCoordinates,Original*
G04 #@! TF.FileFunction,Paste,Top*
G04 #@! TF.FilePolarity,Positive*
%FSLAX46Y46*%
G04 Gerber Fmt 4.6, Leading zero omitted, Abs format (unit mm)*
G04 Created by KiCad (PCBNEW (5.0.0)) date 07/01/19 15:33:15*
%MOMM*%
%LPD*%
G01*
G04 APERTURE LIST*
%ADD10C,0.100000*%
%ADD11C,1.325000*%
%ADD12R,0.600000X1.500000*%
%ADD13C,1.150000*%
%ADD14R,0.400000X1.100000*%
%ADD15R,1.220000X0.650000*%
%ADD16C,0.950000*%
%ADD17R,0.600000X1.100000*%
%ADD18R,1.500000X2.400000*%
%ADD19R,3.800000X2.000000*%
%ADD20R,1.500000X2.000000*%
G04 APERTURE END LIST*
D10*
G04 #@! TO.C,R16*
G36*
X73149505Y-45037204D02*
X73173773Y-45040804D01*
X73197572Y-45046765D01*
X73220671Y-45055030D01*
X73242850Y-45065520D01*
X73263893Y-45078132D01*
X73283599Y-45092747D01*
X73301777Y-45109223D01*
X73318253Y-45127401D01*
X73332868Y-45147107D01*
X73345480Y-45168150D01*
X73355970Y-45190329D01*
X73364235Y-45213428D01*
X73370196Y-45237227D01*
X73373796Y-45261495D01*
X73375000Y-45285999D01*
X73375000Y-49986001D01*
X73373796Y-50010505D01*
X73370196Y-50034773D01*
X73364235Y-50058572D01*
X73355970Y-50081671D01*
X73345480Y-50103850D01*
X73332868Y-50124893D01*
X73318253Y-50144599D01*
X73301777Y-50162777D01*
X73283599Y-50179253D01*
X73263893Y-50193868D01*
X73242850Y-50206480D01*
X73220671Y-50216970D01*
X73197572Y-50225235D01*
X73173773Y-50231196D01*
X73149505Y-50234796D01*
X73125001Y-50236000D01*
X72299999Y-50236000D01*
X72275495Y-50234796D01*
X72251227Y-50231196D01*
X72227428Y-50225235D01*
X72204329Y-50216970D01*
X72182150Y-50206480D01*
X72161107Y-50193868D01*
X72141401Y-50179253D01*
X72123223Y-50162777D01*
X72106747Y-50144599D01*
X72092132Y-50124893D01*
X72079520Y-50103850D01*
X72069030Y-50081671D01*
X72060765Y-50058572D01*
X72054804Y-50034773D01*
X72051204Y-50010505D01*
X72050000Y-49986001D01*
X72050000Y-45285999D01*
X72051204Y-45261495D01*
X72054804Y-45237227D01*
X72060765Y-45213428D01*
X72069030Y-45190329D01*
X72079520Y-45168150D01*
X72092132Y-45147107D01*
X72106747Y-45127401D01*
X72123223Y-45109223D01*
X72141401Y-45092747D01*
X72161107Y-45078132D01*
X72182150Y-45065520D01*
X72204329Y-45055030D01*
X72227428Y-45046765D01*
X72251227Y-45040804D01*
X72275495Y-45037204D01*
X72299999Y-45036000D01*
X73125001Y-45036000D01*
X73149505Y-45037204D01*
X73149505Y-45037204D01*
G37*
D11*
X72712500Y-47636000D03*
D10*
G36*
X70724505Y-45037204D02*
X70748773Y-45040804D01*
X70772572Y-45046765D01*
X70795671Y-45055030D01*
X70817850Y-45065520D01*
X70838893Y-45078132D01*
X70858599Y-45092747D01*
X70876777Y-45109223D01*
X70893253Y-45127401D01*
X70907868Y-45147107D01*
X70920480Y-45168150D01*
X70930970Y-45190329D01*
X70939235Y-45213428D01*
X70945196Y-45237227D01*
X70948796Y-45261495D01*
X70950000Y-45285999D01*
X70950000Y-49986001D01*
X70948796Y-50010505D01*
X70945196Y-50034773D01*
X70939235Y-50058572D01*
X70930970Y-50081671D01*
X70920480Y-50103850D01*
X70907868Y-50124893D01*
X70893253Y-50144599D01*
X70876777Y-50162777D01*
X70858599Y-50179253D01*
X70838893Y-50193868D01*
X70817850Y-50206480D01*
X70795671Y-50216970D01*
X70772572Y-50225235D01*
X70748773Y-50231196D01*
X70724505Y-50234796D01*
X70700001Y-50236000D01*
X69874999Y-50236000D01*
X69850495Y-50234796D01*
X69826227Y-50231196D01*
X69802428Y-50225235D01*
X69779329Y-50216970D01*
X69757150Y-50206480D01*
X69736107Y-50193868D01*
X69716401Y-50179253D01*
X69698223Y-50162777D01*
X69681747Y-50144599D01*
X69667132Y-50124893D01*
X69654520Y-50103850D01*
X69644030Y-50081671D01*
X69635765Y-50058572D01*
X69629804Y-50034773D01*
X69626204Y-50010505D01*
X69625000Y-49986001D01*
X69625000Y-45285999D01*
X69626204Y-45261495D01*
X69629804Y-45237227D01*
X69635765Y-45213428D01*
X69644030Y-45190329D01*
X69654520Y-45168150D01*
X69667132Y-45147107D01*
X69681747Y-45127401D01*
X69698223Y-45109223D01*
X69716401Y-45092747D01*
X69736107Y-45078132D01*
X69757150Y-45065520D01*
X69779329Y-45055030D01*
X69802428Y-45046765D01*
X69826227Y-45040804D01*
X69850495Y-45037204D01*
X69874999Y-45036000D01*
X70700001Y-45036000D01*
X70724505Y-45037204D01*
X70724505Y-45037204D01*
G37*
D11*
X70287500Y-47636000D03*
G04 #@! TD*
D10*
G04 #@! TO.C,R17*
G36*
X193162005Y-45041204D02*
X193186273Y-45044804D01*
X193210072Y-45050765D01*
X193233171Y-45059030D01*
X193255350Y-45069520D01*
X193276393Y-45082132D01*
X193296099Y-45096747D01*
X193314277Y-45113223D01*
X193330753Y-45131401D01*
X193345368Y-45151107D01*
X193357980Y-45172150D01*
X193368470Y-45194329D01*
X193376735Y-45217428D01*
X193382696Y-45241227D01*
X193386296Y-45265495D01*
X193387500Y-45289999D01*
X193387500Y-49990001D01*
X193386296Y-50014505D01*
X193382696Y-50038773D01*
X193376735Y-50062572D01*
X193368470Y-50085671D01*
X193357980Y-50107850D01*
X193345368Y-50128893D01*
X193330753Y-50148599D01*
X193314277Y-50166777D01*
X193296099Y-50183253D01*
X193276393Y-50197868D01*
X193255350Y-50210480D01*
X193233171Y-50220970D01*
X193210072Y-50229235D01*
X193186273Y-50235196D01*
X193162005Y-50238796D01*
X193137501Y-50240000D01*
X192312499Y-50240000D01*
X192287995Y-50238796D01*
X192263727Y-50235196D01*
X192239928Y-50229235D01*
X192216829Y-50220970D01*
X192194650Y-50210480D01*
X192173607Y-50197868D01*
X192153901Y-50183253D01*
X192135723Y-50166777D01*
X192119247Y-50148599D01*
X192104632Y-50128893D01*
X192092020Y-50107850D01*
X192081530Y-50085671D01*
X192073265Y-50062572D01*
X192067304Y-50038773D01*
X192063704Y-50014505D01*
X192062500Y-49990001D01*
X192062500Y-45289999D01*
X192063704Y-45265495D01*
X192067304Y-45241227D01*
X192073265Y-45217428D01*
X192081530Y-45194329D01*
X192092020Y-45172150D01*
X192104632Y-45151107D01*
X192119247Y-45131401D01*
X192135723Y-45113223D01*
X192153901Y-45096747D01*
X192173607Y-45082132D01*
X192194650Y-45069520D01*
X192216829Y-45059030D01*
X192239928Y-45050765D01*
X192263727Y-45044804D01*
X192287995Y-45041204D01*
X192312499Y-45040000D01*
X193137501Y-45040000D01*
X193162005Y-45041204D01*
X193162005Y-45041204D01*
G37*
D11*
X192725000Y-47640000D03*
D10*
G36*
X190737005Y-45041204D02*
X190761273Y-45044804D01*
X190785072Y-45050765D01*
X190808171Y-45059030D01*
X190830350Y-45069520D01*
X190851393Y-45082132D01*
X190871099Y-45096747D01*
X190889277Y-45113223D01*
X190905753Y-45131401D01*
X190920368Y-45151107D01*
X190932980Y-45172150D01*
X190943470Y-45194329D01*
X190951735Y-45217428D01*
X190957696Y-45241227D01*
X190961296Y-45265495D01*
X190962500Y-45289999D01*
X190962500Y-49990001D01*
X190961296Y-50014505D01*
X190957696Y-50038773D01*
X190951735Y-50062572D01*
X190943470Y-50085671D01*
X190932980Y-50107850D01*
X190920368Y-50128893D01*
X190905753Y-50148599D01*
X190889277Y-50166777D01*
X190871099Y-50183253D01*
X190851393Y-50197868D01*
X190830350Y-50210480D01*
X190808171Y-50220970D01*
X190785072Y-50229235D01*
X190761273Y-50235196D01*
X190737005Y-50238796D01*
X190712501Y-50240000D01*
X189887499Y-50240000D01*
X189862995Y-50238796D01*
X189838727Y-50235196D01*
X189814928Y-50229235D01*
X189791829Y-50220970D01*
X189769650Y-50210480D01*
X189748607Y-50197868D01*
X189728901Y-50183253D01*
X189710723Y-50166777D01*
X189694247Y-50148599D01*
X189679632Y-50128893D01*
X189667020Y-50107850D01*
X189656530Y-50085671D01*
X189648265Y-50062572D01*
X189642304Y-50038773D01*
X189638704Y-50014505D01*
X189637500Y-49990001D01*
X189637500Y-45289999D01*
X189638704Y-45265495D01*
X189642304Y-45241227D01*
X189648265Y-45217428D01*
X189656530Y-45194329D01*
X189667020Y-45172150D01*
X189679632Y-45151107D01*
X189694247Y-45131401D01*
X189710723Y-45113223D01*
X189728901Y-45096747D01*
X189748607Y-45082132D01*
X189769650Y-45069520D01*
X189791829Y-45059030D01*
X189814928Y-45050765D01*
X189838727Y-45044804D01*
X189862995Y-45041204D01*
X189887499Y-45040000D01*
X190712501Y-45040000D01*
X190737005Y-45041204D01*
X190737005Y-45041204D01*
G37*
D11*
X190300000Y-47640000D03*
G04 #@! TD*
D12*
G04 #@! TO.C,U4*
X152586000Y-78762000D03*
X153856000Y-78762000D03*
X155126000Y-78762000D03*
X156396000Y-78762000D03*
X157666000Y-78762000D03*
X158936000Y-78762000D03*
X160206000Y-78762000D03*
X160206000Y-84162000D03*
X158936000Y-84162000D03*
X157666000Y-84162000D03*
X156396000Y-84162000D03*
X155126000Y-84162000D03*
X153856000Y-84162000D03*
X152586000Y-84162000D03*
G04 #@! TD*
D10*
G04 #@! TO.C,R25*
G36*
X128390505Y-61343204D02*
X128414773Y-61346804D01*
X128438572Y-61352765D01*
X128461671Y-61361030D01*
X128483850Y-61371520D01*
X128504893Y-61384132D01*
X128524599Y-61398747D01*
X128542777Y-61415223D01*
X128559253Y-61433401D01*
X128573868Y-61453107D01*
X128586480Y-61474150D01*
X128596970Y-61496329D01*
X128605235Y-61519428D01*
X128611196Y-61543227D01*
X128614796Y-61567495D01*
X128616000Y-61591999D01*
X128616000Y-62492001D01*
X128614796Y-62516505D01*
X128611196Y-62540773D01*
X128605235Y-62564572D01*
X128596970Y-62587671D01*
X128586480Y-62609850D01*
X128573868Y-62630893D01*
X128559253Y-62650599D01*
X128542777Y-62668777D01*
X128524599Y-62685253D01*
X128504893Y-62699868D01*
X128483850Y-62712480D01*
X128461671Y-62722970D01*
X128438572Y-62731235D01*
X128414773Y-62737196D01*
X128390505Y-62740796D01*
X128366001Y-62742000D01*
X127715999Y-62742000D01*
X127691495Y-62740796D01*
X127667227Y-62737196D01*
X127643428Y-62731235D01*
X127620329Y-62722970D01*
X127598150Y-62712480D01*
X127577107Y-62699868D01*
X127557401Y-62685253D01*
X127539223Y-62668777D01*
X127522747Y-62650599D01*
X127508132Y-62630893D01*
X127495520Y-62609850D01*
X127485030Y-62587671D01*
X127476765Y-62564572D01*
X127470804Y-62540773D01*
X127467204Y-62516505D01*
X127466000Y-62492001D01*
X127466000Y-61591999D01*
X127467204Y-61567495D01*
X127470804Y-61543227D01*
X127476765Y-61519428D01*
X127485030Y-61496329D01*
X127495520Y-61474150D01*
X127508132Y-61453107D01*
X127522747Y-61433401D01*
X127539223Y-61415223D01*
X127557401Y-61398747D01*
X127577107Y-61384132D01*
X127598150Y-61371520D01*
X127620329Y-61361030D01*
X127643428Y-61352765D01*
X127667227Y-61346804D01*
X127691495Y-61343204D01*
X127715999Y-61342000D01*
X128366001Y-61342000D01*
X128390505Y-61343204D01*
X128390505Y-61343204D01*
G37*
D13*
X128041000Y-62042000D03*
D10*
G36*
X126340505Y-61343204D02*
X126364773Y-61346804D01*
X126388572Y-61352765D01*
X126411671Y-61361030D01*
X126433850Y-61371520D01*
X126454893Y-61384132D01*
X126474599Y-61398747D01*
X126492777Y-61415223D01*
X126509253Y-61433401D01*
X126523868Y-61453107D01*
X126536480Y-61474150D01*
X126546970Y-61496329D01*
X126555235Y-61519428D01*
X126561196Y-61543227D01*
X126564796Y-61567495D01*
X126566000Y-61591999D01*
X126566000Y-62492001D01*
X126564796Y-62516505D01*
X126561196Y-62540773D01*
X126555235Y-62564572D01*
X126546970Y-62587671D01*
X126536480Y-62609850D01*
X126523868Y-62630893D01*
X126509253Y-62650599D01*
X126492777Y-62668777D01*
X126474599Y-62685253D01*
X126454893Y-62699868D01*
X126433850Y-62712480D01*
X126411671Y-62722970D01*
X126388572Y-62731235D01*
X126364773Y-62737196D01*
X126340505Y-62740796D01*
X126316001Y-62742000D01*
X125665999Y-62742000D01*
X125641495Y-62740796D01*
X125617227Y-62737196D01*
X125593428Y-62731235D01*
X125570329Y-62722970D01*
X125548150Y-62712480D01*
X125527107Y-62699868D01*
X125507401Y-62685253D01*
X125489223Y-62668777D01*
X125472747Y-62650599D01*
X125458132Y-62630893D01*
X125445520Y-62609850D01*
X125435030Y-62587671D01*
X125426765Y-62564572D01*
X125420804Y-62540773D01*
X125417204Y-62516505D01*
X125416000Y-62492001D01*
X125416000Y-61591999D01*
X125417204Y-61567495D01*
X125420804Y-61543227D01*
X125426765Y-61519428D01*
X125435030Y-61496329D01*
X125445520Y-61474150D01*
X125458132Y-61453107D01*
X125472747Y-61433401D01*
X125489223Y-61415223D01*
X125507401Y-61398747D01*
X125527107Y-61384132D01*
X125548150Y-61371520D01*
X125570329Y-61361030D01*
X125593428Y-61352765D01*
X125617227Y-61346804D01*
X125641495Y-61343204D01*
X125665999Y-61342000D01*
X126316001Y-61342000D01*
X126340505Y-61343204D01*
X126340505Y-61343204D01*
G37*
D13*
X125991000Y-62042000D03*
G04 #@! TD*
D10*
G04 #@! TO.C,R24*
G36*
X68480505Y-61343204D02*
X68504773Y-61346804D01*
X68528572Y-61352765D01*
X68551671Y-61361030D01*
X68573850Y-61371520D01*
X68594893Y-61384132D01*
X68614599Y-61398747D01*
X68632777Y-61415223D01*
X68649253Y-61433401D01*
X68663868Y-61453107D01*
X68676480Y-61474150D01*
X68686970Y-61496329D01*
X68695235Y-61519428D01*
X68701196Y-61543227D01*
X68704796Y-61567495D01*
X68706000Y-61591999D01*
X68706000Y-62492001D01*
X68704796Y-62516505D01*
X68701196Y-62540773D01*
X68695235Y-62564572D01*
X68686970Y-62587671D01*
X68676480Y-62609850D01*
X68663868Y-62630893D01*
X68649253Y-62650599D01*
X68632777Y-62668777D01*
X68614599Y-62685253D01*
X68594893Y-62699868D01*
X68573850Y-62712480D01*
X68551671Y-62722970D01*
X68528572Y-62731235D01*
X68504773Y-62737196D01*
X68480505Y-62740796D01*
X68456001Y-62742000D01*
X67805999Y-62742000D01*
X67781495Y-62740796D01*
X67757227Y-62737196D01*
X67733428Y-62731235D01*
X67710329Y-62722970D01*
X67688150Y-62712480D01*
X67667107Y-62699868D01*
X67647401Y-62685253D01*
X67629223Y-62668777D01*
X67612747Y-62650599D01*
X67598132Y-62630893D01*
X67585520Y-62609850D01*
X67575030Y-62587671D01*
X67566765Y-62564572D01*
X67560804Y-62540773D01*
X67557204Y-62516505D01*
X67556000Y-62492001D01*
X67556000Y-61591999D01*
X67557204Y-61567495D01*
X67560804Y-61543227D01*
X67566765Y-61519428D01*
X67575030Y-61496329D01*
X67585520Y-61474150D01*
X67598132Y-61453107D01*
X67612747Y-61433401D01*
X67629223Y-61415223D01*
X67647401Y-61398747D01*
X67667107Y-61384132D01*
X67688150Y-61371520D01*
X67710329Y-61361030D01*
X67733428Y-61352765D01*
X67757227Y-61346804D01*
X67781495Y-61343204D01*
X67805999Y-61342000D01*
X68456001Y-61342000D01*
X68480505Y-61343204D01*
X68480505Y-61343204D01*
G37*
D13*
X68131000Y-62042000D03*
D10*
G36*
X66430505Y-61343204D02*
X66454773Y-61346804D01*
X66478572Y-61352765D01*
X66501671Y-61361030D01*
X66523850Y-61371520D01*
X66544893Y-61384132D01*
X66564599Y-61398747D01*
X66582777Y-61415223D01*
X66599253Y-61433401D01*
X66613868Y-61453107D01*
X66626480Y-61474150D01*
X66636970Y-61496329D01*
X66645235Y-61519428D01*
X66651196Y-61543227D01*
X66654796Y-61567495D01*
X66656000Y-61591999D01*
X66656000Y-62492001D01*
X66654796Y-62516505D01*
X66651196Y-62540773D01*
X66645235Y-62564572D01*
X66636970Y-62587671D01*
X66626480Y-62609850D01*
X66613868Y-62630893D01*
X66599253Y-62650599D01*
X66582777Y-62668777D01*
X66564599Y-62685253D01*
X66544893Y-62699868D01*
X66523850Y-62712480D01*
X66501671Y-62722970D01*
X66478572Y-62731235D01*
X66454773Y-62737196D01*
X66430505Y-62740796D01*
X66406001Y-62742000D01*
X65755999Y-62742000D01*
X65731495Y-62740796D01*
X65707227Y-62737196D01*
X65683428Y-62731235D01*
X65660329Y-62722970D01*
X65638150Y-62712480D01*
X65617107Y-62699868D01*
X65597401Y-62685253D01*
X65579223Y-62668777D01*
X65562747Y-62650599D01*
X65548132Y-62630893D01*
X65535520Y-62609850D01*
X65525030Y-62587671D01*
X65516765Y-62564572D01*
X65510804Y-62540773D01*
X65507204Y-62516505D01*
X65506000Y-62492001D01*
X65506000Y-61591999D01*
X65507204Y-61567495D01*
X65510804Y-61543227D01*
X65516765Y-61519428D01*
X65525030Y-61496329D01*
X65535520Y-61474150D01*
X65548132Y-61453107D01*
X65562747Y-61433401D01*
X65579223Y-61415223D01*
X65597401Y-61398747D01*
X65617107Y-61384132D01*
X65638150Y-61371520D01*
X65660329Y-61361030D01*
X65683428Y-61352765D01*
X65707227Y-61346804D01*
X65731495Y-61343204D01*
X65755999Y-61342000D01*
X66406001Y-61342000D01*
X66430505Y-61343204D01*
X66430505Y-61343204D01*
G37*
D13*
X66081000Y-62042000D03*
G04 #@! TD*
D10*
G04 #@! TO.C,R23*
G36*
X132200505Y-61343204D02*
X132224773Y-61346804D01*
X132248572Y-61352765D01*
X132271671Y-61361030D01*
X132293850Y-61371520D01*
X132314893Y-61384132D01*
X132334599Y-61398747D01*
X132352777Y-61415223D01*
X132369253Y-61433401D01*
X132383868Y-61453107D01*
X132396480Y-61474150D01*
X132406970Y-61496329D01*
X132415235Y-61519428D01*
X132421196Y-61543227D01*
X132424796Y-61567495D01*
X132426000Y-61591999D01*
X132426000Y-62492001D01*
X132424796Y-62516505D01*
X132421196Y-62540773D01*
X132415235Y-62564572D01*
X132406970Y-62587671D01*
X132396480Y-62609850D01*
X132383868Y-62630893D01*
X132369253Y-62650599D01*
X132352777Y-62668777D01*
X132334599Y-62685253D01*
X132314893Y-62699868D01*
X132293850Y-62712480D01*
X132271671Y-62722970D01*
X132248572Y-62731235D01*
X132224773Y-62737196D01*
X132200505Y-62740796D01*
X132176001Y-62742000D01*
X131525999Y-62742000D01*
X131501495Y-62740796D01*
X131477227Y-62737196D01*
X131453428Y-62731235D01*
X131430329Y-62722970D01*
X131408150Y-62712480D01*
X131387107Y-62699868D01*
X131367401Y-62685253D01*
X131349223Y-62668777D01*
X131332747Y-62650599D01*
X131318132Y-62630893D01*
X131305520Y-62609850D01*
X131295030Y-62587671D01*
X131286765Y-62564572D01*
X131280804Y-62540773D01*
X131277204Y-62516505D01*
X131276000Y-62492001D01*
X131276000Y-61591999D01*
X131277204Y-61567495D01*
X131280804Y-61543227D01*
X131286765Y-61519428D01*
X131295030Y-61496329D01*
X131305520Y-61474150D01*
X131318132Y-61453107D01*
X131332747Y-61433401D01*
X131349223Y-61415223D01*
X131367401Y-61398747D01*
X131387107Y-61384132D01*
X131408150Y-61371520D01*
X131430329Y-61361030D01*
X131453428Y-61352765D01*
X131477227Y-61346804D01*
X131501495Y-61343204D01*
X131525999Y-61342000D01*
X132176001Y-61342000D01*
X132200505Y-61343204D01*
X132200505Y-61343204D01*
G37*
D13*
X131851000Y-62042000D03*
D10*
G36*
X130150505Y-61343204D02*
X130174773Y-61346804D01*
X130198572Y-61352765D01*
X130221671Y-61361030D01*
X130243850Y-61371520D01*
X130264893Y-61384132D01*
X130284599Y-61398747D01*
X130302777Y-61415223D01*
X130319253Y-61433401D01*
X130333868Y-61453107D01*
X130346480Y-61474150D01*
X130356970Y-61496329D01*
X130365235Y-61519428D01*
X130371196Y-61543227D01*
X130374796Y-61567495D01*
X130376000Y-61591999D01*
X130376000Y-62492001D01*
X130374796Y-62516505D01*
X130371196Y-62540773D01*
X130365235Y-62564572D01*
X130356970Y-62587671D01*
X130346480Y-62609850D01*
X130333868Y-62630893D01*
X130319253Y-62650599D01*
X130302777Y-62668777D01*
X130284599Y-62685253D01*
X130264893Y-62699868D01*
X130243850Y-62712480D01*
X130221671Y-62722970D01*
X130198572Y-62731235D01*
X130174773Y-62737196D01*
X130150505Y-62740796D01*
X130126001Y-62742000D01*
X129475999Y-62742000D01*
X129451495Y-62740796D01*
X129427227Y-62737196D01*
X129403428Y-62731235D01*
X129380329Y-62722970D01*
X129358150Y-62712480D01*
X129337107Y-62699868D01*
X129317401Y-62685253D01*
X129299223Y-62668777D01*
X129282747Y-62650599D01*
X129268132Y-62630893D01*
X129255520Y-62609850D01*
X129245030Y-62587671D01*
X129236765Y-62564572D01*
X129230804Y-62540773D01*
X129227204Y-62516505D01*
X129226000Y-62492001D01*
X129226000Y-61591999D01*
X129227204Y-61567495D01*
X129230804Y-61543227D01*
X129236765Y-61519428D01*
X129245030Y-61496329D01*
X129255520Y-61474150D01*
X129268132Y-61453107D01*
X129282747Y-61433401D01*
X129299223Y-61415223D01*
X129317401Y-61398747D01*
X129337107Y-61384132D01*
X129358150Y-61371520D01*
X129380329Y-61361030D01*
X129403428Y-61352765D01*
X129427227Y-61346804D01*
X129451495Y-61343204D01*
X129475999Y-61342000D01*
X130126001Y-61342000D01*
X130150505Y-61343204D01*
X130150505Y-61343204D01*
G37*
D13*
X129801000Y-62042000D03*
G04 #@! TD*
D10*
G04 #@! TO.C,R22*
G36*
X72290505Y-61343204D02*
X72314773Y-61346804D01*
X72338572Y-61352765D01*
X72361671Y-61361030D01*
X72383850Y-61371520D01*
X72404893Y-61384132D01*
X72424599Y-61398747D01*
X72442777Y-61415223D01*
X72459253Y-61433401D01*
X72473868Y-61453107D01*
X72486480Y-61474150D01*
X72496970Y-61496329D01*
X72505235Y-61519428D01*
X72511196Y-61543227D01*
X72514796Y-61567495D01*
X72516000Y-61591999D01*
X72516000Y-62492001D01*
X72514796Y-62516505D01*
X72511196Y-62540773D01*
X72505235Y-62564572D01*
X72496970Y-62587671D01*
X72486480Y-62609850D01*
X72473868Y-62630893D01*
X72459253Y-62650599D01*
X72442777Y-62668777D01*
X72424599Y-62685253D01*
X72404893Y-62699868D01*
X72383850Y-62712480D01*
X72361671Y-62722970D01*
X72338572Y-62731235D01*
X72314773Y-62737196D01*
X72290505Y-62740796D01*
X72266001Y-62742000D01*
X71615999Y-62742000D01*
X71591495Y-62740796D01*
X71567227Y-62737196D01*
X71543428Y-62731235D01*
X71520329Y-62722970D01*
X71498150Y-62712480D01*
X71477107Y-62699868D01*
X71457401Y-62685253D01*
X71439223Y-62668777D01*
X71422747Y-62650599D01*
X71408132Y-62630893D01*
X71395520Y-62609850D01*
X71385030Y-62587671D01*
X71376765Y-62564572D01*
X71370804Y-62540773D01*
X71367204Y-62516505D01*
X71366000Y-62492001D01*
X71366000Y-61591999D01*
X71367204Y-61567495D01*
X71370804Y-61543227D01*
X71376765Y-61519428D01*
X71385030Y-61496329D01*
X71395520Y-61474150D01*
X71408132Y-61453107D01*
X71422747Y-61433401D01*
X71439223Y-61415223D01*
X71457401Y-61398747D01*
X71477107Y-61384132D01*
X71498150Y-61371520D01*
X71520329Y-61361030D01*
X71543428Y-61352765D01*
X71567227Y-61346804D01*
X71591495Y-61343204D01*
X71615999Y-61342000D01*
X72266001Y-61342000D01*
X72290505Y-61343204D01*
X72290505Y-61343204D01*
G37*
D13*
X71941000Y-62042000D03*
D10*
G36*
X70240505Y-61343204D02*
X70264773Y-61346804D01*
X70288572Y-61352765D01*
X70311671Y-61361030D01*
X70333850Y-61371520D01*
X70354893Y-61384132D01*
X70374599Y-61398747D01*
X70392777Y-61415223D01*
X70409253Y-61433401D01*
X70423868Y-61453107D01*
X70436480Y-61474150D01*
X70446970Y-61496329D01*
X70455235Y-61519428D01*
X70461196Y-61543227D01*
X70464796Y-61567495D01*
X70466000Y-61591999D01*
X70466000Y-62492001D01*
X70464796Y-62516505D01*
X70461196Y-62540773D01*
X70455235Y-62564572D01*
X70446970Y-62587671D01*
X70436480Y-62609850D01*
X70423868Y-62630893D01*
X70409253Y-62650599D01*
X70392777Y-62668777D01*
X70374599Y-62685253D01*
X70354893Y-62699868D01*
X70333850Y-62712480D01*
X70311671Y-62722970D01*
X70288572Y-62731235D01*
X70264773Y-62737196D01*
X70240505Y-62740796D01*
X70216001Y-62742000D01*
X69565999Y-62742000D01*
X69541495Y-62740796D01*
X69517227Y-62737196D01*
X69493428Y-62731235D01*
X69470329Y-62722970D01*
X69448150Y-62712480D01*
X69427107Y-62699868D01*
X69407401Y-62685253D01*
X69389223Y-62668777D01*
X69372747Y-62650599D01*
X69358132Y-62630893D01*
X69345520Y-62609850D01*
X69335030Y-62587671D01*
X69326765Y-62564572D01*
X69320804Y-62540773D01*
X69317204Y-62516505D01*
X69316000Y-62492001D01*
X69316000Y-61591999D01*
X69317204Y-61567495D01*
X69320804Y-61543227D01*
X69326765Y-61519428D01*
X69335030Y-61496329D01*
X69345520Y-61474150D01*
X69358132Y-61453107D01*
X69372747Y-61433401D01*
X69389223Y-61415223D01*
X69407401Y-61398747D01*
X69427107Y-61384132D01*
X69448150Y-61371520D01*
X69470329Y-61361030D01*
X69493428Y-61352765D01*
X69517227Y-61346804D01*
X69541495Y-61343204D01*
X69565999Y-61342000D01*
X70216001Y-61342000D01*
X70240505Y-61343204D01*
X70240505Y-61343204D01*
G37*
D13*
X69891000Y-62042000D03*
G04 #@! TD*
D10*
G04 #@! TO.C,R21*
G36*
X188338505Y-61343204D02*
X188362773Y-61346804D01*
X188386572Y-61352765D01*
X188409671Y-61361030D01*
X188431850Y-61371520D01*
X188452893Y-61384132D01*
X188472599Y-61398747D01*
X188490777Y-61415223D01*
X188507253Y-61433401D01*
X188521868Y-61453107D01*
X188534480Y-61474150D01*
X188544970Y-61496329D01*
X188553235Y-61519428D01*
X188559196Y-61543227D01*
X188562796Y-61567495D01*
X188564000Y-61591999D01*
X188564000Y-62492001D01*
X188562796Y-62516505D01*
X188559196Y-62540773D01*
X188553235Y-62564572D01*
X188544970Y-62587671D01*
X188534480Y-62609850D01*
X188521868Y-62630893D01*
X188507253Y-62650599D01*
X188490777Y-62668777D01*
X188472599Y-62685253D01*
X188452893Y-62699868D01*
X188431850Y-62712480D01*
X188409671Y-62722970D01*
X188386572Y-62731235D01*
X188362773Y-62737196D01*
X188338505Y-62740796D01*
X188314001Y-62742000D01*
X187663999Y-62742000D01*
X187639495Y-62740796D01*
X187615227Y-62737196D01*
X187591428Y-62731235D01*
X187568329Y-62722970D01*
X187546150Y-62712480D01*
X187525107Y-62699868D01*
X187505401Y-62685253D01*
X187487223Y-62668777D01*
X187470747Y-62650599D01*
X187456132Y-62630893D01*
X187443520Y-62609850D01*
X187433030Y-62587671D01*
X187424765Y-62564572D01*
X187418804Y-62540773D01*
X187415204Y-62516505D01*
X187414000Y-62492001D01*
X187414000Y-61591999D01*
X187415204Y-61567495D01*
X187418804Y-61543227D01*
X187424765Y-61519428D01*
X187433030Y-61496329D01*
X187443520Y-61474150D01*
X187456132Y-61453107D01*
X187470747Y-61433401D01*
X187487223Y-61415223D01*
X187505401Y-61398747D01*
X187525107Y-61384132D01*
X187546150Y-61371520D01*
X187568329Y-61361030D01*
X187591428Y-61352765D01*
X187615227Y-61346804D01*
X187639495Y-61343204D01*
X187663999Y-61342000D01*
X188314001Y-61342000D01*
X188338505Y-61343204D01*
X188338505Y-61343204D01*
G37*
D13*
X187989000Y-62042000D03*
D10*
G36*
X186288505Y-61343204D02*
X186312773Y-61346804D01*
X186336572Y-61352765D01*
X186359671Y-61361030D01*
X186381850Y-61371520D01*
X186402893Y-61384132D01*
X186422599Y-61398747D01*
X186440777Y-61415223D01*
X186457253Y-61433401D01*
X186471868Y-61453107D01*
X186484480Y-61474150D01*
X186494970Y-61496329D01*
X186503235Y-61519428D01*
X186509196Y-61543227D01*
X186512796Y-61567495D01*
X186514000Y-61591999D01*
X186514000Y-62492001D01*
X186512796Y-62516505D01*
X186509196Y-62540773D01*
X186503235Y-62564572D01*
X186494970Y-62587671D01*
X186484480Y-62609850D01*
X186471868Y-62630893D01*
X186457253Y-62650599D01*
X186440777Y-62668777D01*
X186422599Y-62685253D01*
X186402893Y-62699868D01*
X186381850Y-62712480D01*
X186359671Y-62722970D01*
X186336572Y-62731235D01*
X186312773Y-62737196D01*
X186288505Y-62740796D01*
X186264001Y-62742000D01*
X185613999Y-62742000D01*
X185589495Y-62740796D01*
X185565227Y-62737196D01*
X185541428Y-62731235D01*
X185518329Y-62722970D01*
X185496150Y-62712480D01*
X185475107Y-62699868D01*
X185455401Y-62685253D01*
X185437223Y-62668777D01*
X185420747Y-62650599D01*
X185406132Y-62630893D01*
X185393520Y-62609850D01*
X185383030Y-62587671D01*
X185374765Y-62564572D01*
X185368804Y-62540773D01*
X185365204Y-62516505D01*
X185364000Y-62492001D01*
X185364000Y-61591999D01*
X185365204Y-61567495D01*
X185368804Y-61543227D01*
X185374765Y-61519428D01*
X185383030Y-61496329D01*
X185393520Y-61474150D01*
X185406132Y-61453107D01*
X185420747Y-61433401D01*
X185437223Y-61415223D01*
X185455401Y-61398747D01*
X185475107Y-61384132D01*
X185496150Y-61371520D01*
X185518329Y-61361030D01*
X185541428Y-61352765D01*
X185565227Y-61346804D01*
X185589495Y-61343204D01*
X185613999Y-61342000D01*
X186264001Y-61342000D01*
X186288505Y-61343204D01*
X186288505Y-61343204D01*
G37*
D13*
X185939000Y-62042000D03*
G04 #@! TD*
D10*
G04 #@! TO.C,R20*
G36*
X248518505Y-61343204D02*
X248542773Y-61346804D01*
X248566572Y-61352765D01*
X248589671Y-61361030D01*
X248611850Y-61371520D01*
X248632893Y-61384132D01*
X248652599Y-61398747D01*
X248670777Y-61415223D01*
X248687253Y-61433401D01*
X248701868Y-61453107D01*
X248714480Y-61474150D01*
X248724970Y-61496329D01*
X248733235Y-61519428D01*
X248739196Y-61543227D01*
X248742796Y-61567495D01*
X248744000Y-61591999D01*
X248744000Y-62492001D01*
X248742796Y-62516505D01*
X248739196Y-62540773D01*
X248733235Y-62564572D01*
X248724970Y-62587671D01*
X248714480Y-62609850D01*
X248701868Y-62630893D01*
X248687253Y-62650599D01*
X248670777Y-62668777D01*
X248652599Y-62685253D01*
X248632893Y-62699868D01*
X248611850Y-62712480D01*
X248589671Y-62722970D01*
X248566572Y-62731235D01*
X248542773Y-62737196D01*
X248518505Y-62740796D01*
X248494001Y-62742000D01*
X247843999Y-62742000D01*
X247819495Y-62740796D01*
X247795227Y-62737196D01*
X247771428Y-62731235D01*
X247748329Y-62722970D01*
X247726150Y-62712480D01*
X247705107Y-62699868D01*
X247685401Y-62685253D01*
X247667223Y-62668777D01*
X247650747Y-62650599D01*
X247636132Y-62630893D01*
X247623520Y-62609850D01*
X247613030Y-62587671D01*
X247604765Y-62564572D01*
X247598804Y-62540773D01*
X247595204Y-62516505D01*
X247594000Y-62492001D01*
X247594000Y-61591999D01*
X247595204Y-61567495D01*
X247598804Y-61543227D01*
X247604765Y-61519428D01*
X247613030Y-61496329D01*
X247623520Y-61474150D01*
X247636132Y-61453107D01*
X247650747Y-61433401D01*
X247667223Y-61415223D01*
X247685401Y-61398747D01*
X247705107Y-61384132D01*
X247726150Y-61371520D01*
X247748329Y-61361030D01*
X247771428Y-61352765D01*
X247795227Y-61346804D01*
X247819495Y-61343204D01*
X247843999Y-61342000D01*
X248494001Y-61342000D01*
X248518505Y-61343204D01*
X248518505Y-61343204D01*
G37*
D13*
X248169000Y-62042000D03*
D10*
G36*
X246468505Y-61343204D02*
X246492773Y-61346804D01*
X246516572Y-61352765D01*
X246539671Y-61361030D01*
X246561850Y-61371520D01*
X246582893Y-61384132D01*
X246602599Y-61398747D01*
X246620777Y-61415223D01*
X246637253Y-61433401D01*
X246651868Y-61453107D01*
X246664480Y-61474150D01*
X246674970Y-61496329D01*
X246683235Y-61519428D01*
X246689196Y-61543227D01*
X246692796Y-61567495D01*
X246694000Y-61591999D01*
X246694000Y-62492001D01*
X246692796Y-62516505D01*
X246689196Y-62540773D01*
X246683235Y-62564572D01*
X246674970Y-62587671D01*
X246664480Y-62609850D01*
X246651868Y-62630893D01*
X246637253Y-62650599D01*
X246620777Y-62668777D01*
X246602599Y-62685253D01*
X246582893Y-62699868D01*
X246561850Y-62712480D01*
X246539671Y-62722970D01*
X246516572Y-62731235D01*
X246492773Y-62737196D01*
X246468505Y-62740796D01*
X246444001Y-62742000D01*
X245793999Y-62742000D01*
X245769495Y-62740796D01*
X245745227Y-62737196D01*
X245721428Y-62731235D01*
X245698329Y-62722970D01*
X245676150Y-62712480D01*
X245655107Y-62699868D01*
X245635401Y-62685253D01*
X245617223Y-62668777D01*
X245600747Y-62650599D01*
X245586132Y-62630893D01*
X245573520Y-62609850D01*
X245563030Y-62587671D01*
X245554765Y-62564572D01*
X245548804Y-62540773D01*
X245545204Y-62516505D01*
X245544000Y-62492001D01*
X245544000Y-61591999D01*
X245545204Y-61567495D01*
X245548804Y-61543227D01*
X245554765Y-61519428D01*
X245563030Y-61496329D01*
X245573520Y-61474150D01*
X245586132Y-61453107D01*
X245600747Y-61433401D01*
X245617223Y-61415223D01*
X245635401Y-61398747D01*
X245655107Y-61384132D01*
X245676150Y-61371520D01*
X245698329Y-61361030D01*
X245721428Y-61352765D01*
X245745227Y-61346804D01*
X245769495Y-61343204D01*
X245793999Y-61342000D01*
X246444001Y-61342000D01*
X246468505Y-61343204D01*
X246468505Y-61343204D01*
G37*
D13*
X246119000Y-62042000D03*
G04 #@! TD*
D10*
G04 #@! TO.C,R19*
G36*
X192148505Y-61343204D02*
X192172773Y-61346804D01*
X192196572Y-61352765D01*
X192219671Y-61361030D01*
X192241850Y-61371520D01*
X192262893Y-61384132D01*
X192282599Y-61398747D01*
X192300777Y-61415223D01*
X192317253Y-61433401D01*
X192331868Y-61453107D01*
X192344480Y-61474150D01*
X192354970Y-61496329D01*
X192363235Y-61519428D01*
X192369196Y-61543227D01*
X192372796Y-61567495D01*
X192374000Y-61591999D01*
X192374000Y-62492001D01*
X192372796Y-62516505D01*
X192369196Y-62540773D01*
X192363235Y-62564572D01*
X192354970Y-62587671D01*
X192344480Y-62609850D01*
X192331868Y-62630893D01*
X192317253Y-62650599D01*
X192300777Y-62668777D01*
X192282599Y-62685253D01*
X192262893Y-62699868D01*
X192241850Y-62712480D01*
X192219671Y-62722970D01*
X192196572Y-62731235D01*
X192172773Y-62737196D01*
X192148505Y-62740796D01*
X192124001Y-62742000D01*
X191473999Y-62742000D01*
X191449495Y-62740796D01*
X191425227Y-62737196D01*
X191401428Y-62731235D01*
X191378329Y-62722970D01*
X191356150Y-62712480D01*
X191335107Y-62699868D01*
X191315401Y-62685253D01*
X191297223Y-62668777D01*
X191280747Y-62650599D01*
X191266132Y-62630893D01*
X191253520Y-62609850D01*
X191243030Y-62587671D01*
X191234765Y-62564572D01*
X191228804Y-62540773D01*
X191225204Y-62516505D01*
X191224000Y-62492001D01*
X191224000Y-61591999D01*
X191225204Y-61567495D01*
X191228804Y-61543227D01*
X191234765Y-61519428D01*
X191243030Y-61496329D01*
X191253520Y-61474150D01*
X191266132Y-61453107D01*
X191280747Y-61433401D01*
X191297223Y-61415223D01*
X191315401Y-61398747D01*
X191335107Y-61384132D01*
X191356150Y-61371520D01*
X191378329Y-61361030D01*
X191401428Y-61352765D01*
X191425227Y-61346804D01*
X191449495Y-61343204D01*
X191473999Y-61342000D01*
X192124001Y-61342000D01*
X192148505Y-61343204D01*
X192148505Y-61343204D01*
G37*
D13*
X191799000Y-62042000D03*
D10*
G36*
X190098505Y-61343204D02*
X190122773Y-61346804D01*
X190146572Y-61352765D01*
X190169671Y-61361030D01*
X190191850Y-61371520D01*
X190212893Y-61384132D01*
X190232599Y-61398747D01*
X190250777Y-61415223D01*
X190267253Y-61433401D01*
X190281868Y-61453107D01*
X190294480Y-61474150D01*
X190304970Y-61496329D01*
X190313235Y-61519428D01*
X190319196Y-61543227D01*
X190322796Y-61567495D01*
X190324000Y-61591999D01*
X190324000Y-62492001D01*
X190322796Y-62516505D01*
X190319196Y-62540773D01*
X190313235Y-62564572D01*
X190304970Y-62587671D01*
X190294480Y-62609850D01*
X190281868Y-62630893D01*
X190267253Y-62650599D01*
X190250777Y-62668777D01*
X190232599Y-62685253D01*
X190212893Y-62699868D01*
X190191850Y-62712480D01*
X190169671Y-62722970D01*
X190146572Y-62731235D01*
X190122773Y-62737196D01*
X190098505Y-62740796D01*
X190074001Y-62742000D01*
X189423999Y-62742000D01*
X189399495Y-62740796D01*
X189375227Y-62737196D01*
X189351428Y-62731235D01*
X189328329Y-62722970D01*
X189306150Y-62712480D01*
X189285107Y-62699868D01*
X189265401Y-62685253D01*
X189247223Y-62668777D01*
X189230747Y-62650599D01*
X189216132Y-62630893D01*
X189203520Y-62609850D01*
X189193030Y-62587671D01*
X189184765Y-62564572D01*
X189178804Y-62540773D01*
X189175204Y-62516505D01*
X189174000Y-62492001D01*
X189174000Y-61591999D01*
X189175204Y-61567495D01*
X189178804Y-61543227D01*
X189184765Y-61519428D01*
X189193030Y-61496329D01*
X189203520Y-61474150D01*
X189216132Y-61453107D01*
X189230747Y-61433401D01*
X189247223Y-61415223D01*
X189265401Y-61398747D01*
X189285107Y-61384132D01*
X189306150Y-61371520D01*
X189328329Y-61361030D01*
X189351428Y-61352765D01*
X189375227Y-61346804D01*
X189399495Y-61343204D01*
X189423999Y-61342000D01*
X190074001Y-61342000D01*
X190098505Y-61343204D01*
X190098505Y-61343204D01*
G37*
D13*
X189749000Y-62042000D03*
G04 #@! TD*
D10*
G04 #@! TO.C,R18*
G36*
X252328505Y-61343204D02*
X252352773Y-61346804D01*
X252376572Y-61352765D01*
X252399671Y-61361030D01*
X252421850Y-61371520D01*
X252442893Y-61384132D01*
X252462599Y-61398747D01*
X252480777Y-61415223D01*
X252497253Y-61433401D01*
X252511868Y-61453107D01*
X252524480Y-61474150D01*
X252534970Y-61496329D01*
X252543235Y-61519428D01*
X252549196Y-61543227D01*
X252552796Y-61567495D01*
X252554000Y-61591999D01*
X252554000Y-62492001D01*
X252552796Y-62516505D01*
X252549196Y-62540773D01*
X252543235Y-62564572D01*
X252534970Y-62587671D01*
X252524480Y-62609850D01*
X252511868Y-62630893D01*
X252497253Y-62650599D01*
X252480777Y-62668777D01*
X252462599Y-62685253D01*
X252442893Y-62699868D01*
X252421850Y-62712480D01*
X252399671Y-62722970D01*
X252376572Y-62731235D01*
X252352773Y-62737196D01*
X252328505Y-62740796D01*
X252304001Y-62742000D01*
X251653999Y-62742000D01*
X251629495Y-62740796D01*
X251605227Y-62737196D01*
X251581428Y-62731235D01*
X251558329Y-62722970D01*
X251536150Y-62712480D01*
X251515107Y-62699868D01*
X251495401Y-62685253D01*
X251477223Y-62668777D01*
X251460747Y-62650599D01*
X251446132Y-62630893D01*
X251433520Y-62609850D01*
X251423030Y-62587671D01*
X251414765Y-62564572D01*
X251408804Y-62540773D01*
X251405204Y-62516505D01*
X251404000Y-62492001D01*
X251404000Y-61591999D01*
X251405204Y-61567495D01*
X251408804Y-61543227D01*
X251414765Y-61519428D01*
X251423030Y-61496329D01*
X251433520Y-61474150D01*
X251446132Y-61453107D01*
X251460747Y-61433401D01*
X251477223Y-61415223D01*
X251495401Y-61398747D01*
X251515107Y-61384132D01*
X251536150Y-61371520D01*
X251558329Y-61361030D01*
X251581428Y-61352765D01*
X251605227Y-61346804D01*
X251629495Y-61343204D01*
X251653999Y-61342000D01*
X252304001Y-61342000D01*
X252328505Y-61343204D01*
X252328505Y-61343204D01*
G37*
D13*
X251979000Y-62042000D03*
D10*
G36*
X250278505Y-61343204D02*
X250302773Y-61346804D01*
X250326572Y-61352765D01*
X250349671Y-61361030D01*
X250371850Y-61371520D01*
X250392893Y-61384132D01*
X250412599Y-61398747D01*
X250430777Y-61415223D01*
X250447253Y-61433401D01*
X250461868Y-61453107D01*
X250474480Y-61474150D01*
X250484970Y-61496329D01*
X250493235Y-61519428D01*
X250499196Y-61543227D01*
X250502796Y-61567495D01*
X250504000Y-61591999D01*
X250504000Y-62492001D01*
X250502796Y-62516505D01*
X250499196Y-62540773D01*
X250493235Y-62564572D01*
X250484970Y-62587671D01*
X250474480Y-62609850D01*
X250461868Y-62630893D01*
X250447253Y-62650599D01*
X250430777Y-62668777D01*
X250412599Y-62685253D01*
X250392893Y-62699868D01*
X250371850Y-62712480D01*
X250349671Y-62722970D01*
X250326572Y-62731235D01*
X250302773Y-62737196D01*
X250278505Y-62740796D01*
X250254001Y-62742000D01*
X249603999Y-62742000D01*
X249579495Y-62740796D01*
X249555227Y-62737196D01*
X249531428Y-62731235D01*
X249508329Y-62722970D01*
X249486150Y-62712480D01*
X249465107Y-62699868D01*
X249445401Y-62685253D01*
X249427223Y-62668777D01*
X249410747Y-62650599D01*
X249396132Y-62630893D01*
X249383520Y-62609850D01*
X249373030Y-62587671D01*
X249364765Y-62564572D01*
X249358804Y-62540773D01*
X249355204Y-62516505D01*
X249354000Y-62492001D01*
X249354000Y-61591999D01*
X249355204Y-61567495D01*
X249358804Y-61543227D01*
X249364765Y-61519428D01*
X249373030Y-61496329D01*
X249383520Y-61474150D01*
X249396132Y-61453107D01*
X249410747Y-61433401D01*
X249427223Y-61415223D01*
X249445401Y-61398747D01*
X249465107Y-61384132D01*
X249486150Y-61371520D01*
X249508329Y-61361030D01*
X249531428Y-61352765D01*
X249555227Y-61346804D01*
X249579495Y-61343204D01*
X249603999Y-61342000D01*
X250254001Y-61342000D01*
X250278505Y-61343204D01*
X250278505Y-61343204D01*
G37*
D13*
X249929000Y-62042000D03*
G04 #@! TD*
D14*
G04 #@! TO.C,U3*
X178061000Y-78612000D03*
X177411000Y-78612000D03*
X176761000Y-78612000D03*
X176111000Y-78612000D03*
X175461000Y-78612000D03*
X174811000Y-78612000D03*
X174161000Y-78612000D03*
X173511000Y-78612000D03*
X172861000Y-78612000D03*
X172211000Y-78612000D03*
X171561000Y-78612000D03*
X170911000Y-78612000D03*
X170261000Y-78612000D03*
X169611000Y-78612000D03*
X169611000Y-84312000D03*
X170261000Y-84312000D03*
X170911000Y-84312000D03*
X171561000Y-84312000D03*
X172211000Y-84312000D03*
X172861000Y-84312000D03*
X173511000Y-84312000D03*
X174161000Y-84312000D03*
X174811000Y-84312000D03*
X175461000Y-84312000D03*
X176111000Y-84312000D03*
X176761000Y-84312000D03*
X177411000Y-84312000D03*
X178061000Y-84312000D03*
G04 #@! TD*
D15*
G04 #@! TO.C,U6*
X250380000Y-59940000D03*
X250380000Y-58990000D03*
X250380000Y-58040000D03*
X247760000Y-58040000D03*
X247760000Y-59940000D03*
G04 #@! TD*
G04 #@! TO.C,U7*
X187680000Y-59940000D03*
X187680000Y-58040000D03*
X190300000Y-58040000D03*
X190300000Y-58990000D03*
X190300000Y-59940000D03*
G04 #@! TD*
G04 #@! TO.C,U8*
X67710000Y-59940000D03*
X67710000Y-58040000D03*
X70330000Y-58040000D03*
X70330000Y-58990000D03*
X70330000Y-59940000D03*
G04 #@! TD*
G04 #@! TO.C,U9*
X130290000Y-59940000D03*
X130290000Y-58990000D03*
X130290000Y-58040000D03*
X127670000Y-58040000D03*
X127670000Y-59940000D03*
G04 #@! TD*
D10*
G04 #@! TO.C,C10*
G36*
X179976779Y-90373144D02*
X179999834Y-90376563D01*
X180022443Y-90382227D01*
X180044387Y-90390079D01*
X180065457Y-90400044D01*
X180085448Y-90412026D01*
X180104168Y-90425910D01*
X180121438Y-90441562D01*
X180137090Y-90458832D01*
X180150974Y-90477552D01*
X180162956Y-90497543D01*
X180172921Y-90518613D01*
X180180773Y-90540557D01*
X180186437Y-90563166D01*
X180189856Y-90586221D01*
X180191000Y-90609500D01*
X180191000Y-91184500D01*
X180189856Y-91207779D01*
X180186437Y-91230834D01*
X180180773Y-91253443D01*
X180172921Y-91275387D01*
X180162956Y-91296457D01*
X180150974Y-91316448D01*
X180137090Y-91335168D01*
X180121438Y-91352438D01*
X180104168Y-91368090D01*
X180085448Y-91381974D01*
X180065457Y-91393956D01*
X180044387Y-91403921D01*
X180022443Y-91411773D01*
X179999834Y-91417437D01*
X179976779Y-91420856D01*
X179953500Y-91422000D01*
X179478500Y-91422000D01*
X179455221Y-91420856D01*
X179432166Y-91417437D01*
X179409557Y-91411773D01*
X179387613Y-91403921D01*
X179366543Y-91393956D01*
X179346552Y-91381974D01*
X179327832Y-91368090D01*
X179310562Y-91352438D01*
X179294910Y-91335168D01*
X179281026Y-91316448D01*
X179269044Y-91296457D01*
X179259079Y-91275387D01*
X179251227Y-91253443D01*
X179245563Y-91230834D01*
X179242144Y-91207779D01*
X179241000Y-91184500D01*
X179241000Y-90609500D01*
X179242144Y-90586221D01*
X179245563Y-90563166D01*
X179251227Y-90540557D01*
X179259079Y-90518613D01*
X179269044Y-90497543D01*
X179281026Y-90477552D01*
X179294910Y-90458832D01*
X179310562Y-90441562D01*
X179327832Y-90425910D01*
X179346552Y-90412026D01*
X179366543Y-90400044D01*
X179387613Y-90390079D01*
X179409557Y-90382227D01*
X179432166Y-90376563D01*
X179455221Y-90373144D01*
X179478500Y-90372000D01*
X179953500Y-90372000D01*
X179976779Y-90373144D01*
X179976779Y-90373144D01*
G37*
D16*
X179716000Y-90897000D03*
D10*
G36*
X179976779Y-88623144D02*
X179999834Y-88626563D01*
X180022443Y-88632227D01*
X180044387Y-88640079D01*
X180065457Y-88650044D01*
X180085448Y-88662026D01*
X180104168Y-88675910D01*
X180121438Y-88691562D01*
X180137090Y-88708832D01*
X180150974Y-88727552D01*
X180162956Y-88747543D01*
X180172921Y-88768613D01*
X180180773Y-88790557D01*
X180186437Y-88813166D01*
X180189856Y-88836221D01*
X180191000Y-88859500D01*
X180191000Y-89434500D01*
X180189856Y-89457779D01*
X180186437Y-89480834D01*
X180180773Y-89503443D01*
X180172921Y-89525387D01*
X180162956Y-89546457D01*
X180150974Y-89566448D01*
X180137090Y-89585168D01*
X180121438Y-89602438D01*
X180104168Y-89618090D01*
X180085448Y-89631974D01*
X180065457Y-89643956D01*
X180044387Y-89653921D01*
X180022443Y-89661773D01*
X179999834Y-89667437D01*
X179976779Y-89670856D01*
X179953500Y-89672000D01*
X179478500Y-89672000D01*
X179455221Y-89670856D01*
X179432166Y-89667437D01*
X179409557Y-89661773D01*
X179387613Y-89653921D01*
X179366543Y-89643956D01*
X179346552Y-89631974D01*
X179327832Y-89618090D01*
X179310562Y-89602438D01*
X179294910Y-89585168D01*
X179281026Y-89566448D01*
X179269044Y-89546457D01*
X179259079Y-89525387D01*
X179251227Y-89503443D01*
X179245563Y-89480834D01*
X179242144Y-89457779D01*
X179241000Y-89434500D01*
X179241000Y-88859500D01*
X179242144Y-88836221D01*
X179245563Y-88813166D01*
X179251227Y-88790557D01*
X179259079Y-88768613D01*
X179269044Y-88747543D01*
X179281026Y-88727552D01*
X179294910Y-88708832D01*
X179310562Y-88691562D01*
X179327832Y-88675910D01*
X179346552Y-88662026D01*
X179366543Y-88650044D01*
X179387613Y-88640079D01*
X179409557Y-88632227D01*
X179432166Y-88626563D01*
X179455221Y-88623144D01*
X179478500Y-88622000D01*
X179953500Y-88622000D01*
X179976779Y-88623144D01*
X179976779Y-88623144D01*
G37*
D16*
X179716000Y-89147000D03*
G04 #@! TD*
D10*
G04 #@! TO.C,C11*
G36*
X174716779Y-88623144D02*
X174739834Y-88626563D01*
X174762443Y-88632227D01*
X174784387Y-88640079D01*
X174805457Y-88650044D01*
X174825448Y-88662026D01*
X174844168Y-88675910D01*
X174861438Y-88691562D01*
X174877090Y-88708832D01*
X174890974Y-88727552D01*
X174902956Y-88747543D01*
X174912921Y-88768613D01*
X174920773Y-88790557D01*
X174926437Y-88813166D01*
X174929856Y-88836221D01*
X174931000Y-88859500D01*
X174931000Y-89434500D01*
X174929856Y-89457779D01*
X174926437Y-89480834D01*
X174920773Y-89503443D01*
X174912921Y-89525387D01*
X174902956Y-89546457D01*
X174890974Y-89566448D01*
X174877090Y-89585168D01*
X174861438Y-89602438D01*
X174844168Y-89618090D01*
X174825448Y-89631974D01*
X174805457Y-89643956D01*
X174784387Y-89653921D01*
X174762443Y-89661773D01*
X174739834Y-89667437D01*
X174716779Y-89670856D01*
X174693500Y-89672000D01*
X174218500Y-89672000D01*
X174195221Y-89670856D01*
X174172166Y-89667437D01*
X174149557Y-89661773D01*
X174127613Y-89653921D01*
X174106543Y-89643956D01*
X174086552Y-89631974D01*
X174067832Y-89618090D01*
X174050562Y-89602438D01*
X174034910Y-89585168D01*
X174021026Y-89566448D01*
X174009044Y-89546457D01*
X173999079Y-89525387D01*
X173991227Y-89503443D01*
X173985563Y-89480834D01*
X173982144Y-89457779D01*
X173981000Y-89434500D01*
X173981000Y-88859500D01*
X173982144Y-88836221D01*
X173985563Y-88813166D01*
X173991227Y-88790557D01*
X173999079Y-88768613D01*
X174009044Y-88747543D01*
X174021026Y-88727552D01*
X174034910Y-88708832D01*
X174050562Y-88691562D01*
X174067832Y-88675910D01*
X174086552Y-88662026D01*
X174106543Y-88650044D01*
X174127613Y-88640079D01*
X174149557Y-88632227D01*
X174172166Y-88626563D01*
X174195221Y-88623144D01*
X174218500Y-88622000D01*
X174693500Y-88622000D01*
X174716779Y-88623144D01*
X174716779Y-88623144D01*
G37*
D16*
X174456000Y-89147000D03*
D10*
G36*
X174716779Y-90373144D02*
X174739834Y-90376563D01*
X174762443Y-90382227D01*
X174784387Y-90390079D01*
X174805457Y-90400044D01*
X174825448Y-90412026D01*
X174844168Y-90425910D01*
X174861438Y-90441562D01*
X174877090Y-90458832D01*
X174890974Y-90477552D01*
X174902956Y-90497543D01*
X174912921Y-90518613D01*
X174920773Y-90540557D01*
X174926437Y-90563166D01*
X174929856Y-90586221D01*
X174931000Y-90609500D01*
X174931000Y-91184500D01*
X174929856Y-91207779D01*
X174926437Y-91230834D01*
X174920773Y-91253443D01*
X174912921Y-91275387D01*
X174902956Y-91296457D01*
X174890974Y-91316448D01*
X174877090Y-91335168D01*
X174861438Y-91352438D01*
X174844168Y-91368090D01*
X174825448Y-91381974D01*
X174805457Y-91393956D01*
X174784387Y-91403921D01*
X174762443Y-91411773D01*
X174739834Y-91417437D01*
X174716779Y-91420856D01*
X174693500Y-91422000D01*
X174218500Y-91422000D01*
X174195221Y-91420856D01*
X174172166Y-91417437D01*
X174149557Y-91411773D01*
X174127613Y-91403921D01*
X174106543Y-91393956D01*
X174086552Y-91381974D01*
X174067832Y-91368090D01*
X174050562Y-91352438D01*
X174034910Y-91335168D01*
X174021026Y-91316448D01*
X174009044Y-91296457D01*
X173999079Y-91275387D01*
X173991227Y-91253443D01*
X173985563Y-91230834D01*
X173982144Y-91207779D01*
X173981000Y-91184500D01*
X173981000Y-90609500D01*
X173982144Y-90586221D01*
X173985563Y-90563166D01*
X173991227Y-90540557D01*
X173999079Y-90518613D01*
X174009044Y-90497543D01*
X174021026Y-90477552D01*
X174034910Y-90458832D01*
X174050562Y-90441562D01*
X174067832Y-90425910D01*
X174086552Y-90412026D01*
X174106543Y-90400044D01*
X174127613Y-90390079D01*
X174149557Y-90382227D01*
X174172166Y-90376563D01*
X174195221Y-90373144D01*
X174218500Y-90372000D01*
X174693500Y-90372000D01*
X174716779Y-90373144D01*
X174716779Y-90373144D01*
G37*
D16*
X174456000Y-90897000D03*
G04 #@! TD*
D10*
G04 #@! TO.C,R1*
G36*
X182344505Y-79661204D02*
X182368773Y-79664804D01*
X182392572Y-79670765D01*
X182415671Y-79679030D01*
X182437850Y-79689520D01*
X182458893Y-79702132D01*
X182478599Y-79716747D01*
X182496777Y-79733223D01*
X182513253Y-79751401D01*
X182527868Y-79771107D01*
X182540480Y-79792150D01*
X182550970Y-79814329D01*
X182559235Y-79837428D01*
X182565196Y-79861227D01*
X182568796Y-79885495D01*
X182570000Y-79909999D01*
X182570000Y-80560001D01*
X182568796Y-80584505D01*
X182565196Y-80608773D01*
X182559235Y-80632572D01*
X182550970Y-80655671D01*
X182540480Y-80677850D01*
X182527868Y-80698893D01*
X182513253Y-80718599D01*
X182496777Y-80736777D01*
X182478599Y-80753253D01*
X182458893Y-80767868D01*
X182437850Y-80780480D01*
X182415671Y-80790970D01*
X182392572Y-80799235D01*
X182368773Y-80805196D01*
X182344505Y-80808796D01*
X182320001Y-80810000D01*
X181419999Y-80810000D01*
X181395495Y-80808796D01*
X181371227Y-80805196D01*
X181347428Y-80799235D01*
X181324329Y-80790970D01*
X181302150Y-80780480D01*
X181281107Y-80767868D01*
X181261401Y-80753253D01*
X181243223Y-80736777D01*
X181226747Y-80718599D01*
X181212132Y-80698893D01*
X181199520Y-80677850D01*
X181189030Y-80655671D01*
X181180765Y-80632572D01*
X181174804Y-80608773D01*
X181171204Y-80584505D01*
X181170000Y-80560001D01*
X181170000Y-79909999D01*
X181171204Y-79885495D01*
X181174804Y-79861227D01*
X181180765Y-79837428D01*
X181189030Y-79814329D01*
X181199520Y-79792150D01*
X181212132Y-79771107D01*
X181226747Y-79751401D01*
X181243223Y-79733223D01*
X181261401Y-79716747D01*
X181281107Y-79702132D01*
X181302150Y-79689520D01*
X181324329Y-79679030D01*
X181347428Y-79670765D01*
X181371227Y-79664804D01*
X181395495Y-79661204D01*
X181419999Y-79660000D01*
X182320001Y-79660000D01*
X182344505Y-79661204D01*
X182344505Y-79661204D01*
G37*
D13*
X181870000Y-80235000D03*
D10*
G36*
X182344505Y-81711204D02*
X182368773Y-81714804D01*
X182392572Y-81720765D01*
X182415671Y-81729030D01*
X182437850Y-81739520D01*
X182458893Y-81752132D01*
X182478599Y-81766747D01*
X182496777Y-81783223D01*
X182513253Y-81801401D01*
X182527868Y-81821107D01*
X182540480Y-81842150D01*
X182550970Y-81864329D01*
X182559235Y-81887428D01*
X182565196Y-81911227D01*
X182568796Y-81935495D01*
X182570000Y-81959999D01*
X182570000Y-82610001D01*
X182568796Y-82634505D01*
X182565196Y-82658773D01*
X182559235Y-82682572D01*
X182550970Y-82705671D01*
X182540480Y-82727850D01*
X182527868Y-82748893D01*
X182513253Y-82768599D01*
X182496777Y-82786777D01*
X182478599Y-82803253D01*
X182458893Y-82817868D01*
X182437850Y-82830480D01*
X182415671Y-82840970D01*
X182392572Y-82849235D01*
X182368773Y-82855196D01*
X182344505Y-82858796D01*
X182320001Y-82860000D01*
X181419999Y-82860000D01*
X181395495Y-82858796D01*
X181371227Y-82855196D01*
X181347428Y-82849235D01*
X181324329Y-82840970D01*
X181302150Y-82830480D01*
X181281107Y-82817868D01*
X181261401Y-82803253D01*
X181243223Y-82786777D01*
X181226747Y-82768599D01*
X181212132Y-82748893D01*
X181199520Y-82727850D01*
X181189030Y-82705671D01*
X181180765Y-82682572D01*
X181174804Y-82658773D01*
X181171204Y-82634505D01*
X181170000Y-82610001D01*
X181170000Y-81959999D01*
X181171204Y-81935495D01*
X181174804Y-81911227D01*
X181180765Y-81887428D01*
X181189030Y-81864329D01*
X181199520Y-81842150D01*
X181212132Y-81821107D01*
X181226747Y-81801401D01*
X181243223Y-81783223D01*
X181261401Y-81766747D01*
X181281107Y-81752132D01*
X181302150Y-81739520D01*
X181324329Y-81729030D01*
X181347428Y-81720765D01*
X181371227Y-81714804D01*
X181395495Y-81711204D01*
X181419999Y-81710000D01*
X182320001Y-81710000D01*
X182344505Y-81711204D01*
X182344505Y-81711204D01*
G37*
D13*
X181870000Y-82285000D03*
G04 #@! TD*
D10*
G04 #@! TO.C,R2*
G36*
X153350505Y-89303204D02*
X153374773Y-89306804D01*
X153398572Y-89312765D01*
X153421671Y-89321030D01*
X153443850Y-89331520D01*
X153464893Y-89344132D01*
X153484599Y-89358747D01*
X153502777Y-89375223D01*
X153519253Y-89393401D01*
X153533868Y-89413107D01*
X153546480Y-89434150D01*
X153556970Y-89456329D01*
X153565235Y-89479428D01*
X153571196Y-89503227D01*
X153574796Y-89527495D01*
X153576000Y-89551999D01*
X153576000Y-90202001D01*
X153574796Y-90226505D01*
X153571196Y-90250773D01*
X153565235Y-90274572D01*
X153556970Y-90297671D01*
X153546480Y-90319850D01*
X153533868Y-90340893D01*
X153519253Y-90360599D01*
X153502777Y-90378777D01*
X153484599Y-90395253D01*
X153464893Y-90409868D01*
X153443850Y-90422480D01*
X153421671Y-90432970D01*
X153398572Y-90441235D01*
X153374773Y-90447196D01*
X153350505Y-90450796D01*
X153326001Y-90452000D01*
X152425999Y-90452000D01*
X152401495Y-90450796D01*
X152377227Y-90447196D01*
X152353428Y-90441235D01*
X152330329Y-90432970D01*
X152308150Y-90422480D01*
X152287107Y-90409868D01*
X152267401Y-90395253D01*
X152249223Y-90378777D01*
X152232747Y-90360599D01*
X152218132Y-90340893D01*
X152205520Y-90319850D01*
X152195030Y-90297671D01*
X152186765Y-90274572D01*
X152180804Y-90250773D01*
X152177204Y-90226505D01*
X152176000Y-90202001D01*
X152176000Y-89551999D01*
X152177204Y-89527495D01*
X152180804Y-89503227D01*
X152186765Y-89479428D01*
X152195030Y-89456329D01*
X152205520Y-89434150D01*
X152218132Y-89413107D01*
X152232747Y-89393401D01*
X152249223Y-89375223D01*
X152267401Y-89358747D01*
X152287107Y-89344132D01*
X152308150Y-89331520D01*
X152330329Y-89321030D01*
X152353428Y-89312765D01*
X152377227Y-89306804D01*
X152401495Y-89303204D01*
X152425999Y-89302000D01*
X153326001Y-89302000D01*
X153350505Y-89303204D01*
X153350505Y-89303204D01*
G37*
D13*
X152876000Y-89877000D03*
D10*
G36*
X153350505Y-87253204D02*
X153374773Y-87256804D01*
X153398572Y-87262765D01*
X153421671Y-87271030D01*
X153443850Y-87281520D01*
X153464893Y-87294132D01*
X153484599Y-87308747D01*
X153502777Y-87325223D01*
X153519253Y-87343401D01*
X153533868Y-87363107D01*
X153546480Y-87384150D01*
X153556970Y-87406329D01*
X153565235Y-87429428D01*
X153571196Y-87453227D01*
X153574796Y-87477495D01*
X153576000Y-87501999D01*
X153576000Y-88152001D01*
X153574796Y-88176505D01*
X153571196Y-88200773D01*
X153565235Y-88224572D01*
X153556970Y-88247671D01*
X153546480Y-88269850D01*
X153533868Y-88290893D01*
X153519253Y-88310599D01*
X153502777Y-88328777D01*
X153484599Y-88345253D01*
X153464893Y-88359868D01*
X153443850Y-88372480D01*
X153421671Y-88382970D01*
X153398572Y-88391235D01*
X153374773Y-88397196D01*
X153350505Y-88400796D01*
X153326001Y-88402000D01*
X152425999Y-88402000D01*
X152401495Y-88400796D01*
X152377227Y-88397196D01*
X152353428Y-88391235D01*
X152330329Y-88382970D01*
X152308150Y-88372480D01*
X152287107Y-88359868D01*
X152267401Y-88345253D01*
X152249223Y-88328777D01*
X152232747Y-88310599D01*
X152218132Y-88290893D01*
X152205520Y-88269850D01*
X152195030Y-88247671D01*
X152186765Y-88224572D01*
X152180804Y-88200773D01*
X152177204Y-88176505D01*
X152176000Y-88152001D01*
X152176000Y-87501999D01*
X152177204Y-87477495D01*
X152180804Y-87453227D01*
X152186765Y-87429428D01*
X152195030Y-87406329D01*
X152205520Y-87384150D01*
X152218132Y-87363107D01*
X152232747Y-87343401D01*
X152249223Y-87325223D01*
X152267401Y-87308747D01*
X152287107Y-87294132D01*
X152308150Y-87281520D01*
X152330329Y-87271030D01*
X152353428Y-87262765D01*
X152377227Y-87256804D01*
X152401495Y-87253204D01*
X152425999Y-87252000D01*
X153326001Y-87252000D01*
X153350505Y-87253204D01*
X153350505Y-87253204D01*
G37*
D13*
X152876000Y-87827000D03*
G04 #@! TD*
D10*
G04 #@! TO.C,R3*
G36*
X160380505Y-87253204D02*
X160404773Y-87256804D01*
X160428572Y-87262765D01*
X160451671Y-87271030D01*
X160473850Y-87281520D01*
X160494893Y-87294132D01*
X160514599Y-87308747D01*
X160532777Y-87325223D01*
X160549253Y-87343401D01*
X160563868Y-87363107D01*
X160576480Y-87384150D01*
X160586970Y-87406329D01*
X160595235Y-87429428D01*
X160601196Y-87453227D01*
X160604796Y-87477495D01*
X160606000Y-87501999D01*
X160606000Y-88152001D01*
X160604796Y-88176505D01*
X160601196Y-88200773D01*
X160595235Y-88224572D01*
X160586970Y-88247671D01*
X160576480Y-88269850D01*
X160563868Y-88290893D01*
X160549253Y-88310599D01*
X160532777Y-88328777D01*
X160514599Y-88345253D01*
X160494893Y-88359868D01*
X160473850Y-88372480D01*
X160451671Y-88382970D01*
X160428572Y-88391235D01*
X160404773Y-88397196D01*
X160380505Y-88400796D01*
X160356001Y-88402000D01*
X159455999Y-88402000D01*
X159431495Y-88400796D01*
X159407227Y-88397196D01*
X159383428Y-88391235D01*
X159360329Y-88382970D01*
X159338150Y-88372480D01*
X159317107Y-88359868D01*
X159297401Y-88345253D01*
X159279223Y-88328777D01*
X159262747Y-88310599D01*
X159248132Y-88290893D01*
X159235520Y-88269850D01*
X159225030Y-88247671D01*
X159216765Y-88224572D01*
X159210804Y-88200773D01*
X159207204Y-88176505D01*
X159206000Y-88152001D01*
X159206000Y-87501999D01*
X159207204Y-87477495D01*
X159210804Y-87453227D01*
X159216765Y-87429428D01*
X159225030Y-87406329D01*
X159235520Y-87384150D01*
X159248132Y-87363107D01*
X159262747Y-87343401D01*
X159279223Y-87325223D01*
X159297401Y-87308747D01*
X159317107Y-87294132D01*
X159338150Y-87281520D01*
X159360329Y-87271030D01*
X159383428Y-87262765D01*
X159407227Y-87256804D01*
X159431495Y-87253204D01*
X159455999Y-87252000D01*
X160356001Y-87252000D01*
X160380505Y-87253204D01*
X160380505Y-87253204D01*
G37*
D13*
X159906000Y-87827000D03*
D10*
G36*
X160380505Y-89303204D02*
X160404773Y-89306804D01*
X160428572Y-89312765D01*
X160451671Y-89321030D01*
X160473850Y-89331520D01*
X160494893Y-89344132D01*
X160514599Y-89358747D01*
X160532777Y-89375223D01*
X160549253Y-89393401D01*
X160563868Y-89413107D01*
X160576480Y-89434150D01*
X160586970Y-89456329D01*
X160595235Y-89479428D01*
X160601196Y-89503227D01*
X160604796Y-89527495D01*
X160606000Y-89551999D01*
X160606000Y-90202001D01*
X160604796Y-90226505D01*
X160601196Y-90250773D01*
X160595235Y-90274572D01*
X160586970Y-90297671D01*
X160576480Y-90319850D01*
X160563868Y-90340893D01*
X160549253Y-90360599D01*
X160532777Y-90378777D01*
X160514599Y-90395253D01*
X160494893Y-90409868D01*
X160473850Y-90422480D01*
X160451671Y-90432970D01*
X160428572Y-90441235D01*
X160404773Y-90447196D01*
X160380505Y-90450796D01*
X160356001Y-90452000D01*
X159455999Y-90452000D01*
X159431495Y-90450796D01*
X159407227Y-90447196D01*
X159383428Y-90441235D01*
X159360329Y-90432970D01*
X159338150Y-90422480D01*
X159317107Y-90409868D01*
X159297401Y-90395253D01*
X159279223Y-90378777D01*
X159262747Y-90360599D01*
X159248132Y-90340893D01*
X159235520Y-90319850D01*
X159225030Y-90297671D01*
X159216765Y-90274572D01*
X159210804Y-90250773D01*
X159207204Y-90226505D01*
X159206000Y-90202001D01*
X159206000Y-89551999D01*
X159207204Y-89527495D01*
X159210804Y-89503227D01*
X159216765Y-89479428D01*
X159225030Y-89456329D01*
X159235520Y-89434150D01*
X159248132Y-89413107D01*
X159262747Y-89393401D01*
X159279223Y-89375223D01*
X159297401Y-89358747D01*
X159317107Y-89344132D01*
X159338150Y-89331520D01*
X159360329Y-89321030D01*
X159383428Y-89312765D01*
X159407227Y-89306804D01*
X159431495Y-89303204D01*
X159455999Y-89302000D01*
X160356001Y-89302000D01*
X160380505Y-89303204D01*
X160380505Y-89303204D01*
G37*
D13*
X159906000Y-89877000D03*
G04 #@! TD*
D10*
G04 #@! TO.C,R4*
G36*
X149854505Y-86271204D02*
X149878773Y-86274804D01*
X149902572Y-86280765D01*
X149925671Y-86289030D01*
X149947850Y-86299520D01*
X149968893Y-86312132D01*
X149988599Y-86326747D01*
X150006777Y-86343223D01*
X150023253Y-86361401D01*
X150037868Y-86381107D01*
X150050480Y-86402150D01*
X150060970Y-86424329D01*
X150069235Y-86447428D01*
X150075196Y-86471227D01*
X150078796Y-86495495D01*
X150080000Y-86519999D01*
X150080000Y-87420001D01*
X150078796Y-87444505D01*
X150075196Y-87468773D01*
X150069235Y-87492572D01*
X150060970Y-87515671D01*
X150050480Y-87537850D01*
X150037868Y-87558893D01*
X150023253Y-87578599D01*
X150006777Y-87596777D01*
X149988599Y-87613253D01*
X149968893Y-87627868D01*
X149947850Y-87640480D01*
X149925671Y-87650970D01*
X149902572Y-87659235D01*
X149878773Y-87665196D01*
X149854505Y-87668796D01*
X149830001Y-87670000D01*
X149179999Y-87670000D01*
X149155495Y-87668796D01*
X149131227Y-87665196D01*
X149107428Y-87659235D01*
X149084329Y-87650970D01*
X149062150Y-87640480D01*
X149041107Y-87627868D01*
X149021401Y-87613253D01*
X149003223Y-87596777D01*
X148986747Y-87578599D01*
X148972132Y-87558893D01*
X148959520Y-87537850D01*
X148949030Y-87515671D01*
X148940765Y-87492572D01*
X148934804Y-87468773D01*
X148931204Y-87444505D01*
X148930000Y-87420001D01*
X148930000Y-86519999D01*
X148931204Y-86495495D01*
X148934804Y-86471227D01*
X148940765Y-86447428D01*
X148949030Y-86424329D01*
X148959520Y-86402150D01*
X148972132Y-86381107D01*
X148986747Y-86361401D01*
X149003223Y-86343223D01*
X149021401Y-86326747D01*
X149041107Y-86312132D01*
X149062150Y-86299520D01*
X149084329Y-86289030D01*
X149107428Y-86280765D01*
X149131227Y-86274804D01*
X149155495Y-86271204D01*
X149179999Y-86270000D01*
X149830001Y-86270000D01*
X149854505Y-86271204D01*
X149854505Y-86271204D01*
G37*
D13*
X149505000Y-86970000D03*
D10*
G36*
X147804505Y-86271204D02*
X147828773Y-86274804D01*
X147852572Y-86280765D01*
X147875671Y-86289030D01*
X147897850Y-86299520D01*
X147918893Y-86312132D01*
X147938599Y-86326747D01*
X147956777Y-86343223D01*
X147973253Y-86361401D01*
X147987868Y-86381107D01*
X148000480Y-86402150D01*
X148010970Y-86424329D01*
X148019235Y-86447428D01*
X148025196Y-86471227D01*
X148028796Y-86495495D01*
X148030000Y-86519999D01*
X148030000Y-87420001D01*
X148028796Y-87444505D01*
X148025196Y-87468773D01*
X148019235Y-87492572D01*
X148010970Y-87515671D01*
X148000480Y-87537850D01*
X147987868Y-87558893D01*
X147973253Y-87578599D01*
X147956777Y-87596777D01*
X147938599Y-87613253D01*
X147918893Y-87627868D01*
X147897850Y-87640480D01*
X147875671Y-87650970D01*
X147852572Y-87659235D01*
X147828773Y-87665196D01*
X147804505Y-87668796D01*
X147780001Y-87670000D01*
X147129999Y-87670000D01*
X147105495Y-87668796D01*
X147081227Y-87665196D01*
X147057428Y-87659235D01*
X147034329Y-87650970D01*
X147012150Y-87640480D01*
X146991107Y-87627868D01*
X146971401Y-87613253D01*
X146953223Y-87596777D01*
X146936747Y-87578599D01*
X146922132Y-87558893D01*
X146909520Y-87537850D01*
X146899030Y-87515671D01*
X146890765Y-87492572D01*
X146884804Y-87468773D01*
X146881204Y-87444505D01*
X146880000Y-87420001D01*
X146880000Y-86519999D01*
X146881204Y-86495495D01*
X146884804Y-86471227D01*
X146890765Y-86447428D01*
X146899030Y-86424329D01*
X146909520Y-86402150D01*
X146922132Y-86381107D01*
X146936747Y-86361401D01*
X146953223Y-86343223D01*
X146971401Y-86326747D01*
X146991107Y-86312132D01*
X147012150Y-86299520D01*
X147034329Y-86289030D01*
X147057428Y-86280765D01*
X147081227Y-86274804D01*
X147105495Y-86271204D01*
X147129999Y-86270000D01*
X147780001Y-86270000D01*
X147804505Y-86271204D01*
X147804505Y-86271204D01*
G37*
D13*
X147455000Y-86970000D03*
G04 #@! TD*
D10*
G04 #@! TO.C,R5*
G36*
X163293504Y-82563204D02*
X163317772Y-82566804D01*
X163341571Y-82572765D01*
X163364670Y-82581030D01*
X163386849Y-82591520D01*
X163407892Y-82604132D01*
X163427598Y-82618747D01*
X163445776Y-82635223D01*
X163462252Y-82653401D01*
X163476867Y-82673107D01*
X163489479Y-82694150D01*
X163499969Y-82716329D01*
X163508234Y-82739428D01*
X163514195Y-82763227D01*
X163517795Y-82787495D01*
X163518999Y-82811999D01*
X163518999Y-83462001D01*
X163517795Y-83486505D01*
X163514195Y-83510773D01*
X163508234Y-83534572D01*
X163499969Y-83557671D01*
X163489479Y-83579850D01*
X163476867Y-83600893D01*
X163462252Y-83620599D01*
X163445776Y-83638777D01*
X163427598Y-83655253D01*
X163407892Y-83669868D01*
X163386849Y-83682480D01*
X163364670Y-83692970D01*
X163341571Y-83701235D01*
X163317772Y-83707196D01*
X163293504Y-83710796D01*
X163269000Y-83712000D01*
X162368998Y-83712000D01*
X162344494Y-83710796D01*
X162320226Y-83707196D01*
X162296427Y-83701235D01*
X162273328Y-83692970D01*
X162251149Y-83682480D01*
X162230106Y-83669868D01*
X162210400Y-83655253D01*
X162192222Y-83638777D01*
X162175746Y-83620599D01*
X162161131Y-83600893D01*
X162148519Y-83579850D01*
X162138029Y-83557671D01*
X162129764Y-83534572D01*
X162123803Y-83510773D01*
X162120203Y-83486505D01*
X162118999Y-83462001D01*
X162118999Y-82811999D01*
X162120203Y-82787495D01*
X162123803Y-82763227D01*
X162129764Y-82739428D01*
X162138029Y-82716329D01*
X162148519Y-82694150D01*
X162161131Y-82673107D01*
X162175746Y-82653401D01*
X162192222Y-82635223D01*
X162210400Y-82618747D01*
X162230106Y-82604132D01*
X162251149Y-82591520D01*
X162273328Y-82581030D01*
X162296427Y-82572765D01*
X162320226Y-82566804D01*
X162344494Y-82563204D01*
X162368998Y-82562000D01*
X163269000Y-82562000D01*
X163293504Y-82563204D01*
X163293504Y-82563204D01*
G37*
D13*
X162818999Y-83137000D03*
D10*
G36*
X163293504Y-84613204D02*
X163317772Y-84616804D01*
X163341571Y-84622765D01*
X163364670Y-84631030D01*
X163386849Y-84641520D01*
X163407892Y-84654132D01*
X163427598Y-84668747D01*
X163445776Y-84685223D01*
X163462252Y-84703401D01*
X163476867Y-84723107D01*
X163489479Y-84744150D01*
X163499969Y-84766329D01*
X163508234Y-84789428D01*
X163514195Y-84813227D01*
X163517795Y-84837495D01*
X163518999Y-84861999D01*
X163518999Y-85512001D01*
X163517795Y-85536505D01*
X163514195Y-85560773D01*
X163508234Y-85584572D01*
X163499969Y-85607671D01*
X163489479Y-85629850D01*
X163476867Y-85650893D01*
X163462252Y-85670599D01*
X163445776Y-85688777D01*
X163427598Y-85705253D01*
X163407892Y-85719868D01*
X163386849Y-85732480D01*
X163364670Y-85742970D01*
X163341571Y-85751235D01*
X163317772Y-85757196D01*
X163293504Y-85760796D01*
X163269000Y-85762000D01*
X162368998Y-85762000D01*
X162344494Y-85760796D01*
X162320226Y-85757196D01*
X162296427Y-85751235D01*
X162273328Y-85742970D01*
X162251149Y-85732480D01*
X162230106Y-85719868D01*
X162210400Y-85705253D01*
X162192222Y-85688777D01*
X162175746Y-85670599D01*
X162161131Y-85650893D01*
X162148519Y-85629850D01*
X162138029Y-85607671D01*
X162129764Y-85584572D01*
X162123803Y-85560773D01*
X162120203Y-85536505D01*
X162118999Y-85512001D01*
X162118999Y-84861999D01*
X162120203Y-84837495D01*
X162123803Y-84813227D01*
X162129764Y-84789428D01*
X162138029Y-84766329D01*
X162148519Y-84744150D01*
X162161131Y-84723107D01*
X162175746Y-84703401D01*
X162192222Y-84685223D01*
X162210400Y-84668747D01*
X162230106Y-84654132D01*
X162251149Y-84641520D01*
X162273328Y-84631030D01*
X162296427Y-84622765D01*
X162320226Y-84616804D01*
X162344494Y-84613204D01*
X162368998Y-84612000D01*
X163269000Y-84612000D01*
X163293504Y-84613204D01*
X163293504Y-84613204D01*
G37*
D13*
X162818999Y-85187000D03*
G04 #@! TD*
D10*
G04 #@! TO.C,R6*
G36*
X147804505Y-88271204D02*
X147828773Y-88274804D01*
X147852572Y-88280765D01*
X147875671Y-88289030D01*
X147897850Y-88299520D01*
X147918893Y-88312132D01*
X147938599Y-88326747D01*
X147956777Y-88343223D01*
X147973253Y-88361401D01*
X147987868Y-88381107D01*
X148000480Y-88402150D01*
X148010970Y-88424329D01*
X148019235Y-88447428D01*
X148025196Y-88471227D01*
X148028796Y-88495495D01*
X148030000Y-88519999D01*
X148030000Y-89420001D01*
X148028796Y-89444505D01*
X148025196Y-89468773D01*
X148019235Y-89492572D01*
X148010970Y-89515671D01*
X148000480Y-89537850D01*
X147987868Y-89558893D01*
X147973253Y-89578599D01*
X147956777Y-89596777D01*
X147938599Y-89613253D01*
X147918893Y-89627868D01*
X147897850Y-89640480D01*
X147875671Y-89650970D01*
X147852572Y-89659235D01*
X147828773Y-89665196D01*
X147804505Y-89668796D01*
X147780001Y-89670000D01*
X147129999Y-89670000D01*
X147105495Y-89668796D01*
X147081227Y-89665196D01*
X147057428Y-89659235D01*
X147034329Y-89650970D01*
X147012150Y-89640480D01*
X146991107Y-89627868D01*
X146971401Y-89613253D01*
X146953223Y-89596777D01*
X146936747Y-89578599D01*
X146922132Y-89558893D01*
X146909520Y-89537850D01*
X146899030Y-89515671D01*
X146890765Y-89492572D01*
X146884804Y-89468773D01*
X146881204Y-89444505D01*
X146880000Y-89420001D01*
X146880000Y-88519999D01*
X146881204Y-88495495D01*
X146884804Y-88471227D01*
X146890765Y-88447428D01*
X146899030Y-88424329D01*
X146909520Y-88402150D01*
X146922132Y-88381107D01*
X146936747Y-88361401D01*
X146953223Y-88343223D01*
X146971401Y-88326747D01*
X146991107Y-88312132D01*
X147012150Y-88299520D01*
X147034329Y-88289030D01*
X147057428Y-88280765D01*
X147081227Y-88274804D01*
X147105495Y-88271204D01*
X147129999Y-88270000D01*
X147780001Y-88270000D01*
X147804505Y-88271204D01*
X147804505Y-88271204D01*
G37*
D13*
X147455000Y-88970000D03*
D10*
G36*
X149854505Y-88271204D02*
X149878773Y-88274804D01*
X149902572Y-88280765D01*
X149925671Y-88289030D01*
X149947850Y-88299520D01*
X149968893Y-88312132D01*
X149988599Y-88326747D01*
X150006777Y-88343223D01*
X150023253Y-88361401D01*
X150037868Y-88381107D01*
X150050480Y-88402150D01*
X150060970Y-88424329D01*
X150069235Y-88447428D01*
X150075196Y-88471227D01*
X150078796Y-88495495D01*
X150080000Y-88519999D01*
X150080000Y-89420001D01*
X150078796Y-89444505D01*
X150075196Y-89468773D01*
X150069235Y-89492572D01*
X150060970Y-89515671D01*
X150050480Y-89537850D01*
X150037868Y-89558893D01*
X150023253Y-89578599D01*
X150006777Y-89596777D01*
X149988599Y-89613253D01*
X149968893Y-89627868D01*
X149947850Y-89640480D01*
X149925671Y-89650970D01*
X149902572Y-89659235D01*
X149878773Y-89665196D01*
X149854505Y-89668796D01*
X149830001Y-89670000D01*
X149179999Y-89670000D01*
X149155495Y-89668796D01*
X149131227Y-89665196D01*
X149107428Y-89659235D01*
X149084329Y-89650970D01*
X149062150Y-89640480D01*
X149041107Y-89627868D01*
X149021401Y-89613253D01*
X149003223Y-89596777D01*
X148986747Y-89578599D01*
X148972132Y-89558893D01*
X148959520Y-89537850D01*
X148949030Y-89515671D01*
X148940765Y-89492572D01*
X148934804Y-89468773D01*
X148931204Y-89444505D01*
X148930000Y-89420001D01*
X148930000Y-88519999D01*
X148931204Y-88495495D01*
X148934804Y-88471227D01*
X148940765Y-88447428D01*
X148949030Y-88424329D01*
X148959520Y-88402150D01*
X148972132Y-88381107D01*
X148986747Y-88361401D01*
X149003223Y-88343223D01*
X149021401Y-88326747D01*
X149041107Y-88312132D01*
X149062150Y-88299520D01*
X149084329Y-88289030D01*
X149107428Y-88280765D01*
X149131227Y-88274804D01*
X149155495Y-88271204D01*
X149179999Y-88270000D01*
X149830001Y-88270000D01*
X149854505Y-88271204D01*
X149854505Y-88271204D01*
G37*
D13*
X149505000Y-88970000D03*
G04 #@! TD*
D10*
G04 #@! TO.C,R7*
G36*
X165670505Y-84613204D02*
X165694773Y-84616804D01*
X165718572Y-84622765D01*
X165741671Y-84631030D01*
X165763850Y-84641520D01*
X165784893Y-84654132D01*
X165804599Y-84668747D01*
X165822777Y-84685223D01*
X165839253Y-84703401D01*
X165853868Y-84723107D01*
X165866480Y-84744150D01*
X165876970Y-84766329D01*
X165885235Y-84789428D01*
X165891196Y-84813227D01*
X165894796Y-84837495D01*
X165896000Y-84861999D01*
X165896000Y-85512001D01*
X165894796Y-85536505D01*
X165891196Y-85560773D01*
X165885235Y-85584572D01*
X165876970Y-85607671D01*
X165866480Y-85629850D01*
X165853868Y-85650893D01*
X165839253Y-85670599D01*
X165822777Y-85688777D01*
X165804599Y-85705253D01*
X165784893Y-85719868D01*
X165763850Y-85732480D01*
X165741671Y-85742970D01*
X165718572Y-85751235D01*
X165694773Y-85757196D01*
X165670505Y-85760796D01*
X165646001Y-85762000D01*
X164745999Y-85762000D01*
X164721495Y-85760796D01*
X164697227Y-85757196D01*
X164673428Y-85751235D01*
X164650329Y-85742970D01*
X164628150Y-85732480D01*
X164607107Y-85719868D01*
X164587401Y-85705253D01*
X164569223Y-85688777D01*
X164552747Y-85670599D01*
X164538132Y-85650893D01*
X164525520Y-85629850D01*
X164515030Y-85607671D01*
X164506765Y-85584572D01*
X164500804Y-85560773D01*
X164497204Y-85536505D01*
X164496000Y-85512001D01*
X164496000Y-84861999D01*
X164497204Y-84837495D01*
X164500804Y-84813227D01*
X164506765Y-84789428D01*
X164515030Y-84766329D01*
X164525520Y-84744150D01*
X164538132Y-84723107D01*
X164552747Y-84703401D01*
X164569223Y-84685223D01*
X164587401Y-84668747D01*
X164607107Y-84654132D01*
X164628150Y-84641520D01*
X164650329Y-84631030D01*
X164673428Y-84622765D01*
X164697227Y-84616804D01*
X164721495Y-84613204D01*
X164745999Y-84612000D01*
X165646001Y-84612000D01*
X165670505Y-84613204D01*
X165670505Y-84613204D01*
G37*
D13*
X165196000Y-85187000D03*
D10*
G36*
X165670505Y-82563204D02*
X165694773Y-82566804D01*
X165718572Y-82572765D01*
X165741671Y-82581030D01*
X165763850Y-82591520D01*
X165784893Y-82604132D01*
X165804599Y-82618747D01*
X165822777Y-82635223D01*
X165839253Y-82653401D01*
X165853868Y-82673107D01*
X165866480Y-82694150D01*
X165876970Y-82716329D01*
X165885235Y-82739428D01*
X165891196Y-82763227D01*
X165894796Y-82787495D01*
X165896000Y-82811999D01*
X165896000Y-83462001D01*
X165894796Y-83486505D01*
X165891196Y-83510773D01*
X165885235Y-83534572D01*
X165876970Y-83557671D01*
X165866480Y-83579850D01*
X165853868Y-83600893D01*
X165839253Y-83620599D01*
X165822777Y-83638777D01*
X165804599Y-83655253D01*
X165784893Y-83669868D01*
X165763850Y-83682480D01*
X165741671Y-83692970D01*
X165718572Y-83701235D01*
X165694773Y-83707196D01*
X165670505Y-83710796D01*
X165646001Y-83712000D01*
X164745999Y-83712000D01*
X164721495Y-83710796D01*
X164697227Y-83707196D01*
X164673428Y-83701235D01*
X164650329Y-83692970D01*
X164628150Y-83682480D01*
X164607107Y-83669868D01*
X164587401Y-83655253D01*
X164569223Y-83638777D01*
X164552747Y-83620599D01*
X164538132Y-83600893D01*
X164525520Y-83579850D01*
X164515030Y-83557671D01*
X164506765Y-83534572D01*
X164500804Y-83510773D01*
X164497204Y-83486505D01*
X164496000Y-83462001D01*
X164496000Y-82811999D01*
X164497204Y-82787495D01*
X164500804Y-82763227D01*
X164506765Y-82739428D01*
X164515030Y-82716329D01*
X164525520Y-82694150D01*
X164538132Y-82673107D01*
X164552747Y-82653401D01*
X164569223Y-82635223D01*
X164587401Y-82618747D01*
X164607107Y-82604132D01*
X164628150Y-82591520D01*
X164650329Y-82581030D01*
X164673428Y-82572765D01*
X164697227Y-82566804D01*
X164721495Y-82563204D01*
X164745999Y-82562000D01*
X165646001Y-82562000D01*
X165670505Y-82563204D01*
X165670505Y-82563204D01*
G37*
D13*
X165196000Y-83137000D03*
G04 #@! TD*
D10*
G04 #@! TO.C,R8*
G36*
X250907005Y-45037204D02*
X250931273Y-45040804D01*
X250955072Y-45046765D01*
X250978171Y-45055030D01*
X251000350Y-45065520D01*
X251021393Y-45078132D01*
X251041099Y-45092747D01*
X251059277Y-45109223D01*
X251075753Y-45127401D01*
X251090368Y-45147107D01*
X251102980Y-45168150D01*
X251113470Y-45190329D01*
X251121735Y-45213428D01*
X251127696Y-45237227D01*
X251131296Y-45261495D01*
X251132500Y-45285999D01*
X251132500Y-49986001D01*
X251131296Y-50010505D01*
X251127696Y-50034773D01*
X251121735Y-50058572D01*
X251113470Y-50081671D01*
X251102980Y-50103850D01*
X251090368Y-50124893D01*
X251075753Y-50144599D01*
X251059277Y-50162777D01*
X251041099Y-50179253D01*
X251021393Y-50193868D01*
X251000350Y-50206480D01*
X250978171Y-50216970D01*
X250955072Y-50225235D01*
X250931273Y-50231196D01*
X250907005Y-50234796D01*
X250882501Y-50236000D01*
X250057499Y-50236000D01*
X250032995Y-50234796D01*
X250008727Y-50231196D01*
X249984928Y-50225235D01*
X249961829Y-50216970D01*
X249939650Y-50206480D01*
X249918607Y-50193868D01*
X249898901Y-50179253D01*
X249880723Y-50162777D01*
X249864247Y-50144599D01*
X249849632Y-50124893D01*
X249837020Y-50103850D01*
X249826530Y-50081671D01*
X249818265Y-50058572D01*
X249812304Y-50034773D01*
X249808704Y-50010505D01*
X249807500Y-49986001D01*
X249807500Y-45285999D01*
X249808704Y-45261495D01*
X249812304Y-45237227D01*
X249818265Y-45213428D01*
X249826530Y-45190329D01*
X249837020Y-45168150D01*
X249849632Y-45147107D01*
X249864247Y-45127401D01*
X249880723Y-45109223D01*
X249898901Y-45092747D01*
X249918607Y-45078132D01*
X249939650Y-45065520D01*
X249961829Y-45055030D01*
X249984928Y-45046765D01*
X250008727Y-45040804D01*
X250032995Y-45037204D01*
X250057499Y-45036000D01*
X250882501Y-45036000D01*
X250907005Y-45037204D01*
X250907005Y-45037204D01*
G37*
D11*
X250470000Y-47636000D03*
D10*
G36*
X253332005Y-45037204D02*
X253356273Y-45040804D01*
X253380072Y-45046765D01*
X253403171Y-45055030D01*
X253425350Y-45065520D01*
X253446393Y-45078132D01*
X253466099Y-45092747D01*
X253484277Y-45109223D01*
X253500753Y-45127401D01*
X253515368Y-45147107D01*
X253527980Y-45168150D01*
X253538470Y-45190329D01*
X253546735Y-45213428D01*
X253552696Y-45237227D01*
X253556296Y-45261495D01*
X253557500Y-45285999D01*
X253557500Y-49986001D01*
X253556296Y-50010505D01*
X253552696Y-50034773D01*
X253546735Y-50058572D01*
X253538470Y-50081671D01*
X253527980Y-50103850D01*
X253515368Y-50124893D01*
X253500753Y-50144599D01*
X253484277Y-50162777D01*
X253466099Y-50179253D01*
X253446393Y-50193868D01*
X253425350Y-50206480D01*
X253403171Y-50216970D01*
X253380072Y-50225235D01*
X253356273Y-50231196D01*
X253332005Y-50234796D01*
X253307501Y-50236000D01*
X252482499Y-50236000D01*
X252457995Y-50234796D01*
X252433727Y-50231196D01*
X252409928Y-50225235D01*
X252386829Y-50216970D01*
X252364650Y-50206480D01*
X252343607Y-50193868D01*
X252323901Y-50179253D01*
X252305723Y-50162777D01*
X252289247Y-50144599D01*
X252274632Y-50124893D01*
X252262020Y-50103850D01*
X252251530Y-50081671D01*
X252243265Y-50058572D01*
X252237304Y-50034773D01*
X252233704Y-50010505D01*
X252232500Y-49986001D01*
X252232500Y-45285999D01*
X252233704Y-45261495D01*
X252237304Y-45237227D01*
X252243265Y-45213428D01*
X252251530Y-45190329D01*
X252262020Y-45168150D01*
X252274632Y-45147107D01*
X252289247Y-45127401D01*
X252305723Y-45109223D01*
X252323901Y-45092747D01*
X252343607Y-45078132D01*
X252364650Y-45065520D01*
X252386829Y-45055030D01*
X252409928Y-45046765D01*
X252433727Y-45040804D01*
X252457995Y-45037204D01*
X252482499Y-45036000D01*
X253307501Y-45036000D01*
X253332005Y-45037204D01*
X253332005Y-45037204D01*
G37*
D11*
X252895000Y-47636000D03*
G04 #@! TD*
D10*
G04 #@! TO.C,R9*
G36*
X130747005Y-45061204D02*
X130771273Y-45064804D01*
X130795072Y-45070765D01*
X130818171Y-45079030D01*
X130840350Y-45089520D01*
X130861393Y-45102132D01*
X130881099Y-45116747D01*
X130899277Y-45133223D01*
X130915753Y-45151401D01*
X130930368Y-45171107D01*
X130942980Y-45192150D01*
X130953470Y-45214329D01*
X130961735Y-45237428D01*
X130967696Y-45261227D01*
X130971296Y-45285495D01*
X130972500Y-45309999D01*
X130972500Y-50010001D01*
X130971296Y-50034505D01*
X130967696Y-50058773D01*
X130961735Y-50082572D01*
X130953470Y-50105671D01*
X130942980Y-50127850D01*
X130930368Y-50148893D01*
X130915753Y-50168599D01*
X130899277Y-50186777D01*
X130881099Y-50203253D01*
X130861393Y-50217868D01*
X130840350Y-50230480D01*
X130818171Y-50240970D01*
X130795072Y-50249235D01*
X130771273Y-50255196D01*
X130747005Y-50258796D01*
X130722501Y-50260000D01*
X129897499Y-50260000D01*
X129872995Y-50258796D01*
X129848727Y-50255196D01*
X129824928Y-50249235D01*
X129801829Y-50240970D01*
X129779650Y-50230480D01*
X129758607Y-50217868D01*
X129738901Y-50203253D01*
X129720723Y-50186777D01*
X129704247Y-50168599D01*
X129689632Y-50148893D01*
X129677020Y-50127850D01*
X129666530Y-50105671D01*
X129658265Y-50082572D01*
X129652304Y-50058773D01*
X129648704Y-50034505D01*
X129647500Y-50010001D01*
X129647500Y-45309999D01*
X129648704Y-45285495D01*
X129652304Y-45261227D01*
X129658265Y-45237428D01*
X129666530Y-45214329D01*
X129677020Y-45192150D01*
X129689632Y-45171107D01*
X129704247Y-45151401D01*
X129720723Y-45133223D01*
X129738901Y-45116747D01*
X129758607Y-45102132D01*
X129779650Y-45089520D01*
X129801829Y-45079030D01*
X129824928Y-45070765D01*
X129848727Y-45064804D01*
X129872995Y-45061204D01*
X129897499Y-45060000D01*
X130722501Y-45060000D01*
X130747005Y-45061204D01*
X130747005Y-45061204D01*
G37*
D11*
X130310000Y-47660000D03*
D10*
G36*
X133172005Y-45061204D02*
X133196273Y-45064804D01*
X133220072Y-45070765D01*
X133243171Y-45079030D01*
X133265350Y-45089520D01*
X133286393Y-45102132D01*
X133306099Y-45116747D01*
X133324277Y-45133223D01*
X133340753Y-45151401D01*
X133355368Y-45171107D01*
X133367980Y-45192150D01*
X133378470Y-45214329D01*
X133386735Y-45237428D01*
X133392696Y-45261227D01*
X133396296Y-45285495D01*
X133397500Y-45309999D01*
X133397500Y-50010001D01*
X133396296Y-50034505D01*
X133392696Y-50058773D01*
X133386735Y-50082572D01*
X133378470Y-50105671D01*
X133367980Y-50127850D01*
X133355368Y-50148893D01*
X133340753Y-50168599D01*
X133324277Y-50186777D01*
X133306099Y-50203253D01*
X133286393Y-50217868D01*
X133265350Y-50230480D01*
X133243171Y-50240970D01*
X133220072Y-50249235D01*
X133196273Y-50255196D01*
X133172005Y-50258796D01*
X133147501Y-50260000D01*
X132322499Y-50260000D01*
X132297995Y-50258796D01*
X132273727Y-50255196D01*
X132249928Y-50249235D01*
X132226829Y-50240970D01*
X132204650Y-50230480D01*
X132183607Y-50217868D01*
X132163901Y-50203253D01*
X132145723Y-50186777D01*
X132129247Y-50168599D01*
X132114632Y-50148893D01*
X132102020Y-50127850D01*
X132091530Y-50105671D01*
X132083265Y-50082572D01*
X132077304Y-50058773D01*
X132073704Y-50034505D01*
X132072500Y-50010001D01*
X132072500Y-45309999D01*
X132073704Y-45285495D01*
X132077304Y-45261227D01*
X132083265Y-45237428D01*
X132091530Y-45214329D01*
X132102020Y-45192150D01*
X132114632Y-45171107D01*
X132129247Y-45151401D01*
X132145723Y-45133223D01*
X132163901Y-45116747D01*
X132183607Y-45102132D01*
X132204650Y-45089520D01*
X132226829Y-45079030D01*
X132249928Y-45070765D01*
X132273727Y-45064804D01*
X132297995Y-45061204D01*
X132322499Y-45060000D01*
X133147501Y-45060000D01*
X133172005Y-45061204D01*
X133172005Y-45061204D01*
G37*
D11*
X132735000Y-47660000D03*
G04 #@! TD*
D10*
G04 #@! TO.C,R10*
G36*
X153394505Y-73743204D02*
X153418773Y-73746804D01*
X153442572Y-73752765D01*
X153465671Y-73761030D01*
X153487850Y-73771520D01*
X153508893Y-73784132D01*
X153528599Y-73798747D01*
X153546777Y-73815223D01*
X153563253Y-73833401D01*
X153577868Y-73853107D01*
X153590480Y-73874150D01*
X153600970Y-73896329D01*
X153609235Y-73919428D01*
X153615196Y-73943227D01*
X153618796Y-73967495D01*
X153620000Y-73991999D01*
X153620000Y-74642001D01*
X153618796Y-74666505D01*
X153615196Y-74690773D01*
X153609235Y-74714572D01*
X153600970Y-74737671D01*
X153590480Y-74759850D01*
X153577868Y-74780893D01*
X153563253Y-74800599D01*
X153546777Y-74818777D01*
X153528599Y-74835253D01*
X153508893Y-74849868D01*
X153487850Y-74862480D01*
X153465671Y-74872970D01*
X153442572Y-74881235D01*
X153418773Y-74887196D01*
X153394505Y-74890796D01*
X153370001Y-74892000D01*
X152469999Y-74892000D01*
X152445495Y-74890796D01*
X152421227Y-74887196D01*
X152397428Y-74881235D01*
X152374329Y-74872970D01*
X152352150Y-74862480D01*
X152331107Y-74849868D01*
X152311401Y-74835253D01*
X152293223Y-74818777D01*
X152276747Y-74800599D01*
X152262132Y-74780893D01*
X152249520Y-74759850D01*
X152239030Y-74737671D01*
X152230765Y-74714572D01*
X152224804Y-74690773D01*
X152221204Y-74666505D01*
X152220000Y-74642001D01*
X152220000Y-73991999D01*
X152221204Y-73967495D01*
X152224804Y-73943227D01*
X152230765Y-73919428D01*
X152239030Y-73896329D01*
X152249520Y-73874150D01*
X152262132Y-73853107D01*
X152276747Y-73833401D01*
X152293223Y-73815223D01*
X152311401Y-73798747D01*
X152331107Y-73784132D01*
X152352150Y-73771520D01*
X152374329Y-73761030D01*
X152397428Y-73752765D01*
X152421227Y-73746804D01*
X152445495Y-73743204D01*
X152469999Y-73742000D01*
X153370001Y-73742000D01*
X153394505Y-73743204D01*
X153394505Y-73743204D01*
G37*
D13*
X152920000Y-74317000D03*
D10*
G36*
X153394505Y-75793204D02*
X153418773Y-75796804D01*
X153442572Y-75802765D01*
X153465671Y-75811030D01*
X153487850Y-75821520D01*
X153508893Y-75834132D01*
X153528599Y-75848747D01*
X153546777Y-75865223D01*
X153563253Y-75883401D01*
X153577868Y-75903107D01*
X153590480Y-75924150D01*
X153600970Y-75946329D01*
X153609235Y-75969428D01*
X153615196Y-75993227D01*
X153618796Y-76017495D01*
X153620000Y-76041999D01*
X153620000Y-76692001D01*
X153618796Y-76716505D01*
X153615196Y-76740773D01*
X153609235Y-76764572D01*
X153600970Y-76787671D01*
X153590480Y-76809850D01*
X153577868Y-76830893D01*
X153563253Y-76850599D01*
X153546777Y-76868777D01*
X153528599Y-76885253D01*
X153508893Y-76899868D01*
X153487850Y-76912480D01*
X153465671Y-76922970D01*
X153442572Y-76931235D01*
X153418773Y-76937196D01*
X153394505Y-76940796D01*
X153370001Y-76942000D01*
X152469999Y-76942000D01*
X152445495Y-76940796D01*
X152421227Y-76937196D01*
X152397428Y-76931235D01*
X152374329Y-76922970D01*
X152352150Y-76912480D01*
X152331107Y-76899868D01*
X152311401Y-76885253D01*
X152293223Y-76868777D01*
X152276747Y-76850599D01*
X152262132Y-76830893D01*
X152249520Y-76809850D01*
X152239030Y-76787671D01*
X152230765Y-76764572D01*
X152224804Y-76740773D01*
X152221204Y-76716505D01*
X152220000Y-76692001D01*
X152220000Y-76041999D01*
X152221204Y-76017495D01*
X152224804Y-75993227D01*
X152230765Y-75969428D01*
X152239030Y-75946329D01*
X152249520Y-75924150D01*
X152262132Y-75903107D01*
X152276747Y-75883401D01*
X152293223Y-75865223D01*
X152311401Y-75848747D01*
X152331107Y-75834132D01*
X152352150Y-75821520D01*
X152374329Y-75811030D01*
X152397428Y-75802765D01*
X152421227Y-75796804D01*
X152445495Y-75793204D01*
X152469999Y-75792000D01*
X153370001Y-75792000D01*
X153394505Y-75793204D01*
X153394505Y-75793204D01*
G37*
D13*
X152920000Y-76367000D03*
G04 #@! TD*
D10*
G04 #@! TO.C,R11*
G36*
X160340505Y-73743204D02*
X160364773Y-73746804D01*
X160388572Y-73752765D01*
X160411671Y-73761030D01*
X160433850Y-73771520D01*
X160454893Y-73784132D01*
X160474599Y-73798747D01*
X160492777Y-73815223D01*
X160509253Y-73833401D01*
X160523868Y-73853107D01*
X160536480Y-73874150D01*
X160546970Y-73896329D01*
X160555235Y-73919428D01*
X160561196Y-73943227D01*
X160564796Y-73967495D01*
X160566000Y-73991999D01*
X160566000Y-74642001D01*
X160564796Y-74666505D01*
X160561196Y-74690773D01*
X160555235Y-74714572D01*
X160546970Y-74737671D01*
X160536480Y-74759850D01*
X160523868Y-74780893D01*
X160509253Y-74800599D01*
X160492777Y-74818777D01*
X160474599Y-74835253D01*
X160454893Y-74849868D01*
X160433850Y-74862480D01*
X160411671Y-74872970D01*
X160388572Y-74881235D01*
X160364773Y-74887196D01*
X160340505Y-74890796D01*
X160316001Y-74892000D01*
X159415999Y-74892000D01*
X159391495Y-74890796D01*
X159367227Y-74887196D01*
X159343428Y-74881235D01*
X159320329Y-74872970D01*
X159298150Y-74862480D01*
X159277107Y-74849868D01*
X159257401Y-74835253D01*
X159239223Y-74818777D01*
X159222747Y-74800599D01*
X159208132Y-74780893D01*
X159195520Y-74759850D01*
X159185030Y-74737671D01*
X159176765Y-74714572D01*
X159170804Y-74690773D01*
X159167204Y-74666505D01*
X159166000Y-74642001D01*
X159166000Y-73991999D01*
X159167204Y-73967495D01*
X159170804Y-73943227D01*
X159176765Y-73919428D01*
X159185030Y-73896329D01*
X159195520Y-73874150D01*
X159208132Y-73853107D01*
X159222747Y-73833401D01*
X159239223Y-73815223D01*
X159257401Y-73798747D01*
X159277107Y-73784132D01*
X159298150Y-73771520D01*
X159320329Y-73761030D01*
X159343428Y-73752765D01*
X159367227Y-73746804D01*
X159391495Y-73743204D01*
X159415999Y-73742000D01*
X160316001Y-73742000D01*
X160340505Y-73743204D01*
X160340505Y-73743204D01*
G37*
D13*
X159866000Y-74317000D03*
D10*
G36*
X160340505Y-75793204D02*
X160364773Y-75796804D01*
X160388572Y-75802765D01*
X160411671Y-75811030D01*
X160433850Y-75821520D01*
X160454893Y-75834132D01*
X160474599Y-75848747D01*
X160492777Y-75865223D01*
X160509253Y-75883401D01*
X160523868Y-75903107D01*
X160536480Y-75924150D01*
X160546970Y-75946329D01*
X160555235Y-75969428D01*
X160561196Y-75993227D01*
X160564796Y-76017495D01*
X160566000Y-76041999D01*
X160566000Y-76692001D01*
X160564796Y-76716505D01*
X160561196Y-76740773D01*
X160555235Y-76764572D01*
X160546970Y-76787671D01*
X160536480Y-76809850D01*
X160523868Y-76830893D01*
X160509253Y-76850599D01*
X160492777Y-76868777D01*
X160474599Y-76885253D01*
X160454893Y-76899868D01*
X160433850Y-76912480D01*
X160411671Y-76922970D01*
X160388572Y-76931235D01*
X160364773Y-76937196D01*
X160340505Y-76940796D01*
X160316001Y-76942000D01*
X159415999Y-76942000D01*
X159391495Y-76940796D01*
X159367227Y-76937196D01*
X159343428Y-76931235D01*
X159320329Y-76922970D01*
X159298150Y-76912480D01*
X159277107Y-76899868D01*
X159257401Y-76885253D01*
X159239223Y-76868777D01*
X159222747Y-76850599D01*
X159208132Y-76830893D01*
X159195520Y-76809850D01*
X159185030Y-76787671D01*
X159176765Y-76764572D01*
X159170804Y-76740773D01*
X159167204Y-76716505D01*
X159166000Y-76692001D01*
X159166000Y-76041999D01*
X159167204Y-76017495D01*
X159170804Y-75993227D01*
X159176765Y-75969428D01*
X159185030Y-75946329D01*
X159195520Y-75924150D01*
X159208132Y-75903107D01*
X159222747Y-75883401D01*
X159239223Y-75865223D01*
X159257401Y-75848747D01*
X159277107Y-75834132D01*
X159298150Y-75821520D01*
X159320329Y-75811030D01*
X159343428Y-75802765D01*
X159367227Y-75796804D01*
X159391495Y-75793204D01*
X159415999Y-75792000D01*
X160316001Y-75792000D01*
X160340505Y-75793204D01*
X160340505Y-75793204D01*
G37*
D13*
X159866000Y-76367000D03*
G04 #@! TD*
D10*
G04 #@! TO.C,R12*
G36*
X150590505Y-73743204D02*
X150614773Y-73746804D01*
X150638572Y-73752765D01*
X150661671Y-73761030D01*
X150683850Y-73771520D01*
X150704893Y-73784132D01*
X150724599Y-73798747D01*
X150742777Y-73815223D01*
X150759253Y-73833401D01*
X150773868Y-73853107D01*
X150786480Y-73874150D01*
X150796970Y-73896329D01*
X150805235Y-73919428D01*
X150811196Y-73943227D01*
X150814796Y-73967495D01*
X150816000Y-73991999D01*
X150816000Y-74642001D01*
X150814796Y-74666505D01*
X150811196Y-74690773D01*
X150805235Y-74714572D01*
X150796970Y-74737671D01*
X150786480Y-74759850D01*
X150773868Y-74780893D01*
X150759253Y-74800599D01*
X150742777Y-74818777D01*
X150724599Y-74835253D01*
X150704893Y-74849868D01*
X150683850Y-74862480D01*
X150661671Y-74872970D01*
X150638572Y-74881235D01*
X150614773Y-74887196D01*
X150590505Y-74890796D01*
X150566001Y-74892000D01*
X149665999Y-74892000D01*
X149641495Y-74890796D01*
X149617227Y-74887196D01*
X149593428Y-74881235D01*
X149570329Y-74872970D01*
X149548150Y-74862480D01*
X149527107Y-74849868D01*
X149507401Y-74835253D01*
X149489223Y-74818777D01*
X149472747Y-74800599D01*
X149458132Y-74780893D01*
X149445520Y-74759850D01*
X149435030Y-74737671D01*
X149426765Y-74714572D01*
X149420804Y-74690773D01*
X149417204Y-74666505D01*
X149416000Y-74642001D01*
X149416000Y-73991999D01*
X149417204Y-73967495D01*
X149420804Y-73943227D01*
X149426765Y-73919428D01*
X149435030Y-73896329D01*
X149445520Y-73874150D01*
X149458132Y-73853107D01*
X149472747Y-73833401D01*
X149489223Y-73815223D01*
X149507401Y-73798747D01*
X149527107Y-73784132D01*
X149548150Y-73771520D01*
X149570329Y-73761030D01*
X149593428Y-73752765D01*
X149617227Y-73746804D01*
X149641495Y-73743204D01*
X149665999Y-73742000D01*
X150566001Y-73742000D01*
X150590505Y-73743204D01*
X150590505Y-73743204D01*
G37*
D13*
X150116000Y-74317000D03*
D10*
G36*
X150590505Y-75793204D02*
X150614773Y-75796804D01*
X150638572Y-75802765D01*
X150661671Y-75811030D01*
X150683850Y-75821520D01*
X150704893Y-75834132D01*
X150724599Y-75848747D01*
X150742777Y-75865223D01*
X150759253Y-75883401D01*
X150773868Y-75903107D01*
X150786480Y-75924150D01*
X150796970Y-75946329D01*
X150805235Y-75969428D01*
X150811196Y-75993227D01*
X150814796Y-76017495D01*
X150816000Y-76041999D01*
X150816000Y-76692001D01*
X150814796Y-76716505D01*
X150811196Y-76740773D01*
X150805235Y-76764572D01*
X150796970Y-76787671D01*
X150786480Y-76809850D01*
X150773868Y-76830893D01*
X150759253Y-76850599D01*
X150742777Y-76868777D01*
X150724599Y-76885253D01*
X150704893Y-76899868D01*
X150683850Y-76912480D01*
X150661671Y-76922970D01*
X150638572Y-76931235D01*
X150614773Y-76937196D01*
X150590505Y-76940796D01*
X150566001Y-76942000D01*
X149665999Y-76942000D01*
X149641495Y-76940796D01*
X149617227Y-76937196D01*
X149593428Y-76931235D01*
X149570329Y-76922970D01*
X149548150Y-76912480D01*
X149527107Y-76899868D01*
X149507401Y-76885253D01*
X149489223Y-76868777D01*
X149472747Y-76850599D01*
X149458132Y-76830893D01*
X149445520Y-76809850D01*
X149435030Y-76787671D01*
X149426765Y-76764572D01*
X149420804Y-76740773D01*
X149417204Y-76716505D01*
X149416000Y-76692001D01*
X149416000Y-76041999D01*
X149417204Y-76017495D01*
X149420804Y-75993227D01*
X149426765Y-75969428D01*
X149435030Y-75946329D01*
X149445520Y-75924150D01*
X149458132Y-75903107D01*
X149472747Y-75883401D01*
X149489223Y-75865223D01*
X149507401Y-75848747D01*
X149527107Y-75834132D01*
X149548150Y-75821520D01*
X149570329Y-75811030D01*
X149593428Y-75802765D01*
X149617227Y-75796804D01*
X149641495Y-75793204D01*
X149665999Y-75792000D01*
X150566001Y-75792000D01*
X150590505Y-75793204D01*
X150590505Y-75793204D01*
G37*
D13*
X150116000Y-76367000D03*
G04 #@! TD*
D10*
G04 #@! TO.C,R13*
G36*
X163293504Y-79213204D02*
X163317772Y-79216804D01*
X163341571Y-79222765D01*
X163364670Y-79231030D01*
X163386849Y-79241520D01*
X163407892Y-79254132D01*
X163427598Y-79268747D01*
X163445776Y-79285223D01*
X163462252Y-79303401D01*
X163476867Y-79323107D01*
X163489479Y-79344150D01*
X163499969Y-79366329D01*
X163508234Y-79389428D01*
X163514195Y-79413227D01*
X163517795Y-79437495D01*
X163518999Y-79461999D01*
X163518999Y-80112001D01*
X163517795Y-80136505D01*
X163514195Y-80160773D01*
X163508234Y-80184572D01*
X163499969Y-80207671D01*
X163489479Y-80229850D01*
X163476867Y-80250893D01*
X163462252Y-80270599D01*
X163445776Y-80288777D01*
X163427598Y-80305253D01*
X163407892Y-80319868D01*
X163386849Y-80332480D01*
X163364670Y-80342970D01*
X163341571Y-80351235D01*
X163317772Y-80357196D01*
X163293504Y-80360796D01*
X163269000Y-80362000D01*
X162368998Y-80362000D01*
X162344494Y-80360796D01*
X162320226Y-80357196D01*
X162296427Y-80351235D01*
X162273328Y-80342970D01*
X162251149Y-80332480D01*
X162230106Y-80319868D01*
X162210400Y-80305253D01*
X162192222Y-80288777D01*
X162175746Y-80270599D01*
X162161131Y-80250893D01*
X162148519Y-80229850D01*
X162138029Y-80207671D01*
X162129764Y-80184572D01*
X162123803Y-80160773D01*
X162120203Y-80136505D01*
X162118999Y-80112001D01*
X162118999Y-79461999D01*
X162120203Y-79437495D01*
X162123803Y-79413227D01*
X162129764Y-79389428D01*
X162138029Y-79366329D01*
X162148519Y-79344150D01*
X162161131Y-79323107D01*
X162175746Y-79303401D01*
X162192222Y-79285223D01*
X162210400Y-79268747D01*
X162230106Y-79254132D01*
X162251149Y-79241520D01*
X162273328Y-79231030D01*
X162296427Y-79222765D01*
X162320226Y-79216804D01*
X162344494Y-79213204D01*
X162368998Y-79212000D01*
X163269000Y-79212000D01*
X163293504Y-79213204D01*
X163293504Y-79213204D01*
G37*
D13*
X162818999Y-79787000D03*
D10*
G36*
X163293504Y-77163204D02*
X163317772Y-77166804D01*
X163341571Y-77172765D01*
X163364670Y-77181030D01*
X163386849Y-77191520D01*
X163407892Y-77204132D01*
X163427598Y-77218747D01*
X163445776Y-77235223D01*
X163462252Y-77253401D01*
X163476867Y-77273107D01*
X163489479Y-77294150D01*
X163499969Y-77316329D01*
X163508234Y-77339428D01*
X163514195Y-77363227D01*
X163517795Y-77387495D01*
X163518999Y-77411999D01*
X163518999Y-78062001D01*
X163517795Y-78086505D01*
X163514195Y-78110773D01*
X163508234Y-78134572D01*
X163499969Y-78157671D01*
X163489479Y-78179850D01*
X163476867Y-78200893D01*
X163462252Y-78220599D01*
X163445776Y-78238777D01*
X163427598Y-78255253D01*
X163407892Y-78269868D01*
X163386849Y-78282480D01*
X163364670Y-78292970D01*
X163341571Y-78301235D01*
X163317772Y-78307196D01*
X163293504Y-78310796D01*
X163269000Y-78312000D01*
X162368998Y-78312000D01*
X162344494Y-78310796D01*
X162320226Y-78307196D01*
X162296427Y-78301235D01*
X162273328Y-78292970D01*
X162251149Y-78282480D01*
X162230106Y-78269868D01*
X162210400Y-78255253D01*
X162192222Y-78238777D01*
X162175746Y-78220599D01*
X162161131Y-78200893D01*
X162148519Y-78179850D01*
X162138029Y-78157671D01*
X162129764Y-78134572D01*
X162123803Y-78110773D01*
X162120203Y-78086505D01*
X162118999Y-78062001D01*
X162118999Y-77411999D01*
X162120203Y-77387495D01*
X162123803Y-77363227D01*
X162129764Y-77339428D01*
X162138029Y-77316329D01*
X162148519Y-77294150D01*
X162161131Y-77273107D01*
X162175746Y-77253401D01*
X162192222Y-77235223D01*
X162210400Y-77218747D01*
X162230106Y-77204132D01*
X162251149Y-77191520D01*
X162273328Y-77181030D01*
X162296427Y-77172765D01*
X162320226Y-77166804D01*
X162344494Y-77163204D01*
X162368998Y-77162000D01*
X163269000Y-77162000D01*
X163293504Y-77163204D01*
X163293504Y-77163204D01*
G37*
D13*
X162818999Y-77737000D03*
G04 #@! TD*
D10*
G04 #@! TO.C,R14*
G36*
X148090505Y-75793204D02*
X148114773Y-75796804D01*
X148138572Y-75802765D01*
X148161671Y-75811030D01*
X148183850Y-75821520D01*
X148204893Y-75834132D01*
X148224599Y-75848747D01*
X148242777Y-75865223D01*
X148259253Y-75883401D01*
X148273868Y-75903107D01*
X148286480Y-75924150D01*
X148296970Y-75946329D01*
X148305235Y-75969428D01*
X148311196Y-75993227D01*
X148314796Y-76017495D01*
X148316000Y-76041999D01*
X148316000Y-76692001D01*
X148314796Y-76716505D01*
X148311196Y-76740773D01*
X148305235Y-76764572D01*
X148296970Y-76787671D01*
X148286480Y-76809850D01*
X148273868Y-76830893D01*
X148259253Y-76850599D01*
X148242777Y-76868777D01*
X148224599Y-76885253D01*
X148204893Y-76899868D01*
X148183850Y-76912480D01*
X148161671Y-76922970D01*
X148138572Y-76931235D01*
X148114773Y-76937196D01*
X148090505Y-76940796D01*
X148066001Y-76942000D01*
X147165999Y-76942000D01*
X147141495Y-76940796D01*
X147117227Y-76937196D01*
X147093428Y-76931235D01*
X147070329Y-76922970D01*
X147048150Y-76912480D01*
X147027107Y-76899868D01*
X147007401Y-76885253D01*
X146989223Y-76868777D01*
X146972747Y-76850599D01*
X146958132Y-76830893D01*
X146945520Y-76809850D01*
X146935030Y-76787671D01*
X146926765Y-76764572D01*
X146920804Y-76740773D01*
X146917204Y-76716505D01*
X146916000Y-76692001D01*
X146916000Y-76041999D01*
X146917204Y-76017495D01*
X146920804Y-75993227D01*
X146926765Y-75969428D01*
X146935030Y-75946329D01*
X146945520Y-75924150D01*
X146958132Y-75903107D01*
X146972747Y-75883401D01*
X146989223Y-75865223D01*
X147007401Y-75848747D01*
X147027107Y-75834132D01*
X147048150Y-75821520D01*
X147070329Y-75811030D01*
X147093428Y-75802765D01*
X147117227Y-75796804D01*
X147141495Y-75793204D01*
X147165999Y-75792000D01*
X148066001Y-75792000D01*
X148090505Y-75793204D01*
X148090505Y-75793204D01*
G37*
D13*
X147616000Y-76367000D03*
D10*
G36*
X148090505Y-73743204D02*
X148114773Y-73746804D01*
X148138572Y-73752765D01*
X148161671Y-73761030D01*
X148183850Y-73771520D01*
X148204893Y-73784132D01*
X148224599Y-73798747D01*
X148242777Y-73815223D01*
X148259253Y-73833401D01*
X148273868Y-73853107D01*
X148286480Y-73874150D01*
X148296970Y-73896329D01*
X148305235Y-73919428D01*
X148311196Y-73943227D01*
X148314796Y-73967495D01*
X148316000Y-73991999D01*
X148316000Y-74642001D01*
X148314796Y-74666505D01*
X148311196Y-74690773D01*
X148305235Y-74714572D01*
X148296970Y-74737671D01*
X148286480Y-74759850D01*
X148273868Y-74780893D01*
X148259253Y-74800599D01*
X148242777Y-74818777D01*
X148224599Y-74835253D01*
X148204893Y-74849868D01*
X148183850Y-74862480D01*
X148161671Y-74872970D01*
X148138572Y-74881235D01*
X148114773Y-74887196D01*
X148090505Y-74890796D01*
X148066001Y-74892000D01*
X147165999Y-74892000D01*
X147141495Y-74890796D01*
X147117227Y-74887196D01*
X147093428Y-74881235D01*
X147070329Y-74872970D01*
X147048150Y-74862480D01*
X147027107Y-74849868D01*
X147007401Y-74835253D01*
X146989223Y-74818777D01*
X146972747Y-74800599D01*
X146958132Y-74780893D01*
X146945520Y-74759850D01*
X146935030Y-74737671D01*
X146926765Y-74714572D01*
X146920804Y-74690773D01*
X146917204Y-74666505D01*
X146916000Y-74642001D01*
X146916000Y-73991999D01*
X146917204Y-73967495D01*
X146920804Y-73943227D01*
X146926765Y-73919428D01*
X146935030Y-73896329D01*
X146945520Y-73874150D01*
X146958132Y-73853107D01*
X146972747Y-73833401D01*
X146989223Y-73815223D01*
X147007401Y-73798747D01*
X147027107Y-73784132D01*
X147048150Y-73771520D01*
X147070329Y-73761030D01*
X147093428Y-73752765D01*
X147117227Y-73746804D01*
X147141495Y-73743204D01*
X147165999Y-73742000D01*
X148066001Y-73742000D01*
X148090505Y-73743204D01*
X148090505Y-73743204D01*
G37*
D13*
X147616000Y-74317000D03*
G04 #@! TD*
D10*
G04 #@! TO.C,R15*
G36*
X165670505Y-79213204D02*
X165694773Y-79216804D01*
X165718572Y-79222765D01*
X165741671Y-79231030D01*
X165763850Y-79241520D01*
X165784893Y-79254132D01*
X165804599Y-79268747D01*
X165822777Y-79285223D01*
X165839253Y-79303401D01*
X165853868Y-79323107D01*
X165866480Y-79344150D01*
X165876970Y-79366329D01*
X165885235Y-79389428D01*
X165891196Y-79413227D01*
X165894796Y-79437495D01*
X165896000Y-79461999D01*
X165896000Y-80112001D01*
X165894796Y-80136505D01*
X165891196Y-80160773D01*
X165885235Y-80184572D01*
X165876970Y-80207671D01*
X165866480Y-80229850D01*
X165853868Y-80250893D01*
X165839253Y-80270599D01*
X165822777Y-80288777D01*
X165804599Y-80305253D01*
X165784893Y-80319868D01*
X165763850Y-80332480D01*
X165741671Y-80342970D01*
X165718572Y-80351235D01*
X165694773Y-80357196D01*
X165670505Y-80360796D01*
X165646001Y-80362000D01*
X164745999Y-80362000D01*
X164721495Y-80360796D01*
X164697227Y-80357196D01*
X164673428Y-80351235D01*
X164650329Y-80342970D01*
X164628150Y-80332480D01*
X164607107Y-80319868D01*
X164587401Y-80305253D01*
X164569223Y-80288777D01*
X164552747Y-80270599D01*
X164538132Y-80250893D01*
X164525520Y-80229850D01*
X164515030Y-80207671D01*
X164506765Y-80184572D01*
X164500804Y-80160773D01*
X164497204Y-80136505D01*
X164496000Y-80112001D01*
X164496000Y-79461999D01*
X164497204Y-79437495D01*
X164500804Y-79413227D01*
X164506765Y-79389428D01*
X164515030Y-79366329D01*
X164525520Y-79344150D01*
X164538132Y-79323107D01*
X164552747Y-79303401D01*
X164569223Y-79285223D01*
X164587401Y-79268747D01*
X164607107Y-79254132D01*
X164628150Y-79241520D01*
X164650329Y-79231030D01*
X164673428Y-79222765D01*
X164697227Y-79216804D01*
X164721495Y-79213204D01*
X164745999Y-79212000D01*
X165646001Y-79212000D01*
X165670505Y-79213204D01*
X165670505Y-79213204D01*
G37*
D13*
X165196000Y-79787000D03*
D10*
G36*
X165670505Y-77163204D02*
X165694773Y-77166804D01*
X165718572Y-77172765D01*
X165741671Y-77181030D01*
X165763850Y-77191520D01*
X165784893Y-77204132D01*
X165804599Y-77218747D01*
X165822777Y-77235223D01*
X165839253Y-77253401D01*
X165853868Y-77273107D01*
X165866480Y-77294150D01*
X165876970Y-77316329D01*
X165885235Y-77339428D01*
X165891196Y-77363227D01*
X165894796Y-77387495D01*
X165896000Y-77411999D01*
X165896000Y-78062001D01*
X165894796Y-78086505D01*
X165891196Y-78110773D01*
X165885235Y-78134572D01*
X165876970Y-78157671D01*
X165866480Y-78179850D01*
X165853868Y-78200893D01*
X165839253Y-78220599D01*
X165822777Y-78238777D01*
X165804599Y-78255253D01*
X165784893Y-78269868D01*
X165763850Y-78282480D01*
X165741671Y-78292970D01*
X165718572Y-78301235D01*
X165694773Y-78307196D01*
X165670505Y-78310796D01*
X165646001Y-78312000D01*
X164745999Y-78312000D01*
X164721495Y-78310796D01*
X164697227Y-78307196D01*
X164673428Y-78301235D01*
X164650329Y-78292970D01*
X164628150Y-78282480D01*
X164607107Y-78269868D01*
X164587401Y-78255253D01*
X164569223Y-78238777D01*
X164552747Y-78220599D01*
X164538132Y-78200893D01*
X164525520Y-78179850D01*
X164515030Y-78157671D01*
X164506765Y-78134572D01*
X164500804Y-78110773D01*
X164497204Y-78086505D01*
X164496000Y-78062001D01*
X164496000Y-77411999D01*
X164497204Y-77387495D01*
X164500804Y-77363227D01*
X164506765Y-77339428D01*
X164515030Y-77316329D01*
X164525520Y-77294150D01*
X164538132Y-77273107D01*
X164552747Y-77253401D01*
X164569223Y-77235223D01*
X164587401Y-77218747D01*
X164607107Y-77204132D01*
X164628150Y-77191520D01*
X164650329Y-77181030D01*
X164673428Y-77172765D01*
X164697227Y-77166804D01*
X164721495Y-77163204D01*
X164745999Y-77162000D01*
X165646001Y-77162000D01*
X165670505Y-77163204D01*
X165670505Y-77163204D01*
G37*
D13*
X165196000Y-77737000D03*
G04 #@! TD*
D10*
G04 #@! TO.C,C8*
G36*
X155590505Y-89303204D02*
X155614773Y-89306804D01*
X155638572Y-89312765D01*
X155661671Y-89321030D01*
X155683850Y-89331520D01*
X155704893Y-89344132D01*
X155724599Y-89358747D01*
X155742777Y-89375223D01*
X155759253Y-89393401D01*
X155773868Y-89413107D01*
X155786480Y-89434150D01*
X155796970Y-89456329D01*
X155805235Y-89479428D01*
X155811196Y-89503227D01*
X155814796Y-89527495D01*
X155816000Y-89551999D01*
X155816000Y-90202001D01*
X155814796Y-90226505D01*
X155811196Y-90250773D01*
X155805235Y-90274572D01*
X155796970Y-90297671D01*
X155786480Y-90319850D01*
X155773868Y-90340893D01*
X155759253Y-90360599D01*
X155742777Y-90378777D01*
X155724599Y-90395253D01*
X155704893Y-90409868D01*
X155683850Y-90422480D01*
X155661671Y-90432970D01*
X155638572Y-90441235D01*
X155614773Y-90447196D01*
X155590505Y-90450796D01*
X155566001Y-90452000D01*
X154665999Y-90452000D01*
X154641495Y-90450796D01*
X154617227Y-90447196D01*
X154593428Y-90441235D01*
X154570329Y-90432970D01*
X154548150Y-90422480D01*
X154527107Y-90409868D01*
X154507401Y-90395253D01*
X154489223Y-90378777D01*
X154472747Y-90360599D01*
X154458132Y-90340893D01*
X154445520Y-90319850D01*
X154435030Y-90297671D01*
X154426765Y-90274572D01*
X154420804Y-90250773D01*
X154417204Y-90226505D01*
X154416000Y-90202001D01*
X154416000Y-89551999D01*
X154417204Y-89527495D01*
X154420804Y-89503227D01*
X154426765Y-89479428D01*
X154435030Y-89456329D01*
X154445520Y-89434150D01*
X154458132Y-89413107D01*
X154472747Y-89393401D01*
X154489223Y-89375223D01*
X154507401Y-89358747D01*
X154527107Y-89344132D01*
X154548150Y-89331520D01*
X154570329Y-89321030D01*
X154593428Y-89312765D01*
X154617227Y-89306804D01*
X154641495Y-89303204D01*
X154665999Y-89302000D01*
X155566001Y-89302000D01*
X155590505Y-89303204D01*
X155590505Y-89303204D01*
G37*
D13*
X155116000Y-89877000D03*
D10*
G36*
X155590505Y-87253204D02*
X155614773Y-87256804D01*
X155638572Y-87262765D01*
X155661671Y-87271030D01*
X155683850Y-87281520D01*
X155704893Y-87294132D01*
X155724599Y-87308747D01*
X155742777Y-87325223D01*
X155759253Y-87343401D01*
X155773868Y-87363107D01*
X155786480Y-87384150D01*
X155796970Y-87406329D01*
X155805235Y-87429428D01*
X155811196Y-87453227D01*
X155814796Y-87477495D01*
X155816000Y-87501999D01*
X155816000Y-88152001D01*
X155814796Y-88176505D01*
X155811196Y-88200773D01*
X155805235Y-88224572D01*
X155796970Y-88247671D01*
X155786480Y-88269850D01*
X155773868Y-88290893D01*
X155759253Y-88310599D01*
X155742777Y-88328777D01*
X155724599Y-88345253D01*
X155704893Y-88359868D01*
X155683850Y-88372480D01*
X155661671Y-88382970D01*
X155638572Y-88391235D01*
X155614773Y-88397196D01*
X155590505Y-88400796D01*
X155566001Y-88402000D01*
X154665999Y-88402000D01*
X154641495Y-88400796D01*
X154617227Y-88397196D01*
X154593428Y-88391235D01*
X154570329Y-88382970D01*
X154548150Y-88372480D01*
X154527107Y-88359868D01*
X154507401Y-88345253D01*
X154489223Y-88328777D01*
X154472747Y-88310599D01*
X154458132Y-88290893D01*
X154445520Y-88269850D01*
X154435030Y-88247671D01*
X154426765Y-88224572D01*
X154420804Y-88200773D01*
X154417204Y-88176505D01*
X154416000Y-88152001D01*
X154416000Y-87501999D01*
X154417204Y-87477495D01*
X154420804Y-87453227D01*
X154426765Y-87429428D01*
X154435030Y-87406329D01*
X154445520Y-87384150D01*
X154458132Y-87363107D01*
X154472747Y-87343401D01*
X154489223Y-87325223D01*
X154507401Y-87308747D01*
X154527107Y-87294132D01*
X154548150Y-87281520D01*
X154570329Y-87271030D01*
X154593428Y-87262765D01*
X154617227Y-87256804D01*
X154641495Y-87253204D01*
X154665999Y-87252000D01*
X155566001Y-87252000D01*
X155590505Y-87253204D01*
X155590505Y-87253204D01*
G37*
D13*
X155116000Y-87827000D03*
G04 #@! TD*
D10*
G04 #@! TO.C,C9*
G36*
X158140505Y-89303204D02*
X158164773Y-89306804D01*
X158188572Y-89312765D01*
X158211671Y-89321030D01*
X158233850Y-89331520D01*
X158254893Y-89344132D01*
X158274599Y-89358747D01*
X158292777Y-89375223D01*
X158309253Y-89393401D01*
X158323868Y-89413107D01*
X158336480Y-89434150D01*
X158346970Y-89456329D01*
X158355235Y-89479428D01*
X158361196Y-89503227D01*
X158364796Y-89527495D01*
X158366000Y-89551999D01*
X158366000Y-90202001D01*
X158364796Y-90226505D01*
X158361196Y-90250773D01*
X158355235Y-90274572D01*
X158346970Y-90297671D01*
X158336480Y-90319850D01*
X158323868Y-90340893D01*
X158309253Y-90360599D01*
X158292777Y-90378777D01*
X158274599Y-90395253D01*
X158254893Y-90409868D01*
X158233850Y-90422480D01*
X158211671Y-90432970D01*
X158188572Y-90441235D01*
X158164773Y-90447196D01*
X158140505Y-90450796D01*
X158116001Y-90452000D01*
X157215999Y-90452000D01*
X157191495Y-90450796D01*
X157167227Y-90447196D01*
X157143428Y-90441235D01*
X157120329Y-90432970D01*
X157098150Y-90422480D01*
X157077107Y-90409868D01*
X157057401Y-90395253D01*
X157039223Y-90378777D01*
X157022747Y-90360599D01*
X157008132Y-90340893D01*
X156995520Y-90319850D01*
X156985030Y-90297671D01*
X156976765Y-90274572D01*
X156970804Y-90250773D01*
X156967204Y-90226505D01*
X156966000Y-90202001D01*
X156966000Y-89551999D01*
X156967204Y-89527495D01*
X156970804Y-89503227D01*
X156976765Y-89479428D01*
X156985030Y-89456329D01*
X156995520Y-89434150D01*
X157008132Y-89413107D01*
X157022747Y-89393401D01*
X157039223Y-89375223D01*
X157057401Y-89358747D01*
X157077107Y-89344132D01*
X157098150Y-89331520D01*
X157120329Y-89321030D01*
X157143428Y-89312765D01*
X157167227Y-89306804D01*
X157191495Y-89303204D01*
X157215999Y-89302000D01*
X158116001Y-89302000D01*
X158140505Y-89303204D01*
X158140505Y-89303204D01*
G37*
D13*
X157666000Y-89877000D03*
D10*
G36*
X158140505Y-87253204D02*
X158164773Y-87256804D01*
X158188572Y-87262765D01*
X158211671Y-87271030D01*
X158233850Y-87281520D01*
X158254893Y-87294132D01*
X158274599Y-87308747D01*
X158292777Y-87325223D01*
X158309253Y-87343401D01*
X158323868Y-87363107D01*
X158336480Y-87384150D01*
X158346970Y-87406329D01*
X158355235Y-87429428D01*
X158361196Y-87453227D01*
X158364796Y-87477495D01*
X158366000Y-87501999D01*
X158366000Y-88152001D01*
X158364796Y-88176505D01*
X158361196Y-88200773D01*
X158355235Y-88224572D01*
X158346970Y-88247671D01*
X158336480Y-88269850D01*
X158323868Y-88290893D01*
X158309253Y-88310599D01*
X158292777Y-88328777D01*
X158274599Y-88345253D01*
X158254893Y-88359868D01*
X158233850Y-88372480D01*
X158211671Y-88382970D01*
X158188572Y-88391235D01*
X158164773Y-88397196D01*
X158140505Y-88400796D01*
X158116001Y-88402000D01*
X157215999Y-88402000D01*
X157191495Y-88400796D01*
X157167227Y-88397196D01*
X157143428Y-88391235D01*
X157120329Y-88382970D01*
X157098150Y-88372480D01*
X157077107Y-88359868D01*
X157057401Y-88345253D01*
X157039223Y-88328777D01*
X157022747Y-88310599D01*
X157008132Y-88290893D01*
X156995520Y-88269850D01*
X156985030Y-88247671D01*
X156976765Y-88224572D01*
X156970804Y-88200773D01*
X156967204Y-88176505D01*
X156966000Y-88152001D01*
X156966000Y-87501999D01*
X156967204Y-87477495D01*
X156970804Y-87453227D01*
X156976765Y-87429428D01*
X156985030Y-87406329D01*
X156995520Y-87384150D01*
X157008132Y-87363107D01*
X157022747Y-87343401D01*
X157039223Y-87325223D01*
X157057401Y-87308747D01*
X157077107Y-87294132D01*
X157098150Y-87281520D01*
X157120329Y-87271030D01*
X157143428Y-87262765D01*
X157167227Y-87256804D01*
X157191495Y-87253204D01*
X157215999Y-87252000D01*
X158116001Y-87252000D01*
X158140505Y-87253204D01*
X158140505Y-87253204D01*
G37*
D13*
X157666000Y-87827000D03*
G04 #@! TD*
D10*
G04 #@! TO.C,C12*
G36*
X155600505Y-75793204D02*
X155624773Y-75796804D01*
X155648572Y-75802765D01*
X155671671Y-75811030D01*
X155693850Y-75821520D01*
X155714893Y-75834132D01*
X155734599Y-75848747D01*
X155752777Y-75865223D01*
X155769253Y-75883401D01*
X155783868Y-75903107D01*
X155796480Y-75924150D01*
X155806970Y-75946329D01*
X155815235Y-75969428D01*
X155821196Y-75993227D01*
X155824796Y-76017495D01*
X155826000Y-76041999D01*
X155826000Y-76692001D01*
X155824796Y-76716505D01*
X155821196Y-76740773D01*
X155815235Y-76764572D01*
X155806970Y-76787671D01*
X155796480Y-76809850D01*
X155783868Y-76830893D01*
X155769253Y-76850599D01*
X155752777Y-76868777D01*
X155734599Y-76885253D01*
X155714893Y-76899868D01*
X155693850Y-76912480D01*
X155671671Y-76922970D01*
X155648572Y-76931235D01*
X155624773Y-76937196D01*
X155600505Y-76940796D01*
X155576001Y-76942000D01*
X154675999Y-76942000D01*
X154651495Y-76940796D01*
X154627227Y-76937196D01*
X154603428Y-76931235D01*
X154580329Y-76922970D01*
X154558150Y-76912480D01*
X154537107Y-76899868D01*
X154517401Y-76885253D01*
X154499223Y-76868777D01*
X154482747Y-76850599D01*
X154468132Y-76830893D01*
X154455520Y-76809850D01*
X154445030Y-76787671D01*
X154436765Y-76764572D01*
X154430804Y-76740773D01*
X154427204Y-76716505D01*
X154426000Y-76692001D01*
X154426000Y-76041999D01*
X154427204Y-76017495D01*
X154430804Y-75993227D01*
X154436765Y-75969428D01*
X154445030Y-75946329D01*
X154455520Y-75924150D01*
X154468132Y-75903107D01*
X154482747Y-75883401D01*
X154499223Y-75865223D01*
X154517401Y-75848747D01*
X154537107Y-75834132D01*
X154558150Y-75821520D01*
X154580329Y-75811030D01*
X154603428Y-75802765D01*
X154627227Y-75796804D01*
X154651495Y-75793204D01*
X154675999Y-75792000D01*
X155576001Y-75792000D01*
X155600505Y-75793204D01*
X155600505Y-75793204D01*
G37*
D13*
X155126000Y-76367000D03*
D10*
G36*
X155600505Y-73743204D02*
X155624773Y-73746804D01*
X155648572Y-73752765D01*
X155671671Y-73761030D01*
X155693850Y-73771520D01*
X155714893Y-73784132D01*
X155734599Y-73798747D01*
X155752777Y-73815223D01*
X155769253Y-73833401D01*
X155783868Y-73853107D01*
X155796480Y-73874150D01*
X155806970Y-73896329D01*
X155815235Y-73919428D01*
X155821196Y-73943227D01*
X155824796Y-73967495D01*
X155826000Y-73991999D01*
X155826000Y-74642001D01*
X155824796Y-74666505D01*
X155821196Y-74690773D01*
X155815235Y-74714572D01*
X155806970Y-74737671D01*
X155796480Y-74759850D01*
X155783868Y-74780893D01*
X155769253Y-74800599D01*
X155752777Y-74818777D01*
X155734599Y-74835253D01*
X155714893Y-74849868D01*
X155693850Y-74862480D01*
X155671671Y-74872970D01*
X155648572Y-74881235D01*
X155624773Y-74887196D01*
X155600505Y-74890796D01*
X155576001Y-74892000D01*
X154675999Y-74892000D01*
X154651495Y-74890796D01*
X154627227Y-74887196D01*
X154603428Y-74881235D01*
X154580329Y-74872970D01*
X154558150Y-74862480D01*
X154537107Y-74849868D01*
X154517401Y-74835253D01*
X154499223Y-74818777D01*
X154482747Y-74800599D01*
X154468132Y-74780893D01*
X154455520Y-74759850D01*
X154445030Y-74737671D01*
X154436765Y-74714572D01*
X154430804Y-74690773D01*
X154427204Y-74666505D01*
X154426000Y-74642001D01*
X154426000Y-73991999D01*
X154427204Y-73967495D01*
X154430804Y-73943227D01*
X154436765Y-73919428D01*
X154445030Y-73896329D01*
X154455520Y-73874150D01*
X154468132Y-73853107D01*
X154482747Y-73833401D01*
X154499223Y-73815223D01*
X154517401Y-73798747D01*
X154537107Y-73784132D01*
X154558150Y-73771520D01*
X154580329Y-73761030D01*
X154603428Y-73752765D01*
X154627227Y-73746804D01*
X154651495Y-73743204D01*
X154675999Y-73742000D01*
X155576001Y-73742000D01*
X155600505Y-73743204D01*
X155600505Y-73743204D01*
G37*
D13*
X155126000Y-74317000D03*
G04 #@! TD*
D10*
G04 #@! TO.C,C13*
G36*
X158140505Y-75793204D02*
X158164773Y-75796804D01*
X158188572Y-75802765D01*
X158211671Y-75811030D01*
X158233850Y-75821520D01*
X158254893Y-75834132D01*
X158274599Y-75848747D01*
X158292777Y-75865223D01*
X158309253Y-75883401D01*
X158323868Y-75903107D01*
X158336480Y-75924150D01*
X158346970Y-75946329D01*
X158355235Y-75969428D01*
X158361196Y-75993227D01*
X158364796Y-76017495D01*
X158366000Y-76041999D01*
X158366000Y-76692001D01*
X158364796Y-76716505D01*
X158361196Y-76740773D01*
X158355235Y-76764572D01*
X158346970Y-76787671D01*
X158336480Y-76809850D01*
X158323868Y-76830893D01*
X158309253Y-76850599D01*
X158292777Y-76868777D01*
X158274599Y-76885253D01*
X158254893Y-76899868D01*
X158233850Y-76912480D01*
X158211671Y-76922970D01*
X158188572Y-76931235D01*
X158164773Y-76937196D01*
X158140505Y-76940796D01*
X158116001Y-76942000D01*
X157215999Y-76942000D01*
X157191495Y-76940796D01*
X157167227Y-76937196D01*
X157143428Y-76931235D01*
X157120329Y-76922970D01*
X157098150Y-76912480D01*
X157077107Y-76899868D01*
X157057401Y-76885253D01*
X157039223Y-76868777D01*
X157022747Y-76850599D01*
X157008132Y-76830893D01*
X156995520Y-76809850D01*
X156985030Y-76787671D01*
X156976765Y-76764572D01*
X156970804Y-76740773D01*
X156967204Y-76716505D01*
X156966000Y-76692001D01*
X156966000Y-76041999D01*
X156967204Y-76017495D01*
X156970804Y-75993227D01*
X156976765Y-75969428D01*
X156985030Y-75946329D01*
X156995520Y-75924150D01*
X157008132Y-75903107D01*
X157022747Y-75883401D01*
X157039223Y-75865223D01*
X157057401Y-75848747D01*
X157077107Y-75834132D01*
X157098150Y-75821520D01*
X157120329Y-75811030D01*
X157143428Y-75802765D01*
X157167227Y-75796804D01*
X157191495Y-75793204D01*
X157215999Y-75792000D01*
X158116001Y-75792000D01*
X158140505Y-75793204D01*
X158140505Y-75793204D01*
G37*
D13*
X157666000Y-76367000D03*
D10*
G36*
X158140505Y-73743204D02*
X158164773Y-73746804D01*
X158188572Y-73752765D01*
X158211671Y-73761030D01*
X158233850Y-73771520D01*
X158254893Y-73784132D01*
X158274599Y-73798747D01*
X158292777Y-73815223D01*
X158309253Y-73833401D01*
X158323868Y-73853107D01*
X158336480Y-73874150D01*
X158346970Y-73896329D01*
X158355235Y-73919428D01*
X158361196Y-73943227D01*
X158364796Y-73967495D01*
X158366000Y-73991999D01*
X158366000Y-74642001D01*
X158364796Y-74666505D01*
X158361196Y-74690773D01*
X158355235Y-74714572D01*
X158346970Y-74737671D01*
X158336480Y-74759850D01*
X158323868Y-74780893D01*
X158309253Y-74800599D01*
X158292777Y-74818777D01*
X158274599Y-74835253D01*
X158254893Y-74849868D01*
X158233850Y-74862480D01*
X158211671Y-74872970D01*
X158188572Y-74881235D01*
X158164773Y-74887196D01*
X158140505Y-74890796D01*
X158116001Y-74892000D01*
X157215999Y-74892000D01*
X157191495Y-74890796D01*
X157167227Y-74887196D01*
X157143428Y-74881235D01*
X157120329Y-74872970D01*
X157098150Y-74862480D01*
X157077107Y-74849868D01*
X157057401Y-74835253D01*
X157039223Y-74818777D01*
X157022747Y-74800599D01*
X157008132Y-74780893D01*
X156995520Y-74759850D01*
X156985030Y-74737671D01*
X156976765Y-74714572D01*
X156970804Y-74690773D01*
X156967204Y-74666505D01*
X156966000Y-74642001D01*
X156966000Y-73991999D01*
X156967204Y-73967495D01*
X156970804Y-73943227D01*
X156976765Y-73919428D01*
X156985030Y-73896329D01*
X156995520Y-73874150D01*
X157008132Y-73853107D01*
X157022747Y-73833401D01*
X157039223Y-73815223D01*
X157057401Y-73798747D01*
X157077107Y-73784132D01*
X157098150Y-73771520D01*
X157120329Y-73761030D01*
X157143428Y-73752765D01*
X157167227Y-73746804D01*
X157191495Y-73743204D01*
X157215999Y-73742000D01*
X158116001Y-73742000D01*
X158140505Y-73743204D01*
X158140505Y-73743204D01*
G37*
D13*
X157666000Y-74317000D03*
G04 #@! TD*
D17*
G04 #@! TO.C,Y1*
X176586000Y-86877000D03*
X177586000Y-86877000D03*
D18*
X177086000Y-92477000D03*
G04 #@! TD*
D15*
G04 #@! TO.C,U2*
X49060000Y-56747148D03*
X49060000Y-55797148D03*
X49060000Y-54847148D03*
X46440000Y-54847148D03*
X46440000Y-56747148D03*
G04 #@! TD*
D10*
G04 #@! TO.C,R26*
G36*
X49124505Y-61184778D02*
X49148773Y-61188378D01*
X49172572Y-61194339D01*
X49195671Y-61202604D01*
X49217850Y-61213094D01*
X49238893Y-61225706D01*
X49258599Y-61240321D01*
X49276777Y-61256797D01*
X49293253Y-61274975D01*
X49307868Y-61294681D01*
X49320480Y-61315724D01*
X49330970Y-61337903D01*
X49339235Y-61361002D01*
X49345196Y-61384801D01*
X49348796Y-61409069D01*
X49350000Y-61433573D01*
X49350000Y-62333575D01*
X49348796Y-62358079D01*
X49345196Y-62382347D01*
X49339235Y-62406146D01*
X49330970Y-62429245D01*
X49320480Y-62451424D01*
X49307868Y-62472467D01*
X49293253Y-62492173D01*
X49276777Y-62510351D01*
X49258599Y-62526827D01*
X49238893Y-62541442D01*
X49217850Y-62554054D01*
X49195671Y-62564544D01*
X49172572Y-62572809D01*
X49148773Y-62578770D01*
X49124505Y-62582370D01*
X49100001Y-62583574D01*
X48449999Y-62583574D01*
X48425495Y-62582370D01*
X48401227Y-62578770D01*
X48377428Y-62572809D01*
X48354329Y-62564544D01*
X48332150Y-62554054D01*
X48311107Y-62541442D01*
X48291401Y-62526827D01*
X48273223Y-62510351D01*
X48256747Y-62492173D01*
X48242132Y-62472467D01*
X48229520Y-62451424D01*
X48219030Y-62429245D01*
X48210765Y-62406146D01*
X48204804Y-62382347D01*
X48201204Y-62358079D01*
X48200000Y-62333575D01*
X48200000Y-61433573D01*
X48201204Y-61409069D01*
X48204804Y-61384801D01*
X48210765Y-61361002D01*
X48219030Y-61337903D01*
X48229520Y-61315724D01*
X48242132Y-61294681D01*
X48256747Y-61274975D01*
X48273223Y-61256797D01*
X48291401Y-61240321D01*
X48311107Y-61225706D01*
X48332150Y-61213094D01*
X48354329Y-61202604D01*
X48377428Y-61194339D01*
X48401227Y-61188378D01*
X48425495Y-61184778D01*
X48449999Y-61183574D01*
X49100001Y-61183574D01*
X49124505Y-61184778D01*
X49124505Y-61184778D01*
G37*
D13*
X48775000Y-61883574D03*
D10*
G36*
X47074505Y-61184778D02*
X47098773Y-61188378D01*
X47122572Y-61194339D01*
X47145671Y-61202604D01*
X47167850Y-61213094D01*
X47188893Y-61225706D01*
X47208599Y-61240321D01*
X47226777Y-61256797D01*
X47243253Y-61274975D01*
X47257868Y-61294681D01*
X47270480Y-61315724D01*
X47280970Y-61337903D01*
X47289235Y-61361002D01*
X47295196Y-61384801D01*
X47298796Y-61409069D01*
X47300000Y-61433573D01*
X47300000Y-62333575D01*
X47298796Y-62358079D01*
X47295196Y-62382347D01*
X47289235Y-62406146D01*
X47280970Y-62429245D01*
X47270480Y-62451424D01*
X47257868Y-62472467D01*
X47243253Y-62492173D01*
X47226777Y-62510351D01*
X47208599Y-62526827D01*
X47188893Y-62541442D01*
X47167850Y-62554054D01*
X47145671Y-62564544D01*
X47122572Y-62572809D01*
X47098773Y-62578770D01*
X47074505Y-62582370D01*
X47050001Y-62583574D01*
X46399999Y-62583574D01*
X46375495Y-62582370D01*
X46351227Y-62578770D01*
X46327428Y-62572809D01*
X46304329Y-62564544D01*
X46282150Y-62554054D01*
X46261107Y-62541442D01*
X46241401Y-62526827D01*
X46223223Y-62510351D01*
X46206747Y-62492173D01*
X46192132Y-62472467D01*
X46179520Y-62451424D01*
X46169030Y-62429245D01*
X46160765Y-62406146D01*
X46154804Y-62382347D01*
X46151204Y-62358079D01*
X46150000Y-62333575D01*
X46150000Y-61433573D01*
X46151204Y-61409069D01*
X46154804Y-61384801D01*
X46160765Y-61361002D01*
X46169030Y-61337903D01*
X46179520Y-61315724D01*
X46192132Y-61294681D01*
X46206747Y-61274975D01*
X46223223Y-61256797D01*
X46241401Y-61240321D01*
X46261107Y-61225706D01*
X46282150Y-61213094D01*
X46304329Y-61202604D01*
X46327428Y-61194339D01*
X46351227Y-61188378D01*
X46375495Y-61184778D01*
X46399999Y-61183574D01*
X47050001Y-61183574D01*
X47074505Y-61184778D01*
X47074505Y-61184778D01*
G37*
D13*
X46725000Y-61883574D03*
G04 #@! TD*
D10*
G04 #@! TO.C,R27*
G36*
X49124505Y-58516565D02*
X49148773Y-58520165D01*
X49172572Y-58526126D01*
X49195671Y-58534391D01*
X49217850Y-58544881D01*
X49238893Y-58557493D01*
X49258599Y-58572108D01*
X49276777Y-58588584D01*
X49293253Y-58606762D01*
X49307868Y-58626468D01*
X49320480Y-58647511D01*
X49330970Y-58669690D01*
X49339235Y-58692789D01*
X49345196Y-58716588D01*
X49348796Y-58740856D01*
X49350000Y-58765360D01*
X49350000Y-59665362D01*
X49348796Y-59689866D01*
X49345196Y-59714134D01*
X49339235Y-59737933D01*
X49330970Y-59761032D01*
X49320480Y-59783211D01*
X49307868Y-59804254D01*
X49293253Y-59823960D01*
X49276777Y-59842138D01*
X49258599Y-59858614D01*
X49238893Y-59873229D01*
X49217850Y-59885841D01*
X49195671Y-59896331D01*
X49172572Y-59904596D01*
X49148773Y-59910557D01*
X49124505Y-59914157D01*
X49100001Y-59915361D01*
X48449999Y-59915361D01*
X48425495Y-59914157D01*
X48401227Y-59910557D01*
X48377428Y-59904596D01*
X48354329Y-59896331D01*
X48332150Y-59885841D01*
X48311107Y-59873229D01*
X48291401Y-59858614D01*
X48273223Y-59842138D01*
X48256747Y-59823960D01*
X48242132Y-59804254D01*
X48229520Y-59783211D01*
X48219030Y-59761032D01*
X48210765Y-59737933D01*
X48204804Y-59714134D01*
X48201204Y-59689866D01*
X48200000Y-59665362D01*
X48200000Y-58765360D01*
X48201204Y-58740856D01*
X48204804Y-58716588D01*
X48210765Y-58692789D01*
X48219030Y-58669690D01*
X48229520Y-58647511D01*
X48242132Y-58626468D01*
X48256747Y-58606762D01*
X48273223Y-58588584D01*
X48291401Y-58572108D01*
X48311107Y-58557493D01*
X48332150Y-58544881D01*
X48354329Y-58534391D01*
X48377428Y-58526126D01*
X48401227Y-58520165D01*
X48425495Y-58516565D01*
X48449999Y-58515361D01*
X49100001Y-58515361D01*
X49124505Y-58516565D01*
X49124505Y-58516565D01*
G37*
D13*
X48775000Y-59215361D03*
D10*
G36*
X47074505Y-58516565D02*
X47098773Y-58520165D01*
X47122572Y-58526126D01*
X47145671Y-58534391D01*
X47167850Y-58544881D01*
X47188893Y-58557493D01*
X47208599Y-58572108D01*
X47226777Y-58588584D01*
X47243253Y-58606762D01*
X47257868Y-58626468D01*
X47270480Y-58647511D01*
X47280970Y-58669690D01*
X47289235Y-58692789D01*
X47295196Y-58716588D01*
X47298796Y-58740856D01*
X47300000Y-58765360D01*
X47300000Y-59665362D01*
X47298796Y-59689866D01*
X47295196Y-59714134D01*
X47289235Y-59737933D01*
X47280970Y-59761032D01*
X47270480Y-59783211D01*
X47257868Y-59804254D01*
X47243253Y-59823960D01*
X47226777Y-59842138D01*
X47208599Y-59858614D01*
X47188893Y-59873229D01*
X47167850Y-59885841D01*
X47145671Y-59896331D01*
X47122572Y-59904596D01*
X47098773Y-59910557D01*
X47074505Y-59914157D01*
X47050001Y-59915361D01*
X46399999Y-59915361D01*
X46375495Y-59914157D01*
X46351227Y-59910557D01*
X46327428Y-59904596D01*
X46304329Y-59896331D01*
X46282150Y-59885841D01*
X46261107Y-59873229D01*
X46241401Y-59858614D01*
X46223223Y-59842138D01*
X46206747Y-59823960D01*
X46192132Y-59804254D01*
X46179520Y-59783211D01*
X46169030Y-59761032D01*
X46160765Y-59737933D01*
X46154804Y-59714134D01*
X46151204Y-59689866D01*
X46150000Y-59665362D01*
X46150000Y-58765360D01*
X46151204Y-58740856D01*
X46154804Y-58716588D01*
X46160765Y-58692789D01*
X46169030Y-58669690D01*
X46179520Y-58647511D01*
X46192132Y-58626468D01*
X46206747Y-58606762D01*
X46223223Y-58588584D01*
X46241401Y-58572108D01*
X46261107Y-58557493D01*
X46282150Y-58544881D01*
X46304329Y-58534391D01*
X46327428Y-58526126D01*
X46351227Y-58520165D01*
X46375495Y-58516565D01*
X46399999Y-58515361D01*
X47050001Y-58515361D01*
X47074505Y-58516565D01*
X47074505Y-58516565D01*
G37*
D13*
X46725000Y-59215361D03*
G04 #@! TD*
D10*
G04 #@! TO.C,C2*
G36*
X182335505Y-85568204D02*
X182359773Y-85571804D01*
X182383572Y-85577765D01*
X182406671Y-85586030D01*
X182428850Y-85596520D01*
X182449893Y-85609132D01*
X182469599Y-85623747D01*
X182487777Y-85640223D01*
X182504253Y-85658401D01*
X182518868Y-85678107D01*
X182531480Y-85699150D01*
X182541970Y-85721329D01*
X182550235Y-85744428D01*
X182556196Y-85768227D01*
X182559796Y-85792495D01*
X182561000Y-85816999D01*
X182561000Y-86467001D01*
X182559796Y-86491505D01*
X182556196Y-86515773D01*
X182550235Y-86539572D01*
X182541970Y-86562671D01*
X182531480Y-86584850D01*
X182518868Y-86605893D01*
X182504253Y-86625599D01*
X182487777Y-86643777D01*
X182469599Y-86660253D01*
X182449893Y-86674868D01*
X182428850Y-86687480D01*
X182406671Y-86697970D01*
X182383572Y-86706235D01*
X182359773Y-86712196D01*
X182335505Y-86715796D01*
X182311001Y-86717000D01*
X181410999Y-86717000D01*
X181386495Y-86715796D01*
X181362227Y-86712196D01*
X181338428Y-86706235D01*
X181315329Y-86697970D01*
X181293150Y-86687480D01*
X181272107Y-86674868D01*
X181252401Y-86660253D01*
X181234223Y-86643777D01*
X181217747Y-86625599D01*
X181203132Y-86605893D01*
X181190520Y-86584850D01*
X181180030Y-86562671D01*
X181171765Y-86539572D01*
X181165804Y-86515773D01*
X181162204Y-86491505D01*
X181161000Y-86467001D01*
X181161000Y-85816999D01*
X181162204Y-85792495D01*
X181165804Y-85768227D01*
X181171765Y-85744428D01*
X181180030Y-85721329D01*
X181190520Y-85699150D01*
X181203132Y-85678107D01*
X181217747Y-85658401D01*
X181234223Y-85640223D01*
X181252401Y-85623747D01*
X181272107Y-85609132D01*
X181293150Y-85596520D01*
X181315329Y-85586030D01*
X181338428Y-85577765D01*
X181362227Y-85571804D01*
X181386495Y-85568204D01*
X181410999Y-85567000D01*
X182311001Y-85567000D01*
X182335505Y-85568204D01*
X182335505Y-85568204D01*
G37*
D13*
X181861000Y-86142000D03*
D10*
G36*
X182335505Y-83518204D02*
X182359773Y-83521804D01*
X182383572Y-83527765D01*
X182406671Y-83536030D01*
X182428850Y-83546520D01*
X182449893Y-83559132D01*
X182469599Y-83573747D01*
X182487777Y-83590223D01*
X182504253Y-83608401D01*
X182518868Y-83628107D01*
X182531480Y-83649150D01*
X182541970Y-83671329D01*
X182550235Y-83694428D01*
X182556196Y-83718227D01*
X182559796Y-83742495D01*
X182561000Y-83766999D01*
X182561000Y-84417001D01*
X182559796Y-84441505D01*
X182556196Y-84465773D01*
X182550235Y-84489572D01*
X182541970Y-84512671D01*
X182531480Y-84534850D01*
X182518868Y-84555893D01*
X182504253Y-84575599D01*
X182487777Y-84593777D01*
X182469599Y-84610253D01*
X182449893Y-84624868D01*
X182428850Y-84637480D01*
X182406671Y-84647970D01*
X182383572Y-84656235D01*
X182359773Y-84662196D01*
X182335505Y-84665796D01*
X182311001Y-84667000D01*
X181410999Y-84667000D01*
X181386495Y-84665796D01*
X181362227Y-84662196D01*
X181338428Y-84656235D01*
X181315329Y-84647970D01*
X181293150Y-84637480D01*
X181272107Y-84624868D01*
X181252401Y-84610253D01*
X181234223Y-84593777D01*
X181217747Y-84575599D01*
X181203132Y-84555893D01*
X181190520Y-84534850D01*
X181180030Y-84512671D01*
X181171765Y-84489572D01*
X181165804Y-84465773D01*
X181162204Y-84441505D01*
X181161000Y-84417001D01*
X181161000Y-83766999D01*
X181162204Y-83742495D01*
X181165804Y-83718227D01*
X181171765Y-83694428D01*
X181180030Y-83671329D01*
X181190520Y-83649150D01*
X181203132Y-83628107D01*
X181217747Y-83608401D01*
X181234223Y-83590223D01*
X181252401Y-83573747D01*
X181272107Y-83559132D01*
X181293150Y-83546520D01*
X181315329Y-83536030D01*
X181338428Y-83527765D01*
X181362227Y-83521804D01*
X181386495Y-83518204D01*
X181410999Y-83517000D01*
X182311001Y-83517000D01*
X182335505Y-83518204D01*
X182335505Y-83518204D01*
G37*
D13*
X181861000Y-84092000D03*
G04 #@! TD*
D10*
G04 #@! TO.C,C1*
G36*
X74826505Y-100135204D02*
X74850773Y-100138804D01*
X74874572Y-100144765D01*
X74897671Y-100153030D01*
X74919850Y-100163520D01*
X74940893Y-100176132D01*
X74960599Y-100190747D01*
X74978777Y-100207223D01*
X74995253Y-100225401D01*
X75009868Y-100245107D01*
X75022480Y-100266150D01*
X75032970Y-100288329D01*
X75041235Y-100311428D01*
X75047196Y-100335227D01*
X75050796Y-100359495D01*
X75052000Y-100383999D01*
X75052000Y-101034001D01*
X75050796Y-101058505D01*
X75047196Y-101082773D01*
X75041235Y-101106572D01*
X75032970Y-101129671D01*
X75022480Y-101151850D01*
X75009868Y-101172893D01*
X74995253Y-101192599D01*
X74978777Y-101210777D01*
X74960599Y-101227253D01*
X74940893Y-101241868D01*
X74919850Y-101254480D01*
X74897671Y-101264970D01*
X74874572Y-101273235D01*
X74850773Y-101279196D01*
X74826505Y-101282796D01*
X74802001Y-101284000D01*
X73901999Y-101284000D01*
X73877495Y-101282796D01*
X73853227Y-101279196D01*
X73829428Y-101273235D01*
X73806329Y-101264970D01*
X73784150Y-101254480D01*
X73763107Y-101241868D01*
X73743401Y-101227253D01*
X73725223Y-101210777D01*
X73708747Y-101192599D01*
X73694132Y-101172893D01*
X73681520Y-101151850D01*
X73671030Y-101129671D01*
X73662765Y-101106572D01*
X73656804Y-101082773D01*
X73653204Y-101058505D01*
X73652000Y-101034001D01*
X73652000Y-100383999D01*
X73653204Y-100359495D01*
X73656804Y-100335227D01*
X73662765Y-100311428D01*
X73671030Y-100288329D01*
X73681520Y-100266150D01*
X73694132Y-100245107D01*
X73708747Y-100225401D01*
X73725223Y-100207223D01*
X73743401Y-100190747D01*
X73763107Y-100176132D01*
X73784150Y-100163520D01*
X73806329Y-100153030D01*
X73829428Y-100144765D01*
X73853227Y-100138804D01*
X73877495Y-100135204D01*
X73901999Y-100134000D01*
X74802001Y-100134000D01*
X74826505Y-100135204D01*
X74826505Y-100135204D01*
G37*
D13*
X74352000Y-100709000D03*
D10*
G36*
X74826505Y-102185204D02*
X74850773Y-102188804D01*
X74874572Y-102194765D01*
X74897671Y-102203030D01*
X74919850Y-102213520D01*
X74940893Y-102226132D01*
X74960599Y-102240747D01*
X74978777Y-102257223D01*
X74995253Y-102275401D01*
X75009868Y-102295107D01*
X75022480Y-102316150D01*
X75032970Y-102338329D01*
X75041235Y-102361428D01*
X75047196Y-102385227D01*
X75050796Y-102409495D01*
X75052000Y-102433999D01*
X75052000Y-103084001D01*
X75050796Y-103108505D01*
X75047196Y-103132773D01*
X75041235Y-103156572D01*
X75032970Y-103179671D01*
X75022480Y-103201850D01*
X75009868Y-103222893D01*
X74995253Y-103242599D01*
X74978777Y-103260777D01*
X74960599Y-103277253D01*
X74940893Y-103291868D01*
X74919850Y-103304480D01*
X74897671Y-103314970D01*
X74874572Y-103323235D01*
X74850773Y-103329196D01*
X74826505Y-103332796D01*
X74802001Y-103334000D01*
X73901999Y-103334000D01*
X73877495Y-103332796D01*
X73853227Y-103329196D01*
X73829428Y-103323235D01*
X73806329Y-103314970D01*
X73784150Y-103304480D01*
X73763107Y-103291868D01*
X73743401Y-103277253D01*
X73725223Y-103260777D01*
X73708747Y-103242599D01*
X73694132Y-103222893D01*
X73681520Y-103201850D01*
X73671030Y-103179671D01*
X73662765Y-103156572D01*
X73656804Y-103132773D01*
X73653204Y-103108505D01*
X73652000Y-103084001D01*
X73652000Y-102433999D01*
X73653204Y-102409495D01*
X73656804Y-102385227D01*
X73662765Y-102361428D01*
X73671030Y-102338329D01*
X73681520Y-102316150D01*
X73694132Y-102295107D01*
X73708747Y-102275401D01*
X73725223Y-102257223D01*
X73743401Y-102240747D01*
X73763107Y-102226132D01*
X73784150Y-102213520D01*
X73806329Y-102203030D01*
X73829428Y-102194765D01*
X73853227Y-102188804D01*
X73877495Y-102185204D01*
X73901999Y-102184000D01*
X74802001Y-102184000D01*
X74826505Y-102185204D01*
X74826505Y-102185204D01*
G37*
D13*
X74352000Y-102759000D03*
G04 #@! TD*
D10*
G04 #@! TO.C,C5*
G36*
X86824505Y-104381204D02*
X86848773Y-104384804D01*
X86872572Y-104390765D01*
X86895671Y-104399030D01*
X86917850Y-104409520D01*
X86938893Y-104422132D01*
X86958599Y-104436747D01*
X86976777Y-104453223D01*
X86993253Y-104471401D01*
X87007868Y-104491107D01*
X87020480Y-104512150D01*
X87030970Y-104534329D01*
X87039235Y-104557428D01*
X87045196Y-104581227D01*
X87048796Y-104605495D01*
X87050000Y-104629999D01*
X87050000Y-105280001D01*
X87048796Y-105304505D01*
X87045196Y-105328773D01*
X87039235Y-105352572D01*
X87030970Y-105375671D01*
X87020480Y-105397850D01*
X87007868Y-105418893D01*
X86993253Y-105438599D01*
X86976777Y-105456777D01*
X86958599Y-105473253D01*
X86938893Y-105487868D01*
X86917850Y-105500480D01*
X86895671Y-105510970D01*
X86872572Y-105519235D01*
X86848773Y-105525196D01*
X86824505Y-105528796D01*
X86800001Y-105530000D01*
X85899999Y-105530000D01*
X85875495Y-105528796D01*
X85851227Y-105525196D01*
X85827428Y-105519235D01*
X85804329Y-105510970D01*
X85782150Y-105500480D01*
X85761107Y-105487868D01*
X85741401Y-105473253D01*
X85723223Y-105456777D01*
X85706747Y-105438599D01*
X85692132Y-105418893D01*
X85679520Y-105397850D01*
X85669030Y-105375671D01*
X85660765Y-105352572D01*
X85654804Y-105328773D01*
X85651204Y-105304505D01*
X85650000Y-105280001D01*
X85650000Y-104629999D01*
X85651204Y-104605495D01*
X85654804Y-104581227D01*
X85660765Y-104557428D01*
X85669030Y-104534329D01*
X85679520Y-104512150D01*
X85692132Y-104491107D01*
X85706747Y-104471401D01*
X85723223Y-104453223D01*
X85741401Y-104436747D01*
X85761107Y-104422132D01*
X85782150Y-104409520D01*
X85804329Y-104399030D01*
X85827428Y-104390765D01*
X85851227Y-104384804D01*
X85875495Y-104381204D01*
X85899999Y-104380000D01*
X86800001Y-104380000D01*
X86824505Y-104381204D01*
X86824505Y-104381204D01*
G37*
D13*
X86350000Y-104955000D03*
D10*
G36*
X86824505Y-106431204D02*
X86848773Y-106434804D01*
X86872572Y-106440765D01*
X86895671Y-106449030D01*
X86917850Y-106459520D01*
X86938893Y-106472132D01*
X86958599Y-106486747D01*
X86976777Y-106503223D01*
X86993253Y-106521401D01*
X87007868Y-106541107D01*
X87020480Y-106562150D01*
X87030970Y-106584329D01*
X87039235Y-106607428D01*
X87045196Y-106631227D01*
X87048796Y-106655495D01*
X87050000Y-106679999D01*
X87050000Y-107330001D01*
X87048796Y-107354505D01*
X87045196Y-107378773D01*
X87039235Y-107402572D01*
X87030970Y-107425671D01*
X87020480Y-107447850D01*
X87007868Y-107468893D01*
X86993253Y-107488599D01*
X86976777Y-107506777D01*
X86958599Y-107523253D01*
X86938893Y-107537868D01*
X86917850Y-107550480D01*
X86895671Y-107560970D01*
X86872572Y-107569235D01*
X86848773Y-107575196D01*
X86824505Y-107578796D01*
X86800001Y-107580000D01*
X85899999Y-107580000D01*
X85875495Y-107578796D01*
X85851227Y-107575196D01*
X85827428Y-107569235D01*
X85804329Y-107560970D01*
X85782150Y-107550480D01*
X85761107Y-107537868D01*
X85741401Y-107523253D01*
X85723223Y-107506777D01*
X85706747Y-107488599D01*
X85692132Y-107468893D01*
X85679520Y-107447850D01*
X85669030Y-107425671D01*
X85660765Y-107402572D01*
X85654804Y-107378773D01*
X85651204Y-107354505D01*
X85650000Y-107330001D01*
X85650000Y-106679999D01*
X85651204Y-106655495D01*
X85654804Y-106631227D01*
X85660765Y-106607428D01*
X85669030Y-106584329D01*
X85679520Y-106562150D01*
X85692132Y-106541107D01*
X85706747Y-106521401D01*
X85723223Y-106503223D01*
X85741401Y-106486747D01*
X85761107Y-106472132D01*
X85782150Y-106459520D01*
X85804329Y-106449030D01*
X85827428Y-106440765D01*
X85851227Y-106434804D01*
X85875495Y-106431204D01*
X85899999Y-106430000D01*
X86800001Y-106430000D01*
X86824505Y-106431204D01*
X86824505Y-106431204D01*
G37*
D13*
X86350000Y-107005000D03*
G04 #@! TD*
D10*
G04 #@! TO.C,R28*
G36*
X69866505Y-102305204D02*
X69890773Y-102308804D01*
X69914572Y-102314765D01*
X69937671Y-102323030D01*
X69959850Y-102333520D01*
X69980893Y-102346132D01*
X70000599Y-102360747D01*
X70018777Y-102377223D01*
X70035253Y-102395401D01*
X70049868Y-102415107D01*
X70062480Y-102436150D01*
X70072970Y-102458329D01*
X70081235Y-102481428D01*
X70087196Y-102505227D01*
X70090796Y-102529495D01*
X70092000Y-102553999D01*
X70092000Y-103454001D01*
X70090796Y-103478505D01*
X70087196Y-103502773D01*
X70081235Y-103526572D01*
X70072970Y-103549671D01*
X70062480Y-103571850D01*
X70049868Y-103592893D01*
X70035253Y-103612599D01*
X70018777Y-103630777D01*
X70000599Y-103647253D01*
X69980893Y-103661868D01*
X69959850Y-103674480D01*
X69937671Y-103684970D01*
X69914572Y-103693235D01*
X69890773Y-103699196D01*
X69866505Y-103702796D01*
X69842001Y-103704000D01*
X69191999Y-103704000D01*
X69167495Y-103702796D01*
X69143227Y-103699196D01*
X69119428Y-103693235D01*
X69096329Y-103684970D01*
X69074150Y-103674480D01*
X69053107Y-103661868D01*
X69033401Y-103647253D01*
X69015223Y-103630777D01*
X68998747Y-103612599D01*
X68984132Y-103592893D01*
X68971520Y-103571850D01*
X68961030Y-103549671D01*
X68952765Y-103526572D01*
X68946804Y-103502773D01*
X68943204Y-103478505D01*
X68942000Y-103454001D01*
X68942000Y-102553999D01*
X68943204Y-102529495D01*
X68946804Y-102505227D01*
X68952765Y-102481428D01*
X68961030Y-102458329D01*
X68971520Y-102436150D01*
X68984132Y-102415107D01*
X68998747Y-102395401D01*
X69015223Y-102377223D01*
X69033401Y-102360747D01*
X69053107Y-102346132D01*
X69074150Y-102333520D01*
X69096329Y-102323030D01*
X69119428Y-102314765D01*
X69143227Y-102308804D01*
X69167495Y-102305204D01*
X69191999Y-102304000D01*
X69842001Y-102304000D01*
X69866505Y-102305204D01*
X69866505Y-102305204D01*
G37*
D13*
X69517000Y-103004000D03*
D10*
G36*
X71916505Y-102305204D02*
X71940773Y-102308804D01*
X71964572Y-102314765D01*
X71987671Y-102323030D01*
X72009850Y-102333520D01*
X72030893Y-102346132D01*
X72050599Y-102360747D01*
X72068777Y-102377223D01*
X72085253Y-102395401D01*
X72099868Y-102415107D01*
X72112480Y-102436150D01*
X72122970Y-102458329D01*
X72131235Y-102481428D01*
X72137196Y-102505227D01*
X72140796Y-102529495D01*
X72142000Y-102553999D01*
X72142000Y-103454001D01*
X72140796Y-103478505D01*
X72137196Y-103502773D01*
X72131235Y-103526572D01*
X72122970Y-103549671D01*
X72112480Y-103571850D01*
X72099868Y-103592893D01*
X72085253Y-103612599D01*
X72068777Y-103630777D01*
X72050599Y-103647253D01*
X72030893Y-103661868D01*
X72009850Y-103674480D01*
X71987671Y-103684970D01*
X71964572Y-103693235D01*
X71940773Y-103699196D01*
X71916505Y-103702796D01*
X71892001Y-103704000D01*
X71241999Y-103704000D01*
X71217495Y-103702796D01*
X71193227Y-103699196D01*
X71169428Y-103693235D01*
X71146329Y-103684970D01*
X71124150Y-103674480D01*
X71103107Y-103661868D01*
X71083401Y-103647253D01*
X71065223Y-103630777D01*
X71048747Y-103612599D01*
X71034132Y-103592893D01*
X71021520Y-103571850D01*
X71011030Y-103549671D01*
X71002765Y-103526572D01*
X70996804Y-103502773D01*
X70993204Y-103478505D01*
X70992000Y-103454001D01*
X70992000Y-102553999D01*
X70993204Y-102529495D01*
X70996804Y-102505227D01*
X71002765Y-102481428D01*
X71011030Y-102458329D01*
X71021520Y-102436150D01*
X71034132Y-102415107D01*
X71048747Y-102395401D01*
X71065223Y-102377223D01*
X71083401Y-102360747D01*
X71103107Y-102346132D01*
X71124150Y-102333520D01*
X71146329Y-102323030D01*
X71169428Y-102314765D01*
X71193227Y-102308804D01*
X71217495Y-102305204D01*
X71241999Y-102304000D01*
X71892001Y-102304000D01*
X71916505Y-102305204D01*
X71916505Y-102305204D01*
G37*
D13*
X71567000Y-103004000D03*
G04 #@! TD*
D10*
G04 #@! TO.C,R29*
G36*
X69866505Y-100019204D02*
X69890773Y-100022804D01*
X69914572Y-100028765D01*
X69937671Y-100037030D01*
X69959850Y-100047520D01*
X69980893Y-100060132D01*
X70000599Y-100074747D01*
X70018777Y-100091223D01*
X70035253Y-100109401D01*
X70049868Y-100129107D01*
X70062480Y-100150150D01*
X70072970Y-100172329D01*
X70081235Y-100195428D01*
X70087196Y-100219227D01*
X70090796Y-100243495D01*
X70092000Y-100267999D01*
X70092000Y-101168001D01*
X70090796Y-101192505D01*
X70087196Y-101216773D01*
X70081235Y-101240572D01*
X70072970Y-101263671D01*
X70062480Y-101285850D01*
X70049868Y-101306893D01*
X70035253Y-101326599D01*
X70018777Y-101344777D01*
X70000599Y-101361253D01*
X69980893Y-101375868D01*
X69959850Y-101388480D01*
X69937671Y-101398970D01*
X69914572Y-101407235D01*
X69890773Y-101413196D01*
X69866505Y-101416796D01*
X69842001Y-101418000D01*
X69191999Y-101418000D01*
X69167495Y-101416796D01*
X69143227Y-101413196D01*
X69119428Y-101407235D01*
X69096329Y-101398970D01*
X69074150Y-101388480D01*
X69053107Y-101375868D01*
X69033401Y-101361253D01*
X69015223Y-101344777D01*
X68998747Y-101326599D01*
X68984132Y-101306893D01*
X68971520Y-101285850D01*
X68961030Y-101263671D01*
X68952765Y-101240572D01*
X68946804Y-101216773D01*
X68943204Y-101192505D01*
X68942000Y-101168001D01*
X68942000Y-100267999D01*
X68943204Y-100243495D01*
X68946804Y-100219227D01*
X68952765Y-100195428D01*
X68961030Y-100172329D01*
X68971520Y-100150150D01*
X68984132Y-100129107D01*
X68998747Y-100109401D01*
X69015223Y-100091223D01*
X69033401Y-100074747D01*
X69053107Y-100060132D01*
X69074150Y-100047520D01*
X69096329Y-100037030D01*
X69119428Y-100028765D01*
X69143227Y-100022804D01*
X69167495Y-100019204D01*
X69191999Y-100018000D01*
X69842001Y-100018000D01*
X69866505Y-100019204D01*
X69866505Y-100019204D01*
G37*
D13*
X69517000Y-100718000D03*
D10*
G36*
X71916505Y-100019204D02*
X71940773Y-100022804D01*
X71964572Y-100028765D01*
X71987671Y-100037030D01*
X72009850Y-100047520D01*
X72030893Y-100060132D01*
X72050599Y-100074747D01*
X72068777Y-100091223D01*
X72085253Y-100109401D01*
X72099868Y-100129107D01*
X72112480Y-100150150D01*
X72122970Y-100172329D01*
X72131235Y-100195428D01*
X72137196Y-100219227D01*
X72140796Y-100243495D01*
X72142000Y-100267999D01*
X72142000Y-101168001D01*
X72140796Y-101192505D01*
X72137196Y-101216773D01*
X72131235Y-101240572D01*
X72122970Y-101263671D01*
X72112480Y-101285850D01*
X72099868Y-101306893D01*
X72085253Y-101326599D01*
X72068777Y-101344777D01*
X72050599Y-101361253D01*
X72030893Y-101375868D01*
X72009850Y-101388480D01*
X71987671Y-101398970D01*
X71964572Y-101407235D01*
X71940773Y-101413196D01*
X71916505Y-101416796D01*
X71892001Y-101418000D01*
X71241999Y-101418000D01*
X71217495Y-101416796D01*
X71193227Y-101413196D01*
X71169428Y-101407235D01*
X71146329Y-101398970D01*
X71124150Y-101388480D01*
X71103107Y-101375868D01*
X71083401Y-101361253D01*
X71065223Y-101344777D01*
X71048747Y-101326599D01*
X71034132Y-101306893D01*
X71021520Y-101285850D01*
X71011030Y-101263671D01*
X71002765Y-101240572D01*
X70996804Y-101216773D01*
X70993204Y-101192505D01*
X70992000Y-101168001D01*
X70992000Y-100267999D01*
X70993204Y-100243495D01*
X70996804Y-100219227D01*
X71002765Y-100195428D01*
X71011030Y-100172329D01*
X71021520Y-100150150D01*
X71034132Y-100129107D01*
X71048747Y-100109401D01*
X71065223Y-100091223D01*
X71083401Y-100074747D01*
X71103107Y-100060132D01*
X71124150Y-100047520D01*
X71146329Y-100037030D01*
X71169428Y-100028765D01*
X71193227Y-100022804D01*
X71217495Y-100019204D01*
X71241999Y-100018000D01*
X71892001Y-100018000D01*
X71916505Y-100019204D01*
X71916505Y-100019204D01*
G37*
D13*
X71567000Y-100718000D03*
G04 #@! TD*
D19*
G04 #@! TO.C,U10*
X80448000Y-107018000D03*
D20*
X80448000Y-100718000D03*
X78148000Y-100718000D03*
X82748000Y-100718000D03*
G04 #@! TD*
D10*
G04 #@! TO.C,C6*
G36*
X182294505Y-75491204D02*
X182318773Y-75494804D01*
X182342572Y-75500765D01*
X182365671Y-75509030D01*
X182387850Y-75519520D01*
X182408893Y-75532132D01*
X182428599Y-75546747D01*
X182446777Y-75563223D01*
X182463253Y-75581401D01*
X182477868Y-75601107D01*
X182490480Y-75622150D01*
X182500970Y-75644329D01*
X182509235Y-75667428D01*
X182515196Y-75691227D01*
X182518796Y-75715495D01*
X182520000Y-75739999D01*
X182520000Y-76390001D01*
X182518796Y-76414505D01*
X182515196Y-76438773D01*
X182509235Y-76462572D01*
X182500970Y-76485671D01*
X182490480Y-76507850D01*
X182477868Y-76528893D01*
X182463253Y-76548599D01*
X182446777Y-76566777D01*
X182428599Y-76583253D01*
X182408893Y-76597868D01*
X182387850Y-76610480D01*
X182365671Y-76620970D01*
X182342572Y-76629235D01*
X182318773Y-76635196D01*
X182294505Y-76638796D01*
X182270001Y-76640000D01*
X181369999Y-76640000D01*
X181345495Y-76638796D01*
X181321227Y-76635196D01*
X181297428Y-76629235D01*
X181274329Y-76620970D01*
X181252150Y-76610480D01*
X181231107Y-76597868D01*
X181211401Y-76583253D01*
X181193223Y-76566777D01*
X181176747Y-76548599D01*
X181162132Y-76528893D01*
X181149520Y-76507850D01*
X181139030Y-76485671D01*
X181130765Y-76462572D01*
X181124804Y-76438773D01*
X181121204Y-76414505D01*
X181120000Y-76390001D01*
X181120000Y-75739999D01*
X181121204Y-75715495D01*
X181124804Y-75691227D01*
X181130765Y-75667428D01*
X181139030Y-75644329D01*
X181149520Y-75622150D01*
X181162132Y-75601107D01*
X181176747Y-75581401D01*
X181193223Y-75563223D01*
X181211401Y-75546747D01*
X181231107Y-75532132D01*
X181252150Y-75519520D01*
X181274329Y-75509030D01*
X181297428Y-75500765D01*
X181321227Y-75494804D01*
X181345495Y-75491204D01*
X181369999Y-75490000D01*
X182270001Y-75490000D01*
X182294505Y-75491204D01*
X182294505Y-75491204D01*
G37*
D13*
X181820000Y-76065000D03*
D10*
G36*
X182294505Y-73441204D02*
X182318773Y-73444804D01*
X182342572Y-73450765D01*
X182365671Y-73459030D01*
X182387850Y-73469520D01*
X182408893Y-73482132D01*
X182428599Y-73496747D01*
X182446777Y-73513223D01*
X182463253Y-73531401D01*
X182477868Y-73551107D01*
X182490480Y-73572150D01*
X182500970Y-73594329D01*
X182509235Y-73617428D01*
X182515196Y-73641227D01*
X182518796Y-73665495D01*
X182520000Y-73689999D01*
X182520000Y-74340001D01*
X182518796Y-74364505D01*
X182515196Y-74388773D01*
X182509235Y-74412572D01*
X182500970Y-74435671D01*
X182490480Y-74457850D01*
X182477868Y-74478893D01*
X182463253Y-74498599D01*
X182446777Y-74516777D01*
X182428599Y-74533253D01*
X182408893Y-74547868D01*
X182387850Y-74560480D01*
X182365671Y-74570970D01*
X182342572Y-74579235D01*
X182318773Y-74585196D01*
X182294505Y-74588796D01*
X182270001Y-74590000D01*
X181369999Y-74590000D01*
X181345495Y-74588796D01*
X181321227Y-74585196D01*
X181297428Y-74579235D01*
X181274329Y-74570970D01*
X181252150Y-74560480D01*
X181231107Y-74547868D01*
X181211401Y-74533253D01*
X181193223Y-74516777D01*
X181176747Y-74498599D01*
X181162132Y-74478893D01*
X181149520Y-74457850D01*
X181139030Y-74435671D01*
X181130765Y-74412572D01*
X181124804Y-74388773D01*
X181121204Y-74364505D01*
X181120000Y-74340001D01*
X181120000Y-73689999D01*
X181121204Y-73665495D01*
X181124804Y-73641227D01*
X181130765Y-73617428D01*
X181139030Y-73594329D01*
X181149520Y-73572150D01*
X181162132Y-73551107D01*
X181176747Y-73531401D01*
X181193223Y-73513223D01*
X181211401Y-73496747D01*
X181231107Y-73482132D01*
X181252150Y-73469520D01*
X181274329Y-73459030D01*
X181297428Y-73450765D01*
X181321227Y-73444804D01*
X181345495Y-73441204D01*
X181369999Y-73440000D01*
X182270001Y-73440000D01*
X182294505Y-73441204D01*
X182294505Y-73441204D01*
G37*
D13*
X181820000Y-74015000D03*
G04 #@! TD*
D10*
G04 #@! TO.C,C7*
G36*
X180484505Y-73441204D02*
X180508773Y-73444804D01*
X180532572Y-73450765D01*
X180555671Y-73459030D01*
X180577850Y-73469520D01*
X180598893Y-73482132D01*
X180618599Y-73496747D01*
X180636777Y-73513223D01*
X180653253Y-73531401D01*
X180667868Y-73551107D01*
X180680480Y-73572150D01*
X180690970Y-73594329D01*
X180699235Y-73617428D01*
X180705196Y-73641227D01*
X180708796Y-73665495D01*
X180710000Y-73689999D01*
X180710000Y-74340001D01*
X180708796Y-74364505D01*
X180705196Y-74388773D01*
X180699235Y-74412572D01*
X180690970Y-74435671D01*
X180680480Y-74457850D01*
X180667868Y-74478893D01*
X180653253Y-74498599D01*
X180636777Y-74516777D01*
X180618599Y-74533253D01*
X180598893Y-74547868D01*
X180577850Y-74560480D01*
X180555671Y-74570970D01*
X180532572Y-74579235D01*
X180508773Y-74585196D01*
X180484505Y-74588796D01*
X180460001Y-74590000D01*
X179559999Y-74590000D01*
X179535495Y-74588796D01*
X179511227Y-74585196D01*
X179487428Y-74579235D01*
X179464329Y-74570970D01*
X179442150Y-74560480D01*
X179421107Y-74547868D01*
X179401401Y-74533253D01*
X179383223Y-74516777D01*
X179366747Y-74498599D01*
X179352132Y-74478893D01*
X179339520Y-74457850D01*
X179329030Y-74435671D01*
X179320765Y-74412572D01*
X179314804Y-74388773D01*
X179311204Y-74364505D01*
X179310000Y-74340001D01*
X179310000Y-73689999D01*
X179311204Y-73665495D01*
X179314804Y-73641227D01*
X179320765Y-73617428D01*
X179329030Y-73594329D01*
X179339520Y-73572150D01*
X179352132Y-73551107D01*
X179366747Y-73531401D01*
X179383223Y-73513223D01*
X179401401Y-73496747D01*
X179421107Y-73482132D01*
X179442150Y-73469520D01*
X179464329Y-73459030D01*
X179487428Y-73450765D01*
X179511227Y-73444804D01*
X179535495Y-73441204D01*
X179559999Y-73440000D01*
X180460001Y-73440000D01*
X180484505Y-73441204D01*
X180484505Y-73441204D01*
G37*
D13*
X180010000Y-74015000D03*
D10*
G36*
X180484505Y-75491204D02*
X180508773Y-75494804D01*
X180532572Y-75500765D01*
X180555671Y-75509030D01*
X180577850Y-75519520D01*
X180598893Y-75532132D01*
X180618599Y-75546747D01*
X180636777Y-75563223D01*
X180653253Y-75581401D01*
X180667868Y-75601107D01*
X180680480Y-75622150D01*
X180690970Y-75644329D01*
X180699235Y-75667428D01*
X180705196Y-75691227D01*
X180708796Y-75715495D01*
X180710000Y-75739999D01*
X180710000Y-76390001D01*
X180708796Y-76414505D01*
X180705196Y-76438773D01*
X180699235Y-76462572D01*
X180690970Y-76485671D01*
X180680480Y-76507850D01*
X180667868Y-76528893D01*
X180653253Y-76548599D01*
X180636777Y-76566777D01*
X180618599Y-76583253D01*
X180598893Y-76597868D01*
X180577850Y-76610480D01*
X180555671Y-76620970D01*
X180532572Y-76629235D01*
X180508773Y-76635196D01*
X180484505Y-76638796D01*
X180460001Y-76640000D01*
X179559999Y-76640000D01*
X179535495Y-76638796D01*
X179511227Y-76635196D01*
X179487428Y-76629235D01*
X179464329Y-76620970D01*
X179442150Y-76610480D01*
X179421107Y-76597868D01*
X179401401Y-76583253D01*
X179383223Y-76566777D01*
X179366747Y-76548599D01*
X179352132Y-76528893D01*
X179339520Y-76507850D01*
X179329030Y-76485671D01*
X179320765Y-76462572D01*
X179314804Y-76438773D01*
X179311204Y-76414505D01*
X179310000Y-76390001D01*
X179310000Y-75739999D01*
X179311204Y-75715495D01*
X179314804Y-75691227D01*
X179320765Y-75667428D01*
X179329030Y-75644329D01*
X179339520Y-75622150D01*
X179352132Y-75601107D01*
X179366747Y-75581401D01*
X179383223Y-75563223D01*
X179401401Y-75546747D01*
X179421107Y-75532132D01*
X179442150Y-75519520D01*
X179464329Y-75509030D01*
X179487428Y-75500765D01*
X179511227Y-75494804D01*
X179535495Y-75491204D01*
X179559999Y-75490000D01*
X180460001Y-75490000D01*
X180484505Y-75491204D01*
X180484505Y-75491204D01*
G37*
D13*
X180010000Y-76065000D03*
G04 #@! TD*
D12*
G04 #@! TO.C,U5*
X153290000Y-61390000D03*
X154560000Y-61390000D03*
X155830000Y-61390000D03*
X157100000Y-61390000D03*
X158370000Y-61390000D03*
X159640000Y-61390000D03*
X160910000Y-61390000D03*
X160910000Y-55990000D03*
X159640000Y-55990000D03*
X158370000Y-55990000D03*
X157100000Y-55990000D03*
X155830000Y-55990000D03*
X154560000Y-55990000D03*
X153290000Y-55990000D03*
G04 #@! TD*
M02*
