G04 #@! TF.GenerationSoftware,KiCad,Pcbnew,(5.0.0)*
G04 #@! TF.CreationDate,2019-07-01T15:33:15-03:00*
G04 #@! TF.ProjectId,dc_load,64635F6C6F61642E6B696361645F7063,rev?*
G04 #@! TF.SameCoordinates,Original*
G04 #@! TF.FileFunction,Soldermask,Bot*
G04 #@! TF.FilePolarity,Negative*
%FSLAX46Y46*%
G04 Gerber Fmt 4.6, Leading zero omitted, Abs format (unit mm)*
G04 Created by KiCad (PCBNEW (5.0.0)) date 07/01/19 15:33:15*
%MOMM*%
%LPD*%
G01*
G04 APERTURE LIST*
%ADD10C,0.100000*%
G04 APERTURE END LIST*
D10*
G36*
X66313000Y-114015000D02*
X64611000Y-114015000D01*
X64611000Y-112313000D01*
X66313000Y-112313000D01*
X66313000Y-114015000D01*
X66313000Y-114015000D01*
G37*
G36*
X58693000Y-114015000D02*
X56991000Y-114015000D01*
X56991000Y-112313000D01*
X58693000Y-112313000D01*
X58693000Y-114015000D01*
X58693000Y-114015000D01*
G37*
G36*
X58090228Y-109845703D02*
X58245100Y-109909853D01*
X58384481Y-110002985D01*
X58503015Y-110121519D01*
X58596147Y-110260900D01*
X58660297Y-110415772D01*
X58693000Y-110580184D01*
X58693000Y-110747816D01*
X58660297Y-110912228D01*
X58596147Y-111067100D01*
X58503015Y-111206481D01*
X58384481Y-111325015D01*
X58245100Y-111418147D01*
X58090228Y-111482297D01*
X57925816Y-111515000D01*
X57758184Y-111515000D01*
X57593772Y-111482297D01*
X57438900Y-111418147D01*
X57299519Y-111325015D01*
X57180985Y-111206481D01*
X57087853Y-111067100D01*
X57023703Y-110912228D01*
X56991000Y-110747816D01*
X56991000Y-110580184D01*
X57023703Y-110415772D01*
X57087853Y-110260900D01*
X57180985Y-110121519D01*
X57299519Y-110002985D01*
X57438900Y-109909853D01*
X57593772Y-109845703D01*
X57758184Y-109813000D01*
X57925816Y-109813000D01*
X58090228Y-109845703D01*
X58090228Y-109845703D01*
G37*
G36*
X65710228Y-109845703D02*
X65865100Y-109909853D01*
X66004481Y-110002985D01*
X66123015Y-110121519D01*
X66216147Y-110260900D01*
X66280297Y-110415772D01*
X66313000Y-110580184D01*
X66313000Y-110747816D01*
X66280297Y-110912228D01*
X66216147Y-111067100D01*
X66123015Y-111206481D01*
X66004481Y-111325015D01*
X65865100Y-111418147D01*
X65710228Y-111482297D01*
X65545816Y-111515000D01*
X65378184Y-111515000D01*
X65213772Y-111482297D01*
X65058900Y-111418147D01*
X64919519Y-111325015D01*
X64800985Y-111206481D01*
X64707853Y-111067100D01*
X64643703Y-110912228D01*
X64611000Y-110747816D01*
X64611000Y-110580184D01*
X64643703Y-110415772D01*
X64707853Y-110260900D01*
X64800985Y-110121519D01*
X64919519Y-110002985D01*
X65058900Y-109909853D01*
X65213772Y-109845703D01*
X65378184Y-109813000D01*
X65545816Y-109813000D01*
X65710228Y-109845703D01*
X65710228Y-109845703D01*
G37*
G36*
X40416366Y-106585695D02*
X40573458Y-106633348D01*
X40718230Y-106710731D01*
X40845128Y-106814872D01*
X40949269Y-106941770D01*
X41026652Y-107086542D01*
X41074305Y-107243634D01*
X41091000Y-107413140D01*
X41091000Y-109326860D01*
X41074305Y-109496366D01*
X41026652Y-109653458D01*
X40949269Y-109798230D01*
X40845128Y-109925128D01*
X40718230Y-110029269D01*
X40573458Y-110106652D01*
X40416366Y-110154305D01*
X40246860Y-110171000D01*
X38333140Y-110171000D01*
X38163634Y-110154305D01*
X38006542Y-110106652D01*
X37861770Y-110029269D01*
X37734872Y-109925128D01*
X37630731Y-109798230D01*
X37553348Y-109653458D01*
X37505695Y-109496366D01*
X37489000Y-109326860D01*
X37489000Y-107413140D01*
X37505695Y-107243634D01*
X37553348Y-107086542D01*
X37630731Y-106941770D01*
X37734872Y-106814872D01*
X37861770Y-106710731D01*
X38006542Y-106633348D01*
X38163634Y-106585695D01*
X38333140Y-106569000D01*
X40246860Y-106569000D01*
X40416366Y-106585695D01*
X40416366Y-106585695D01*
G37*
G36*
X175846626Y-107007037D02*
X175959852Y-107041384D01*
X176016466Y-107058557D01*
X176172989Y-107142221D01*
X176310186Y-107254814D01*
X176393448Y-107356271D01*
X176422778Y-107392009D01*
X176422779Y-107392011D01*
X176506443Y-107548533D01*
X176523616Y-107605147D01*
X176557963Y-107718373D01*
X176571000Y-107850742D01*
X176571000Y-108189257D01*
X176557963Y-108321626D01*
X176506443Y-108491466D01*
X176422778Y-108647991D01*
X176422777Y-108647992D01*
X176310186Y-108785186D01*
X176215251Y-108863096D01*
X176172991Y-108897778D01*
X176172989Y-108897779D01*
X176016467Y-108981443D01*
X175975734Y-108993799D01*
X175846627Y-109032963D01*
X175670000Y-109050359D01*
X175493374Y-109032963D01*
X175364267Y-108993799D01*
X175323534Y-108981443D01*
X175167012Y-108897779D01*
X175167010Y-108897778D01*
X175029816Y-108785186D01*
X175029812Y-108785183D01*
X174917222Y-108647992D01*
X174833557Y-108491467D01*
X174816384Y-108434853D01*
X174782037Y-108321627D01*
X174769000Y-108189258D01*
X174769000Y-107850743D01*
X174782037Y-107718374D01*
X174833557Y-107548535D01*
X174833557Y-107548534D01*
X174917221Y-107392011D01*
X175029814Y-107254814D01*
X175131271Y-107171552D01*
X175167009Y-107142222D01*
X175199427Y-107124894D01*
X175323533Y-107058557D01*
X175380147Y-107041384D01*
X175493373Y-107007037D01*
X175670000Y-106989641D01*
X175846626Y-107007037D01*
X175846626Y-107007037D01*
G37*
G36*
X185846626Y-107007037D02*
X185959852Y-107041384D01*
X186016466Y-107058557D01*
X186172989Y-107142221D01*
X186310186Y-107254814D01*
X186393448Y-107356271D01*
X186422778Y-107392009D01*
X186422779Y-107392011D01*
X186506443Y-107548533D01*
X186523616Y-107605147D01*
X186557963Y-107718373D01*
X186571000Y-107850742D01*
X186571000Y-108189257D01*
X186557963Y-108321626D01*
X186506443Y-108491466D01*
X186422778Y-108647991D01*
X186422777Y-108647992D01*
X186310186Y-108785186D01*
X186215251Y-108863096D01*
X186172991Y-108897778D01*
X186172989Y-108897779D01*
X186016467Y-108981443D01*
X185975734Y-108993799D01*
X185846627Y-109032963D01*
X185670000Y-109050359D01*
X185493374Y-109032963D01*
X185364267Y-108993799D01*
X185323534Y-108981443D01*
X185167012Y-108897779D01*
X185167010Y-108897778D01*
X185029816Y-108785186D01*
X185029812Y-108785183D01*
X184917222Y-108647992D01*
X184833557Y-108491467D01*
X184816384Y-108434853D01*
X184782037Y-108321627D01*
X184769000Y-108189258D01*
X184769000Y-107850743D01*
X184782037Y-107718374D01*
X184833557Y-107548535D01*
X184833557Y-107548534D01*
X184917221Y-107392011D01*
X185029814Y-107254814D01*
X185131271Y-107171552D01*
X185167009Y-107142222D01*
X185199427Y-107124894D01*
X185323533Y-107058557D01*
X185380147Y-107041384D01*
X185493373Y-107007037D01*
X185670000Y-106989641D01*
X185846626Y-107007037D01*
X185846626Y-107007037D01*
G37*
G36*
X183346626Y-107007037D02*
X183459852Y-107041384D01*
X183516466Y-107058557D01*
X183672989Y-107142221D01*
X183810186Y-107254814D01*
X183893448Y-107356271D01*
X183922778Y-107392009D01*
X183922779Y-107392011D01*
X184006443Y-107548533D01*
X184023616Y-107605147D01*
X184057963Y-107718373D01*
X184071000Y-107850742D01*
X184071000Y-108189257D01*
X184057963Y-108321626D01*
X184006443Y-108491466D01*
X183922778Y-108647991D01*
X183922777Y-108647992D01*
X183810186Y-108785186D01*
X183715251Y-108863096D01*
X183672991Y-108897778D01*
X183672989Y-108897779D01*
X183516467Y-108981443D01*
X183475734Y-108993799D01*
X183346627Y-109032963D01*
X183170000Y-109050359D01*
X182993374Y-109032963D01*
X182864267Y-108993799D01*
X182823534Y-108981443D01*
X182667012Y-108897779D01*
X182667010Y-108897778D01*
X182529816Y-108785186D01*
X182529812Y-108785183D01*
X182417222Y-108647992D01*
X182333557Y-108491467D01*
X182316384Y-108434853D01*
X182282037Y-108321627D01*
X182269000Y-108189258D01*
X182269000Y-107850743D01*
X182282037Y-107718374D01*
X182333557Y-107548535D01*
X182333557Y-107548534D01*
X182417221Y-107392011D01*
X182529814Y-107254814D01*
X182631271Y-107171552D01*
X182667009Y-107142222D01*
X182699427Y-107124894D01*
X182823533Y-107058557D01*
X182880147Y-107041384D01*
X182993373Y-107007037D01*
X183170000Y-106989641D01*
X183346626Y-107007037D01*
X183346626Y-107007037D01*
G37*
G36*
X180846626Y-107007037D02*
X180959852Y-107041384D01*
X181016466Y-107058557D01*
X181172989Y-107142221D01*
X181310186Y-107254814D01*
X181393448Y-107356271D01*
X181422778Y-107392009D01*
X181422779Y-107392011D01*
X181506443Y-107548533D01*
X181523616Y-107605147D01*
X181557963Y-107718373D01*
X181571000Y-107850742D01*
X181571000Y-108189257D01*
X181557963Y-108321626D01*
X181506443Y-108491466D01*
X181422778Y-108647991D01*
X181422777Y-108647992D01*
X181310186Y-108785186D01*
X181215251Y-108863096D01*
X181172991Y-108897778D01*
X181172989Y-108897779D01*
X181016467Y-108981443D01*
X180975734Y-108993799D01*
X180846627Y-109032963D01*
X180670000Y-109050359D01*
X180493374Y-109032963D01*
X180364267Y-108993799D01*
X180323534Y-108981443D01*
X180167012Y-108897779D01*
X180167010Y-108897778D01*
X180029816Y-108785186D01*
X180029812Y-108785183D01*
X179917222Y-108647992D01*
X179833557Y-108491467D01*
X179816384Y-108434853D01*
X179782037Y-108321627D01*
X179769000Y-108189258D01*
X179769000Y-107850743D01*
X179782037Y-107718374D01*
X179833557Y-107548535D01*
X179833557Y-107548534D01*
X179917221Y-107392011D01*
X180029814Y-107254814D01*
X180131271Y-107171552D01*
X180167009Y-107142222D01*
X180199427Y-107124894D01*
X180323533Y-107058557D01*
X180380147Y-107041384D01*
X180493373Y-107007037D01*
X180670000Y-106989641D01*
X180846626Y-107007037D01*
X180846626Y-107007037D01*
G37*
G36*
X178346626Y-107007037D02*
X178459852Y-107041384D01*
X178516466Y-107058557D01*
X178672989Y-107142221D01*
X178810186Y-107254814D01*
X178893448Y-107356271D01*
X178922778Y-107392009D01*
X178922779Y-107392011D01*
X179006443Y-107548533D01*
X179023616Y-107605147D01*
X179057963Y-107718373D01*
X179071000Y-107850742D01*
X179071000Y-108189257D01*
X179057963Y-108321626D01*
X179006443Y-108491466D01*
X178922778Y-108647991D01*
X178922777Y-108647992D01*
X178810186Y-108785186D01*
X178715251Y-108863096D01*
X178672991Y-108897778D01*
X178672989Y-108897779D01*
X178516467Y-108981443D01*
X178475734Y-108993799D01*
X178346627Y-109032963D01*
X178170000Y-109050359D01*
X177993374Y-109032963D01*
X177864267Y-108993799D01*
X177823534Y-108981443D01*
X177667012Y-108897779D01*
X177667010Y-108897778D01*
X177529816Y-108785186D01*
X177529812Y-108785183D01*
X177417222Y-108647992D01*
X177333557Y-108491467D01*
X177316384Y-108434853D01*
X177282037Y-108321627D01*
X177269000Y-108189258D01*
X177269000Y-107850743D01*
X177282037Y-107718374D01*
X177333557Y-107548535D01*
X177333557Y-107548534D01*
X177417221Y-107392011D01*
X177529814Y-107254814D01*
X177631271Y-107171552D01*
X177667009Y-107142222D01*
X177699427Y-107124894D01*
X177823533Y-107058557D01*
X177880147Y-107041384D01*
X177993373Y-107007037D01*
X178170000Y-106989641D01*
X178346626Y-107007037D01*
X178346626Y-107007037D01*
G37*
G36*
X173346626Y-107007037D02*
X173459852Y-107041384D01*
X173516466Y-107058557D01*
X173672989Y-107142221D01*
X173810186Y-107254814D01*
X173893448Y-107356271D01*
X173922778Y-107392009D01*
X173922779Y-107392011D01*
X174006443Y-107548533D01*
X174023616Y-107605147D01*
X174057963Y-107718373D01*
X174071000Y-107850742D01*
X174071000Y-108189257D01*
X174057963Y-108321626D01*
X174006443Y-108491466D01*
X173922778Y-108647991D01*
X173922777Y-108647992D01*
X173810186Y-108785186D01*
X173715251Y-108863096D01*
X173672991Y-108897778D01*
X173672989Y-108897779D01*
X173516467Y-108981443D01*
X173475734Y-108993799D01*
X173346627Y-109032963D01*
X173170000Y-109050359D01*
X172993374Y-109032963D01*
X172864267Y-108993799D01*
X172823534Y-108981443D01*
X172667012Y-108897779D01*
X172667010Y-108897778D01*
X172529816Y-108785186D01*
X172529812Y-108785183D01*
X172417222Y-108647992D01*
X172333557Y-108491467D01*
X172316384Y-108434853D01*
X172282037Y-108321627D01*
X172269000Y-108189258D01*
X172269000Y-107850743D01*
X172282037Y-107718374D01*
X172333557Y-107548535D01*
X172333557Y-107548534D01*
X172417221Y-107392011D01*
X172529814Y-107254814D01*
X172631271Y-107171552D01*
X172667009Y-107142222D01*
X172699427Y-107124894D01*
X172823533Y-107058557D01*
X172880147Y-107041384D01*
X172993373Y-107007037D01*
X173170000Y-106989641D01*
X173346626Y-107007037D01*
X173346626Y-107007037D01*
G37*
G36*
X170846626Y-107007037D02*
X170959852Y-107041384D01*
X171016466Y-107058557D01*
X171172989Y-107142221D01*
X171310186Y-107254814D01*
X171393448Y-107356271D01*
X171422778Y-107392009D01*
X171422779Y-107392011D01*
X171506443Y-107548533D01*
X171523616Y-107605147D01*
X171557963Y-107718373D01*
X171571000Y-107850742D01*
X171571000Y-108189257D01*
X171557963Y-108321626D01*
X171506443Y-108491466D01*
X171422778Y-108647991D01*
X171422777Y-108647992D01*
X171310186Y-108785186D01*
X171215251Y-108863096D01*
X171172991Y-108897778D01*
X171172989Y-108897779D01*
X171016467Y-108981443D01*
X170975734Y-108993799D01*
X170846627Y-109032963D01*
X170670000Y-109050359D01*
X170493374Y-109032963D01*
X170364267Y-108993799D01*
X170323534Y-108981443D01*
X170167012Y-108897779D01*
X170167010Y-108897778D01*
X170029816Y-108785186D01*
X170029812Y-108785183D01*
X169917222Y-108647992D01*
X169833557Y-108491467D01*
X169816384Y-108434853D01*
X169782037Y-108321627D01*
X169769000Y-108189258D01*
X169769000Y-107850743D01*
X169782037Y-107718374D01*
X169833557Y-107548535D01*
X169833557Y-107548534D01*
X169917221Y-107392011D01*
X170029814Y-107254814D01*
X170131271Y-107171552D01*
X170167009Y-107142222D01*
X170199427Y-107124894D01*
X170323533Y-107058557D01*
X170380147Y-107041384D01*
X170493373Y-107007037D01*
X170670000Y-106989641D01*
X170846626Y-107007037D01*
X170846626Y-107007037D01*
G37*
G36*
X168346626Y-107007037D02*
X168459852Y-107041384D01*
X168516466Y-107058557D01*
X168672989Y-107142221D01*
X168810186Y-107254814D01*
X168893448Y-107356271D01*
X168922778Y-107392009D01*
X168922779Y-107392011D01*
X169006443Y-107548533D01*
X169023616Y-107605147D01*
X169057963Y-107718373D01*
X169071000Y-107850742D01*
X169071000Y-108189257D01*
X169057963Y-108321626D01*
X169006443Y-108491466D01*
X168922778Y-108647991D01*
X168922777Y-108647992D01*
X168810186Y-108785186D01*
X168715251Y-108863096D01*
X168672991Y-108897778D01*
X168672989Y-108897779D01*
X168516467Y-108981443D01*
X168475734Y-108993799D01*
X168346627Y-109032963D01*
X168170000Y-109050359D01*
X167993374Y-109032963D01*
X167864267Y-108993799D01*
X167823534Y-108981443D01*
X167667012Y-108897779D01*
X167667010Y-108897778D01*
X167529816Y-108785186D01*
X167529812Y-108785183D01*
X167417222Y-108647992D01*
X167333557Y-108491467D01*
X167316384Y-108434853D01*
X167282037Y-108321627D01*
X167269000Y-108189258D01*
X167269000Y-107850743D01*
X167282037Y-107718374D01*
X167333557Y-107548535D01*
X167333557Y-107548534D01*
X167417221Y-107392011D01*
X167529814Y-107254814D01*
X167631271Y-107171552D01*
X167667009Y-107142222D01*
X167699427Y-107124894D01*
X167823533Y-107058557D01*
X167880147Y-107041384D01*
X167993373Y-107007037D01*
X168170000Y-106989641D01*
X168346626Y-107007037D01*
X168346626Y-107007037D01*
G37*
G36*
X163346626Y-107007037D02*
X163459852Y-107041384D01*
X163516466Y-107058557D01*
X163672989Y-107142221D01*
X163810186Y-107254814D01*
X163893448Y-107356271D01*
X163922778Y-107392009D01*
X163922779Y-107392011D01*
X164006443Y-107548533D01*
X164023616Y-107605147D01*
X164057963Y-107718373D01*
X164071000Y-107850742D01*
X164071000Y-108189257D01*
X164057963Y-108321626D01*
X164006443Y-108491466D01*
X163922778Y-108647991D01*
X163922777Y-108647992D01*
X163810186Y-108785186D01*
X163715251Y-108863096D01*
X163672991Y-108897778D01*
X163672989Y-108897779D01*
X163516467Y-108981443D01*
X163475734Y-108993799D01*
X163346627Y-109032963D01*
X163170000Y-109050359D01*
X162993374Y-109032963D01*
X162864267Y-108993799D01*
X162823534Y-108981443D01*
X162667012Y-108897779D01*
X162667010Y-108897778D01*
X162529816Y-108785186D01*
X162529812Y-108785183D01*
X162417222Y-108647992D01*
X162333557Y-108491467D01*
X162316384Y-108434853D01*
X162282037Y-108321627D01*
X162269000Y-108189258D01*
X162269000Y-107850743D01*
X162282037Y-107718374D01*
X162333557Y-107548535D01*
X162333557Y-107548534D01*
X162417221Y-107392011D01*
X162529814Y-107254814D01*
X162631271Y-107171552D01*
X162667009Y-107142222D01*
X162699427Y-107124894D01*
X162823533Y-107058557D01*
X162880147Y-107041384D01*
X162993373Y-107007037D01*
X163170000Y-106989641D01*
X163346626Y-107007037D01*
X163346626Y-107007037D01*
G37*
G36*
X160846626Y-107007037D02*
X160959852Y-107041384D01*
X161016466Y-107058557D01*
X161172989Y-107142221D01*
X161310186Y-107254814D01*
X161393448Y-107356271D01*
X161422778Y-107392009D01*
X161422779Y-107392011D01*
X161506443Y-107548533D01*
X161523616Y-107605147D01*
X161557963Y-107718373D01*
X161571000Y-107850742D01*
X161571000Y-108189257D01*
X161557963Y-108321626D01*
X161506443Y-108491466D01*
X161422778Y-108647991D01*
X161422777Y-108647992D01*
X161310186Y-108785186D01*
X161215251Y-108863096D01*
X161172991Y-108897778D01*
X161172989Y-108897779D01*
X161016467Y-108981443D01*
X160975734Y-108993799D01*
X160846627Y-109032963D01*
X160670000Y-109050359D01*
X160493374Y-109032963D01*
X160364267Y-108993799D01*
X160323534Y-108981443D01*
X160167012Y-108897779D01*
X160167010Y-108897778D01*
X160029816Y-108785186D01*
X160029812Y-108785183D01*
X159917222Y-108647992D01*
X159833557Y-108491467D01*
X159816384Y-108434853D01*
X159782037Y-108321627D01*
X159769000Y-108189258D01*
X159769000Y-107850743D01*
X159782037Y-107718374D01*
X159833557Y-107548535D01*
X159833557Y-107548534D01*
X159917221Y-107392011D01*
X160029814Y-107254814D01*
X160131271Y-107171552D01*
X160167009Y-107142222D01*
X160199427Y-107124894D01*
X160323533Y-107058557D01*
X160380147Y-107041384D01*
X160493373Y-107007037D01*
X160670000Y-106989641D01*
X160846626Y-107007037D01*
X160846626Y-107007037D01*
G37*
G36*
X158346626Y-107007037D02*
X158459852Y-107041384D01*
X158516466Y-107058557D01*
X158672989Y-107142221D01*
X158810186Y-107254814D01*
X158893448Y-107356271D01*
X158922778Y-107392009D01*
X158922779Y-107392011D01*
X159006443Y-107548533D01*
X159023616Y-107605147D01*
X159057963Y-107718373D01*
X159071000Y-107850742D01*
X159071000Y-108189257D01*
X159057963Y-108321626D01*
X159006443Y-108491466D01*
X158922778Y-108647991D01*
X158922777Y-108647992D01*
X158810186Y-108785186D01*
X158715251Y-108863096D01*
X158672991Y-108897778D01*
X158672989Y-108897779D01*
X158516467Y-108981443D01*
X158475734Y-108993799D01*
X158346627Y-109032963D01*
X158170000Y-109050359D01*
X157993374Y-109032963D01*
X157864267Y-108993799D01*
X157823534Y-108981443D01*
X157667012Y-108897779D01*
X157667010Y-108897778D01*
X157529816Y-108785186D01*
X157529812Y-108785183D01*
X157417222Y-108647992D01*
X157333557Y-108491467D01*
X157316384Y-108434853D01*
X157282037Y-108321627D01*
X157269000Y-108189258D01*
X157269000Y-107850743D01*
X157282037Y-107718374D01*
X157333557Y-107548535D01*
X157333557Y-107548534D01*
X157417221Y-107392011D01*
X157529814Y-107254814D01*
X157631271Y-107171552D01*
X157667009Y-107142222D01*
X157699427Y-107124894D01*
X157823533Y-107058557D01*
X157880147Y-107041384D01*
X157993373Y-107007037D01*
X158170000Y-106989641D01*
X158346626Y-107007037D01*
X158346626Y-107007037D01*
G37*
G36*
X155846626Y-107007037D02*
X155959852Y-107041384D01*
X156016466Y-107058557D01*
X156172989Y-107142221D01*
X156310186Y-107254814D01*
X156393448Y-107356271D01*
X156422778Y-107392009D01*
X156422779Y-107392011D01*
X156506443Y-107548533D01*
X156523616Y-107605147D01*
X156557963Y-107718373D01*
X156571000Y-107850742D01*
X156571000Y-108189257D01*
X156557963Y-108321626D01*
X156506443Y-108491466D01*
X156422778Y-108647991D01*
X156422777Y-108647992D01*
X156310186Y-108785186D01*
X156215251Y-108863096D01*
X156172991Y-108897778D01*
X156172989Y-108897779D01*
X156016467Y-108981443D01*
X155975734Y-108993799D01*
X155846627Y-109032963D01*
X155670000Y-109050359D01*
X155493374Y-109032963D01*
X155364267Y-108993799D01*
X155323534Y-108981443D01*
X155167012Y-108897779D01*
X155167010Y-108897778D01*
X155029816Y-108785186D01*
X155029812Y-108785183D01*
X154917222Y-108647992D01*
X154833557Y-108491467D01*
X154816384Y-108434853D01*
X154782037Y-108321627D01*
X154769000Y-108189258D01*
X154769000Y-107850743D01*
X154782037Y-107718374D01*
X154833557Y-107548535D01*
X154833557Y-107548534D01*
X154917221Y-107392011D01*
X155029814Y-107254814D01*
X155131271Y-107171552D01*
X155167009Y-107142222D01*
X155199427Y-107124894D01*
X155323533Y-107058557D01*
X155380147Y-107041384D01*
X155493373Y-107007037D01*
X155670000Y-106989641D01*
X155846626Y-107007037D01*
X155846626Y-107007037D01*
G37*
G36*
X165846626Y-107007037D02*
X165959852Y-107041384D01*
X166016466Y-107058557D01*
X166172989Y-107142221D01*
X166310186Y-107254814D01*
X166393448Y-107356271D01*
X166422778Y-107392009D01*
X166422779Y-107392011D01*
X166506443Y-107548533D01*
X166523616Y-107605147D01*
X166557963Y-107718373D01*
X166571000Y-107850742D01*
X166571000Y-108189257D01*
X166557963Y-108321626D01*
X166506443Y-108491466D01*
X166422778Y-108647991D01*
X166422777Y-108647992D01*
X166310186Y-108785186D01*
X166215251Y-108863096D01*
X166172991Y-108897778D01*
X166172989Y-108897779D01*
X166016467Y-108981443D01*
X165975734Y-108993799D01*
X165846627Y-109032963D01*
X165670000Y-109050359D01*
X165493374Y-109032963D01*
X165364267Y-108993799D01*
X165323534Y-108981443D01*
X165167012Y-108897779D01*
X165167010Y-108897778D01*
X165029816Y-108785186D01*
X165029812Y-108785183D01*
X164917222Y-108647992D01*
X164833557Y-108491467D01*
X164816384Y-108434853D01*
X164782037Y-108321627D01*
X164769000Y-108189258D01*
X164769000Y-107850743D01*
X164782037Y-107718374D01*
X164833557Y-107548535D01*
X164833557Y-107548534D01*
X164917221Y-107392011D01*
X165029814Y-107254814D01*
X165131271Y-107171552D01*
X165167009Y-107142222D01*
X165199427Y-107124894D01*
X165323533Y-107058557D01*
X165380147Y-107041384D01*
X165493373Y-107007037D01*
X165670000Y-106989641D01*
X165846626Y-107007037D01*
X165846626Y-107007037D01*
G37*
G36*
X153928600Y-106997989D02*
X153961649Y-107008014D01*
X153992106Y-107024294D01*
X154018799Y-107046201D01*
X154040706Y-107072894D01*
X154056986Y-107103351D01*
X154067011Y-107136400D01*
X154071000Y-107176904D01*
X154071000Y-108863096D01*
X154067011Y-108903600D01*
X154056986Y-108936649D01*
X154040706Y-108967106D01*
X154018799Y-108993799D01*
X153992106Y-109015706D01*
X153961649Y-109031986D01*
X153928600Y-109042011D01*
X153888096Y-109046000D01*
X152451904Y-109046000D01*
X152411400Y-109042011D01*
X152378351Y-109031986D01*
X152347894Y-109015706D01*
X152321201Y-108993799D01*
X152299294Y-108967106D01*
X152283014Y-108936649D01*
X152272989Y-108903600D01*
X152269000Y-108863096D01*
X152269000Y-107176904D01*
X152272989Y-107136400D01*
X152283014Y-107103351D01*
X152299294Y-107072894D01*
X152321201Y-107046201D01*
X152347894Y-107024294D01*
X152378351Y-107008014D01*
X152411400Y-106997989D01*
X152451904Y-106994000D01*
X153888096Y-106994000D01*
X153928600Y-106997989D01*
X153928600Y-106997989D01*
G37*
G36*
X44091000Y-105471000D02*
X40489000Y-105471000D01*
X40489000Y-101869000D01*
X44091000Y-101869000D01*
X44091000Y-105471000D01*
X44091000Y-105471000D01*
G37*
G36*
X37266978Y-101883293D02*
X37400627Y-101923835D01*
X37523782Y-101989662D01*
X37631739Y-102078261D01*
X37720338Y-102186218D01*
X37786165Y-102309373D01*
X37826707Y-102443022D01*
X37841000Y-102588140D01*
X37841000Y-104751860D01*
X37826707Y-104896978D01*
X37786165Y-105030627D01*
X37720338Y-105153782D01*
X37631739Y-105261739D01*
X37523782Y-105350338D01*
X37400627Y-105416165D01*
X37266978Y-105456707D01*
X37121860Y-105471000D01*
X35458140Y-105471000D01*
X35313022Y-105456707D01*
X35179373Y-105416165D01*
X35056218Y-105350338D01*
X34948261Y-105261739D01*
X34859662Y-105153782D01*
X34793835Y-105030627D01*
X34753293Y-104896978D01*
X34739000Y-104751860D01*
X34739000Y-102588140D01*
X34753293Y-102443022D01*
X34793835Y-102309373D01*
X34859662Y-102186218D01*
X34948261Y-102078261D01*
X35056218Y-101989662D01*
X35179373Y-101923835D01*
X35313022Y-101883293D01*
X35458140Y-101869000D01*
X37121860Y-101869000D01*
X37266978Y-101883293D01*
X37266978Y-101883293D01*
G37*
G36*
X61664719Y-102646520D02*
X61853880Y-102703901D01*
X62028212Y-102797083D01*
X62181015Y-102922485D01*
X62306417Y-103075288D01*
X62399599Y-103249619D01*
X62456980Y-103438780D01*
X62471500Y-103586206D01*
X62471500Y-103779793D01*
X62456980Y-103927219D01*
X62399599Y-104116380D01*
X62306417Y-104290712D01*
X62181015Y-104443515D01*
X62028212Y-104568917D01*
X61853881Y-104662099D01*
X61664720Y-104719480D01*
X61468000Y-104738855D01*
X61271281Y-104719480D01*
X61082120Y-104662099D01*
X60907788Y-104568917D01*
X60754985Y-104443515D01*
X60629583Y-104290712D01*
X60536401Y-104116381D01*
X60479020Y-103927220D01*
X60464500Y-103779794D01*
X60464500Y-103586207D01*
X60479020Y-103438781D01*
X60536401Y-103249620D01*
X60629583Y-103075288D01*
X60754985Y-102922485D01*
X60907788Y-102797083D01*
X61082119Y-102703901D01*
X61271280Y-102646520D01*
X61468000Y-102627145D01*
X61664719Y-102646520D01*
X61664719Y-102646520D01*
G37*
G36*
X64204719Y-102646520D02*
X64393880Y-102703901D01*
X64568212Y-102797083D01*
X64721015Y-102922485D01*
X64846417Y-103075288D01*
X64939599Y-103249619D01*
X64996980Y-103438780D01*
X65011500Y-103586206D01*
X65011500Y-103779793D01*
X64996980Y-103927219D01*
X64939599Y-104116380D01*
X64846417Y-104290712D01*
X64721015Y-104443515D01*
X64568212Y-104568917D01*
X64393881Y-104662099D01*
X64204720Y-104719480D01*
X64008000Y-104738855D01*
X63811281Y-104719480D01*
X63622120Y-104662099D01*
X63447788Y-104568917D01*
X63294985Y-104443515D01*
X63169583Y-104290712D01*
X63076401Y-104116381D01*
X63019020Y-103927220D01*
X63004500Y-103779794D01*
X63004500Y-103586207D01*
X63019020Y-103438781D01*
X63076401Y-103249620D01*
X63169583Y-103075288D01*
X63294985Y-102922485D01*
X63447788Y-102797083D01*
X63622119Y-102703901D01*
X63811280Y-102646520D01*
X64008000Y-102627145D01*
X64204719Y-102646520D01*
X64204719Y-102646520D01*
G37*
G36*
X59931500Y-104734000D02*
X57924500Y-104734000D01*
X57924500Y-102632000D01*
X59931500Y-102632000D01*
X59931500Y-104734000D01*
X59931500Y-104734000D01*
G37*
G36*
X38071000Y-91431000D02*
X35969000Y-91431000D01*
X35969000Y-89629000D01*
X38071000Y-89629000D01*
X38071000Y-91431000D01*
X38071000Y-91431000D01*
G37*
G36*
X193641000Y-89911000D02*
X191839000Y-89911000D01*
X191839000Y-88109000D01*
X193641000Y-88109000D01*
X193641000Y-89911000D01*
X193641000Y-89911000D01*
G37*
G36*
X37280443Y-87135519D02*
X37346627Y-87142037D01*
X37459853Y-87176384D01*
X37516467Y-87193557D01*
X37655087Y-87267652D01*
X37672991Y-87277222D01*
X37708597Y-87306443D01*
X37810186Y-87389814D01*
X37893448Y-87491271D01*
X37922778Y-87527009D01*
X37922779Y-87527011D01*
X38006443Y-87683533D01*
X38006443Y-87683534D01*
X38057963Y-87853373D01*
X38075359Y-88030000D01*
X38057963Y-88206627D01*
X38028831Y-88302661D01*
X38006443Y-88376467D01*
X37932348Y-88515087D01*
X37922778Y-88532991D01*
X37893448Y-88568729D01*
X37810186Y-88670186D01*
X37708729Y-88753448D01*
X37672991Y-88782778D01*
X37672989Y-88782779D01*
X37516467Y-88866443D01*
X37459853Y-88883616D01*
X37346627Y-88917963D01*
X37280443Y-88924481D01*
X37214260Y-88931000D01*
X36825740Y-88931000D01*
X36759557Y-88924481D01*
X36693373Y-88917963D01*
X36580147Y-88883616D01*
X36523533Y-88866443D01*
X36367011Y-88782779D01*
X36367009Y-88782778D01*
X36331271Y-88753448D01*
X36229814Y-88670186D01*
X36146552Y-88568729D01*
X36117222Y-88532991D01*
X36107652Y-88515087D01*
X36033557Y-88376467D01*
X36011169Y-88302661D01*
X35982037Y-88206627D01*
X35964641Y-88030000D01*
X35982037Y-87853373D01*
X36033557Y-87683534D01*
X36033557Y-87683533D01*
X36117221Y-87527011D01*
X36117222Y-87527009D01*
X36146552Y-87491271D01*
X36229814Y-87389814D01*
X36331403Y-87306443D01*
X36367009Y-87277222D01*
X36384913Y-87267652D01*
X36523533Y-87193557D01*
X36580147Y-87176384D01*
X36693373Y-87142037D01*
X36759557Y-87135519D01*
X36825740Y-87129000D01*
X37214260Y-87129000D01*
X37280443Y-87135519D01*
X37280443Y-87135519D01*
G37*
G36*
X61644669Y-85230686D02*
X61821058Y-85248059D01*
X62047385Y-85316714D01*
X62160549Y-85351042D01*
X62473425Y-85518279D01*
X62747661Y-85743339D01*
X62972721Y-86017575D01*
X63139958Y-86330451D01*
X63139958Y-86330452D01*
X63242941Y-86669942D01*
X63277714Y-87023000D01*
X63242941Y-87376058D01*
X63197150Y-87527011D01*
X63139958Y-87715549D01*
X62972721Y-88028425D01*
X62747661Y-88302661D01*
X62473425Y-88527721D01*
X62160549Y-88694958D01*
X62047385Y-88729286D01*
X61821058Y-88797941D01*
X61644669Y-88815314D01*
X61556476Y-88824000D01*
X61379524Y-88824000D01*
X61291331Y-88815314D01*
X61114942Y-88797941D01*
X60888615Y-88729286D01*
X60775451Y-88694958D01*
X60462575Y-88527721D01*
X60188339Y-88302661D01*
X59963279Y-88028425D01*
X59796042Y-87715549D01*
X59738850Y-87527011D01*
X59693059Y-87376058D01*
X59658286Y-87023000D01*
X59693059Y-86669942D01*
X59796042Y-86330452D01*
X59796042Y-86330451D01*
X59963279Y-86017575D01*
X60188339Y-85743339D01*
X60462575Y-85518279D01*
X60775451Y-85351042D01*
X60888615Y-85316714D01*
X61114942Y-85248059D01*
X61291331Y-85230686D01*
X61379524Y-85222000D01*
X61556476Y-85222000D01*
X61644669Y-85230686D01*
X61644669Y-85230686D01*
G37*
G36*
X192850443Y-85575519D02*
X192916627Y-85582037D01*
X193029853Y-85616384D01*
X193086467Y-85633557D01*
X193225087Y-85707652D01*
X193242991Y-85717222D01*
X193274814Y-85743339D01*
X193380186Y-85829814D01*
X193463448Y-85931271D01*
X193492778Y-85967009D01*
X193492779Y-85967011D01*
X193576443Y-86123533D01*
X193576443Y-86123534D01*
X193627963Y-86293373D01*
X193645359Y-86470000D01*
X193627963Y-86646627D01*
X193593616Y-86759853D01*
X193576443Y-86816467D01*
X193502348Y-86955087D01*
X193492778Y-86972991D01*
X193463448Y-87008729D01*
X193380186Y-87110186D01*
X193278729Y-87193448D01*
X193242991Y-87222778D01*
X193242989Y-87222779D01*
X193086467Y-87306443D01*
X193029853Y-87323616D01*
X192916627Y-87357963D01*
X192850443Y-87364481D01*
X192784260Y-87371000D01*
X192695740Y-87371000D01*
X192629558Y-87364482D01*
X192563373Y-87357963D01*
X192450147Y-87323616D01*
X192393533Y-87306443D01*
X192237011Y-87222779D01*
X192237009Y-87222778D01*
X192201271Y-87193448D01*
X192099814Y-87110186D01*
X192016552Y-87008729D01*
X191987222Y-86972991D01*
X191977652Y-86955087D01*
X191903557Y-86816467D01*
X191886384Y-86759853D01*
X191852037Y-86646627D01*
X191834641Y-86470000D01*
X191852037Y-86293373D01*
X191903557Y-86123534D01*
X191903557Y-86123533D01*
X191987221Y-85967011D01*
X191987222Y-85967009D01*
X192016552Y-85931271D01*
X192099814Y-85829814D01*
X192205186Y-85743339D01*
X192237009Y-85717222D01*
X192254913Y-85707652D01*
X192393533Y-85633557D01*
X192450147Y-85616384D01*
X192563373Y-85582037D01*
X192629557Y-85575519D01*
X192695740Y-85569000D01*
X192784260Y-85569000D01*
X192850443Y-85575519D01*
X192850443Y-85575519D01*
G37*
G36*
X192850443Y-83035519D02*
X192916627Y-83042037D01*
X193029853Y-83076384D01*
X193086467Y-83093557D01*
X193225087Y-83167652D01*
X193242991Y-83177222D01*
X193278729Y-83206552D01*
X193380186Y-83289814D01*
X193463448Y-83391271D01*
X193492778Y-83427009D01*
X193492779Y-83427011D01*
X193576443Y-83583533D01*
X193576443Y-83583534D01*
X193627963Y-83753373D01*
X193645359Y-83930000D01*
X193627963Y-84106627D01*
X193593616Y-84219853D01*
X193576443Y-84276467D01*
X193502348Y-84415087D01*
X193492778Y-84432991D01*
X193463448Y-84468729D01*
X193380186Y-84570186D01*
X193278729Y-84653448D01*
X193242991Y-84682778D01*
X193242989Y-84682779D01*
X193086467Y-84766443D01*
X193029853Y-84783616D01*
X192916627Y-84817963D01*
X192850443Y-84824481D01*
X192784260Y-84831000D01*
X192695740Y-84831000D01*
X192629557Y-84824481D01*
X192563373Y-84817963D01*
X192450147Y-84783616D01*
X192393533Y-84766443D01*
X192237011Y-84682779D01*
X192237009Y-84682778D01*
X192201271Y-84653448D01*
X192099814Y-84570186D01*
X192016552Y-84468729D01*
X191987222Y-84432991D01*
X191977652Y-84415087D01*
X191903557Y-84276467D01*
X191886384Y-84219853D01*
X191852037Y-84106627D01*
X191834641Y-83930000D01*
X191852037Y-83753373D01*
X191903557Y-83583534D01*
X191903557Y-83583533D01*
X191987221Y-83427011D01*
X191987222Y-83427009D01*
X192016552Y-83391271D01*
X192099814Y-83289814D01*
X192201271Y-83206552D01*
X192237009Y-83177222D01*
X192254913Y-83167652D01*
X192393533Y-83093557D01*
X192450147Y-83076384D01*
X192563373Y-83042037D01*
X192629557Y-83035519D01*
X192695740Y-83029000D01*
X192784260Y-83029000D01*
X192850443Y-83035519D01*
X192850443Y-83035519D01*
G37*
G36*
X192850442Y-80495518D02*
X192916627Y-80502037D01*
X193029853Y-80536384D01*
X193086467Y-80553557D01*
X193225087Y-80627652D01*
X193242991Y-80637222D01*
X193278729Y-80666552D01*
X193380186Y-80749814D01*
X193463448Y-80851271D01*
X193492778Y-80887009D01*
X193492779Y-80887011D01*
X193576443Y-81043533D01*
X193576443Y-81043534D01*
X193627963Y-81213373D01*
X193645359Y-81390000D01*
X193627963Y-81566627D01*
X193593616Y-81679853D01*
X193576443Y-81736467D01*
X193502348Y-81875087D01*
X193492778Y-81892991D01*
X193463448Y-81928729D01*
X193380186Y-82030186D01*
X193278729Y-82113448D01*
X193242991Y-82142778D01*
X193242989Y-82142779D01*
X193086467Y-82226443D01*
X193029853Y-82243616D01*
X192916627Y-82277963D01*
X192850442Y-82284482D01*
X192784260Y-82291000D01*
X192695740Y-82291000D01*
X192629558Y-82284482D01*
X192563373Y-82277963D01*
X192450147Y-82243616D01*
X192393533Y-82226443D01*
X192237011Y-82142779D01*
X192237009Y-82142778D01*
X192201271Y-82113448D01*
X192099814Y-82030186D01*
X192016552Y-81928729D01*
X191987222Y-81892991D01*
X191977652Y-81875087D01*
X191903557Y-81736467D01*
X191886384Y-81679853D01*
X191852037Y-81566627D01*
X191834641Y-81390000D01*
X191852037Y-81213373D01*
X191903557Y-81043534D01*
X191903557Y-81043533D01*
X191987221Y-80887011D01*
X191987222Y-80887009D01*
X192016552Y-80851271D01*
X192099814Y-80749814D01*
X192201271Y-80666552D01*
X192237009Y-80637222D01*
X192254913Y-80627652D01*
X192393533Y-80553557D01*
X192450147Y-80536384D01*
X192563373Y-80502037D01*
X192629558Y-80495518D01*
X192695740Y-80489000D01*
X192784260Y-80489000D01*
X192850442Y-80495518D01*
X192850442Y-80495518D01*
G37*
G36*
X38071000Y-80831000D02*
X35969000Y-80831000D01*
X35969000Y-79029000D01*
X38071000Y-79029000D01*
X38071000Y-80831000D01*
X38071000Y-80831000D01*
G37*
G36*
X192850443Y-77955519D02*
X192916627Y-77962037D01*
X193029853Y-77996384D01*
X193086467Y-78013557D01*
X193192409Y-78070185D01*
X193242991Y-78097222D01*
X193278729Y-78126552D01*
X193380186Y-78209814D01*
X193463448Y-78311271D01*
X193492778Y-78347009D01*
X193492779Y-78347011D01*
X193576443Y-78503533D01*
X193576443Y-78503534D01*
X193627963Y-78673373D01*
X193645359Y-78850000D01*
X193627963Y-79026627D01*
X193627243Y-79029000D01*
X193576443Y-79196467D01*
X193502348Y-79335087D01*
X193492778Y-79352991D01*
X193463448Y-79388729D01*
X193380186Y-79490186D01*
X193278729Y-79573448D01*
X193242991Y-79602778D01*
X193242989Y-79602779D01*
X193086467Y-79686443D01*
X193029853Y-79703616D01*
X192916627Y-79737963D01*
X192850443Y-79744481D01*
X192784260Y-79751000D01*
X192695740Y-79751000D01*
X192629557Y-79744481D01*
X192563373Y-79737963D01*
X192450147Y-79703616D01*
X192393533Y-79686443D01*
X192237011Y-79602779D01*
X192237009Y-79602778D01*
X192201271Y-79573448D01*
X192099814Y-79490186D01*
X192016552Y-79388729D01*
X191987222Y-79352991D01*
X191977652Y-79335087D01*
X191903557Y-79196467D01*
X191852757Y-79029000D01*
X191852037Y-79026627D01*
X191834641Y-78850000D01*
X191852037Y-78673373D01*
X191903557Y-78503534D01*
X191903557Y-78503533D01*
X191987221Y-78347011D01*
X191987222Y-78347009D01*
X192016552Y-78311271D01*
X192099814Y-78209814D01*
X192201271Y-78126552D01*
X192237009Y-78097222D01*
X192287591Y-78070185D01*
X192393533Y-78013557D01*
X192450147Y-77996384D01*
X192563373Y-77962037D01*
X192629557Y-77955519D01*
X192695740Y-77949000D01*
X192784260Y-77949000D01*
X192850443Y-77955519D01*
X192850443Y-77955519D01*
G37*
G36*
X37280443Y-76535519D02*
X37346627Y-76542037D01*
X37459853Y-76576384D01*
X37516467Y-76593557D01*
X37655087Y-76667652D01*
X37672991Y-76677222D01*
X37708729Y-76706552D01*
X37810186Y-76789814D01*
X37893448Y-76891271D01*
X37922778Y-76927009D01*
X37922779Y-76927011D01*
X38006443Y-77083533D01*
X38006443Y-77083534D01*
X38057963Y-77253373D01*
X38075359Y-77430000D01*
X38057963Y-77606627D01*
X38023616Y-77719853D01*
X38006443Y-77776467D01*
X37932348Y-77915087D01*
X37922778Y-77932991D01*
X37898940Y-77962037D01*
X37810186Y-78070186D01*
X37708729Y-78153448D01*
X37672991Y-78182778D01*
X37672989Y-78182779D01*
X37516467Y-78266443D01*
X37459853Y-78283616D01*
X37346627Y-78317963D01*
X37280443Y-78324481D01*
X37214260Y-78331000D01*
X36825740Y-78331000D01*
X36759557Y-78324481D01*
X36693373Y-78317963D01*
X36580147Y-78283616D01*
X36523533Y-78266443D01*
X36367011Y-78182779D01*
X36367009Y-78182778D01*
X36331271Y-78153448D01*
X36229814Y-78070186D01*
X36141060Y-77962037D01*
X36117222Y-77932991D01*
X36107652Y-77915087D01*
X36033557Y-77776467D01*
X36016384Y-77719853D01*
X35982037Y-77606627D01*
X35964641Y-77430000D01*
X35982037Y-77253373D01*
X36033557Y-77083534D01*
X36033557Y-77083533D01*
X36117221Y-76927011D01*
X36117222Y-76927009D01*
X36146552Y-76891271D01*
X36229814Y-76789814D01*
X36331271Y-76706552D01*
X36367009Y-76677222D01*
X36384913Y-76667652D01*
X36523533Y-76593557D01*
X36580147Y-76576384D01*
X36693373Y-76542037D01*
X36759557Y-76535519D01*
X36825740Y-76529000D01*
X37214260Y-76529000D01*
X37280443Y-76535519D01*
X37280443Y-76535519D01*
G37*
G36*
X192850442Y-75415518D02*
X192916627Y-75422037D01*
X193029853Y-75456384D01*
X193086467Y-75473557D01*
X193225087Y-75547652D01*
X193242991Y-75557222D01*
X193278729Y-75586552D01*
X193380186Y-75669814D01*
X193463448Y-75771271D01*
X193492778Y-75807009D01*
X193492779Y-75807011D01*
X193576443Y-75963533D01*
X193576443Y-75963534D01*
X193627963Y-76133373D01*
X193645359Y-76310000D01*
X193627963Y-76486627D01*
X193595526Y-76593557D01*
X193576443Y-76656467D01*
X193565349Y-76677222D01*
X193492778Y-76812991D01*
X193463448Y-76848729D01*
X193380186Y-76950186D01*
X193278729Y-77033448D01*
X193242991Y-77062778D01*
X193242989Y-77062779D01*
X193086467Y-77146443D01*
X193029853Y-77163616D01*
X192916627Y-77197963D01*
X192850443Y-77204481D01*
X192784260Y-77211000D01*
X192695740Y-77211000D01*
X192629557Y-77204481D01*
X192563373Y-77197963D01*
X192450147Y-77163616D01*
X192393533Y-77146443D01*
X192237011Y-77062779D01*
X192237009Y-77062778D01*
X192201271Y-77033448D01*
X192099814Y-76950186D01*
X192016552Y-76848729D01*
X191987222Y-76812991D01*
X191914651Y-76677222D01*
X191903557Y-76656467D01*
X191884474Y-76593557D01*
X191852037Y-76486627D01*
X191834641Y-76310000D01*
X191852037Y-76133373D01*
X191903557Y-75963534D01*
X191903557Y-75963533D01*
X191987221Y-75807011D01*
X191987222Y-75807009D01*
X192016552Y-75771271D01*
X192099814Y-75669814D01*
X192201271Y-75586552D01*
X192237009Y-75557222D01*
X192254913Y-75547652D01*
X192393533Y-75473557D01*
X192450147Y-75456384D01*
X192563373Y-75422037D01*
X192629558Y-75415518D01*
X192695740Y-75409000D01*
X192784260Y-75409000D01*
X192850442Y-75415518D01*
X192850442Y-75415518D01*
G37*
G36*
X176148097Y-45357825D02*
X176393337Y-45432218D01*
X176393339Y-45432219D01*
X176619353Y-45553026D01*
X176817454Y-45715603D01*
X176950879Y-45878182D01*
X176980033Y-45913706D01*
X177085239Y-46110533D01*
X177098703Y-46135721D01*
X177100840Y-46139720D01*
X177175233Y-46384960D01*
X177194058Y-46576095D01*
X177194058Y-48703905D01*
X177175233Y-48895040D01*
X177100840Y-49140280D01*
X177100839Y-49140282D01*
X176980032Y-49366296D01*
X176817455Y-49564397D01*
X176619354Y-49726974D01*
X176393340Y-49847781D01*
X176393338Y-49847782D01*
X176148098Y-49922175D01*
X175893058Y-49947294D01*
X175638019Y-49922175D01*
X175392779Y-49847782D01*
X175392777Y-49847781D01*
X175166763Y-49726974D01*
X174968662Y-49564397D01*
X174806085Y-49366296D01*
X174685278Y-49140282D01*
X174685277Y-49140280D01*
X174610884Y-48895040D01*
X174592059Y-48703905D01*
X174592058Y-46576096D01*
X174610883Y-46384961D01*
X174685276Y-46139721D01*
X174806083Y-45913707D01*
X174806084Y-45913705D01*
X174968661Y-45715604D01*
X175166763Y-45553026D01*
X175166762Y-45553026D01*
X175166764Y-45553025D01*
X175392778Y-45432218D01*
X175638018Y-45357825D01*
X175893058Y-45332706D01*
X176148097Y-45357825D01*
X176148097Y-45357825D01*
G37*
G36*
X181598097Y-45357825D02*
X181843337Y-45432218D01*
X181843339Y-45432219D01*
X182069353Y-45553026D01*
X182267454Y-45715603D01*
X182400879Y-45878182D01*
X182430033Y-45913706D01*
X182535239Y-46110533D01*
X182548703Y-46135721D01*
X182550840Y-46139720D01*
X182625233Y-46384960D01*
X182644058Y-46576095D01*
X182644058Y-48703905D01*
X182625233Y-48895040D01*
X182550840Y-49140280D01*
X182550839Y-49140282D01*
X182430032Y-49366296D01*
X182267455Y-49564397D01*
X182069354Y-49726974D01*
X181843340Y-49847781D01*
X181843338Y-49847782D01*
X181598098Y-49922175D01*
X181343058Y-49947294D01*
X181088019Y-49922175D01*
X180842779Y-49847782D01*
X180842777Y-49847781D01*
X180616763Y-49726974D01*
X180418662Y-49564397D01*
X180256085Y-49366296D01*
X180135278Y-49140282D01*
X180135277Y-49140280D01*
X180060884Y-48895040D01*
X180042059Y-48703905D01*
X180042058Y-46576096D01*
X180060883Y-46384961D01*
X180135276Y-46139721D01*
X180256083Y-45913707D01*
X180256084Y-45913705D01*
X180418661Y-45715604D01*
X180616763Y-45553026D01*
X180616762Y-45553026D01*
X180616764Y-45553025D01*
X180842778Y-45432218D01*
X181088018Y-45357825D01*
X181343058Y-45332706D01*
X181598097Y-45357825D01*
X181598097Y-45357825D01*
G37*
G36*
X61598181Y-45353825D02*
X61843421Y-45428218D01*
X61843423Y-45428219D01*
X62069437Y-45549026D01*
X62267538Y-45711603D01*
X62400963Y-45874182D01*
X62430117Y-45909706D01*
X62550924Y-46135720D01*
X62625317Y-46380960D01*
X62644142Y-46572095D01*
X62644142Y-48699905D01*
X62625317Y-48891040D01*
X62550924Y-49136280D01*
X62550923Y-49136282D01*
X62430116Y-49362296D01*
X62267539Y-49560397D01*
X62069438Y-49722974D01*
X62061953Y-49726975D01*
X61843422Y-49843782D01*
X61598182Y-49918175D01*
X61343142Y-49943294D01*
X61088103Y-49918175D01*
X60842863Y-49843782D01*
X60624332Y-49726975D01*
X60616847Y-49722974D01*
X60418746Y-49560397D01*
X60256169Y-49362296D01*
X60135362Y-49136282D01*
X60135361Y-49136280D01*
X60060968Y-48891040D01*
X60042143Y-48699905D01*
X60042142Y-46572096D01*
X60060967Y-46380961D01*
X60135360Y-46135721D01*
X60256167Y-45909707D01*
X60256168Y-45909705D01*
X60418745Y-45711604D01*
X60616847Y-45549026D01*
X60616846Y-45549026D01*
X60616848Y-45549025D01*
X60835377Y-45432219D01*
X60842860Y-45428219D01*
X60842862Y-45428218D01*
X61088102Y-45353825D01*
X61343142Y-45328706D01*
X61598181Y-45353825D01*
X61598181Y-45353825D01*
G37*
G36*
X121598139Y-45353825D02*
X121843379Y-45428218D01*
X121843381Y-45428219D01*
X122069395Y-45549026D01*
X122267496Y-45711603D01*
X122400921Y-45874182D01*
X122430075Y-45909706D01*
X122550882Y-46135720D01*
X122625275Y-46380960D01*
X122644100Y-46572095D01*
X122644100Y-48699905D01*
X122625275Y-48891040D01*
X122550882Y-49136280D01*
X122550881Y-49136282D01*
X122430074Y-49362296D01*
X122267497Y-49560397D01*
X122069396Y-49722974D01*
X122061911Y-49726975D01*
X121843380Y-49843782D01*
X121598140Y-49918175D01*
X121343100Y-49943294D01*
X121088061Y-49918175D01*
X120842821Y-49843782D01*
X120624290Y-49726975D01*
X120616805Y-49722974D01*
X120418704Y-49560397D01*
X120256127Y-49362296D01*
X120135320Y-49136282D01*
X120135319Y-49136280D01*
X120060926Y-48891040D01*
X120042101Y-48699905D01*
X120042100Y-46572096D01*
X120060925Y-46380961D01*
X120135318Y-46135721D01*
X120256125Y-45909707D01*
X120256126Y-45909705D01*
X120418703Y-45711604D01*
X120616805Y-45549026D01*
X120616804Y-45549026D01*
X120616806Y-45549025D01*
X120835335Y-45432219D01*
X120842818Y-45428219D01*
X120842820Y-45428218D01*
X121088060Y-45353825D01*
X121343100Y-45328706D01*
X121598139Y-45353825D01*
X121598139Y-45353825D01*
G37*
G36*
X116148139Y-45353825D02*
X116393379Y-45428218D01*
X116393381Y-45428219D01*
X116619395Y-45549026D01*
X116817496Y-45711603D01*
X116950921Y-45874182D01*
X116980075Y-45909706D01*
X117100882Y-46135720D01*
X117175275Y-46380960D01*
X117194100Y-46572095D01*
X117194100Y-48699905D01*
X117175275Y-48891040D01*
X117100882Y-49136280D01*
X117100881Y-49136282D01*
X116980074Y-49362296D01*
X116817497Y-49560397D01*
X116619396Y-49722974D01*
X116611911Y-49726975D01*
X116393380Y-49843782D01*
X116148140Y-49918175D01*
X115893100Y-49943294D01*
X115638061Y-49918175D01*
X115392821Y-49843782D01*
X115174290Y-49726975D01*
X115166805Y-49722974D01*
X114968704Y-49560397D01*
X114806127Y-49362296D01*
X114685320Y-49136282D01*
X114685319Y-49136280D01*
X114610926Y-48891040D01*
X114592101Y-48699905D01*
X114592100Y-46572096D01*
X114610925Y-46380961D01*
X114685318Y-46135721D01*
X114806125Y-45909707D01*
X114806126Y-45909705D01*
X114968703Y-45711604D01*
X115166805Y-45549026D01*
X115166804Y-45549026D01*
X115166806Y-45549025D01*
X115385335Y-45432219D01*
X115392818Y-45428219D01*
X115392820Y-45428218D01*
X115638060Y-45353825D01*
X115893100Y-45328706D01*
X116148139Y-45353825D01*
X116148139Y-45353825D01*
G37*
G36*
X56148181Y-45353825D02*
X56393421Y-45428218D01*
X56393423Y-45428219D01*
X56619437Y-45549026D01*
X56817538Y-45711603D01*
X56950963Y-45874182D01*
X56980117Y-45909706D01*
X57100924Y-46135720D01*
X57175317Y-46380960D01*
X57194142Y-46572095D01*
X57194142Y-48699905D01*
X57175317Y-48891040D01*
X57100924Y-49136280D01*
X57100923Y-49136282D01*
X56980116Y-49362296D01*
X56817539Y-49560397D01*
X56619438Y-49722974D01*
X56611953Y-49726975D01*
X56393422Y-49843782D01*
X56148182Y-49918175D01*
X55893142Y-49943294D01*
X55638103Y-49918175D01*
X55392863Y-49843782D01*
X55174332Y-49726975D01*
X55166847Y-49722974D01*
X54968746Y-49560397D01*
X54806169Y-49362296D01*
X54685362Y-49136282D01*
X54685361Y-49136280D01*
X54610968Y-48891040D01*
X54592143Y-48699905D01*
X54592142Y-46572096D01*
X54610967Y-46380961D01*
X54685360Y-46135721D01*
X54806167Y-45909707D01*
X54806168Y-45909705D01*
X54968745Y-45711604D01*
X55166847Y-45549026D01*
X55166846Y-45549026D01*
X55166848Y-45549025D01*
X55385377Y-45432219D01*
X55392860Y-45428219D01*
X55392862Y-45428218D01*
X55638102Y-45353825D01*
X55893142Y-45328706D01*
X56148181Y-45353825D01*
X56148181Y-45353825D01*
G37*
G36*
X241598055Y-45353825D02*
X241843295Y-45428218D01*
X241843297Y-45428219D01*
X242069311Y-45549026D01*
X242267412Y-45711603D01*
X242400837Y-45874182D01*
X242429991Y-45909706D01*
X242550798Y-46135720D01*
X242625191Y-46380960D01*
X242644016Y-46572095D01*
X242644016Y-48699905D01*
X242625191Y-48891040D01*
X242550798Y-49136280D01*
X242550797Y-49136282D01*
X242429990Y-49362296D01*
X242267413Y-49560397D01*
X242069312Y-49722974D01*
X242061827Y-49726975D01*
X241843296Y-49843782D01*
X241598056Y-49918175D01*
X241343016Y-49943294D01*
X241087977Y-49918175D01*
X240842737Y-49843782D01*
X240624206Y-49726975D01*
X240616721Y-49722974D01*
X240418620Y-49560397D01*
X240256043Y-49362296D01*
X240135236Y-49136282D01*
X240135235Y-49136280D01*
X240060842Y-48891040D01*
X240042017Y-48699905D01*
X240042016Y-46572096D01*
X240060841Y-46380961D01*
X240135234Y-46135721D01*
X240256041Y-45909707D01*
X240256042Y-45909705D01*
X240418619Y-45711604D01*
X240616721Y-45549026D01*
X240616720Y-45549026D01*
X240616722Y-45549025D01*
X240835251Y-45432219D01*
X240842734Y-45428219D01*
X240842736Y-45428218D01*
X241087976Y-45353825D01*
X241343016Y-45328706D01*
X241598055Y-45353825D01*
X241598055Y-45353825D01*
G37*
G36*
X236148055Y-45353825D02*
X236393295Y-45428218D01*
X236393297Y-45428219D01*
X236619311Y-45549026D01*
X236817412Y-45711603D01*
X236950837Y-45874182D01*
X236979991Y-45909706D01*
X237100798Y-46135720D01*
X237175191Y-46380960D01*
X237194016Y-46572095D01*
X237194016Y-48699905D01*
X237175191Y-48891040D01*
X237100798Y-49136280D01*
X237100797Y-49136282D01*
X236979990Y-49362296D01*
X236817413Y-49560397D01*
X236619312Y-49722974D01*
X236611827Y-49726975D01*
X236393296Y-49843782D01*
X236148056Y-49918175D01*
X235893016Y-49943294D01*
X235637977Y-49918175D01*
X235392737Y-49843782D01*
X235174206Y-49726975D01*
X235166721Y-49722974D01*
X234968620Y-49560397D01*
X234806043Y-49362296D01*
X234685236Y-49136282D01*
X234685235Y-49136280D01*
X234610842Y-48891040D01*
X234592017Y-48699905D01*
X234592016Y-46572096D01*
X234610841Y-46380961D01*
X234685234Y-46135721D01*
X234806041Y-45909707D01*
X234806042Y-45909705D01*
X234968619Y-45711604D01*
X235166721Y-45549026D01*
X235166720Y-45549026D01*
X235166722Y-45549025D01*
X235385251Y-45432219D01*
X235392734Y-45428219D01*
X235392736Y-45428218D01*
X235637976Y-45353825D01*
X235893016Y-45328706D01*
X236148055Y-45353825D01*
X236148055Y-45353825D01*
G37*
G36*
X171744058Y-49941000D02*
X169142058Y-49941000D01*
X169142058Y-45339000D01*
X171744058Y-45339000D01*
X171744058Y-49941000D01*
X171744058Y-49941000D01*
G37*
G36*
X231744016Y-49937000D02*
X229142016Y-49937000D01*
X229142016Y-45335000D01*
X231744016Y-45335000D01*
X231744016Y-49937000D01*
X231744016Y-49937000D01*
G37*
G36*
X111744100Y-49937000D02*
X109142100Y-49937000D01*
X109142100Y-45335000D01*
X111744100Y-45335000D01*
X111744100Y-49937000D01*
X111744100Y-49937000D01*
G37*
G36*
X51744142Y-49937000D02*
X49142142Y-49937000D01*
X49142142Y-45335000D01*
X51744142Y-45335000D01*
X51744142Y-49937000D01*
X51744142Y-49937000D01*
G37*
M02*
