<?xml version="1.0" standalone="no"?>
 <!DOCTYPE svg PUBLIC "-//W3C//DTD SVG 1.1//EN" 
 "http://www.w3.org/Graphics/SVG/1.1/DTD/svg11.dtd"> 
<svg xmlns="http://www.w3.org/2000/svg" version="1.1" 
    width="29.7002cm" height="21.0007cm" viewBox="0 0 116930 82680 ">
<title>SVG Picture created as dc_load_hmi-F_Cu.svg date 2019/04/19 16:54:02 </title>
  <desc>Picture generated by PCBNEW </desc>
<g style="fill:#000000; fill-opacity:1;stroke:#000000; stroke-opacity:1;
stroke-linecap:round; stroke-linejoin:round; "
 transform="translate(0 0) scale(1 1)">
</g>
<g style="fill:#000000; fill-opacity:0.0; 
stroke:#000000; stroke-width:-0.000393701; stroke-opacity:1; 
stroke-linecap:round; stroke-linejoin:round;">
</g>
<g style="fill:#000000; fill-opacity:1.0; 
stroke:#000000; stroke-width:39.3701; stroke-opacity:1; 
stroke-linecap:round; stroke-linejoin:round;">
<rect x="21559.5" y="14938" width="44566" height="46917.3" rx="0" />
</g>
<g style="fill:#FFFFFF; fill-opacity:1.0; 
stroke:#FFFFFF; stroke-width:39.3701; stroke-opacity:1; 
stroke-linecap:round; stroke-linejoin:round;">
</g>
<g style="fill:#FFFFFF; fill-opacity:1.0; 
stroke:#FFFFFF; stroke-width:19.685; stroke-opacity:1; 
stroke-linecap:round; stroke-linejoin:round;">
</g>
<g style="fill:#FFFFFF; fill-opacity:0.0; 
stroke:#FFFFFF; stroke-width:19.685; stroke-opacity:1; 
stroke-linecap:round; stroke-linejoin:round;">
<path d="M63129 17606
L63129 57921
" />
<path d="M24562 57921
L63129 57921
" />
<path d="M24562 17606
L24562 57921
" />
<path d="M24562 17606
L63129 17606
" />
<g >
</g>
<g style="fill:#FFFFFF; fill-opacity:0.0; 
stroke:#FFFFFF; stroke-width:591; stroke-opacity:1; 
stroke-linecap:round; stroke-linejoin:round;">
<path d="M28488 18090
L28488 19074
" />
<path d="M29488 18090
L29488 19074
" />
<path d="M30488 18090
L30488 19074
" />
<path d="M31488 18090
L31488 19074
" />
<path d="M32488 18090
L32488 19074
" />
<path d="M33488 18090
L33488 19074
" />
<path d="M34488 18090
L34488 19074
" />
<path d="M35488 18090
L35488 19074
" />
<path d="M36488 18090
L36488 19074
" />
<path d="M37488 18090
L37488 19074
" />
<path d="M38488 18090
L38488 19074
" />
<path d="M39488 18090
L39488 19074
" />
<path d="M40488 18090
L40488 19074
" />
<path d="M41488 18090
L41488 19074
" />
<path d="M42488 18090
L42488 19074
" />
<path d="M43488 18090
L43488 19074
" />
</g>
<g >
</g>
<g style="fill:#FFFFFF; fill-opacity:1.0; 
stroke:#FFFFFF; stroke-width:0; stroke-opacity:1; 
stroke-linecap:round; stroke-linejoin:round;">
<circle cx="29059.1" cy="55647.6" r="283.465" /> 
</g>
<g style="fill:#FFFFFF; fill-opacity:1.0; 
stroke:#FFFFFF; stroke-width:39.3701; stroke-opacity:1; 
stroke-linecap:round; stroke-linejoin:round;">
</g>
<g style="fill:#FFFFFF; fill-opacity:1.0; 
stroke:#FFFFFF; stroke-width:0; stroke-opacity:1; 
stroke-linecap:round; stroke-linejoin:round;">
<circle cx="30059.1" cy="55647.6" r="283.465" /> 
</g>
<g style="fill:#FFFFFF; fill-opacity:1.0; 
stroke:#FFFFFF; stroke-width:39.3701; stroke-opacity:1; 
stroke-linecap:round; stroke-linejoin:round;">
</g>
<g style="fill:#FFFFFF; fill-opacity:1.0; 
stroke:#FFFFFF; stroke-width:0; stroke-opacity:1; 
stroke-linecap:round; stroke-linejoin:round;">
<circle cx="31059.1" cy="55647.6" r="283.465" /> 
</g>
<g style="fill:#FFFFFF; fill-opacity:1.0; 
stroke:#FFFFFF; stroke-width:39.3701; stroke-opacity:1; 
stroke-linecap:round; stroke-linejoin:round;">
</g>
<g >
</g>
<g style="fill:#FFFFFF; fill-opacity:1.0; 
stroke:#FFFFFF; stroke-width:0; stroke-opacity:1; 
stroke-linecap:round; stroke-linejoin:round;">
<circle cx="42858.3" cy="51468.5" r="393.701" /> 
</g>
<g style="fill:#FFFFFF; fill-opacity:1.0; 
stroke:#FFFFFF; stroke-width:39.3701; stroke-opacity:1; 
stroke-linecap:round; stroke-linejoin:round;">
</g>
<g style="fill:#FFFFFF; fill-opacity:1.0; 
stroke:#FFFFFF; stroke-width:0; stroke-opacity:1; 
stroke-linecap:round; stroke-linejoin:round;">
<circle cx="44826.8" cy="51468.5" r="393.701" /> 
</g>
<g style="fill:#FFFFFF; fill-opacity:1.0; 
stroke:#FFFFFF; stroke-width:39.3701; stroke-opacity:1; 
stroke-linecap:round; stroke-linejoin:round;">
</g>
<g style="fill:#FFFFFF; fill-opacity:1.0; 
stroke:#FFFFFF; stroke-width:0; stroke-opacity:1; 
stroke-linecap:round; stroke-linejoin:round;">
<path style="fill:#FFFFFF; fill-opacity:1.0; 
stroke:#FFFFFF; stroke-width:0; stroke-opacity:1; 
stroke-linecap:round; stroke-linejoin:round;fill-rule:evenodd;"
d="M 41244,48082
42031,48082
42031,49342
41244,49342
41244,48082
Z" /> 
<path style="fill:#FFFFFF; fill-opacity:1.0; 
stroke:#FFFFFF; stroke-width:0; stroke-opacity:1; 
stroke-linecap:round; stroke-linejoin:round;fill-rule:evenodd;"
d="M 45653,48082
46440,48082
46440,49342
45653,49342
45653,48082
Z" /> 
<circle cx="42858.3" cy="45759.8" r="393.701" /> 
</g>
<g style="fill:#FFFFFF; fill-opacity:1.0; 
stroke:#FFFFFF; stroke-width:39.3701; stroke-opacity:1; 
stroke-linecap:round; stroke-linejoin:round;">
</g>
<g style="fill:#FFFFFF; fill-opacity:1.0; 
stroke:#FFFFFF; stroke-width:0; stroke-opacity:1; 
stroke-linecap:round; stroke-linejoin:round;">
<circle cx="43842.5" cy="45759.8" r="393.701" /> 
</g>
<g style="fill:#FFFFFF; fill-opacity:1.0; 
stroke:#FFFFFF; stroke-width:39.3701; stroke-opacity:1; 
stroke-linecap:round; stroke-linejoin:round;">
</g>
<g style="fill:#FFFFFF; fill-opacity:1.0; 
stroke:#FFFFFF; stroke-width:0; stroke-opacity:1; 
stroke-linecap:round; stroke-linejoin:round;">
<path style="fill:#FFFFFF; fill-opacity:1.0; 
stroke:#FFFFFF; stroke-width:0; stroke-opacity:1; 
stroke-linecap:round; stroke-linejoin:round;fill-rule:evenodd;"
d="M 44433,45366
45220,45366
45220,46153
44433,46153
44433,45366
Z" /> 
</g>
<g >
<circle cx="56342.5" cy="49500" r="393.701" /> 
</g>
<g style="fill:#FFFFFF; fill-opacity:1.0; 
stroke:#FFFFFF; stroke-width:39.3701; stroke-opacity:1; 
stroke-linecap:round; stroke-linejoin:round;">
</g>
<g style="fill:#FFFFFF; fill-opacity:1.0; 
stroke:#FFFFFF; stroke-width:0; stroke-opacity:1; 
stroke-linecap:round; stroke-linejoin:round;">
<circle cx="56342.5" cy="47728.3" r="393.701" /> 
</g>
<g style="fill:#FFFFFF; fill-opacity:1.0; 
stroke:#FFFFFF; stroke-width:39.3701; stroke-opacity:1; 
stroke-linecap:round; stroke-linejoin:round;">
</g>
<g style="fill:#FFFFFF; fill-opacity:1.0; 
stroke:#FFFFFF; stroke-width:0; stroke-opacity:1; 
stroke-linecap:round; stroke-linejoin:round;">
<circle cx="58901.6" cy="49500" r="393.701" /> 
</g>
<g style="fill:#FFFFFF; fill-opacity:1.0; 
stroke:#FFFFFF; stroke-width:39.3701; stroke-opacity:1; 
stroke-linecap:round; stroke-linejoin:round;">
</g>
<g style="fill:#FFFFFF; fill-opacity:1.0; 
stroke:#FFFFFF; stroke-width:0; stroke-opacity:1; 
stroke-linecap:round; stroke-linejoin:round;">
<circle cx="58901.6" cy="47728.3" r="393.701" /> 
</g>
<g style="fill:#FFFFFF; fill-opacity:1.0; 
stroke:#FFFFFF; stroke-width:39.3701; stroke-opacity:1; 
stroke-linecap:round; stroke-linejoin:round;">
</g>
<g >
</g>
<g style="fill:#FFFFFF; fill-opacity:1.0; 
stroke:#FFFFFF; stroke-width:0; stroke-opacity:1; 
stroke-linecap:round; stroke-linejoin:round;">
<circle cx="31342.5" cy="47728.3" r="393.701" /> 
</g>
<g style="fill:#FFFFFF; fill-opacity:1.0; 
stroke:#FFFFFF; stroke-width:39.3701; stroke-opacity:1; 
stroke-linecap:round; stroke-linejoin:round;">
</g>
<g style="fill:#FFFFFF; fill-opacity:1.0; 
stroke:#FFFFFF; stroke-width:0; stroke-opacity:1; 
stroke-linecap:round; stroke-linejoin:round;">
<circle cx="31342.5" cy="49500" r="393.701" /> 
</g>
<g style="fill:#FFFFFF; fill-opacity:1.0; 
stroke:#FFFFFF; stroke-width:39.3701; stroke-opacity:1; 
stroke-linecap:round; stroke-linejoin:round;">
</g>
<g style="fill:#FFFFFF; fill-opacity:1.0; 
stroke:#FFFFFF; stroke-width:0; stroke-opacity:1; 
stroke-linecap:round; stroke-linejoin:round;">
<circle cx="28783.5" cy="47728.3" r="393.701" /> 
</g>
<g style="fill:#FFFFFF; fill-opacity:1.0; 
stroke:#FFFFFF; stroke-width:39.3701; stroke-opacity:1; 
stroke-linecap:round; stroke-linejoin:round;">
</g>
<g style="fill:#FFFFFF; fill-opacity:1.0; 
stroke:#FFFFFF; stroke-width:0; stroke-opacity:1; 
stroke-linecap:round; stroke-linejoin:round;">
<circle cx="28783.5" cy="49500" r="393.701" /> 
</g>
<g style="fill:#FFFFFF; fill-opacity:1.0; 
stroke:#FFFFFF; stroke-width:39.3701; stroke-opacity:1; 
stroke-linecap:round; stroke-linejoin:round;">
</g>
<g >
</g>
<g style="fill:#FFFFFF; fill-opacity:1.0; 
stroke:#FFFFFF; stroke-width:0; stroke-opacity:1; 
stroke-linecap:round; stroke-linejoin:round;">
<circle cx="62149.6" cy="18582.7" r="984.252" /> 
</g>
<g style="fill:#FFFFFF; fill-opacity:1.0; 
stroke:#FFFFFF; stroke-width:39.3701; stroke-opacity:1; 
stroke-linecap:round; stroke-linejoin:round;">
</g>
<g >
</g>
<g style="fill:#FFFFFF; fill-opacity:1.0; 
stroke:#FFFFFF; stroke-width:0; stroke-opacity:1; 
stroke-linecap:round; stroke-linejoin:round;">
<circle cx="25535.4" cy="56842.5" r="984.252" /> 
</g>
<g style="fill:#FFFFFF; fill-opacity:1.0; 
stroke:#FFFFFF; stroke-width:39.3701; stroke-opacity:1; 
stroke-linecap:round; stroke-linejoin:round;">
</g>
<g >
</g>
<g style="fill:#FFFFFF; fill-opacity:1.0; 
stroke:#FFFFFF; stroke-width:0; stroke-opacity:1; 
stroke-linecap:round; stroke-linejoin:round;">
<circle cx="25535.4" cy="18582.7" r="984.252" /> 
</g>
<g style="fill:#FFFFFF; fill-opacity:1.0; 
stroke:#FFFFFF; stroke-width:39.3701; stroke-opacity:1; 
stroke-linecap:round; stroke-linejoin:round;">
</g>
<g >
</g>
<g style="fill:#FFFFFF; fill-opacity:1.0; 
stroke:#FFFFFF; stroke-width:0; stroke-opacity:1; 
stroke-linecap:round; stroke-linejoin:round;">
<circle cx="62149.6" cy="56842.5" r="984.252" /> 
</g>
<g style="fill:#FFFFFF; fill-opacity:1.0; 
stroke:#FFFFFF; stroke-width:39.3701; stroke-opacity:1; 
stroke-linecap:round; stroke-linejoin:round;">
</g>
<g >
</g>
<g style="fill:#FFFFFF; fill-opacity:1.0; 
stroke:#FFFFFF; stroke-width:0; stroke-opacity:1; 
stroke-linecap:round; stroke-linejoin:round;">
<circle cx="25535.4" cy="40236.2" r="984.252" /> 
</g>
<g style="fill:#FFFFFF; fill-opacity:1.0; 
stroke:#FFFFFF; stroke-width:39.3701; stroke-opacity:1; 
stroke-linecap:round; stroke-linejoin:round;">
</g>
<g >
</g>
<g style="fill:#FFFFFF; fill-opacity:1.0; 
stroke:#FFFFFF; stroke-width:0; stroke-opacity:1; 
stroke-linecap:round; stroke-linejoin:round;">
<circle cx="62149.6" cy="40236.2" r="984.252" /> 
</g>
<g style="fill:#FFFFFF; fill-opacity:1.0; 
stroke:#FFFFFF; stroke-width:39.3701; stroke-opacity:1; 
stroke-linecap:round; stroke-linejoin:round;">
</g>
<g >
</g>
<g style="fill:#FFFFFF; fill-opacity:1.0; 
stroke:#FFFFFF; stroke-width:0; stroke-opacity:1; 
stroke-linecap:round; stroke-linejoin:round;">
<path style="fill:#FFFFFF; fill-opacity:1.0; 
stroke:#FFFFFF; stroke-width:0; stroke-opacity:1; 
stroke-linecap:round; stroke-linejoin:round;fill-rule:evenodd;"
d="M 37690,55057
37700,55058
37709,55061
37718,55064
37727,55068
37735,55073
37743,55079
37750,55085
37757,55093
37762,55100
37767,55109
37772,55117
37775,55126
37777,55136
37779,55145
37779,55155
37779,55726
37779,55736
37777,55745
37775,55754
37772,55764
37767,55772
37762,55781
37757,55788
37750,55795
37743,55802
37735,55808
37727,55813
37718,55817
37709,55820
37700,55822
37690,55824
37681,55824
37208,55824
37199,55824
37189,55822
37180,55820
37170,55817
37162,55813
37153,55808
37146,55802
37139,55795
37132,55788
37126,55781
37121,55772
37117,55764
37114,55754
37112,55745
37110,55736
37110,55726
37110,55155
37110,55145
37112,55136
37114,55126
37117,55117
37121,55109
37126,55100
37132,55093
37139,55085
37146,55079
37153,55073
37162,55068
37170,55064
37180,55061
37189,55058
37199,55057
37208,55057
37681,55057
37690,55057
Z" /> 
</g>
<g style="fill:#FFFFFF; fill-opacity:1.0; 
stroke:#FFFFFF; stroke-width:669.291; stroke-opacity:1; 
stroke-linecap:round; stroke-linejoin:round;">
</g>
<g style="fill:#FFFFFF; fill-opacity:0.0; 
stroke:#FFFFFF; stroke-width:669.291; stroke-opacity:1; 
stroke-linecap:round; stroke-linejoin:round;">
<path d="M38429 55391
L38429 55490
" />
<path d="M39413 55391
L39413 55490
" />
<path d="M40397 55391
L40397 55490
" />
<path d="M41381 55391
L41381 55490
" />
<path d="M42366 55391
L42366 55490
" />
<path d="M43350 55391
L43350 55490
" />
<path d="M44334 55391
L44334 55490
" />
<path d="M45318 55391
L45318 55490
" />
<path d="M46303 55391
L46303 55490
" />
<path d="M47287 55391
L47287 55490
" />
<path d="M48271 55391
L48271 55490
" />
<path d="M49255 55391
L49255 55490
" />
<path d="M50240 55391
L50240 55490
" />
</g>
<g >
</g>
<g >
</g>
<g style="fill:#FFFFFF; fill-opacity:0.0; 
stroke:#FFFFFF; stroke-width:196.85; stroke-opacity:1; 
stroke-linecap:round; stroke-linejoin:round;">
<path d="M39413 55440
L39413 53385
" />
<path d="M43842 48956
L43842 45759
" />
<path d="M39413 53385
L43842 48956
" />
<path d="M46303 55440
L46303 55391
" />
<path d="M48271 55440
L48271 54472
" />
<path d="M48271 54472
L46381 52582
" />
<path d="M43972 52582
L42858 51468
" />
<path d="M46381 52582
L43972 52582
" />
<path d="M49255 55440
L49255 52625
" />
<path d="M54153 47728
L56342 47728
" />
<path d="M49255 52625
L54153 47728
" />
<path d="M56342 47728
L58901 47728
" />
<path d="M32681 49066
L31342 47728
" />
<path d="M32681 52362
L32681 49066
" />
<path d="M37015 56696
L32681 52362
" />
<path d="M49033 56696
L37015 56696
" />
<path d="M50240 55440
L50240 55490
" />
<path d="M50240 55490
L49033 56696
" />
<path d="M28783 47728
L31342 47728
" />
</g>
<g >
</g>
<g style="fill:#FFFFFF; fill-opacity:1.0; 
stroke:#FFFFFF; stroke-width:100; stroke-opacity:1; 
stroke-linecap:round; stroke-linejoin:round;">
<path style="fill:#FFFFFF; fill-opacity:1.0; 
stroke:#FFFFFF; stroke-width:100; stroke-opacity:1; 
stroke-linecap:round; stroke-linejoin:round;fill-rule:evenodd;"
d="M 27963,17934
27943,18040
27943,18532
28438,18532
28438,18524
28538,18524
28538,18532
28546,18532
28546,18632
28538,18632
28538,19554
28622,19603
28651,19597
28750,19555
28838,19495
28914,19419
28973,19329
28987,19294
29032,19378
29100,19462
29183,19530
29278,19580
29381,19612
29488,19622
29595,19612
29698,19580
29793,19530
29876,19462
29944,19378
29988,19296
30032,19378
30100,19462
30183,19530
30278,19580
30381,19612
30488,19622
30595,19612
30698,19580
30793,19530
30876,19462
30944,19378
30988,19296
31032,19378
31100,19462
31183,19530
31278,19580
31381,19612
31488,19622
31595,19612
31698,19580
31793,19530
31876,19462
31944,19378
31989,19294
32003,19329
32062,19419
32138,19495
32227,19555
32325,19597
32354,19603
32438,19554
32438,18632
32430,18632
32430,18532
32438,18532
32438,18524
32538,18524
32538,18532
32546,18532
32546,18632
32538,18632
32538,19554
32622,19603
32651,19597
32750,19555
32838,19495
32914,19419
32973,19329
32987,19294
33032,19378
33100,19462
33183,19530
33278,19580
33381,19612
33488,19622
33595,19612
33698,19580
33793,19530
33876,19462
33944,19378
33988,19296
34032,19378
34100,19462
34183,19530
34278,19580
34381,19612
34488,19622
34595,19612
34698,19580
34793,19530
34876,19462
34944,19378
34988,19296
35032,19378
35100,19462
35183,19530
35278,19580
35381,19612
35488,19622
35595,19612
35698,19580
35793,19530
35876,19462
35944,19378
35988,19296
36032,19378
36100,19462
36183,19530
36278,19580
36381,19612
36488,19622
36595,19612
36698,19580
36793,19530
36876,19462
36944,19378
36988,19296
37032,19378
37100,19462
37183,19530
37278,19580
37381,19612
37488,19622
37595,19612
37698,19580
37793,19530
37876,19462
37944,19378
37988,19296
38032,19378
38100,19462
38183,19530
38278,19580
38381,19612
38488,19622
38595,19612
38698,19580
38793,19530
38876,19462
38944,19378
38988,19296
39032,19378
39100,19462
39183,19530
39278,19580
39381,19612
39488,19622
39595,19612
39698,19580
39793,19530
39876,19462
39944,19378
39988,19296
40032,19378
40100,19462
40183,19530
40278,19580
40381,19612
40488,19622
40595,19612
40698,19580
40793,19530
40876,19462
40944,19378
40988,19296
41032,19378
41100,19462
41183,19530
41278,19580
41381,19612
41488,19622
41595,19612
41698,19580
41793,19530
41876,19462
41944,19378
41988,19296
42032,19378
42100,19462
42183,19530
42278,19580
42381,19612
42488,19622
42595,19612
42698,19580
42793,19530
42876,19462
42944,19378
42989,19294
43003,19329
43062,19419
43138,19495
43227,19555
43325,19597
43354,19603
43438,19554
43438,18632
43538,18632
43538,19554
43622,19603
43651,19597
43750,19555
43838,19495
43914,19419
43973,19329
44013,19229
44034,19124
44034,18632
43538,18632
43438,18632
43430,18632
43430,18532
43438,18532
43438,18524
43538,18524
43538,18532
44034,18532
44034,18040
44013,17934
43985,17866
61143,17866
61055,17998
60962,18222
60915,18461
60915,18704
60962,18942
61055,19167
61190,19369
61362,19541
61564,19676
61789,19769
62028,19816
62271,19816
62509,19769
62734,19676
62870,19585
62870,39233
62734,39142
62509,39049
62271,39001
62028,39001
61789,39049
61564,39142
61362,39277
61190,39449
61055,39651
60962,39876
60915,40114
60915,40357
60962,40596
61055,40820
61190,41023
61362,41194
61564,41330
61789,41423
62028,41470
62271,41470
62509,41423
62734,41330
62870,41239
62870,55839
62734,55748
62509,55655
62271,55608
62028,55608
61789,55655
61564,55748
61362,55883
61190,56055
61055,56257
60962,56482
60915,56720
60915,56964
60962,57202
61055,57427
61190,57629
61223,57661
26462,57661
26494,57629
26629,57427
26722,57202
26769,56964
26769,56720
26722,56482
26629,56257
26494,56055
26322,55883
26120,55748
25895,55655
25656,55608
25413,55608
25175,55655
24950,55748
24822,55834
24822,55595
28525,55595
28525,55700
28546,55803
28586,55900
28644,55987
28718,56062
28806,56120
28903,56160
29006,56181
29111,56181
29214,56160
29311,56120
29399,56062
29473,55987
29531,55900
29559,55834
29586,55900
29644,55987
29718,56062
29806,56120
29903,56160
30006,56181
30111,56181
30214,56160
30311,56120
30399,56062
30445,56015
30761,56015
30785,56108
30881,56153
30983,56178
31088,56182
31191,56166
31290,56131
31332,56108
31356,56015
31059,55718
30761,56015
30445,56015
30473,55987
30531,55900
30559,55834
30575,55879
30597,55920
30690,55945
30988,55647
31129,55647
31427,55945
31520,55920
31564,55825
31589,55723
31594,55618
31578,55514
31542,55416
31520,55374
31427,55350
31129,55647
30988,55647
30690,55350
30597,55374
30558,55459
30531,55394
30473,55307
30445,55279
30761,55279
31059,55576
31356,55279
31332,55186
31237,55142
31135,55117
31030,55112
30926,55128
30827,55164
30785,55186
30761,55279
30445,55279
30399,55233
30311,55174
30214,55134
30111,55114
30006,55114
29903,55134
29806,55174
29718,55233
29644,55307
29586,55394
29559,55460
29531,55394
29473,55307
29399,55233
29311,55174
29214,55134
29111,55114
29006,55114
28903,55134
28806,55174
28718,55233
28644,55307
28586,55394
28546,55492
28525,55595
24822,55595
24822,49947
28407,49947
28444,50051
28558,50106
28681,50138
28808,50146
28933,50129
29053,50087
29122,50051
29159,49947
30966,49947
31003,50051
31117,50106
31240,50138
31367,50146
31492,50129
31612,50087
31681,50051
31718,49947
31342,49570
30966,49947
29159,49947
28783,49570
28407,49947
24822,49947
24822,49524
28137,49524
28154,49650
28195,49770
28232,49838
28336,49876
28712,49500
28854,49500
29230,49876
29334,49838
29390,49724
29422,49601
29426,49524
30696,49524
30713,49650
30754,49770
30791,49838
30895,49876
31271,49500
31413,49500
31789,49876
31893,49838
31949,49724
31981,49601
31988,49475
31971,49349
31930,49229
31893,49161
31789,49123
31413,49500
31271,49500
30895,49123
30791,49161
30735,49275
30703,49398
30696,49524
29426,49524
29429,49475
29412,49349
29371,49229
29334,49161
29230,49123
28854,49500
28712,49500
28336,49123
28232,49161
28176,49275
28144,49398
28137,49524
24822,49524
24822,49052
28407,49052
28783,49429
29159,49052
30966,49052
31342,49429
31718,49052
31681,48948
31567,48893
31444,48861
31317,48853
31192,48870
31072,48912
31003,48948
30966,49052
29159,49052
29122,48948
29008,48893
28885,48861
28758,48853
28633,48870
28513,48912
28444,48948
28407,49052
24822,49052
24822,47664
28139,47664
28139,47791
28164,47916
28213,48033
28283,48138
28373,48228
28478,48298
28595,48347
28720,48372
28846,48372
28971,48347
29088,48298
29193,48228
29283,48138
29324,48076
30801,48076
30842,48138
30932,48228
31037,48298
31154,48347
31279,48372
31405,48372
31478,48357
32332,49211
32332,52345
32330,52362
32332,52379
32332,52379
32337,52430
32357,52496
32389,52556
32433,52609
32446,52620
36757,56931
36768,56944
36781,56955
36781,56955
36809,56978
36821,56987
36881,57020
36947,57040
36998,57045
36998,57045
37015,57046
37032,57045
49016,57045
49033,57046
49050,57045
49050,57045
49101,57040
49167,57020
49227,56987
49281,56944
49291,56931
50153,56069
50240,56077
50354,56066
50464,56032
50566,55978
50655,55905
50728,55816
50782,55714
50816,55604
50824,55518
50824,55363
50816,55277
50782,55166
50728,55065
50655,54976
50566,54903
50464,54848
50354,54815
50240,54804
50125,54815
50015,54848
49913,54903
49824,54976
49751,55065
49748,55072
49744,55065
49671,54976
49604,54921
49604,52770
52427,49947
55966,49947
56003,50051
56117,50106
56240,50138
56367,50146
56492,50129
56612,50087
56681,50051
56718,49947
58525,49947
58562,50051
58676,50106
58799,50138
58926,50146
59051,50129
59171,50087
59240,50051
59277,49947
58901,49570
58525,49947
56718,49947
56342,49570
55966,49947
52427,49947
52849,49524
55696,49524
55713,49650
55754,49770
55791,49838
55895,49876
56271,49500
56413,49500
56789,49876
56893,49838
56949,49724
56981,49601
56985,49524
58255,49524
58272,49650
58313,49770
58350,49838
58454,49876
58830,49500
58972,49500
59348,49876
59452,49838
59508,49724
59540,49601
59547,49475
59530,49349
59489,49229
59452,49161
59348,49123
58972,49500
58830,49500
58454,49123
58350,49161
58294,49275
58262,49398
58255,49524
56985,49524
56988,49475
56971,49349
56930,49229
56893,49161
56789,49123
56413,49500
56271,49500
55895,49123
55791,49161
55735,49275
55703,49398
55696,49524
52849,49524
53321,49052
55966,49052
56342,49429
56718,49052
58525,49052
58901,49429
59277,49052
59240,48948
59126,48893
59003,48861
58876,48853
58751,48870
58631,48912
58562,48948
58525,49052
56718,49052
56681,48948
56567,48893
56444,48861
56317,48853
56192,48870
56072,48912
56003,48948
55966,49052
53321,49052
54297,48076
55801,48076
55842,48138
55932,48228
56037,48298
56154,48347
56279,48372
56405,48372
56530,48347
56647,48298
56752,48228
56842,48138
56883,48076
58360,48076
58401,48138
58491,48228
58596,48298
58713,48347
58838,48372
58964,48372
59089,48347
59206,48298
59311,48228
59401,48138
59472,48033
59520,47916
59545,47791
59545,47664
59520,47540
59472,47423
59401,47318
59311,47228
59206,47157
59089,47109
58964,47084
58838,47084
58713,47109
58596,47157
58491,47228
58401,47318
58360,47379
56883,47379
56842,47318
56752,47228
56647,47157
56530,47109
56405,47084
56279,47084
56154,47109
56037,47157
55932,47228
55842,47318
55801,47379
54170,47379
54153,47378
54136,47379
54136,47379
54085,47384
54019,47404
53959,47437
53919,47469
53919,47469
53905,47480
53895,47494
49021,52367
49008,52378
48997,52391
48997,52391
48964,52431
48932,52492
48912,52557
48905,52625
48907,52643
48907,54921
48840,54976
48767,55065
48763,55072
48760,55065
48687,54976
48620,54921
48620,54489
48621,54472
48620,54455
48620,54455
48615,54404
48595,54338
48562,54277
48519,54224
48505,54213
46640,52348
46629,52335
46576,52291
46515,52259
46450,52239
46399,52234
46399,52234
46381,52232
46364,52234
44116,52234
43798,51915
44450,51915
44488,52019
44602,52075
44724,52107
44851,52114
44977,52097
45096,52056
45165,52019
45203,51915
44826,51539
44450,51915
43798,51915
43487,51604
43501,51531
43501,51493
44180,51493
44197,51618
44239,51738
44275,51807
44379,51844
44756,51468
44897,51468
45273,51844
45377,51807
45433,51693
45465,51570
45473,51443
45455,51318
45414,51198
45377,51129
45273,51092
44897,51468
44756,51468
44379,51092
44275,51129
44220,51243
44188,51366
44180,51493
43501,51493
43501,51405
43477,51280
43428,51163
43358,51058
43321,51021
44450,51021
44826,51397
45203,51021
45165,50917
45051,50861
44928,50829
44802,50822
44676,50839
44556,50880
44488,50917
44450,51021
43321,51021
43268,50968
43163,50898
43046,50849
42921,50824
42794,50824
42670,50849
42553,50898
42447,50968
42358,51058
42287,51163
42239,51280
42214,51405
42214,51531
42239,51656
42287,51773
42358,51878
42447,51968
42553,52038
42670,52087
42794,52112
42921,52112
42994,52097
43713,52816
43724,52830
43738,52841
43738,52841
43766,52864
43777,52873
43838,52906
43904,52926
43955,52931
43955,52931
43972,52932
43989,52931
46237,52931
47923,54616
47923,54921
47856,54976
47783,55065
47779,55072
47775,55065
47702,54976
47613,54903
47512,54848
47402,54815
47287,54804
47172,54815
47062,54848
46961,54903
46871,54976
46798,55065
46795,55072
46791,55065
46718,54976
46629,54903
46527,54848
46417,54815
46303,54804
46188,54815
46078,54848
45976,54903
45887,54976
45814,55065
45811,55072
45807,55065
45734,54976
45645,54903
45543,54848
45433,54815
45318,54804
45204,54815
45094,54848
44992,54903
44903,54976
44830,55065
44826,55072
44823,55065
44750,54976
44661,54903
44559,54848
44449,54815
44334,54804
44220,54815
44109,54848
44008,54903
43919,54976
43846,55065
43842,55072
43838,55065
43765,54976
43676,54903
43575,54848
43465,54815
43350,54804
43235,54815
43125,54848
43024,54903
42934,54976
42861,55065
42858,55072
42854,55065
42781,54976
42692,54903
42590,54848
42480,54815
42366,54804
42251,54815
42141,54848
42039,54903
41950,54976
41877,55065
41874,55072
41870,55065
41797,54976
41708,54903
41606,54848
41496,54815
41381,54804
41267,54815
41157,54848
41055,54903
40966,54976
40893,55065
40889,55072
40886,55065
40813,54976
40724,54903
40622,54848
40512,54815
40397,54804
40283,54815
40172,54848
40071,54903
39982,54976
39909,55065
39905,55072
39901,55065
39828,54976
39761,54921
39761,53530
44076,49215
44090,49204
44133,49151
44142,49135
44165,49090
44185,49024
44185,49024
44190,48973
44190,48973
44192,48956
44190,48939
44190,48082
45402,48082
45402,49342
45407,49391
45421,49438
45444,49482
45475,49520
45513,49551
45557,49574
45604,49588
45653,49593
46440,49593
46489,49588
46537,49574
46580,49551
46618,49520
46649,49482
46673,49438
46687,49391
46692,49342
46692,48082
46687,48033
46673,47986
46649,47943
46618,47905
46580,47873
46537,47850
46489,47836
46440,47831
45653,47831
45604,47836
45557,47850
45513,47873
45475,47905
45444,47943
45421,47986
45407,48033
45402,48082
44190,48082
44190,46301
44218,46282
44224,46293
44255,46331
44293,46362
44336,46385
44384,46399
44433,46404
45220,46404
45269,46399
45316,46385
45360,46362
45398,46331
45429,46293
45452,46249
45466,46202
45471,46153
45471,45366
45466,45317
45452,45270
45429,45226
45398,45188
45360,45157
45316,45134
45269,45119
45220,45114
44433,45114
44384,45119
44336,45134
44293,45157
44255,45188
44224,45226
44218,45236
44147,45189
44030,45140
43905,45116
43779,45116
43654,45140
43537,45189
43432,45259
43350,45341
43268,45259
43163,45189
43046,45140
42921,45116
42794,45116
42670,45140
42553,45189
42447,45259
42358,45349
42287,45454
42239,45572
42214,45696
42214,45823
42239,45947
42287,46064
42358,46170
42447,46259
42553,46330
42670,46378
42794,46403
42921,46403
43046,46378
43163,46330
43268,46259
43350,46178
43432,46259
43494,46301
43494,48812
39179,53127
39165,53138
39154,53151
39154,53151
39122,53191
39089,53251
39070,53317
39063,53385
39064,53402
39064,54921
38997,54976
38924,55065
38921,55072
38917,55065
38844,54976
38755,54903
38653,54848
38543,54815
38429,54804
38314,54815
38204,54848
38102,54903
38015,54974
38011,54960
37988,54917
37957,54879
37919,54848
37875,54824
37828,54810
37779,54805
37557,54807
37494,54869
37494,55390
37502,55390
37502,55490
37494,55490
37494,56012
37557,56074
37779,56076
37828,56071
37875,56056
37919,56033
37957,56002
37988,55964
38011,55920
38015,55907
38102,55978
38204,56032
38314,56066
38429,56077
38543,56066
38653,56032
38755,55978
38844,55905
38917,55816
38921,55809
38924,55816
38997,55905
39087,55978
39188,56032
39298,56066
39413,56077
39527,56066
39638,56032
39739,55978
39828,55905
39901,55816
39905,55809
39909,55816
39982,55905
40071,55978
40172,56032
40283,56066
40397,56077
40512,56066
40622,56032
40724,55978
40813,55905
40886,55816
40889,55809
40893,55816
40966,55905
41055,55978
41157,56032
41267,56066
41381,56077
41496,56066
41606,56032
41708,55978
41797,55905
41870,55816
41874,55809
41877,55816
41950,55905
42039,55978
42141,56032
42251,56066
42366,56077
42480,56066
42590,56032
42692,55978
42781,55905
42854,55816
42858,55809
42861,55816
42934,55905
43024,55978
43125,56032
43235,56066
43350,56077
43465,56066
43575,56032
43676,55978
43765,55905
43838,55816
43842,55809
43846,55816
43919,55905
44008,55978
44109,56032
44220,56066
44334,56077
44449,56066
44559,56032
44661,55978
44750,55905
44823,55816
44826,55809
44830,55816
44903,55905
44992,55978
45094,56032
45204,56066
45318,56077
45433,56066
45543,56032
45645,55978
45734,55905
45807,55816
45811,55809
45814,55816
45887,55905
45976,55978
46078,56032
46188,56066
46303,56077
46417,56066
46527,56032
46629,55978
46718,55905
46791,55816
46795,55809
46798,55816
46871,55905
46961,55978
47062,56032
47172,56066
47287,56077
47402,56066
47512,56032
47613,55978
47702,55905
47775,55816
47779,55809
47783,55816
47856,55905
47945,55978
48046,56032
48157,56066
48271,56077
48386,56066
48496,56032
48598,55978
48687,55905
48760,55816
48763,55809
48767,55816
48840,55905
48929,55978
49031,56032
49141,56066
49168,56069
48889,56348
37160,56348
36636,55824
36859,55824
36863,55873
36878,55920
36901,55964
36932,56002
36970,56033
37014,56056
37061,56071
37110,56076
37332,56074
37394,56012
37394,55490
36922,55490
36860,55553
36859,55824
36636,55824
35868,55057
36859,55057
36860,55328
36922,55390
37394,55390
37394,54869
37332,54807
37110,54805
37061,54810
37014,54824
36970,54848
36932,54879
36901,54917
36878,54960
36863,55008
36859,55057
35868,55057
33029,52217
33029,49084
33031,49066
33029,49049
33029,49049
33024,48998
33004,48932
32972,48872
32928,48819
32915,48808
32189,48082
40992,48082
40992,49342
40997,49391
41012,49438
41035,49482
41066,49520
41104,49551
41147,49574
41195,49588
41244,49593
42031,49593
42080,49588
42127,49574
42171,49551
42209,49520
42240,49482
42263,49438
42277,49391
42282,49342
42282,48082
42277,48033
42263,47986
42240,47943
42209,47905
42171,47873
42127,47850
42080,47836
42031,47831
41244,47831
41195,47836
41147,47850
41104,47873
41066,47905
41035,47943
41012,47986
40997,48033
40992,48082
32189,48082
31971,47864
31986,47791
31986,47664
31961,47540
31912,47423
31842,47318
31752,47228
31647,47157
31530,47109
31405,47084
31279,47084
31154,47109
31037,47157
30932,47228
30842,47318
30801,47379
29324,47379
29283,47318
29193,47228
29088,47157
28971,47109
28846,47084
28720,47084
28595,47109
28478,47157
28373,47228
28283,47318
28213,47423
28164,47540
28139,47664
24822,47664
24822,41244
24950,41330
25175,41423
25413,41470
25656,41470
25895,41423
26120,41330
26322,41194
26494,41023
26629,40820
26722,40596
26769,40357
26769,40114
26722,39876
26629,39651
26494,39449
26322,39277
26120,39142
25895,39049
25656,39001
25413,39001
25175,39049
24950,39142
24822,39227
24822,19590
24950,19676
25175,19769
25413,19816
25656,19816
25895,19769
26120,19676
26322,19541
26494,19369
26629,19167
26722,18942
26769,18704
26769,18632
27943,18632
27943,19124
27963,19229
28003,19329
28062,19419
28138,19495
28227,19555
28325,19597
28354,19603
28438,19554
28438,18632
27943,18632
26769,18632
26769,18461
26722,18222
26629,17998
26541,17866
27991,17866
27963,17934
Z" /> 
</g>
</g>
<g style="fill:#000000; fill-opacity:1.0; 
stroke:#000000; stroke-width:100; stroke-opacity:1; 
stroke-linecap:round; stroke-linejoin:round;">
</g>
<g style="fill:#000000; fill-opacity:1.0; 
stroke:#000000; stroke-width:0; stroke-opacity:1; 
stroke-linecap:round; stroke-linejoin:round;">
<circle cx="28488.5" cy="18582.4" r="197" /> 
</g>
<g style="fill:#000000; fill-opacity:1.0; 
stroke:#000000; stroke-width:39.3701; stroke-opacity:1; 
stroke-linecap:round; stroke-linejoin:round;">
</g>
<g style="fill:#000000; fill-opacity:1.0; 
stroke:#000000; stroke-width:0; stroke-opacity:1; 
stroke-linecap:round; stroke-linejoin:round;">
<circle cx="29488.5" cy="18582.4" r="197" /> 
</g>
<g style="fill:#000000; fill-opacity:1.0; 
stroke:#000000; stroke-width:39.3701; stroke-opacity:1; 
stroke-linecap:round; stroke-linejoin:round;">
</g>
<g style="fill:#000000; fill-opacity:1.0; 
stroke:#000000; stroke-width:0; stroke-opacity:1; 
stroke-linecap:round; stroke-linejoin:round;">
<circle cx="30488.5" cy="18582.4" r="197" /> 
</g>
<g style="fill:#000000; fill-opacity:1.0; 
stroke:#000000; stroke-width:39.3701; stroke-opacity:1; 
stroke-linecap:round; stroke-linejoin:round;">
</g>
<g style="fill:#000000; fill-opacity:1.0; 
stroke:#000000; stroke-width:0; stroke-opacity:1; 
stroke-linecap:round; stroke-linejoin:round;">
<circle cx="31488.5" cy="18582.4" r="197" /> 
</g>
<g style="fill:#000000; fill-opacity:1.0; 
stroke:#000000; stroke-width:39.3701; stroke-opacity:1; 
stroke-linecap:round; stroke-linejoin:round;">
</g>
<g style="fill:#000000; fill-opacity:1.0; 
stroke:#000000; stroke-width:0; stroke-opacity:1; 
stroke-linecap:round; stroke-linejoin:round;">
<circle cx="32488.5" cy="18582.4" r="197" /> 
</g>
<g style="fill:#000000; fill-opacity:1.0; 
stroke:#000000; stroke-width:39.3701; stroke-opacity:1; 
stroke-linecap:round; stroke-linejoin:round;">
</g>
<g style="fill:#000000; fill-opacity:1.0; 
stroke:#000000; stroke-width:0; stroke-opacity:1; 
stroke-linecap:round; stroke-linejoin:round;">
<circle cx="33488.5" cy="18582.4" r="197" /> 
</g>
<g style="fill:#000000; fill-opacity:1.0; 
stroke:#000000; stroke-width:39.3701; stroke-opacity:1; 
stroke-linecap:round; stroke-linejoin:round;">
</g>
<g style="fill:#000000; fill-opacity:1.0; 
stroke:#000000; stroke-width:0; stroke-opacity:1; 
stroke-linecap:round; stroke-linejoin:round;">
<circle cx="34488.5" cy="18582.4" r="197" /> 
</g>
<g style="fill:#000000; fill-opacity:1.0; 
stroke:#000000; stroke-width:39.3701; stroke-opacity:1; 
stroke-linecap:round; stroke-linejoin:round;">
</g>
<g style="fill:#000000; fill-opacity:1.0; 
stroke:#000000; stroke-width:0; stroke-opacity:1; 
stroke-linecap:round; stroke-linejoin:round;">
<circle cx="35488.5" cy="18582.4" r="197" /> 
</g>
<g style="fill:#000000; fill-opacity:1.0; 
stroke:#000000; stroke-width:39.3701; stroke-opacity:1; 
stroke-linecap:round; stroke-linejoin:round;">
</g>
<g style="fill:#000000; fill-opacity:1.0; 
stroke:#000000; stroke-width:0; stroke-opacity:1; 
stroke-linecap:round; stroke-linejoin:round;">
<circle cx="36488.5" cy="18582.4" r="197" /> 
</g>
<g style="fill:#000000; fill-opacity:1.0; 
stroke:#000000; stroke-width:39.3701; stroke-opacity:1; 
stroke-linecap:round; stroke-linejoin:round;">
</g>
<g style="fill:#000000; fill-opacity:1.0; 
stroke:#000000; stroke-width:0; stroke-opacity:1; 
stroke-linecap:round; stroke-linejoin:round;">
<circle cx="37488.5" cy="18582.4" r="197" /> 
</g>
<g style="fill:#000000; fill-opacity:1.0; 
stroke:#000000; stroke-width:39.3701; stroke-opacity:1; 
stroke-linecap:round; stroke-linejoin:round;">
</g>
<g style="fill:#000000; fill-opacity:1.0; 
stroke:#000000; stroke-width:0; stroke-opacity:1; 
stroke-linecap:round; stroke-linejoin:round;">
<circle cx="38488.5" cy="18582.4" r="197" /> 
</g>
<g style="fill:#000000; fill-opacity:1.0; 
stroke:#000000; stroke-width:39.3701; stroke-opacity:1; 
stroke-linecap:round; stroke-linejoin:round;">
</g>
<g style="fill:#000000; fill-opacity:1.0; 
stroke:#000000; stroke-width:0; stroke-opacity:1; 
stroke-linecap:round; stroke-linejoin:round;">
<circle cx="39488.5" cy="18582.4" r="197" /> 
</g>
<g style="fill:#000000; fill-opacity:1.0; 
stroke:#000000; stroke-width:39.3701; stroke-opacity:1; 
stroke-linecap:round; stroke-linejoin:round;">
</g>
<g style="fill:#000000; fill-opacity:1.0; 
stroke:#000000; stroke-width:0; stroke-opacity:1; 
stroke-linecap:round; stroke-linejoin:round;">
<circle cx="40488.5" cy="18582.4" r="197" /> 
</g>
<g style="fill:#000000; fill-opacity:1.0; 
stroke:#000000; stroke-width:39.3701; stroke-opacity:1; 
stroke-linecap:round; stroke-linejoin:round;">
</g>
<g style="fill:#000000; fill-opacity:1.0; 
stroke:#000000; stroke-width:0; stroke-opacity:1; 
stroke-linecap:round; stroke-linejoin:round;">
<circle cx="41488.5" cy="18582.4" r="197" /> 
</g>
<g style="fill:#000000; fill-opacity:1.0; 
stroke:#000000; stroke-width:39.3701; stroke-opacity:1; 
stroke-linecap:round; stroke-linejoin:round;">
</g>
<g style="fill:#000000; fill-opacity:1.0; 
stroke:#000000; stroke-width:0; stroke-opacity:1; 
stroke-linecap:round; stroke-linejoin:round;">
<circle cx="42488.5" cy="18582.4" r="197" /> 
</g>
<g style="fill:#000000; fill-opacity:1.0; 
stroke:#000000; stroke-width:39.3701; stroke-opacity:1; 
stroke-linecap:round; stroke-linejoin:round;">
</g>
<g style="fill:#000000; fill-opacity:1.0; 
stroke:#000000; stroke-width:0; stroke-opacity:1; 
stroke-linecap:round; stroke-linejoin:round;">
<circle cx="43488.5" cy="18582.4" r="197" /> 
</g>
<g style="fill:#000000; fill-opacity:1.0; 
stroke:#000000; stroke-width:39.3701; stroke-opacity:1; 
stroke-linecap:round; stroke-linejoin:round;">
</g>
<g style="fill:#000000; fill-opacity:1.0; 
stroke:#000000; stroke-width:0; stroke-opacity:1; 
stroke-linecap:round; stroke-linejoin:round;">
<circle cx="29059.1" cy="55647.6" r="157.48" /> 
</g>
<g style="fill:#000000; fill-opacity:1.0; 
stroke:#000000; stroke-width:39.3701; stroke-opacity:1; 
stroke-linecap:round; stroke-linejoin:round;">
</g>
<g style="fill:#000000; fill-opacity:1.0; 
stroke:#000000; stroke-width:0; stroke-opacity:1; 
stroke-linecap:round; stroke-linejoin:round;">
<circle cx="30059.1" cy="55647.6" r="157.48" /> 
</g>
<g style="fill:#000000; fill-opacity:1.0; 
stroke:#000000; stroke-width:39.3701; stroke-opacity:1; 
stroke-linecap:round; stroke-linejoin:round;">
</g>
<g style="fill:#000000; fill-opacity:1.0; 
stroke:#000000; stroke-width:0; stroke-opacity:1; 
stroke-linecap:round; stroke-linejoin:round;">
<circle cx="31059.1" cy="55647.6" r="157.48" /> 
</g>
<g style="fill:#000000; fill-opacity:1.0; 
stroke:#000000; stroke-width:39.3701; stroke-opacity:1; 
stroke-linecap:round; stroke-linejoin:round;">
</g>
<g style="fill:#000000; fill-opacity:1.0; 
stroke:#000000; stroke-width:0; stroke-opacity:1; 
stroke-linecap:round; stroke-linejoin:round;">
<circle cx="42858.3" cy="51468.5" r="196.85" /> 
</g>
<g style="fill:#000000; fill-opacity:1.0; 
stroke:#000000; stroke-width:39.3701; stroke-opacity:1; 
stroke-linecap:round; stroke-linejoin:round;">
</g>
<g style="fill:#000000; fill-opacity:1.0; 
stroke:#000000; stroke-width:0; stroke-opacity:1; 
stroke-linecap:round; stroke-linejoin:round;">
<circle cx="44826.8" cy="51468.5" r="196.85" /> 
</g>
<g style="fill:#000000; fill-opacity:1.0; 
stroke:#000000; stroke-width:39.3701; stroke-opacity:1; 
stroke-linecap:round; stroke-linejoin:round;">
</g>
<g style="fill:#000000; fill-opacity:1.0; 
stroke:#000000; stroke-width:590.551; stroke-opacity:1; 
stroke-linecap:round; stroke-linejoin:round;">
</g>
<g style="fill:#000000; fill-opacity:0.0; 
stroke:#000000; stroke-width:590.551; stroke-opacity:1; 
stroke-linecap:round; stroke-linejoin:round;">
<path d="M41637 48456
L41637 48968
" />
<path d="M46047 48456
L46047 48968
" />
</g>
<g style="fill:#000000; fill-opacity:1.0; 
stroke:#000000; stroke-width:0; stroke-opacity:1; 
stroke-linecap:round; stroke-linejoin:round;">
<circle cx="42858.3" cy="45759.8" r="196.85" /> 
</g>
<g style="fill:#000000; fill-opacity:1.0; 
stroke:#000000; stroke-width:39.3701; stroke-opacity:1; 
stroke-linecap:round; stroke-linejoin:round;">
</g>
<g style="fill:#000000; fill-opacity:1.0; 
stroke:#000000; stroke-width:0; stroke-opacity:1; 
stroke-linecap:round; stroke-linejoin:round;">
<circle cx="43842.5" cy="45759.8" r="196.85" /> 
</g>
<g style="fill:#000000; fill-opacity:1.0; 
stroke:#000000; stroke-width:39.3701; stroke-opacity:1; 
stroke-linecap:round; stroke-linejoin:round;">
</g>
<g style="fill:#000000; fill-opacity:1.0; 
stroke:#000000; stroke-width:0; stroke-opacity:1; 
stroke-linecap:round; stroke-linejoin:round;">
<circle cx="44826.8" cy="45759.8" r="196.85" /> 
</g>
<g style="fill:#000000; fill-opacity:1.0; 
stroke:#000000; stroke-width:39.3701; stroke-opacity:1; 
stroke-linecap:round; stroke-linejoin:round;">
</g>
<g style="fill:#000000; fill-opacity:1.0; 
stroke:#000000; stroke-width:0; stroke-opacity:1; 
stroke-linecap:round; stroke-linejoin:round;">
<circle cx="56342.5" cy="49500" r="216.535" /> 
</g>
<g style="fill:#000000; fill-opacity:1.0; 
stroke:#000000; stroke-width:39.3701; stroke-opacity:1; 
stroke-linecap:round; stroke-linejoin:round;">
</g>
<g style="fill:#000000; fill-opacity:1.0; 
stroke:#000000; stroke-width:0; stroke-opacity:1; 
stroke-linecap:round; stroke-linejoin:round;">
<circle cx="56342.5" cy="47728.3" r="216.535" /> 
</g>
<g style="fill:#000000; fill-opacity:1.0; 
stroke:#000000; stroke-width:39.3701; stroke-opacity:1; 
stroke-linecap:round; stroke-linejoin:round;">
</g>
<g style="fill:#000000; fill-opacity:1.0; 
stroke:#000000; stroke-width:0; stroke-opacity:1; 
stroke-linecap:round; stroke-linejoin:round;">
<circle cx="58901.6" cy="49500" r="216.535" /> 
</g>
<g style="fill:#000000; fill-opacity:1.0; 
stroke:#000000; stroke-width:39.3701; stroke-opacity:1; 
stroke-linecap:round; stroke-linejoin:round;">
</g>
<g style="fill:#000000; fill-opacity:1.0; 
stroke:#000000; stroke-width:0; stroke-opacity:1; 
stroke-linecap:round; stroke-linejoin:round;">
<circle cx="58901.6" cy="47728.3" r="216.535" /> 
</g>
<g style="fill:#000000; fill-opacity:1.0; 
stroke:#000000; stroke-width:39.3701; stroke-opacity:1; 
stroke-linecap:round; stroke-linejoin:round;">
</g>
<g style="fill:#000000; fill-opacity:1.0; 
stroke:#000000; stroke-width:0; stroke-opacity:1; 
stroke-linecap:round; stroke-linejoin:round;">
<circle cx="31342.5" cy="47728.3" r="216.535" /> 
</g>
<g style="fill:#000000; fill-opacity:1.0; 
stroke:#000000; stroke-width:39.3701; stroke-opacity:1; 
stroke-linecap:round; stroke-linejoin:round;">
</g>
<g style="fill:#000000; fill-opacity:1.0; 
stroke:#000000; stroke-width:0; stroke-opacity:1; 
stroke-linecap:round; stroke-linejoin:round;">
<circle cx="31342.5" cy="49500" r="216.535" /> 
</g>
<g style="fill:#000000; fill-opacity:1.0; 
stroke:#000000; stroke-width:39.3701; stroke-opacity:1; 
stroke-linecap:round; stroke-linejoin:round;">
</g>
<g style="fill:#000000; fill-opacity:1.0; 
stroke:#000000; stroke-width:0; stroke-opacity:1; 
stroke-linecap:round; stroke-linejoin:round;">
<circle cx="28783.5" cy="47728.3" r="216.535" /> 
</g>
<g style="fill:#000000; fill-opacity:1.0; 
stroke:#000000; stroke-width:39.3701; stroke-opacity:1; 
stroke-linecap:round; stroke-linejoin:round;">
</g>
<g style="fill:#000000; fill-opacity:1.0; 
stroke:#000000; stroke-width:0; stroke-opacity:1; 
stroke-linecap:round; stroke-linejoin:round;">
<circle cx="28783.5" cy="49500" r="216.535" /> 
</g>
<g style="fill:#000000; fill-opacity:1.0; 
stroke:#000000; stroke-width:39.3701; stroke-opacity:1; 
stroke-linecap:round; stroke-linejoin:round;">
</g>
<g style="fill:#000000; fill-opacity:1.0; 
stroke:#000000; stroke-width:0; stroke-opacity:1; 
stroke-linecap:round; stroke-linejoin:round;">
<circle cx="62149.6" cy="18582.7" r="492.126" /> 
</g>
<g style="fill:#000000; fill-opacity:1.0; 
stroke:#000000; stroke-width:39.3701; stroke-opacity:1; 
stroke-linecap:round; stroke-linejoin:round;">
</g>
<g style="fill:#000000; fill-opacity:1.0; 
stroke:#000000; stroke-width:0; stroke-opacity:1; 
stroke-linecap:round; stroke-linejoin:round;">
<circle cx="25535.4" cy="56842.5" r="492.126" /> 
</g>
<g style="fill:#000000; fill-opacity:1.0; 
stroke:#000000; stroke-width:39.3701; stroke-opacity:1; 
stroke-linecap:round; stroke-linejoin:round;">
</g>
<g style="fill:#000000; fill-opacity:1.0; 
stroke:#000000; stroke-width:0; stroke-opacity:1; 
stroke-linecap:round; stroke-linejoin:round;">
<circle cx="25535.4" cy="18582.7" r="492.126" /> 
</g>
<g style="fill:#000000; fill-opacity:1.0; 
stroke:#000000; stroke-width:39.3701; stroke-opacity:1; 
stroke-linecap:round; stroke-linejoin:round;">
</g>
<g style="fill:#000000; fill-opacity:1.0; 
stroke:#000000; stroke-width:0; stroke-opacity:1; 
stroke-linecap:round; stroke-linejoin:round;">
<circle cx="62149.6" cy="56842.5" r="492.126" /> 
</g>
<g style="fill:#000000; fill-opacity:1.0; 
stroke:#000000; stroke-width:39.3701; stroke-opacity:1; 
stroke-linecap:round; stroke-linejoin:round;">
</g>
<g style="fill:#000000; fill-opacity:1.0; 
stroke:#000000; stroke-width:0; stroke-opacity:1; 
stroke-linecap:round; stroke-linejoin:round;">
<circle cx="25535.4" cy="40236.2" r="492.126" /> 
</g>
<g style="fill:#000000; fill-opacity:1.0; 
stroke:#000000; stroke-width:39.3701; stroke-opacity:1; 
stroke-linecap:round; stroke-linejoin:round;">
</g>
<g style="fill:#000000; fill-opacity:1.0; 
stroke:#000000; stroke-width:0; stroke-opacity:1; 
stroke-linecap:round; stroke-linejoin:round;">
<circle cx="62149.6" cy="40236.2" r="492.126" /> 
</g>
<g style="fill:#000000; fill-opacity:1.0; 
stroke:#000000; stroke-width:39.3701; stroke-opacity:1; 
stroke-linecap:round; stroke-linejoin:round;">
</g>
<g style="fill:#000000; fill-opacity:1.0; 
stroke:#000000; stroke-width:0; stroke-opacity:1; 
stroke-linecap:round; stroke-linejoin:round;">
<circle cx="37444.9" cy="55440.9" r="187.008" /> 
</g>
<g style="fill:#000000; fill-opacity:1.0; 
stroke:#000000; stroke-width:39.3701; stroke-opacity:1; 
stroke-linecap:round; stroke-linejoin:round;">
</g>
<g style="fill:#000000; fill-opacity:1.0; 
stroke:#000000; stroke-width:0; stroke-opacity:1; 
stroke-linecap:round; stroke-linejoin:round;">
<circle cx="38429.1" cy="55440.9" r="187.008" /> 
</g>
<g style="fill:#000000; fill-opacity:1.0; 
stroke:#000000; stroke-width:39.3701; stroke-opacity:1; 
stroke-linecap:round; stroke-linejoin:round;">
</g>
<g style="fill:#000000; fill-opacity:1.0; 
stroke:#000000; stroke-width:0; stroke-opacity:1; 
stroke-linecap:round; stroke-linejoin:round;">
<circle cx="39413.4" cy="55440.9" r="187.008" /> 
</g>
<g style="fill:#000000; fill-opacity:1.0; 
stroke:#000000; stroke-width:39.3701; stroke-opacity:1; 
stroke-linecap:round; stroke-linejoin:round;">
</g>
<g style="fill:#000000; fill-opacity:1.0; 
stroke:#000000; stroke-width:0; stroke-opacity:1; 
stroke-linecap:round; stroke-linejoin:round;">
<circle cx="40397.6" cy="55440.9" r="187.008" /> 
</g>
<g style="fill:#000000; fill-opacity:1.0; 
stroke:#000000; stroke-width:39.3701; stroke-opacity:1; 
stroke-linecap:round; stroke-linejoin:round;">
</g>
<g style="fill:#000000; fill-opacity:1.0; 
stroke:#000000; stroke-width:0; stroke-opacity:1; 
stroke-linecap:round; stroke-linejoin:round;">
<circle cx="41381.9" cy="55440.9" r="187.008" /> 
</g>
<g style="fill:#000000; fill-opacity:1.0; 
stroke:#000000; stroke-width:39.3701; stroke-opacity:1; 
stroke-linecap:round; stroke-linejoin:round;">
</g>
<g style="fill:#000000; fill-opacity:1.0; 
stroke:#000000; stroke-width:0; stroke-opacity:1; 
stroke-linecap:round; stroke-linejoin:round;">
<circle cx="42366.1" cy="55440.9" r="187.008" /> 
</g>
<g style="fill:#000000; fill-opacity:1.0; 
stroke:#000000; stroke-width:39.3701; stroke-opacity:1; 
stroke-linecap:round; stroke-linejoin:round;">
</g>
<g style="fill:#000000; fill-opacity:1.0; 
stroke:#000000; stroke-width:0; stroke-opacity:1; 
stroke-linecap:round; stroke-linejoin:round;">
<circle cx="43350.4" cy="55440.9" r="187.008" /> 
</g>
<g style="fill:#000000; fill-opacity:1.0; 
stroke:#000000; stroke-width:39.3701; stroke-opacity:1; 
stroke-linecap:round; stroke-linejoin:round;">
</g>
<g style="fill:#000000; fill-opacity:1.0; 
stroke:#000000; stroke-width:0; stroke-opacity:1; 
stroke-linecap:round; stroke-linejoin:round;">
<circle cx="44334.6" cy="55440.9" r="187.008" /> 
</g>
<g style="fill:#000000; fill-opacity:1.0; 
stroke:#000000; stroke-width:39.3701; stroke-opacity:1; 
stroke-linecap:round; stroke-linejoin:round;">
</g>
<g style="fill:#000000; fill-opacity:1.0; 
stroke:#000000; stroke-width:0; stroke-opacity:1; 
stroke-linecap:round; stroke-linejoin:round;">
<circle cx="45318.9" cy="55440.9" r="187.008" /> 
</g>
<g style="fill:#000000; fill-opacity:1.0; 
stroke:#000000; stroke-width:39.3701; stroke-opacity:1; 
stroke-linecap:round; stroke-linejoin:round;">
</g>
<g style="fill:#000000; fill-opacity:1.0; 
stroke:#000000; stroke-width:0; stroke-opacity:1; 
stroke-linecap:round; stroke-linejoin:round;">
<circle cx="46303.1" cy="55440.9" r="187.008" /> 
</g>
<g style="fill:#000000; fill-opacity:1.0; 
stroke:#000000; stroke-width:39.3701; stroke-opacity:1; 
stroke-linecap:round; stroke-linejoin:round;">
</g>
<g style="fill:#000000; fill-opacity:1.0; 
stroke:#000000; stroke-width:0; stroke-opacity:1; 
stroke-linecap:round; stroke-linejoin:round;">
<circle cx="47287.4" cy="55440.9" r="187.008" /> 
</g>
<g style="fill:#000000; fill-opacity:1.0; 
stroke:#000000; stroke-width:39.3701; stroke-opacity:1; 
stroke-linecap:round; stroke-linejoin:round;">
</g>
<g style="fill:#000000; fill-opacity:1.0; 
stroke:#000000; stroke-width:0; stroke-opacity:1; 
stroke-linecap:round; stroke-linejoin:round;">
<circle cx="48271.7" cy="55440.9" r="187.008" /> 
</g>
<g style="fill:#000000; fill-opacity:1.0; 
stroke:#000000; stroke-width:39.3701; stroke-opacity:1; 
stroke-linecap:round; stroke-linejoin:round;">
</g>
<g style="fill:#000000; fill-opacity:1.0; 
stroke:#000000; stroke-width:0; stroke-opacity:1; 
stroke-linecap:round; stroke-linejoin:round;">
<circle cx="49255.9" cy="55440.9" r="187.008" /> 
</g>
<g style="fill:#000000; fill-opacity:1.0; 
stroke:#000000; stroke-width:39.3701; stroke-opacity:1; 
stroke-linecap:round; stroke-linejoin:round;">
</g>
<g style="fill:#000000; fill-opacity:1.0; 
stroke:#000000; stroke-width:0; stroke-opacity:1; 
stroke-linecap:round; stroke-linejoin:round;">
<circle cx="50240.2" cy="55440.9" r="187.008" /> 
</g>
<g style="fill:#000000; fill-opacity:1.0; 
stroke:#000000; stroke-width:39.3701; stroke-opacity:1; 
stroke-linecap:round; stroke-linejoin:round;">
</g>
<g style="fill:#FFFFFF; fill-opacity:1.0; 
stroke:#FFFFFF; stroke-width:39.3701; stroke-opacity:1; 
stroke-linecap:round; stroke-linejoin:round;">
</g> 
</svg>
