<?xml version="1.0" standalone="no"?>
 <!DOCTYPE svg PUBLIC "-//W3C//DTD SVG 1.1//EN" 
 "http://www.w3.org/Graphics/SVG/1.1/DTD/svg11.dtd"> 
<svg xmlns="http://www.w3.org/2000/svg" version="1.1" 
    width="29.7002cm" height="21.0007cm" viewBox="0 0 116930 82680 ">
<title>SVG Picture created as modulo_opto-F.Cu.svg date 2019/01/28 17:48:46 </title>
  <desc>Picture generated by PCBNEW </desc>
<g style="fill:#000000; fill-opacity:1;stroke:#000000; stroke-opacity:1;
stroke-linecap:round; stroke-linejoin:round; "
 transform="translate(0 0) scale(1 1)">
</g>
<g style="fill:#000000; fill-opacity:0.0; 
stroke:#000000; stroke-width:-0.000393701; stroke-opacity:1; 
stroke-linecap:round; stroke-linejoin:round;">
</g>
<g style="fill:#000000; fill-opacity:1.0; 
stroke:#000000; stroke-width:39.3701; stroke-opacity:1; 
stroke-linecap:round; stroke-linejoin:round;">
<rect x="35913.4" y="22588.6" width="40110.2" height="23744.1" rx="0" />
</g>
<g style="fill:#FFFFFF; fill-opacity:1.0; 
stroke:#FFFFFF; stroke-width:39.3701; stroke-opacity:1; 
stroke-linecap:round; stroke-linejoin:round;">
</g>
<g style="fill:#FFFFFF; fill-opacity:1.0; 
stroke:#FFFFFF; stroke-width:0; stroke-opacity:1; 
stroke-linecap:round; stroke-linejoin:round;">
<polyline style="fill-rule:evenodd;"
points="72737,36445
72747,36446
72756,36449
72766,36452
72774,36456
72783,36461
72790,36467
72797,36473
72804,36480
72810,36488
72815,36496
72819,36505
72822,36514
72824,36524
72826,36533
72826,36543
72826,36799
72826,36808
72824,36818
72822,36827
72819,36836
72815,36845
72810,36853
72804,36861
72797,36868
72790,36875
72783,36881
72774,36886
72766,36890
72756,36893
72747,36895
72737,36897
72728,36897
72374,36897
72364,36897
72354,36895
72345,36893
72336,36890
72327,36886
72319,36881
72311,36875
72304,36868
72297,36861
72292,36853
72287,36845
72283,36836
72279,36827
72277,36818
72276,36808
72275,36799
72275,36543
72276,36533
72277,36524
72279,36514
72283,36505
72287,36496
72292,36488
72297,36480
72304,36473
72311,36467
72319,36461
72327,36456
72336,36452
72345,36449
72354,36446
72364,36445
72374,36444
72728,36444
72737,36445
" /> 
<polyline style="fill-rule:evenodd;"
points="72737,35638
72747,35639
72756,35642
72766,35645
72774,35649
72783,35654
72790,35660
72797,35666
72804,35673
72810,35681
72815,35689
72819,35698
72822,35707
72824,35717
72826,35726
72826,35736
72826,35992
72826,36001
72824,36011
72822,36020
72819,36029
72815,36038
72810,36046
72804,36054
72797,36061
72790,36068
72783,36073
72774,36078
72766,36083
72756,36086
72747,36088
72737,36090
72728,36090
72374,36090
72364,36090
72354,36088
72345,36086
72336,36083
72327,36078
72319,36073
72311,36068
72304,36061
72297,36054
72292,36046
72287,36038
72283,36029
72279,36020
72277,36011
72276,36001
72275,35992
72275,35736
72276,35726
72277,35717
72279,35707
72283,35698
72287,35689
72292,35681
72297,35673
72304,35666
72311,35660
72319,35654
72327,35649
72336,35645
72345,35642
72354,35639
72364,35638
72374,35637
72728,35637
72737,35638
" /> 
<polyline style="fill-rule:evenodd;"
points="54324,31437
54334,31438
54343,31441
54352,31444
54361,31448
54369,31453
54377,31459
54384,31465
54391,31472
54396,31480
54401,31489
54405,31497
54409,31506
54411,31516
54412,31525
54413,31535
54413,31791
54412,31800
54411,31810
54409,31819
54405,31829
54401,31837
54396,31846
54391,31853
54384,31860
54377,31867
54369,31873
54361,31878
54352,31882
54343,31885
54334,31887
54324,31889
54314,31889
53960,31889
53950,31889
53941,31887
53932,31885
53922,31882
53914,31878
53905,31873
53898,31867
53891,31860
53884,31853
53878,31846
53873,31837
53869,31829
53866,31819
53864,31810
53862,31800
53862,31791
53862,31535
53862,31525
53864,31516
53866,31506
53869,31497
53873,31489
53878,31480
53884,31472
53891,31465
53898,31459
53905,31453
53914,31448
53922,31444
53932,31441
53941,31438
53950,31437
53960,31437
54314,31437
54324,31437
" /> 
<polyline style="fill-rule:evenodd;"
points="54324,32244
54334,32245
54343,32248
54352,32251
54361,32255
54369,32260
54377,32266
54384,32272
54391,32280
54396,32287
54401,32296
54405,32304
54409,32313
54411,32323
54412,32332
54413,32342
54413,32598
54412,32608
54411,32617
54409,32626
54405,32636
54401,32644
54396,32653
54391,32660
54384,32668
54377,32674
54369,32680
54361,32685
54352,32689
54343,32692
54334,32694
54324,32696
54314,32696
53960,32696
53950,32696
53941,32694
53932,32692
53922,32689
53914,32685
53905,32680
53898,32674
53891,32668
53884,32660
53878,32653
53873,32644
53869,32636
53866,32626
53864,32617
53862,32608
53862,32598
53862,32342
53862,32332
53864,32323
53866,32313
53869,32304
53873,32296
53878,32287
53884,32280
53891,32272
53898,32266
53905,32260
53914,32255
53922,32251
53932,32248
53941,32245
53950,32244
53960,32244
54314,32244
54324,32244
" /> 
<polyline style="fill-rule:evenodd;"
points="59017,32244
59027,32245
59036,32248
59045,32251
59054,32255
59062,32260
59070,32266
59077,32272
59083,32280
59089,32287
59094,32296
59098,32304
59102,32313
59104,32323
59105,32332
59106,32342
59106,32598
59105,32608
59104,32617
59102,32626
59098,32636
59094,32644
59089,32653
59083,32660
59077,32668
59070,32674
59062,32680
59054,32685
59045,32689
59036,32692
59027,32694
59017,32696
59007,32696
58653,32696
58643,32696
58634,32694
58624,32692
58615,32689
58607,32685
58598,32680
58591,32674
58583,32668
58577,32660
58571,32653
58566,32644
58562,32636
58559,32626
58557,32617
58555,32608
58555,32598
58555,32342
58555,32332
58557,32323
58559,32313
58562,32304
58566,32296
58571,32287
58577,32280
58583,32272
58591,32266
58598,32260
58607,32255
58615,32251
58624,32248
58634,32245
58643,32244
58653,32244
59007,32244
59017,32244
" /> 
<polyline style="fill-rule:evenodd;"
points="59017,31437
59027,31438
59036,31441
59045,31444
59054,31448
59062,31453
59070,31459
59077,31465
59083,31472
59089,31480
59094,31489
59098,31497
59102,31506
59104,31516
59105,31525
59106,31535
59106,31791
59105,31800
59104,31810
59102,31819
59098,31829
59094,31837
59089,31846
59083,31853
59077,31860
59070,31867
59062,31873
59054,31878
59045,31882
59036,31885
59027,31887
59017,31889
59007,31889
58653,31889
58643,31889
58634,31887
58624,31885
58615,31882
58607,31878
58598,31873
58591,31867
58583,31860
58577,31853
58571,31846
58566,31837
58562,31829
58559,31819
58557,31810
58555,31800
58555,31791
58555,31535
58555,31525
58557,31516
58559,31506
58562,31497
58566,31489
58571,31480
58577,31472
58583,31465
58591,31459
58598,31453
58607,31448
58615,31444
58624,31441
58634,31438
58643,31437
58653,31437
59007,31437
59017,31437
" /> 
<polyline style="fill-rule:evenodd;"
points="63710,31437
63719,31438
63729,31441
63738,31444
63747,31448
63755,31453
63763,31459
63770,31465
63776,31472
63782,31480
63787,31489
63791,31497
63794,31506
63797,31516
63798,31525
63799,31535
63799,31791
63798,31800
63797,31810
63794,31819
63791,31829
63787,31837
63782,31846
63776,31853
63770,31860
63763,31867
63755,31873
63747,31878
63738,31882
63729,31885
63719,31887
63710,31889
63700,31889
63346,31889
63336,31889
63327,31887
63317,31885
63308,31882
63300,31878
63291,31873
63284,31867
63276,31860
63270,31853
63264,31846
63259,31837
63255,31829
63252,31819
63249,31810
63248,31800
63248,31791
63248,31535
63248,31525
63249,31516
63252,31506
63255,31497
63259,31489
63264,31480
63270,31472
63276,31465
63284,31459
63291,31453
63300,31448
63308,31444
63317,31441
63327,31438
63336,31437
63346,31437
63700,31437
63710,31437
" /> 
<polyline style="fill-rule:evenodd;"
points="63710,32244
63719,32245
63729,32248
63738,32251
63747,32255
63755,32260
63763,32266
63770,32272
63776,32280
63782,32287
63787,32296
63791,32304
63794,32313
63797,32323
63798,32332
63799,32342
63799,32598
63798,32608
63797,32617
63794,32626
63791,32636
63787,32644
63782,32653
63776,32660
63770,32668
63763,32674
63755,32680
63747,32685
63738,32689
63729,32692
63719,32694
63710,32696
63700,32696
63346,32696
63336,32696
63327,32694
63317,32692
63308,32689
63300,32685
63291,32680
63284,32674
63276,32668
63270,32660
63264,32653
63259,32644
63255,32636
63252,32626
63249,32617
63248,32608
63248,32598
63248,32342
63248,32332
63249,32323
63252,32313
63255,32304
63259,32296
63264,32287
63270,32280
63276,32272
63284,32266
63291,32260
63300,32255
63308,32251
63317,32248
63327,32245
63336,32244
63346,32244
63700,32244
63710,32244
" /> 
<polyline style="fill-rule:evenodd;"
points="42324,36799
42334,36801
42343,36803
42352,36806
42361,36810
42369,36815
42377,36821
42384,36828
42391,36835
42396,36842
42401,36851
42405,36859
42409,36869
42411,36878
42412,36887
42413,36897
42413,37251
42412,37261
42411,37271
42409,37280
42405,37289
42401,37298
42396,37306
42391,37314
42384,37321
42377,37328
42369,37333
42361,37338
42352,37342
42343,37346
42334,37348
42324,37349
42314,37350
42059,37350
42049,37349
42039,37348
42030,37346
42021,37342
42012,37338
42004,37333
41996,37328
41989,37321
41982,37314
41977,37306
41972,37298
41968,37289
41964,37280
41962,37271
41961,37261
41960,37251
41960,36897
41961,36887
41962,36878
41964,36869
41968,36859
41972,36851
41977,36842
41982,36835
41989,36828
41996,36821
42004,36815
42012,36810
42021,36806
42030,36803
42039,36801
42049,36799
42059,36799
42314,36799
42324,36799
" /> 
<polyline style="fill-rule:evenodd;"
points="41517,36799
41527,36801
41536,36803
41545,36806
41554,36810
41562,36815
41570,36821
41577,36828
41583,36835
41589,36842
41594,36851
41598,36859
41602,36869
41604,36878
41605,36887
41606,36897
41606,37251
41605,37261
41604,37271
41602,37280
41598,37289
41594,37298
41589,37306
41583,37314
41577,37321
41570,37328
41562,37333
41554,37338
41545,37342
41536,37346
41527,37348
41517,37349
41507,37350
41251,37350
41242,37349
41232,37348
41223,37346
41214,37342
41205,37338
41197,37333
41189,37328
41182,37321
41175,37314
41170,37306
41165,37298
41161,37289
41157,37280
41155,37271
41154,37261
41153,37251
41153,36897
41154,36887
41155,36878
41157,36869
41161,36859
41165,36851
41170,36842
41175,36835
41182,36828
41189,36821
41197,36815
41205,36810
41214,36806
41223,36803
41232,36801
41242,36799
41251,36799
41507,36799
41517,36799
" /> 
<polyline style="fill-rule:evenodd;"
points="45201,36805
45210,36807
45220,36809
45229,36812
45237,36816
45246,36821
45254,36827
45261,36833
45267,36841
45273,36848
45278,36857
45282,36865
45285,36874
45288,36884
45289,36893
45290,36903
45290,37257
45289,37267
45288,37277
45285,37286
45282,37295
45278,37304
45273,37312
45267,37320
45261,37327
45254,37333
45246,37339
45237,37344
45229,37348
45220,37352
45210,37354
45201,37355
45191,37356
44935,37356
44926,37355
44916,37354
44907,37352
44898,37348
44889,37344
44881,37339
44873,37333
44866,37327
44859,37320
44853,37312
44848,37304
44844,37295
44841,37286
44839,37277
44837,37267
44837,37257
44837,36903
44837,36893
44839,36884
44841,36874
44844,36865
44848,36857
44853,36848
44859,36841
44866,36833
44873,36827
44881,36821
44889,36816
44898,36812
44907,36809
44916,36807
44926,36805
44935,36805
45191,36805
45201,36805
" /> 
<polyline style="fill-rule:evenodd;"
points="46008,36805
46017,36807
46027,36809
46036,36812
46045,36816
46053,36821
46061,36827
46068,36833
46074,36841
46080,36848
46085,36857
46089,36865
46092,36874
46095,36884
46096,36893
46097,36903
46097,37257
46096,37267
46095,37277
46092,37286
46089,37295
46085,37304
46080,37312
46074,37320
46068,37327
46061,37333
46053,37339
46045,37344
46036,37348
46027,37352
46017,37354
46008,37355
45998,37356
45742,37356
45733,37355
45723,37354
45714,37352
45705,37348
45696,37344
45688,37339
45680,37333
45673,37327
45666,37320
45660,37312
45655,37304
45651,37295
45648,37286
45646,37277
45644,37267
45644,37257
45644,36903
45644,36893
45646,36884
45648,36874
45651,36865
45655,36857
45660,36848
45666,36841
45673,36833
45680,36827
45688,36821
45696,36816
45705,36812
45714,36809
45723,36807
45733,36805
45742,36805
45998,36805
46008,36805
" /> 
<polyline style="fill-rule:evenodd;"
points="45198,33957
45208,33958
45217,33960
45226,33964
45235,33968
45243,33973
45251,33979
45258,33985
45265,33992
45270,34000
45275,34008
45279,34017
45283,34026
45285,34035
45286,34045
45287,34055
45287,34409
45286,34419
45285,34428
45283,34438
45279,34447
45275,34455
45270,34464
45265,34471
45258,34479
45251,34485
45243,34491
45235,34496
45226,34500
45217,34503
45208,34505
45198,34507
45188,34507
44933,34507
44923,34507
44913,34505
44904,34503
44895,34500
44886,34496
44878,34491
44870,34485
44863,34479
44856,34471
44851,34464
44846,34455
44842,34447
44838,34438
44836,34428
44835,34419
44834,34409
44834,34055
44835,34045
44836,34035
44838,34026
44842,34017
44846,34008
44851,34000
44856,33992
44863,33985
44870,33979
44878,33973
44886,33968
44895,33964
44904,33960
44913,33958
44923,33957
44933,33956
45188,33956
45198,33957
" /> 
<polyline style="fill-rule:evenodd;"
points="46005,33957
46015,33958
46024,33960
46033,33964
46042,33968
46050,33973
46058,33979
46065,33985
46072,33992
46077,34000
46082,34008
46086,34017
46090,34026
46092,34035
46094,34045
46094,34055
46094,34409
46094,34419
46092,34428
46090,34438
46086,34447
46082,34455
46077,34464
46072,34471
46065,34479
46058,34485
46050,34491
46042,34496
46033,34500
46024,34503
46015,34505
46005,34507
45996,34507
45740,34507
45730,34507
45720,34505
45711,34503
45702,34500
45693,34496
45685,34491
45677,34485
45670,34479
45664,34471
45658,34464
45653,34455
45649,34447
45645,34438
45643,34428
45642,34419
45641,34409
45641,34055
45642,34045
45643,34035
45645,34026
45649,34017
45653,34008
45658,34000
45664,33992
45670,33985
45677,33979
45685,33973
45693,33968
45702,33964
45711,33960
45720,33958
45730,33957
45740,33956
45996,33956
46005,33957
" /> 
<polyline style="fill-rule:evenodd;"
points="52450,36805
52460,36807
52469,36809
52478,36812
52487,36816
52495,36821
52503,36827
52510,36833
52517,36841
52522,36848
52527,36857
52531,36865
52535,36874
52537,36884
52538,36893
52539,36903
52539,37257
52538,37267
52537,37277
52535,37286
52531,37295
52527,37304
52522,37312
52517,37320
52510,37327
52503,37333
52495,37339
52487,37344
52478,37348
52469,37352
52460,37354
52450,37355
52440,37356
52185,37356
52175,37355
52165,37354
52156,37352
52147,37348
52138,37344
52130,37339
52122,37333
52115,37327
52108,37320
52103,37312
52098,37304
52094,37295
52090,37286
52088,37277
52087,37267
52086,37257
52086,36903
52087,36893
52088,36884
52090,36874
52094,36865
52098,36857
52103,36848
52108,36841
52115,36833
52122,36827
52130,36821
52138,36816
52147,36812
52156,36809
52165,36807
52175,36805
52185,36805
52440,36805
52450,36805
" /> 
<polyline style="fill-rule:evenodd;"
points="53257,36805
53267,36807
53276,36809
53285,36812
53294,36816
53302,36821
53310,36827
53317,36833
53324,36841
53329,36848
53334,36857
53338,36865
53342,36874
53344,36884
53345,36893
53346,36903
53346,37257
53345,37267
53344,37277
53342,37286
53338,37295
53334,37304
53329,37312
53324,37320
53317,37327
53310,37333
53302,37339
53294,37344
53285,37348
53276,37352
53267,37354
53257,37355
53248,37356
52992,37356
52982,37355
52972,37354
52963,37352
52954,37348
52945,37344
52937,37339
52929,37333
52922,37327
52916,37320
52910,37312
52905,37304
52901,37295
52897,37286
52895,37277
52894,37267
52893,37257
52893,36903
52894,36893
52895,36884
52897,36874
52901,36865
52905,36857
52910,36848
52916,36841
52922,36833
52929,36827
52937,36821
52945,36816
52954,36812
52963,36809
52972,36807
52982,36805
52992,36805
53248,36805
53257,36805
" /> 
<polyline style="fill-rule:evenodd;"
points="40263,33596
40263,33084
40578,33084
40578,33596
40263,33596
" /> 
<polyline style="fill-rule:evenodd;"
points="39763,33596
39763,33084
40078,33084
40078,33596
39763,33596
" /> 
<polyline style="fill-rule:evenodd;"
points="39263,33596
39263,33084
39578,33084
39578,33596
39263,33596
" /> 
<polyline style="fill-rule:evenodd;"
points="39263,37336
39263,36824
39578,36824
39578,37336
39263,37336
" /> 
<polyline style="fill-rule:evenodd;"
points="39763,37336
39763,36824
40078,36824
40078,37336
39763,37336
" /> 
<polyline style="fill-rule:evenodd;"
points="40263,37336
40263,36824
40578,36824
40578,37336
40263,37336
" /> 
<polyline style="fill-rule:evenodd;"
points="43968,37336
43968,36824
44283,36824
44283,37336
43968,37336
" /> 
<polyline style="fill-rule:evenodd;"
points="43468,37336
43468,36824
43783,36824
43783,37336
43468,37336
" /> 
<polyline style="fill-rule:evenodd;"
points="42968,37336
42968,36824
43283,36824
43283,37336
42968,37336
" /> 
<polyline style="fill-rule:evenodd;"
points="42968,33596
42968,33084
43283,33084
43283,33596
42968,33596
" /> 
<polyline style="fill-rule:evenodd;"
points="43468,33596
43468,33084
43783,33084
43783,33596
43468,33596
" /> 
<polyline style="fill-rule:evenodd;"
points="43968,33596
43968,33084
44283,33084
44283,33596
43968,33596
" /> 
<polyline style="fill-rule:evenodd;"
points="46988,36824
46988,37336
46673,37336
46673,36824
46988,36824
" /> 
<polyline style="fill-rule:evenodd;"
points="47488,36824
47488,37336
47173,37336
47173,36824
47488,36824
" /> 
<polyline style="fill-rule:evenodd;"
points="47988,36824
47988,37336
47673,37336
47673,36824
47988,36824
" /> 
<polyline style="fill-rule:evenodd;"
points="47988,33084
47988,33596
47673,33596
47673,33084
47988,33084
" /> 
<polyline style="fill-rule:evenodd;"
points="47488,33084
47488,33596
47173,33596
47173,33084
47488,33084
" /> 
<polyline style="fill-rule:evenodd;"
points="46988,33084
46988,33596
46673,33596
46673,33084
46988,33084
" /> 
<polyline style="fill-rule:evenodd;"
points="51377,37336
51377,36824
51692,36824
51692,37336
51377,37336
" /> 
<polyline style="fill-rule:evenodd;"
points="50877,37336
50877,36824
51192,36824
51192,37336
50877,37336
" /> 
<polyline style="fill-rule:evenodd;"
points="50377,37336
50377,36824
50692,36824
50692,37336
50377,37336
" /> 
<polyline style="fill-rule:evenodd;"
points="50377,33596
50377,33084
50692,33084
50692,33596
50377,33596
" /> 
<polyline style="fill-rule:evenodd;"
points="50877,33596
50877,33084
51192,33084
51192,33596
50877,33596
" /> 
<polyline style="fill-rule:evenodd;"
points="51377,33596
51377,33084
51692,33084
51692,33596
51377,33596
" /> 
</g>
<g style="fill:#FFFFFF; fill-opacity:1.0; 
stroke:#FFFFFF; stroke-width:669.291; stroke-opacity:1; 
stroke-linecap:round; stroke-linejoin:round;">
</g>
<g style="fill:#FFFFFF; fill-opacity:0.0; 
stroke:#FFFFFF; stroke-width:669.291; stroke-opacity:1; 
stroke-linecap:round; stroke-linejoin:round;">
<path d="M49074 40200
L49074 40200
" />
<path d="M50074 40200
L50074 40200
" />
<path d="M51074 40200
L51074 40200
" />
<path d="M52074 40200
L52074 40200
" />
<path d="M53074 40200
L53074 40200
" />
<path d="M54074 40200
L54074 40200
" />
<path d="M55074 40200
L55074 40200
" />
<path d="M56074 40200
L56074 40200
" />
<path d="M57074 40200
L57074 40200
" />
</g>
<g style="fill:#FFFFFF; fill-opacity:0.0; 
stroke:#FFFFFF; stroke-width:0; stroke-opacity:1; 
stroke-linecap:round; stroke-linejoin:round;">
</g>
<g style="fill:#FFFFFF; fill-opacity:1.0; 
stroke:#FFFFFF; stroke-width:0; stroke-opacity:1; 
stroke-linecap:round; stroke-linejoin:round;">
<polyline style="fill-rule:evenodd;"
points="57740,39866
58409,39866
58409,40535
57740,40535
57740,39866
" /> 
<polyline style="fill-rule:evenodd;"
points="49413,29055
48744,29055
48744,28385
49413,28385
49413,29055
" /> 
</g>
<g style="fill:#FFFFFF; fill-opacity:1.0; 
stroke:#FFFFFF; stroke-width:669.291; stroke-opacity:1; 
stroke-linecap:round; stroke-linejoin:round;">
</g>
<g style="fill:#FFFFFF; fill-opacity:0.0; 
stroke:#FFFFFF; stroke-width:669.291; stroke-opacity:1; 
stroke-linecap:round; stroke-linejoin:round;">
<path d="M50078 28720
L50078 28720
" />
<path d="M51078 28720
L51078 28720
" />
<path d="M52078 28720
L52078 28720
" />
<path d="M53078 28720
L53078 28720
" />
<path d="M54078 28720
L54078 28720
" />
<path d="M55078 28720
L55078 28720
" />
<path d="M56078 28720
L56078 28720
" />
<path d="M57078 28720
L57078 28720
" />
<path d="M58078 28720
L58078 28720
" />
</g>
<g style="fill:#FFFFFF; fill-opacity:0.0; 
stroke:#FFFFFF; stroke-width:0; stroke-opacity:1; 
stroke-linecap:round; stroke-linejoin:round;">
</g>
<g style="fill:#FFFFFF; fill-opacity:1.0; 
stroke:#FFFFFF; stroke-width:0; stroke-opacity:1; 
stroke-linecap:round; stroke-linejoin:round;">
<polyline style="fill-rule:evenodd;"
points="70395,32244
70405,32245
70414,32248
70423,32251
70432,32255
70440,32260
70448,32266
70455,32272
70461,32280
70467,32287
70472,32296
70476,32304
70480,32313
70482,32323
70483,32332
70484,32342
70484,32598
70483,32608
70482,32617
70480,32626
70476,32636
70472,32644
70467,32653
70461,32660
70455,32668
70448,32674
70440,32680
70432,32685
70423,32689
70414,32692
70405,32694
70395,32696
70385,32696
70031,32696
70021,32696
70012,32694
70002,32692
69993,32689
69985,32685
69976,32680
69969,32674
69961,32668
69955,32660
69949,32653
69944,32644
69940,32636
69937,32626
69934,32617
69933,32608
69933,32598
69933,32342
69933,32332
69934,32323
69937,32313
69940,32304
69944,32296
69949,32287
69955,32280
69961,32272
69969,32266
69976,32260
69985,32255
69993,32251
70002,32248
70012,32245
70021,32244
70031,32244
70385,32244
70395,32244
" /> 
<polyline style="fill-rule:evenodd;"
points="70395,31437
70405,31438
70414,31441
70423,31444
70432,31448
70440,31453
70448,31459
70455,31465
70461,31472
70467,31480
70472,31489
70476,31497
70480,31506
70482,31516
70483,31525
70484,31535
70484,31791
70483,31800
70482,31810
70480,31819
70476,31829
70472,31837
70467,31846
70461,31853
70455,31860
70448,31867
70440,31873
70432,31878
70423,31882
70414,31885
70405,31887
70395,31889
70385,31889
70031,31889
70021,31889
70012,31887
70002,31885
69993,31882
69985,31878
69976,31873
69969,31867
69961,31860
69955,31853
69949,31846
69944,31837
69940,31829
69937,31819
69934,31810
69933,31800
69933,31791
69933,31535
69933,31525
69934,31516
69937,31506
69940,31497
69944,31489
69949,31480
69955,31472
69961,31465
69969,31459
69976,31453
69985,31448
69993,31444
70002,31441
70012,31438
70021,31437
70031,31437
70385,31437
70395,31437
" /> 
<polyline style="fill-rule:evenodd;"
points="42324,33057
42334,33058
42343,33061
42352,33064
42361,33068
42369,33073
42377,33079
42384,33085
42391,33093
42396,33100
42401,33109
42405,33117
42409,33126
42411,33136
42412,33145
42413,33155
42413,33509
42412,33519
42411,33529
42409,33538
42405,33547
42401,33556
42396,33564
42391,33572
42384,33579
42377,33585
42369,33591
42361,33596
42352,33600
42343,33604
42334,33606
42324,33607
42314,33608
42059,33608
42049,33607
42039,33606
42030,33604
42021,33600
42012,33596
42004,33591
41996,33585
41989,33579
41982,33572
41977,33564
41972,33556
41968,33547
41964,33538
41962,33529
41961,33519
41960,33509
41960,33155
41961,33145
41962,33136
41964,33126
41968,33117
41972,33109
41977,33100
41982,33093
41989,33085
41996,33079
42004,33073
42012,33068
42021,33064
42030,33061
42039,33058
42049,33057
42059,33057
42314,33057
42324,33057
" /> 
<polyline style="fill-rule:evenodd;"
points="41517,33057
41527,33058
41536,33061
41545,33064
41554,33068
41562,33073
41570,33079
41577,33085
41583,33093
41589,33100
41594,33109
41598,33117
41602,33126
41604,33136
41605,33145
41606,33155
41606,33509
41605,33519
41604,33529
41602,33538
41598,33547
41594,33556
41589,33564
41583,33572
41577,33579
41570,33585
41562,33591
41554,33596
41545,33600
41536,33604
41527,33606
41517,33607
41507,33608
41251,33608
41242,33607
41232,33606
41223,33604
41214,33600
41205,33596
41197,33591
41189,33585
41182,33579
41175,33572
41170,33564
41165,33556
41161,33547
41157,33538
41155,33529
41154,33519
41153,33509
41153,33155
41154,33145
41155,33136
41157,33126
41161,33117
41165,33109
41170,33100
41175,33093
41182,33085
41189,33079
41197,33073
41205,33068
41214,33064
41223,33061
41232,33058
41242,33057
41251,33057
41507,33057
41517,33057
" /> 
<polyline style="fill-rule:evenodd;"
points="45201,33065
45210,33066
45220,33069
45229,33072
45237,33076
45246,33081
45254,33087
45261,33093
45267,33100
45273,33108
45278,33116
45282,33125
45285,33134
45288,33144
45289,33153
45290,33163
45290,33517
45289,33527
45288,33536
45285,33546
45282,33555
45278,33564
45273,33572
45267,33580
45261,33587
45254,33593
45246,33599
45237,33604
45229,33608
45220,33611
45210,33614
45201,33615
45191,33616
44935,33616
44926,33615
44916,33614
44907,33611
44898,33608
44889,33604
44881,33599
44873,33593
44866,33587
44859,33580
44853,33572
44848,33564
44844,33555
44841,33546
44839,33536
44837,33527
44837,33517
44837,33163
44837,33153
44839,33144
44841,33134
44844,33125
44848,33116
44853,33108
44859,33100
44866,33093
44873,33087
44881,33081
44889,33076
44898,33072
44907,33069
44916,33066
44926,33065
44935,33064
45191,33064
45201,33065
" /> 
<polyline style="fill-rule:evenodd;"
points="46008,33065
46017,33066
46027,33069
46036,33072
46045,33076
46053,33081
46061,33087
46068,33093
46074,33100
46080,33108
46085,33116
46089,33125
46092,33134
46095,33144
46096,33153
46097,33163
46097,33517
46096,33527
46095,33536
46092,33546
46089,33555
46085,33564
46080,33572
46074,33580
46068,33587
46061,33593
46053,33599
46045,33604
46036,33608
46027,33611
46017,33614
46008,33615
45998,33616
45742,33616
45733,33615
45723,33614
45714,33611
45705,33608
45696,33604
45688,33599
45680,33593
45673,33587
45666,33580
45660,33572
45655,33564
45651,33555
45648,33546
45646,33536
45644,33527
45644,33517
45644,33163
45644,33153
45646,33144
45648,33134
45651,33125
45655,33116
45660,33108
45666,33100
45673,33093
45680,33087
45688,33081
45696,33076
45705,33072
45714,33069
45723,33066
45733,33065
45742,33064
45998,33064
46008,33065
" /> 
<polyline style="fill-rule:evenodd;"
points="51722,32256
51731,32257
51741,32260
51750,32263
51758,32267
51767,32272
51775,32278
51782,32284
51788,32291
51794,32299
51799,32307
51803,32316
51806,32325
51809,32335
51810,32344
51811,32354
51811,32610
51810,32619
51809,32629
51806,32638
51803,32647
51799,32656
51794,32664
51788,32672
51782,32679
51775,32686
51767,32692
51758,32697
51750,32701
51741,32704
51731,32706
51722,32708
51712,32708
51358,32708
51348,32708
51339,32706
51329,32704
51320,32701
51311,32697
51303,32692
51295,32686
51288,32679
51282,32672
51276,32664
51271,32656
51267,32647
51264,32638
51261,32629
51260,32619
51259,32610
51259,32354
51260,32344
51261,32335
51264,32325
51267,32316
51271,32307
51276,32299
51282,32291
51288,32284
51295,32278
51303,32272
51311,32267
51320,32263
51329,32260
51339,32257
51348,32256
51358,32255
51712,32255
51722,32256
" /> 
<polyline style="fill-rule:evenodd;"
points="51722,31449
51731,31450
51741,31453
51750,31456
51758,31460
51767,31465
51775,31471
51782,31477
51788,31484
51794,31492
51799,31500
51803,31509
51806,31518
51809,31528
51810,31537
51811,31547
51811,31803
51810,31812
51809,31822
51806,31831
51803,31840
51799,31849
51794,31857
51788,31865
51782,31872
51775,31879
51767,31884
51758,31889
51750,31894
51741,31897
51731,31899
51722,31901
51712,31901
51358,31901
51348,31901
51339,31899
51329,31897
51320,31894
51311,31889
51303,31884
51295,31879
51288,31872
51282,31865
51276,31857
51271,31849
51267,31840
51264,31831
51261,31822
51260,31812
51259,31803
51259,31547
51260,31537
51261,31528
51264,31518
51267,31509
51271,31500
51276,31492
51282,31484
51288,31477
51295,31471
51303,31465
51311,31460
51320,31456
51329,31453
51339,31450
51348,31449
51358,31448
51712,31448
51722,31449
" /> 
<polyline style="fill-rule:evenodd;"
points="54452,37169
53822,37169
53822,36224
54452,36224
54452,37169
" /> 
</g>
<g style="fill:#FFFFFF; fill-opacity:1.0; 
stroke:#FFFFFF; stroke-width:629.921; stroke-opacity:1; 
stroke-linecap:round; stroke-linejoin:round;">
</g>
<g style="fill:#FFFFFF; fill-opacity:0.0; 
stroke:#FFFFFF; stroke-width:629.921; stroke-opacity:1; 
stroke-linecap:round; stroke-linejoin:round;">
<path d="M57137 33854
L57137 33539
" />
<path d="M55137 36854
L55137 36539
" />
<path d="M56137 33854
L56137 33539
" />
<path d="M56137 36854
L56137 36539
" />
<path d="M55137 33854
L55137 33539
" />
<path d="M57137 36854
L57137 36539
" />
<path d="M54137 33854
L54137 33539
" />
</g>
<g style="fill:#FFFFFF; fill-opacity:0.0; 
stroke:#FFFFFF; stroke-width:0; stroke-opacity:1; 
stroke-linecap:round; stroke-linejoin:round;">
</g>
<g style="fill:#FFFFFF; fill-opacity:1.0; 
stroke:#FFFFFF; stroke-width:0; stroke-opacity:1; 
stroke-linecap:round; stroke-linejoin:round;">
<polyline style="fill-rule:evenodd;"
points="59145,37169
58515,37169
58515,36224
59145,36224
59145,37169
" /> 
</g>
<g style="fill:#FFFFFF; fill-opacity:1.0; 
stroke:#FFFFFF; stroke-width:629.921; stroke-opacity:1; 
stroke-linecap:round; stroke-linejoin:round;">
</g>
<g style="fill:#FFFFFF; fill-opacity:0.0; 
stroke:#FFFFFF; stroke-width:629.921; stroke-opacity:1; 
stroke-linecap:round; stroke-linejoin:round;">
<path d="M61830 33854
L61830 33539
" />
<path d="M59830 36854
L59830 36539
" />
<path d="M60830 33854
L60830 33539
" />
<path d="M60830 36854
L60830 36539
" />
<path d="M59830 33854
L59830 33539
" />
<path d="M61830 36854
L61830 36539
" />
<path d="M58830 33854
L58830 33539
" />
<path d="M63523 33854
L63523 33539
" />
<path d="M66523 36854
L66523 36539
" />
<path d="M64523 33854
L64523 33539
" />
<path d="M65523 36854
L65523 36539
" />
<path d="M65523 33854
L65523 33539
" />
<path d="M64523 36854
L64523 36539
" />
<path d="M66523 33854
L66523 33539
" />
</g>
<g style="fill:#FFFFFF; fill-opacity:0.0; 
stroke:#FFFFFF; stroke-width:0; stroke-opacity:1; 
stroke-linecap:round; stroke-linejoin:round;">
</g>
<g style="fill:#FFFFFF; fill-opacity:1.0; 
stroke:#FFFFFF; stroke-width:0; stroke-opacity:1; 
stroke-linecap:round; stroke-linejoin:round;">
<polyline style="fill-rule:evenodd;"
points="63838,37169
63208,37169
63208,36224
63838,36224
63838,37169
" /> 
</g>
<g style="fill:#FFFFFF; fill-opacity:1.0; 
stroke:#FFFFFF; stroke-width:629.921; stroke-opacity:1; 
stroke-linecap:round; stroke-linejoin:round;">
</g>
<g style="fill:#FFFFFF; fill-opacity:0.0; 
stroke:#FFFFFF; stroke-width:629.921; stroke-opacity:1; 
stroke-linecap:round; stroke-linejoin:round;">
<path d="M71208 36527
L71208 36842
" />
<path d="M68208 33527
L68208 33842
" />
<path d="M70208 36527
L70208 36842
" />
<path d="M69208 33527
L69208 33842
" />
<path d="M69208 36527
L69208 36842
" />
<path d="M70208 33527
L70208 33842
" />
<path d="M68208 36527
L68208 36842
" />
</g>
<g style="fill:#FFFFFF; fill-opacity:0.0; 
stroke:#FFFFFF; stroke-width:0; stroke-opacity:1; 
stroke-linecap:round; stroke-linejoin:round;">
</g>
<g style="fill:#FFFFFF; fill-opacity:1.0; 
stroke:#FFFFFF; stroke-width:0; stroke-opacity:1; 
stroke-linecap:round; stroke-linejoin:round;">
<polyline style="fill-rule:evenodd;"
points="70893,33212
71523,33212
71523,34157
70893,34157
70893,33212
" /> 
<polyline style="fill-rule:evenodd;"
points="49739,33065
49748,33066
49758,33069
49767,33072
49776,33076
49784,33081
49792,33087
49799,33093
49805,33100
49811,33108
49816,33116
49820,33125
49823,33134
49826,33144
49827,33153
49828,33163
49828,33517
49827,33527
49826,33536
49823,33546
49820,33555
49816,33564
49811,33572
49805,33580
49799,33587
49792,33593
49784,33599
49776,33604
49767,33608
49758,33611
49748,33614
49739,33615
49729,33616
49473,33616
49464,33615
49454,33614
49445,33611
49436,33608
49427,33604
49419,33599
49411,33593
49404,33587
49397,33580
49391,33572
49386,33564
49382,33555
49379,33546
49377,33536
49375,33527
49375,33517
49375,33163
49375,33153
49377,33144
49379,33134
49382,33125
49386,33116
49391,33108
49397,33100
49404,33093
49411,33087
49419,33081
49427,33076
49436,33072
49445,33069
49454,33066
49464,33065
49473,33064
49729,33064
49739,33065
" /> 
<polyline style="fill-rule:evenodd;"
points="48932,33065
48941,33066
48951,33069
48960,33072
48968,33076
48977,33081
48985,33087
48992,33093
48998,33100
49004,33108
49009,33116
49013,33125
49016,33134
49019,33144
49020,33153
49020,33163
49020,33517
49020,33527
49019,33536
49016,33546
49013,33555
49009,33564
49004,33572
48998,33580
48992,33587
48985,33593
48977,33599
48968,33604
48960,33608
48951,33611
48941,33614
48932,33615
48922,33616
48666,33616
48657,33615
48647,33614
48638,33611
48629,33608
48620,33604
48611,33599
48604,33593
48597,33587
48590,33580
48584,33572
48579,33564
48575,33555
48572,33546
48570,33536
48568,33527
48568,33517
48568,33163
48568,33153
48570,33144
48572,33134
48575,33125
48579,33116
48584,33108
48590,33100
48597,33093
48604,33087
48611,33081
48620,33076
48629,33072
48638,33069
48647,33066
48657,33065
48666,33064
48922,33064
48932,33065
" /> 
<polyline style="fill-rule:evenodd;"
points="56324,32244
56334,32245
56343,32248
56352,32251
56361,32255
56369,32260
56377,32266
56384,32272
56391,32280
56396,32287
56401,32296
56405,32304
56409,32313
56411,32323
56412,32332
56413,32342
56413,32598
56412,32608
56411,32617
56409,32626
56405,32636
56401,32644
56396,32653
56391,32660
56384,32668
56377,32674
56369,32680
56361,32685
56352,32689
56343,32692
56334,32694
56324,32696
56314,32696
55960,32696
55950,32696
55941,32694
55932,32692
55922,32689
55914,32685
55905,32680
55898,32674
55891,32668
55884,32660
55878,32653
55873,32644
55869,32636
55866,32626
55864,32617
55862,32608
55862,32598
55862,32342
55862,32332
55864,32323
55866,32313
55869,32304
55873,32296
55878,32287
55884,32280
55891,32272
55898,32266
55905,32260
55914,32255
55922,32251
55932,32248
55941,32245
55950,32244
55960,32244
56314,32244
56324,32244
" /> 
<polyline style="fill-rule:evenodd;"
points="56324,31437
56334,31438
56343,31441
56352,31444
56361,31448
56369,31453
56377,31459
56384,31465
56391,31472
56396,31480
56401,31489
56405,31497
56409,31506
56411,31516
56412,31525
56413,31535
56413,31791
56412,31800
56411,31810
56409,31819
56405,31829
56401,31837
56396,31846
56391,31853
56384,31860
56377,31867
56369,31873
56361,31878
56352,31882
56343,31885
56334,31887
56324,31889
56314,31889
55960,31889
55950,31889
55941,31887
55932,31885
55922,31882
55914,31878
55905,31873
55898,31867
55891,31860
55884,31853
55878,31846
55873,31837
55869,31829
55866,31819
55864,31810
55862,31800
55862,31791
55862,31535
55862,31525
55864,31516
55866,31506
55869,31497
55873,31489
55878,31480
55884,31472
55891,31465
55898,31459
55905,31453
55914,31448
55922,31444
55932,31441
55941,31438
55950,31437
55960,31437
56314,31437
56324,31437
" /> 
<polyline style="fill-rule:evenodd;"
points="61017,31437
61027,31438
61036,31441
61045,31444
61054,31448
61062,31453
61070,31459
61077,31465
61083,31472
61089,31480
61094,31489
61098,31497
61102,31506
61104,31516
61105,31525
61106,31535
61106,31791
61105,31800
61104,31810
61102,31819
61098,31829
61094,31837
61089,31846
61083,31853
61077,31860
61070,31867
61062,31873
61054,31878
61045,31882
61036,31885
61027,31887
61017,31889
61007,31889
60653,31889
60643,31889
60634,31887
60624,31885
60615,31882
60607,31878
60598,31873
60591,31867
60583,31860
60577,31853
60571,31846
60566,31837
60562,31829
60559,31819
60557,31810
60555,31800
60555,31791
60555,31535
60555,31525
60557,31516
60559,31506
60562,31497
60566,31489
60571,31480
60577,31472
60583,31465
60591,31459
60598,31453
60607,31448
60615,31444
60624,31441
60634,31438
60643,31437
60653,31437
61007,31437
61017,31437
" /> 
<polyline style="fill-rule:evenodd;"
points="61017,32244
61027,32245
61036,32248
61045,32251
61054,32255
61062,32260
61070,32266
61077,32272
61083,32280
61089,32287
61094,32296
61098,32304
61102,32313
61104,32323
61105,32332
61106,32342
61106,32598
61105,32608
61104,32617
61102,32626
61098,32636
61094,32644
61089,32653
61083,32660
61077,32668
61070,32674
61062,32680
61054,32685
61045,32689
61036,32692
61027,32694
61017,32696
61007,32696
60653,32696
60643,32696
60634,32694
60624,32692
60615,32689
60607,32685
60598,32680
60591,32674
60583,32668
60577,32660
60571,32653
60566,32644
60562,32636
60559,32626
60557,32617
60555,32608
60555,32598
60555,32342
60555,32332
60557,32323
60559,32313
60562,32304
60566,32296
60571,32287
60577,32280
60583,32272
60591,32266
60598,32260
60607,32255
60615,32251
60624,32248
60634,32245
60643,32244
60653,32244
61007,32244
61017,32244
" /> 
<polyline style="fill-rule:evenodd;"
points="65710,31437
65719,31438
65729,31441
65738,31444
65747,31448
65755,31453
65763,31459
65770,31465
65776,31472
65782,31480
65787,31489
65791,31497
65794,31506
65797,31516
65798,31525
65799,31535
65799,31791
65798,31800
65797,31810
65794,31819
65791,31829
65787,31837
65782,31846
65776,31853
65770,31860
65763,31867
65755,31873
65747,31878
65738,31882
65729,31885
65719,31887
65710,31889
65700,31889
65346,31889
65336,31889
65327,31887
65317,31885
65308,31882
65300,31878
65291,31873
65284,31867
65276,31860
65270,31853
65264,31846
65259,31837
65255,31829
65252,31819
65249,31810
65248,31800
65248,31791
65248,31535
65248,31525
65249,31516
65252,31506
65255,31497
65259,31489
65264,31480
65270,31472
65276,31465
65284,31459
65291,31453
65300,31448
65308,31444
65317,31441
65327,31438
65336,31437
65346,31437
65700,31437
65710,31437
" /> 
<polyline style="fill-rule:evenodd;"
points="65710,32244
65719,32245
65729,32248
65738,32251
65747,32255
65755,32260
65763,32266
65770,32272
65776,32280
65782,32287
65787,32296
65791,32304
65794,32313
65797,32323
65798,32332
65799,32342
65799,32598
65798,32608
65797,32617
65794,32626
65791,32636
65787,32644
65782,32653
65776,32660
65770,32668
65763,32674
65755,32680
65747,32685
65738,32689
65729,32692
65719,32694
65710,32696
65700,32696
65346,32696
65336,32696
65327,32694
65317,32692
65308,32689
65300,32685
65291,32680
65284,32674
65276,32668
65270,32660
65264,32653
65259,32644
65255,32636
65252,32626
65249,32617
65248,32608
65248,32598
65248,32342
65248,32332
65249,32323
65252,32313
65255,32304
65259,32296
65264,32287
65270,32280
65276,32272
65284,32266
65291,32260
65300,32255
65308,32251
65317,32248
65327,32245
65336,32244
65346,32244
65700,32244
65710,32244
" /> 
<circle cx="53208.7" cy="38425.2" r="236.22" /> 
</g>
<g style="fill:#FFFFFF; fill-opacity:1.0; 
stroke:#FFFFFF; stroke-width:39.3701; stroke-opacity:1; 
stroke-linecap:round; stroke-linejoin:round;">
</g>
<g style="fill:#FFFFFF; fill-opacity:1.0; 
stroke:#FFFFFF; stroke-width:0; stroke-opacity:1; 
stroke-linecap:round; stroke-linejoin:round;">
<circle cx="42661.4" cy="38425.2" r="236.22" /> 
</g>
<g style="fill:#FFFFFF; fill-opacity:1.0; 
stroke:#FFFFFF; stroke-width:39.3701; stroke-opacity:1; 
stroke-linecap:round; stroke-linejoin:round;">
</g>
<g style="fill:#FFFFFF; fill-opacity:1.0; 
stroke:#FFFFFF; stroke-width:0; stroke-opacity:1; 
stroke-linecap:round; stroke-linejoin:round;">
<circle cx="45807.1" cy="38425.2" r="236.22" /> 
</g>
<g style="fill:#FFFFFF; fill-opacity:1.0; 
stroke:#FFFFFF; stroke-width:39.3701; stroke-opacity:1; 
stroke-linecap:round; stroke-linejoin:round;">
</g>
<g style="fill:#FFFFFF; fill-opacity:1.0; 
stroke:#FFFFFF; stroke-width:0; stroke-opacity:1; 
stroke-linecap:round; stroke-linejoin:round;">
<circle cx="47897.6" cy="31937" r="236.22" /> 
</g>
<g style="fill:#FFFFFF; fill-opacity:1.0; 
stroke:#FFFFFF; stroke-width:39.3701; stroke-opacity:1; 
stroke-linecap:round; stroke-linejoin:round;">
</g>
<g style="fill:#FFFFFF; fill-opacity:1.0; 
stroke:#FFFFFF; stroke-width:196.85; stroke-opacity:1; 
stroke-linecap:round; stroke-linejoin:round;">
</g>
<g style="fill:#FFFFFF; fill-opacity:0.0; 
stroke:#FFFFFF; stroke-width:196.85; stroke-opacity:1; 
stroke-linecap:round; stroke-linejoin:round;">
<path d="M71208 36842
L71208 36685
" />
<path d="M68641 39409
L71208 36842
" />
<path d="M57476 39409
L68641 39409
" />
<path d="M57074 40200
L57074 39811
" />
<path d="M57074 39811
L57476 39409
" />
<path d="M72537 36685
L72551 36671
" />
<path d="M71208 36685
L72537 36685
" />
<path d="M41374 37080
L41379 37074
" />
<path d="M40421 37080
L41374 37080
" />
<path d="M44610 37080
L45063 37080
" />
<path d="M44125 37080
L44610 37080
" />
<path d="M51913 37080
L51535 37080
" />
<path d="M52312 37080
L51913 37080
" />
<path d="M52985 38425
L52312 37752
" />
<path d="M53208 38425
L52985 38425
" />
<path d="M52312 37752
L52312 37080
" />
<path d="M42503 38267
L42011 38267
" />
<path d="M42661 38425
L42503 38267
" />
<path d="M41379 37635
L41379 37074
" />
<path d="M42011 38267
L41379 37635
" />
<path d="M45535 38267
L45063 37795
" />
<path d="M45063 37795
L45063 37080
" />
<path d="M45807 38425
L45649 38267
" />
<path d="M45649 38267
L45535 38267
" />
<path d="M45868 34232
L46700 34232
" />
<path d="M46700 34232
L46830 34102
" />
<path d="M46830 34102
L46830 33340
" />
</g>
<g style="fill:#FFFFFF; fill-opacity:0.0; 
stroke:#FFFFFF; stroke-width:98.4252; stroke-opacity:1; 
stroke-linecap:round; stroke-linejoin:round;">
<path d="M54137 33125
L54137 32470
" />
<path d="M54137 33696
L54137 33125
" />
<path d="M58830 33125
L58830 32470
" />
<path d="M58830 33696
L58830 33125
" />
<path d="M63523 33696
L63523 32470
" />
</g>
<g style="fill:#FFFFFF; fill-opacity:0.0; 
stroke:#FFFFFF; stroke-width:196.85; stroke-opacity:1; 
stroke-linecap:round; stroke-linejoin:round;">
<path d="M46830 32322
L46830 33340
" />
<path d="M47897 31937
L47216 31937
" />
<path d="M47216 31937
L46830 32322
" />
</g>
<g style="fill:#FFFFFF; fill-opacity:0.0; 
stroke:#FFFFFF; stroke-width:98.4252; stroke-opacity:1; 
stroke-linecap:round; stroke-linejoin:round;">
<path d="M41372 33340
L41379 33332
" />
<path d="M40421 33340
L41372 33340
" />
</g>
<g style="fill:#FFFFFF; fill-opacity:0.0; 
stroke:#FFFFFF; stroke-width:196.85; stroke-opacity:1; 
stroke-linecap:round; stroke-linejoin:round;">
<path d="M49074 40200
L49074 39598
" />
<path d="M39921 37598
L39921 37080
" />
<path d="M41692 39370
L39921 37598
" />
<path d="M48846 39370
L41692 39370
" />
<path d="M49074 39598
L48846 39370
" />
<path d="M43625 38287
L43625 37080
" />
<path d="M44307 38968
L43625 38287
" />
<path d="M49657 38968
L44307 38968
" />
<path d="M50074 40200
L50074 39385
" />
<path d="M50074 39385
L49657 38968
" />
</g>
<g style="fill:#FFFFFF; fill-opacity:0.0; 
stroke:#FFFFFF; stroke-width:98.4252; stroke-opacity:1; 
stroke-linecap:round; stroke-linejoin:round;">
<path d="M44125 33340
L45063 33340
" />
</g>
<g style="fill:#FFFFFF; fill-opacity:0.0; 
stroke:#FFFFFF; stroke-width:196.85; stroke-opacity:1; 
stroke-linecap:round; stroke-linejoin:round;">
<path d="M46830 38106
L46830 37080
" />
<path d="M47311 38586
L46830 38106
" />
<path d="M50177 38586
L47311 38586
" />
<path d="M51074 40200
L51074 39484
" />
<path d="M51074 39484
L50177 38586
" />
<path d="M49847 33095
L49847 31956
" />
<path d="M49601 33340
L49847 33095
" />
<path d="M51078 30724
L51078 28720
" />
<path d="M49847 31956
L51078 30724
" />
<path d="M51035 37435
L51035 37080
" />
<path d="M51035 38688
L51035 37435
" />
<path d="M52074 39727
L51035 38688
" />
<path d="M52074 40200
L52074 39727
" />
<path d="M51535 33340
L51535 32482
" />
<path d="M69208 37464
L69208 36685
" />
<path d="M67688 38984
L69208 37464
" />
<path d="M56570 38984
L67688 38984
" />
<path d="M56074 40200
L56074 39480
" />
<path d="M56074 39480
L56570 38984
" />
<path d="M64523 37598
L64523 36696
" />
<path d="M63570 38551
L64523 37598
" />
<path d="M56181 38551
L63570 38551
" />
<path d="M55074 40200
L55074 39657
" />
<path d="M55074 39657
L56181 38551
" />
<path d="M54074 39727
L55699 38102
" />
<path d="M59413 38102
L59830 37685
" />
<path d="M59830 37685
L59830 36696
" />
<path d="M55699 38102
L59413 38102
" />
<path d="M54074 40200
L54074 39727
" />
<path d="M55137 37664
L55137 36696
" />
<path d="M53074 39727
L55137 37664
" />
<path d="M53074 40200
L53074 39727
" />
<path d="M42187 33017
L44200 31003
" />
<path d="M42187 33332
L42187 33017
" />
<path d="M44200 31003
L48114 31003
" />
<path d="M49078 30039
L49078 28720
" />
<path d="M48114 31003
L49078 30039
" />
<path d="M45870 33340
L45870 31849
" />
<path d="M48948 31354
L50078 30224
" />
<path d="M50078 30224
L50078 28720
" />
<path d="M46366 31354
L48948 31354
" />
<path d="M45870 31849
L46366 31354
" />
<path d="M51535 31675
L51535 30937
" />
<path d="M51535 30937
L52078 30393
" />
<path d="M52078 30393
L52078 28720
" />
<path d="M53078 29803
L53078 28720
" />
<path d="M53421 30145
L53078 29803
" />
<path d="M54066 30145
L53421 30145
" />
<path d="M55339 31417
L54066 30145
" />
<path d="M56137 31663
L55892 31417
" />
<path d="M55892 31417
L55339 31417
" />
<path d="M54078 29291
L54078 28720
" />
<path d="M55429 30641
L54078 29291
" />
<path d="M60830 31663
L59809 30641
" />
<path d="M59809 30641
L55429 30641
" />
<path d="M65523 31663
L64076 30216
" />
<path d="M64076 30216
L55956 30216
" />
<path d="M55078 29338
L55078 28720
" />
<path d="M55956 30216
L55078 29338
" />
<path d="M70208 31663
L66631 31663
" />
<path d="M66631 31663
L64728 29759
" />
<path d="M64728 29759
L56464 29759
" />
<path d="M56078 29374
L56078 28720
" />
<path d="M56464 29759
L56078 29374
" />
</g>
<g style="fill:#FFFFFF; fill-opacity:0.0; 
stroke:#FFFFFF; stroke-width:98.4252; stroke-opacity:1; 
stroke-linecap:round; stroke-linejoin:round;">
<path d="M70208 33685
L70208 32470
" />
<path d="M47330 32986
L47525 32791
" />
<path d="M47330 33340
L47330 32986
" />
<path d="M48560 32791
L47525 32791
" />
<path d="M48794 33025
L48560 32791
" />
<path d="M48794 33340
L48794 33025
" />
<path d="M56137 33696
L56137 32470
" />
<path d="M60830 33125
L60830 32470
" />
<path d="M60830 33696
L60830 33125
" />
<path d="M65523 33696
L65523 32470
" />
</g>
<g style="fill:#FFFFFF; fill-opacity:1.0; 
stroke:#FFFFFF; stroke-width:100; stroke-opacity:1; 
stroke-linecap:round; stroke-linejoin:round;">
<polyline style="fill-rule:evenodd;"
points="73726,34544
46869,34538
46951,34483
46971,34454
47052,34373
47081,34353
47158,34238
47179,34136
47179,34136
47185,34102
47179,34068
47179,33851
47488,33851
47585,33831
47586,33831
47623,33846
47718,33846
47780,33783
47780,33390
47880,33390
47880,33783
47943,33846
48037,33846
48129,33808
48200,33738
48238,33646
48238,33453
48175,33390
47880,33390
47780,33390
47772,33390
47772,33290
47780,33290
47780,33282
47880,33282
47880,33290
48175,33290
48238,33228
48238,33090
48327,33090
48313,33163
48313,33517
48340,33652
48416,33767
48531,33844
48666,33871
48922,33871
49057,33844
49172,33767
49198,33729
49223,33767
49338,33844
49473,33871
49729,33871
49864,33844
49979,33767
50056,33652
50082,33517
50082,33453
50127,33453
50127,33646
50166,33738
50236,33808
50328,33846
50422,33846
50485,33783
50485,33390
50190,33390
50127,33453
50082,33453
50082,33356
50098,33346
50157,33257
50190,33290
50485,33290
50485,32897
50422,32834
50328,32834
50236,32872
50195,32913
50195,32100
51187,31108
51187,31244
51108,31297
51031,31412
51004,31547
51004,31803
51031,31938
51108,32052
51146,32078
51108,32104
51031,32219
51004,32354
51004,32610
51031,32745
51088,32829
50877,32829
50780,32849
50779,32849
50742,32834
50647,32834
50585,32897
50585,33290
50593,33290
50593,33390
50585,33390
50585,33783
50647,33846
50742,33846
50779,33831
50780,33831
50877,33851
51192,33851
51285,33832
51377,33851
51692,33851
51790,33831
51873,33776
51928,33694
51947,33596
51947,33084
51928,32987
51883,32920
51883,32912
51962,32860
52039,32745
52065,32610
52065,32354
52039,32219
51962,32104
51923,32078
51962,32052
52039,31938
52065,31803
52065,31547
52039,31412
52022,31387
53612,31387
53612,31550
53674,31613
54087,31613
54087,31249
54187,31249
54187,31613
54600,31613
54663,31550
54663,31387
54625,31295
54554,31225
54463,31187
54250,31187
54187,31249
54087,31249
54025,31187
53812,31187
53720,31225
53650,31295
53612,31387
52022,31387
51962,31297
51883,31244
51883,31081
52300,30664
52329,30644
52378,30571
52406,30529
52412,30500
52427,30428
52427,30428
52433,30393
52427,30359
52427,29190
52500,29141
52578,29024
52657,29141
52730,29190
52730,29768
52723,29803
52730,29837
52730,29837
52750,29939
52827,30054
52856,30073
53150,30367
53170,30396
53199,30416
53199,30416
53232,30438
53285,30473
53386,30494
53386,30494
53421,30500
53455,30494
53922,30494
55068,31640
55088,31669
55117,31688
55117,31688
55138,31702
55203,31746
55304,31766
55304,31766
55339,31773
55373,31766
55607,31766
55607,31791
55634,31926
55710,32041
55749,32066
55710,32092
55634,32207
55607,32342
55607,32598
55634,32733
55710,32848
55825,32924
55838,32927
55838,33059
55730,33132
55637,33270
55545,33132
55358,33007
55137,32963
54917,33007
54730,33132
54637,33270
54545,33132
54437,33059
54437,32927
54450,32924
54564,32848
54641,32733
54668,32598
54668,32342
54641,32207
54564,32092
54564,32092
54625,32031
54663,31939
54663,31775
54600,31713
54187,31713
54187,31721
54087,31721
54087,31713
53674,31713
53612,31775
53612,31939
53650,32031
53711,32092
53710,32092
53634,32207
53607,32342
53607,32598
53634,32733
53710,32848
53825,32924
53838,32927
53838,33059
53730,33132
53605,33318
53572,33483
53572,33909
53605,34074
53730,34261
53917,34386
54137,34430
54358,34386
54545,34261
54637,34122
54730,34261
54917,34386
55137,34430
55358,34386
55545,34261
55637,34122
55730,34261
55917,34386
56137,34430
56358,34386
56545,34261
56638,34121
56773,34289
56967,34395
57000,34402
57087,34354
57087,33746
57187,33746
57187,34354
57275,34402
57307,34395
57501,34289
57640,34116
57702,33904
57702,33746
57187,33746
57087,33746
57079,33746
57079,33646
57087,33646
57087,33039
57187,33039
57187,33646
57702,33646
57702,33489
57640,33276
57501,33104
57307,32998
57275,32991
57187,33039
57087,33039
57000,32991
56967,32998
56773,33104
56638,33272
56545,33132
56437,33059
56437,32927
56450,32924
56564,32848
56641,32733
56668,32598
56668,32342
56641,32207
56564,32092
56526,32066
56564,32041
56641,31926
56668,31791
56668,31535
56641,31400
56632,31387
58305,31387
58305,31550
58367,31613
58780,31613
58780,31249
58880,31249
58880,31613
59293,31613
59356,31550
59356,31387
59318,31295
59247,31225
59156,31187
58943,31187
58880,31249
58780,31249
58718,31187
58505,31187
58413,31225
58343,31295
58305,31387
56632,31387
56564,31285
56450,31209
56314,31182
56153,31182
56143,31166
56028,31089
55926,31069
55926,31069
55892,31062
55858,31069
55483,31069
55406,30992
55429,30996
55463,30990
59664,30990
60300,31625
60300,31791
60327,31926
60403,32041
60442,32066
60403,32092
60327,32207
60300,32342
60300,32598
60327,32733
60403,32848
60518,32924
60531,32927
60531,33059
60423,33132
60330,33270
60238,33132
60051,33007
59830,32963
59610,33007
59423,33132
59330,33270
59238,33132
59129,33059
59129,32927
59143,32924
59257,32848
59334,32733
59361,32598
59361,32342
59334,32207
59257,32092
59257,32092
59318,32031
59356,31939
59356,31775
59293,31713
58880,31713
58880,31721
58780,31721
58780,31713
58367,31713
58305,31775
58305,31939
58343,32031
58404,32092
58403,32092
58327,32207
58300,32342
58300,32598
58327,32733
58403,32848
58518,32924
58531,32927
58531,33059
58423,33132
58298,33318
58265,33483
58265,33909
58298,34074
58423,34261
58610,34386
58830,34430
59051,34386
59238,34261
59330,34122
59423,34261
59610,34386
59830,34430
60051,34386
60238,34261
60330,34122
60423,34261
60610,34386
60830,34430
61051,34386
61238,34261
61331,34121
61466,34289
61660,34395
61693,34402
61780,34354
61780,33746
61880,33746
61880,34354
61968,34402
62000,34395
62194,34289
62333,34116
62395,33904
62395,33746
61880,33746
61780,33746
61772,33746
61772,33646
61780,33646
61780,33039
61880,33039
61880,33646
62395,33646
62395,33489
62333,33276
62194,33104
62000,32998
61968,32991
61880,33039
61780,33039
61693,32991
61660,32998
61466,33104
61331,33272
61238,33132
61129,33059
61129,32927
61143,32924
61257,32848
61334,32733
61361,32598
61361,32342
61334,32207
61257,32092
61219,32066
61257,32041
61334,31926
61361,31791
61361,31535
61334,31400
61325,31387
62998,31387
62998,31550
63060,31613
63473,31613
63473,31249
63573,31249
63573,31613
63986,31613
64049,31550
64049,31387
64011,31295
63940,31225
63848,31187
63636,31187
63573,31249
63473,31249
63411,31187
63198,31187
63106,31225
63036,31295
62998,31387
61325,31387
61257,31285
61143,31209
61007,31182
60842,31182
60225,30564
63932,30564
64993,31625
64993,31791
65020,31926
65096,32041
65135,32066
65096,32092
65020,32207
64993,32342
64993,32598
65020,32733
65096,32848
65211,32924
65224,32927
65224,33059
65116,33132
65023,33270
64930,33132
64744,33007
64523,32963
64303,33007
64116,33132
64023,33270
63930,33132
63822,33059
63822,32927
63835,32924
63950,32848
64027,32733
64054,32598
64054,32342
64027,32207
63950,32092
63950,32092
64011,32031
64049,31939
64049,31775
63986,31713
63573,31713
63573,31721
63473,31721
63473,31713
63060,31713
62998,31775
62998,31939
63036,32031
63097,32092
63096,32092
63020,32207
62993,32342
62993,32598
63020,32733
63096,32848
63211,32924
63224,32927
63224,33059
63116,33132
62991,33318
62958,33483
62958,33909
62991,34074
63116,34261
63303,34386
63523,34430
63744,34386
63930,34261
64023,34122
64116,34261
64303,34386
64523,34430
64744,34386
64930,34261
65023,34122
65116,34261
65303,34386
65523,34430
65744,34386
65930,34261
66024,34121
66159,34289
66353,34395
66386,34402
66473,34354
66473,33746
66573,33746
66573,34354
66661,34402
66693,34395
66887,34289
67026,34116
67088,33904
67088,33746
66573,33746
66473,33746
66465,33746
66465,33646
66473,33646
66473,33039
66573,33039
66573,33646
67088,33646
67088,33489
67083,33471
67643,33471
67643,33898
67676,34062
67801,34249
67988,34374
68208,34418
68429,34374
68615,34249
68709,34109
68844,34277
69038,34383
69071,34390
69158,34342
69158,33735
69150,33735
69150,33635
69158,33635
69158,33027
69071,32979
69038,32986
68844,33092
68709,33260
68615,33120
68429,32995
68208,32951
67988,32995
67801,33120
67676,33307
67643,33471
67083,33471
67026,33276
66887,33104
66693,32998
66661,32991
66573,33039
66473,33039
66386,32991
66353,32998
66159,33104
66024,33272
65930,33132
65822,33059
65822,32927
65835,32924
65950,32848
66027,32733
66054,32598
66054,32342
66027,32207
65950,32092
65912,32066
65950,32041
66027,31926
66054,31791
66054,31578
66361,31885
66380,31914
66409,31934
66409,31934
66487,31985
66495,31991
66597,32011
66597,32011
66631,32018
66666,32011
69762,32011
69781,32041
69820,32066
69781,32092
69705,32207
69678,32342
69678,32598
69705,32733
69781,32848
69896,32924
69909,32927
69909,33048
69801,33120
69707,33260
69572,33092
69378,32986
69346,32979
69258,33027
69258,33635
69266,33635
69266,33735
69258,33735
69258,34342
69346,34390
69378,34383
69572,34277
69707,34109
69801,34249
69988,34374
70208,34418
70429,34374
70615,34249
70647,34202
70658,34255
70713,34337
70796,34392
70893,34412
71523,34412
71621,34392
71703,34337
71759,34255
71778,34157
71778,33212
71759,33115
71703,33032
71621,32977
71523,32957
70893,32957
70796,32977
70713,33032
70658,33115
70647,33167
70615,33120
70507,33048
70507,32927
70521,32924
70635,32848
70712,32733
70739,32598
70739,32342
70712,32207
70635,32092
70597,32066
70635,32041
70712,31926
70739,31791
70739,31535
70712,31400
70635,31285
70521,31209
70385,31182
70031,31182
69896,31209
69781,31285
69762,31314
66776,31314
64998,29537
64979,29508
64864,29431
64762,29411
64762,29411
64728,29404
64694,29411
56608,29411
56427,29229
56427,29190
56500,29141
56578,29024
56657,29141
56850,29271
57021,29305
57136,29305
57306,29271
57500,29141
57584,29016
57608,29067
57776,29221
57938,29287
58028,29240
58028,28770
58128,28770
58128,29240
58219,29287
58380,29221
58549,29067
58646,28860
58598,28770
58128,28770
58028,28770
58020,28770
58020,28670
58028,28670
58028,28200
58128,28200
58128,28670
58598,28670
58646,28579
58549,28373
58380,28219
58219,28152
58128,28200
58028,28200
57938,28152
57776,28219
57608,28373
57584,28424
57500,28298
57306,28169
57136,28135
57021,28135
56850,28169
56657,28298
56578,28416
56500,28298
56306,28169
56136,28135
56021,28135
55850,28169
55657,28298
55578,28416
55500,28298
55306,28169
55136,28135
55021,28135
54850,28169
54657,28298
54578,28416
54500,28298
54306,28169
54136,28135
54021,28135
53850,28169
53657,28298
53578,28416
53500,28298
53306,28169
53136,28135
53021,28135
52850,28169
52657,28298
52578,28416
52500,28298
52306,28169
52136,28135
52021,28135
51850,28169
51657,28298
51578,28416
51500,28298
51306,28169
51136,28135
51021,28135
50850,28169
50657,28298
50578,28416
50500,28298
50306,28169
50136,28135
50021,28135
49850,28169
49657,28298
49652,28306
49648,28288
49593,28205
49510,28150
49413,28130
48744,28130
48646,28150
48563,28205
48508,28288
48489,28385
48489,29055
48508,29152
48563,29235
48646,29290
48730,29307
48730,29895
47969,30655
44235,30655
44200,30648
44166,30655
44166,30655
44064,30675
44064,30675
44064,30675
43978,30733
43978,30733
43949,30752
43930,30781
41964,32747
41935,32766
41916,32795
41916,32795
41869,32865
41809,32905
41783,32944
41757,32905
41643,32829
41507,32802
41251,32802
41116,32829
41002,32905
40925,33020
40921,33041
40825,33041
40814,32987
40758,32904
40676,32849
40578,32829
40263,32829
40171,32848
40078,32829
39763,32829
39666,32849
39665,32849
39628,32834
39533,32834
39471,32897
39471,33290
39479,33290
39479,33390
39471,33390
39471,33783
39533,33846
39628,33846
39665,33831
39666,33831
39763,33851
40078,33851
40171,33832
40263,33851
40578,33851
40676,33831
40758,33776
40814,33694
40825,33639
40924,33639
40925,33645
41002,33759
41116,33836
41251,33863
41507,33863
41643,33836
41757,33759
41783,33721
41809,33759
41923,33836
42059,33863
42314,33863
42450,33836
42564,33759
42641,33645
42668,33509
42668,33453
42718,33453
42718,33646
42756,33738
42826,33808
42918,33846
43013,33846
43075,33783
43075,33390
42781,33390
42718,33453
42668,33453
42668,33155
42647,33050
42662,33034
42718,33034
42718,33228
42781,33290
43075,33290
43075,32897
43013,32834
42918,32834
42826,32872
42756,32943
42718,33034
42662,33034
44345,31352
45875,31352
45648,31579
45619,31598
45600,31627
45600,31627
45542,31713
45515,31849
45522,31884
45522,32893
45492,32913
45467,32952
45441,32913
45326,32836
45191,32810
44935,32810
44800,32836
44685,32913
44609,33028
44606,33041
44529,33041
44518,32987
44463,32904
44381,32849
44283,32829
43968,32829
43875,32848
43783,32829
43468,32829
43370,32849
43369,32849
43333,32834
43238,32834
43175,32897
43175,33290
43183,33290
43183,33390
43175,33390
43175,33783
43238,33846
43333,33846
43369,33831
43370,33831
43468,33851
43783,33851
43875,33832
43968,33851
44283,33851
44381,33831
44463,33776
44518,33694
44529,33639
44606,33639
44609,33652
44679,33758
44622,33815
44584,33906
44584,34119
44647,34182
45011,34182
45011,34174
45111,34174
45111,34182
45118,34182
45118,34282
45111,34282
45111,34290
45011,34290
45011,34282
44647,34282
44584,34344
44584,34538
38210,34536
38210,33453
39013,33453
39013,33646
39051,33738
39122,33808
39214,33846
39308,33846
39371,33783
39371,33390
39076,33390
39013,33453
38210,33453
38210,33034
39013,33034
39013,33228
39076,33290
39371,33290
39371,32897
39308,32834
39214,32834
39122,32872
39051,32943
39013,33034
38210,33034
38210,27454
73726,27454
73726,34544
" /> 
<polyline style="fill-rule:evenodd;"
points="73726,41647
38210,41647
38210,37193
39013,37193
39013,37386
39051,37478
39122,37548
39214,37586
39308,37586
39371,37524
39371,37130
39076,37130
39013,37193
38210,37193
38210,36775
39013,36775
39013,36968
39076,37030
39371,37030
39371,36637
39471,36637
39471,37030
39479,37030
39479,37130
39471,37130
39471,37524
39533,37586
39568,37586
39566,37598
39572,37632
39572,37632
39593,37734
39670,37849
39699,37869
41422,39592
41441,39621
41470,39640
41470,39640
41522,39675
41556,39698
41658,39718
41658,39718
41692,39725
41727,39718
48702,39718
48719,39735
48653,39779
48524,39972
48478,40200
48524,40428
48653,40622
48846,40751
49017,40785
49132,40785
49302,40751
49496,40622
49574,40504
49653,40622
49846,40751
50017,40785
50132,40785
50302,40751
50496,40622
50574,40504
50653,40622
50846,40751
51017,40785
51132,40785
51302,40751
51496,40622
51574,40504
51653,40622
51846,40751
52017,40785
52132,40785
52302,40751
52496,40622
52574,40504
52653,40622
52846,40751
53017,40785
53132,40785
53302,40751
53496,40622
53574,40504
53653,40622
53846,40751
54017,40785
54132,40785
54302,40751
54496,40622
54574,40504
54653,40622
54846,40751
55017,40785
55132,40785
55302,40751
55496,40622
55574,40504
55653,40622
55846,40751
56017,40785
56132,40785
56302,40751
56496,40622
56574,40504
56653,40622
56846,40751
57017,40785
57132,40785
57302,40751
57496,40622
57502,40613
57528,40677
57598,40747
57690,40785
57962,40785
58024,40722
58024,40250
58124,40250
58124,40722
58187,40785
58459,40785
58551,40747
58621,40677
58659,40585
58659,40313
58596,40250
58124,40250
58024,40250
58016,40250
58016,40150
58024,40150
58024,40142
58124,40142
58124,40150
58596,40150
58659,40088
58659,39816
58635,39757
68607,39757
68641,39764
68676,39757
68676,39757
68777,39737
68892,39660
68912,39631
71139,37404
71208,37418
71429,37374
71615,37249
71740,37062
71746,37033
72113,37033
72124,37049
72238,37125
72374,37152
72728,37152
72863,37125
72978,37049
73054,36934
73081,36799
73081,36543
73054,36408
72978,36293
72977,36293
73038,36232
73076,36140
73076,35976
73014,35914
72601,35914
72601,35922
72501,35922
72501,35914
72088,35914
72025,35976
72025,36140
72063,36232
72124,36293
72124,36293
72095,36336
71746,36336
71740,36307
71615,36120
71429,35995
71208,35951
70988,35995
70801,36120
70708,36258
70615,36120
70429,35995
70208,35951
69988,35995
69801,36120
69708,36258
69615,36120
69429,35995
69208,35951
68988,35995
68801,36120
68707,36260
68572,36092
68378,35986
68346,35979
68258,36027
68258,36635
68266,36635
68266,36735
68258,36735
68258,37342
68346,37390
68378,37383
68572,37277
68707,37109
68801,37249
68860,37289
68860,37320
67544,38635
63978,38635
64745,37869
64774,37849
64794,37820
64851,37734
64864,37670
64872,37632
64872,37632
64878,37598
64872,37564
64872,37300
64930,37261
65024,37121
65159,37289
65353,37395
65386,37402
65473,37354
65473,36746
65465,36746
65465,36646
65473,36646
65473,36039
65573,36039
65573,36646
65581,36646
65581,36746
65573,36746
65573,37354
65661,37402
65693,37395
65887,37289
66022,37121
66116,37261
66303,37386
66523,37430
66744,37386
66930,37261
67055,37074
67088,36909
67088,36735
67643,36735
67643,36892
67705,37104
67844,37277
68038,37383
68071,37390
68158,37342
68158,36735
67643,36735
67088,36735
67088,36483
67087,36477
67643,36477
67643,36635
68158,36635
68158,36027
68071,35979
68038,35986
67844,36092
67705,36265
67643,36477
67087,36477
67055,36318
66930,36132
66744,36007
66523,35963
66303,36007
66116,36132
66022,36272
65887,36104
65693,35998
65661,35991
65573,36039
65473,36039
65386,35991
65353,35998
65159,36104
65024,36272
64930,36132
64744,36007
64523,35963
64303,36007
64116,36132
64084,36179
64074,36126
64018,36044
63936,35988
63838,35969
63208,35969
63111,35988
63028,36044
62973,36126
62953,36224
62953,37169
62973,37266
63028,37349
63111,37404
63208,37424
63838,37424
63936,37404
64018,37349
64074,37266
64084,37214
64116,37261
64175,37300
64175,37454
63426,38202
59805,38202
60052,37955
60081,37936
60114,37888
60139,37849
60158,37820
60179,37719
60179,37719
60185,37685
60179,37650
60179,37300
60238,37261
60331,37121
60466,37289
60660,37395
60693,37402
60780,37354
60780,36746
60772,36746
60772,36646
60780,36646
60780,36039
60880,36039
60880,36646
60888,36646
60888,36746
60880,36746
60880,37354
60968,37402
61000,37395
61194,37289
61329,37121
61423,37261
61610,37386
61830,37430
62051,37386
62238,37261
62362,37074
62395,36909
62395,36483
62362,36318
62238,36132
62051,36007
61830,35963
61610,36007
61423,36132
61329,36272
61194,36104
61000,35998
60968,35991
60880,36039
60780,36039
60693,35991
60660,35998
60466,36104
60331,36272
60238,36132
60051,36007
59830,35963
59610,36007
59423,36132
59391,36179
59381,36126
59325,36044
59243,35988
59145,35969
58515,35969
58418,35988
58335,36044
58280,36126
58260,36224
58260,37169
58280,37266
58335,37349
58418,37404
58515,37424
59145,37424
59243,37404
59325,37349
59381,37266
59391,37214
59423,37261
59482,37300
59482,37540
59269,37753
55734,37753
55699,37747
55665,37753
55665,37753
55564,37774
55477,37831
55477,37831
55448,37851
55429,37880
53852,39456
53823,39476
53804,39505
53804,39505
53746,39591
53719,39727
53720,39734
53653,39779
53574,39896
53504,39790
55359,37935
55388,37915
55466,37800
55486,37698
55486,37698
55493,37664
55486,37630
55486,37300
55545,37261
55638,37121
55773,37289
55967,37395
56000,37402
56087,37354
56087,36746
56079,36746
56079,36646
56087,36646
56087,36039
56187,36039
56187,36646
56195,36646
56195,36746
56187,36746
56187,37354
56275,37402
56307,37395
56501,37289
56636,37121
56730,37261
56917,37386
57137,37430
57358,37386
57545,37261
57669,37074
57702,36909
57702,36483
57669,36318
57545,36132
57358,36007
57137,35963
56917,36007
56730,36132
56636,36272
56501,36104
56307,35998
56275,35991
56187,36039
56087,36039
56000,35991
55967,35998
55773,36104
55638,36272
55545,36132
55358,36007
55137,35963
54917,36007
54730,36132
54698,36179
54688,36126
54632,36044
54550,35988
54452,35969
53822,35969
53725,35988
53642,36044
53587,36126
53567,36224
53567,36686
53558,36663
53488,36593
53396,36555
53232,36555
53170,36617
53170,37030
53177,37030
53177,37130
53170,37130
53170,37543
53232,37606
53396,37606
53488,37568
53558,37497
53596,37406
53596,37280
53642,37349
53725,37404
53822,37424
54452,37424
54550,37404
54632,37349
54688,37266
54698,37214
54730,37261
54789,37300
54789,37520
53629,38680
53694,38521
53694,38328
53620,38149
53484,38012
53305,37938
53111,37938
53027,37973
52661,37607
52661,37527
52690,37507
52691,37507
52752,37568
52843,37606
53007,37606
53070,37543
53070,37130
53062,37130
53062,37030
53070,37030
53070,36617
53007,36555
52843,36555
52752,36593
52691,36654
52690,36653
52576,36577
52440,36550
52185,36550
52049,36577
51935,36653
51907,36695
51873,36644
51790,36589
51692,36569
51377,36569
51285,36588
51192,36569
50877,36569
50780,36589
50779,36590
50742,36574
50647,36574
50585,36637
50585,37030
50593,37030
50593,37130
50585,37130
50585,37524
50647,37586
50687,37586
50687,38603
50447,38364
50428,38335
50313,38258
50211,38238
50211,38238
50177,38231
50142,38238
47455,38238
47179,37961
47179,37591
47488,37591
47585,37572
47586,37571
47623,37586
47718,37586
47780,37524
47780,37130
47880,37130
47880,37524
47943,37586
48037,37586
48129,37548
48200,37478
48238,37386
48238,37193
50127,37193
50127,37386
50166,37478
50236,37548
50328,37586
50422,37586
50485,37524
50485,37130
50190,37130
50127,37193
48238,37193
48175,37130
47880,37130
47780,37130
47772,37130
47772,37030
47780,37030
47780,36637
47880,36637
47880,37030
48175,37030
48238,36968
48238,36775
50127,36775
50127,36968
50190,37030
50485,37030
50485,36637
50422,36574
50328,36574
50236,36612
50166,36683
50127,36775
48238,36775
48200,36683
48129,36612
48037,36574
47943,36574
47880,36637
47780,36637
47718,36574
47623,36574
47586,36590
47585,36589
47488,36569
47173,36569
47080,36588
46988,36569
46673,36569
46575,36589
46492,36644
46437,36727
46418,36824
46418,37336
46437,37434
46482,37500
46482,38071
46475,38106
46482,38140
46482,38140
46502,38242
46579,38357
46608,38376
46851,38620
46252,38620
46293,38521
46293,38328
46219,38149
46082,38012
45903,37938
45782,37938
45683,37919
45683,37919
45678,37918
45412,37651
45412,37527
45441,37507
45441,37507
45502,37568
45594,37606
45758,37606
45820,37543
45820,37130
45920,37130
45920,37543
45983,37606
46146,37606
46238,37568
46309,37497
46347,37406
46347,37193
46284,37130
45920,37130
45820,37130
45812,37130
45812,37030
45820,37030
45820,36617
45920,36617
45920,37030
46284,37030
46347,36968
46347,36755
46309,36663
46238,36593
46146,36555
45983,36555
45920,36617
45820,36617
45758,36555
45594,36555
45502,36593
45441,36654
45441,36653
45326,36577
45191,36550
44935,36550
44800,36577
44685,36653
44633,36732
44519,36732
44518,36727
44463,36644
44381,36589
44283,36569
43968,36569
43875,36588
43783,36569
43468,36569
43370,36589
43369,36590
43333,36574
43238,36574
43175,36637
43175,37030
43183,37030
43183,37130
43175,37130
43175,37524
43238,37586
43277,37586
43277,38253
43270,38287
43277,38321
43277,38321
43297,38423
43374,38538
43403,38558
43867,39021
41837,39021
40407,37591
40578,37591
40676,37572
40758,37516
40814,37434
40815,37429
40953,37429
41002,37501
41031,37521
41031,37601
41024,37635
41031,37670
41031,37670
41051,37771
41128,37887
41157,37906
41741,38489
41760,38518
41789,38538
41789,38538
41823,38561
41875,38595
41977,38616
41977,38616
42011,38622
42046,38616
42214,38616
42249,38700
42385,38837
42564,38911
42758,38911
42936,38837
43073,38700
43147,38521
43147,38328
43073,38149
42936,38012
42758,37938
42637,37938
42538,37919
42538,37919
42503,37912
42469,37919
42156,37919
41746,37509
41757,37501
41758,37501
41819,37562
41910,37600
42074,37600
42137,37537
42137,37124
42237,37124
42237,37537
42299,37600
42463,37600
42554,37562
42625,37492
42663,37400
42663,37193
42718,37193
42718,37386
42756,37478
42826,37548
42918,37586
43013,37586
43075,37524
43075,37130
42781,37130
42718,37193
42663,37193
42663,37187
42600,37124
42237,37124
42137,37124
42129,37124
42129,37024
42137,37024
42137,36611
42237,36611
42237,37024
42600,37024
42663,36962
42663,36775
42718,36775
42718,36968
42781,37030
43075,37030
43075,36637
43013,36574
42918,36574
42826,36612
42756,36683
42718,36775
42663,36775
42663,36749
42625,36657
42554,36587
42463,36549
42299,36549
42237,36611
42137,36611
42074,36549
41910,36549
41819,36587
41758,36648
41757,36647
41643,36571
41507,36544
41251,36544
41116,36571
41002,36647
40945,36732
40815,36732
40814,36727
40758,36644
40676,36589
40578,36569
40263,36569
40171,36588
40078,36569
39763,36569
39666,36589
39665,36590
39628,36574
39533,36574
39471,36637
39371,36637
39308,36574
39214,36574
39122,36612
39051,36683
39013,36775
38210,36775
38210,35522
72070,35488
72063,35496
72025,35588
72025,35751
72088,35814
72501,35814
72501,35806
72601,35806
72601,35814
73014,35814
73076,35751
73076,35588
73038,35496
73030,35487
73726,35487
73726,41647
" /> 
</g>
<g style="fill:#000000; fill-opacity:1.0; 
stroke:#000000; stroke-width:100; stroke-opacity:1; 
stroke-linecap:round; stroke-linejoin:round;">
</g>
<g style="fill:#000000; fill-opacity:1.0; 
stroke:#000000; stroke-width:0; stroke-opacity:1; 
stroke-linecap:round; stroke-linejoin:round;">
<circle cx="53208.7" cy="38425.2" r="137.795" /> 
</g>
<g style="fill:#000000; fill-opacity:1.0; 
stroke:#000000; stroke-width:39.3701; stroke-opacity:1; 
stroke-linecap:round; stroke-linejoin:round;">
</g>
<g style="fill:#000000; fill-opacity:1.0; 
stroke:#000000; stroke-width:0; stroke-opacity:1; 
stroke-linecap:round; stroke-linejoin:round;">
<circle cx="42661.4" cy="38425.2" r="137.795" /> 
</g>
<g style="fill:#000000; fill-opacity:1.0; 
stroke:#000000; stroke-width:39.3701; stroke-opacity:1; 
stroke-linecap:round; stroke-linejoin:round;">
</g>
<g style="fill:#000000; fill-opacity:1.0; 
stroke:#000000; stroke-width:0; stroke-opacity:1; 
stroke-linecap:round; stroke-linejoin:round;">
<circle cx="45807.1" cy="38425.2" r="137.795" /> 
</g>
<g style="fill:#000000; fill-opacity:1.0; 
stroke:#000000; stroke-width:39.3701; stroke-opacity:1; 
stroke-linecap:round; stroke-linejoin:round;">
</g>
<g style="fill:#000000; fill-opacity:1.0; 
stroke:#000000; stroke-width:0; stroke-opacity:1; 
stroke-linecap:round; stroke-linejoin:round;">
<circle cx="47897.6" cy="31937" r="137.795" /> 
</g>
<g style="fill:#000000; fill-opacity:1.0; 
stroke:#000000; stroke-width:39.3701; stroke-opacity:1; 
stroke-linecap:round; stroke-linejoin:round;">
</g>
<g style="fill:#000000; fill-opacity:1.0; 
stroke:#000000; stroke-width:0; stroke-opacity:1; 
stroke-linecap:round; stroke-linejoin:round;">
<circle cx="49074.8" cy="40200.8" r="196.85" /> 
</g>
<g style="fill:#000000; fill-opacity:1.0; 
stroke:#000000; stroke-width:39.3701; stroke-opacity:1; 
stroke-linecap:round; stroke-linejoin:round;">
</g>
<g style="fill:#000000; fill-opacity:1.0; 
stroke:#000000; stroke-width:0; stroke-opacity:1; 
stroke-linecap:round; stroke-linejoin:round;">
<circle cx="50074.8" cy="40200.8" r="196.85" /> 
</g>
<g style="fill:#000000; fill-opacity:1.0; 
stroke:#000000; stroke-width:39.3701; stroke-opacity:1; 
stroke-linecap:round; stroke-linejoin:round;">
</g>
<g style="fill:#000000; fill-opacity:1.0; 
stroke:#000000; stroke-width:0; stroke-opacity:1; 
stroke-linecap:round; stroke-linejoin:round;">
<circle cx="51074.8" cy="40200.8" r="196.85" /> 
</g>
<g style="fill:#000000; fill-opacity:1.0; 
stroke:#000000; stroke-width:39.3701; stroke-opacity:1; 
stroke-linecap:round; stroke-linejoin:round;">
</g>
<g style="fill:#000000; fill-opacity:1.0; 
stroke:#000000; stroke-width:0; stroke-opacity:1; 
stroke-linecap:round; stroke-linejoin:round;">
<circle cx="52074.8" cy="40200.8" r="196.85" /> 
</g>
<g style="fill:#000000; fill-opacity:1.0; 
stroke:#000000; stroke-width:39.3701; stroke-opacity:1; 
stroke-linecap:round; stroke-linejoin:round;">
</g>
<g style="fill:#000000; fill-opacity:1.0; 
stroke:#000000; stroke-width:0; stroke-opacity:1; 
stroke-linecap:round; stroke-linejoin:round;">
<circle cx="53074.8" cy="40200.8" r="196.85" /> 
</g>
<g style="fill:#000000; fill-opacity:1.0; 
stroke:#000000; stroke-width:39.3701; stroke-opacity:1; 
stroke-linecap:round; stroke-linejoin:round;">
</g>
<g style="fill:#000000; fill-opacity:1.0; 
stroke:#000000; stroke-width:0; stroke-opacity:1; 
stroke-linecap:round; stroke-linejoin:round;">
<circle cx="54074.8" cy="40200.8" r="196.85" /> 
</g>
<g style="fill:#000000; fill-opacity:1.0; 
stroke:#000000; stroke-width:39.3701; stroke-opacity:1; 
stroke-linecap:round; stroke-linejoin:round;">
</g>
<g style="fill:#000000; fill-opacity:1.0; 
stroke:#000000; stroke-width:0; stroke-opacity:1; 
stroke-linecap:round; stroke-linejoin:round;">
<circle cx="55074.8" cy="40200.8" r="196.85" /> 
</g>
<g style="fill:#000000; fill-opacity:1.0; 
stroke:#000000; stroke-width:39.3701; stroke-opacity:1; 
stroke-linecap:round; stroke-linejoin:round;">
</g>
<g style="fill:#000000; fill-opacity:1.0; 
stroke:#000000; stroke-width:0; stroke-opacity:1; 
stroke-linecap:round; stroke-linejoin:round;">
<circle cx="56074.8" cy="40200.8" r="196.85" /> 
</g>
<g style="fill:#000000; fill-opacity:1.0; 
stroke:#000000; stroke-width:39.3701; stroke-opacity:1; 
stroke-linecap:round; stroke-linejoin:round;">
</g>
<g style="fill:#000000; fill-opacity:1.0; 
stroke:#000000; stroke-width:0; stroke-opacity:1; 
stroke-linecap:round; stroke-linejoin:round;">
<circle cx="57074.8" cy="40200.8" r="196.85" /> 
</g>
<g style="fill:#000000; fill-opacity:1.0; 
stroke:#000000; stroke-width:39.3701; stroke-opacity:1; 
stroke-linecap:round; stroke-linejoin:round;">
</g>
<g style="fill:#000000; fill-opacity:1.0; 
stroke:#000000; stroke-width:0; stroke-opacity:1; 
stroke-linecap:round; stroke-linejoin:round;">
<circle cx="58074.8" cy="40200.8" r="196.85" /> 
</g>
<g style="fill:#000000; fill-opacity:1.0; 
stroke:#000000; stroke-width:39.3701; stroke-opacity:1; 
stroke-linecap:round; stroke-linejoin:round;">
</g>
<g style="fill:#000000; fill-opacity:1.0; 
stroke:#000000; stroke-width:0; stroke-opacity:1; 
stroke-linecap:round; stroke-linejoin:round;">
<circle cx="49078.7" cy="28720.5" r="196.85" /> 
</g>
<g style="fill:#000000; fill-opacity:1.0; 
stroke:#000000; stroke-width:39.3701; stroke-opacity:1; 
stroke-linecap:round; stroke-linejoin:round;">
</g>
<g style="fill:#000000; fill-opacity:1.0; 
stroke:#000000; stroke-width:0; stroke-opacity:1; 
stroke-linecap:round; stroke-linejoin:round;">
<circle cx="50078.7" cy="28720.5" r="196.85" /> 
</g>
<g style="fill:#000000; fill-opacity:1.0; 
stroke:#000000; stroke-width:39.3701; stroke-opacity:1; 
stroke-linecap:round; stroke-linejoin:round;">
</g>
<g style="fill:#000000; fill-opacity:1.0; 
stroke:#000000; stroke-width:0; stroke-opacity:1; 
stroke-linecap:round; stroke-linejoin:round;">
<circle cx="51078.7" cy="28720.5" r="196.85" /> 
</g>
<g style="fill:#000000; fill-opacity:1.0; 
stroke:#000000; stroke-width:39.3701; stroke-opacity:1; 
stroke-linecap:round; stroke-linejoin:round;">
</g>
<g style="fill:#000000; fill-opacity:1.0; 
stroke:#000000; stroke-width:0; stroke-opacity:1; 
stroke-linecap:round; stroke-linejoin:round;">
<circle cx="52078.7" cy="28720.5" r="196.85" /> 
</g>
<g style="fill:#000000; fill-opacity:1.0; 
stroke:#000000; stroke-width:39.3701; stroke-opacity:1; 
stroke-linecap:round; stroke-linejoin:round;">
</g>
<g style="fill:#000000; fill-opacity:1.0; 
stroke:#000000; stroke-width:0; stroke-opacity:1; 
stroke-linecap:round; stroke-linejoin:round;">
<circle cx="53078.7" cy="28720.5" r="196.85" /> 
</g>
<g style="fill:#000000; fill-opacity:1.0; 
stroke:#000000; stroke-width:39.3701; stroke-opacity:1; 
stroke-linecap:round; stroke-linejoin:round;">
</g>
<g style="fill:#000000; fill-opacity:1.0; 
stroke:#000000; stroke-width:0; stroke-opacity:1; 
stroke-linecap:round; stroke-linejoin:round;">
<circle cx="54078.7" cy="28720.5" r="196.85" /> 
</g>
<g style="fill:#000000; fill-opacity:1.0; 
stroke:#000000; stroke-width:39.3701; stroke-opacity:1; 
stroke-linecap:round; stroke-linejoin:round;">
</g>
<g style="fill:#000000; fill-opacity:1.0; 
stroke:#000000; stroke-width:0; stroke-opacity:1; 
stroke-linecap:round; stroke-linejoin:round;">
<circle cx="55078.7" cy="28720.5" r="196.85" /> 
</g>
<g style="fill:#000000; fill-opacity:1.0; 
stroke:#000000; stroke-width:39.3701; stroke-opacity:1; 
stroke-linecap:round; stroke-linejoin:round;">
</g>
<g style="fill:#000000; fill-opacity:1.0; 
stroke:#000000; stroke-width:0; stroke-opacity:1; 
stroke-linecap:round; stroke-linejoin:round;">
<circle cx="56078.7" cy="28720.5" r="196.85" /> 
</g>
<g style="fill:#000000; fill-opacity:1.0; 
stroke:#000000; stroke-width:39.3701; stroke-opacity:1; 
stroke-linecap:round; stroke-linejoin:round;">
</g>
<g style="fill:#000000; fill-opacity:1.0; 
stroke:#000000; stroke-width:0; stroke-opacity:1; 
stroke-linecap:round; stroke-linejoin:round;">
<circle cx="57078.7" cy="28720.5" r="196.85" /> 
</g>
<g style="fill:#000000; fill-opacity:1.0; 
stroke:#000000; stroke-width:39.3701; stroke-opacity:1; 
stroke-linecap:round; stroke-linejoin:round;">
</g>
<g style="fill:#000000; fill-opacity:1.0; 
stroke:#000000; stroke-width:0; stroke-opacity:1; 
stroke-linecap:round; stroke-linejoin:round;">
<circle cx="58078.7" cy="28720.5" r="196.85" /> 
</g>
<g style="fill:#000000; fill-opacity:1.0; 
stroke:#000000; stroke-width:39.3701; stroke-opacity:1; 
stroke-linecap:round; stroke-linejoin:round;">
</g>
<g style="fill:#000000; fill-opacity:1.0; 
stroke:#000000; stroke-width:0; stroke-opacity:1; 
stroke-linecap:round; stroke-linejoin:round;">
<circle cx="54137.8" cy="36696.9" r="157.48" /> 
</g>
<g style="fill:#000000; fill-opacity:1.0; 
stroke:#000000; stroke-width:39.3701; stroke-opacity:1; 
stroke-linecap:round; stroke-linejoin:round;">
</g>
<g style="fill:#000000; fill-opacity:1.0; 
stroke:#000000; stroke-width:0; stroke-opacity:1; 
stroke-linecap:round; stroke-linejoin:round;">
<circle cx="57137.8" cy="33696.9" r="157.48" /> 
</g>
<g style="fill:#000000; fill-opacity:1.0; 
stroke:#000000; stroke-width:39.3701; stroke-opacity:1; 
stroke-linecap:round; stroke-linejoin:round;">
</g>
<g style="fill:#000000; fill-opacity:1.0; 
stroke:#000000; stroke-width:0; stroke-opacity:1; 
stroke-linecap:round; stroke-linejoin:round;">
<circle cx="55137.8" cy="36696.9" r="157.48" /> 
</g>
<g style="fill:#000000; fill-opacity:1.0; 
stroke:#000000; stroke-width:39.3701; stroke-opacity:1; 
stroke-linecap:round; stroke-linejoin:round;">
</g>
<g style="fill:#000000; fill-opacity:1.0; 
stroke:#000000; stroke-width:0; stroke-opacity:1; 
stroke-linecap:round; stroke-linejoin:round;">
<circle cx="56137.8" cy="33696.9" r="157.48" /> 
</g>
<g style="fill:#000000; fill-opacity:1.0; 
stroke:#000000; stroke-width:39.3701; stroke-opacity:1; 
stroke-linecap:round; stroke-linejoin:round;">
</g>
<g style="fill:#000000; fill-opacity:1.0; 
stroke:#000000; stroke-width:0; stroke-opacity:1; 
stroke-linecap:round; stroke-linejoin:round;">
<circle cx="56137.8" cy="36696.9" r="157.48" /> 
</g>
<g style="fill:#000000; fill-opacity:1.0; 
stroke:#000000; stroke-width:39.3701; stroke-opacity:1; 
stroke-linecap:round; stroke-linejoin:round;">
</g>
<g style="fill:#000000; fill-opacity:1.0; 
stroke:#000000; stroke-width:0; stroke-opacity:1; 
stroke-linecap:round; stroke-linejoin:round;">
<circle cx="55137.8" cy="33696.9" r="157.48" /> 
</g>
<g style="fill:#000000; fill-opacity:1.0; 
stroke:#000000; stroke-width:39.3701; stroke-opacity:1; 
stroke-linecap:round; stroke-linejoin:round;">
</g>
<g style="fill:#000000; fill-opacity:1.0; 
stroke:#000000; stroke-width:0; stroke-opacity:1; 
stroke-linecap:round; stroke-linejoin:round;">
<circle cx="57137.8" cy="36696.9" r="157.48" /> 
</g>
<g style="fill:#000000; fill-opacity:1.0; 
stroke:#000000; stroke-width:39.3701; stroke-opacity:1; 
stroke-linecap:round; stroke-linejoin:round;">
</g>
<g style="fill:#000000; fill-opacity:1.0; 
stroke:#000000; stroke-width:0; stroke-opacity:1; 
stroke-linecap:round; stroke-linejoin:round;">
<circle cx="54137.8" cy="33696.9" r="157.48" /> 
</g>
<g style="fill:#000000; fill-opacity:1.0; 
stroke:#000000; stroke-width:39.3701; stroke-opacity:1; 
stroke-linecap:round; stroke-linejoin:round;">
</g>
<g style="fill:#000000; fill-opacity:1.0; 
stroke:#000000; stroke-width:0; stroke-opacity:1; 
stroke-linecap:round; stroke-linejoin:round;">
<circle cx="58830.7" cy="36696.9" r="157.48" /> 
</g>
<g style="fill:#000000; fill-opacity:1.0; 
stroke:#000000; stroke-width:39.3701; stroke-opacity:1; 
stroke-linecap:round; stroke-linejoin:round;">
</g>
<g style="fill:#000000; fill-opacity:1.0; 
stroke:#000000; stroke-width:0; stroke-opacity:1; 
stroke-linecap:round; stroke-linejoin:round;">
<circle cx="61830.7" cy="33696.9" r="157.48" /> 
</g>
<g style="fill:#000000; fill-opacity:1.0; 
stroke:#000000; stroke-width:39.3701; stroke-opacity:1; 
stroke-linecap:round; stroke-linejoin:round;">
</g>
<g style="fill:#000000; fill-opacity:1.0; 
stroke:#000000; stroke-width:0; stroke-opacity:1; 
stroke-linecap:round; stroke-linejoin:round;">
<circle cx="59830.7" cy="36696.9" r="157.48" /> 
</g>
<g style="fill:#000000; fill-opacity:1.0; 
stroke:#000000; stroke-width:39.3701; stroke-opacity:1; 
stroke-linecap:round; stroke-linejoin:round;">
</g>
<g style="fill:#000000; fill-opacity:1.0; 
stroke:#000000; stroke-width:0; stroke-opacity:1; 
stroke-linecap:round; stroke-linejoin:round;">
<circle cx="60830.7" cy="33696.9" r="157.48" /> 
</g>
<g style="fill:#000000; fill-opacity:1.0; 
stroke:#000000; stroke-width:39.3701; stroke-opacity:1; 
stroke-linecap:round; stroke-linejoin:round;">
</g>
<g style="fill:#000000; fill-opacity:1.0; 
stroke:#000000; stroke-width:0; stroke-opacity:1; 
stroke-linecap:round; stroke-linejoin:round;">
<circle cx="60830.7" cy="36696.9" r="157.48" /> 
</g>
<g style="fill:#000000; fill-opacity:1.0; 
stroke:#000000; stroke-width:39.3701; stroke-opacity:1; 
stroke-linecap:round; stroke-linejoin:round;">
</g>
<g style="fill:#000000; fill-opacity:1.0; 
stroke:#000000; stroke-width:0; stroke-opacity:1; 
stroke-linecap:round; stroke-linejoin:round;">
<circle cx="59830.7" cy="33696.9" r="157.48" /> 
</g>
<g style="fill:#000000; fill-opacity:1.0; 
stroke:#000000; stroke-width:39.3701; stroke-opacity:1; 
stroke-linecap:round; stroke-linejoin:round;">
</g>
<g style="fill:#000000; fill-opacity:1.0; 
stroke:#000000; stroke-width:0; stroke-opacity:1; 
stroke-linecap:round; stroke-linejoin:round;">
<circle cx="61830.7" cy="36696.9" r="157.48" /> 
</g>
<g style="fill:#000000; fill-opacity:1.0; 
stroke:#000000; stroke-width:39.3701; stroke-opacity:1; 
stroke-linecap:round; stroke-linejoin:round;">
</g>
<g style="fill:#000000; fill-opacity:1.0; 
stroke:#000000; stroke-width:0; stroke-opacity:1; 
stroke-linecap:round; stroke-linejoin:round;">
<circle cx="58830.7" cy="33696.9" r="157.48" /> 
</g>
<g style="fill:#000000; fill-opacity:1.0; 
stroke:#000000; stroke-width:39.3701; stroke-opacity:1; 
stroke-linecap:round; stroke-linejoin:round;">
</g>
<g style="fill:#000000; fill-opacity:1.0; 
stroke:#000000; stroke-width:0; stroke-opacity:1; 
stroke-linecap:round; stroke-linejoin:round;">
<circle cx="63523.6" cy="33696.9" r="157.48" /> 
</g>
<g style="fill:#000000; fill-opacity:1.0; 
stroke:#000000; stroke-width:39.3701; stroke-opacity:1; 
stroke-linecap:round; stroke-linejoin:round;">
</g>
<g style="fill:#000000; fill-opacity:1.0; 
stroke:#000000; stroke-width:0; stroke-opacity:1; 
stroke-linecap:round; stroke-linejoin:round;">
<circle cx="66523.6" cy="36696.9" r="157.48" /> 
</g>
<g style="fill:#000000; fill-opacity:1.0; 
stroke:#000000; stroke-width:39.3701; stroke-opacity:1; 
stroke-linecap:round; stroke-linejoin:round;">
</g>
<g style="fill:#000000; fill-opacity:1.0; 
stroke:#000000; stroke-width:0; stroke-opacity:1; 
stroke-linecap:round; stroke-linejoin:round;">
<circle cx="64523.6" cy="33696.9" r="157.48" /> 
</g>
<g style="fill:#000000; fill-opacity:1.0; 
stroke:#000000; stroke-width:39.3701; stroke-opacity:1; 
stroke-linecap:round; stroke-linejoin:round;">
</g>
<g style="fill:#000000; fill-opacity:1.0; 
stroke:#000000; stroke-width:0; stroke-opacity:1; 
stroke-linecap:round; stroke-linejoin:round;">
<circle cx="65523.6" cy="36696.9" r="157.48" /> 
</g>
<g style="fill:#000000; fill-opacity:1.0; 
stroke:#000000; stroke-width:39.3701; stroke-opacity:1; 
stroke-linecap:round; stroke-linejoin:round;">
</g>
<g style="fill:#000000; fill-opacity:1.0; 
stroke:#000000; stroke-width:0; stroke-opacity:1; 
stroke-linecap:round; stroke-linejoin:round;">
<circle cx="65523.6" cy="33696.9" r="157.48" /> 
</g>
<g style="fill:#000000; fill-opacity:1.0; 
stroke:#000000; stroke-width:39.3701; stroke-opacity:1; 
stroke-linecap:round; stroke-linejoin:round;">
</g>
<g style="fill:#000000; fill-opacity:1.0; 
stroke:#000000; stroke-width:0; stroke-opacity:1; 
stroke-linecap:round; stroke-linejoin:round;">
<circle cx="64523.6" cy="36696.9" r="157.48" /> 
</g>
<g style="fill:#000000; fill-opacity:1.0; 
stroke:#000000; stroke-width:39.3701; stroke-opacity:1; 
stroke-linecap:round; stroke-linejoin:round;">
</g>
<g style="fill:#000000; fill-opacity:1.0; 
stroke:#000000; stroke-width:0; stroke-opacity:1; 
stroke-linecap:round; stroke-linejoin:round;">
<circle cx="66523.6" cy="33696.9" r="157.48" /> 
</g>
<g style="fill:#000000; fill-opacity:1.0; 
stroke:#000000; stroke-width:39.3701; stroke-opacity:1; 
stroke-linecap:round; stroke-linejoin:round;">
</g>
<g style="fill:#000000; fill-opacity:1.0; 
stroke:#000000; stroke-width:0; stroke-opacity:1; 
stroke-linecap:round; stroke-linejoin:round;">
<circle cx="63523.6" cy="36696.9" r="157.48" /> 
</g>
<g style="fill:#000000; fill-opacity:1.0; 
stroke:#000000; stroke-width:39.3701; stroke-opacity:1; 
stroke-linecap:round; stroke-linejoin:round;">
</g>
<g style="fill:#000000; fill-opacity:1.0; 
stroke:#000000; stroke-width:0; stroke-opacity:1; 
stroke-linecap:round; stroke-linejoin:round;">
<circle cx="71208.7" cy="36685" r="157.48" /> 
</g>
<g style="fill:#000000; fill-opacity:1.0; 
stroke:#000000; stroke-width:39.3701; stroke-opacity:1; 
stroke-linecap:round; stroke-linejoin:round;">
</g>
<g style="fill:#000000; fill-opacity:1.0; 
stroke:#000000; stroke-width:0; stroke-opacity:1; 
stroke-linecap:round; stroke-linejoin:round;">
<circle cx="68208.7" cy="33685" r="157.48" /> 
</g>
<g style="fill:#000000; fill-opacity:1.0; 
stroke:#000000; stroke-width:39.3701; stroke-opacity:1; 
stroke-linecap:round; stroke-linejoin:round;">
</g>
<g style="fill:#000000; fill-opacity:1.0; 
stroke:#000000; stroke-width:0; stroke-opacity:1; 
stroke-linecap:round; stroke-linejoin:round;">
<circle cx="70208.7" cy="36685" r="157.48" /> 
</g>
<g style="fill:#000000; fill-opacity:1.0; 
stroke:#000000; stroke-width:39.3701; stroke-opacity:1; 
stroke-linecap:round; stroke-linejoin:round;">
</g>
<g style="fill:#000000; fill-opacity:1.0; 
stroke:#000000; stroke-width:0; stroke-opacity:1; 
stroke-linecap:round; stroke-linejoin:round;">
<circle cx="69208.7" cy="33685" r="157.48" /> 
</g>
<g style="fill:#000000; fill-opacity:1.0; 
stroke:#000000; stroke-width:39.3701; stroke-opacity:1; 
stroke-linecap:round; stroke-linejoin:round;">
</g>
<g style="fill:#000000; fill-opacity:1.0; 
stroke:#000000; stroke-width:0; stroke-opacity:1; 
stroke-linecap:round; stroke-linejoin:round;">
<circle cx="69208.7" cy="36685" r="157.48" /> 
</g>
<g style="fill:#000000; fill-opacity:1.0; 
stroke:#000000; stroke-width:39.3701; stroke-opacity:1; 
stroke-linecap:round; stroke-linejoin:round;">
</g>
<g style="fill:#000000; fill-opacity:1.0; 
stroke:#000000; stroke-width:0; stroke-opacity:1; 
stroke-linecap:round; stroke-linejoin:round;">
<circle cx="70208.7" cy="33685" r="157.48" /> 
</g>
<g style="fill:#000000; fill-opacity:1.0; 
stroke:#000000; stroke-width:39.3701; stroke-opacity:1; 
stroke-linecap:round; stroke-linejoin:round;">
</g>
<g style="fill:#000000; fill-opacity:1.0; 
stroke:#000000; stroke-width:0; stroke-opacity:1; 
stroke-linecap:round; stroke-linejoin:round;">
<circle cx="68208.7" cy="36685" r="157.48" /> 
</g>
<g style="fill:#000000; fill-opacity:1.0; 
stroke:#000000; stroke-width:39.3701; stroke-opacity:1; 
stroke-linecap:round; stroke-linejoin:round;">
</g>
<g style="fill:#000000; fill-opacity:1.0; 
stroke:#000000; stroke-width:0; stroke-opacity:1; 
stroke-linecap:round; stroke-linejoin:round;">
<circle cx="71208.7" cy="33685" r="157.48" /> 
</g>
<g style="fill:#000000; fill-opacity:1.0; 
stroke:#000000; stroke-width:39.3701; stroke-opacity:1; 
stroke-linecap:round; stroke-linejoin:round;">
</g>
<g style="fill:#FFFFFF; fill-opacity:1.0; 
stroke:#FFFFFF; stroke-width:39.3701; stroke-opacity:1; 
stroke-linecap:round; stroke-linejoin:round;">
</g> 
</svg>
