M48
; DRILL file {KiCad 5.1.9-73d0e3b20d~88~ubuntu18.04.1} date Thu Mar  4 19:29:30 2021
; FORMAT={-:-/ absolute / inch / decimal}
; #@! TF.CreationDate,2021-03-04T19:29:30-03:00
; #@! TF.GenerationSoftware,Kicad,Pcbnew,5.1.9-73d0e3b20d~88~ubuntu18.04.1
; #@! TF.FileFunction,Plated,1,2,PTH
FMAT,2
INCH
T1C0.0079
T2C0.0118
T3C0.0157
T4C0.0197
T5C0.0315
T6C0.0354
T7C0.0374
T8C0.0394
T9C0.0433
T10C0.0669
T11C0.1181
T12C0.1260
%
G90
G05
T1
X4.7992Y-4.2043
X4.7992Y-4.2437
X4.7992Y-4.2831
X4.7992Y-4.3224
X4.7992Y-4.3618
X4.7992Y-4.4012
X4.7992Y-4.4406
X4.7992Y-4.4799
X4.8386Y-4.2043
X4.8386Y-4.2437
X4.8386Y-4.2831
X4.8386Y-4.3224
X4.8386Y-4.3618
X4.8386Y-4.4012
X4.8386Y-4.4406
X4.8386Y-4.4799
X4.878Y-4.2043
X4.878Y-4.2437
X4.878Y-4.2831
X4.878Y-4.3224
X4.878Y-4.3618
X4.878Y-4.4012
X4.878Y-4.4406
X4.878Y-4.4799
X4.9173Y-4.2043
X4.9173Y-4.2437
X4.9173Y-4.2831
X4.9173Y-4.3224
X4.9173Y-4.3618
X4.9173Y-4.4012
X4.9173Y-4.4406
X4.9173Y-4.4799
X4.9567Y-4.2043
X4.9567Y-4.2437
X4.9567Y-4.2831
X4.9567Y-4.3224
X4.9567Y-4.3618
X4.9567Y-4.4012
X4.9567Y-4.4406
X4.9567Y-4.4799
X4.9961Y-4.2043
X4.9961Y-4.2437
X4.9961Y-4.2831
X4.9961Y-4.3224
X4.9961Y-4.3618
X4.9961Y-4.4012
X4.9961Y-4.4406
X4.9961Y-4.4799
X5.0354Y-4.2043
X5.0354Y-4.2437
X5.0354Y-4.2831
X5.0354Y-4.3224
X5.0354Y-4.3618
X5.0354Y-4.4012
X5.0354Y-4.4406
X5.0354Y-4.4799
X5.0748Y-4.2043
X5.0748Y-4.2437
X5.0748Y-4.2831
X5.0748Y-4.3224
X5.0748Y-4.3618
X5.0748Y-4.4012
X5.0748Y-4.4406
X5.0748Y-4.4799
X7.8561Y-4.7156
X7.8561Y-4.7539
X7.8561Y-4.7923
X7.8945Y-4.7156
X7.8945Y-4.7539
X7.8945Y-4.7923
X7.9329Y-4.7156
X7.9329Y-4.7539
X7.9329Y-4.7923
T2
X4.5035Y-5.4457
X4.5264Y-4.3602
X4.5272Y-5.3701
X4.5417Y-4.2531
X4.5701Y-4.1638
X4.5735Y-4.4172
X4.578Y-4.4811
X4.8378Y-4.0543
X4.85Y-4.6587
X4.8768Y-4.0579
X4.8902Y-4.6575
X5.0941Y-5.3937
X5.1161Y-4.7638
X5.1272Y-5.2685
X5.1327Y-4.9638
X5.2697Y-5.4902
X5.3335Y-3.5039
X5.352Y-3.7408
X5.352Y-3.8902
X5.3807Y-5.2004
X5.4094Y-4.1874
X5.422Y-5.3071
X5.4843Y-4.3063
X5.5063Y-4.9622
X5.5173Y-5.324
X5.5185Y-5.1909
X5.5484Y-5.2705
X5.5972Y-5.2417
X5.6795Y-4.3138
X5.6827Y-3.8654
X5.6831Y-3.8366
X5.6909Y-3.6384
X5.6909Y-3.6884
X5.6909Y-3.7384
X5.6909Y-3.7884
X5.6945Y-4.3642
X5.6954Y-5.1695
X5.7098Y-3.865
X5.7102Y-3.8362
X5.7173Y-5.1563
X5.7287Y-4.3622
X5.7307Y-3.6384
X5.7307Y-3.6884
X5.7307Y-3.7384
X5.7307Y-3.7884
X5.737Y-3.865
X5.7374Y-3.8362
X5.8138Y-4.922
X5.8429Y-4.7917
X5.852Y-4.6965
X5.8591Y-4.6374
X5.8617Y-5.3817
X5.9409Y-5.1134
X5.9719Y-4.7027
X5.9721Y-4.7331
X6.0776Y-3.8528
X6.8453Y-4.5165
X6.848Y-5.3508
X6.9787Y-4.6193
X6.9839Y-4.9165
X7.1516Y-4.9958
X7.2059Y-5.3205
X7.2866Y-5.0839
X7.3268Y-5.2002
X7.3681Y-4.7421
X7.3709Y-4.8118
X7.3717Y-4.5969
X7.3717Y-5.0315
X7.3724Y-4.885
X7.3811Y-4.4189
X7.4024Y-4.8169
X7.4524Y-4.9579
X7.4551Y-4.726
X7.4929Y-4.7976
X7.5287Y-4.7307
X7.5791Y-4.4472
X7.6098Y-5.4886
X7.652Y-3.9205
X7.6677Y-3.5185
X7.6874Y-4.4406
X7.7102Y-3.9535
X7.7102Y-4.1224
X7.7252Y-5.3362
X7.7583Y-4.8142
X7.7598Y-5.4039
X7.8055Y-4.3854
X7.8177Y-4.913
X7.8579Y-4.9138
X7.8728Y-4.5878
X7.9016Y-3.4346
X7.976Y-4.6331
X8.0394Y-4.6827
X8.0508Y-4.387
X8.0827Y-5.2811
X8.2787Y-4.6437
X8.2787Y-4.9291
X8.2921Y-5.3394
T3
X4.524Y-3.8921
X5.4153Y-4.5576
X5.6114Y-4.5559
X7.6539Y-4.3917
X7.8016Y-4.1449
X7.8047Y-3.935
X7.8114Y-3.7106
X7.8126Y-3.5008
X7.8913Y-4.0366
X7.8996Y-3.6059
X7.9894Y-3.9311
X7.9909Y-4.1449
X7.9965Y-3.4976
X7.9965Y-3.7106
X8.0799Y-4.1409
X8.0807Y-3.9343
X8.0913Y-3.4984
X8.0917Y-3.7091
X8.1508Y-5.6071
X8.1764Y-4.0402
X8.1874Y-3.6031
X8.1937Y-4.2874
X8.2673Y-4.1402
X8.2705Y-3.9327
X8.2803Y-3.7106
X8.2819Y-3.4972
X8.3276Y-4.3732
X8.4268Y-5.7697
X8.4276Y-5.5567
X8.5197Y-5.6693
X8.6173Y-5.5563
X8.6181Y-5.7709
T4
X3.4602Y-5.8323
X3.4711Y-3.3965
X3.4879Y-5.7655
X3.4879Y-5.8991
X3.4987Y-3.3296
X3.4987Y-3.4633
X3.5547Y-5.7378
X3.5547Y-5.9268
X3.5656Y-3.302
X3.5656Y-3.4909
X3.6215Y-5.7655
X3.6215Y-5.8991
X3.6324Y-3.3296
X3.6324Y-3.4633
X3.6492Y-5.8323
X3.66Y-3.3965
X8.9839Y-5.8075
X9.0051Y-3.3917
X9.0115Y-5.7407
X9.0115Y-5.8743
X9.0328Y-3.3249
X9.0328Y-3.4585
X9.0783Y-5.713
X9.0783Y-5.902
X9.0996Y-3.2972
X9.0996Y-3.4862
X9.1452Y-5.7407
X9.1452Y-5.8743
X9.1664Y-3.3249
X9.1664Y-3.4585
X9.1728Y-5.8075
X9.1941Y-3.3917
T5
X7.163Y-4.1008
X7.163Y-4.4008
X7.263Y-4.1008
X7.263Y-4.4008
T6
X8.663Y-3.5307
X8.663Y-3.8307
T7
X3.7587Y-4.0626
X3.7587Y-4.161
X3.7587Y-4.2594
X3.7587Y-4.3579
X3.7587Y-4.4563
X3.7587Y-4.5547
X3.7587Y-4.6531
T8
X3.7587Y-3.7319
X3.7587Y-3.8303
X3.7587Y-4.8874
X3.7587Y-4.9858
X4.25Y-5.7016
X4.3045Y-5.8134
X4.3591Y-5.7016
X4.4136Y-5.8134
X4.4413Y-5.1945
X4.4681Y-5.7016
X4.5226Y-5.8134
X4.5772Y-5.7016
X4.6317Y-5.8134
X4.6413Y-5.1945
X4.6862Y-5.7016
X4.8413Y-5.1945
X4.9413Y-5.1945
X5.2343Y-5.7744
X5.3343Y-5.7744
X5.4343Y-5.7744
X5.5343Y-5.7744
X5.8287Y-5.7744
X5.9287Y-5.7744
X6.0287Y-5.7744
X6.1287Y-5.7744
X6.2287Y-5.7744
X7.0886Y-3.7697
X7.0886Y-3.9469
X7.3445Y-3.7697
X7.3445Y-3.9469
X7.5055Y-3.5815
X7.6039Y-3.5815
T9
X6.3398Y-4.1469
X6.3398Y-4.4028
X6.5169Y-4.1469
X6.5169Y-4.4028
T10
X9.0764Y-3.7535
X9.0764Y-3.9094
T11
X6.8346Y-5.7587
X7.6209Y-5.7689
X9.1209Y-5.1764
X9.1272Y-4.2185
T12
X3.5547Y-5.8323
X3.5656Y-3.3965
X3.976Y-5.7134
X4.9602Y-5.7134
X9.0783Y-5.8075
X9.0996Y-3.3917
T0
M30
