G04 #@! TF.GenerationSoftware,KiCad,Pcbnew,5.1.9-73d0e3b20d~88~ubuntu18.04.1*
G04 #@! TF.CreationDate,2021-03-04T19:29:10-03:00*
G04 #@! TF.ProjectId,bms_hardware,626d735f-6861-4726-9477-6172652e6b69,rev?*
G04 #@! TF.SameCoordinates,Original*
G04 #@! TF.FileFunction,Legend,Bot*
G04 #@! TF.FilePolarity,Positive*
%FSLAX46Y46*%
G04 Gerber Fmt 4.6, Leading zero omitted, Abs format (unit mm)*
G04 Created by KiCad (PCBNEW 5.1.9-73d0e3b20d~88~ubuntu18.04.1) date 2021-03-04 19:29:10*
%MOMM*%
%LPD*%
G01*
G04 APERTURE LIST*
%ADD10C,0.120000*%
%ADD11C,0.150000*%
G04 APERTURE END LIST*
D10*
X98480000Y-101314000D02*
X98480000Y-105214000D01*
X100480000Y-101314000D02*
X100480000Y-105214000D01*
X98480000Y-101314000D02*
X100480000Y-101314000D01*
X104512936Y-98522500D02*
X104967064Y-98522500D01*
X104512936Y-97052500D02*
X104967064Y-97052500D01*
X98470000Y-120290000D02*
X98470000Y-124190000D01*
X100470000Y-120290000D02*
X100470000Y-124190000D01*
X98470000Y-120290000D02*
X100470000Y-120290000D01*
X139678748Y-117265000D02*
X140201252Y-117265000D01*
X139678748Y-115795000D02*
X140201252Y-115795000D01*
X146361252Y-119775000D02*
X145838748Y-119775000D01*
X146361252Y-121245000D02*
X145838748Y-121245000D01*
X146361252Y-117735000D02*
X145838748Y-117735000D01*
X146361252Y-119205000D02*
X145838748Y-119205000D01*
X127701252Y-123045000D02*
X127178748Y-123045000D01*
X127701252Y-121575000D02*
X127178748Y-121575000D01*
X123581252Y-96035000D02*
X123058748Y-96035000D01*
X123581252Y-97505000D02*
X123058748Y-97505000D01*
X104478748Y-100545000D02*
X105001252Y-100545000D01*
X104478748Y-99075000D02*
X105001252Y-99075000D01*
X104478748Y-104477500D02*
X105001252Y-104477500D01*
X104478748Y-105947500D02*
X105001252Y-105947500D01*
X104488748Y-109231500D02*
X105011252Y-109231500D01*
X104488748Y-110701500D02*
X105011252Y-110701500D01*
X102455000Y-98568748D02*
X102455000Y-99091252D01*
X100985000Y-98568748D02*
X100985000Y-99091252D01*
X100985000Y-103322748D02*
X100985000Y-103845252D01*
X102455000Y-103322748D02*
X102455000Y-103845252D01*
X100995000Y-108081248D02*
X100995000Y-108603752D01*
X102465000Y-108081248D02*
X102465000Y-108603752D01*
X104468748Y-113970000D02*
X104991252Y-113970000D01*
X104468748Y-115440000D02*
X104991252Y-115440000D01*
X104458748Y-118655000D02*
X104981252Y-118655000D01*
X104458748Y-120125000D02*
X104981252Y-120125000D01*
X104468748Y-124923500D02*
X104991252Y-124923500D01*
X104468748Y-123453500D02*
X104991252Y-123453500D01*
X102445000Y-112806248D02*
X102445000Y-113328752D01*
X100975000Y-112806248D02*
X100975000Y-113328752D01*
X100965000Y-117564748D02*
X100965000Y-118087252D01*
X102435000Y-117564748D02*
X102435000Y-118087252D01*
X100975000Y-122251248D02*
X100975000Y-122773752D01*
X102445000Y-122251248D02*
X102445000Y-122773752D01*
X98480000Y-96560000D02*
X100480000Y-96560000D01*
X100480000Y-96560000D02*
X100480000Y-100460000D01*
X98480000Y-96560000D02*
X98480000Y-100460000D01*
X145689758Y-122980000D02*
X146510242Y-122980000D01*
X145689758Y-121860000D02*
X146510242Y-121860000D01*
X123452936Y-123545000D02*
X123907064Y-123545000D01*
X123452936Y-125015000D02*
X123907064Y-125015000D01*
X123907064Y-121585000D02*
X123452936Y-121585000D01*
X123907064Y-123055000D02*
X123452936Y-123055000D01*
X119312936Y-97955000D02*
X119767064Y-97955000D01*
X119312936Y-99425000D02*
X119767064Y-99425000D01*
X123092936Y-99445000D02*
X123547064Y-99445000D01*
X123092936Y-97975000D02*
X123547064Y-97975000D01*
X104512936Y-101806500D02*
X104967064Y-101806500D01*
X104512936Y-103276500D02*
X104967064Y-103276500D01*
X104522936Y-108035000D02*
X104977064Y-108035000D01*
X104522936Y-106565000D02*
X104977064Y-106565000D01*
X104502936Y-112764500D02*
X104957064Y-112764500D01*
X104502936Y-111294500D02*
X104957064Y-111294500D01*
X104492936Y-117518500D02*
X104947064Y-117518500D01*
X104492936Y-116048500D02*
X104947064Y-116048500D01*
X104502936Y-122205000D02*
X104957064Y-122205000D01*
X104502936Y-120735000D02*
X104957064Y-120735000D01*
X98490000Y-106068000D02*
X98490000Y-109968000D01*
X100490000Y-106068000D02*
X100490000Y-109968000D01*
X98490000Y-106068000D02*
X100490000Y-106068000D01*
X98470000Y-110802000D02*
X98470000Y-114702000D01*
X100470000Y-110802000D02*
X100470000Y-114702000D01*
X98470000Y-110802000D02*
X100470000Y-110802000D01*
X98460000Y-115556000D02*
X100460000Y-115556000D01*
X100460000Y-115556000D02*
X100460000Y-119456000D01*
X98460000Y-115556000D02*
X98460000Y-119456000D01*
D11*
X199982857Y-118712380D02*
X199982857Y-117712380D01*
X199411428Y-118712380D01*
X199411428Y-117712380D01*
X199078095Y-117712380D02*
X198506666Y-117712380D01*
X198792380Y-118712380D02*
X198792380Y-117712380D01*
X197649523Y-118712380D02*
X198220952Y-118712380D01*
X197935238Y-118712380D02*
X197935238Y-117712380D01*
X198030476Y-117855238D01*
X198125714Y-117950476D01*
X198220952Y-117998095D01*
X97932380Y-102825904D02*
X96932380Y-102825904D01*
X96932380Y-103064000D01*
X96980000Y-103206857D01*
X97075238Y-103302095D01*
X97170476Y-103349714D01*
X97360952Y-103397333D01*
X97503809Y-103397333D01*
X97694285Y-103349714D01*
X97789523Y-103302095D01*
X97884761Y-103206857D01*
X97932380Y-103064000D01*
X97932380Y-102825904D01*
X96932380Y-104302095D02*
X96932380Y-103825904D01*
X97408571Y-103778285D01*
X97360952Y-103825904D01*
X97313333Y-103921142D01*
X97313333Y-104159238D01*
X97360952Y-104254476D01*
X97408571Y-104302095D01*
X97503809Y-104349714D01*
X97741904Y-104349714D01*
X97837142Y-104302095D01*
X97884761Y-104254476D01*
X97932380Y-104159238D01*
X97932380Y-103921142D01*
X97884761Y-103825904D01*
X97837142Y-103778285D01*
X108872857Y-98172380D02*
X109206190Y-97696190D01*
X109444285Y-98172380D02*
X109444285Y-97172380D01*
X109063333Y-97172380D01*
X108968095Y-97220000D01*
X108920476Y-97267619D01*
X108872857Y-97362857D01*
X108872857Y-97505714D01*
X108920476Y-97600952D01*
X108968095Y-97648571D01*
X109063333Y-97696190D01*
X109444285Y-97696190D01*
X107920476Y-98172380D02*
X108491904Y-98172380D01*
X108206190Y-98172380D02*
X108206190Y-97172380D01*
X108301428Y-97315238D01*
X108396666Y-97410476D01*
X108491904Y-97458095D01*
X107539523Y-97267619D02*
X107491904Y-97220000D01*
X107396666Y-97172380D01*
X107158571Y-97172380D01*
X107063333Y-97220000D01*
X107015714Y-97267619D01*
X106968095Y-97362857D01*
X106968095Y-97458095D01*
X107015714Y-97600952D01*
X107587142Y-98172380D01*
X106968095Y-98172380D01*
X97922380Y-121325714D02*
X96922380Y-121325714D01*
X96922380Y-121563809D01*
X96970000Y-121706666D01*
X97065238Y-121801904D01*
X97160476Y-121849523D01*
X97350952Y-121897142D01*
X97493809Y-121897142D01*
X97684285Y-121849523D01*
X97779523Y-121801904D01*
X97874761Y-121706666D01*
X97922380Y-121563809D01*
X97922380Y-121325714D01*
X97922380Y-122849523D02*
X97922380Y-122278095D01*
X97922380Y-122563809D02*
X96922380Y-122563809D01*
X97065238Y-122468571D01*
X97160476Y-122373333D01*
X97208095Y-122278095D01*
X97017619Y-123230476D02*
X96970000Y-123278095D01*
X96922380Y-123373333D01*
X96922380Y-123611428D01*
X96970000Y-123706666D01*
X97017619Y-123754285D01*
X97112857Y-123801904D01*
X97208095Y-123801904D01*
X97350952Y-123754285D01*
X97922380Y-123182857D01*
X97922380Y-123801904D01*
X140582857Y-115207142D02*
X140630476Y-115254761D01*
X140773333Y-115302380D01*
X140868571Y-115302380D01*
X141011428Y-115254761D01*
X141106666Y-115159523D01*
X141154285Y-115064285D01*
X141201904Y-114873809D01*
X141201904Y-114730952D01*
X141154285Y-114540476D01*
X141106666Y-114445238D01*
X141011428Y-114350000D01*
X140868571Y-114302380D01*
X140773333Y-114302380D01*
X140630476Y-114350000D01*
X140582857Y-114397619D01*
X139725714Y-114635714D02*
X139725714Y-115302380D01*
X139963809Y-114254761D02*
X140201904Y-114969047D01*
X139582857Y-114969047D01*
X139297142Y-114302380D02*
X138678095Y-114302380D01*
X139011428Y-114683333D01*
X138868571Y-114683333D01*
X138773333Y-114730952D01*
X138725714Y-114778571D01*
X138678095Y-114873809D01*
X138678095Y-115111904D01*
X138725714Y-115207142D01*
X138773333Y-115254761D01*
X138868571Y-115302380D01*
X139154285Y-115302380D01*
X139249523Y-115254761D01*
X139297142Y-115207142D01*
X143152857Y-120799642D02*
X143200476Y-120847261D01*
X143343333Y-120894880D01*
X143438571Y-120894880D01*
X143581428Y-120847261D01*
X143676666Y-120752023D01*
X143724285Y-120656785D01*
X143771904Y-120466309D01*
X143771904Y-120323452D01*
X143724285Y-120132976D01*
X143676666Y-120037738D01*
X143581428Y-119942500D01*
X143438571Y-119894880D01*
X143343333Y-119894880D01*
X143200476Y-119942500D01*
X143152857Y-119990119D01*
X142295714Y-120228214D02*
X142295714Y-120894880D01*
X142533809Y-119847261D02*
X142771904Y-120561547D01*
X142152857Y-120561547D01*
X141867142Y-119894880D02*
X141200476Y-119894880D01*
X141629047Y-120894880D01*
X143152857Y-118759642D02*
X143200476Y-118807261D01*
X143343333Y-118854880D01*
X143438571Y-118854880D01*
X143581428Y-118807261D01*
X143676666Y-118712023D01*
X143724285Y-118616785D01*
X143771904Y-118426309D01*
X143771904Y-118283452D01*
X143724285Y-118092976D01*
X143676666Y-117997738D01*
X143581428Y-117902500D01*
X143438571Y-117854880D01*
X143343333Y-117854880D01*
X143200476Y-117902500D01*
X143152857Y-117950119D01*
X142295714Y-118188214D02*
X142295714Y-118854880D01*
X142533809Y-117807261D02*
X142771904Y-118521547D01*
X142152857Y-118521547D01*
X141724285Y-118854880D02*
X141533809Y-118854880D01*
X141438571Y-118807261D01*
X141390952Y-118759642D01*
X141295714Y-118616785D01*
X141248095Y-118426309D01*
X141248095Y-118045357D01*
X141295714Y-117950119D01*
X141343333Y-117902500D01*
X141438571Y-117854880D01*
X141629047Y-117854880D01*
X141724285Y-117902500D01*
X141771904Y-117950119D01*
X141819523Y-118045357D01*
X141819523Y-118283452D01*
X141771904Y-118378690D01*
X141724285Y-118426309D01*
X141629047Y-118473928D01*
X141438571Y-118473928D01*
X141343333Y-118426309D01*
X141295714Y-118378690D01*
X141248095Y-118283452D01*
X127606666Y-120987142D02*
X127654285Y-121034761D01*
X127797142Y-121082380D01*
X127892380Y-121082380D01*
X128035238Y-121034761D01*
X128130476Y-120939523D01*
X128178095Y-120844285D01*
X128225714Y-120653809D01*
X128225714Y-120510952D01*
X128178095Y-120320476D01*
X128130476Y-120225238D01*
X128035238Y-120130000D01*
X127892380Y-120082380D01*
X127797142Y-120082380D01*
X127654285Y-120130000D01*
X127606666Y-120177619D01*
X126749523Y-120415714D02*
X126749523Y-121082380D01*
X126987619Y-120034761D02*
X127225714Y-120749047D01*
X126606666Y-120749047D01*
X123486666Y-95447142D02*
X123534285Y-95494761D01*
X123677142Y-95542380D01*
X123772380Y-95542380D01*
X123915238Y-95494761D01*
X124010476Y-95399523D01*
X124058095Y-95304285D01*
X124105714Y-95113809D01*
X124105714Y-94970952D01*
X124058095Y-94780476D01*
X124010476Y-94685238D01*
X123915238Y-94590000D01*
X123772380Y-94542380D01*
X123677142Y-94542380D01*
X123534285Y-94590000D01*
X123486666Y-94637619D01*
X123153333Y-94542380D02*
X122486666Y-94542380D01*
X122915238Y-95542380D01*
X108872857Y-100099642D02*
X108920476Y-100147261D01*
X109063333Y-100194880D01*
X109158571Y-100194880D01*
X109301428Y-100147261D01*
X109396666Y-100052023D01*
X109444285Y-99956785D01*
X109491904Y-99766309D01*
X109491904Y-99623452D01*
X109444285Y-99432976D01*
X109396666Y-99337738D01*
X109301428Y-99242500D01*
X109158571Y-99194880D01*
X109063333Y-99194880D01*
X108920476Y-99242500D01*
X108872857Y-99290119D01*
X107920476Y-100194880D02*
X108491904Y-100194880D01*
X108206190Y-100194880D02*
X108206190Y-99194880D01*
X108301428Y-99337738D01*
X108396666Y-99432976D01*
X108491904Y-99480595D01*
X107301428Y-99194880D02*
X107206190Y-99194880D01*
X107110952Y-99242500D01*
X107063333Y-99290119D01*
X107015714Y-99385357D01*
X106968095Y-99575833D01*
X106968095Y-99813928D01*
X107015714Y-100004404D01*
X107063333Y-100099642D01*
X107110952Y-100147261D01*
X107206190Y-100194880D01*
X107301428Y-100194880D01*
X107396666Y-100147261D01*
X107444285Y-100099642D01*
X107491904Y-100004404D01*
X107539523Y-99813928D01*
X107539523Y-99575833D01*
X107491904Y-99385357D01*
X107444285Y-99290119D01*
X107396666Y-99242500D01*
X107301428Y-99194880D01*
X108872857Y-105502142D02*
X108920476Y-105549761D01*
X109063333Y-105597380D01*
X109158571Y-105597380D01*
X109301428Y-105549761D01*
X109396666Y-105454523D01*
X109444285Y-105359285D01*
X109491904Y-105168809D01*
X109491904Y-105025952D01*
X109444285Y-104835476D01*
X109396666Y-104740238D01*
X109301428Y-104645000D01*
X109158571Y-104597380D01*
X109063333Y-104597380D01*
X108920476Y-104645000D01*
X108872857Y-104692619D01*
X107920476Y-105597380D02*
X108491904Y-105597380D01*
X108206190Y-105597380D02*
X108206190Y-104597380D01*
X108301428Y-104740238D01*
X108396666Y-104835476D01*
X108491904Y-104883095D01*
X106968095Y-105597380D02*
X107539523Y-105597380D01*
X107253809Y-105597380D02*
X107253809Y-104597380D01*
X107349047Y-104740238D01*
X107444285Y-104835476D01*
X107539523Y-104883095D01*
X108872857Y-110256142D02*
X108920476Y-110303761D01*
X109063333Y-110351380D01*
X109158571Y-110351380D01*
X109301428Y-110303761D01*
X109396666Y-110208523D01*
X109444285Y-110113285D01*
X109491904Y-109922809D01*
X109491904Y-109779952D01*
X109444285Y-109589476D01*
X109396666Y-109494238D01*
X109301428Y-109399000D01*
X109158571Y-109351380D01*
X109063333Y-109351380D01*
X108920476Y-109399000D01*
X108872857Y-109446619D01*
X107920476Y-110351380D02*
X108491904Y-110351380D01*
X108206190Y-110351380D02*
X108206190Y-109351380D01*
X108301428Y-109494238D01*
X108396666Y-109589476D01*
X108491904Y-109637095D01*
X107539523Y-109446619D02*
X107491904Y-109399000D01*
X107396666Y-109351380D01*
X107158571Y-109351380D01*
X107063333Y-109399000D01*
X107015714Y-109446619D01*
X106968095Y-109541857D01*
X106968095Y-109637095D01*
X107015714Y-109779952D01*
X107587142Y-110351380D01*
X106968095Y-110351380D01*
X100397142Y-98187142D02*
X100444761Y-98139523D01*
X100492380Y-97996666D01*
X100492380Y-97901428D01*
X100444761Y-97758571D01*
X100349523Y-97663333D01*
X100254285Y-97615714D01*
X100063809Y-97568095D01*
X99920952Y-97568095D01*
X99730476Y-97615714D01*
X99635238Y-97663333D01*
X99540000Y-97758571D01*
X99492380Y-97901428D01*
X99492380Y-97996666D01*
X99540000Y-98139523D01*
X99587619Y-98187142D01*
X100492380Y-99139523D02*
X100492380Y-98568095D01*
X100492380Y-98853809D02*
X99492380Y-98853809D01*
X99635238Y-98758571D01*
X99730476Y-98663333D01*
X99778095Y-98568095D01*
X99492380Y-99472857D02*
X99492380Y-100091904D01*
X99873333Y-99758571D01*
X99873333Y-99901428D01*
X99920952Y-99996666D01*
X99968571Y-100044285D01*
X100063809Y-100091904D01*
X100301904Y-100091904D01*
X100397142Y-100044285D01*
X100444761Y-99996666D01*
X100492380Y-99901428D01*
X100492380Y-99615714D01*
X100444761Y-99520476D01*
X100397142Y-99472857D01*
X100397142Y-102941142D02*
X100444761Y-102893523D01*
X100492380Y-102750666D01*
X100492380Y-102655428D01*
X100444761Y-102512571D01*
X100349523Y-102417333D01*
X100254285Y-102369714D01*
X100063809Y-102322095D01*
X99920952Y-102322095D01*
X99730476Y-102369714D01*
X99635238Y-102417333D01*
X99540000Y-102512571D01*
X99492380Y-102655428D01*
X99492380Y-102750666D01*
X99540000Y-102893523D01*
X99587619Y-102941142D01*
X100492380Y-103893523D02*
X100492380Y-103322095D01*
X100492380Y-103607809D02*
X99492380Y-103607809D01*
X99635238Y-103512571D01*
X99730476Y-103417333D01*
X99778095Y-103322095D01*
X99825714Y-104750666D02*
X100492380Y-104750666D01*
X99444761Y-104512571D02*
X100159047Y-104274476D01*
X100159047Y-104893523D01*
X100407142Y-107699642D02*
X100454761Y-107652023D01*
X100502380Y-107509166D01*
X100502380Y-107413928D01*
X100454761Y-107271071D01*
X100359523Y-107175833D01*
X100264285Y-107128214D01*
X100073809Y-107080595D01*
X99930952Y-107080595D01*
X99740476Y-107128214D01*
X99645238Y-107175833D01*
X99550000Y-107271071D01*
X99502380Y-107413928D01*
X99502380Y-107509166D01*
X99550000Y-107652023D01*
X99597619Y-107699642D01*
X100502380Y-108652023D02*
X100502380Y-108080595D01*
X100502380Y-108366309D02*
X99502380Y-108366309D01*
X99645238Y-108271071D01*
X99740476Y-108175833D01*
X99788095Y-108080595D01*
X99502380Y-109556785D02*
X99502380Y-109080595D01*
X99978571Y-109032976D01*
X99930952Y-109080595D01*
X99883333Y-109175833D01*
X99883333Y-109413928D01*
X99930952Y-109509166D01*
X99978571Y-109556785D01*
X100073809Y-109604404D01*
X100311904Y-109604404D01*
X100407142Y-109556785D01*
X100454761Y-109509166D01*
X100502380Y-109413928D01*
X100502380Y-109175833D01*
X100454761Y-109080595D01*
X100407142Y-109032976D01*
X108872857Y-114994642D02*
X108920476Y-115042261D01*
X109063333Y-115089880D01*
X109158571Y-115089880D01*
X109301428Y-115042261D01*
X109396666Y-114947023D01*
X109444285Y-114851785D01*
X109491904Y-114661309D01*
X109491904Y-114518452D01*
X109444285Y-114327976D01*
X109396666Y-114232738D01*
X109301428Y-114137500D01*
X109158571Y-114089880D01*
X109063333Y-114089880D01*
X108920476Y-114137500D01*
X108872857Y-114185119D01*
X107920476Y-115089880D02*
X108491904Y-115089880D01*
X108206190Y-115089880D02*
X108206190Y-114089880D01*
X108301428Y-114232738D01*
X108396666Y-114327976D01*
X108491904Y-114375595D01*
X107063333Y-114089880D02*
X107253809Y-114089880D01*
X107349047Y-114137500D01*
X107396666Y-114185119D01*
X107491904Y-114327976D01*
X107539523Y-114518452D01*
X107539523Y-114899404D01*
X107491904Y-114994642D01*
X107444285Y-115042261D01*
X107349047Y-115089880D01*
X107158571Y-115089880D01*
X107063333Y-115042261D01*
X107015714Y-114994642D01*
X106968095Y-114899404D01*
X106968095Y-114661309D01*
X107015714Y-114566071D01*
X107063333Y-114518452D01*
X107158571Y-114470833D01*
X107349047Y-114470833D01*
X107444285Y-114518452D01*
X107491904Y-114566071D01*
X107539523Y-114661309D01*
X108872857Y-119679642D02*
X108920476Y-119727261D01*
X109063333Y-119774880D01*
X109158571Y-119774880D01*
X109301428Y-119727261D01*
X109396666Y-119632023D01*
X109444285Y-119536785D01*
X109491904Y-119346309D01*
X109491904Y-119203452D01*
X109444285Y-119012976D01*
X109396666Y-118917738D01*
X109301428Y-118822500D01*
X109158571Y-118774880D01*
X109063333Y-118774880D01*
X108920476Y-118822500D01*
X108872857Y-118870119D01*
X107920476Y-119774880D02*
X108491904Y-119774880D01*
X108206190Y-119774880D02*
X108206190Y-118774880D01*
X108301428Y-118917738D01*
X108396666Y-119012976D01*
X108491904Y-119060595D01*
X107587142Y-118774880D02*
X106920476Y-118774880D01*
X107349047Y-119774880D01*
X108872857Y-124478142D02*
X108920476Y-124525761D01*
X109063333Y-124573380D01*
X109158571Y-124573380D01*
X109301428Y-124525761D01*
X109396666Y-124430523D01*
X109444285Y-124335285D01*
X109491904Y-124144809D01*
X109491904Y-124001952D01*
X109444285Y-123811476D01*
X109396666Y-123716238D01*
X109301428Y-123621000D01*
X109158571Y-123573380D01*
X109063333Y-123573380D01*
X108920476Y-123621000D01*
X108872857Y-123668619D01*
X107920476Y-124573380D02*
X108491904Y-124573380D01*
X108206190Y-124573380D02*
X108206190Y-123573380D01*
X108301428Y-123716238D01*
X108396666Y-123811476D01*
X108491904Y-123859095D01*
X107349047Y-124001952D02*
X107444285Y-123954333D01*
X107491904Y-123906714D01*
X107539523Y-123811476D01*
X107539523Y-123763857D01*
X107491904Y-123668619D01*
X107444285Y-123621000D01*
X107349047Y-123573380D01*
X107158571Y-123573380D01*
X107063333Y-123621000D01*
X107015714Y-123668619D01*
X106968095Y-123763857D01*
X106968095Y-123811476D01*
X107015714Y-123906714D01*
X107063333Y-123954333D01*
X107158571Y-124001952D01*
X107349047Y-124001952D01*
X107444285Y-124049571D01*
X107491904Y-124097190D01*
X107539523Y-124192428D01*
X107539523Y-124382904D01*
X107491904Y-124478142D01*
X107444285Y-124525761D01*
X107349047Y-124573380D01*
X107158571Y-124573380D01*
X107063333Y-124525761D01*
X107015714Y-124478142D01*
X106968095Y-124382904D01*
X106968095Y-124192428D01*
X107015714Y-124097190D01*
X107063333Y-124049571D01*
X107158571Y-124001952D01*
X100387142Y-112424642D02*
X100434761Y-112377023D01*
X100482380Y-112234166D01*
X100482380Y-112138928D01*
X100434761Y-111996071D01*
X100339523Y-111900833D01*
X100244285Y-111853214D01*
X100053809Y-111805595D01*
X99910952Y-111805595D01*
X99720476Y-111853214D01*
X99625238Y-111900833D01*
X99530000Y-111996071D01*
X99482380Y-112138928D01*
X99482380Y-112234166D01*
X99530000Y-112377023D01*
X99577619Y-112424642D01*
X100482380Y-113377023D02*
X100482380Y-112805595D01*
X100482380Y-113091309D02*
X99482380Y-113091309D01*
X99625238Y-112996071D01*
X99720476Y-112900833D01*
X99768095Y-112805595D01*
X100482380Y-113853214D02*
X100482380Y-114043690D01*
X100434761Y-114138928D01*
X100387142Y-114186547D01*
X100244285Y-114281785D01*
X100053809Y-114329404D01*
X99672857Y-114329404D01*
X99577619Y-114281785D01*
X99530000Y-114234166D01*
X99482380Y-114138928D01*
X99482380Y-113948452D01*
X99530000Y-113853214D01*
X99577619Y-113805595D01*
X99672857Y-113757976D01*
X99910952Y-113757976D01*
X100006190Y-113805595D01*
X100053809Y-113853214D01*
X100101428Y-113948452D01*
X100101428Y-114138928D01*
X100053809Y-114234166D01*
X100006190Y-114281785D01*
X99910952Y-114329404D01*
X100377142Y-117183142D02*
X100424761Y-117135523D01*
X100472380Y-116992666D01*
X100472380Y-116897428D01*
X100424761Y-116754571D01*
X100329523Y-116659333D01*
X100234285Y-116611714D01*
X100043809Y-116564095D01*
X99900952Y-116564095D01*
X99710476Y-116611714D01*
X99615238Y-116659333D01*
X99520000Y-116754571D01*
X99472380Y-116897428D01*
X99472380Y-116992666D01*
X99520000Y-117135523D01*
X99567619Y-117183142D01*
X99567619Y-117564095D02*
X99520000Y-117611714D01*
X99472380Y-117706952D01*
X99472380Y-117945047D01*
X99520000Y-118040285D01*
X99567619Y-118087904D01*
X99662857Y-118135523D01*
X99758095Y-118135523D01*
X99900952Y-118087904D01*
X100472380Y-117516476D01*
X100472380Y-118135523D01*
X99472380Y-118754571D02*
X99472380Y-118849809D01*
X99520000Y-118945047D01*
X99567619Y-118992666D01*
X99662857Y-119040285D01*
X99853333Y-119087904D01*
X100091428Y-119087904D01*
X100281904Y-119040285D01*
X100377142Y-118992666D01*
X100424761Y-118945047D01*
X100472380Y-118849809D01*
X100472380Y-118754571D01*
X100424761Y-118659333D01*
X100377142Y-118611714D01*
X100281904Y-118564095D01*
X100091428Y-118516476D01*
X99853333Y-118516476D01*
X99662857Y-118564095D01*
X99567619Y-118611714D01*
X99520000Y-118659333D01*
X99472380Y-118754571D01*
X100387142Y-121869642D02*
X100434761Y-121822023D01*
X100482380Y-121679166D01*
X100482380Y-121583928D01*
X100434761Y-121441071D01*
X100339523Y-121345833D01*
X100244285Y-121298214D01*
X100053809Y-121250595D01*
X99910952Y-121250595D01*
X99720476Y-121298214D01*
X99625238Y-121345833D01*
X99530000Y-121441071D01*
X99482380Y-121583928D01*
X99482380Y-121679166D01*
X99530000Y-121822023D01*
X99577619Y-121869642D01*
X99577619Y-122250595D02*
X99530000Y-122298214D01*
X99482380Y-122393452D01*
X99482380Y-122631547D01*
X99530000Y-122726785D01*
X99577619Y-122774404D01*
X99672857Y-122822023D01*
X99768095Y-122822023D01*
X99910952Y-122774404D01*
X100482380Y-122202976D01*
X100482380Y-122822023D01*
X100482380Y-123774404D02*
X100482380Y-123202976D01*
X100482380Y-123488690D02*
X99482380Y-123488690D01*
X99625238Y-123393452D01*
X99720476Y-123298214D01*
X99768095Y-123202976D01*
X97932380Y-98071904D02*
X96932380Y-98071904D01*
X96932380Y-98310000D01*
X96980000Y-98452857D01*
X97075238Y-98548095D01*
X97170476Y-98595714D01*
X97360952Y-98643333D01*
X97503809Y-98643333D01*
X97694285Y-98595714D01*
X97789523Y-98548095D01*
X97884761Y-98452857D01*
X97932380Y-98310000D01*
X97932380Y-98071904D01*
X97265714Y-99500476D02*
X97932380Y-99500476D01*
X96884761Y-99262380D02*
X97599047Y-99024285D01*
X97599047Y-99643333D01*
X143248094Y-122804880D02*
X143724285Y-122804880D01*
X143724285Y-121804880D01*
X143009999Y-121804880D02*
X142390951Y-121804880D01*
X142724285Y-122185833D01*
X142581428Y-122185833D01*
X142486189Y-122233452D01*
X142438570Y-122281071D01*
X142390951Y-122376309D01*
X142390951Y-122614404D01*
X142438570Y-122709642D01*
X142486189Y-122757261D01*
X142581428Y-122804880D01*
X142867142Y-122804880D01*
X142962380Y-122757261D01*
X143009999Y-122709642D01*
X123846666Y-126382380D02*
X124180000Y-125906190D01*
X124418095Y-126382380D02*
X124418095Y-125382380D01*
X124037142Y-125382380D01*
X123941904Y-125430000D01*
X123894285Y-125477619D01*
X123846666Y-125572857D01*
X123846666Y-125715714D01*
X123894285Y-125810952D01*
X123941904Y-125858571D01*
X124037142Y-125906190D01*
X124418095Y-125906190D01*
X123275238Y-125810952D02*
X123370476Y-125763333D01*
X123418095Y-125715714D01*
X123465714Y-125620476D01*
X123465714Y-125572857D01*
X123418095Y-125477619D01*
X123370476Y-125430000D01*
X123275238Y-125382380D01*
X123084761Y-125382380D01*
X122989523Y-125430000D01*
X122941904Y-125477619D01*
X122894285Y-125572857D01*
X122894285Y-125620476D01*
X122941904Y-125715714D01*
X122989523Y-125763333D01*
X123084761Y-125810952D01*
X123275238Y-125810952D01*
X123370476Y-125858571D01*
X123418095Y-125906190D01*
X123465714Y-126001428D01*
X123465714Y-126191904D01*
X123418095Y-126287142D01*
X123370476Y-126334761D01*
X123275238Y-126382380D01*
X123084761Y-126382380D01*
X122989523Y-126334761D01*
X122941904Y-126287142D01*
X122894285Y-126191904D01*
X122894285Y-126001428D01*
X122941904Y-125906190D01*
X122989523Y-125858571D01*
X123084761Y-125810952D01*
X123846666Y-121122380D02*
X124180000Y-120646190D01*
X124418095Y-121122380D02*
X124418095Y-120122380D01*
X124037142Y-120122380D01*
X123941904Y-120170000D01*
X123894285Y-120217619D01*
X123846666Y-120312857D01*
X123846666Y-120455714D01*
X123894285Y-120550952D01*
X123941904Y-120598571D01*
X124037142Y-120646190D01*
X124418095Y-120646190D01*
X123370476Y-121122380D02*
X123180000Y-121122380D01*
X123084761Y-121074761D01*
X123037142Y-121027142D01*
X122941904Y-120884285D01*
X122894285Y-120693809D01*
X122894285Y-120312857D01*
X122941904Y-120217619D01*
X122989523Y-120170000D01*
X123084761Y-120122380D01*
X123275238Y-120122380D01*
X123370476Y-120170000D01*
X123418095Y-120217619D01*
X123465714Y-120312857D01*
X123465714Y-120550952D01*
X123418095Y-120646190D01*
X123370476Y-120693809D01*
X123275238Y-120741428D01*
X123084761Y-120741428D01*
X122989523Y-120693809D01*
X122941904Y-120646190D01*
X122894285Y-120550952D01*
X120182857Y-100792380D02*
X120516190Y-100316190D01*
X120754285Y-100792380D02*
X120754285Y-99792380D01*
X120373333Y-99792380D01*
X120278095Y-99840000D01*
X120230476Y-99887619D01*
X120182857Y-99982857D01*
X120182857Y-100125714D01*
X120230476Y-100220952D01*
X120278095Y-100268571D01*
X120373333Y-100316190D01*
X120754285Y-100316190D01*
X119230476Y-100792380D02*
X119801904Y-100792380D01*
X119516190Y-100792380D02*
X119516190Y-99792380D01*
X119611428Y-99935238D01*
X119706666Y-100030476D01*
X119801904Y-100078095D01*
X118611428Y-99792380D02*
X118516190Y-99792380D01*
X118420952Y-99840000D01*
X118373333Y-99887619D01*
X118325714Y-99982857D01*
X118278095Y-100173333D01*
X118278095Y-100411428D01*
X118325714Y-100601904D01*
X118373333Y-100697142D01*
X118420952Y-100744761D01*
X118516190Y-100792380D01*
X118611428Y-100792380D01*
X118706666Y-100744761D01*
X118754285Y-100697142D01*
X118801904Y-100601904D01*
X118849523Y-100411428D01*
X118849523Y-100173333D01*
X118801904Y-99982857D01*
X118754285Y-99887619D01*
X118706666Y-99840000D01*
X118611428Y-99792380D01*
X123962857Y-100812380D02*
X124296190Y-100336190D01*
X124534285Y-100812380D02*
X124534285Y-99812380D01*
X124153333Y-99812380D01*
X124058095Y-99860000D01*
X124010476Y-99907619D01*
X123962857Y-100002857D01*
X123962857Y-100145714D01*
X124010476Y-100240952D01*
X124058095Y-100288571D01*
X124153333Y-100336190D01*
X124534285Y-100336190D01*
X123010476Y-100812380D02*
X123581904Y-100812380D01*
X123296190Y-100812380D02*
X123296190Y-99812380D01*
X123391428Y-99955238D01*
X123486666Y-100050476D01*
X123581904Y-100098095D01*
X122058095Y-100812380D02*
X122629523Y-100812380D01*
X122343809Y-100812380D02*
X122343809Y-99812380D01*
X122439047Y-99955238D01*
X122534285Y-100050476D01*
X122629523Y-100098095D01*
X108872857Y-102926380D02*
X109206190Y-102450190D01*
X109444285Y-102926380D02*
X109444285Y-101926380D01*
X109063333Y-101926380D01*
X108968095Y-101974000D01*
X108920476Y-102021619D01*
X108872857Y-102116857D01*
X108872857Y-102259714D01*
X108920476Y-102354952D01*
X108968095Y-102402571D01*
X109063333Y-102450190D01*
X109444285Y-102450190D01*
X107920476Y-102926380D02*
X108491904Y-102926380D01*
X108206190Y-102926380D02*
X108206190Y-101926380D01*
X108301428Y-102069238D01*
X108396666Y-102164476D01*
X108491904Y-102212095D01*
X107587142Y-101926380D02*
X106968095Y-101926380D01*
X107301428Y-102307333D01*
X107158571Y-102307333D01*
X107063333Y-102354952D01*
X107015714Y-102402571D01*
X106968095Y-102497809D01*
X106968095Y-102735904D01*
X107015714Y-102831142D01*
X107063333Y-102878761D01*
X107158571Y-102926380D01*
X107444285Y-102926380D01*
X107539523Y-102878761D01*
X107587142Y-102831142D01*
X108872857Y-107684880D02*
X109206190Y-107208690D01*
X109444285Y-107684880D02*
X109444285Y-106684880D01*
X109063333Y-106684880D01*
X108968095Y-106732500D01*
X108920476Y-106780119D01*
X108872857Y-106875357D01*
X108872857Y-107018214D01*
X108920476Y-107113452D01*
X108968095Y-107161071D01*
X109063333Y-107208690D01*
X109444285Y-107208690D01*
X107920476Y-107684880D02*
X108491904Y-107684880D01*
X108206190Y-107684880D02*
X108206190Y-106684880D01*
X108301428Y-106827738D01*
X108396666Y-106922976D01*
X108491904Y-106970595D01*
X107063333Y-107018214D02*
X107063333Y-107684880D01*
X107301428Y-106637261D02*
X107539523Y-107351547D01*
X106920476Y-107351547D01*
X108872857Y-112414380D02*
X109206190Y-111938190D01*
X109444285Y-112414380D02*
X109444285Y-111414380D01*
X109063333Y-111414380D01*
X108968095Y-111462000D01*
X108920476Y-111509619D01*
X108872857Y-111604857D01*
X108872857Y-111747714D01*
X108920476Y-111842952D01*
X108968095Y-111890571D01*
X109063333Y-111938190D01*
X109444285Y-111938190D01*
X108491904Y-111509619D02*
X108444285Y-111462000D01*
X108349047Y-111414380D01*
X108110952Y-111414380D01*
X108015714Y-111462000D01*
X107968095Y-111509619D01*
X107920476Y-111604857D01*
X107920476Y-111700095D01*
X107968095Y-111842952D01*
X108539523Y-112414380D01*
X107920476Y-112414380D01*
X107063333Y-111747714D02*
X107063333Y-112414380D01*
X107301428Y-111366761D02*
X107539523Y-112081047D01*
X106920476Y-112081047D01*
X108872857Y-117168380D02*
X109206190Y-116692190D01*
X109444285Y-117168380D02*
X109444285Y-116168380D01*
X109063333Y-116168380D01*
X108968095Y-116216000D01*
X108920476Y-116263619D01*
X108872857Y-116358857D01*
X108872857Y-116501714D01*
X108920476Y-116596952D01*
X108968095Y-116644571D01*
X109063333Y-116692190D01*
X109444285Y-116692190D01*
X108491904Y-116263619D02*
X108444285Y-116216000D01*
X108349047Y-116168380D01*
X108110952Y-116168380D01*
X108015714Y-116216000D01*
X107968095Y-116263619D01*
X107920476Y-116358857D01*
X107920476Y-116454095D01*
X107968095Y-116596952D01*
X108539523Y-117168380D01*
X107920476Y-117168380D01*
X107015714Y-116168380D02*
X107491904Y-116168380D01*
X107539523Y-116644571D01*
X107491904Y-116596952D01*
X107396666Y-116549333D01*
X107158571Y-116549333D01*
X107063333Y-116596952D01*
X107015714Y-116644571D01*
X106968095Y-116739809D01*
X106968095Y-116977904D01*
X107015714Y-117073142D01*
X107063333Y-117120761D01*
X107158571Y-117168380D01*
X107396666Y-117168380D01*
X107491904Y-117120761D01*
X107539523Y-117073142D01*
X108872857Y-121854880D02*
X109206190Y-121378690D01*
X109444285Y-121854880D02*
X109444285Y-120854880D01*
X109063333Y-120854880D01*
X108968095Y-120902500D01*
X108920476Y-120950119D01*
X108872857Y-121045357D01*
X108872857Y-121188214D01*
X108920476Y-121283452D01*
X108968095Y-121331071D01*
X109063333Y-121378690D01*
X109444285Y-121378690D01*
X108491904Y-120950119D02*
X108444285Y-120902500D01*
X108349047Y-120854880D01*
X108110952Y-120854880D01*
X108015714Y-120902500D01*
X107968095Y-120950119D01*
X107920476Y-121045357D01*
X107920476Y-121140595D01*
X107968095Y-121283452D01*
X108539523Y-121854880D01*
X107920476Y-121854880D01*
X107063333Y-120854880D02*
X107253809Y-120854880D01*
X107349047Y-120902500D01*
X107396666Y-120950119D01*
X107491904Y-121092976D01*
X107539523Y-121283452D01*
X107539523Y-121664404D01*
X107491904Y-121759642D01*
X107444285Y-121807261D01*
X107349047Y-121854880D01*
X107158571Y-121854880D01*
X107063333Y-121807261D01*
X107015714Y-121759642D01*
X106968095Y-121664404D01*
X106968095Y-121426309D01*
X107015714Y-121331071D01*
X107063333Y-121283452D01*
X107158571Y-121235833D01*
X107349047Y-121235833D01*
X107444285Y-121283452D01*
X107491904Y-121331071D01*
X107539523Y-121426309D01*
X97942380Y-107579904D02*
X96942380Y-107579904D01*
X96942380Y-107818000D01*
X96990000Y-107960857D01*
X97085238Y-108056095D01*
X97180476Y-108103714D01*
X97370952Y-108151333D01*
X97513809Y-108151333D01*
X97704285Y-108103714D01*
X97799523Y-108056095D01*
X97894761Y-107960857D01*
X97942380Y-107818000D01*
X97942380Y-107579904D01*
X96942380Y-109008476D02*
X96942380Y-108818000D01*
X96990000Y-108722761D01*
X97037619Y-108675142D01*
X97180476Y-108579904D01*
X97370952Y-108532285D01*
X97751904Y-108532285D01*
X97847142Y-108579904D01*
X97894761Y-108627523D01*
X97942380Y-108722761D01*
X97942380Y-108913238D01*
X97894761Y-109008476D01*
X97847142Y-109056095D01*
X97751904Y-109103714D01*
X97513809Y-109103714D01*
X97418571Y-109056095D01*
X97370952Y-109008476D01*
X97323333Y-108913238D01*
X97323333Y-108722761D01*
X97370952Y-108627523D01*
X97418571Y-108579904D01*
X97513809Y-108532285D01*
X97922380Y-111837714D02*
X96922380Y-111837714D01*
X96922380Y-112075809D01*
X96970000Y-112218666D01*
X97065238Y-112313904D01*
X97160476Y-112361523D01*
X97350952Y-112409142D01*
X97493809Y-112409142D01*
X97684285Y-112361523D01*
X97779523Y-112313904D01*
X97874761Y-112218666D01*
X97922380Y-112075809D01*
X97922380Y-111837714D01*
X97922380Y-113361523D02*
X97922380Y-112790095D01*
X97922380Y-113075809D02*
X96922380Y-113075809D01*
X97065238Y-112980571D01*
X97160476Y-112885333D01*
X97208095Y-112790095D01*
X96922380Y-113980571D02*
X96922380Y-114075809D01*
X96970000Y-114171047D01*
X97017619Y-114218666D01*
X97112857Y-114266285D01*
X97303333Y-114313904D01*
X97541428Y-114313904D01*
X97731904Y-114266285D01*
X97827142Y-114218666D01*
X97874761Y-114171047D01*
X97922380Y-114075809D01*
X97922380Y-113980571D01*
X97874761Y-113885333D01*
X97827142Y-113837714D01*
X97731904Y-113790095D01*
X97541428Y-113742476D01*
X97303333Y-113742476D01*
X97112857Y-113790095D01*
X97017619Y-113837714D01*
X96970000Y-113885333D01*
X96922380Y-113980571D01*
X97912380Y-116591714D02*
X96912380Y-116591714D01*
X96912380Y-116829809D01*
X96960000Y-116972666D01*
X97055238Y-117067904D01*
X97150476Y-117115523D01*
X97340952Y-117163142D01*
X97483809Y-117163142D01*
X97674285Y-117115523D01*
X97769523Y-117067904D01*
X97864761Y-116972666D01*
X97912380Y-116829809D01*
X97912380Y-116591714D01*
X97912380Y-118115523D02*
X97912380Y-117544095D01*
X97912380Y-117829809D02*
X96912380Y-117829809D01*
X97055238Y-117734571D01*
X97150476Y-117639333D01*
X97198095Y-117544095D01*
X97912380Y-119067904D02*
X97912380Y-118496476D01*
X97912380Y-118782190D02*
X96912380Y-118782190D01*
X97055238Y-118686952D01*
X97150476Y-118591714D01*
X97198095Y-118496476D01*
M02*
