G04 #@! TF.GenerationSoftware,KiCad,Pcbnew,(5.0.0)*
G04 #@! TF.CreationDate,2019-07-01T15:33:15-03:00*
G04 #@! TF.ProjectId,dc_load,64635F6C6F61642E6B696361645F7063,rev?*
G04 #@! TF.SameCoordinates,Original*
G04 #@! TF.FileFunction,Copper,L2,Bot,Signal*
G04 #@! TF.FilePolarity,Positive*
%FSLAX46Y46*%
G04 Gerber Fmt 4.6, Leading zero omitted, Abs format (unit mm)*
G04 Created by KiCad (PCBNEW (5.0.0)) date 07/01/19 15:33:15*
%MOMM*%
%LPD*%
G01*
G04 APERTURE LIST*
G04 #@! TA.AperFunction,Conductor*
%ADD10C,0.100000*%
G04 #@! TD*
G04 #@! TA.AperFunction,ComponentPad*
%ADD11C,3.500000*%
G04 #@! TD*
G04 #@! TA.AperFunction,ComponentPad*
%ADD12C,3.000000*%
G04 #@! TD*
G04 #@! TA.AperFunction,ComponentPad*
%ADD13R,3.500000X3.500000*%
G04 #@! TD*
G04 #@! TA.AperFunction,ComponentPad*
%ADD14R,2.500000X4.500000*%
G04 #@! TD*
G04 #@! TA.AperFunction,ComponentPad*
%ADD15O,2.500000X4.500000*%
G04 #@! TD*
G04 #@! TA.AperFunction,ComponentPad*
%ADD16C,1.600000*%
G04 #@! TD*
G04 #@! TA.AperFunction,ComponentPad*
%ADD17R,1.600000X1.600000*%
G04 #@! TD*
G04 #@! TA.AperFunction,ComponentPad*
%ADD18R,1.905000X2.000000*%
G04 #@! TD*
G04 #@! TA.AperFunction,ComponentPad*
%ADD19O,1.905000X2.000000*%
G04 #@! TD*
G04 #@! TA.AperFunction,ComponentPad*
%ADD20C,1.700000*%
G04 #@! TD*
G04 #@! TA.AperFunction,ComponentPad*
%ADD21O,1.700000X1.950000*%
G04 #@! TD*
G04 #@! TA.AperFunction,ComponentPad*
%ADD22R,2.000000X1.700000*%
G04 #@! TD*
G04 #@! TA.AperFunction,ComponentPad*
%ADD23O,2.000000X1.700000*%
G04 #@! TD*
G04 #@! TA.AperFunction,ComponentPad*
%ADD24R,1.700000X1.700000*%
G04 #@! TD*
G04 #@! TA.AperFunction,ComponentPad*
%ADD25O,1.700000X1.700000*%
G04 #@! TD*
G04 #@! TA.AperFunction,ViaPad*
%ADD26C,0.800000*%
G04 #@! TD*
G04 #@! TA.AperFunction,ViaPad*
%ADD27C,1.000000*%
G04 #@! TD*
G04 #@! TA.AperFunction,Conductor*
%ADD28C,0.500000*%
G04 #@! TD*
G04 #@! TA.AperFunction,Conductor*
%ADD29C,0.400000*%
G04 #@! TD*
G04 #@! TA.AperFunction,Conductor*
%ADD30C,0.600000*%
G04 #@! TD*
G04 #@! TA.AperFunction,Conductor*
%ADD31C,0.250000*%
G04 #@! TD*
G04 #@! TA.AperFunction,Conductor*
%ADD32C,1.000000*%
G04 #@! TD*
G04 #@! TA.AperFunction,Conductor*
%ADD33C,0.900000*%
G04 #@! TD*
G04 #@! TA.AperFunction,Conductor*
%ADD34C,0.300000*%
G04 #@! TD*
G04 #@! TA.AperFunction,Conductor*
%ADD35C,0.700000*%
G04 #@! TD*
G04 #@! TA.AperFunction,Conductor*
%ADD36C,0.254000*%
G04 #@! TD*
G04 APERTURE END LIST*
D10*
G04 #@! TO.N,N/C*
G04 #@! TO.C,J1*
G36*
X40250765Y-106624213D02*
X40335704Y-106636813D01*
X40418999Y-106657677D01*
X40499848Y-106686605D01*
X40577472Y-106723319D01*
X40651124Y-106767464D01*
X40720094Y-106818616D01*
X40783718Y-106876282D01*
X40841384Y-106939906D01*
X40892536Y-107008876D01*
X40936681Y-107082528D01*
X40973395Y-107160152D01*
X41002323Y-107241001D01*
X41023187Y-107324296D01*
X41035787Y-107409235D01*
X41040000Y-107495000D01*
X41040000Y-109245000D01*
X41035787Y-109330765D01*
X41023187Y-109415704D01*
X41002323Y-109498999D01*
X40973395Y-109579848D01*
X40936681Y-109657472D01*
X40892536Y-109731124D01*
X40841384Y-109800094D01*
X40783718Y-109863718D01*
X40720094Y-109921384D01*
X40651124Y-109972536D01*
X40577472Y-110016681D01*
X40499848Y-110053395D01*
X40418999Y-110082323D01*
X40335704Y-110103187D01*
X40250765Y-110115787D01*
X40165000Y-110120000D01*
X38415000Y-110120000D01*
X38329235Y-110115787D01*
X38244296Y-110103187D01*
X38161001Y-110082323D01*
X38080152Y-110053395D01*
X38002528Y-110016681D01*
X37928876Y-109972536D01*
X37859906Y-109921384D01*
X37796282Y-109863718D01*
X37738616Y-109800094D01*
X37687464Y-109731124D01*
X37643319Y-109657472D01*
X37606605Y-109579848D01*
X37577677Y-109498999D01*
X37556813Y-109415704D01*
X37544213Y-109330765D01*
X37540000Y-109245000D01*
X37540000Y-107495000D01*
X37544213Y-107409235D01*
X37556813Y-107324296D01*
X37577677Y-107241001D01*
X37606605Y-107160152D01*
X37643319Y-107082528D01*
X37687464Y-107008876D01*
X37738616Y-106939906D01*
X37796282Y-106876282D01*
X37859906Y-106818616D01*
X37928876Y-106767464D01*
X38002528Y-106723319D01*
X38080152Y-106686605D01*
X38161001Y-106657677D01*
X38244296Y-106636813D01*
X38329235Y-106624213D01*
X38415000Y-106620000D01*
X40165000Y-106620000D01*
X40250765Y-106624213D01*
X40250765Y-106624213D01*
G37*
D11*
G04 #@! TD*
G04 #@! TO.P,J1,3*
G04 #@! TO.N,N/C*
X39290000Y-108370000D03*
D10*
G04 #@! TO.N,GND*
G04 #@! TO.C,J1*
G36*
X37113513Y-101923611D02*
X37186318Y-101934411D01*
X37257714Y-101952295D01*
X37327013Y-101977090D01*
X37393548Y-102008559D01*
X37456678Y-102046398D01*
X37515795Y-102090242D01*
X37570330Y-102139670D01*
X37619758Y-102194205D01*
X37663602Y-102253322D01*
X37701441Y-102316452D01*
X37732910Y-102382987D01*
X37757705Y-102452286D01*
X37775589Y-102523682D01*
X37786389Y-102596487D01*
X37790000Y-102670000D01*
X37790000Y-104670000D01*
X37786389Y-104743513D01*
X37775589Y-104816318D01*
X37757705Y-104887714D01*
X37732910Y-104957013D01*
X37701441Y-105023548D01*
X37663602Y-105086678D01*
X37619758Y-105145795D01*
X37570330Y-105200330D01*
X37515795Y-105249758D01*
X37456678Y-105293602D01*
X37393548Y-105331441D01*
X37327013Y-105362910D01*
X37257714Y-105387705D01*
X37186318Y-105405589D01*
X37113513Y-105416389D01*
X37040000Y-105420000D01*
X35540000Y-105420000D01*
X35466487Y-105416389D01*
X35393682Y-105405589D01*
X35322286Y-105387705D01*
X35252987Y-105362910D01*
X35186452Y-105331441D01*
X35123322Y-105293602D01*
X35064205Y-105249758D01*
X35009670Y-105200330D01*
X34960242Y-105145795D01*
X34916398Y-105086678D01*
X34878559Y-105023548D01*
X34847090Y-104957013D01*
X34822295Y-104887714D01*
X34804411Y-104816318D01*
X34793611Y-104743513D01*
X34790000Y-104670000D01*
X34790000Y-102670000D01*
X34793611Y-102596487D01*
X34804411Y-102523682D01*
X34822295Y-102452286D01*
X34847090Y-102382987D01*
X34878559Y-102316452D01*
X34916398Y-102253322D01*
X34960242Y-102194205D01*
X35009670Y-102139670D01*
X35064205Y-102090242D01*
X35123322Y-102046398D01*
X35186452Y-102008559D01*
X35252987Y-101977090D01*
X35322286Y-101952295D01*
X35393682Y-101934411D01*
X35466487Y-101923611D01*
X35540000Y-101920000D01*
X37040000Y-101920000D01*
X37113513Y-101923611D01*
X37113513Y-101923611D01*
G37*
D12*
G04 #@! TD*
G04 #@! TO.P,J1,2*
G04 #@! TO.N,GND*
X36290000Y-103670000D03*
D13*
G04 #@! TO.P,J1,1*
G04 #@! TO.N,+12V*
X42290000Y-103670000D03*
G04 #@! TD*
D14*
G04 #@! TO.P,Q1,1*
G04 #@! TO.N,/BATT_BOARD*
X230443016Y-47636000D03*
D15*
G04 #@! TO.P,Q1,2*
G04 #@! TO.N,Net-(Q1-Pad2)*
X235893016Y-47636000D03*
G04 #@! TO.P,Q1,3*
G04 #@! TO.N,/I_1*
X241343016Y-47636000D03*
G04 #@! TD*
D14*
G04 #@! TO.P,Q2,1*
G04 #@! TO.N,/BATT_BOARD*
X110443100Y-47636000D03*
D15*
G04 #@! TO.P,Q2,2*
G04 #@! TO.N,Net-(Q2-Pad2)*
X115893100Y-47636000D03*
G04 #@! TO.P,Q2,3*
G04 #@! TO.N,/I_3*
X121343100Y-47636000D03*
G04 #@! TD*
G04 #@! TO.P,Q3,3*
G04 #@! TO.N,/I_4*
X61343142Y-47636000D03*
G04 #@! TO.P,Q3,2*
G04 #@! TO.N,Net-(Q3-Pad2)*
X55893142Y-47636000D03*
D14*
G04 #@! TO.P,Q3,1*
G04 #@! TO.N,/BATT_BOARD*
X50443142Y-47636000D03*
G04 #@! TD*
D15*
G04 #@! TO.P,Q4,3*
G04 #@! TO.N,/I_2*
X181343058Y-47640000D03*
G04 #@! TO.P,Q4,2*
G04 #@! TO.N,Net-(Q4-Pad2)*
X175893058Y-47640000D03*
D14*
G04 #@! TO.P,Q4,1*
G04 #@! TO.N,/BATT_BOARD*
X170443058Y-47640000D03*
G04 #@! TD*
D16*
G04 #@! TO.P,C3,2*
G04 #@! TO.N,+12V*
X65462000Y-110664000D03*
D17*
G04 #@! TO.P,C3,1*
G04 #@! TO.N,GND*
X65462000Y-113164000D03*
G04 #@! TD*
G04 #@! TO.P,C4,1*
G04 #@! TO.N,GND*
X57842000Y-113164000D03*
D16*
G04 #@! TO.P,C4,2*
G04 #@! TO.N,+5V*
X57842000Y-110664000D03*
G04 #@! TD*
D18*
G04 #@! TO.P,U1,1*
G04 #@! TO.N,Net-(R28-Pad2)*
X58928000Y-103683000D03*
D19*
G04 #@! TO.P,U1,2*
G04 #@! TO.N,+5V*
X61468000Y-103683000D03*
G04 #@! TO.P,U1,3*
G04 #@! TO.N,+12V*
X64008000Y-103683000D03*
G04 #@! TD*
D10*
G04 #@! TO.N,GND*
G04 #@! TO.C,J5*
G36*
X153794504Y-107046204D02*
X153818773Y-107049804D01*
X153842571Y-107055765D01*
X153865671Y-107064030D01*
X153887849Y-107074520D01*
X153908893Y-107087133D01*
X153928598Y-107101747D01*
X153946777Y-107118223D01*
X153963253Y-107136402D01*
X153977867Y-107156107D01*
X153990480Y-107177151D01*
X154000970Y-107199329D01*
X154009235Y-107222429D01*
X154015196Y-107246227D01*
X154018796Y-107270496D01*
X154020000Y-107295000D01*
X154020000Y-108745000D01*
X154018796Y-108769504D01*
X154015196Y-108793773D01*
X154009235Y-108817571D01*
X154000970Y-108840671D01*
X153990480Y-108862849D01*
X153977867Y-108883893D01*
X153963253Y-108903598D01*
X153946777Y-108921777D01*
X153928598Y-108938253D01*
X153908893Y-108952867D01*
X153887849Y-108965480D01*
X153865671Y-108975970D01*
X153842571Y-108984235D01*
X153818773Y-108990196D01*
X153794504Y-108993796D01*
X153770000Y-108995000D01*
X152570000Y-108995000D01*
X152545496Y-108993796D01*
X152521227Y-108990196D01*
X152497429Y-108984235D01*
X152474329Y-108975970D01*
X152452151Y-108965480D01*
X152431107Y-108952867D01*
X152411402Y-108938253D01*
X152393223Y-108921777D01*
X152376747Y-108903598D01*
X152362133Y-108883893D01*
X152349520Y-108862849D01*
X152339030Y-108840671D01*
X152330765Y-108817571D01*
X152324804Y-108793773D01*
X152321204Y-108769504D01*
X152320000Y-108745000D01*
X152320000Y-107295000D01*
X152321204Y-107270496D01*
X152324804Y-107246227D01*
X152330765Y-107222429D01*
X152339030Y-107199329D01*
X152349520Y-107177151D01*
X152362133Y-107156107D01*
X152376747Y-107136402D01*
X152393223Y-107118223D01*
X152411402Y-107101747D01*
X152431107Y-107087133D01*
X152452151Y-107074520D01*
X152474329Y-107064030D01*
X152497429Y-107055765D01*
X152521227Y-107049804D01*
X152545496Y-107046204D01*
X152570000Y-107045000D01*
X153770000Y-107045000D01*
X153794504Y-107046204D01*
X153794504Y-107046204D01*
G37*
D20*
G04 #@! TD*
G04 #@! TO.P,J5,1*
G04 #@! TO.N,GND*
X153170000Y-108020000D03*
D21*
G04 #@! TO.P,J5,2*
G04 #@! TO.N,+5V*
X155670000Y-108020000D03*
G04 #@! TO.P,J5,3*
G04 #@! TO.N,3V3*
X158170000Y-108020000D03*
G04 #@! TO.P,J5,4*
G04 #@! TO.N,/RS*
X160670000Y-108020000D03*
G04 #@! TO.P,J5,5*
G04 #@! TO.N,/E*
X163170000Y-108020000D03*
G04 #@! TO.P,J5,6*
G04 #@! TO.N,/D4*
X165670000Y-108020000D03*
G04 #@! TO.P,J5,7*
G04 #@! TO.N,/D5*
X168170000Y-108020000D03*
G04 #@! TO.P,J5,8*
G04 #@! TO.N,/D6*
X170670000Y-108020000D03*
G04 #@! TO.P,J5,9*
G04 #@! TO.N,/D7*
X173170000Y-108020000D03*
G04 #@! TO.P,J5,10*
G04 #@! TO.N,/ENC_A*
X175670000Y-108020000D03*
G04 #@! TO.P,J5,11*
G04 #@! TO.N,/ENC_B*
X178170000Y-108020000D03*
G04 #@! TO.P,J5,12*
G04 #@! TO.N,/SEL_SP*
X180670000Y-108020000D03*
G04 #@! TO.P,J5,13*
G04 #@! TO.N,/IZQ_RUN*
X183170000Y-108020000D03*
G04 #@! TO.P,J5,14*
G04 #@! TO.N,/DER_STOP*
X185670000Y-108020000D03*
G04 #@! TD*
D22*
G04 #@! TO.P,J6,1*
G04 #@! TO.N,GND*
X37020000Y-90530000D03*
D23*
G04 #@! TO.P,J6,2*
G04 #@! TO.N,+12V*
X37020000Y-88030000D03*
G04 #@! TD*
G04 #@! TO.P,J7,2*
G04 #@! TO.N,+12V*
X37020000Y-77430000D03*
D22*
G04 #@! TO.P,J7,1*
G04 #@! TO.N,GND*
X37020000Y-79930000D03*
G04 #@! TD*
D24*
G04 #@! TO.P,J2,1*
G04 #@! TO.N,GND*
X192740000Y-89010000D03*
D25*
G04 #@! TO.P,J2,2*
G04 #@! TO.N,3V3*
X192740000Y-86470000D03*
G04 #@! TO.P,J2,3*
G04 #@! TO.N,/TEST*
X192740000Y-83930000D03*
G04 #@! TO.P,J2,4*
G04 #@! TO.N,/RST*
X192740000Y-81390000D03*
G04 #@! TO.P,J2,5*
G04 #@! TO.N,/P1.2*
X192740000Y-78850000D03*
G04 #@! TO.P,J2,6*
G04 #@! TO.N,/P1.1*
X192740000Y-76310000D03*
G04 #@! TD*
D26*
G04 #@! TO.N,Net-(Q1-Pad2)*
X164890000Y-61400000D03*
G04 #@! TO.N,Net-(Q2-Pad2)*
X145000000Y-61380000D03*
X118880000Y-61380000D03*
D27*
G04 #@! TO.N,/I_4*
X70330000Y-54500000D03*
D26*
X145220000Y-54490000D03*
G04 #@! TO.N,Net-(Q3-Pad2)*
X145000000Y-55990000D03*
G04 #@! TO.N,3V3*
X156396000Y-85896000D03*
X156396000Y-93596000D03*
X122710000Y-65980000D03*
X122710000Y-69760000D03*
G04 #@! TO.N,GND*
X164500000Y-90000000D03*
X164500000Y-98500000D03*
X157700000Y-91300000D03*
X155500000Y-96400000D03*
X188000000Y-92900000D03*
X188000000Y-97300000D03*
X126700000Y-64900000D03*
X126700000Y-70500000D03*
X74200000Y-64400000D03*
X69600000Y-64400000D03*
X134100000Y-64900000D03*
X161700000Y-75900000D03*
X156400000Y-81400000D03*
X156400000Y-73300000D03*
X136300000Y-96200000D03*
X136400000Y-102600000D03*
G04 #@! TO.N,/i_sense_adapter/AD_1*
X177411000Y-70111000D03*
X252000000Y-68300000D03*
G04 #@! TO.N,/P1.1*
X191800000Y-72400000D03*
G04 #@! TO.N,Net-(R4-Pad1)*
X147480000Y-59490000D03*
X147455000Y-84205000D03*
G04 #@! TO.N,Net-(R5-Pad1)*
X162818999Y-81400000D03*
X162818999Y-65530000D03*
G04 #@! TO.N,Net-(R12-Pad1)*
X150210000Y-57870000D03*
X150116000Y-72080000D03*
G04 #@! TO.N,Net-(R13-Pad1)*
X164440000Y-81420000D03*
X164440000Y-65450000D03*
G04 #@! TO.N,+5V*
X157100000Y-63600000D03*
G04 #@! TO.N,/ENC_B*
X170850000Y-86790000D03*
G04 #@! TO.N,/ENC_A*
X169930000Y-86070000D03*
G04 #@! TO.N,/IZQ_RUN*
X172190000Y-74630000D03*
G04 #@! TO.N,V_BATT_SENSE*
X52100000Y-56747148D03*
X67600000Y-68500000D03*
G04 #@! TO.N,/D5*
X172550000Y-72310000D03*
G04 #@! TO.N,/D4*
X165800000Y-71670000D03*
G04 #@! TO.N,/D6*
X168110000Y-75740000D03*
G04 #@! TO.N,/D7*
X169430000Y-77490000D03*
G04 #@! TO.N,/E*
X163200000Y-88100000D03*
G04 #@! TO.N,/RS*
X173090000Y-93710000D03*
X173110000Y-96450000D03*
G04 #@! TO.N,/I_1*
X165720000Y-63030000D03*
X250470000Y-53750000D03*
G04 #@! TO.N,/SEL_SP*
X174811000Y-86061000D03*
G04 #@! TO.N,/DER_STOP*
X170380000Y-75780000D03*
G04 #@! TD*
D28*
G04 #@! TO.N,Net-(Q1-Pad2)*
X235893016Y-48636000D02*
X235893016Y-47636000D01*
X223179016Y-61350000D02*
X235893016Y-48636000D01*
X164890000Y-61400000D02*
X164940000Y-61350000D01*
X164940000Y-61350000D02*
X223179016Y-61350000D01*
G04 #@! TO.N,Net-(Q2-Pad2)*
X145000000Y-61380000D02*
X118880000Y-61380000D01*
G04 #@! TO.N,/I_4*
X70340000Y-54510000D02*
X70330000Y-54500000D01*
X145220000Y-54490000D02*
X145220000Y-54490000D01*
X145220000Y-54490000D02*
X70340000Y-54510000D01*
G04 #@! TO.N,Net-(Q3-Pad2)*
X55893142Y-51133142D02*
X55893142Y-47636000D01*
X145000000Y-55990000D02*
X60750000Y-55990000D01*
X60750000Y-55990000D02*
X55893142Y-51133142D01*
G04 #@! TO.N,/I_2*
X181343058Y-48636000D02*
X181343058Y-47636000D01*
D29*
G04 #@! TO.N,3V3*
X156396000Y-85896000D02*
X156396000Y-93596000D01*
X156396000Y-93596000D02*
X156396000Y-93596000D01*
D30*
X122710000Y-65980000D02*
X122710000Y-69760000D01*
D31*
X122710000Y-69760000D02*
X122710000Y-69760000D01*
D32*
G04 #@! TO.N,+12V*
X65462000Y-110664000D02*
X65462000Y-108846000D01*
X65462000Y-108846000D02*
X64008000Y-107392000D01*
X64008000Y-107392000D02*
X64008000Y-103683000D01*
X64008000Y-101804000D02*
X64008000Y-103683000D01*
D33*
X75912000Y-89900000D02*
X64008000Y-101804000D01*
D32*
X36870000Y-88030000D02*
X33630000Y-84790000D01*
X33630000Y-78850000D02*
X35050000Y-77430000D01*
X35050000Y-77430000D02*
X37020000Y-77430000D01*
X33630000Y-84790000D02*
X33630000Y-78850000D01*
X37020000Y-88030000D02*
X36870000Y-88030000D01*
X37170000Y-88030000D02*
X37020000Y-88030000D01*
X42290000Y-103670000D02*
X42290000Y-93150000D01*
X42290000Y-93150000D02*
X37170000Y-88030000D01*
X54330000Y-100550000D02*
X62754000Y-100550000D01*
X51230000Y-103650000D02*
X54330000Y-100550000D01*
X44310000Y-103650000D02*
X51230000Y-103650000D01*
X42290000Y-103670000D02*
X44290000Y-103670000D01*
X62754000Y-100550000D02*
X64008000Y-101804000D01*
X44290000Y-103670000D02*
X44310000Y-103650000D01*
D30*
G04 #@! TO.N,GND*
X164500000Y-90000000D02*
X164500000Y-98500000D01*
D31*
X164500000Y-98500000D02*
X164500000Y-98500000D01*
D30*
X157700000Y-94200000D02*
X155500000Y-96400000D01*
X157700000Y-91300000D02*
X157700000Y-94200000D01*
X188000000Y-92900000D02*
X188000000Y-93465685D01*
X188000000Y-93465685D02*
X188000000Y-97300000D01*
D31*
X188000000Y-97300000D02*
X188000000Y-97300000D01*
D30*
X126700000Y-64900000D02*
X126700000Y-65465685D01*
X126700000Y-65465685D02*
X126700000Y-70500000D01*
X126700000Y-70500000D02*
X126700000Y-70600000D01*
X74200000Y-64400000D02*
X69600000Y-64400000D01*
D31*
X69600000Y-64400000D02*
X69600000Y-64400000D01*
D30*
X134100000Y-64900000D02*
X126700000Y-64900000D01*
D34*
X156400000Y-81200000D02*
X156400000Y-81400000D01*
X156400000Y-73300000D02*
X156400000Y-73865685D01*
D30*
X156400000Y-73300000D02*
X156400000Y-81400000D01*
X157400000Y-81400000D02*
X156400000Y-81400000D01*
X157700000Y-81100000D02*
X157400000Y-81400000D01*
X157700000Y-78900000D02*
X157700000Y-81100000D01*
X161700000Y-75900000D02*
X160700000Y-75900000D01*
X160700000Y-75900000D02*
X157700000Y-78900000D01*
D34*
X136400000Y-96300000D02*
X136300000Y-96200000D01*
D30*
X136400000Y-102600000D02*
X136400000Y-96300000D01*
D29*
G04 #@! TO.N,/i_sense_adapter/AD_1*
X177411000Y-70111000D02*
X179222000Y-68300000D01*
X179222000Y-68300000D02*
X252000000Y-68300000D01*
X252000000Y-68300000D02*
X252000000Y-68300000D01*
D28*
G04 #@! TO.N,/P1.1*
X191799000Y-75100000D02*
X193111000Y-76412000D01*
X191799000Y-72966685D02*
X191799000Y-75100000D01*
X191800000Y-72965685D02*
X191799000Y-72966685D01*
X191800000Y-72400000D02*
X191800000Y-72965685D01*
D31*
G04 #@! TO.N,Net-(R4-Pad1)*
X147480000Y-84180000D02*
X147455000Y-84205000D01*
D30*
X147480000Y-59490000D02*
X147480000Y-84180000D01*
G04 #@! TO.N,Net-(R5-Pad1)*
X162818999Y-81400000D02*
X162818999Y-65530000D01*
D31*
G04 #@! TO.N,Net-(R12-Pad1)*
X150210000Y-71986000D02*
X150116000Y-72080000D01*
D30*
X150210000Y-57870000D02*
X150210000Y-71986000D01*
D31*
G04 #@! TO.N,Net-(R13-Pad1)*
X164560000Y-81300000D02*
X164440000Y-81420000D01*
D30*
X164440000Y-65450000D02*
X164440000Y-81300000D01*
D35*
G04 #@! TO.N,+5V*
X61468000Y-103730500D02*
X61468000Y-103683000D01*
D32*
X58310000Y-110664000D02*
X61468000Y-107506000D01*
D35*
X57842000Y-110664000D02*
X58310000Y-110664000D01*
D32*
X61468000Y-107506000D02*
X61468000Y-103730500D01*
D30*
X157100000Y-63600000D02*
X152700000Y-68000000D01*
X152700000Y-68000000D02*
X152700000Y-102800000D01*
X155670000Y-105770000D02*
X155670000Y-108020000D01*
X152700000Y-102800000D02*
X155670000Y-105770000D01*
D32*
X155670000Y-114730000D02*
X155670000Y-108020000D01*
D29*
X61468000Y-111490002D02*
X61500000Y-111522002D01*
D32*
X61468000Y-107506000D02*
X61468000Y-111490002D01*
X61500000Y-111522002D02*
X61500000Y-115400000D01*
X61500000Y-115400000D02*
X63100000Y-117000000D01*
X63100000Y-117000000D02*
X153400000Y-117000000D01*
X153400000Y-117000000D02*
X155670000Y-114730000D01*
D29*
G04 #@! TO.N,/ENC_B*
X178170000Y-95910000D02*
X178170000Y-108020000D01*
X178160000Y-95840000D02*
X178170000Y-95910000D01*
X170850000Y-86790000D02*
X170850000Y-88270000D01*
X170850000Y-88270000D02*
X178160000Y-95840000D01*
G04 #@! TO.N,/ENC_A*
X175670000Y-107895000D02*
X175670000Y-108020000D01*
X174420000Y-106645000D02*
X175670000Y-107895000D01*
X174295000Y-106645000D02*
X174420000Y-106645000D01*
X169930000Y-102280000D02*
X174295000Y-106645000D01*
X169930000Y-86070000D02*
X169930000Y-102280000D01*
G04 #@! TO.N,/IZQ_RUN*
X183170000Y-83370000D02*
X183170000Y-108020000D01*
X177100000Y-77300000D02*
X183170000Y-83370000D01*
X177100000Y-77300000D02*
X177100000Y-77280000D01*
X174450000Y-74630000D02*
X172190000Y-74630000D01*
X177100000Y-77280000D02*
X174450000Y-74630000D01*
G04 #@! TO.N,V_BATT_SENSE*
X52100000Y-56747148D02*
X52100000Y-64300000D01*
X52100000Y-64300000D02*
X56300000Y-68500000D01*
X56300000Y-68500000D02*
X67600000Y-68500000D01*
X67600000Y-68500000D02*
X67600000Y-68500000D01*
G04 #@! TO.N,/D5*
X168170000Y-106645000D02*
X168170000Y-108020000D01*
X166890000Y-105610000D02*
X168170000Y-106645000D01*
X166780000Y-74550000D02*
X166890000Y-105610000D01*
X172550000Y-72310000D02*
X169130000Y-72310000D01*
X169130000Y-72310000D02*
X166780000Y-74550000D01*
G04 #@! TO.N,/D4*
X165800000Y-107890000D02*
X165670000Y-108020000D01*
X165800000Y-71670000D02*
X165800000Y-107890000D01*
G04 #@! TO.N,/D6*
X170670000Y-107895000D02*
X170670000Y-108020000D01*
X168110000Y-105335000D02*
X170670000Y-107895000D01*
X168110000Y-75740000D02*
X168110000Y-105335000D01*
G04 #@! TO.N,/D7*
X173170000Y-107895000D02*
X173170000Y-108020000D01*
X169030001Y-103755001D02*
X173170000Y-107895000D01*
X169030001Y-77889999D02*
X169030001Y-103755001D01*
X169430000Y-77490000D02*
X169030001Y-77889999D01*
G04 #@! TO.N,/E*
X163200000Y-107990000D02*
X163170000Y-108020000D01*
D35*
X163200000Y-88100000D02*
X163200000Y-107990000D01*
D29*
G04 #@! TO.N,/RS*
X173110000Y-93730000D02*
X173090000Y-93710000D01*
X173110000Y-96450000D02*
X173110000Y-93730000D01*
D28*
G04 #@! TO.N,/I_1*
X165720000Y-63030000D02*
X234990000Y-63030000D01*
X244270000Y-53750000D02*
X250470000Y-53750000D01*
X234990000Y-63030000D02*
X244270000Y-53750000D01*
D29*
G04 #@! TO.N,/SEL_SP*
X174811000Y-86061000D02*
X174811000Y-89211000D01*
X174811000Y-89211000D02*
X180680000Y-95080000D01*
X180670000Y-95090000D02*
X180670000Y-108020000D01*
X180680000Y-95080000D02*
X180670000Y-95090000D01*
G04 #@! TO.N,/DER_STOP*
X170380000Y-75780000D02*
X170380000Y-74230000D01*
X170380000Y-74230000D02*
X171220000Y-73390000D01*
X171220000Y-73390000D02*
X181850000Y-73390000D01*
X185670000Y-77210000D02*
X185670000Y-108020000D01*
X181850000Y-73390000D02*
X185670000Y-77210000D01*
G04 #@! TD*
D36*
G04 #@! TO.N,GND*
G36*
X275873000Y-44136989D02*
X275873000Y-119873000D01*
X20126983Y-119873000D01*
X20126139Y-113449750D01*
X56407000Y-113449750D01*
X56407000Y-114026542D01*
X56431403Y-114149223D01*
X56479270Y-114264785D01*
X56548763Y-114368789D01*
X56637211Y-114457237D01*
X56741215Y-114526730D01*
X56856777Y-114574597D01*
X56979458Y-114599000D01*
X57556250Y-114599000D01*
X57715000Y-114440250D01*
X57715000Y-113291000D01*
X57969000Y-113291000D01*
X57969000Y-114440250D01*
X58127750Y-114599000D01*
X58704542Y-114599000D01*
X58827223Y-114574597D01*
X58942785Y-114526730D01*
X59046789Y-114457237D01*
X59135237Y-114368789D01*
X59204730Y-114264785D01*
X59252597Y-114149223D01*
X59277000Y-114026542D01*
X59277000Y-113449750D01*
X59118250Y-113291000D01*
X57969000Y-113291000D01*
X57715000Y-113291000D01*
X56565750Y-113291000D01*
X56407000Y-113449750D01*
X20126139Y-113449750D01*
X20124890Y-103955750D01*
X34155000Y-103955750D01*
X34155000Y-105482542D01*
X34179403Y-105605223D01*
X34227270Y-105720785D01*
X34296763Y-105824789D01*
X34385211Y-105913237D01*
X34489215Y-105982730D01*
X34604777Y-106030597D01*
X34727458Y-106055000D01*
X36004250Y-106055000D01*
X36163000Y-105896250D01*
X36163000Y-103797000D01*
X36417000Y-103797000D01*
X36417000Y-105896250D01*
X36575750Y-106055000D01*
X37852542Y-106055000D01*
X37975223Y-106030597D01*
X38090785Y-105982730D01*
X38194789Y-105913237D01*
X38283237Y-105824789D01*
X38352730Y-105720785D01*
X38400597Y-105605223D01*
X38425000Y-105482542D01*
X38425000Y-103955750D01*
X38266250Y-103797000D01*
X36417000Y-103797000D01*
X36163000Y-103797000D01*
X34313750Y-103797000D01*
X34155000Y-103955750D01*
X20124890Y-103955750D01*
X20124614Y-101857458D01*
X34155000Y-101857458D01*
X34155000Y-103384250D01*
X34313750Y-103543000D01*
X36163000Y-103543000D01*
X36163000Y-101443750D01*
X36417000Y-101443750D01*
X36417000Y-103543000D01*
X38266250Y-103543000D01*
X38425000Y-103384250D01*
X38425000Y-101857458D01*
X38400597Y-101734777D01*
X38352730Y-101619215D01*
X38283237Y-101515211D01*
X38194789Y-101426763D01*
X38090785Y-101357270D01*
X37975223Y-101309403D01*
X37852542Y-101285000D01*
X36575750Y-101285000D01*
X36417000Y-101443750D01*
X36163000Y-101443750D01*
X36004250Y-101285000D01*
X34727458Y-101285000D01*
X34604777Y-101309403D01*
X34489215Y-101357270D01*
X34385211Y-101426763D01*
X34296763Y-101515211D01*
X34227270Y-101619215D01*
X34179403Y-101734777D01*
X34155000Y-101857458D01*
X20124614Y-101857458D01*
X20123162Y-90815750D01*
X35385000Y-90815750D01*
X35385000Y-91442542D01*
X35409403Y-91565223D01*
X35457270Y-91680785D01*
X35526763Y-91784789D01*
X35615211Y-91873237D01*
X35719215Y-91942730D01*
X35834777Y-91990597D01*
X35957458Y-92015000D01*
X36734250Y-92015000D01*
X36893000Y-91856250D01*
X36893000Y-90657000D01*
X35543750Y-90657000D01*
X35385000Y-90815750D01*
X20123162Y-90815750D01*
X20121587Y-78850000D01*
X32489509Y-78850000D01*
X32495001Y-78905761D01*
X32495000Y-84734248D01*
X32489509Y-84790000D01*
X32495000Y-84845751D01*
X32511423Y-85012498D01*
X32576324Y-85226446D01*
X32681716Y-85423623D01*
X32823551Y-85596449D01*
X32866865Y-85631996D01*
X35390155Y-88155286D01*
X35406487Y-88321111D01*
X35491401Y-88601034D01*
X35629294Y-88859014D01*
X35810282Y-89079549D01*
X35719215Y-89117270D01*
X35615211Y-89186763D01*
X35526763Y-89275211D01*
X35457270Y-89379215D01*
X35409403Y-89494777D01*
X35385000Y-89617458D01*
X35385000Y-90244250D01*
X35543750Y-90403000D01*
X36893000Y-90403000D01*
X36893000Y-90383000D01*
X37147000Y-90383000D01*
X37147000Y-90403000D01*
X37167000Y-90403000D01*
X37167000Y-90657000D01*
X37147000Y-90657000D01*
X37147000Y-91856250D01*
X37305750Y-92015000D01*
X38082542Y-92015000D01*
X38205223Y-91990597D01*
X38320785Y-91942730D01*
X38424789Y-91873237D01*
X38513237Y-91784789D01*
X38582730Y-91680785D01*
X38630597Y-91565223D01*
X38655000Y-91442542D01*
X38655000Y-91120131D01*
X41155001Y-93620133D01*
X41155000Y-101281928D01*
X40540000Y-101281928D01*
X40415518Y-101294188D01*
X40295820Y-101330498D01*
X40185506Y-101389463D01*
X40088815Y-101468815D01*
X40009463Y-101565506D01*
X39950498Y-101675820D01*
X39914188Y-101795518D01*
X39901928Y-101920000D01*
X39901928Y-105420000D01*
X39914188Y-105544482D01*
X39950498Y-105664180D01*
X40009463Y-105774494D01*
X40088815Y-105871185D01*
X40185506Y-105950537D01*
X40262131Y-105991494D01*
X40165000Y-105981928D01*
X38415000Y-105981928D01*
X38119814Y-106011001D01*
X37835972Y-106097104D01*
X37574382Y-106236927D01*
X37345097Y-106425097D01*
X37156927Y-106654382D01*
X37017104Y-106915972D01*
X36931001Y-107199814D01*
X36901928Y-107495000D01*
X36901928Y-109245000D01*
X36931001Y-109540186D01*
X37017104Y-109824028D01*
X37156927Y-110085618D01*
X37345097Y-110314903D01*
X37574382Y-110503073D01*
X37835972Y-110642896D01*
X38119814Y-110728999D01*
X38415000Y-110758072D01*
X40165000Y-110758072D01*
X40460186Y-110728999D01*
X40744028Y-110642896D01*
X41005618Y-110503073D01*
X41234903Y-110314903D01*
X41423073Y-110085618D01*
X41562896Y-109824028D01*
X41648999Y-109540186D01*
X41678072Y-109245000D01*
X41678072Y-107495000D01*
X41648999Y-107199814D01*
X41562896Y-106915972D01*
X41423073Y-106654382D01*
X41234903Y-106425097D01*
X41005618Y-106236927D01*
X40744028Y-106097104D01*
X40615357Y-106058072D01*
X44040000Y-106058072D01*
X44164482Y-106045812D01*
X44284180Y-106009502D01*
X44394494Y-105950537D01*
X44491185Y-105871185D01*
X44570537Y-105774494D01*
X44629502Y-105664180D01*
X44665812Y-105544482D01*
X44678072Y-105420000D01*
X44678072Y-104785000D01*
X51174249Y-104785000D01*
X51230000Y-104790491D01*
X51285751Y-104785000D01*
X51285752Y-104785000D01*
X51452499Y-104768577D01*
X51666447Y-104703676D01*
X51863623Y-104598284D01*
X52036449Y-104456449D01*
X52071996Y-104413135D01*
X54800132Y-101685000D01*
X62283869Y-101685000D01*
X62873000Y-102274132D01*
X62873000Y-102516111D01*
X62738000Y-102680609D01*
X62595963Y-102507537D01*
X62354234Y-102309155D01*
X62078448Y-102161745D01*
X61779203Y-102070970D01*
X61468000Y-102040319D01*
X61156796Y-102070970D01*
X60857551Y-102161745D01*
X60581765Y-102309155D01*
X60455905Y-102412446D01*
X60411037Y-102328506D01*
X60331685Y-102231815D01*
X60234994Y-102152463D01*
X60124680Y-102093498D01*
X60004982Y-102057188D01*
X59880500Y-102044928D01*
X57975500Y-102044928D01*
X57851018Y-102057188D01*
X57731320Y-102093498D01*
X57621006Y-102152463D01*
X57524315Y-102231815D01*
X57444963Y-102328506D01*
X57385998Y-102438820D01*
X57349688Y-102558518D01*
X57337428Y-102683000D01*
X57337428Y-104683000D01*
X57349688Y-104807482D01*
X57385998Y-104927180D01*
X57444963Y-105037494D01*
X57524315Y-105134185D01*
X57621006Y-105213537D01*
X57731320Y-105272502D01*
X57851018Y-105308812D01*
X57975500Y-105321072D01*
X59880500Y-105321072D01*
X60004982Y-105308812D01*
X60124680Y-105272502D01*
X60234994Y-105213537D01*
X60331685Y-105134185D01*
X60333001Y-105132582D01*
X60333000Y-107035868D01*
X58113898Y-109254971D01*
X57983335Y-109229000D01*
X57700665Y-109229000D01*
X57423426Y-109284147D01*
X57162273Y-109392320D01*
X56927241Y-109549363D01*
X56727363Y-109749241D01*
X56570320Y-109984273D01*
X56462147Y-110245426D01*
X56407000Y-110522665D01*
X56407000Y-110805335D01*
X56462147Y-111082574D01*
X56570320Y-111343727D01*
X56727363Y-111578759D01*
X56894503Y-111745899D01*
X56856777Y-111753403D01*
X56741215Y-111801270D01*
X56637211Y-111870763D01*
X56548763Y-111959211D01*
X56479270Y-112063215D01*
X56431403Y-112178777D01*
X56407000Y-112301458D01*
X56407000Y-112878250D01*
X56565750Y-113037000D01*
X57715000Y-113037000D01*
X57715000Y-113017000D01*
X57969000Y-113017000D01*
X57969000Y-113037000D01*
X59118250Y-113037000D01*
X59277000Y-112878250D01*
X59277000Y-112301458D01*
X59252597Y-112178777D01*
X59204730Y-112063215D01*
X59135237Y-111959211D01*
X59046789Y-111870763D01*
X58942785Y-111801270D01*
X58827223Y-111753403D01*
X58789497Y-111745899D01*
X58899563Y-111635833D01*
X58943622Y-111612283D01*
X59073143Y-111505988D01*
X60333001Y-110246131D01*
X60333001Y-111545754D01*
X60349424Y-111712501D01*
X60365000Y-111763848D01*
X60365001Y-115344239D01*
X60359509Y-115400000D01*
X60381423Y-115622498D01*
X60446324Y-115836446D01*
X60470365Y-115881423D01*
X60551717Y-116033623D01*
X60693552Y-116206449D01*
X60736860Y-116241991D01*
X62258013Y-117763146D01*
X62293551Y-117806449D01*
X62336854Y-117841987D01*
X62336856Y-117841989D01*
X62466377Y-117948284D01*
X62663553Y-118053676D01*
X62877501Y-118118577D01*
X63100000Y-118140491D01*
X63155752Y-118135000D01*
X153344249Y-118135000D01*
X153400000Y-118140491D01*
X153455751Y-118135000D01*
X153455752Y-118135000D01*
X153622499Y-118118577D01*
X153836447Y-118053676D01*
X154033623Y-117948284D01*
X154206449Y-117806449D01*
X154241996Y-117763135D01*
X156433141Y-115571991D01*
X156476449Y-115536449D01*
X156618284Y-115363623D01*
X156723676Y-115166447D01*
X156788577Y-114952499D01*
X156805000Y-114785752D01*
X156805000Y-114785751D01*
X156810491Y-114730000D01*
X156805000Y-114674248D01*
X156805000Y-109102817D01*
X156910706Y-108974014D01*
X156920000Y-108956626D01*
X156929294Y-108974014D01*
X157114866Y-109200134D01*
X157340987Y-109385706D01*
X157598967Y-109523599D01*
X157878890Y-109608513D01*
X158170000Y-109637185D01*
X158461111Y-109608513D01*
X158741034Y-109523599D01*
X158999014Y-109385706D01*
X159225134Y-109200134D01*
X159410706Y-108974014D01*
X159420000Y-108956626D01*
X159429294Y-108974014D01*
X159614866Y-109200134D01*
X159840987Y-109385706D01*
X160098967Y-109523599D01*
X160378890Y-109608513D01*
X160670000Y-109637185D01*
X160961111Y-109608513D01*
X161241034Y-109523599D01*
X161499014Y-109385706D01*
X161725134Y-109200134D01*
X161910706Y-108974014D01*
X161920000Y-108956626D01*
X161929294Y-108974014D01*
X162114866Y-109200134D01*
X162340987Y-109385706D01*
X162598967Y-109523599D01*
X162878890Y-109608513D01*
X163170000Y-109637185D01*
X163461111Y-109608513D01*
X163741034Y-109523599D01*
X163999014Y-109385706D01*
X164225134Y-109200134D01*
X164410706Y-108974014D01*
X164420000Y-108956626D01*
X164429294Y-108974014D01*
X164614866Y-109200134D01*
X164840987Y-109385706D01*
X165098967Y-109523599D01*
X165378890Y-109608513D01*
X165670000Y-109637185D01*
X165961111Y-109608513D01*
X166241034Y-109523599D01*
X166499014Y-109385706D01*
X166725134Y-109200134D01*
X166910706Y-108974014D01*
X166920000Y-108956626D01*
X166929294Y-108974014D01*
X167114866Y-109200134D01*
X167340987Y-109385706D01*
X167598967Y-109523599D01*
X167878890Y-109608513D01*
X168170000Y-109637185D01*
X168461111Y-109608513D01*
X168741034Y-109523599D01*
X168999014Y-109385706D01*
X169225134Y-109200134D01*
X169410706Y-108974014D01*
X169420000Y-108956626D01*
X169429294Y-108974014D01*
X169614866Y-109200134D01*
X169840987Y-109385706D01*
X170098967Y-109523599D01*
X170378890Y-109608513D01*
X170670000Y-109637185D01*
X170961111Y-109608513D01*
X171241034Y-109523599D01*
X171499014Y-109385706D01*
X171725134Y-109200134D01*
X171910706Y-108974014D01*
X171920000Y-108956626D01*
X171929294Y-108974014D01*
X172114866Y-109200134D01*
X172340987Y-109385706D01*
X172598967Y-109523599D01*
X172878890Y-109608513D01*
X173170000Y-109637185D01*
X173461111Y-109608513D01*
X173741034Y-109523599D01*
X173999014Y-109385706D01*
X174225134Y-109200134D01*
X174410706Y-108974014D01*
X174420000Y-108956626D01*
X174429294Y-108974014D01*
X174614866Y-109200134D01*
X174840987Y-109385706D01*
X175098967Y-109523599D01*
X175378890Y-109608513D01*
X175670000Y-109637185D01*
X175961111Y-109608513D01*
X176241034Y-109523599D01*
X176499014Y-109385706D01*
X176725134Y-109200134D01*
X176910706Y-108974014D01*
X176920000Y-108956626D01*
X176929294Y-108974014D01*
X177114866Y-109200134D01*
X177340987Y-109385706D01*
X177598967Y-109523599D01*
X177878890Y-109608513D01*
X178170000Y-109637185D01*
X178461111Y-109608513D01*
X178741034Y-109523599D01*
X178999014Y-109385706D01*
X179225134Y-109200134D01*
X179410706Y-108974014D01*
X179420000Y-108956626D01*
X179429294Y-108974014D01*
X179614866Y-109200134D01*
X179840987Y-109385706D01*
X180098967Y-109523599D01*
X180378890Y-109608513D01*
X180670000Y-109637185D01*
X180961111Y-109608513D01*
X181241034Y-109523599D01*
X181499014Y-109385706D01*
X181725134Y-109200134D01*
X181910706Y-108974014D01*
X181920000Y-108956626D01*
X181929294Y-108974014D01*
X182114866Y-109200134D01*
X182340987Y-109385706D01*
X182598967Y-109523599D01*
X182878890Y-109608513D01*
X183170000Y-109637185D01*
X183461111Y-109608513D01*
X183741034Y-109523599D01*
X183999014Y-109385706D01*
X184225134Y-109200134D01*
X184410706Y-108974014D01*
X184420000Y-108956626D01*
X184429294Y-108974014D01*
X184614866Y-109200134D01*
X184840987Y-109385706D01*
X185098967Y-109523599D01*
X185378890Y-109608513D01*
X185670000Y-109637185D01*
X185961111Y-109608513D01*
X186241034Y-109523599D01*
X186499014Y-109385706D01*
X186725134Y-109200134D01*
X186910706Y-108974014D01*
X187048599Y-108716033D01*
X187133513Y-108436110D01*
X187155000Y-108217949D01*
X187155000Y-107822050D01*
X187133513Y-107603889D01*
X187048599Y-107323966D01*
X186910706Y-107065986D01*
X186725134Y-106839866D01*
X186505000Y-106659207D01*
X186505000Y-89295750D01*
X191255000Y-89295750D01*
X191255000Y-89922542D01*
X191279403Y-90045223D01*
X191327270Y-90160785D01*
X191396763Y-90264789D01*
X191485211Y-90353237D01*
X191589215Y-90422730D01*
X191704777Y-90470597D01*
X191827458Y-90495000D01*
X192454250Y-90495000D01*
X192613000Y-90336250D01*
X192613000Y-89137000D01*
X192867000Y-89137000D01*
X192867000Y-90336250D01*
X193025750Y-90495000D01*
X193652542Y-90495000D01*
X193775223Y-90470597D01*
X193890785Y-90422730D01*
X193994789Y-90353237D01*
X194083237Y-90264789D01*
X194152730Y-90160785D01*
X194200597Y-90045223D01*
X194225000Y-89922542D01*
X194225000Y-89295750D01*
X194066250Y-89137000D01*
X192867000Y-89137000D01*
X192613000Y-89137000D01*
X191413750Y-89137000D01*
X191255000Y-89295750D01*
X186505000Y-89295750D01*
X186505000Y-77251018D01*
X186509040Y-77210000D01*
X186492918Y-77046311D01*
X186445172Y-76888913D01*
X186367636Y-76743854D01*
X186289439Y-76648570D01*
X186289437Y-76648568D01*
X186263291Y-76616709D01*
X186231433Y-76590564D01*
X182469446Y-72828579D01*
X182443291Y-72796709D01*
X182316146Y-72692364D01*
X182171087Y-72614828D01*
X182013689Y-72567082D01*
X181891019Y-72555000D01*
X181891018Y-72555000D01*
X181850000Y-72550960D01*
X181808982Y-72555000D01*
X173556544Y-72555000D01*
X173585000Y-72411939D01*
X173585000Y-72298061D01*
X190765000Y-72298061D01*
X190765000Y-72501939D01*
X190804774Y-72701898D01*
X190882795Y-72890256D01*
X190912821Y-72935192D01*
X190909719Y-72966685D01*
X190914000Y-73010154D01*
X190914001Y-75056521D01*
X190909719Y-75100000D01*
X190926805Y-75273490D01*
X190977412Y-75440313D01*
X191059590Y-75594059D01*
X191142468Y-75695046D01*
X191142471Y-75695049D01*
X191170184Y-75728817D01*
X191203951Y-75756529D01*
X191320668Y-75873246D01*
X191276487Y-76018889D01*
X191247815Y-76310000D01*
X191276487Y-76601111D01*
X191361401Y-76881034D01*
X191499294Y-77139014D01*
X191684866Y-77365134D01*
X191910986Y-77550706D01*
X191965791Y-77580000D01*
X191910986Y-77609294D01*
X191684866Y-77794866D01*
X191499294Y-78020986D01*
X191361401Y-78278966D01*
X191276487Y-78558889D01*
X191247815Y-78850000D01*
X191276487Y-79141111D01*
X191361401Y-79421034D01*
X191499294Y-79679014D01*
X191684866Y-79905134D01*
X191910986Y-80090706D01*
X191965791Y-80120000D01*
X191910986Y-80149294D01*
X191684866Y-80334866D01*
X191499294Y-80560986D01*
X191361401Y-80818966D01*
X191276487Y-81098889D01*
X191247815Y-81390000D01*
X191276487Y-81681111D01*
X191361401Y-81961034D01*
X191499294Y-82219014D01*
X191684866Y-82445134D01*
X191910986Y-82630706D01*
X191965791Y-82660000D01*
X191910986Y-82689294D01*
X191684866Y-82874866D01*
X191499294Y-83100986D01*
X191361401Y-83358966D01*
X191276487Y-83638889D01*
X191247815Y-83930000D01*
X191276487Y-84221111D01*
X191361401Y-84501034D01*
X191499294Y-84759014D01*
X191684866Y-84985134D01*
X191910986Y-85170706D01*
X191965791Y-85200000D01*
X191910986Y-85229294D01*
X191684866Y-85414866D01*
X191499294Y-85640986D01*
X191361401Y-85898966D01*
X191276487Y-86178889D01*
X191247815Y-86470000D01*
X191276487Y-86761111D01*
X191361401Y-87041034D01*
X191499294Y-87299014D01*
X191684866Y-87525134D01*
X191712553Y-87547856D01*
X191704777Y-87549403D01*
X191589215Y-87597270D01*
X191485211Y-87666763D01*
X191396763Y-87755211D01*
X191327270Y-87859215D01*
X191279403Y-87974777D01*
X191255000Y-88097458D01*
X191255000Y-88724250D01*
X191413750Y-88883000D01*
X192613000Y-88883000D01*
X192613000Y-88863000D01*
X192867000Y-88863000D01*
X192867000Y-88883000D01*
X194066250Y-88883000D01*
X194225000Y-88724250D01*
X194225000Y-88097458D01*
X194200597Y-87974777D01*
X194152730Y-87859215D01*
X194083237Y-87755211D01*
X193994789Y-87666763D01*
X193890785Y-87597270D01*
X193775223Y-87549403D01*
X193767447Y-87547856D01*
X193795134Y-87525134D01*
X193980706Y-87299014D01*
X194118599Y-87041034D01*
X194203513Y-86761111D01*
X194232185Y-86470000D01*
X194203513Y-86178889D01*
X194118599Y-85898966D01*
X193980706Y-85640986D01*
X193795134Y-85414866D01*
X193569014Y-85229294D01*
X193514209Y-85200000D01*
X193569014Y-85170706D01*
X193795134Y-84985134D01*
X193980706Y-84759014D01*
X194118599Y-84501034D01*
X194203513Y-84221111D01*
X194232185Y-83930000D01*
X194203513Y-83638889D01*
X194118599Y-83358966D01*
X193980706Y-83100986D01*
X193795134Y-82874866D01*
X193569014Y-82689294D01*
X193514209Y-82660000D01*
X193569014Y-82630706D01*
X193795134Y-82445134D01*
X193980706Y-82219014D01*
X194118599Y-81961034D01*
X194203513Y-81681111D01*
X194232185Y-81390000D01*
X194203513Y-81098889D01*
X194118599Y-80818966D01*
X193980706Y-80560986D01*
X193795134Y-80334866D01*
X193569014Y-80149294D01*
X193514209Y-80120000D01*
X193569014Y-80090706D01*
X193795134Y-79905134D01*
X193980706Y-79679014D01*
X194118599Y-79421034D01*
X194203513Y-79141111D01*
X194232185Y-78850000D01*
X194203513Y-78558889D01*
X194118599Y-78278966D01*
X193980706Y-78020986D01*
X193795134Y-77794866D01*
X193569014Y-77609294D01*
X193514209Y-77580000D01*
X193569014Y-77550706D01*
X193795134Y-77365134D01*
X193980706Y-77139014D01*
X194118599Y-76881034D01*
X194203513Y-76601111D01*
X194232185Y-76310000D01*
X194203513Y-76018889D01*
X194118599Y-75738966D01*
X193980706Y-75480986D01*
X193795134Y-75254866D01*
X193569014Y-75069294D01*
X193311034Y-74931401D01*
X193031111Y-74846487D01*
X192812950Y-74825000D01*
X192775578Y-74825000D01*
X192684000Y-74733422D01*
X192684000Y-73019315D01*
X192685000Y-73009162D01*
X192685000Y-73009152D01*
X192689281Y-72965686D01*
X192686394Y-72936369D01*
X192717205Y-72890256D01*
X192795226Y-72701898D01*
X192835000Y-72501939D01*
X192835000Y-72298061D01*
X192795226Y-72098102D01*
X192717205Y-71909744D01*
X192603937Y-71740226D01*
X192459774Y-71596063D01*
X192290256Y-71482795D01*
X192101898Y-71404774D01*
X191901939Y-71365000D01*
X191698061Y-71365000D01*
X191498102Y-71404774D01*
X191309744Y-71482795D01*
X191140226Y-71596063D01*
X190996063Y-71740226D01*
X190882795Y-71909744D01*
X190804774Y-72098102D01*
X190765000Y-72298061D01*
X173585000Y-72298061D01*
X173585000Y-72208061D01*
X173545226Y-72008102D01*
X173467205Y-71819744D01*
X173353937Y-71650226D01*
X173209774Y-71506063D01*
X173040256Y-71392795D01*
X172851898Y-71314774D01*
X172651939Y-71275000D01*
X172448061Y-71275000D01*
X172248102Y-71314774D01*
X172059744Y-71392795D01*
X171936715Y-71475000D01*
X169181051Y-71475000D01*
X169150101Y-71471201D01*
X169099007Y-71475000D01*
X169088981Y-71475000D01*
X169058097Y-71478042D01*
X168986074Y-71483397D01*
X168976355Y-71486093D01*
X168966311Y-71487082D01*
X168897172Y-71508055D01*
X168827577Y-71527358D01*
X168818569Y-71531899D01*
X168808913Y-71534828D01*
X168745205Y-71568881D01*
X168680702Y-71601396D01*
X168672751Y-71607608D01*
X168663854Y-71612364D01*
X168608020Y-71658186D01*
X168583572Y-71677288D01*
X168576315Y-71684205D01*
X168536709Y-71716709D01*
X168516927Y-71740814D01*
X166635000Y-73534652D01*
X166635000Y-72283285D01*
X166717205Y-72160256D01*
X166795226Y-71971898D01*
X166835000Y-71771939D01*
X166835000Y-71568061D01*
X166795226Y-71368102D01*
X166717205Y-71179744D01*
X166603937Y-71010226D01*
X166459774Y-70866063D01*
X166290256Y-70752795D01*
X166101898Y-70674774D01*
X165901939Y-70635000D01*
X165698061Y-70635000D01*
X165498102Y-70674774D01*
X165375000Y-70725765D01*
X165375000Y-70009061D01*
X176376000Y-70009061D01*
X176376000Y-70212939D01*
X176415774Y-70412898D01*
X176493795Y-70601256D01*
X176607063Y-70770774D01*
X176751226Y-70914937D01*
X176920744Y-71028205D01*
X177109102Y-71106226D01*
X177309061Y-71146000D01*
X177512939Y-71146000D01*
X177712898Y-71106226D01*
X177901256Y-71028205D01*
X178070774Y-70914937D01*
X178214937Y-70770774D01*
X178328205Y-70601256D01*
X178406226Y-70412898D01*
X178435093Y-70267775D01*
X179567869Y-69135000D01*
X251386715Y-69135000D01*
X251509744Y-69217205D01*
X251698102Y-69295226D01*
X251898061Y-69335000D01*
X252101939Y-69335000D01*
X252301898Y-69295226D01*
X252490256Y-69217205D01*
X252659774Y-69103937D01*
X252803937Y-68959774D01*
X252917205Y-68790256D01*
X252995226Y-68601898D01*
X253035000Y-68401939D01*
X253035000Y-68198061D01*
X252995226Y-67998102D01*
X252917205Y-67809744D01*
X252803937Y-67640226D01*
X252659774Y-67496063D01*
X252490256Y-67382795D01*
X252301898Y-67304774D01*
X252101939Y-67265000D01*
X251898061Y-67265000D01*
X251698102Y-67304774D01*
X251509744Y-67382795D01*
X251386715Y-67465000D01*
X179263018Y-67465000D01*
X179222000Y-67460960D01*
X179180982Y-67465000D01*
X179180981Y-67465000D01*
X179058311Y-67477082D01*
X178900913Y-67524828D01*
X178755854Y-67602364D01*
X178664810Y-67677082D01*
X178628709Y-67706709D01*
X178602563Y-67738568D01*
X177254225Y-69086907D01*
X177109102Y-69115774D01*
X176920744Y-69193795D01*
X176751226Y-69307063D01*
X176607063Y-69451226D01*
X176493795Y-69620744D01*
X176415774Y-69809102D01*
X176376000Y-70009061D01*
X165375000Y-70009061D01*
X165375000Y-65897295D01*
X165435226Y-65751898D01*
X165475000Y-65551939D01*
X165475000Y-65348061D01*
X165435226Y-65148102D01*
X165357205Y-64959744D01*
X165243937Y-64790226D01*
X165099774Y-64646063D01*
X164930256Y-64532795D01*
X164741898Y-64454774D01*
X164541939Y-64415000D01*
X164338061Y-64415000D01*
X164138102Y-64454774D01*
X163949744Y-64532795D01*
X163780226Y-64646063D01*
X163636063Y-64790226D01*
X163598762Y-64846052D01*
X163478773Y-64726063D01*
X163309255Y-64612795D01*
X163120897Y-64534774D01*
X162920938Y-64495000D01*
X162717060Y-64495000D01*
X162517101Y-64534774D01*
X162328743Y-64612795D01*
X162159225Y-64726063D01*
X162015062Y-64870226D01*
X161901794Y-65039744D01*
X161823773Y-65228102D01*
X161783999Y-65428061D01*
X161783999Y-65631939D01*
X161823773Y-65831898D01*
X161884000Y-65977298D01*
X161883999Y-80952705D01*
X161823773Y-81098102D01*
X161783999Y-81298061D01*
X161783999Y-81501939D01*
X161823773Y-81701898D01*
X161901794Y-81890256D01*
X162015062Y-82059774D01*
X162159225Y-82203937D01*
X162328743Y-82317205D01*
X162517101Y-82395226D01*
X162717060Y-82435000D01*
X162920938Y-82435000D01*
X163120897Y-82395226D01*
X163309255Y-82317205D01*
X163478773Y-82203937D01*
X163622794Y-82059916D01*
X163636063Y-82079774D01*
X163780226Y-82223937D01*
X163949744Y-82337205D01*
X164138102Y-82415226D01*
X164338061Y-82455000D01*
X164541939Y-82455000D01*
X164741898Y-82415226D01*
X164930256Y-82337205D01*
X164965000Y-82313990D01*
X164965001Y-106588007D01*
X164840986Y-106654294D01*
X164614866Y-106839866D01*
X164429294Y-107065987D01*
X164420000Y-107083374D01*
X164410706Y-107065986D01*
X164225134Y-106839866D01*
X164185000Y-106806929D01*
X164185000Y-88426586D01*
X164195226Y-88401898D01*
X164235000Y-88201939D01*
X164235000Y-87998061D01*
X164195226Y-87798102D01*
X164117205Y-87609744D01*
X164003937Y-87440226D01*
X163859774Y-87296063D01*
X163690256Y-87182795D01*
X163501898Y-87104774D01*
X163301939Y-87065000D01*
X163098061Y-87065000D01*
X162898102Y-87104774D01*
X162709744Y-87182795D01*
X162540226Y-87296063D01*
X162396063Y-87440226D01*
X162282795Y-87609744D01*
X162204774Y-87798102D01*
X162165000Y-87998061D01*
X162165000Y-88201939D01*
X162204774Y-88401898D01*
X162215000Y-88426586D01*
X162215001Y-106757687D01*
X162114866Y-106839866D01*
X161929294Y-107065987D01*
X161920000Y-107083374D01*
X161910706Y-107065986D01*
X161725134Y-106839866D01*
X161499013Y-106654294D01*
X161241033Y-106516401D01*
X160961110Y-106431487D01*
X160670000Y-106402815D01*
X160378889Y-106431487D01*
X160098966Y-106516401D01*
X159840986Y-106654294D01*
X159614866Y-106839866D01*
X159429294Y-107065987D01*
X159420000Y-107083374D01*
X159410706Y-107065986D01*
X159225134Y-106839866D01*
X158999013Y-106654294D01*
X158741033Y-106516401D01*
X158461110Y-106431487D01*
X158170000Y-106402815D01*
X157878889Y-106431487D01*
X157598966Y-106516401D01*
X157340986Y-106654294D01*
X157114866Y-106839866D01*
X156929294Y-107065987D01*
X156920000Y-107083374D01*
X156910706Y-107065986D01*
X156725134Y-106839866D01*
X156605000Y-106741275D01*
X156605000Y-105815931D01*
X156609524Y-105769999D01*
X156591471Y-105586707D01*
X156564771Y-105498689D01*
X156538007Y-105410460D01*
X156451186Y-105248028D01*
X156334344Y-105105656D01*
X156298666Y-105076376D01*
X153635000Y-102412711D01*
X153635000Y-85794061D01*
X155361000Y-85794061D01*
X155361000Y-85997939D01*
X155400774Y-86197898D01*
X155478795Y-86386256D01*
X155561000Y-86509285D01*
X155561001Y-92982714D01*
X155478795Y-93105744D01*
X155400774Y-93294102D01*
X155361000Y-93494061D01*
X155361000Y-93697939D01*
X155400774Y-93897898D01*
X155478795Y-94086256D01*
X155592063Y-94255774D01*
X155736226Y-94399937D01*
X155905744Y-94513205D01*
X156094102Y-94591226D01*
X156294061Y-94631000D01*
X156497939Y-94631000D01*
X156697898Y-94591226D01*
X156886256Y-94513205D01*
X157055774Y-94399937D01*
X157199937Y-94255774D01*
X157313205Y-94086256D01*
X157391226Y-93897898D01*
X157431000Y-93697939D01*
X157431000Y-93494061D01*
X157391226Y-93294102D01*
X157313205Y-93105744D01*
X157231000Y-92982715D01*
X157231000Y-86509285D01*
X157313205Y-86386256D01*
X157391226Y-86197898D01*
X157431000Y-85997939D01*
X157431000Y-85794061D01*
X157391226Y-85594102D01*
X157313205Y-85405744D01*
X157199937Y-85236226D01*
X157055774Y-85092063D01*
X156886256Y-84978795D01*
X156697898Y-84900774D01*
X156497939Y-84861000D01*
X156294061Y-84861000D01*
X156094102Y-84900774D01*
X155905744Y-84978795D01*
X155736226Y-85092063D01*
X155592063Y-85236226D01*
X155478795Y-85405744D01*
X155400774Y-85594102D01*
X155361000Y-85794061D01*
X153635000Y-85794061D01*
X153635000Y-68387289D01*
X157444858Y-64577431D01*
X157590256Y-64517205D01*
X157759774Y-64403937D01*
X157903937Y-64259774D01*
X158017205Y-64090256D01*
X158095226Y-63901898D01*
X158135000Y-63701939D01*
X158135000Y-63498061D01*
X158095226Y-63298102D01*
X158017205Y-63109744D01*
X157903937Y-62940226D01*
X157759774Y-62796063D01*
X157590256Y-62682795D01*
X157401898Y-62604774D01*
X157201939Y-62565000D01*
X156998061Y-62565000D01*
X156798102Y-62604774D01*
X156609744Y-62682795D01*
X156440226Y-62796063D01*
X156296063Y-62940226D01*
X156182795Y-63109744D01*
X156122569Y-63255142D01*
X152071341Y-67306370D01*
X152035656Y-67335656D01*
X151918814Y-67478029D01*
X151831993Y-67640461D01*
X151780642Y-67809744D01*
X151778529Y-67816709D01*
X151760476Y-68000000D01*
X151765000Y-68045932D01*
X151765001Y-102754058D01*
X151760476Y-102800000D01*
X151778529Y-102983291D01*
X151823978Y-103133116D01*
X151831994Y-103159540D01*
X151918815Y-103321972D01*
X152035657Y-103464344D01*
X152071336Y-103493625D01*
X154735000Y-106157290D01*
X154735000Y-106741274D01*
X154620451Y-106835282D01*
X154582730Y-106744215D01*
X154513237Y-106640211D01*
X154424789Y-106551763D01*
X154320785Y-106482270D01*
X154205223Y-106434403D01*
X154082542Y-106410000D01*
X153455750Y-106410000D01*
X153297000Y-106568750D01*
X153297000Y-107893000D01*
X153317000Y-107893000D01*
X153317000Y-108147000D01*
X153297000Y-108147000D01*
X153297000Y-109471250D01*
X153455750Y-109630000D01*
X154082542Y-109630000D01*
X154205223Y-109605597D01*
X154320785Y-109557730D01*
X154424789Y-109488237D01*
X154513237Y-109399789D01*
X154535001Y-109367217D01*
X154535000Y-114259868D01*
X152929869Y-115865000D01*
X63570133Y-115865000D01*
X62635000Y-114929869D01*
X62635000Y-113449750D01*
X64027000Y-113449750D01*
X64027000Y-114026542D01*
X64051403Y-114149223D01*
X64099270Y-114264785D01*
X64168763Y-114368789D01*
X64257211Y-114457237D01*
X64361215Y-114526730D01*
X64476777Y-114574597D01*
X64599458Y-114599000D01*
X65176250Y-114599000D01*
X65335000Y-114440250D01*
X65335000Y-113291000D01*
X65589000Y-113291000D01*
X65589000Y-114440250D01*
X65747750Y-114599000D01*
X66324542Y-114599000D01*
X66447223Y-114574597D01*
X66562785Y-114526730D01*
X66666789Y-114457237D01*
X66755237Y-114368789D01*
X66824730Y-114264785D01*
X66872597Y-114149223D01*
X66897000Y-114026542D01*
X66897000Y-113449750D01*
X66738250Y-113291000D01*
X65589000Y-113291000D01*
X65335000Y-113291000D01*
X64185750Y-113291000D01*
X64027000Y-113449750D01*
X62635000Y-113449750D01*
X62635000Y-111466250D01*
X62618577Y-111299503D01*
X62603000Y-111248153D01*
X62603000Y-107561743D01*
X62608490Y-107506001D01*
X62603000Y-107450259D01*
X62603000Y-104849888D01*
X62738000Y-104685391D01*
X62873001Y-104849889D01*
X62873000Y-107336248D01*
X62867509Y-107392000D01*
X62873000Y-107447751D01*
X62889423Y-107614498D01*
X62954324Y-107828446D01*
X63059716Y-108025623D01*
X63201551Y-108198449D01*
X63244864Y-108233995D01*
X64327000Y-109316133D01*
X64327000Y-109779716D01*
X64190320Y-109984273D01*
X64082147Y-110245426D01*
X64027000Y-110522665D01*
X64027000Y-110805335D01*
X64082147Y-111082574D01*
X64190320Y-111343727D01*
X64347363Y-111578759D01*
X64514503Y-111745899D01*
X64476777Y-111753403D01*
X64361215Y-111801270D01*
X64257211Y-111870763D01*
X64168763Y-111959211D01*
X64099270Y-112063215D01*
X64051403Y-112178777D01*
X64027000Y-112301458D01*
X64027000Y-112878250D01*
X64185750Y-113037000D01*
X65335000Y-113037000D01*
X65335000Y-113017000D01*
X65589000Y-113017000D01*
X65589000Y-113037000D01*
X66738250Y-113037000D01*
X66897000Y-112878250D01*
X66897000Y-112301458D01*
X66872597Y-112178777D01*
X66824730Y-112063215D01*
X66755237Y-111959211D01*
X66666789Y-111870763D01*
X66562785Y-111801270D01*
X66447223Y-111753403D01*
X66409497Y-111745899D01*
X66576637Y-111578759D01*
X66733680Y-111343727D01*
X66841853Y-111082574D01*
X66897000Y-110805335D01*
X66897000Y-110522665D01*
X66841853Y-110245426D01*
X66733680Y-109984273D01*
X66597000Y-109779716D01*
X66597000Y-108901752D01*
X66602491Y-108846000D01*
X66580577Y-108623501D01*
X66515676Y-108409553D01*
X66460193Y-108305750D01*
X151685000Y-108305750D01*
X151685000Y-109057542D01*
X151709403Y-109180223D01*
X151757270Y-109295785D01*
X151826763Y-109399789D01*
X151915211Y-109488237D01*
X152019215Y-109557730D01*
X152134777Y-109605597D01*
X152257458Y-109630000D01*
X152884250Y-109630000D01*
X153043000Y-109471250D01*
X153043000Y-108147000D01*
X151843750Y-108147000D01*
X151685000Y-108305750D01*
X66460193Y-108305750D01*
X66410284Y-108212377D01*
X66303989Y-108082856D01*
X66303987Y-108082854D01*
X66268449Y-108039551D01*
X66225146Y-108004013D01*
X65203590Y-106982458D01*
X151685000Y-106982458D01*
X151685000Y-107734250D01*
X151843750Y-107893000D01*
X153043000Y-107893000D01*
X153043000Y-106568750D01*
X152884250Y-106410000D01*
X152257458Y-106410000D01*
X152134777Y-106434403D01*
X152019215Y-106482270D01*
X151915211Y-106551763D01*
X151826763Y-106640211D01*
X151757270Y-106744215D01*
X151709403Y-106859777D01*
X151685000Y-106982458D01*
X65203590Y-106982458D01*
X65143000Y-106921869D01*
X65143000Y-104849888D01*
X65334345Y-104616734D01*
X65481755Y-104340948D01*
X65572530Y-104041703D01*
X65595500Y-103808485D01*
X65595500Y-103557514D01*
X65572530Y-103324296D01*
X65481755Y-103025051D01*
X65334345Y-102749265D01*
X65143000Y-102516112D01*
X65143000Y-102203421D01*
X76716895Y-90629527D01*
X76818508Y-90505710D01*
X76919258Y-90317221D01*
X76981300Y-90112698D01*
X77002248Y-89900001D01*
X76981300Y-89687304D01*
X76919258Y-89482780D01*
X76818508Y-89294291D01*
X76682922Y-89129078D01*
X76517709Y-88993492D01*
X76329220Y-88892742D01*
X76124696Y-88830700D01*
X75911999Y-88809752D01*
X75699302Y-88830700D01*
X75494779Y-88892742D01*
X75306290Y-88993492D01*
X75182473Y-89095105D01*
X64043355Y-100234224D01*
X63595996Y-99786865D01*
X63560449Y-99743551D01*
X63387623Y-99601716D01*
X63190447Y-99496324D01*
X62976499Y-99431423D01*
X62809752Y-99415000D01*
X62809751Y-99415000D01*
X62754000Y-99409509D01*
X62698249Y-99415000D01*
X54385751Y-99415000D01*
X54329999Y-99409509D01*
X54274248Y-99415000D01*
X54107501Y-99431423D01*
X53893553Y-99496324D01*
X53696377Y-99601716D01*
X53523551Y-99743551D01*
X53488009Y-99786859D01*
X50759869Y-102515000D01*
X44678072Y-102515000D01*
X44678072Y-101920000D01*
X44665812Y-101795518D01*
X44629502Y-101675820D01*
X44570537Y-101565506D01*
X44491185Y-101468815D01*
X44394494Y-101389463D01*
X44284180Y-101330498D01*
X44164482Y-101294188D01*
X44040000Y-101281928D01*
X43425000Y-101281928D01*
X43425000Y-93205741D01*
X43430490Y-93149999D01*
X43425000Y-93094257D01*
X43425000Y-93094248D01*
X43408577Y-92927501D01*
X43343676Y-92713553D01*
X43238284Y-92516377D01*
X43096449Y-92343551D01*
X43053141Y-92308009D01*
X38649845Y-87904714D01*
X38633513Y-87738889D01*
X38548599Y-87458966D01*
X38410706Y-87200986D01*
X38264637Y-87023000D01*
X59071461Y-87023000D01*
X59117510Y-87490542D01*
X59253887Y-87940116D01*
X59475351Y-88354446D01*
X59773391Y-88717609D01*
X60136554Y-89015649D01*
X60550884Y-89237113D01*
X61000458Y-89373490D01*
X61350843Y-89408000D01*
X61585157Y-89408000D01*
X61935542Y-89373490D01*
X62385116Y-89237113D01*
X62799446Y-89015649D01*
X63162609Y-88717609D01*
X63460649Y-88354446D01*
X63682113Y-87940116D01*
X63818490Y-87490542D01*
X63864539Y-87023000D01*
X63818490Y-86555458D01*
X63682113Y-86105884D01*
X63460649Y-85691554D01*
X63162609Y-85328391D01*
X62799446Y-85030351D01*
X62385116Y-84808887D01*
X61935542Y-84672510D01*
X61585157Y-84638000D01*
X61350843Y-84638000D01*
X61000458Y-84672510D01*
X60550884Y-84808887D01*
X60136554Y-85030351D01*
X59773391Y-85328391D01*
X59475351Y-85691554D01*
X59253887Y-86105884D01*
X59117510Y-86555458D01*
X59071461Y-87023000D01*
X38264637Y-87023000D01*
X38225134Y-86974866D01*
X37999014Y-86789294D01*
X37741034Y-86651401D01*
X37461111Y-86566487D01*
X37242950Y-86545000D01*
X36990132Y-86545000D01*
X34765000Y-84319869D01*
X34765000Y-84103061D01*
X146420000Y-84103061D01*
X146420000Y-84306939D01*
X146459774Y-84506898D01*
X146537795Y-84695256D01*
X146651063Y-84864774D01*
X146795226Y-85008937D01*
X146964744Y-85122205D01*
X147153102Y-85200226D01*
X147353061Y-85240000D01*
X147556939Y-85240000D01*
X147756898Y-85200226D01*
X147945256Y-85122205D01*
X148114774Y-85008937D01*
X148258937Y-84864774D01*
X148372205Y-84695256D01*
X148450226Y-84506898D01*
X148490000Y-84306939D01*
X148490000Y-84103061D01*
X148450226Y-83903102D01*
X148415000Y-83818060D01*
X148415000Y-71978061D01*
X149081000Y-71978061D01*
X149081000Y-72181939D01*
X149120774Y-72381898D01*
X149198795Y-72570256D01*
X149312063Y-72739774D01*
X149456226Y-72883937D01*
X149625744Y-72997205D01*
X149814102Y-73075226D01*
X150014061Y-73115000D01*
X150217939Y-73115000D01*
X150417898Y-73075226D01*
X150606256Y-72997205D01*
X150775774Y-72883937D01*
X150919937Y-72739774D01*
X151033205Y-72570256D01*
X151111226Y-72381898D01*
X151151000Y-72181939D01*
X151151000Y-71978061D01*
X151145000Y-71947897D01*
X151145000Y-61298061D01*
X163855000Y-61298061D01*
X163855000Y-61501939D01*
X163894774Y-61701898D01*
X163972795Y-61890256D01*
X164086063Y-62059774D01*
X164230226Y-62203937D01*
X164399744Y-62317205D01*
X164588102Y-62395226D01*
X164788061Y-62435000D01*
X164872783Y-62435000D01*
X164802795Y-62539744D01*
X164724774Y-62728102D01*
X164685000Y-62928061D01*
X164685000Y-63131939D01*
X164724774Y-63331898D01*
X164802795Y-63520256D01*
X164916063Y-63689774D01*
X165060226Y-63833937D01*
X165229744Y-63947205D01*
X165418102Y-64025226D01*
X165618061Y-64065000D01*
X165821939Y-64065000D01*
X166021898Y-64025226D01*
X166210256Y-63947205D01*
X166258454Y-63915000D01*
X234946531Y-63915000D01*
X234990000Y-63919281D01*
X235033469Y-63915000D01*
X235033477Y-63915000D01*
X235163490Y-63902195D01*
X235330313Y-63851589D01*
X235484059Y-63769411D01*
X235618817Y-63658817D01*
X235646534Y-63625044D01*
X244636579Y-54635000D01*
X249931546Y-54635000D01*
X249979744Y-54667205D01*
X250168102Y-54745226D01*
X250368061Y-54785000D01*
X250571939Y-54785000D01*
X250771898Y-54745226D01*
X250960256Y-54667205D01*
X251129774Y-54553937D01*
X251273937Y-54409774D01*
X251387205Y-54240256D01*
X251465226Y-54051898D01*
X251505000Y-53851939D01*
X251505000Y-53648061D01*
X251465226Y-53448102D01*
X251387205Y-53259744D01*
X251273937Y-53090226D01*
X251129774Y-52946063D01*
X250960256Y-52832795D01*
X250771898Y-52754774D01*
X250571939Y-52715000D01*
X250368061Y-52715000D01*
X250168102Y-52754774D01*
X249979744Y-52832795D01*
X249931546Y-52865000D01*
X244313469Y-52865000D01*
X244270000Y-52860719D01*
X244226531Y-52865000D01*
X244226523Y-52865000D01*
X244096510Y-52877805D01*
X243929687Y-52928411D01*
X243775941Y-53010589D01*
X243674953Y-53093468D01*
X243674951Y-53093470D01*
X243641183Y-53121183D01*
X243613470Y-53154951D01*
X234623422Y-62145000D01*
X223569074Y-62145000D01*
X223673075Y-62089411D01*
X223807833Y-61978817D01*
X223835550Y-61945044D01*
X235341942Y-50438652D01*
X235523493Y-50493725D01*
X235893016Y-50530120D01*
X236262540Y-50493725D01*
X236617864Y-50385939D01*
X236945333Y-50210903D01*
X237232361Y-49975345D01*
X237467919Y-49688317D01*
X237642955Y-49360848D01*
X237750741Y-49005524D01*
X237778016Y-48728597D01*
X237778016Y-46543404D01*
X239458016Y-46543404D01*
X239458017Y-48728597D01*
X239485292Y-49005524D01*
X239593078Y-49360848D01*
X239768114Y-49688317D01*
X240003672Y-49975345D01*
X240290700Y-50210903D01*
X240618169Y-50385939D01*
X240973493Y-50493725D01*
X241343016Y-50530120D01*
X241712540Y-50493725D01*
X242067864Y-50385939D01*
X242395333Y-50210903D01*
X242682361Y-49975345D01*
X242917919Y-49688317D01*
X243092955Y-49360848D01*
X243200741Y-49005524D01*
X243228016Y-48728597D01*
X243228016Y-46543403D01*
X243200741Y-46266476D01*
X243092955Y-45911152D01*
X242917919Y-45583683D01*
X242682361Y-45296655D01*
X242395333Y-45061097D01*
X242067863Y-44886061D01*
X241712539Y-44778275D01*
X241343016Y-44741880D01*
X240973492Y-44778275D01*
X240618168Y-44886061D01*
X240290699Y-45061097D01*
X240003671Y-45296655D01*
X239768113Y-45583683D01*
X239593077Y-45911153D01*
X239485291Y-46266477D01*
X239458016Y-46543404D01*
X237778016Y-46543404D01*
X237778016Y-46543403D01*
X237750741Y-46266476D01*
X237642955Y-45911152D01*
X237467919Y-45583683D01*
X237232361Y-45296655D01*
X236945333Y-45061097D01*
X236617863Y-44886061D01*
X236262539Y-44778275D01*
X235893016Y-44741880D01*
X235523492Y-44778275D01*
X235168168Y-44886061D01*
X234840699Y-45061097D01*
X234553671Y-45296655D01*
X234318113Y-45583683D01*
X234143077Y-45911153D01*
X234035291Y-46266477D01*
X234008016Y-46543404D01*
X234008017Y-48728597D01*
X234035292Y-49005524D01*
X234090364Y-49187073D01*
X222812438Y-60465000D01*
X165337295Y-60465000D01*
X165191898Y-60404774D01*
X164991939Y-60365000D01*
X164788061Y-60365000D01*
X164588102Y-60404774D01*
X164399744Y-60482795D01*
X164230226Y-60596063D01*
X164086063Y-60740226D01*
X163972795Y-60909744D01*
X163894774Y-61098102D01*
X163855000Y-61298061D01*
X151145000Y-61298061D01*
X151145000Y-58317295D01*
X151205226Y-58171898D01*
X151245000Y-57971939D01*
X151245000Y-57768061D01*
X151205226Y-57568102D01*
X151127205Y-57379744D01*
X151013937Y-57210226D01*
X150869774Y-57066063D01*
X150700256Y-56952795D01*
X150511898Y-56874774D01*
X150311939Y-56835000D01*
X150108061Y-56835000D01*
X149908102Y-56874774D01*
X149719744Y-56952795D01*
X149550226Y-57066063D01*
X149406063Y-57210226D01*
X149292795Y-57379744D01*
X149214774Y-57568102D01*
X149175000Y-57768061D01*
X149175000Y-57971939D01*
X149214774Y-58171898D01*
X149275000Y-58317295D01*
X149275001Y-71475693D01*
X149198795Y-71589744D01*
X149120774Y-71778102D01*
X149081000Y-71978061D01*
X148415000Y-71978061D01*
X148415000Y-59937295D01*
X148475226Y-59791898D01*
X148515000Y-59591939D01*
X148515000Y-59388061D01*
X148475226Y-59188102D01*
X148397205Y-58999744D01*
X148283937Y-58830226D01*
X148139774Y-58686063D01*
X147970256Y-58572795D01*
X147781898Y-58494774D01*
X147581939Y-58455000D01*
X147378061Y-58455000D01*
X147178102Y-58494774D01*
X146989744Y-58572795D01*
X146820226Y-58686063D01*
X146676063Y-58830226D01*
X146562795Y-58999744D01*
X146484774Y-59188102D01*
X146445000Y-59388061D01*
X146445000Y-59591939D01*
X146484774Y-59791898D01*
X146545000Y-59937295D01*
X146545001Y-83703959D01*
X146537795Y-83714744D01*
X146459774Y-83903102D01*
X146420000Y-84103061D01*
X34765000Y-84103061D01*
X34765000Y-80215750D01*
X35385000Y-80215750D01*
X35385000Y-80842542D01*
X35409403Y-80965223D01*
X35457270Y-81080785D01*
X35526763Y-81184789D01*
X35615211Y-81273237D01*
X35719215Y-81342730D01*
X35834777Y-81390597D01*
X35957458Y-81415000D01*
X36734250Y-81415000D01*
X36893000Y-81256250D01*
X36893000Y-80057000D01*
X37147000Y-80057000D01*
X37147000Y-81256250D01*
X37305750Y-81415000D01*
X38082542Y-81415000D01*
X38205223Y-81390597D01*
X38320785Y-81342730D01*
X38424789Y-81273237D01*
X38513237Y-81184789D01*
X38582730Y-81080785D01*
X38630597Y-80965223D01*
X38655000Y-80842542D01*
X38655000Y-80215750D01*
X38496250Y-80057000D01*
X37147000Y-80057000D01*
X36893000Y-80057000D01*
X35543750Y-80057000D01*
X35385000Y-80215750D01*
X34765000Y-80215750D01*
X34765000Y-79320131D01*
X35520132Y-78565000D01*
X35647782Y-78565000D01*
X35615211Y-78586763D01*
X35526763Y-78675211D01*
X35457270Y-78779215D01*
X35409403Y-78894777D01*
X35385000Y-79017458D01*
X35385000Y-79644250D01*
X35543750Y-79803000D01*
X36893000Y-79803000D01*
X36893000Y-79783000D01*
X37147000Y-79783000D01*
X37147000Y-79803000D01*
X38496250Y-79803000D01*
X38655000Y-79644250D01*
X38655000Y-79017458D01*
X38630597Y-78894777D01*
X38582730Y-78779215D01*
X38513237Y-78675211D01*
X38424789Y-78586763D01*
X38320785Y-78517270D01*
X38229718Y-78479549D01*
X38410706Y-78259014D01*
X38548599Y-78001034D01*
X38633513Y-77721111D01*
X38662185Y-77430000D01*
X38633513Y-77138889D01*
X38548599Y-76858966D01*
X38410706Y-76600986D01*
X38225134Y-76374866D01*
X37999014Y-76189294D01*
X37741034Y-76051401D01*
X37461111Y-75966487D01*
X37242950Y-75945000D01*
X36797050Y-75945000D01*
X36578889Y-75966487D01*
X36298966Y-76051401D01*
X36040986Y-76189294D01*
X35912183Y-76295000D01*
X35105741Y-76295000D01*
X35049999Y-76289510D01*
X34994257Y-76295000D01*
X34994248Y-76295000D01*
X34827501Y-76311423D01*
X34613553Y-76376324D01*
X34416377Y-76481716D01*
X34243551Y-76623551D01*
X34208008Y-76666860D01*
X32866860Y-78008009D01*
X32823552Y-78043551D01*
X32681717Y-78216377D01*
X32648263Y-78278966D01*
X32576324Y-78413554D01*
X32511423Y-78627502D01*
X32489509Y-78850000D01*
X20121587Y-78850000D01*
X20118666Y-56645209D01*
X51065000Y-56645209D01*
X51065000Y-56849087D01*
X51104774Y-57049046D01*
X51182795Y-57237404D01*
X51265000Y-57360433D01*
X51265001Y-64258972D01*
X51260960Y-64300000D01*
X51277082Y-64463688D01*
X51324828Y-64621086D01*
X51402364Y-64766145D01*
X51402365Y-64766146D01*
X51506710Y-64893291D01*
X51538574Y-64919441D01*
X55680563Y-69061432D01*
X55706709Y-69093291D01*
X55738568Y-69119437D01*
X55738570Y-69119439D01*
X55833854Y-69197636D01*
X55978913Y-69275172D01*
X56136311Y-69322918D01*
X56300000Y-69339040D01*
X56341018Y-69335000D01*
X66986715Y-69335000D01*
X67109744Y-69417205D01*
X67298102Y-69495226D01*
X67498061Y-69535000D01*
X67701939Y-69535000D01*
X67901898Y-69495226D01*
X68090256Y-69417205D01*
X68259774Y-69303937D01*
X68403937Y-69159774D01*
X68517205Y-68990256D01*
X68595226Y-68801898D01*
X68635000Y-68601939D01*
X68635000Y-68398061D01*
X68595226Y-68198102D01*
X68517205Y-68009744D01*
X68403937Y-67840226D01*
X68259774Y-67696063D01*
X68090256Y-67582795D01*
X67901898Y-67504774D01*
X67701939Y-67465000D01*
X67498061Y-67465000D01*
X67298102Y-67504774D01*
X67109744Y-67582795D01*
X66986715Y-67665000D01*
X56645869Y-67665000D01*
X54858930Y-65878061D01*
X121675000Y-65878061D01*
X121675000Y-66081939D01*
X121714774Y-66281898D01*
X121775000Y-66427296D01*
X121775001Y-69312703D01*
X121714774Y-69458102D01*
X121675000Y-69658061D01*
X121675000Y-69861939D01*
X121714774Y-70061898D01*
X121792795Y-70250256D01*
X121906063Y-70419774D01*
X122050226Y-70563937D01*
X122219744Y-70677205D01*
X122408102Y-70755226D01*
X122608061Y-70795000D01*
X122811939Y-70795000D01*
X123011898Y-70755226D01*
X123200256Y-70677205D01*
X123369774Y-70563937D01*
X123513937Y-70419774D01*
X123627205Y-70250256D01*
X123705226Y-70061898D01*
X123745000Y-69861939D01*
X123745000Y-69658061D01*
X123705226Y-69458102D01*
X123645000Y-69312705D01*
X123645000Y-66427295D01*
X123705226Y-66281898D01*
X123745000Y-66081939D01*
X123745000Y-65878061D01*
X123705226Y-65678102D01*
X123627205Y-65489744D01*
X123513937Y-65320226D01*
X123369774Y-65176063D01*
X123200256Y-65062795D01*
X123011898Y-64984774D01*
X122811939Y-64945000D01*
X122608061Y-64945000D01*
X122408102Y-64984774D01*
X122219744Y-65062795D01*
X122050226Y-65176063D01*
X121906063Y-65320226D01*
X121792795Y-65489744D01*
X121714774Y-65678102D01*
X121675000Y-65878061D01*
X54858930Y-65878061D01*
X52935000Y-63954133D01*
X52935000Y-61278061D01*
X117845000Y-61278061D01*
X117845000Y-61481939D01*
X117884774Y-61681898D01*
X117962795Y-61870256D01*
X118076063Y-62039774D01*
X118220226Y-62183937D01*
X118389744Y-62297205D01*
X118578102Y-62375226D01*
X118778061Y-62415000D01*
X118981939Y-62415000D01*
X119181898Y-62375226D01*
X119370256Y-62297205D01*
X119418454Y-62265000D01*
X144461546Y-62265000D01*
X144509744Y-62297205D01*
X144698102Y-62375226D01*
X144898061Y-62415000D01*
X145101939Y-62415000D01*
X145301898Y-62375226D01*
X145490256Y-62297205D01*
X145659774Y-62183937D01*
X145803937Y-62039774D01*
X145917205Y-61870256D01*
X145995226Y-61681898D01*
X146035000Y-61481939D01*
X146035000Y-61278061D01*
X145995226Y-61078102D01*
X145917205Y-60889744D01*
X145803937Y-60720226D01*
X145659774Y-60576063D01*
X145490256Y-60462795D01*
X145301898Y-60384774D01*
X145101939Y-60345000D01*
X144898061Y-60345000D01*
X144698102Y-60384774D01*
X144509744Y-60462795D01*
X144461546Y-60495000D01*
X119418454Y-60495000D01*
X119370256Y-60462795D01*
X119181898Y-60384774D01*
X118981939Y-60345000D01*
X118778061Y-60345000D01*
X118578102Y-60384774D01*
X118389744Y-60462795D01*
X118220226Y-60576063D01*
X118076063Y-60720226D01*
X117962795Y-60889744D01*
X117884774Y-61078102D01*
X117845000Y-61278061D01*
X52935000Y-61278061D01*
X52935000Y-57360433D01*
X53017205Y-57237404D01*
X53095226Y-57049046D01*
X53135000Y-56849087D01*
X53135000Y-56645209D01*
X53095226Y-56445250D01*
X53017205Y-56256892D01*
X52903937Y-56087374D01*
X52759774Y-55943211D01*
X52590256Y-55829943D01*
X52401898Y-55751922D01*
X52201939Y-55712148D01*
X51998061Y-55712148D01*
X51798102Y-55751922D01*
X51609744Y-55829943D01*
X51440226Y-55943211D01*
X51296063Y-56087374D01*
X51182795Y-56256892D01*
X51104774Y-56445250D01*
X51065000Y-56645209D01*
X20118666Y-56645209D01*
X20117184Y-45386000D01*
X48555070Y-45386000D01*
X48555070Y-49886000D01*
X48567330Y-50010482D01*
X48603640Y-50130180D01*
X48662605Y-50240494D01*
X48741957Y-50337185D01*
X48838648Y-50416537D01*
X48948962Y-50475502D01*
X49068660Y-50511812D01*
X49193142Y-50524072D01*
X51693142Y-50524072D01*
X51817624Y-50511812D01*
X51937322Y-50475502D01*
X52047636Y-50416537D01*
X52144327Y-50337185D01*
X52223679Y-50240494D01*
X52282644Y-50130180D01*
X52318954Y-50010482D01*
X52331214Y-49886000D01*
X52331214Y-46543404D01*
X54008142Y-46543404D01*
X54008143Y-48728597D01*
X54035418Y-49005524D01*
X54143204Y-49360848D01*
X54318240Y-49688317D01*
X54553798Y-49975345D01*
X54840826Y-50210903D01*
X55008142Y-50300335D01*
X55008142Y-51089673D01*
X55003861Y-51133142D01*
X55008142Y-51176611D01*
X55008142Y-51176618D01*
X55020947Y-51306631D01*
X55071553Y-51473454D01*
X55153731Y-51627200D01*
X55264325Y-51761959D01*
X55298098Y-51789676D01*
X60093470Y-56585049D01*
X60121183Y-56618817D01*
X60154951Y-56646530D01*
X60154953Y-56646532D01*
X60226452Y-56705210D01*
X60255941Y-56729411D01*
X60409687Y-56811589D01*
X60576510Y-56862195D01*
X60706523Y-56875000D01*
X60706533Y-56875000D01*
X60749999Y-56879281D01*
X60793465Y-56875000D01*
X144461546Y-56875000D01*
X144509744Y-56907205D01*
X144698102Y-56985226D01*
X144898061Y-57025000D01*
X145101939Y-57025000D01*
X145301898Y-56985226D01*
X145490256Y-56907205D01*
X145659774Y-56793937D01*
X145803937Y-56649774D01*
X145917205Y-56480256D01*
X145995226Y-56291898D01*
X146035000Y-56091939D01*
X146035000Y-55888061D01*
X145995226Y-55688102D01*
X145917205Y-55499744D01*
X145810581Y-55340170D01*
X145879774Y-55293937D01*
X146023937Y-55149774D01*
X146137205Y-54980256D01*
X146215226Y-54791898D01*
X146255000Y-54591939D01*
X146255000Y-54388061D01*
X146215226Y-54188102D01*
X146137205Y-53999744D01*
X146023937Y-53830226D01*
X145879774Y-53686063D01*
X145710256Y-53572795D01*
X145521898Y-53494774D01*
X145321939Y-53455000D01*
X145118061Y-53455000D01*
X144918102Y-53494774D01*
X144729744Y-53572795D01*
X144681330Y-53605144D01*
X71059940Y-53624808D01*
X71053520Y-53618388D01*
X70867624Y-53494176D01*
X70661067Y-53408617D01*
X70441788Y-53365000D01*
X70218212Y-53365000D01*
X69998933Y-53408617D01*
X69792376Y-53494176D01*
X69606480Y-53618388D01*
X69448388Y-53776480D01*
X69324176Y-53962376D01*
X69238617Y-54168933D01*
X69195000Y-54388212D01*
X69195000Y-54611788D01*
X69238617Y-54831067D01*
X69324176Y-55037624D01*
X69369195Y-55105000D01*
X61116579Y-55105000D01*
X56778142Y-50766564D01*
X56778142Y-50300336D01*
X56945459Y-50210903D01*
X57232487Y-49975345D01*
X57468045Y-49688317D01*
X57643081Y-49360848D01*
X57750867Y-49005524D01*
X57778142Y-48728597D01*
X57778142Y-46543404D01*
X59458142Y-46543404D01*
X59458143Y-48728597D01*
X59485418Y-49005524D01*
X59593204Y-49360848D01*
X59768240Y-49688317D01*
X60003798Y-49975345D01*
X60290826Y-50210903D01*
X60618295Y-50385939D01*
X60973619Y-50493725D01*
X61343142Y-50530120D01*
X61712666Y-50493725D01*
X62067990Y-50385939D01*
X62395459Y-50210903D01*
X62682487Y-49975345D01*
X62918045Y-49688317D01*
X63093081Y-49360848D01*
X63200867Y-49005524D01*
X63228142Y-48728597D01*
X63228142Y-46543403D01*
X63200867Y-46266476D01*
X63093081Y-45911152D01*
X62918045Y-45583683D01*
X62755811Y-45386000D01*
X108555028Y-45386000D01*
X108555028Y-49886000D01*
X108567288Y-50010482D01*
X108603598Y-50130180D01*
X108662563Y-50240494D01*
X108741915Y-50337185D01*
X108838606Y-50416537D01*
X108948920Y-50475502D01*
X109068618Y-50511812D01*
X109193100Y-50524072D01*
X111693100Y-50524072D01*
X111817582Y-50511812D01*
X111937280Y-50475502D01*
X112047594Y-50416537D01*
X112144285Y-50337185D01*
X112223637Y-50240494D01*
X112282602Y-50130180D01*
X112318912Y-50010482D01*
X112331172Y-49886000D01*
X112331172Y-46543404D01*
X114008100Y-46543404D01*
X114008101Y-48728597D01*
X114035376Y-49005524D01*
X114143162Y-49360848D01*
X114318198Y-49688317D01*
X114553756Y-49975345D01*
X114840784Y-50210903D01*
X115168253Y-50385939D01*
X115523577Y-50493725D01*
X115893100Y-50530120D01*
X116262624Y-50493725D01*
X116617948Y-50385939D01*
X116945417Y-50210903D01*
X117232445Y-49975345D01*
X117468003Y-49688317D01*
X117643039Y-49360848D01*
X117750825Y-49005524D01*
X117778100Y-48728597D01*
X117778100Y-46543404D01*
X119458100Y-46543404D01*
X119458101Y-48728597D01*
X119485376Y-49005524D01*
X119593162Y-49360848D01*
X119768198Y-49688317D01*
X120003756Y-49975345D01*
X120290784Y-50210903D01*
X120618253Y-50385939D01*
X120973577Y-50493725D01*
X121343100Y-50530120D01*
X121712624Y-50493725D01*
X122067948Y-50385939D01*
X122395417Y-50210903D01*
X122682445Y-49975345D01*
X122918003Y-49688317D01*
X123093039Y-49360848D01*
X123200825Y-49005524D01*
X123228100Y-48728597D01*
X123228100Y-46543403D01*
X123200825Y-46266476D01*
X123093039Y-45911152D01*
X122918003Y-45583683D01*
X122759052Y-45390000D01*
X168554986Y-45390000D01*
X168554986Y-49890000D01*
X168567246Y-50014482D01*
X168603556Y-50134180D01*
X168662521Y-50244494D01*
X168741873Y-50341185D01*
X168838564Y-50420537D01*
X168948878Y-50479502D01*
X169068576Y-50515812D01*
X169193058Y-50528072D01*
X171693058Y-50528072D01*
X171817540Y-50515812D01*
X171937238Y-50479502D01*
X172047552Y-50420537D01*
X172144243Y-50341185D01*
X172223595Y-50244494D01*
X172282560Y-50134180D01*
X172318870Y-50014482D01*
X172331130Y-49890000D01*
X172331130Y-46547404D01*
X174008058Y-46547404D01*
X174008059Y-48732597D01*
X174035334Y-49009524D01*
X174143120Y-49364848D01*
X174318156Y-49692317D01*
X174553714Y-49979345D01*
X174840742Y-50214903D01*
X175168211Y-50389939D01*
X175523535Y-50497725D01*
X175893058Y-50534120D01*
X176262582Y-50497725D01*
X176617906Y-50389939D01*
X176945375Y-50214903D01*
X177232403Y-49979345D01*
X177467961Y-49692317D01*
X177642997Y-49364848D01*
X177750783Y-49009524D01*
X177778058Y-48732597D01*
X177778058Y-46547404D01*
X179458058Y-46547404D01*
X179458059Y-48732597D01*
X179485334Y-49009524D01*
X179593120Y-49364848D01*
X179768156Y-49692317D01*
X180003714Y-49979345D01*
X180290742Y-50214903D01*
X180618211Y-50389939D01*
X180973535Y-50497725D01*
X181343058Y-50534120D01*
X181712582Y-50497725D01*
X182067906Y-50389939D01*
X182395375Y-50214903D01*
X182682403Y-49979345D01*
X182917961Y-49692317D01*
X183092997Y-49364848D01*
X183200783Y-49009524D01*
X183228058Y-48732597D01*
X183228058Y-46547403D01*
X183200783Y-46270476D01*
X183092997Y-45915152D01*
X182917961Y-45587683D01*
X182752444Y-45386000D01*
X228554944Y-45386000D01*
X228554944Y-49886000D01*
X228567204Y-50010482D01*
X228603514Y-50130180D01*
X228662479Y-50240494D01*
X228741831Y-50337185D01*
X228838522Y-50416537D01*
X228948836Y-50475502D01*
X229068534Y-50511812D01*
X229193016Y-50524072D01*
X231693016Y-50524072D01*
X231817498Y-50511812D01*
X231937196Y-50475502D01*
X232047510Y-50416537D01*
X232144201Y-50337185D01*
X232223553Y-50240494D01*
X232282518Y-50130180D01*
X232318828Y-50010482D01*
X232331088Y-49886000D01*
X232331088Y-45386000D01*
X232318828Y-45261518D01*
X232282518Y-45141820D01*
X232223553Y-45031506D01*
X232144201Y-44934815D01*
X232047510Y-44855463D01*
X231937196Y-44796498D01*
X231817498Y-44760188D01*
X231693016Y-44747928D01*
X229193016Y-44747928D01*
X229068534Y-44760188D01*
X228948836Y-44796498D01*
X228838522Y-44855463D01*
X228741831Y-44934815D01*
X228662479Y-45031506D01*
X228603514Y-45141820D01*
X228567204Y-45261518D01*
X228554944Y-45386000D01*
X182752444Y-45386000D01*
X182682403Y-45300655D01*
X182395375Y-45065097D01*
X182067905Y-44890061D01*
X181712581Y-44782275D01*
X181343058Y-44745880D01*
X180973534Y-44782275D01*
X180618210Y-44890061D01*
X180290741Y-45065097D01*
X180003713Y-45300655D01*
X179768155Y-45587683D01*
X179593119Y-45915153D01*
X179485333Y-46270477D01*
X179458058Y-46547404D01*
X177778058Y-46547404D01*
X177778058Y-46547403D01*
X177750783Y-46270476D01*
X177642997Y-45915152D01*
X177467961Y-45587683D01*
X177232403Y-45300655D01*
X176945375Y-45065097D01*
X176617905Y-44890061D01*
X176262581Y-44782275D01*
X175893058Y-44745880D01*
X175523534Y-44782275D01*
X175168210Y-44890061D01*
X174840741Y-45065097D01*
X174553713Y-45300655D01*
X174318155Y-45587683D01*
X174143119Y-45915153D01*
X174035333Y-46270477D01*
X174008058Y-46547404D01*
X172331130Y-46547404D01*
X172331130Y-45390000D01*
X172318870Y-45265518D01*
X172282560Y-45145820D01*
X172223595Y-45035506D01*
X172144243Y-44938815D01*
X172047552Y-44859463D01*
X171937238Y-44800498D01*
X171817540Y-44764188D01*
X171693058Y-44751928D01*
X169193058Y-44751928D01*
X169068576Y-44764188D01*
X168948878Y-44800498D01*
X168838564Y-44859463D01*
X168741873Y-44938815D01*
X168662521Y-45035506D01*
X168603556Y-45145820D01*
X168567246Y-45265518D01*
X168554986Y-45390000D01*
X122759052Y-45390000D01*
X122682445Y-45296655D01*
X122395417Y-45061097D01*
X122067947Y-44886061D01*
X121712623Y-44778275D01*
X121343100Y-44741880D01*
X120973576Y-44778275D01*
X120618252Y-44886061D01*
X120290783Y-45061097D01*
X120003755Y-45296655D01*
X119768197Y-45583683D01*
X119593161Y-45911153D01*
X119485375Y-46266477D01*
X119458100Y-46543404D01*
X117778100Y-46543404D01*
X117778100Y-46543403D01*
X117750825Y-46266476D01*
X117643039Y-45911152D01*
X117468003Y-45583683D01*
X117232445Y-45296655D01*
X116945417Y-45061097D01*
X116617947Y-44886061D01*
X116262623Y-44778275D01*
X115893100Y-44741880D01*
X115523576Y-44778275D01*
X115168252Y-44886061D01*
X114840783Y-45061097D01*
X114553755Y-45296655D01*
X114318197Y-45583683D01*
X114143161Y-45911153D01*
X114035375Y-46266477D01*
X114008100Y-46543404D01*
X112331172Y-46543404D01*
X112331172Y-45386000D01*
X112318912Y-45261518D01*
X112282602Y-45141820D01*
X112223637Y-45031506D01*
X112144285Y-44934815D01*
X112047594Y-44855463D01*
X111937280Y-44796498D01*
X111817582Y-44760188D01*
X111693100Y-44747928D01*
X109193100Y-44747928D01*
X109068618Y-44760188D01*
X108948920Y-44796498D01*
X108838606Y-44855463D01*
X108741915Y-44934815D01*
X108662563Y-45031506D01*
X108603598Y-45141820D01*
X108567288Y-45261518D01*
X108555028Y-45386000D01*
X62755811Y-45386000D01*
X62682487Y-45296655D01*
X62395459Y-45061097D01*
X62067989Y-44886061D01*
X61712665Y-44778275D01*
X61343142Y-44741880D01*
X60973618Y-44778275D01*
X60618294Y-44886061D01*
X60290825Y-45061097D01*
X60003797Y-45296655D01*
X59768239Y-45583683D01*
X59593203Y-45911153D01*
X59485417Y-46266477D01*
X59458142Y-46543404D01*
X57778142Y-46543404D01*
X57778142Y-46543403D01*
X57750867Y-46266476D01*
X57643081Y-45911152D01*
X57468045Y-45583683D01*
X57232487Y-45296655D01*
X56945459Y-45061097D01*
X56617989Y-44886061D01*
X56262665Y-44778275D01*
X55893142Y-44741880D01*
X55523618Y-44778275D01*
X55168294Y-44886061D01*
X54840825Y-45061097D01*
X54553797Y-45296655D01*
X54318239Y-45583683D01*
X54143203Y-45911153D01*
X54035417Y-46266477D01*
X54008142Y-46543404D01*
X52331214Y-46543404D01*
X52331214Y-45386000D01*
X52318954Y-45261518D01*
X52282644Y-45141820D01*
X52223679Y-45031506D01*
X52144327Y-44934815D01*
X52047636Y-44855463D01*
X51937322Y-44796498D01*
X51817624Y-44760188D01*
X51693142Y-44747928D01*
X49193142Y-44747928D01*
X49068660Y-44760188D01*
X48948962Y-44796498D01*
X48838648Y-44855463D01*
X48741957Y-44934815D01*
X48662605Y-45031506D01*
X48603640Y-45141820D01*
X48567330Y-45261518D01*
X48555070Y-45386000D01*
X20117184Y-45386000D01*
X20117017Y-44117010D01*
X275873000Y-44136989D01*
X275873000Y-44136989D01*
G37*
X275873000Y-44136989D02*
X275873000Y-119873000D01*
X20126983Y-119873000D01*
X20126139Y-113449750D01*
X56407000Y-113449750D01*
X56407000Y-114026542D01*
X56431403Y-114149223D01*
X56479270Y-114264785D01*
X56548763Y-114368789D01*
X56637211Y-114457237D01*
X56741215Y-114526730D01*
X56856777Y-114574597D01*
X56979458Y-114599000D01*
X57556250Y-114599000D01*
X57715000Y-114440250D01*
X57715000Y-113291000D01*
X57969000Y-113291000D01*
X57969000Y-114440250D01*
X58127750Y-114599000D01*
X58704542Y-114599000D01*
X58827223Y-114574597D01*
X58942785Y-114526730D01*
X59046789Y-114457237D01*
X59135237Y-114368789D01*
X59204730Y-114264785D01*
X59252597Y-114149223D01*
X59277000Y-114026542D01*
X59277000Y-113449750D01*
X59118250Y-113291000D01*
X57969000Y-113291000D01*
X57715000Y-113291000D01*
X56565750Y-113291000D01*
X56407000Y-113449750D01*
X20126139Y-113449750D01*
X20124890Y-103955750D01*
X34155000Y-103955750D01*
X34155000Y-105482542D01*
X34179403Y-105605223D01*
X34227270Y-105720785D01*
X34296763Y-105824789D01*
X34385211Y-105913237D01*
X34489215Y-105982730D01*
X34604777Y-106030597D01*
X34727458Y-106055000D01*
X36004250Y-106055000D01*
X36163000Y-105896250D01*
X36163000Y-103797000D01*
X36417000Y-103797000D01*
X36417000Y-105896250D01*
X36575750Y-106055000D01*
X37852542Y-106055000D01*
X37975223Y-106030597D01*
X38090785Y-105982730D01*
X38194789Y-105913237D01*
X38283237Y-105824789D01*
X38352730Y-105720785D01*
X38400597Y-105605223D01*
X38425000Y-105482542D01*
X38425000Y-103955750D01*
X38266250Y-103797000D01*
X36417000Y-103797000D01*
X36163000Y-103797000D01*
X34313750Y-103797000D01*
X34155000Y-103955750D01*
X20124890Y-103955750D01*
X20124614Y-101857458D01*
X34155000Y-101857458D01*
X34155000Y-103384250D01*
X34313750Y-103543000D01*
X36163000Y-103543000D01*
X36163000Y-101443750D01*
X36417000Y-101443750D01*
X36417000Y-103543000D01*
X38266250Y-103543000D01*
X38425000Y-103384250D01*
X38425000Y-101857458D01*
X38400597Y-101734777D01*
X38352730Y-101619215D01*
X38283237Y-101515211D01*
X38194789Y-101426763D01*
X38090785Y-101357270D01*
X37975223Y-101309403D01*
X37852542Y-101285000D01*
X36575750Y-101285000D01*
X36417000Y-101443750D01*
X36163000Y-101443750D01*
X36004250Y-101285000D01*
X34727458Y-101285000D01*
X34604777Y-101309403D01*
X34489215Y-101357270D01*
X34385211Y-101426763D01*
X34296763Y-101515211D01*
X34227270Y-101619215D01*
X34179403Y-101734777D01*
X34155000Y-101857458D01*
X20124614Y-101857458D01*
X20123162Y-90815750D01*
X35385000Y-90815750D01*
X35385000Y-91442542D01*
X35409403Y-91565223D01*
X35457270Y-91680785D01*
X35526763Y-91784789D01*
X35615211Y-91873237D01*
X35719215Y-91942730D01*
X35834777Y-91990597D01*
X35957458Y-92015000D01*
X36734250Y-92015000D01*
X36893000Y-91856250D01*
X36893000Y-90657000D01*
X35543750Y-90657000D01*
X35385000Y-90815750D01*
X20123162Y-90815750D01*
X20121587Y-78850000D01*
X32489509Y-78850000D01*
X32495001Y-78905761D01*
X32495000Y-84734248D01*
X32489509Y-84790000D01*
X32495000Y-84845751D01*
X32511423Y-85012498D01*
X32576324Y-85226446D01*
X32681716Y-85423623D01*
X32823551Y-85596449D01*
X32866865Y-85631996D01*
X35390155Y-88155286D01*
X35406487Y-88321111D01*
X35491401Y-88601034D01*
X35629294Y-88859014D01*
X35810282Y-89079549D01*
X35719215Y-89117270D01*
X35615211Y-89186763D01*
X35526763Y-89275211D01*
X35457270Y-89379215D01*
X35409403Y-89494777D01*
X35385000Y-89617458D01*
X35385000Y-90244250D01*
X35543750Y-90403000D01*
X36893000Y-90403000D01*
X36893000Y-90383000D01*
X37147000Y-90383000D01*
X37147000Y-90403000D01*
X37167000Y-90403000D01*
X37167000Y-90657000D01*
X37147000Y-90657000D01*
X37147000Y-91856250D01*
X37305750Y-92015000D01*
X38082542Y-92015000D01*
X38205223Y-91990597D01*
X38320785Y-91942730D01*
X38424789Y-91873237D01*
X38513237Y-91784789D01*
X38582730Y-91680785D01*
X38630597Y-91565223D01*
X38655000Y-91442542D01*
X38655000Y-91120131D01*
X41155001Y-93620133D01*
X41155000Y-101281928D01*
X40540000Y-101281928D01*
X40415518Y-101294188D01*
X40295820Y-101330498D01*
X40185506Y-101389463D01*
X40088815Y-101468815D01*
X40009463Y-101565506D01*
X39950498Y-101675820D01*
X39914188Y-101795518D01*
X39901928Y-101920000D01*
X39901928Y-105420000D01*
X39914188Y-105544482D01*
X39950498Y-105664180D01*
X40009463Y-105774494D01*
X40088815Y-105871185D01*
X40185506Y-105950537D01*
X40262131Y-105991494D01*
X40165000Y-105981928D01*
X38415000Y-105981928D01*
X38119814Y-106011001D01*
X37835972Y-106097104D01*
X37574382Y-106236927D01*
X37345097Y-106425097D01*
X37156927Y-106654382D01*
X37017104Y-106915972D01*
X36931001Y-107199814D01*
X36901928Y-107495000D01*
X36901928Y-109245000D01*
X36931001Y-109540186D01*
X37017104Y-109824028D01*
X37156927Y-110085618D01*
X37345097Y-110314903D01*
X37574382Y-110503073D01*
X37835972Y-110642896D01*
X38119814Y-110728999D01*
X38415000Y-110758072D01*
X40165000Y-110758072D01*
X40460186Y-110728999D01*
X40744028Y-110642896D01*
X41005618Y-110503073D01*
X41234903Y-110314903D01*
X41423073Y-110085618D01*
X41562896Y-109824028D01*
X41648999Y-109540186D01*
X41678072Y-109245000D01*
X41678072Y-107495000D01*
X41648999Y-107199814D01*
X41562896Y-106915972D01*
X41423073Y-106654382D01*
X41234903Y-106425097D01*
X41005618Y-106236927D01*
X40744028Y-106097104D01*
X40615357Y-106058072D01*
X44040000Y-106058072D01*
X44164482Y-106045812D01*
X44284180Y-106009502D01*
X44394494Y-105950537D01*
X44491185Y-105871185D01*
X44570537Y-105774494D01*
X44629502Y-105664180D01*
X44665812Y-105544482D01*
X44678072Y-105420000D01*
X44678072Y-104785000D01*
X51174249Y-104785000D01*
X51230000Y-104790491D01*
X51285751Y-104785000D01*
X51285752Y-104785000D01*
X51452499Y-104768577D01*
X51666447Y-104703676D01*
X51863623Y-104598284D01*
X52036449Y-104456449D01*
X52071996Y-104413135D01*
X54800132Y-101685000D01*
X62283869Y-101685000D01*
X62873000Y-102274132D01*
X62873000Y-102516111D01*
X62738000Y-102680609D01*
X62595963Y-102507537D01*
X62354234Y-102309155D01*
X62078448Y-102161745D01*
X61779203Y-102070970D01*
X61468000Y-102040319D01*
X61156796Y-102070970D01*
X60857551Y-102161745D01*
X60581765Y-102309155D01*
X60455905Y-102412446D01*
X60411037Y-102328506D01*
X60331685Y-102231815D01*
X60234994Y-102152463D01*
X60124680Y-102093498D01*
X60004982Y-102057188D01*
X59880500Y-102044928D01*
X57975500Y-102044928D01*
X57851018Y-102057188D01*
X57731320Y-102093498D01*
X57621006Y-102152463D01*
X57524315Y-102231815D01*
X57444963Y-102328506D01*
X57385998Y-102438820D01*
X57349688Y-102558518D01*
X57337428Y-102683000D01*
X57337428Y-104683000D01*
X57349688Y-104807482D01*
X57385998Y-104927180D01*
X57444963Y-105037494D01*
X57524315Y-105134185D01*
X57621006Y-105213537D01*
X57731320Y-105272502D01*
X57851018Y-105308812D01*
X57975500Y-105321072D01*
X59880500Y-105321072D01*
X60004982Y-105308812D01*
X60124680Y-105272502D01*
X60234994Y-105213537D01*
X60331685Y-105134185D01*
X60333001Y-105132582D01*
X60333000Y-107035868D01*
X58113898Y-109254971D01*
X57983335Y-109229000D01*
X57700665Y-109229000D01*
X57423426Y-109284147D01*
X57162273Y-109392320D01*
X56927241Y-109549363D01*
X56727363Y-109749241D01*
X56570320Y-109984273D01*
X56462147Y-110245426D01*
X56407000Y-110522665D01*
X56407000Y-110805335D01*
X56462147Y-111082574D01*
X56570320Y-111343727D01*
X56727363Y-111578759D01*
X56894503Y-111745899D01*
X56856777Y-111753403D01*
X56741215Y-111801270D01*
X56637211Y-111870763D01*
X56548763Y-111959211D01*
X56479270Y-112063215D01*
X56431403Y-112178777D01*
X56407000Y-112301458D01*
X56407000Y-112878250D01*
X56565750Y-113037000D01*
X57715000Y-113037000D01*
X57715000Y-113017000D01*
X57969000Y-113017000D01*
X57969000Y-113037000D01*
X59118250Y-113037000D01*
X59277000Y-112878250D01*
X59277000Y-112301458D01*
X59252597Y-112178777D01*
X59204730Y-112063215D01*
X59135237Y-111959211D01*
X59046789Y-111870763D01*
X58942785Y-111801270D01*
X58827223Y-111753403D01*
X58789497Y-111745899D01*
X58899563Y-111635833D01*
X58943622Y-111612283D01*
X59073143Y-111505988D01*
X60333001Y-110246131D01*
X60333001Y-111545754D01*
X60349424Y-111712501D01*
X60365000Y-111763848D01*
X60365001Y-115344239D01*
X60359509Y-115400000D01*
X60381423Y-115622498D01*
X60446324Y-115836446D01*
X60470365Y-115881423D01*
X60551717Y-116033623D01*
X60693552Y-116206449D01*
X60736860Y-116241991D01*
X62258013Y-117763146D01*
X62293551Y-117806449D01*
X62336854Y-117841987D01*
X62336856Y-117841989D01*
X62466377Y-117948284D01*
X62663553Y-118053676D01*
X62877501Y-118118577D01*
X63100000Y-118140491D01*
X63155752Y-118135000D01*
X153344249Y-118135000D01*
X153400000Y-118140491D01*
X153455751Y-118135000D01*
X153455752Y-118135000D01*
X153622499Y-118118577D01*
X153836447Y-118053676D01*
X154033623Y-117948284D01*
X154206449Y-117806449D01*
X154241996Y-117763135D01*
X156433141Y-115571991D01*
X156476449Y-115536449D01*
X156618284Y-115363623D01*
X156723676Y-115166447D01*
X156788577Y-114952499D01*
X156805000Y-114785752D01*
X156805000Y-114785751D01*
X156810491Y-114730000D01*
X156805000Y-114674248D01*
X156805000Y-109102817D01*
X156910706Y-108974014D01*
X156920000Y-108956626D01*
X156929294Y-108974014D01*
X157114866Y-109200134D01*
X157340987Y-109385706D01*
X157598967Y-109523599D01*
X157878890Y-109608513D01*
X158170000Y-109637185D01*
X158461111Y-109608513D01*
X158741034Y-109523599D01*
X158999014Y-109385706D01*
X159225134Y-109200134D01*
X159410706Y-108974014D01*
X159420000Y-108956626D01*
X159429294Y-108974014D01*
X159614866Y-109200134D01*
X159840987Y-109385706D01*
X160098967Y-109523599D01*
X160378890Y-109608513D01*
X160670000Y-109637185D01*
X160961111Y-109608513D01*
X161241034Y-109523599D01*
X161499014Y-109385706D01*
X161725134Y-109200134D01*
X161910706Y-108974014D01*
X161920000Y-108956626D01*
X161929294Y-108974014D01*
X162114866Y-109200134D01*
X162340987Y-109385706D01*
X162598967Y-109523599D01*
X162878890Y-109608513D01*
X163170000Y-109637185D01*
X163461111Y-109608513D01*
X163741034Y-109523599D01*
X163999014Y-109385706D01*
X164225134Y-109200134D01*
X164410706Y-108974014D01*
X164420000Y-108956626D01*
X164429294Y-108974014D01*
X164614866Y-109200134D01*
X164840987Y-109385706D01*
X165098967Y-109523599D01*
X165378890Y-109608513D01*
X165670000Y-109637185D01*
X165961111Y-109608513D01*
X166241034Y-109523599D01*
X166499014Y-109385706D01*
X166725134Y-109200134D01*
X166910706Y-108974014D01*
X166920000Y-108956626D01*
X166929294Y-108974014D01*
X167114866Y-109200134D01*
X167340987Y-109385706D01*
X167598967Y-109523599D01*
X167878890Y-109608513D01*
X168170000Y-109637185D01*
X168461111Y-109608513D01*
X168741034Y-109523599D01*
X168999014Y-109385706D01*
X169225134Y-109200134D01*
X169410706Y-108974014D01*
X169420000Y-108956626D01*
X169429294Y-108974014D01*
X169614866Y-109200134D01*
X169840987Y-109385706D01*
X170098967Y-109523599D01*
X170378890Y-109608513D01*
X170670000Y-109637185D01*
X170961111Y-109608513D01*
X171241034Y-109523599D01*
X171499014Y-109385706D01*
X171725134Y-109200134D01*
X171910706Y-108974014D01*
X171920000Y-108956626D01*
X171929294Y-108974014D01*
X172114866Y-109200134D01*
X172340987Y-109385706D01*
X172598967Y-109523599D01*
X172878890Y-109608513D01*
X173170000Y-109637185D01*
X173461111Y-109608513D01*
X173741034Y-109523599D01*
X173999014Y-109385706D01*
X174225134Y-109200134D01*
X174410706Y-108974014D01*
X174420000Y-108956626D01*
X174429294Y-108974014D01*
X174614866Y-109200134D01*
X174840987Y-109385706D01*
X175098967Y-109523599D01*
X175378890Y-109608513D01*
X175670000Y-109637185D01*
X175961111Y-109608513D01*
X176241034Y-109523599D01*
X176499014Y-109385706D01*
X176725134Y-109200134D01*
X176910706Y-108974014D01*
X176920000Y-108956626D01*
X176929294Y-108974014D01*
X177114866Y-109200134D01*
X177340987Y-109385706D01*
X177598967Y-109523599D01*
X177878890Y-109608513D01*
X178170000Y-109637185D01*
X178461111Y-109608513D01*
X178741034Y-109523599D01*
X178999014Y-109385706D01*
X179225134Y-109200134D01*
X179410706Y-108974014D01*
X179420000Y-108956626D01*
X179429294Y-108974014D01*
X179614866Y-109200134D01*
X179840987Y-109385706D01*
X180098967Y-109523599D01*
X180378890Y-109608513D01*
X180670000Y-109637185D01*
X180961111Y-109608513D01*
X181241034Y-109523599D01*
X181499014Y-109385706D01*
X181725134Y-109200134D01*
X181910706Y-108974014D01*
X181920000Y-108956626D01*
X181929294Y-108974014D01*
X182114866Y-109200134D01*
X182340987Y-109385706D01*
X182598967Y-109523599D01*
X182878890Y-109608513D01*
X183170000Y-109637185D01*
X183461111Y-109608513D01*
X183741034Y-109523599D01*
X183999014Y-109385706D01*
X184225134Y-109200134D01*
X184410706Y-108974014D01*
X184420000Y-108956626D01*
X184429294Y-108974014D01*
X184614866Y-109200134D01*
X184840987Y-109385706D01*
X185098967Y-109523599D01*
X185378890Y-109608513D01*
X185670000Y-109637185D01*
X185961111Y-109608513D01*
X186241034Y-109523599D01*
X186499014Y-109385706D01*
X186725134Y-109200134D01*
X186910706Y-108974014D01*
X187048599Y-108716033D01*
X187133513Y-108436110D01*
X187155000Y-108217949D01*
X187155000Y-107822050D01*
X187133513Y-107603889D01*
X187048599Y-107323966D01*
X186910706Y-107065986D01*
X186725134Y-106839866D01*
X186505000Y-106659207D01*
X186505000Y-89295750D01*
X191255000Y-89295750D01*
X191255000Y-89922542D01*
X191279403Y-90045223D01*
X191327270Y-90160785D01*
X191396763Y-90264789D01*
X191485211Y-90353237D01*
X191589215Y-90422730D01*
X191704777Y-90470597D01*
X191827458Y-90495000D01*
X192454250Y-90495000D01*
X192613000Y-90336250D01*
X192613000Y-89137000D01*
X192867000Y-89137000D01*
X192867000Y-90336250D01*
X193025750Y-90495000D01*
X193652542Y-90495000D01*
X193775223Y-90470597D01*
X193890785Y-90422730D01*
X193994789Y-90353237D01*
X194083237Y-90264789D01*
X194152730Y-90160785D01*
X194200597Y-90045223D01*
X194225000Y-89922542D01*
X194225000Y-89295750D01*
X194066250Y-89137000D01*
X192867000Y-89137000D01*
X192613000Y-89137000D01*
X191413750Y-89137000D01*
X191255000Y-89295750D01*
X186505000Y-89295750D01*
X186505000Y-77251018D01*
X186509040Y-77210000D01*
X186492918Y-77046311D01*
X186445172Y-76888913D01*
X186367636Y-76743854D01*
X186289439Y-76648570D01*
X186289437Y-76648568D01*
X186263291Y-76616709D01*
X186231433Y-76590564D01*
X182469446Y-72828579D01*
X182443291Y-72796709D01*
X182316146Y-72692364D01*
X182171087Y-72614828D01*
X182013689Y-72567082D01*
X181891019Y-72555000D01*
X181891018Y-72555000D01*
X181850000Y-72550960D01*
X181808982Y-72555000D01*
X173556544Y-72555000D01*
X173585000Y-72411939D01*
X173585000Y-72298061D01*
X190765000Y-72298061D01*
X190765000Y-72501939D01*
X190804774Y-72701898D01*
X190882795Y-72890256D01*
X190912821Y-72935192D01*
X190909719Y-72966685D01*
X190914000Y-73010154D01*
X190914001Y-75056521D01*
X190909719Y-75100000D01*
X190926805Y-75273490D01*
X190977412Y-75440313D01*
X191059590Y-75594059D01*
X191142468Y-75695046D01*
X191142471Y-75695049D01*
X191170184Y-75728817D01*
X191203951Y-75756529D01*
X191320668Y-75873246D01*
X191276487Y-76018889D01*
X191247815Y-76310000D01*
X191276487Y-76601111D01*
X191361401Y-76881034D01*
X191499294Y-77139014D01*
X191684866Y-77365134D01*
X191910986Y-77550706D01*
X191965791Y-77580000D01*
X191910986Y-77609294D01*
X191684866Y-77794866D01*
X191499294Y-78020986D01*
X191361401Y-78278966D01*
X191276487Y-78558889D01*
X191247815Y-78850000D01*
X191276487Y-79141111D01*
X191361401Y-79421034D01*
X191499294Y-79679014D01*
X191684866Y-79905134D01*
X191910986Y-80090706D01*
X191965791Y-80120000D01*
X191910986Y-80149294D01*
X191684866Y-80334866D01*
X191499294Y-80560986D01*
X191361401Y-80818966D01*
X191276487Y-81098889D01*
X191247815Y-81390000D01*
X191276487Y-81681111D01*
X191361401Y-81961034D01*
X191499294Y-82219014D01*
X191684866Y-82445134D01*
X191910986Y-82630706D01*
X191965791Y-82660000D01*
X191910986Y-82689294D01*
X191684866Y-82874866D01*
X191499294Y-83100986D01*
X191361401Y-83358966D01*
X191276487Y-83638889D01*
X191247815Y-83930000D01*
X191276487Y-84221111D01*
X191361401Y-84501034D01*
X191499294Y-84759014D01*
X191684866Y-84985134D01*
X191910986Y-85170706D01*
X191965791Y-85200000D01*
X191910986Y-85229294D01*
X191684866Y-85414866D01*
X191499294Y-85640986D01*
X191361401Y-85898966D01*
X191276487Y-86178889D01*
X191247815Y-86470000D01*
X191276487Y-86761111D01*
X191361401Y-87041034D01*
X191499294Y-87299014D01*
X191684866Y-87525134D01*
X191712553Y-87547856D01*
X191704777Y-87549403D01*
X191589215Y-87597270D01*
X191485211Y-87666763D01*
X191396763Y-87755211D01*
X191327270Y-87859215D01*
X191279403Y-87974777D01*
X191255000Y-88097458D01*
X191255000Y-88724250D01*
X191413750Y-88883000D01*
X192613000Y-88883000D01*
X192613000Y-88863000D01*
X192867000Y-88863000D01*
X192867000Y-88883000D01*
X194066250Y-88883000D01*
X194225000Y-88724250D01*
X194225000Y-88097458D01*
X194200597Y-87974777D01*
X194152730Y-87859215D01*
X194083237Y-87755211D01*
X193994789Y-87666763D01*
X193890785Y-87597270D01*
X193775223Y-87549403D01*
X193767447Y-87547856D01*
X193795134Y-87525134D01*
X193980706Y-87299014D01*
X194118599Y-87041034D01*
X194203513Y-86761111D01*
X194232185Y-86470000D01*
X194203513Y-86178889D01*
X194118599Y-85898966D01*
X193980706Y-85640986D01*
X193795134Y-85414866D01*
X193569014Y-85229294D01*
X193514209Y-85200000D01*
X193569014Y-85170706D01*
X193795134Y-84985134D01*
X193980706Y-84759014D01*
X194118599Y-84501034D01*
X194203513Y-84221111D01*
X194232185Y-83930000D01*
X194203513Y-83638889D01*
X194118599Y-83358966D01*
X193980706Y-83100986D01*
X193795134Y-82874866D01*
X193569014Y-82689294D01*
X193514209Y-82660000D01*
X193569014Y-82630706D01*
X193795134Y-82445134D01*
X193980706Y-82219014D01*
X194118599Y-81961034D01*
X194203513Y-81681111D01*
X194232185Y-81390000D01*
X194203513Y-81098889D01*
X194118599Y-80818966D01*
X193980706Y-80560986D01*
X193795134Y-80334866D01*
X193569014Y-80149294D01*
X193514209Y-80120000D01*
X193569014Y-80090706D01*
X193795134Y-79905134D01*
X193980706Y-79679014D01*
X194118599Y-79421034D01*
X194203513Y-79141111D01*
X194232185Y-78850000D01*
X194203513Y-78558889D01*
X194118599Y-78278966D01*
X193980706Y-78020986D01*
X193795134Y-77794866D01*
X193569014Y-77609294D01*
X193514209Y-77580000D01*
X193569014Y-77550706D01*
X193795134Y-77365134D01*
X193980706Y-77139014D01*
X194118599Y-76881034D01*
X194203513Y-76601111D01*
X194232185Y-76310000D01*
X194203513Y-76018889D01*
X194118599Y-75738966D01*
X193980706Y-75480986D01*
X193795134Y-75254866D01*
X193569014Y-75069294D01*
X193311034Y-74931401D01*
X193031111Y-74846487D01*
X192812950Y-74825000D01*
X192775578Y-74825000D01*
X192684000Y-74733422D01*
X192684000Y-73019315D01*
X192685000Y-73009162D01*
X192685000Y-73009152D01*
X192689281Y-72965686D01*
X192686394Y-72936369D01*
X192717205Y-72890256D01*
X192795226Y-72701898D01*
X192835000Y-72501939D01*
X192835000Y-72298061D01*
X192795226Y-72098102D01*
X192717205Y-71909744D01*
X192603937Y-71740226D01*
X192459774Y-71596063D01*
X192290256Y-71482795D01*
X192101898Y-71404774D01*
X191901939Y-71365000D01*
X191698061Y-71365000D01*
X191498102Y-71404774D01*
X191309744Y-71482795D01*
X191140226Y-71596063D01*
X190996063Y-71740226D01*
X190882795Y-71909744D01*
X190804774Y-72098102D01*
X190765000Y-72298061D01*
X173585000Y-72298061D01*
X173585000Y-72208061D01*
X173545226Y-72008102D01*
X173467205Y-71819744D01*
X173353937Y-71650226D01*
X173209774Y-71506063D01*
X173040256Y-71392795D01*
X172851898Y-71314774D01*
X172651939Y-71275000D01*
X172448061Y-71275000D01*
X172248102Y-71314774D01*
X172059744Y-71392795D01*
X171936715Y-71475000D01*
X169181051Y-71475000D01*
X169150101Y-71471201D01*
X169099007Y-71475000D01*
X169088981Y-71475000D01*
X169058097Y-71478042D01*
X168986074Y-71483397D01*
X168976355Y-71486093D01*
X168966311Y-71487082D01*
X168897172Y-71508055D01*
X168827577Y-71527358D01*
X168818569Y-71531899D01*
X168808913Y-71534828D01*
X168745205Y-71568881D01*
X168680702Y-71601396D01*
X168672751Y-71607608D01*
X168663854Y-71612364D01*
X168608020Y-71658186D01*
X168583572Y-71677288D01*
X168576315Y-71684205D01*
X168536709Y-71716709D01*
X168516927Y-71740814D01*
X166635000Y-73534652D01*
X166635000Y-72283285D01*
X166717205Y-72160256D01*
X166795226Y-71971898D01*
X166835000Y-71771939D01*
X166835000Y-71568061D01*
X166795226Y-71368102D01*
X166717205Y-71179744D01*
X166603937Y-71010226D01*
X166459774Y-70866063D01*
X166290256Y-70752795D01*
X166101898Y-70674774D01*
X165901939Y-70635000D01*
X165698061Y-70635000D01*
X165498102Y-70674774D01*
X165375000Y-70725765D01*
X165375000Y-70009061D01*
X176376000Y-70009061D01*
X176376000Y-70212939D01*
X176415774Y-70412898D01*
X176493795Y-70601256D01*
X176607063Y-70770774D01*
X176751226Y-70914937D01*
X176920744Y-71028205D01*
X177109102Y-71106226D01*
X177309061Y-71146000D01*
X177512939Y-71146000D01*
X177712898Y-71106226D01*
X177901256Y-71028205D01*
X178070774Y-70914937D01*
X178214937Y-70770774D01*
X178328205Y-70601256D01*
X178406226Y-70412898D01*
X178435093Y-70267775D01*
X179567869Y-69135000D01*
X251386715Y-69135000D01*
X251509744Y-69217205D01*
X251698102Y-69295226D01*
X251898061Y-69335000D01*
X252101939Y-69335000D01*
X252301898Y-69295226D01*
X252490256Y-69217205D01*
X252659774Y-69103937D01*
X252803937Y-68959774D01*
X252917205Y-68790256D01*
X252995226Y-68601898D01*
X253035000Y-68401939D01*
X253035000Y-68198061D01*
X252995226Y-67998102D01*
X252917205Y-67809744D01*
X252803937Y-67640226D01*
X252659774Y-67496063D01*
X252490256Y-67382795D01*
X252301898Y-67304774D01*
X252101939Y-67265000D01*
X251898061Y-67265000D01*
X251698102Y-67304774D01*
X251509744Y-67382795D01*
X251386715Y-67465000D01*
X179263018Y-67465000D01*
X179222000Y-67460960D01*
X179180982Y-67465000D01*
X179180981Y-67465000D01*
X179058311Y-67477082D01*
X178900913Y-67524828D01*
X178755854Y-67602364D01*
X178664810Y-67677082D01*
X178628709Y-67706709D01*
X178602563Y-67738568D01*
X177254225Y-69086907D01*
X177109102Y-69115774D01*
X176920744Y-69193795D01*
X176751226Y-69307063D01*
X176607063Y-69451226D01*
X176493795Y-69620744D01*
X176415774Y-69809102D01*
X176376000Y-70009061D01*
X165375000Y-70009061D01*
X165375000Y-65897295D01*
X165435226Y-65751898D01*
X165475000Y-65551939D01*
X165475000Y-65348061D01*
X165435226Y-65148102D01*
X165357205Y-64959744D01*
X165243937Y-64790226D01*
X165099774Y-64646063D01*
X164930256Y-64532795D01*
X164741898Y-64454774D01*
X164541939Y-64415000D01*
X164338061Y-64415000D01*
X164138102Y-64454774D01*
X163949744Y-64532795D01*
X163780226Y-64646063D01*
X163636063Y-64790226D01*
X163598762Y-64846052D01*
X163478773Y-64726063D01*
X163309255Y-64612795D01*
X163120897Y-64534774D01*
X162920938Y-64495000D01*
X162717060Y-64495000D01*
X162517101Y-64534774D01*
X162328743Y-64612795D01*
X162159225Y-64726063D01*
X162015062Y-64870226D01*
X161901794Y-65039744D01*
X161823773Y-65228102D01*
X161783999Y-65428061D01*
X161783999Y-65631939D01*
X161823773Y-65831898D01*
X161884000Y-65977298D01*
X161883999Y-80952705D01*
X161823773Y-81098102D01*
X161783999Y-81298061D01*
X161783999Y-81501939D01*
X161823773Y-81701898D01*
X161901794Y-81890256D01*
X162015062Y-82059774D01*
X162159225Y-82203937D01*
X162328743Y-82317205D01*
X162517101Y-82395226D01*
X162717060Y-82435000D01*
X162920938Y-82435000D01*
X163120897Y-82395226D01*
X163309255Y-82317205D01*
X163478773Y-82203937D01*
X163622794Y-82059916D01*
X163636063Y-82079774D01*
X163780226Y-82223937D01*
X163949744Y-82337205D01*
X164138102Y-82415226D01*
X164338061Y-82455000D01*
X164541939Y-82455000D01*
X164741898Y-82415226D01*
X164930256Y-82337205D01*
X164965000Y-82313990D01*
X164965001Y-106588007D01*
X164840986Y-106654294D01*
X164614866Y-106839866D01*
X164429294Y-107065987D01*
X164420000Y-107083374D01*
X164410706Y-107065986D01*
X164225134Y-106839866D01*
X164185000Y-106806929D01*
X164185000Y-88426586D01*
X164195226Y-88401898D01*
X164235000Y-88201939D01*
X164235000Y-87998061D01*
X164195226Y-87798102D01*
X164117205Y-87609744D01*
X164003937Y-87440226D01*
X163859774Y-87296063D01*
X163690256Y-87182795D01*
X163501898Y-87104774D01*
X163301939Y-87065000D01*
X163098061Y-87065000D01*
X162898102Y-87104774D01*
X162709744Y-87182795D01*
X162540226Y-87296063D01*
X162396063Y-87440226D01*
X162282795Y-87609744D01*
X162204774Y-87798102D01*
X162165000Y-87998061D01*
X162165000Y-88201939D01*
X162204774Y-88401898D01*
X162215000Y-88426586D01*
X162215001Y-106757687D01*
X162114866Y-106839866D01*
X161929294Y-107065987D01*
X161920000Y-107083374D01*
X161910706Y-107065986D01*
X161725134Y-106839866D01*
X161499013Y-106654294D01*
X161241033Y-106516401D01*
X160961110Y-106431487D01*
X160670000Y-106402815D01*
X160378889Y-106431487D01*
X160098966Y-106516401D01*
X159840986Y-106654294D01*
X159614866Y-106839866D01*
X159429294Y-107065987D01*
X159420000Y-107083374D01*
X159410706Y-107065986D01*
X159225134Y-106839866D01*
X158999013Y-106654294D01*
X158741033Y-106516401D01*
X158461110Y-106431487D01*
X158170000Y-106402815D01*
X157878889Y-106431487D01*
X157598966Y-106516401D01*
X157340986Y-106654294D01*
X157114866Y-106839866D01*
X156929294Y-107065987D01*
X156920000Y-107083374D01*
X156910706Y-107065986D01*
X156725134Y-106839866D01*
X156605000Y-106741275D01*
X156605000Y-105815931D01*
X156609524Y-105769999D01*
X156591471Y-105586707D01*
X156564771Y-105498689D01*
X156538007Y-105410460D01*
X156451186Y-105248028D01*
X156334344Y-105105656D01*
X156298666Y-105076376D01*
X153635000Y-102412711D01*
X153635000Y-85794061D01*
X155361000Y-85794061D01*
X155361000Y-85997939D01*
X155400774Y-86197898D01*
X155478795Y-86386256D01*
X155561000Y-86509285D01*
X155561001Y-92982714D01*
X155478795Y-93105744D01*
X155400774Y-93294102D01*
X155361000Y-93494061D01*
X155361000Y-93697939D01*
X155400774Y-93897898D01*
X155478795Y-94086256D01*
X155592063Y-94255774D01*
X155736226Y-94399937D01*
X155905744Y-94513205D01*
X156094102Y-94591226D01*
X156294061Y-94631000D01*
X156497939Y-94631000D01*
X156697898Y-94591226D01*
X156886256Y-94513205D01*
X157055774Y-94399937D01*
X157199937Y-94255774D01*
X157313205Y-94086256D01*
X157391226Y-93897898D01*
X157431000Y-93697939D01*
X157431000Y-93494061D01*
X157391226Y-93294102D01*
X157313205Y-93105744D01*
X157231000Y-92982715D01*
X157231000Y-86509285D01*
X157313205Y-86386256D01*
X157391226Y-86197898D01*
X157431000Y-85997939D01*
X157431000Y-85794061D01*
X157391226Y-85594102D01*
X157313205Y-85405744D01*
X157199937Y-85236226D01*
X157055774Y-85092063D01*
X156886256Y-84978795D01*
X156697898Y-84900774D01*
X156497939Y-84861000D01*
X156294061Y-84861000D01*
X156094102Y-84900774D01*
X155905744Y-84978795D01*
X155736226Y-85092063D01*
X155592063Y-85236226D01*
X155478795Y-85405744D01*
X155400774Y-85594102D01*
X155361000Y-85794061D01*
X153635000Y-85794061D01*
X153635000Y-68387289D01*
X157444858Y-64577431D01*
X157590256Y-64517205D01*
X157759774Y-64403937D01*
X157903937Y-64259774D01*
X158017205Y-64090256D01*
X158095226Y-63901898D01*
X158135000Y-63701939D01*
X158135000Y-63498061D01*
X158095226Y-63298102D01*
X158017205Y-63109744D01*
X157903937Y-62940226D01*
X157759774Y-62796063D01*
X157590256Y-62682795D01*
X157401898Y-62604774D01*
X157201939Y-62565000D01*
X156998061Y-62565000D01*
X156798102Y-62604774D01*
X156609744Y-62682795D01*
X156440226Y-62796063D01*
X156296063Y-62940226D01*
X156182795Y-63109744D01*
X156122569Y-63255142D01*
X152071341Y-67306370D01*
X152035656Y-67335656D01*
X151918814Y-67478029D01*
X151831993Y-67640461D01*
X151780642Y-67809744D01*
X151778529Y-67816709D01*
X151760476Y-68000000D01*
X151765000Y-68045932D01*
X151765001Y-102754058D01*
X151760476Y-102800000D01*
X151778529Y-102983291D01*
X151823978Y-103133116D01*
X151831994Y-103159540D01*
X151918815Y-103321972D01*
X152035657Y-103464344D01*
X152071336Y-103493625D01*
X154735000Y-106157290D01*
X154735000Y-106741274D01*
X154620451Y-106835282D01*
X154582730Y-106744215D01*
X154513237Y-106640211D01*
X154424789Y-106551763D01*
X154320785Y-106482270D01*
X154205223Y-106434403D01*
X154082542Y-106410000D01*
X153455750Y-106410000D01*
X153297000Y-106568750D01*
X153297000Y-107893000D01*
X153317000Y-107893000D01*
X153317000Y-108147000D01*
X153297000Y-108147000D01*
X153297000Y-109471250D01*
X153455750Y-109630000D01*
X154082542Y-109630000D01*
X154205223Y-109605597D01*
X154320785Y-109557730D01*
X154424789Y-109488237D01*
X154513237Y-109399789D01*
X154535001Y-109367217D01*
X154535000Y-114259868D01*
X152929869Y-115865000D01*
X63570133Y-115865000D01*
X62635000Y-114929869D01*
X62635000Y-113449750D01*
X64027000Y-113449750D01*
X64027000Y-114026542D01*
X64051403Y-114149223D01*
X64099270Y-114264785D01*
X64168763Y-114368789D01*
X64257211Y-114457237D01*
X64361215Y-114526730D01*
X64476777Y-114574597D01*
X64599458Y-114599000D01*
X65176250Y-114599000D01*
X65335000Y-114440250D01*
X65335000Y-113291000D01*
X65589000Y-113291000D01*
X65589000Y-114440250D01*
X65747750Y-114599000D01*
X66324542Y-114599000D01*
X66447223Y-114574597D01*
X66562785Y-114526730D01*
X66666789Y-114457237D01*
X66755237Y-114368789D01*
X66824730Y-114264785D01*
X66872597Y-114149223D01*
X66897000Y-114026542D01*
X66897000Y-113449750D01*
X66738250Y-113291000D01*
X65589000Y-113291000D01*
X65335000Y-113291000D01*
X64185750Y-113291000D01*
X64027000Y-113449750D01*
X62635000Y-113449750D01*
X62635000Y-111466250D01*
X62618577Y-111299503D01*
X62603000Y-111248153D01*
X62603000Y-107561743D01*
X62608490Y-107506001D01*
X62603000Y-107450259D01*
X62603000Y-104849888D01*
X62738000Y-104685391D01*
X62873001Y-104849889D01*
X62873000Y-107336248D01*
X62867509Y-107392000D01*
X62873000Y-107447751D01*
X62889423Y-107614498D01*
X62954324Y-107828446D01*
X63059716Y-108025623D01*
X63201551Y-108198449D01*
X63244864Y-108233995D01*
X64327000Y-109316133D01*
X64327000Y-109779716D01*
X64190320Y-109984273D01*
X64082147Y-110245426D01*
X64027000Y-110522665D01*
X64027000Y-110805335D01*
X64082147Y-111082574D01*
X64190320Y-111343727D01*
X64347363Y-111578759D01*
X64514503Y-111745899D01*
X64476777Y-111753403D01*
X64361215Y-111801270D01*
X64257211Y-111870763D01*
X64168763Y-111959211D01*
X64099270Y-112063215D01*
X64051403Y-112178777D01*
X64027000Y-112301458D01*
X64027000Y-112878250D01*
X64185750Y-113037000D01*
X65335000Y-113037000D01*
X65335000Y-113017000D01*
X65589000Y-113017000D01*
X65589000Y-113037000D01*
X66738250Y-113037000D01*
X66897000Y-112878250D01*
X66897000Y-112301458D01*
X66872597Y-112178777D01*
X66824730Y-112063215D01*
X66755237Y-111959211D01*
X66666789Y-111870763D01*
X66562785Y-111801270D01*
X66447223Y-111753403D01*
X66409497Y-111745899D01*
X66576637Y-111578759D01*
X66733680Y-111343727D01*
X66841853Y-111082574D01*
X66897000Y-110805335D01*
X66897000Y-110522665D01*
X66841853Y-110245426D01*
X66733680Y-109984273D01*
X66597000Y-109779716D01*
X66597000Y-108901752D01*
X66602491Y-108846000D01*
X66580577Y-108623501D01*
X66515676Y-108409553D01*
X66460193Y-108305750D01*
X151685000Y-108305750D01*
X151685000Y-109057542D01*
X151709403Y-109180223D01*
X151757270Y-109295785D01*
X151826763Y-109399789D01*
X151915211Y-109488237D01*
X152019215Y-109557730D01*
X152134777Y-109605597D01*
X152257458Y-109630000D01*
X152884250Y-109630000D01*
X153043000Y-109471250D01*
X153043000Y-108147000D01*
X151843750Y-108147000D01*
X151685000Y-108305750D01*
X66460193Y-108305750D01*
X66410284Y-108212377D01*
X66303989Y-108082856D01*
X66303987Y-108082854D01*
X66268449Y-108039551D01*
X66225146Y-108004013D01*
X65203590Y-106982458D01*
X151685000Y-106982458D01*
X151685000Y-107734250D01*
X151843750Y-107893000D01*
X153043000Y-107893000D01*
X153043000Y-106568750D01*
X152884250Y-106410000D01*
X152257458Y-106410000D01*
X152134777Y-106434403D01*
X152019215Y-106482270D01*
X151915211Y-106551763D01*
X151826763Y-106640211D01*
X151757270Y-106744215D01*
X151709403Y-106859777D01*
X151685000Y-106982458D01*
X65203590Y-106982458D01*
X65143000Y-106921869D01*
X65143000Y-104849888D01*
X65334345Y-104616734D01*
X65481755Y-104340948D01*
X65572530Y-104041703D01*
X65595500Y-103808485D01*
X65595500Y-103557514D01*
X65572530Y-103324296D01*
X65481755Y-103025051D01*
X65334345Y-102749265D01*
X65143000Y-102516112D01*
X65143000Y-102203421D01*
X76716895Y-90629527D01*
X76818508Y-90505710D01*
X76919258Y-90317221D01*
X76981300Y-90112698D01*
X77002248Y-89900001D01*
X76981300Y-89687304D01*
X76919258Y-89482780D01*
X76818508Y-89294291D01*
X76682922Y-89129078D01*
X76517709Y-88993492D01*
X76329220Y-88892742D01*
X76124696Y-88830700D01*
X75911999Y-88809752D01*
X75699302Y-88830700D01*
X75494779Y-88892742D01*
X75306290Y-88993492D01*
X75182473Y-89095105D01*
X64043355Y-100234224D01*
X63595996Y-99786865D01*
X63560449Y-99743551D01*
X63387623Y-99601716D01*
X63190447Y-99496324D01*
X62976499Y-99431423D01*
X62809752Y-99415000D01*
X62809751Y-99415000D01*
X62754000Y-99409509D01*
X62698249Y-99415000D01*
X54385751Y-99415000D01*
X54329999Y-99409509D01*
X54274248Y-99415000D01*
X54107501Y-99431423D01*
X53893553Y-99496324D01*
X53696377Y-99601716D01*
X53523551Y-99743551D01*
X53488009Y-99786859D01*
X50759869Y-102515000D01*
X44678072Y-102515000D01*
X44678072Y-101920000D01*
X44665812Y-101795518D01*
X44629502Y-101675820D01*
X44570537Y-101565506D01*
X44491185Y-101468815D01*
X44394494Y-101389463D01*
X44284180Y-101330498D01*
X44164482Y-101294188D01*
X44040000Y-101281928D01*
X43425000Y-101281928D01*
X43425000Y-93205741D01*
X43430490Y-93149999D01*
X43425000Y-93094257D01*
X43425000Y-93094248D01*
X43408577Y-92927501D01*
X43343676Y-92713553D01*
X43238284Y-92516377D01*
X43096449Y-92343551D01*
X43053141Y-92308009D01*
X38649845Y-87904714D01*
X38633513Y-87738889D01*
X38548599Y-87458966D01*
X38410706Y-87200986D01*
X38264637Y-87023000D01*
X59071461Y-87023000D01*
X59117510Y-87490542D01*
X59253887Y-87940116D01*
X59475351Y-88354446D01*
X59773391Y-88717609D01*
X60136554Y-89015649D01*
X60550884Y-89237113D01*
X61000458Y-89373490D01*
X61350843Y-89408000D01*
X61585157Y-89408000D01*
X61935542Y-89373490D01*
X62385116Y-89237113D01*
X62799446Y-89015649D01*
X63162609Y-88717609D01*
X63460649Y-88354446D01*
X63682113Y-87940116D01*
X63818490Y-87490542D01*
X63864539Y-87023000D01*
X63818490Y-86555458D01*
X63682113Y-86105884D01*
X63460649Y-85691554D01*
X63162609Y-85328391D01*
X62799446Y-85030351D01*
X62385116Y-84808887D01*
X61935542Y-84672510D01*
X61585157Y-84638000D01*
X61350843Y-84638000D01*
X61000458Y-84672510D01*
X60550884Y-84808887D01*
X60136554Y-85030351D01*
X59773391Y-85328391D01*
X59475351Y-85691554D01*
X59253887Y-86105884D01*
X59117510Y-86555458D01*
X59071461Y-87023000D01*
X38264637Y-87023000D01*
X38225134Y-86974866D01*
X37999014Y-86789294D01*
X37741034Y-86651401D01*
X37461111Y-86566487D01*
X37242950Y-86545000D01*
X36990132Y-86545000D01*
X34765000Y-84319869D01*
X34765000Y-84103061D01*
X146420000Y-84103061D01*
X146420000Y-84306939D01*
X146459774Y-84506898D01*
X146537795Y-84695256D01*
X146651063Y-84864774D01*
X146795226Y-85008937D01*
X146964744Y-85122205D01*
X147153102Y-85200226D01*
X147353061Y-85240000D01*
X147556939Y-85240000D01*
X147756898Y-85200226D01*
X147945256Y-85122205D01*
X148114774Y-85008937D01*
X148258937Y-84864774D01*
X148372205Y-84695256D01*
X148450226Y-84506898D01*
X148490000Y-84306939D01*
X148490000Y-84103061D01*
X148450226Y-83903102D01*
X148415000Y-83818060D01*
X148415000Y-71978061D01*
X149081000Y-71978061D01*
X149081000Y-72181939D01*
X149120774Y-72381898D01*
X149198795Y-72570256D01*
X149312063Y-72739774D01*
X149456226Y-72883937D01*
X149625744Y-72997205D01*
X149814102Y-73075226D01*
X150014061Y-73115000D01*
X150217939Y-73115000D01*
X150417898Y-73075226D01*
X150606256Y-72997205D01*
X150775774Y-72883937D01*
X150919937Y-72739774D01*
X151033205Y-72570256D01*
X151111226Y-72381898D01*
X151151000Y-72181939D01*
X151151000Y-71978061D01*
X151145000Y-71947897D01*
X151145000Y-61298061D01*
X163855000Y-61298061D01*
X163855000Y-61501939D01*
X163894774Y-61701898D01*
X163972795Y-61890256D01*
X164086063Y-62059774D01*
X164230226Y-62203937D01*
X164399744Y-62317205D01*
X164588102Y-62395226D01*
X164788061Y-62435000D01*
X164872783Y-62435000D01*
X164802795Y-62539744D01*
X164724774Y-62728102D01*
X164685000Y-62928061D01*
X164685000Y-63131939D01*
X164724774Y-63331898D01*
X164802795Y-63520256D01*
X164916063Y-63689774D01*
X165060226Y-63833937D01*
X165229744Y-63947205D01*
X165418102Y-64025226D01*
X165618061Y-64065000D01*
X165821939Y-64065000D01*
X166021898Y-64025226D01*
X166210256Y-63947205D01*
X166258454Y-63915000D01*
X234946531Y-63915000D01*
X234990000Y-63919281D01*
X235033469Y-63915000D01*
X235033477Y-63915000D01*
X235163490Y-63902195D01*
X235330313Y-63851589D01*
X235484059Y-63769411D01*
X235618817Y-63658817D01*
X235646534Y-63625044D01*
X244636579Y-54635000D01*
X249931546Y-54635000D01*
X249979744Y-54667205D01*
X250168102Y-54745226D01*
X250368061Y-54785000D01*
X250571939Y-54785000D01*
X250771898Y-54745226D01*
X250960256Y-54667205D01*
X251129774Y-54553937D01*
X251273937Y-54409774D01*
X251387205Y-54240256D01*
X251465226Y-54051898D01*
X251505000Y-53851939D01*
X251505000Y-53648061D01*
X251465226Y-53448102D01*
X251387205Y-53259744D01*
X251273937Y-53090226D01*
X251129774Y-52946063D01*
X250960256Y-52832795D01*
X250771898Y-52754774D01*
X250571939Y-52715000D01*
X250368061Y-52715000D01*
X250168102Y-52754774D01*
X249979744Y-52832795D01*
X249931546Y-52865000D01*
X244313469Y-52865000D01*
X244270000Y-52860719D01*
X244226531Y-52865000D01*
X244226523Y-52865000D01*
X244096510Y-52877805D01*
X243929687Y-52928411D01*
X243775941Y-53010589D01*
X243674953Y-53093468D01*
X243674951Y-53093470D01*
X243641183Y-53121183D01*
X243613470Y-53154951D01*
X234623422Y-62145000D01*
X223569074Y-62145000D01*
X223673075Y-62089411D01*
X223807833Y-61978817D01*
X223835550Y-61945044D01*
X235341942Y-50438652D01*
X235523493Y-50493725D01*
X235893016Y-50530120D01*
X236262540Y-50493725D01*
X236617864Y-50385939D01*
X236945333Y-50210903D01*
X237232361Y-49975345D01*
X237467919Y-49688317D01*
X237642955Y-49360848D01*
X237750741Y-49005524D01*
X237778016Y-48728597D01*
X237778016Y-46543404D01*
X239458016Y-46543404D01*
X239458017Y-48728597D01*
X239485292Y-49005524D01*
X239593078Y-49360848D01*
X239768114Y-49688317D01*
X240003672Y-49975345D01*
X240290700Y-50210903D01*
X240618169Y-50385939D01*
X240973493Y-50493725D01*
X241343016Y-50530120D01*
X241712540Y-50493725D01*
X242067864Y-50385939D01*
X242395333Y-50210903D01*
X242682361Y-49975345D01*
X242917919Y-49688317D01*
X243092955Y-49360848D01*
X243200741Y-49005524D01*
X243228016Y-48728597D01*
X243228016Y-46543403D01*
X243200741Y-46266476D01*
X243092955Y-45911152D01*
X242917919Y-45583683D01*
X242682361Y-45296655D01*
X242395333Y-45061097D01*
X242067863Y-44886061D01*
X241712539Y-44778275D01*
X241343016Y-44741880D01*
X240973492Y-44778275D01*
X240618168Y-44886061D01*
X240290699Y-45061097D01*
X240003671Y-45296655D01*
X239768113Y-45583683D01*
X239593077Y-45911153D01*
X239485291Y-46266477D01*
X239458016Y-46543404D01*
X237778016Y-46543404D01*
X237778016Y-46543403D01*
X237750741Y-46266476D01*
X237642955Y-45911152D01*
X237467919Y-45583683D01*
X237232361Y-45296655D01*
X236945333Y-45061097D01*
X236617863Y-44886061D01*
X236262539Y-44778275D01*
X235893016Y-44741880D01*
X235523492Y-44778275D01*
X235168168Y-44886061D01*
X234840699Y-45061097D01*
X234553671Y-45296655D01*
X234318113Y-45583683D01*
X234143077Y-45911153D01*
X234035291Y-46266477D01*
X234008016Y-46543404D01*
X234008017Y-48728597D01*
X234035292Y-49005524D01*
X234090364Y-49187073D01*
X222812438Y-60465000D01*
X165337295Y-60465000D01*
X165191898Y-60404774D01*
X164991939Y-60365000D01*
X164788061Y-60365000D01*
X164588102Y-60404774D01*
X164399744Y-60482795D01*
X164230226Y-60596063D01*
X164086063Y-60740226D01*
X163972795Y-60909744D01*
X163894774Y-61098102D01*
X163855000Y-61298061D01*
X151145000Y-61298061D01*
X151145000Y-58317295D01*
X151205226Y-58171898D01*
X151245000Y-57971939D01*
X151245000Y-57768061D01*
X151205226Y-57568102D01*
X151127205Y-57379744D01*
X151013937Y-57210226D01*
X150869774Y-57066063D01*
X150700256Y-56952795D01*
X150511898Y-56874774D01*
X150311939Y-56835000D01*
X150108061Y-56835000D01*
X149908102Y-56874774D01*
X149719744Y-56952795D01*
X149550226Y-57066063D01*
X149406063Y-57210226D01*
X149292795Y-57379744D01*
X149214774Y-57568102D01*
X149175000Y-57768061D01*
X149175000Y-57971939D01*
X149214774Y-58171898D01*
X149275000Y-58317295D01*
X149275001Y-71475693D01*
X149198795Y-71589744D01*
X149120774Y-71778102D01*
X149081000Y-71978061D01*
X148415000Y-71978061D01*
X148415000Y-59937295D01*
X148475226Y-59791898D01*
X148515000Y-59591939D01*
X148515000Y-59388061D01*
X148475226Y-59188102D01*
X148397205Y-58999744D01*
X148283937Y-58830226D01*
X148139774Y-58686063D01*
X147970256Y-58572795D01*
X147781898Y-58494774D01*
X147581939Y-58455000D01*
X147378061Y-58455000D01*
X147178102Y-58494774D01*
X146989744Y-58572795D01*
X146820226Y-58686063D01*
X146676063Y-58830226D01*
X146562795Y-58999744D01*
X146484774Y-59188102D01*
X146445000Y-59388061D01*
X146445000Y-59591939D01*
X146484774Y-59791898D01*
X146545000Y-59937295D01*
X146545001Y-83703959D01*
X146537795Y-83714744D01*
X146459774Y-83903102D01*
X146420000Y-84103061D01*
X34765000Y-84103061D01*
X34765000Y-80215750D01*
X35385000Y-80215750D01*
X35385000Y-80842542D01*
X35409403Y-80965223D01*
X35457270Y-81080785D01*
X35526763Y-81184789D01*
X35615211Y-81273237D01*
X35719215Y-81342730D01*
X35834777Y-81390597D01*
X35957458Y-81415000D01*
X36734250Y-81415000D01*
X36893000Y-81256250D01*
X36893000Y-80057000D01*
X37147000Y-80057000D01*
X37147000Y-81256250D01*
X37305750Y-81415000D01*
X38082542Y-81415000D01*
X38205223Y-81390597D01*
X38320785Y-81342730D01*
X38424789Y-81273237D01*
X38513237Y-81184789D01*
X38582730Y-81080785D01*
X38630597Y-80965223D01*
X38655000Y-80842542D01*
X38655000Y-80215750D01*
X38496250Y-80057000D01*
X37147000Y-80057000D01*
X36893000Y-80057000D01*
X35543750Y-80057000D01*
X35385000Y-80215750D01*
X34765000Y-80215750D01*
X34765000Y-79320131D01*
X35520132Y-78565000D01*
X35647782Y-78565000D01*
X35615211Y-78586763D01*
X35526763Y-78675211D01*
X35457270Y-78779215D01*
X35409403Y-78894777D01*
X35385000Y-79017458D01*
X35385000Y-79644250D01*
X35543750Y-79803000D01*
X36893000Y-79803000D01*
X36893000Y-79783000D01*
X37147000Y-79783000D01*
X37147000Y-79803000D01*
X38496250Y-79803000D01*
X38655000Y-79644250D01*
X38655000Y-79017458D01*
X38630597Y-78894777D01*
X38582730Y-78779215D01*
X38513237Y-78675211D01*
X38424789Y-78586763D01*
X38320785Y-78517270D01*
X38229718Y-78479549D01*
X38410706Y-78259014D01*
X38548599Y-78001034D01*
X38633513Y-77721111D01*
X38662185Y-77430000D01*
X38633513Y-77138889D01*
X38548599Y-76858966D01*
X38410706Y-76600986D01*
X38225134Y-76374866D01*
X37999014Y-76189294D01*
X37741034Y-76051401D01*
X37461111Y-75966487D01*
X37242950Y-75945000D01*
X36797050Y-75945000D01*
X36578889Y-75966487D01*
X36298966Y-76051401D01*
X36040986Y-76189294D01*
X35912183Y-76295000D01*
X35105741Y-76295000D01*
X35049999Y-76289510D01*
X34994257Y-76295000D01*
X34994248Y-76295000D01*
X34827501Y-76311423D01*
X34613553Y-76376324D01*
X34416377Y-76481716D01*
X34243551Y-76623551D01*
X34208008Y-76666860D01*
X32866860Y-78008009D01*
X32823552Y-78043551D01*
X32681717Y-78216377D01*
X32648263Y-78278966D01*
X32576324Y-78413554D01*
X32511423Y-78627502D01*
X32489509Y-78850000D01*
X20121587Y-78850000D01*
X20118666Y-56645209D01*
X51065000Y-56645209D01*
X51065000Y-56849087D01*
X51104774Y-57049046D01*
X51182795Y-57237404D01*
X51265000Y-57360433D01*
X51265001Y-64258972D01*
X51260960Y-64300000D01*
X51277082Y-64463688D01*
X51324828Y-64621086D01*
X51402364Y-64766145D01*
X51402365Y-64766146D01*
X51506710Y-64893291D01*
X51538574Y-64919441D01*
X55680563Y-69061432D01*
X55706709Y-69093291D01*
X55738568Y-69119437D01*
X55738570Y-69119439D01*
X55833854Y-69197636D01*
X55978913Y-69275172D01*
X56136311Y-69322918D01*
X56300000Y-69339040D01*
X56341018Y-69335000D01*
X66986715Y-69335000D01*
X67109744Y-69417205D01*
X67298102Y-69495226D01*
X67498061Y-69535000D01*
X67701939Y-69535000D01*
X67901898Y-69495226D01*
X68090256Y-69417205D01*
X68259774Y-69303937D01*
X68403937Y-69159774D01*
X68517205Y-68990256D01*
X68595226Y-68801898D01*
X68635000Y-68601939D01*
X68635000Y-68398061D01*
X68595226Y-68198102D01*
X68517205Y-68009744D01*
X68403937Y-67840226D01*
X68259774Y-67696063D01*
X68090256Y-67582795D01*
X67901898Y-67504774D01*
X67701939Y-67465000D01*
X67498061Y-67465000D01*
X67298102Y-67504774D01*
X67109744Y-67582795D01*
X66986715Y-67665000D01*
X56645869Y-67665000D01*
X54858930Y-65878061D01*
X121675000Y-65878061D01*
X121675000Y-66081939D01*
X121714774Y-66281898D01*
X121775000Y-66427296D01*
X121775001Y-69312703D01*
X121714774Y-69458102D01*
X121675000Y-69658061D01*
X121675000Y-69861939D01*
X121714774Y-70061898D01*
X121792795Y-70250256D01*
X121906063Y-70419774D01*
X122050226Y-70563937D01*
X122219744Y-70677205D01*
X122408102Y-70755226D01*
X122608061Y-70795000D01*
X122811939Y-70795000D01*
X123011898Y-70755226D01*
X123200256Y-70677205D01*
X123369774Y-70563937D01*
X123513937Y-70419774D01*
X123627205Y-70250256D01*
X123705226Y-70061898D01*
X123745000Y-69861939D01*
X123745000Y-69658061D01*
X123705226Y-69458102D01*
X123645000Y-69312705D01*
X123645000Y-66427295D01*
X123705226Y-66281898D01*
X123745000Y-66081939D01*
X123745000Y-65878061D01*
X123705226Y-65678102D01*
X123627205Y-65489744D01*
X123513937Y-65320226D01*
X123369774Y-65176063D01*
X123200256Y-65062795D01*
X123011898Y-64984774D01*
X122811939Y-64945000D01*
X122608061Y-64945000D01*
X122408102Y-64984774D01*
X122219744Y-65062795D01*
X122050226Y-65176063D01*
X121906063Y-65320226D01*
X121792795Y-65489744D01*
X121714774Y-65678102D01*
X121675000Y-65878061D01*
X54858930Y-65878061D01*
X52935000Y-63954133D01*
X52935000Y-61278061D01*
X117845000Y-61278061D01*
X117845000Y-61481939D01*
X117884774Y-61681898D01*
X117962795Y-61870256D01*
X118076063Y-62039774D01*
X118220226Y-62183937D01*
X118389744Y-62297205D01*
X118578102Y-62375226D01*
X118778061Y-62415000D01*
X118981939Y-62415000D01*
X119181898Y-62375226D01*
X119370256Y-62297205D01*
X119418454Y-62265000D01*
X144461546Y-62265000D01*
X144509744Y-62297205D01*
X144698102Y-62375226D01*
X144898061Y-62415000D01*
X145101939Y-62415000D01*
X145301898Y-62375226D01*
X145490256Y-62297205D01*
X145659774Y-62183937D01*
X145803937Y-62039774D01*
X145917205Y-61870256D01*
X145995226Y-61681898D01*
X146035000Y-61481939D01*
X146035000Y-61278061D01*
X145995226Y-61078102D01*
X145917205Y-60889744D01*
X145803937Y-60720226D01*
X145659774Y-60576063D01*
X145490256Y-60462795D01*
X145301898Y-60384774D01*
X145101939Y-60345000D01*
X144898061Y-60345000D01*
X144698102Y-60384774D01*
X144509744Y-60462795D01*
X144461546Y-60495000D01*
X119418454Y-60495000D01*
X119370256Y-60462795D01*
X119181898Y-60384774D01*
X118981939Y-60345000D01*
X118778061Y-60345000D01*
X118578102Y-60384774D01*
X118389744Y-60462795D01*
X118220226Y-60576063D01*
X118076063Y-60720226D01*
X117962795Y-60889744D01*
X117884774Y-61078102D01*
X117845000Y-61278061D01*
X52935000Y-61278061D01*
X52935000Y-57360433D01*
X53017205Y-57237404D01*
X53095226Y-57049046D01*
X53135000Y-56849087D01*
X53135000Y-56645209D01*
X53095226Y-56445250D01*
X53017205Y-56256892D01*
X52903937Y-56087374D01*
X52759774Y-55943211D01*
X52590256Y-55829943D01*
X52401898Y-55751922D01*
X52201939Y-55712148D01*
X51998061Y-55712148D01*
X51798102Y-55751922D01*
X51609744Y-55829943D01*
X51440226Y-55943211D01*
X51296063Y-56087374D01*
X51182795Y-56256892D01*
X51104774Y-56445250D01*
X51065000Y-56645209D01*
X20118666Y-56645209D01*
X20117184Y-45386000D01*
X48555070Y-45386000D01*
X48555070Y-49886000D01*
X48567330Y-50010482D01*
X48603640Y-50130180D01*
X48662605Y-50240494D01*
X48741957Y-50337185D01*
X48838648Y-50416537D01*
X48948962Y-50475502D01*
X49068660Y-50511812D01*
X49193142Y-50524072D01*
X51693142Y-50524072D01*
X51817624Y-50511812D01*
X51937322Y-50475502D01*
X52047636Y-50416537D01*
X52144327Y-50337185D01*
X52223679Y-50240494D01*
X52282644Y-50130180D01*
X52318954Y-50010482D01*
X52331214Y-49886000D01*
X52331214Y-46543404D01*
X54008142Y-46543404D01*
X54008143Y-48728597D01*
X54035418Y-49005524D01*
X54143204Y-49360848D01*
X54318240Y-49688317D01*
X54553798Y-49975345D01*
X54840826Y-50210903D01*
X55008142Y-50300335D01*
X55008142Y-51089673D01*
X55003861Y-51133142D01*
X55008142Y-51176611D01*
X55008142Y-51176618D01*
X55020947Y-51306631D01*
X55071553Y-51473454D01*
X55153731Y-51627200D01*
X55264325Y-51761959D01*
X55298098Y-51789676D01*
X60093470Y-56585049D01*
X60121183Y-56618817D01*
X60154951Y-56646530D01*
X60154953Y-56646532D01*
X60226452Y-56705210D01*
X60255941Y-56729411D01*
X60409687Y-56811589D01*
X60576510Y-56862195D01*
X60706523Y-56875000D01*
X60706533Y-56875000D01*
X60749999Y-56879281D01*
X60793465Y-56875000D01*
X144461546Y-56875000D01*
X144509744Y-56907205D01*
X144698102Y-56985226D01*
X144898061Y-57025000D01*
X145101939Y-57025000D01*
X145301898Y-56985226D01*
X145490256Y-56907205D01*
X145659774Y-56793937D01*
X145803937Y-56649774D01*
X145917205Y-56480256D01*
X145995226Y-56291898D01*
X146035000Y-56091939D01*
X146035000Y-55888061D01*
X145995226Y-55688102D01*
X145917205Y-55499744D01*
X145810581Y-55340170D01*
X145879774Y-55293937D01*
X146023937Y-55149774D01*
X146137205Y-54980256D01*
X146215226Y-54791898D01*
X146255000Y-54591939D01*
X146255000Y-54388061D01*
X146215226Y-54188102D01*
X146137205Y-53999744D01*
X146023937Y-53830226D01*
X145879774Y-53686063D01*
X145710256Y-53572795D01*
X145521898Y-53494774D01*
X145321939Y-53455000D01*
X145118061Y-53455000D01*
X144918102Y-53494774D01*
X144729744Y-53572795D01*
X144681330Y-53605144D01*
X71059940Y-53624808D01*
X71053520Y-53618388D01*
X70867624Y-53494176D01*
X70661067Y-53408617D01*
X70441788Y-53365000D01*
X70218212Y-53365000D01*
X69998933Y-53408617D01*
X69792376Y-53494176D01*
X69606480Y-53618388D01*
X69448388Y-53776480D01*
X69324176Y-53962376D01*
X69238617Y-54168933D01*
X69195000Y-54388212D01*
X69195000Y-54611788D01*
X69238617Y-54831067D01*
X69324176Y-55037624D01*
X69369195Y-55105000D01*
X61116579Y-55105000D01*
X56778142Y-50766564D01*
X56778142Y-50300336D01*
X56945459Y-50210903D01*
X57232487Y-49975345D01*
X57468045Y-49688317D01*
X57643081Y-49360848D01*
X57750867Y-49005524D01*
X57778142Y-48728597D01*
X57778142Y-46543404D01*
X59458142Y-46543404D01*
X59458143Y-48728597D01*
X59485418Y-49005524D01*
X59593204Y-49360848D01*
X59768240Y-49688317D01*
X60003798Y-49975345D01*
X60290826Y-50210903D01*
X60618295Y-50385939D01*
X60973619Y-50493725D01*
X61343142Y-50530120D01*
X61712666Y-50493725D01*
X62067990Y-50385939D01*
X62395459Y-50210903D01*
X62682487Y-49975345D01*
X62918045Y-49688317D01*
X63093081Y-49360848D01*
X63200867Y-49005524D01*
X63228142Y-48728597D01*
X63228142Y-46543403D01*
X63200867Y-46266476D01*
X63093081Y-45911152D01*
X62918045Y-45583683D01*
X62755811Y-45386000D01*
X108555028Y-45386000D01*
X108555028Y-49886000D01*
X108567288Y-50010482D01*
X108603598Y-50130180D01*
X108662563Y-50240494D01*
X108741915Y-50337185D01*
X108838606Y-50416537D01*
X108948920Y-50475502D01*
X109068618Y-50511812D01*
X109193100Y-50524072D01*
X111693100Y-50524072D01*
X111817582Y-50511812D01*
X111937280Y-50475502D01*
X112047594Y-50416537D01*
X112144285Y-50337185D01*
X112223637Y-50240494D01*
X112282602Y-50130180D01*
X112318912Y-50010482D01*
X112331172Y-49886000D01*
X112331172Y-46543404D01*
X114008100Y-46543404D01*
X114008101Y-48728597D01*
X114035376Y-49005524D01*
X114143162Y-49360848D01*
X114318198Y-49688317D01*
X114553756Y-49975345D01*
X114840784Y-50210903D01*
X115168253Y-50385939D01*
X115523577Y-50493725D01*
X115893100Y-50530120D01*
X116262624Y-50493725D01*
X116617948Y-50385939D01*
X116945417Y-50210903D01*
X117232445Y-49975345D01*
X117468003Y-49688317D01*
X117643039Y-49360848D01*
X117750825Y-49005524D01*
X117778100Y-48728597D01*
X117778100Y-46543404D01*
X119458100Y-46543404D01*
X119458101Y-48728597D01*
X119485376Y-49005524D01*
X119593162Y-49360848D01*
X119768198Y-49688317D01*
X120003756Y-49975345D01*
X120290784Y-50210903D01*
X120618253Y-50385939D01*
X120973577Y-50493725D01*
X121343100Y-50530120D01*
X121712624Y-50493725D01*
X122067948Y-50385939D01*
X122395417Y-50210903D01*
X122682445Y-49975345D01*
X122918003Y-49688317D01*
X123093039Y-49360848D01*
X123200825Y-49005524D01*
X123228100Y-48728597D01*
X123228100Y-46543403D01*
X123200825Y-46266476D01*
X123093039Y-45911152D01*
X122918003Y-45583683D01*
X122759052Y-45390000D01*
X168554986Y-45390000D01*
X168554986Y-49890000D01*
X168567246Y-50014482D01*
X168603556Y-50134180D01*
X168662521Y-50244494D01*
X168741873Y-50341185D01*
X168838564Y-50420537D01*
X168948878Y-50479502D01*
X169068576Y-50515812D01*
X169193058Y-50528072D01*
X171693058Y-50528072D01*
X171817540Y-50515812D01*
X171937238Y-50479502D01*
X172047552Y-50420537D01*
X172144243Y-50341185D01*
X172223595Y-50244494D01*
X172282560Y-50134180D01*
X172318870Y-50014482D01*
X172331130Y-49890000D01*
X172331130Y-46547404D01*
X174008058Y-46547404D01*
X174008059Y-48732597D01*
X174035334Y-49009524D01*
X174143120Y-49364848D01*
X174318156Y-49692317D01*
X174553714Y-49979345D01*
X174840742Y-50214903D01*
X175168211Y-50389939D01*
X175523535Y-50497725D01*
X175893058Y-50534120D01*
X176262582Y-50497725D01*
X176617906Y-50389939D01*
X176945375Y-50214903D01*
X177232403Y-49979345D01*
X177467961Y-49692317D01*
X177642997Y-49364848D01*
X177750783Y-49009524D01*
X177778058Y-48732597D01*
X177778058Y-46547404D01*
X179458058Y-46547404D01*
X179458059Y-48732597D01*
X179485334Y-49009524D01*
X179593120Y-49364848D01*
X179768156Y-49692317D01*
X180003714Y-49979345D01*
X180290742Y-50214903D01*
X180618211Y-50389939D01*
X180973535Y-50497725D01*
X181343058Y-50534120D01*
X181712582Y-50497725D01*
X182067906Y-50389939D01*
X182395375Y-50214903D01*
X182682403Y-49979345D01*
X182917961Y-49692317D01*
X183092997Y-49364848D01*
X183200783Y-49009524D01*
X183228058Y-48732597D01*
X183228058Y-46547403D01*
X183200783Y-46270476D01*
X183092997Y-45915152D01*
X182917961Y-45587683D01*
X182752444Y-45386000D01*
X228554944Y-45386000D01*
X228554944Y-49886000D01*
X228567204Y-50010482D01*
X228603514Y-50130180D01*
X228662479Y-50240494D01*
X228741831Y-50337185D01*
X228838522Y-50416537D01*
X228948836Y-50475502D01*
X229068534Y-50511812D01*
X229193016Y-50524072D01*
X231693016Y-50524072D01*
X231817498Y-50511812D01*
X231937196Y-50475502D01*
X232047510Y-50416537D01*
X232144201Y-50337185D01*
X232223553Y-50240494D01*
X232282518Y-50130180D01*
X232318828Y-50010482D01*
X232331088Y-49886000D01*
X232331088Y-45386000D01*
X232318828Y-45261518D01*
X232282518Y-45141820D01*
X232223553Y-45031506D01*
X232144201Y-44934815D01*
X232047510Y-44855463D01*
X231937196Y-44796498D01*
X231817498Y-44760188D01*
X231693016Y-44747928D01*
X229193016Y-44747928D01*
X229068534Y-44760188D01*
X228948836Y-44796498D01*
X228838522Y-44855463D01*
X228741831Y-44934815D01*
X228662479Y-45031506D01*
X228603514Y-45141820D01*
X228567204Y-45261518D01*
X228554944Y-45386000D01*
X182752444Y-45386000D01*
X182682403Y-45300655D01*
X182395375Y-45065097D01*
X182067905Y-44890061D01*
X181712581Y-44782275D01*
X181343058Y-44745880D01*
X180973534Y-44782275D01*
X180618210Y-44890061D01*
X180290741Y-45065097D01*
X180003713Y-45300655D01*
X179768155Y-45587683D01*
X179593119Y-45915153D01*
X179485333Y-46270477D01*
X179458058Y-46547404D01*
X177778058Y-46547404D01*
X177778058Y-46547403D01*
X177750783Y-46270476D01*
X177642997Y-45915152D01*
X177467961Y-45587683D01*
X177232403Y-45300655D01*
X176945375Y-45065097D01*
X176617905Y-44890061D01*
X176262581Y-44782275D01*
X175893058Y-44745880D01*
X175523534Y-44782275D01*
X175168210Y-44890061D01*
X174840741Y-45065097D01*
X174553713Y-45300655D01*
X174318155Y-45587683D01*
X174143119Y-45915153D01*
X174035333Y-46270477D01*
X174008058Y-46547404D01*
X172331130Y-46547404D01*
X172331130Y-45390000D01*
X172318870Y-45265518D01*
X172282560Y-45145820D01*
X172223595Y-45035506D01*
X172144243Y-44938815D01*
X172047552Y-44859463D01*
X171937238Y-44800498D01*
X171817540Y-44764188D01*
X171693058Y-44751928D01*
X169193058Y-44751928D01*
X169068576Y-44764188D01*
X168948878Y-44800498D01*
X168838564Y-44859463D01*
X168741873Y-44938815D01*
X168662521Y-45035506D01*
X168603556Y-45145820D01*
X168567246Y-45265518D01*
X168554986Y-45390000D01*
X122759052Y-45390000D01*
X122682445Y-45296655D01*
X122395417Y-45061097D01*
X122067947Y-44886061D01*
X121712623Y-44778275D01*
X121343100Y-44741880D01*
X120973576Y-44778275D01*
X120618252Y-44886061D01*
X120290783Y-45061097D01*
X120003755Y-45296655D01*
X119768197Y-45583683D01*
X119593161Y-45911153D01*
X119485375Y-46266477D01*
X119458100Y-46543404D01*
X117778100Y-46543404D01*
X117778100Y-46543403D01*
X117750825Y-46266476D01*
X117643039Y-45911152D01*
X117468003Y-45583683D01*
X117232445Y-45296655D01*
X116945417Y-45061097D01*
X116617947Y-44886061D01*
X116262623Y-44778275D01*
X115893100Y-44741880D01*
X115523576Y-44778275D01*
X115168252Y-44886061D01*
X114840783Y-45061097D01*
X114553755Y-45296655D01*
X114318197Y-45583683D01*
X114143161Y-45911153D01*
X114035375Y-46266477D01*
X114008100Y-46543404D01*
X112331172Y-46543404D01*
X112331172Y-45386000D01*
X112318912Y-45261518D01*
X112282602Y-45141820D01*
X112223637Y-45031506D01*
X112144285Y-44934815D01*
X112047594Y-44855463D01*
X111937280Y-44796498D01*
X111817582Y-44760188D01*
X111693100Y-44747928D01*
X109193100Y-44747928D01*
X109068618Y-44760188D01*
X108948920Y-44796498D01*
X108838606Y-44855463D01*
X108741915Y-44934815D01*
X108662563Y-45031506D01*
X108603598Y-45141820D01*
X108567288Y-45261518D01*
X108555028Y-45386000D01*
X62755811Y-45386000D01*
X62682487Y-45296655D01*
X62395459Y-45061097D01*
X62067989Y-44886061D01*
X61712665Y-44778275D01*
X61343142Y-44741880D01*
X60973618Y-44778275D01*
X60618294Y-44886061D01*
X60290825Y-45061097D01*
X60003797Y-45296655D01*
X59768239Y-45583683D01*
X59593203Y-45911153D01*
X59485417Y-46266477D01*
X59458142Y-46543404D01*
X57778142Y-46543404D01*
X57778142Y-46543403D01*
X57750867Y-46266476D01*
X57643081Y-45911152D01*
X57468045Y-45583683D01*
X57232487Y-45296655D01*
X56945459Y-45061097D01*
X56617989Y-44886061D01*
X56262665Y-44778275D01*
X55893142Y-44741880D01*
X55523618Y-44778275D01*
X55168294Y-44886061D01*
X54840825Y-45061097D01*
X54553797Y-45296655D01*
X54318239Y-45583683D01*
X54143203Y-45911153D01*
X54035417Y-46266477D01*
X54008142Y-46543404D01*
X52331214Y-46543404D01*
X52331214Y-45386000D01*
X52318954Y-45261518D01*
X52282644Y-45141820D01*
X52223679Y-45031506D01*
X52144327Y-44934815D01*
X52047636Y-44855463D01*
X51937322Y-44796498D01*
X51817624Y-44760188D01*
X51693142Y-44747928D01*
X49193142Y-44747928D01*
X49068660Y-44760188D01*
X48948962Y-44796498D01*
X48838648Y-44855463D01*
X48741957Y-44934815D01*
X48662605Y-45031506D01*
X48603640Y-45141820D01*
X48567330Y-45261518D01*
X48555070Y-45386000D01*
X20117184Y-45386000D01*
X20117017Y-44117010D01*
X275873000Y-44136989D01*
G04 #@! TD*
M02*
