G04 #@! TF.GenerationSoftware,KiCad,Pcbnew,(5.0.0)*
G04 #@! TF.CreationDate,2019-07-01T15:33:15-03:00*
G04 #@! TF.ProjectId,dc_load,64635F6C6F61642E6B696361645F7063,rev?*
G04 #@! TF.SameCoordinates,Original*
G04 #@! TF.FileFunction,Soldermask,Top*
G04 #@! TF.FilePolarity,Negative*
%FSLAX46Y46*%
G04 Gerber Fmt 4.6, Leading zero omitted, Abs format (unit mm)*
G04 Created by KiCad (PCBNEW (5.0.0)) date 07/01/19 15:33:15*
%MOMM*%
%LPD*%
G01*
G04 APERTURE LIST*
%ADD10C,0.100000*%
G04 APERTURE END LIST*
D10*
G36*
X66313000Y-114015000D02*
X64611000Y-114015000D01*
X64611000Y-112313000D01*
X66313000Y-112313000D01*
X66313000Y-114015000D01*
X66313000Y-114015000D01*
G37*
G36*
X58693000Y-114015000D02*
X56991000Y-114015000D01*
X56991000Y-112313000D01*
X58693000Y-112313000D01*
X58693000Y-114015000D01*
X58693000Y-114015000D01*
G37*
G36*
X58090228Y-109845703D02*
X58245100Y-109909853D01*
X58384481Y-110002985D01*
X58503015Y-110121519D01*
X58596147Y-110260900D01*
X58660297Y-110415772D01*
X58693000Y-110580184D01*
X58693000Y-110747816D01*
X58660297Y-110912228D01*
X58596147Y-111067100D01*
X58503015Y-111206481D01*
X58384481Y-111325015D01*
X58245100Y-111418147D01*
X58090228Y-111482297D01*
X57925816Y-111515000D01*
X57758184Y-111515000D01*
X57593772Y-111482297D01*
X57438900Y-111418147D01*
X57299519Y-111325015D01*
X57180985Y-111206481D01*
X57087853Y-111067100D01*
X57023703Y-110912228D01*
X56991000Y-110747816D01*
X56991000Y-110580184D01*
X57023703Y-110415772D01*
X57087853Y-110260900D01*
X57180985Y-110121519D01*
X57299519Y-110002985D01*
X57438900Y-109909853D01*
X57593772Y-109845703D01*
X57758184Y-109813000D01*
X57925816Y-109813000D01*
X58090228Y-109845703D01*
X58090228Y-109845703D01*
G37*
G36*
X65710228Y-109845703D02*
X65865100Y-109909853D01*
X66004481Y-110002985D01*
X66123015Y-110121519D01*
X66216147Y-110260900D01*
X66280297Y-110415772D01*
X66313000Y-110580184D01*
X66313000Y-110747816D01*
X66280297Y-110912228D01*
X66216147Y-111067100D01*
X66123015Y-111206481D01*
X66004481Y-111325015D01*
X65865100Y-111418147D01*
X65710228Y-111482297D01*
X65545816Y-111515000D01*
X65378184Y-111515000D01*
X65213772Y-111482297D01*
X65058900Y-111418147D01*
X64919519Y-111325015D01*
X64800985Y-111206481D01*
X64707853Y-111067100D01*
X64643703Y-110912228D01*
X64611000Y-110747816D01*
X64611000Y-110580184D01*
X64643703Y-110415772D01*
X64707853Y-110260900D01*
X64800985Y-110121519D01*
X64919519Y-110002985D01*
X65058900Y-109909853D01*
X65213772Y-109845703D01*
X65378184Y-109813000D01*
X65545816Y-109813000D01*
X65710228Y-109845703D01*
X65710228Y-109845703D01*
G37*
G36*
X40416366Y-106585695D02*
X40573458Y-106633348D01*
X40718230Y-106710731D01*
X40845128Y-106814872D01*
X40949269Y-106941770D01*
X41026652Y-107086542D01*
X41074305Y-107243634D01*
X41091000Y-107413140D01*
X41091000Y-109326860D01*
X41074305Y-109496366D01*
X41026652Y-109653458D01*
X40949269Y-109798230D01*
X40845128Y-109925128D01*
X40718230Y-110029269D01*
X40573458Y-110106652D01*
X40416366Y-110154305D01*
X40246860Y-110171000D01*
X38333140Y-110171000D01*
X38163634Y-110154305D01*
X38006542Y-110106652D01*
X37861770Y-110029269D01*
X37734872Y-109925128D01*
X37630731Y-109798230D01*
X37553348Y-109653458D01*
X37505695Y-109496366D01*
X37489000Y-109326860D01*
X37489000Y-107413140D01*
X37505695Y-107243634D01*
X37553348Y-107086542D01*
X37630731Y-106941770D01*
X37734872Y-106814872D01*
X37861770Y-106710731D01*
X38006542Y-106633348D01*
X38163634Y-106585695D01*
X38333140Y-106569000D01*
X40246860Y-106569000D01*
X40416366Y-106585695D01*
X40416366Y-106585695D01*
G37*
G36*
X163346626Y-107007037D02*
X163459852Y-107041384D01*
X163516466Y-107058557D01*
X163672989Y-107142221D01*
X163810186Y-107254814D01*
X163893448Y-107356271D01*
X163922778Y-107392009D01*
X163922779Y-107392011D01*
X164006443Y-107548533D01*
X164007277Y-107551282D01*
X164057963Y-107718373D01*
X164071000Y-107850742D01*
X164071000Y-108189257D01*
X164057963Y-108321626D01*
X164006443Y-108491466D01*
X163922778Y-108647991D01*
X163922777Y-108647992D01*
X163810186Y-108785186D01*
X163715251Y-108863096D01*
X163672991Y-108897778D01*
X163672989Y-108897779D01*
X163516467Y-108981443D01*
X163475734Y-108993799D01*
X163346627Y-109032963D01*
X163170000Y-109050359D01*
X162993374Y-109032963D01*
X162864267Y-108993799D01*
X162823534Y-108981443D01*
X162667012Y-108897779D01*
X162667010Y-108897778D01*
X162529816Y-108785186D01*
X162529812Y-108785183D01*
X162417222Y-108647992D01*
X162333557Y-108491467D01*
X162316384Y-108434853D01*
X162282037Y-108321627D01*
X162269000Y-108189258D01*
X162269000Y-107850743D01*
X162282037Y-107718374D01*
X162326576Y-107571548D01*
X162333557Y-107548534D01*
X162417221Y-107392011D01*
X162529814Y-107254814D01*
X162631271Y-107171552D01*
X162667009Y-107142222D01*
X162699427Y-107124894D01*
X162823533Y-107058557D01*
X162880147Y-107041384D01*
X162993373Y-107007037D01*
X163170000Y-106989641D01*
X163346626Y-107007037D01*
X163346626Y-107007037D01*
G37*
G36*
X155846626Y-107007037D02*
X155959852Y-107041384D01*
X156016466Y-107058557D01*
X156172989Y-107142221D01*
X156310186Y-107254814D01*
X156393448Y-107356271D01*
X156422778Y-107392009D01*
X156422779Y-107392011D01*
X156506443Y-107548533D01*
X156507277Y-107551282D01*
X156557963Y-107718373D01*
X156571000Y-107850742D01*
X156571000Y-108189257D01*
X156557963Y-108321626D01*
X156506443Y-108491466D01*
X156422778Y-108647991D01*
X156422777Y-108647992D01*
X156310186Y-108785186D01*
X156215251Y-108863096D01*
X156172991Y-108897778D01*
X156172989Y-108897779D01*
X156016467Y-108981443D01*
X155975734Y-108993799D01*
X155846627Y-109032963D01*
X155670000Y-109050359D01*
X155493374Y-109032963D01*
X155364267Y-108993799D01*
X155323534Y-108981443D01*
X155167012Y-108897779D01*
X155167010Y-108897778D01*
X155029816Y-108785186D01*
X155029812Y-108785183D01*
X154917222Y-108647992D01*
X154833557Y-108491467D01*
X154816384Y-108434853D01*
X154782037Y-108321627D01*
X154769000Y-108189258D01*
X154769000Y-107850743D01*
X154782037Y-107718374D01*
X154826576Y-107571548D01*
X154833557Y-107548534D01*
X154917221Y-107392011D01*
X155029814Y-107254814D01*
X155131271Y-107171552D01*
X155167009Y-107142222D01*
X155199427Y-107124894D01*
X155323533Y-107058557D01*
X155380147Y-107041384D01*
X155493373Y-107007037D01*
X155670000Y-106989641D01*
X155846626Y-107007037D01*
X155846626Y-107007037D01*
G37*
G36*
X158346626Y-107007037D02*
X158459852Y-107041384D01*
X158516466Y-107058557D01*
X158672989Y-107142221D01*
X158810186Y-107254814D01*
X158893448Y-107356271D01*
X158922778Y-107392009D01*
X158922779Y-107392011D01*
X159006443Y-107548533D01*
X159007277Y-107551282D01*
X159057963Y-107718373D01*
X159071000Y-107850742D01*
X159071000Y-108189257D01*
X159057963Y-108321626D01*
X159006443Y-108491466D01*
X158922778Y-108647991D01*
X158922777Y-108647992D01*
X158810186Y-108785186D01*
X158715251Y-108863096D01*
X158672991Y-108897778D01*
X158672989Y-108897779D01*
X158516467Y-108981443D01*
X158475734Y-108993799D01*
X158346627Y-109032963D01*
X158170000Y-109050359D01*
X157993374Y-109032963D01*
X157864267Y-108993799D01*
X157823534Y-108981443D01*
X157667012Y-108897779D01*
X157667010Y-108897778D01*
X157529816Y-108785186D01*
X157529812Y-108785183D01*
X157417222Y-108647992D01*
X157333557Y-108491467D01*
X157316384Y-108434853D01*
X157282037Y-108321627D01*
X157269000Y-108189258D01*
X157269000Y-107850743D01*
X157282037Y-107718374D01*
X157326576Y-107571548D01*
X157333557Y-107548534D01*
X157417221Y-107392011D01*
X157529814Y-107254814D01*
X157631271Y-107171552D01*
X157667009Y-107142222D01*
X157699427Y-107124894D01*
X157823533Y-107058557D01*
X157880147Y-107041384D01*
X157993373Y-107007037D01*
X158170000Y-106989641D01*
X158346626Y-107007037D01*
X158346626Y-107007037D01*
G37*
G36*
X160846626Y-107007037D02*
X160959852Y-107041384D01*
X161016466Y-107058557D01*
X161172989Y-107142221D01*
X161310186Y-107254814D01*
X161393448Y-107356271D01*
X161422778Y-107392009D01*
X161422779Y-107392011D01*
X161506443Y-107548533D01*
X161507277Y-107551282D01*
X161557963Y-107718373D01*
X161571000Y-107850742D01*
X161571000Y-108189257D01*
X161557963Y-108321626D01*
X161506443Y-108491466D01*
X161422778Y-108647991D01*
X161422777Y-108647992D01*
X161310186Y-108785186D01*
X161215251Y-108863096D01*
X161172991Y-108897778D01*
X161172989Y-108897779D01*
X161016467Y-108981443D01*
X160975734Y-108993799D01*
X160846627Y-109032963D01*
X160670000Y-109050359D01*
X160493374Y-109032963D01*
X160364267Y-108993799D01*
X160323534Y-108981443D01*
X160167012Y-108897779D01*
X160167010Y-108897778D01*
X160029816Y-108785186D01*
X160029812Y-108785183D01*
X159917222Y-108647992D01*
X159833557Y-108491467D01*
X159816384Y-108434853D01*
X159782037Y-108321627D01*
X159769000Y-108189258D01*
X159769000Y-107850743D01*
X159782037Y-107718374D01*
X159826576Y-107571548D01*
X159833557Y-107548534D01*
X159917221Y-107392011D01*
X160029814Y-107254814D01*
X160131271Y-107171552D01*
X160167009Y-107142222D01*
X160199427Y-107124894D01*
X160323533Y-107058557D01*
X160380147Y-107041384D01*
X160493373Y-107007037D01*
X160670000Y-106989641D01*
X160846626Y-107007037D01*
X160846626Y-107007037D01*
G37*
G36*
X165846626Y-107007037D02*
X165959852Y-107041384D01*
X166016466Y-107058557D01*
X166172989Y-107142221D01*
X166310186Y-107254814D01*
X166393448Y-107356271D01*
X166422778Y-107392009D01*
X166422779Y-107392011D01*
X166506443Y-107548533D01*
X166507277Y-107551282D01*
X166557963Y-107718373D01*
X166571000Y-107850742D01*
X166571000Y-108189257D01*
X166557963Y-108321626D01*
X166506443Y-108491466D01*
X166422778Y-108647991D01*
X166422777Y-108647992D01*
X166310186Y-108785186D01*
X166215251Y-108863096D01*
X166172991Y-108897778D01*
X166172989Y-108897779D01*
X166016467Y-108981443D01*
X165975734Y-108993799D01*
X165846627Y-109032963D01*
X165670000Y-109050359D01*
X165493374Y-109032963D01*
X165364267Y-108993799D01*
X165323534Y-108981443D01*
X165167012Y-108897779D01*
X165167010Y-108897778D01*
X165029816Y-108785186D01*
X165029812Y-108785183D01*
X164917222Y-108647992D01*
X164833557Y-108491467D01*
X164816384Y-108434853D01*
X164782037Y-108321627D01*
X164769000Y-108189258D01*
X164769000Y-107850743D01*
X164782037Y-107718374D01*
X164826576Y-107571548D01*
X164833557Y-107548534D01*
X164917221Y-107392011D01*
X165029814Y-107254814D01*
X165131271Y-107171552D01*
X165167009Y-107142222D01*
X165199427Y-107124894D01*
X165323533Y-107058557D01*
X165380147Y-107041384D01*
X165493373Y-107007037D01*
X165670000Y-106989641D01*
X165846626Y-107007037D01*
X165846626Y-107007037D01*
G37*
G36*
X170846626Y-107007037D02*
X170959852Y-107041384D01*
X171016466Y-107058557D01*
X171172989Y-107142221D01*
X171310186Y-107254814D01*
X171393448Y-107356271D01*
X171422778Y-107392009D01*
X171422779Y-107392011D01*
X171506443Y-107548533D01*
X171507277Y-107551282D01*
X171557963Y-107718373D01*
X171571000Y-107850742D01*
X171571000Y-108189257D01*
X171557963Y-108321626D01*
X171506443Y-108491466D01*
X171422778Y-108647991D01*
X171422777Y-108647992D01*
X171310186Y-108785186D01*
X171215251Y-108863096D01*
X171172991Y-108897778D01*
X171172989Y-108897779D01*
X171016467Y-108981443D01*
X170975734Y-108993799D01*
X170846627Y-109032963D01*
X170670000Y-109050359D01*
X170493374Y-109032963D01*
X170364267Y-108993799D01*
X170323534Y-108981443D01*
X170167012Y-108897779D01*
X170167010Y-108897778D01*
X170029816Y-108785186D01*
X170029812Y-108785183D01*
X169917222Y-108647992D01*
X169833557Y-108491467D01*
X169816384Y-108434853D01*
X169782037Y-108321627D01*
X169769000Y-108189258D01*
X169769000Y-107850743D01*
X169782037Y-107718374D01*
X169826576Y-107571548D01*
X169833557Y-107548534D01*
X169917221Y-107392011D01*
X170029814Y-107254814D01*
X170131271Y-107171552D01*
X170167009Y-107142222D01*
X170199427Y-107124894D01*
X170323533Y-107058557D01*
X170380147Y-107041384D01*
X170493373Y-107007037D01*
X170670000Y-106989641D01*
X170846626Y-107007037D01*
X170846626Y-107007037D01*
G37*
G36*
X173346626Y-107007037D02*
X173459852Y-107041384D01*
X173516466Y-107058557D01*
X173672989Y-107142221D01*
X173810186Y-107254814D01*
X173893448Y-107356271D01*
X173922778Y-107392009D01*
X173922779Y-107392011D01*
X174006443Y-107548533D01*
X174007277Y-107551282D01*
X174057963Y-107718373D01*
X174071000Y-107850742D01*
X174071000Y-108189257D01*
X174057963Y-108321626D01*
X174006443Y-108491466D01*
X173922778Y-108647991D01*
X173922777Y-108647992D01*
X173810186Y-108785186D01*
X173715251Y-108863096D01*
X173672991Y-108897778D01*
X173672989Y-108897779D01*
X173516467Y-108981443D01*
X173475734Y-108993799D01*
X173346627Y-109032963D01*
X173170000Y-109050359D01*
X172993374Y-109032963D01*
X172864267Y-108993799D01*
X172823534Y-108981443D01*
X172667012Y-108897779D01*
X172667010Y-108897778D01*
X172529816Y-108785186D01*
X172529812Y-108785183D01*
X172417222Y-108647992D01*
X172333557Y-108491467D01*
X172316384Y-108434853D01*
X172282037Y-108321627D01*
X172269000Y-108189258D01*
X172269000Y-107850743D01*
X172282037Y-107718374D01*
X172326576Y-107571548D01*
X172333557Y-107548534D01*
X172417221Y-107392011D01*
X172529814Y-107254814D01*
X172631271Y-107171552D01*
X172667009Y-107142222D01*
X172699427Y-107124894D01*
X172823533Y-107058557D01*
X172880147Y-107041384D01*
X172993373Y-107007037D01*
X173170000Y-106989641D01*
X173346626Y-107007037D01*
X173346626Y-107007037D01*
G37*
G36*
X175846626Y-107007037D02*
X175959852Y-107041384D01*
X176016466Y-107058557D01*
X176172989Y-107142221D01*
X176310186Y-107254814D01*
X176393448Y-107356271D01*
X176422778Y-107392009D01*
X176422779Y-107392011D01*
X176506443Y-107548533D01*
X176507277Y-107551282D01*
X176557963Y-107718373D01*
X176571000Y-107850742D01*
X176571000Y-108189257D01*
X176557963Y-108321626D01*
X176506443Y-108491466D01*
X176422778Y-108647991D01*
X176422777Y-108647992D01*
X176310186Y-108785186D01*
X176215251Y-108863096D01*
X176172991Y-108897778D01*
X176172989Y-108897779D01*
X176016467Y-108981443D01*
X175975734Y-108993799D01*
X175846627Y-109032963D01*
X175670000Y-109050359D01*
X175493374Y-109032963D01*
X175364267Y-108993799D01*
X175323534Y-108981443D01*
X175167012Y-108897779D01*
X175167010Y-108897778D01*
X175029816Y-108785186D01*
X175029812Y-108785183D01*
X174917222Y-108647992D01*
X174833557Y-108491467D01*
X174816384Y-108434853D01*
X174782037Y-108321627D01*
X174769000Y-108189258D01*
X174769000Y-107850743D01*
X174782037Y-107718374D01*
X174826576Y-107571548D01*
X174833557Y-107548534D01*
X174917221Y-107392011D01*
X175029814Y-107254814D01*
X175131271Y-107171552D01*
X175167009Y-107142222D01*
X175199427Y-107124894D01*
X175323533Y-107058557D01*
X175380147Y-107041384D01*
X175493373Y-107007037D01*
X175670000Y-106989641D01*
X175846626Y-107007037D01*
X175846626Y-107007037D01*
G37*
G36*
X178346626Y-107007037D02*
X178459852Y-107041384D01*
X178516466Y-107058557D01*
X178672989Y-107142221D01*
X178810186Y-107254814D01*
X178893448Y-107356271D01*
X178922778Y-107392009D01*
X178922779Y-107392011D01*
X179006443Y-107548533D01*
X179007277Y-107551282D01*
X179057963Y-107718373D01*
X179071000Y-107850742D01*
X179071000Y-108189257D01*
X179057963Y-108321626D01*
X179006443Y-108491466D01*
X178922778Y-108647991D01*
X178922777Y-108647992D01*
X178810186Y-108785186D01*
X178715251Y-108863096D01*
X178672991Y-108897778D01*
X178672989Y-108897779D01*
X178516467Y-108981443D01*
X178475734Y-108993799D01*
X178346627Y-109032963D01*
X178170000Y-109050359D01*
X177993374Y-109032963D01*
X177864267Y-108993799D01*
X177823534Y-108981443D01*
X177667012Y-108897779D01*
X177667010Y-108897778D01*
X177529816Y-108785186D01*
X177529812Y-108785183D01*
X177417222Y-108647992D01*
X177333557Y-108491467D01*
X177316384Y-108434853D01*
X177282037Y-108321627D01*
X177269000Y-108189258D01*
X177269000Y-107850743D01*
X177282037Y-107718374D01*
X177326576Y-107571548D01*
X177333557Y-107548534D01*
X177417221Y-107392011D01*
X177529814Y-107254814D01*
X177631271Y-107171552D01*
X177667009Y-107142222D01*
X177699427Y-107124894D01*
X177823533Y-107058557D01*
X177880147Y-107041384D01*
X177993373Y-107007037D01*
X178170000Y-106989641D01*
X178346626Y-107007037D01*
X178346626Y-107007037D01*
G37*
G36*
X180846626Y-107007037D02*
X180959852Y-107041384D01*
X181016466Y-107058557D01*
X181172989Y-107142221D01*
X181310186Y-107254814D01*
X181393448Y-107356271D01*
X181422778Y-107392009D01*
X181422779Y-107392011D01*
X181506443Y-107548533D01*
X181507277Y-107551282D01*
X181557963Y-107718373D01*
X181571000Y-107850742D01*
X181571000Y-108189257D01*
X181557963Y-108321626D01*
X181506443Y-108491466D01*
X181422778Y-108647991D01*
X181422777Y-108647992D01*
X181310186Y-108785186D01*
X181215251Y-108863096D01*
X181172991Y-108897778D01*
X181172989Y-108897779D01*
X181016467Y-108981443D01*
X180975734Y-108993799D01*
X180846627Y-109032963D01*
X180670000Y-109050359D01*
X180493374Y-109032963D01*
X180364267Y-108993799D01*
X180323534Y-108981443D01*
X180167012Y-108897779D01*
X180167010Y-108897778D01*
X180029816Y-108785186D01*
X180029812Y-108785183D01*
X179917222Y-108647992D01*
X179833557Y-108491467D01*
X179816384Y-108434853D01*
X179782037Y-108321627D01*
X179769000Y-108189258D01*
X179769000Y-107850743D01*
X179782037Y-107718374D01*
X179826576Y-107571548D01*
X179833557Y-107548534D01*
X179917221Y-107392011D01*
X180029814Y-107254814D01*
X180131271Y-107171552D01*
X180167009Y-107142222D01*
X180199427Y-107124894D01*
X180323533Y-107058557D01*
X180380147Y-107041384D01*
X180493373Y-107007037D01*
X180670000Y-106989641D01*
X180846626Y-107007037D01*
X180846626Y-107007037D01*
G37*
G36*
X183346626Y-107007037D02*
X183459852Y-107041384D01*
X183516466Y-107058557D01*
X183672989Y-107142221D01*
X183810186Y-107254814D01*
X183893448Y-107356271D01*
X183922778Y-107392009D01*
X183922779Y-107392011D01*
X184006443Y-107548533D01*
X184007277Y-107551282D01*
X184057963Y-107718373D01*
X184071000Y-107850742D01*
X184071000Y-108189257D01*
X184057963Y-108321626D01*
X184006443Y-108491466D01*
X183922778Y-108647991D01*
X183922777Y-108647992D01*
X183810186Y-108785186D01*
X183715251Y-108863096D01*
X183672991Y-108897778D01*
X183672989Y-108897779D01*
X183516467Y-108981443D01*
X183475734Y-108993799D01*
X183346627Y-109032963D01*
X183170000Y-109050359D01*
X182993374Y-109032963D01*
X182864267Y-108993799D01*
X182823534Y-108981443D01*
X182667012Y-108897779D01*
X182667010Y-108897778D01*
X182529816Y-108785186D01*
X182529812Y-108785183D01*
X182417222Y-108647992D01*
X182333557Y-108491467D01*
X182316384Y-108434853D01*
X182282037Y-108321627D01*
X182269000Y-108189258D01*
X182269000Y-107850743D01*
X182282037Y-107718374D01*
X182326576Y-107571548D01*
X182333557Y-107548534D01*
X182417221Y-107392011D01*
X182529814Y-107254814D01*
X182631271Y-107171552D01*
X182667009Y-107142222D01*
X182699427Y-107124894D01*
X182823533Y-107058557D01*
X182880147Y-107041384D01*
X182993373Y-107007037D01*
X183170000Y-106989641D01*
X183346626Y-107007037D01*
X183346626Y-107007037D01*
G37*
G36*
X168346626Y-107007037D02*
X168459852Y-107041384D01*
X168516466Y-107058557D01*
X168672989Y-107142221D01*
X168810186Y-107254814D01*
X168893448Y-107356271D01*
X168922778Y-107392009D01*
X168922779Y-107392011D01*
X169006443Y-107548533D01*
X169007277Y-107551282D01*
X169057963Y-107718373D01*
X169071000Y-107850742D01*
X169071000Y-108189257D01*
X169057963Y-108321626D01*
X169006443Y-108491466D01*
X168922778Y-108647991D01*
X168922777Y-108647992D01*
X168810186Y-108785186D01*
X168715251Y-108863096D01*
X168672991Y-108897778D01*
X168672989Y-108897779D01*
X168516467Y-108981443D01*
X168475734Y-108993799D01*
X168346627Y-109032963D01*
X168170000Y-109050359D01*
X167993374Y-109032963D01*
X167864267Y-108993799D01*
X167823534Y-108981443D01*
X167667012Y-108897779D01*
X167667010Y-108897778D01*
X167529816Y-108785186D01*
X167529812Y-108785183D01*
X167417222Y-108647992D01*
X167333557Y-108491467D01*
X167316384Y-108434853D01*
X167282037Y-108321627D01*
X167269000Y-108189258D01*
X167269000Y-107850743D01*
X167282037Y-107718374D01*
X167326576Y-107571548D01*
X167333557Y-107548534D01*
X167417221Y-107392011D01*
X167529814Y-107254814D01*
X167631271Y-107171552D01*
X167667009Y-107142222D01*
X167699427Y-107124894D01*
X167823533Y-107058557D01*
X167880147Y-107041384D01*
X167993373Y-107007037D01*
X168170000Y-106989641D01*
X168346626Y-107007037D01*
X168346626Y-107007037D01*
G37*
G36*
X185846626Y-107007037D02*
X185959852Y-107041384D01*
X186016466Y-107058557D01*
X186172989Y-107142221D01*
X186310186Y-107254814D01*
X186393448Y-107356271D01*
X186422778Y-107392009D01*
X186422779Y-107392011D01*
X186506443Y-107548533D01*
X186507277Y-107551282D01*
X186557963Y-107718373D01*
X186571000Y-107850742D01*
X186571000Y-108189257D01*
X186557963Y-108321626D01*
X186506443Y-108491466D01*
X186422778Y-108647991D01*
X186422777Y-108647992D01*
X186310186Y-108785186D01*
X186215251Y-108863096D01*
X186172991Y-108897778D01*
X186172989Y-108897779D01*
X186016467Y-108981443D01*
X185975734Y-108993799D01*
X185846627Y-109032963D01*
X185670000Y-109050359D01*
X185493374Y-109032963D01*
X185364267Y-108993799D01*
X185323534Y-108981443D01*
X185167012Y-108897779D01*
X185167010Y-108897778D01*
X185029816Y-108785186D01*
X185029812Y-108785183D01*
X184917222Y-108647992D01*
X184833557Y-108491467D01*
X184816384Y-108434853D01*
X184782037Y-108321627D01*
X184769000Y-108189258D01*
X184769000Y-107850743D01*
X184782037Y-107718374D01*
X184826576Y-107571548D01*
X184833557Y-107548534D01*
X184917221Y-107392011D01*
X185029814Y-107254814D01*
X185131271Y-107171552D01*
X185167009Y-107142222D01*
X185199427Y-107124894D01*
X185323533Y-107058557D01*
X185380147Y-107041384D01*
X185493373Y-107007037D01*
X185670000Y-106989641D01*
X185846626Y-107007037D01*
X185846626Y-107007037D01*
G37*
G36*
X153928600Y-106997989D02*
X153961649Y-107008014D01*
X153992106Y-107024294D01*
X154018799Y-107046201D01*
X154040706Y-107072894D01*
X154056986Y-107103351D01*
X154067011Y-107136400D01*
X154071000Y-107176904D01*
X154071000Y-108863096D01*
X154067011Y-108903600D01*
X154056986Y-108936649D01*
X154040706Y-108967106D01*
X154018799Y-108993799D01*
X153992106Y-109015706D01*
X153961649Y-109031986D01*
X153928600Y-109042011D01*
X153888096Y-109046000D01*
X152451904Y-109046000D01*
X152411400Y-109042011D01*
X152378351Y-109031986D01*
X152347894Y-109015706D01*
X152321201Y-108993799D01*
X152299294Y-108967106D01*
X152283014Y-108936649D01*
X152272989Y-108903600D01*
X152269000Y-108863096D01*
X152269000Y-107176904D01*
X152272989Y-107136400D01*
X152283014Y-107103351D01*
X152299294Y-107072894D01*
X152321201Y-107046201D01*
X152347894Y-107024294D01*
X152378351Y-107008014D01*
X152411400Y-106997989D01*
X152451904Y-106994000D01*
X153888096Y-106994000D01*
X153928600Y-106997989D01*
X153928600Y-106997989D01*
G37*
G36*
X82399000Y-108069000D02*
X78497000Y-108069000D01*
X78497000Y-105967000D01*
X82399000Y-105967000D01*
X82399000Y-108069000D01*
X82399000Y-108069000D01*
G37*
G36*
X86938677Y-106383465D02*
X86976364Y-106394898D01*
X87011103Y-106413466D01*
X87041548Y-106438452D01*
X87066534Y-106468897D01*
X87085102Y-106503636D01*
X87096535Y-106541323D01*
X87101000Y-106586661D01*
X87101000Y-107423339D01*
X87096535Y-107468677D01*
X87085102Y-107506364D01*
X87066534Y-107541103D01*
X87041548Y-107571548D01*
X87011103Y-107596534D01*
X86976364Y-107615102D01*
X86938677Y-107626535D01*
X86893339Y-107631000D01*
X85806661Y-107631000D01*
X85761323Y-107626535D01*
X85723636Y-107615102D01*
X85688897Y-107596534D01*
X85658452Y-107571548D01*
X85633466Y-107541103D01*
X85614898Y-107506364D01*
X85603465Y-107468677D01*
X85599000Y-107423339D01*
X85599000Y-106586661D01*
X85603465Y-106541323D01*
X85614898Y-106503636D01*
X85633466Y-106468897D01*
X85658452Y-106438452D01*
X85688897Y-106413466D01*
X85723636Y-106394898D01*
X85761323Y-106383465D01*
X85806661Y-106379000D01*
X86893339Y-106379000D01*
X86938677Y-106383465D01*
X86938677Y-106383465D01*
G37*
G36*
X86938677Y-104333465D02*
X86976364Y-104344898D01*
X87011103Y-104363466D01*
X87041548Y-104388452D01*
X87066534Y-104418897D01*
X87085102Y-104453636D01*
X87096535Y-104491323D01*
X87101000Y-104536661D01*
X87101000Y-105373339D01*
X87096535Y-105418677D01*
X87085102Y-105456364D01*
X87066534Y-105491103D01*
X87041548Y-105521548D01*
X87011103Y-105546534D01*
X86976364Y-105565102D01*
X86938677Y-105576535D01*
X86893339Y-105581000D01*
X85806661Y-105581000D01*
X85761323Y-105576535D01*
X85723636Y-105565102D01*
X85688897Y-105546534D01*
X85658452Y-105521548D01*
X85633466Y-105491103D01*
X85614898Y-105456364D01*
X85603465Y-105418677D01*
X85599000Y-105373339D01*
X85599000Y-104536661D01*
X85603465Y-104491323D01*
X85614898Y-104453636D01*
X85633466Y-104418897D01*
X85658452Y-104388452D01*
X85688897Y-104363466D01*
X85723636Y-104344898D01*
X85761323Y-104333465D01*
X85806661Y-104329000D01*
X86893339Y-104329000D01*
X86938677Y-104333465D01*
X86938677Y-104333465D01*
G37*
G36*
X44091000Y-105471000D02*
X40489000Y-105471000D01*
X40489000Y-101869000D01*
X44091000Y-101869000D01*
X44091000Y-105471000D01*
X44091000Y-105471000D01*
G37*
G36*
X37266978Y-101883293D02*
X37400627Y-101923835D01*
X37523782Y-101989662D01*
X37631739Y-102078261D01*
X37720338Y-102186218D01*
X37786165Y-102309373D01*
X37826707Y-102443022D01*
X37841000Y-102588140D01*
X37841000Y-104751860D01*
X37826707Y-104896978D01*
X37786165Y-105030627D01*
X37720338Y-105153782D01*
X37631739Y-105261739D01*
X37523782Y-105350338D01*
X37400627Y-105416165D01*
X37266978Y-105456707D01*
X37121860Y-105471000D01*
X35458140Y-105471000D01*
X35313022Y-105456707D01*
X35179373Y-105416165D01*
X35056218Y-105350338D01*
X34948261Y-105261739D01*
X34859662Y-105153782D01*
X34793835Y-105030627D01*
X34753293Y-104896978D01*
X34739000Y-104751860D01*
X34739000Y-102588140D01*
X34753293Y-102443022D01*
X34793835Y-102309373D01*
X34859662Y-102186218D01*
X34948261Y-102078261D01*
X35056218Y-101989662D01*
X35179373Y-101923835D01*
X35313022Y-101883293D01*
X35458140Y-101869000D01*
X37121860Y-101869000D01*
X37266978Y-101883293D01*
X37266978Y-101883293D01*
G37*
G36*
X61664719Y-102646520D02*
X61853880Y-102703901D01*
X62028212Y-102797083D01*
X62181015Y-102922485D01*
X62306417Y-103075288D01*
X62399599Y-103249619D01*
X62456980Y-103438780D01*
X62471500Y-103586206D01*
X62471500Y-103779793D01*
X62456980Y-103927219D01*
X62399599Y-104116380D01*
X62306417Y-104290712D01*
X62181015Y-104443515D01*
X62028212Y-104568917D01*
X61853881Y-104662099D01*
X61664720Y-104719480D01*
X61468000Y-104738855D01*
X61271281Y-104719480D01*
X61082120Y-104662099D01*
X60907788Y-104568917D01*
X60754985Y-104443515D01*
X60629583Y-104290712D01*
X60536401Y-104116381D01*
X60479020Y-103927220D01*
X60464500Y-103779794D01*
X60464500Y-103586207D01*
X60479020Y-103438781D01*
X60536401Y-103249620D01*
X60629583Y-103075288D01*
X60754985Y-102922485D01*
X60907788Y-102797083D01*
X61082119Y-102703901D01*
X61271280Y-102646520D01*
X61468000Y-102627145D01*
X61664719Y-102646520D01*
X61664719Y-102646520D01*
G37*
G36*
X64204719Y-102646520D02*
X64393880Y-102703901D01*
X64568212Y-102797083D01*
X64721015Y-102922485D01*
X64846417Y-103075288D01*
X64939599Y-103249619D01*
X64996980Y-103438780D01*
X65011500Y-103586206D01*
X65011500Y-103779793D01*
X64996980Y-103927219D01*
X64939599Y-104116380D01*
X64846417Y-104290712D01*
X64721015Y-104443515D01*
X64568212Y-104568917D01*
X64393881Y-104662099D01*
X64204720Y-104719480D01*
X64008000Y-104738855D01*
X63811281Y-104719480D01*
X63622120Y-104662099D01*
X63447788Y-104568917D01*
X63294985Y-104443515D01*
X63169583Y-104290712D01*
X63076401Y-104116381D01*
X63019020Y-103927220D01*
X63004500Y-103779794D01*
X63004500Y-103586207D01*
X63019020Y-103438781D01*
X63076401Y-103249620D01*
X63169583Y-103075288D01*
X63294985Y-102922485D01*
X63447788Y-102797083D01*
X63622119Y-102703901D01*
X63811280Y-102646520D01*
X64008000Y-102627145D01*
X64204719Y-102646520D01*
X64204719Y-102646520D01*
G37*
G36*
X59931500Y-104734000D02*
X57924500Y-104734000D01*
X57924500Y-102632000D01*
X59931500Y-102632000D01*
X59931500Y-104734000D01*
X59931500Y-104734000D01*
G37*
G36*
X72030677Y-102257465D02*
X72068364Y-102268898D01*
X72103103Y-102287466D01*
X72133548Y-102312452D01*
X72158534Y-102342897D01*
X72177102Y-102377636D01*
X72188535Y-102415323D01*
X72193000Y-102460661D01*
X72193000Y-103547339D01*
X72188535Y-103592677D01*
X72177102Y-103630364D01*
X72158534Y-103665103D01*
X72133548Y-103695548D01*
X72103103Y-103720534D01*
X72068364Y-103739102D01*
X72030677Y-103750535D01*
X71985339Y-103755000D01*
X71148661Y-103755000D01*
X71103323Y-103750535D01*
X71065636Y-103739102D01*
X71030897Y-103720534D01*
X71000452Y-103695548D01*
X70975466Y-103665103D01*
X70956898Y-103630364D01*
X70945465Y-103592677D01*
X70941000Y-103547339D01*
X70941000Y-102460661D01*
X70945465Y-102415323D01*
X70956898Y-102377636D01*
X70975466Y-102342897D01*
X71000452Y-102312452D01*
X71030897Y-102287466D01*
X71065636Y-102268898D01*
X71103323Y-102257465D01*
X71148661Y-102253000D01*
X71985339Y-102253000D01*
X72030677Y-102257465D01*
X72030677Y-102257465D01*
G37*
G36*
X69980677Y-102257465D02*
X70018364Y-102268898D01*
X70053103Y-102287466D01*
X70083548Y-102312452D01*
X70108534Y-102342897D01*
X70127102Y-102377636D01*
X70138535Y-102415323D01*
X70143000Y-102460661D01*
X70143000Y-103547339D01*
X70138535Y-103592677D01*
X70127102Y-103630364D01*
X70108534Y-103665103D01*
X70083548Y-103695548D01*
X70053103Y-103720534D01*
X70018364Y-103739102D01*
X69980677Y-103750535D01*
X69935339Y-103755000D01*
X69098661Y-103755000D01*
X69053323Y-103750535D01*
X69015636Y-103739102D01*
X68980897Y-103720534D01*
X68950452Y-103695548D01*
X68925466Y-103665103D01*
X68906898Y-103630364D01*
X68895465Y-103592677D01*
X68891000Y-103547339D01*
X68891000Y-102460661D01*
X68895465Y-102415323D01*
X68906898Y-102377636D01*
X68925466Y-102342897D01*
X68950452Y-102312452D01*
X68980897Y-102287466D01*
X69015636Y-102268898D01*
X69053323Y-102257465D01*
X69098661Y-102253000D01*
X69935339Y-102253000D01*
X69980677Y-102257465D01*
X69980677Y-102257465D01*
G37*
G36*
X74940677Y-102137465D02*
X74978364Y-102148898D01*
X75013103Y-102167466D01*
X75043548Y-102192452D01*
X75068534Y-102222897D01*
X75087102Y-102257636D01*
X75098535Y-102295323D01*
X75103000Y-102340661D01*
X75103000Y-103177339D01*
X75098535Y-103222677D01*
X75087102Y-103260364D01*
X75068534Y-103295103D01*
X75043548Y-103325548D01*
X75013103Y-103350534D01*
X74978364Y-103369102D01*
X74940677Y-103380535D01*
X74895339Y-103385000D01*
X73808661Y-103385000D01*
X73763323Y-103380535D01*
X73725636Y-103369102D01*
X73690897Y-103350534D01*
X73660452Y-103325548D01*
X73635466Y-103295103D01*
X73616898Y-103260364D01*
X73605465Y-103222677D01*
X73601000Y-103177339D01*
X73601000Y-102340661D01*
X73605465Y-102295323D01*
X73616898Y-102257636D01*
X73635466Y-102222897D01*
X73660452Y-102192452D01*
X73690897Y-102167466D01*
X73725636Y-102148898D01*
X73763323Y-102137465D01*
X73808661Y-102133000D01*
X74895339Y-102133000D01*
X74940677Y-102137465D01*
X74940677Y-102137465D01*
G37*
G36*
X83549000Y-101769000D02*
X81947000Y-101769000D01*
X81947000Y-99667000D01*
X83549000Y-99667000D01*
X83549000Y-101769000D01*
X83549000Y-101769000D01*
G37*
G36*
X81249000Y-101769000D02*
X79647000Y-101769000D01*
X79647000Y-99667000D01*
X81249000Y-99667000D01*
X81249000Y-101769000D01*
X81249000Y-101769000D01*
G37*
G36*
X78949000Y-101769000D02*
X77347000Y-101769000D01*
X77347000Y-99667000D01*
X78949000Y-99667000D01*
X78949000Y-101769000D01*
X78949000Y-101769000D01*
G37*
G36*
X72030677Y-99971465D02*
X72068364Y-99982898D01*
X72103103Y-100001466D01*
X72133548Y-100026452D01*
X72158534Y-100056897D01*
X72177102Y-100091636D01*
X72188535Y-100129323D01*
X72193000Y-100174661D01*
X72193000Y-101261339D01*
X72188535Y-101306677D01*
X72177102Y-101344364D01*
X72158534Y-101379103D01*
X72133548Y-101409548D01*
X72103103Y-101434534D01*
X72068364Y-101453102D01*
X72030677Y-101464535D01*
X71985339Y-101469000D01*
X71148661Y-101469000D01*
X71103323Y-101464535D01*
X71065636Y-101453102D01*
X71030897Y-101434534D01*
X71000452Y-101409548D01*
X70975466Y-101379103D01*
X70956898Y-101344364D01*
X70945465Y-101306677D01*
X70941000Y-101261339D01*
X70941000Y-100174661D01*
X70945465Y-100129323D01*
X70956898Y-100091636D01*
X70975466Y-100056897D01*
X71000452Y-100026452D01*
X71030897Y-100001466D01*
X71065636Y-99982898D01*
X71103323Y-99971465D01*
X71148661Y-99967000D01*
X71985339Y-99967000D01*
X72030677Y-99971465D01*
X72030677Y-99971465D01*
G37*
G36*
X69980677Y-99971465D02*
X70018364Y-99982898D01*
X70053103Y-100001466D01*
X70083548Y-100026452D01*
X70108534Y-100056897D01*
X70127102Y-100091636D01*
X70138535Y-100129323D01*
X70143000Y-100174661D01*
X70143000Y-101261339D01*
X70138535Y-101306677D01*
X70127102Y-101344364D01*
X70108534Y-101379103D01*
X70083548Y-101409548D01*
X70053103Y-101434534D01*
X70018364Y-101453102D01*
X69980677Y-101464535D01*
X69935339Y-101469000D01*
X69098661Y-101469000D01*
X69053323Y-101464535D01*
X69015636Y-101453102D01*
X68980897Y-101434534D01*
X68950452Y-101409548D01*
X68925466Y-101379103D01*
X68906898Y-101344364D01*
X68895465Y-101306677D01*
X68891000Y-101261339D01*
X68891000Y-100174661D01*
X68895465Y-100129323D01*
X68906898Y-100091636D01*
X68925466Y-100056897D01*
X68950452Y-100026452D01*
X68980897Y-100001466D01*
X69015636Y-99982898D01*
X69053323Y-99971465D01*
X69098661Y-99967000D01*
X69935339Y-99967000D01*
X69980677Y-99971465D01*
X69980677Y-99971465D01*
G37*
G36*
X74940677Y-100087465D02*
X74978364Y-100098898D01*
X75013103Y-100117466D01*
X75043548Y-100142452D01*
X75068534Y-100172897D01*
X75087102Y-100207636D01*
X75098535Y-100245323D01*
X75103000Y-100290661D01*
X75103000Y-101127339D01*
X75098535Y-101172677D01*
X75087102Y-101210364D01*
X75068534Y-101245103D01*
X75043548Y-101275548D01*
X75013103Y-101300534D01*
X74978364Y-101319102D01*
X74940677Y-101330535D01*
X74895339Y-101335000D01*
X73808661Y-101335000D01*
X73763323Y-101330535D01*
X73725636Y-101319102D01*
X73690897Y-101300534D01*
X73660452Y-101275548D01*
X73635466Y-101245103D01*
X73616898Y-101210364D01*
X73605465Y-101172677D01*
X73601000Y-101127339D01*
X73601000Y-100290661D01*
X73605465Y-100245323D01*
X73616898Y-100207636D01*
X73635466Y-100172897D01*
X73660452Y-100142452D01*
X73690897Y-100117466D01*
X73725636Y-100098898D01*
X73763323Y-100087465D01*
X73808661Y-100083000D01*
X74895339Y-100083000D01*
X74940677Y-100087465D01*
X74940677Y-100087465D01*
G37*
G36*
X177887000Y-93728000D02*
X176285000Y-93728000D01*
X176285000Y-91226000D01*
X177887000Y-91226000D01*
X177887000Y-93728000D01*
X177887000Y-93728000D01*
G37*
G36*
X174820499Y-90325445D02*
X174857993Y-90336819D01*
X174892557Y-90355294D01*
X174922847Y-90380153D01*
X174947706Y-90410443D01*
X174966181Y-90445007D01*
X174977555Y-90482501D01*
X174982000Y-90527638D01*
X174982000Y-91266362D01*
X174977555Y-91311499D01*
X174966181Y-91348993D01*
X174947706Y-91383557D01*
X174922847Y-91413847D01*
X174892557Y-91438706D01*
X174857993Y-91457181D01*
X174820499Y-91468555D01*
X174775362Y-91473000D01*
X174136638Y-91473000D01*
X174091501Y-91468555D01*
X174054007Y-91457181D01*
X174019443Y-91438706D01*
X173989153Y-91413847D01*
X173964294Y-91383557D01*
X173945819Y-91348993D01*
X173934445Y-91311499D01*
X173930000Y-91266362D01*
X173930000Y-90527638D01*
X173934445Y-90482501D01*
X173945819Y-90445007D01*
X173964294Y-90410443D01*
X173989153Y-90380153D01*
X174019443Y-90355294D01*
X174054007Y-90336819D01*
X174091501Y-90325445D01*
X174136638Y-90321000D01*
X174775362Y-90321000D01*
X174820499Y-90325445D01*
X174820499Y-90325445D01*
G37*
G36*
X180080499Y-90325445D02*
X180117993Y-90336819D01*
X180152557Y-90355294D01*
X180182847Y-90380153D01*
X180207706Y-90410443D01*
X180226181Y-90445007D01*
X180237555Y-90482501D01*
X180242000Y-90527638D01*
X180242000Y-91266362D01*
X180237555Y-91311499D01*
X180226181Y-91348993D01*
X180207706Y-91383557D01*
X180182847Y-91413847D01*
X180152557Y-91438706D01*
X180117993Y-91457181D01*
X180080499Y-91468555D01*
X180035362Y-91473000D01*
X179396638Y-91473000D01*
X179351501Y-91468555D01*
X179314007Y-91457181D01*
X179279443Y-91438706D01*
X179249153Y-91413847D01*
X179224294Y-91383557D01*
X179205819Y-91348993D01*
X179194445Y-91311499D01*
X179190000Y-91266362D01*
X179190000Y-90527638D01*
X179194445Y-90482501D01*
X179205819Y-90445007D01*
X179224294Y-90410443D01*
X179249153Y-90380153D01*
X179279443Y-90355294D01*
X179314007Y-90336819D01*
X179351501Y-90325445D01*
X179396638Y-90321000D01*
X180035362Y-90321000D01*
X180080499Y-90325445D01*
X180080499Y-90325445D01*
G37*
G36*
X38071000Y-91431000D02*
X35969000Y-91431000D01*
X35969000Y-89629000D01*
X38071000Y-89629000D01*
X38071000Y-91431000D01*
X38071000Y-91431000D01*
G37*
G36*
X158254677Y-89255465D02*
X158292364Y-89266898D01*
X158327103Y-89285466D01*
X158357548Y-89310452D01*
X158382534Y-89340897D01*
X158401102Y-89375636D01*
X158412535Y-89413323D01*
X158417000Y-89458661D01*
X158417000Y-90295339D01*
X158412535Y-90340677D01*
X158401102Y-90378364D01*
X158382534Y-90413103D01*
X158357548Y-90443548D01*
X158327103Y-90468534D01*
X158292364Y-90487102D01*
X158254677Y-90498535D01*
X158209339Y-90503000D01*
X157122661Y-90503000D01*
X157077323Y-90498535D01*
X157039636Y-90487102D01*
X157004897Y-90468534D01*
X156974452Y-90443548D01*
X156949466Y-90413103D01*
X156930898Y-90378364D01*
X156919465Y-90340677D01*
X156915000Y-90295339D01*
X156915000Y-89458661D01*
X156919465Y-89413323D01*
X156930898Y-89375636D01*
X156949466Y-89340897D01*
X156974452Y-89310452D01*
X157004897Y-89285466D01*
X157039636Y-89266898D01*
X157077323Y-89255465D01*
X157122661Y-89251000D01*
X158209339Y-89251000D01*
X158254677Y-89255465D01*
X158254677Y-89255465D01*
G37*
G36*
X155704677Y-89255465D02*
X155742364Y-89266898D01*
X155777103Y-89285466D01*
X155807548Y-89310452D01*
X155832534Y-89340897D01*
X155851102Y-89375636D01*
X155862535Y-89413323D01*
X155867000Y-89458661D01*
X155867000Y-90295339D01*
X155862535Y-90340677D01*
X155851102Y-90378364D01*
X155832534Y-90413103D01*
X155807548Y-90443548D01*
X155777103Y-90468534D01*
X155742364Y-90487102D01*
X155704677Y-90498535D01*
X155659339Y-90503000D01*
X154572661Y-90503000D01*
X154527323Y-90498535D01*
X154489636Y-90487102D01*
X154454897Y-90468534D01*
X154424452Y-90443548D01*
X154399466Y-90413103D01*
X154380898Y-90378364D01*
X154369465Y-90340677D01*
X154365000Y-90295339D01*
X154365000Y-89458661D01*
X154369465Y-89413323D01*
X154380898Y-89375636D01*
X154399466Y-89340897D01*
X154424452Y-89310452D01*
X154454897Y-89285466D01*
X154489636Y-89266898D01*
X154527323Y-89255465D01*
X154572661Y-89251000D01*
X155659339Y-89251000D01*
X155704677Y-89255465D01*
X155704677Y-89255465D01*
G37*
G36*
X160494677Y-89255465D02*
X160532364Y-89266898D01*
X160567103Y-89285466D01*
X160597548Y-89310452D01*
X160622534Y-89340897D01*
X160641102Y-89375636D01*
X160652535Y-89413323D01*
X160657000Y-89458661D01*
X160657000Y-90295339D01*
X160652535Y-90340677D01*
X160641102Y-90378364D01*
X160622534Y-90413103D01*
X160597548Y-90443548D01*
X160567103Y-90468534D01*
X160532364Y-90487102D01*
X160494677Y-90498535D01*
X160449339Y-90503000D01*
X159362661Y-90503000D01*
X159317323Y-90498535D01*
X159279636Y-90487102D01*
X159244897Y-90468534D01*
X159214452Y-90443548D01*
X159189466Y-90413103D01*
X159170898Y-90378364D01*
X159159465Y-90340677D01*
X159155000Y-90295339D01*
X159155000Y-89458661D01*
X159159465Y-89413323D01*
X159170898Y-89375636D01*
X159189466Y-89340897D01*
X159214452Y-89310452D01*
X159244897Y-89285466D01*
X159279636Y-89266898D01*
X159317323Y-89255465D01*
X159362661Y-89251000D01*
X160449339Y-89251000D01*
X160494677Y-89255465D01*
X160494677Y-89255465D01*
G37*
G36*
X153464677Y-89255465D02*
X153502364Y-89266898D01*
X153537103Y-89285466D01*
X153567548Y-89310452D01*
X153592534Y-89340897D01*
X153611102Y-89375636D01*
X153622535Y-89413323D01*
X153627000Y-89458661D01*
X153627000Y-90295339D01*
X153622535Y-90340677D01*
X153611102Y-90378364D01*
X153592534Y-90413103D01*
X153567548Y-90443548D01*
X153537103Y-90468534D01*
X153502364Y-90487102D01*
X153464677Y-90498535D01*
X153419339Y-90503000D01*
X152332661Y-90503000D01*
X152287323Y-90498535D01*
X152249636Y-90487102D01*
X152214897Y-90468534D01*
X152184452Y-90443548D01*
X152159466Y-90413103D01*
X152140898Y-90378364D01*
X152129465Y-90340677D01*
X152125000Y-90295339D01*
X152125000Y-89458661D01*
X152129465Y-89413323D01*
X152140898Y-89375636D01*
X152159466Y-89340897D01*
X152184452Y-89310452D01*
X152214897Y-89285466D01*
X152249636Y-89266898D01*
X152287323Y-89255465D01*
X152332661Y-89251000D01*
X153419339Y-89251000D01*
X153464677Y-89255465D01*
X153464677Y-89255465D01*
G37*
G36*
X193641000Y-89911000D02*
X191839000Y-89911000D01*
X191839000Y-88109000D01*
X193641000Y-88109000D01*
X193641000Y-89911000D01*
X193641000Y-89911000D01*
G37*
G36*
X174820499Y-88575445D02*
X174857993Y-88586819D01*
X174892557Y-88605294D01*
X174922847Y-88630153D01*
X174947706Y-88660443D01*
X174966181Y-88695007D01*
X174977555Y-88732501D01*
X174982000Y-88777638D01*
X174982000Y-89516362D01*
X174977555Y-89561499D01*
X174966181Y-89598993D01*
X174947706Y-89633557D01*
X174922847Y-89663847D01*
X174892557Y-89688706D01*
X174857993Y-89707181D01*
X174820499Y-89718555D01*
X174775362Y-89723000D01*
X174136638Y-89723000D01*
X174091501Y-89718555D01*
X174054007Y-89707181D01*
X174019443Y-89688706D01*
X173989153Y-89663847D01*
X173964294Y-89633557D01*
X173945819Y-89598993D01*
X173934445Y-89561499D01*
X173930000Y-89516362D01*
X173930000Y-88777638D01*
X173934445Y-88732501D01*
X173945819Y-88695007D01*
X173964294Y-88660443D01*
X173989153Y-88630153D01*
X174019443Y-88605294D01*
X174054007Y-88586819D01*
X174091501Y-88575445D01*
X174136638Y-88571000D01*
X174775362Y-88571000D01*
X174820499Y-88575445D01*
X174820499Y-88575445D01*
G37*
G36*
X180080499Y-88575445D02*
X180117993Y-88586819D01*
X180152557Y-88605294D01*
X180182847Y-88630153D01*
X180207706Y-88660443D01*
X180226181Y-88695007D01*
X180237555Y-88732501D01*
X180242000Y-88777638D01*
X180242000Y-89516362D01*
X180237555Y-89561499D01*
X180226181Y-89598993D01*
X180207706Y-89633557D01*
X180182847Y-89663847D01*
X180152557Y-89688706D01*
X180117993Y-89707181D01*
X180080499Y-89718555D01*
X180035362Y-89723000D01*
X179396638Y-89723000D01*
X179351501Y-89718555D01*
X179314007Y-89707181D01*
X179279443Y-89688706D01*
X179249153Y-89663847D01*
X179224294Y-89633557D01*
X179205819Y-89598993D01*
X179194445Y-89561499D01*
X179190000Y-89516362D01*
X179190000Y-88777638D01*
X179194445Y-88732501D01*
X179205819Y-88695007D01*
X179224294Y-88660443D01*
X179249153Y-88630153D01*
X179279443Y-88605294D01*
X179314007Y-88586819D01*
X179351501Y-88575445D01*
X179396638Y-88571000D01*
X180035362Y-88571000D01*
X180080499Y-88575445D01*
X180080499Y-88575445D01*
G37*
G36*
X149968677Y-88223465D02*
X150006364Y-88234898D01*
X150041103Y-88253466D01*
X150071548Y-88278452D01*
X150096534Y-88308897D01*
X150115102Y-88343636D01*
X150126535Y-88381323D01*
X150131000Y-88426661D01*
X150131000Y-89513339D01*
X150126535Y-89558677D01*
X150115102Y-89596364D01*
X150096534Y-89631103D01*
X150071548Y-89661548D01*
X150041103Y-89686534D01*
X150006364Y-89705102D01*
X149968677Y-89716535D01*
X149923339Y-89721000D01*
X149086661Y-89721000D01*
X149041323Y-89716535D01*
X149003636Y-89705102D01*
X148968897Y-89686534D01*
X148938452Y-89661548D01*
X148913466Y-89631103D01*
X148894898Y-89596364D01*
X148883465Y-89558677D01*
X148879000Y-89513339D01*
X148879000Y-88426661D01*
X148883465Y-88381323D01*
X148894898Y-88343636D01*
X148913466Y-88308897D01*
X148938452Y-88278452D01*
X148968897Y-88253466D01*
X149003636Y-88234898D01*
X149041323Y-88223465D01*
X149086661Y-88219000D01*
X149923339Y-88219000D01*
X149968677Y-88223465D01*
X149968677Y-88223465D01*
G37*
G36*
X147918677Y-88223465D02*
X147956364Y-88234898D01*
X147991103Y-88253466D01*
X148021548Y-88278452D01*
X148046534Y-88308897D01*
X148065102Y-88343636D01*
X148076535Y-88381323D01*
X148081000Y-88426661D01*
X148081000Y-89513339D01*
X148076535Y-89558677D01*
X148065102Y-89596364D01*
X148046534Y-89631103D01*
X148021548Y-89661548D01*
X147991103Y-89686534D01*
X147956364Y-89705102D01*
X147918677Y-89716535D01*
X147873339Y-89721000D01*
X147036661Y-89721000D01*
X146991323Y-89716535D01*
X146953636Y-89705102D01*
X146918897Y-89686534D01*
X146888452Y-89661548D01*
X146863466Y-89631103D01*
X146844898Y-89596364D01*
X146833465Y-89558677D01*
X146829000Y-89513339D01*
X146829000Y-88426661D01*
X146833465Y-88381323D01*
X146844898Y-88343636D01*
X146863466Y-88308897D01*
X146888452Y-88278452D01*
X146918897Y-88253466D01*
X146953636Y-88234898D01*
X146991323Y-88223465D01*
X147036661Y-88219000D01*
X147873339Y-88219000D01*
X147918677Y-88223465D01*
X147918677Y-88223465D01*
G37*
G36*
X37280443Y-87135519D02*
X37346627Y-87142037D01*
X37459853Y-87176384D01*
X37516467Y-87193557D01*
X37594872Y-87235466D01*
X37672991Y-87277222D01*
X37689654Y-87290897D01*
X37810186Y-87389814D01*
X37878596Y-87473173D01*
X37922778Y-87527009D01*
X37922779Y-87527011D01*
X38006443Y-87683533D01*
X38012986Y-87705102D01*
X38057963Y-87853373D01*
X38075359Y-88030000D01*
X38057963Y-88206627D01*
X38028831Y-88302661D01*
X38006443Y-88376467D01*
X37945130Y-88491173D01*
X37922778Y-88532991D01*
X37893448Y-88568729D01*
X37810186Y-88670186D01*
X37733214Y-88733354D01*
X37672991Y-88782778D01*
X37672989Y-88782779D01*
X37516467Y-88866443D01*
X37459853Y-88883616D01*
X37346627Y-88917963D01*
X37280443Y-88924481D01*
X37214260Y-88931000D01*
X36825740Y-88931000D01*
X36759557Y-88924481D01*
X36693373Y-88917963D01*
X36580147Y-88883616D01*
X36523533Y-88866443D01*
X36367011Y-88782779D01*
X36367009Y-88782778D01*
X36306786Y-88733354D01*
X36229814Y-88670186D01*
X36146552Y-88568729D01*
X36117222Y-88532991D01*
X36094870Y-88491173D01*
X36033557Y-88376467D01*
X36011169Y-88302661D01*
X35982037Y-88206627D01*
X35964641Y-88030000D01*
X35982037Y-87853373D01*
X36027014Y-87705102D01*
X36033557Y-87683533D01*
X36117221Y-87527011D01*
X36117222Y-87527009D01*
X36161404Y-87473173D01*
X36229814Y-87389814D01*
X36350346Y-87290897D01*
X36367009Y-87277222D01*
X36445128Y-87235466D01*
X36523533Y-87193557D01*
X36580147Y-87176384D01*
X36693373Y-87142037D01*
X36759557Y-87135519D01*
X36825740Y-87129000D01*
X37214260Y-87129000D01*
X37280443Y-87135519D01*
X37280443Y-87135519D01*
G37*
G36*
X61644669Y-85230686D02*
X61821058Y-85248059D01*
X62047385Y-85316714D01*
X62160549Y-85351042D01*
X62473425Y-85518279D01*
X62747661Y-85743339D01*
X62972721Y-86017575D01*
X63139958Y-86330451D01*
X63155390Y-86381323D01*
X63242941Y-86669942D01*
X63277714Y-87023000D01*
X63242941Y-87376058D01*
X63197150Y-87527011D01*
X63139958Y-87715549D01*
X62972721Y-88028425D01*
X62747661Y-88302661D01*
X62473425Y-88527721D01*
X62160549Y-88694958D01*
X62047385Y-88729286D01*
X61821058Y-88797941D01*
X61644669Y-88815314D01*
X61556476Y-88824000D01*
X61379524Y-88824000D01*
X61291331Y-88815314D01*
X61114942Y-88797941D01*
X60888615Y-88729286D01*
X60775451Y-88694958D01*
X60462575Y-88527721D01*
X60188339Y-88302661D01*
X59963279Y-88028425D01*
X59796042Y-87715549D01*
X59738850Y-87527011D01*
X59693059Y-87376058D01*
X59658286Y-87023000D01*
X59693059Y-86669942D01*
X59780610Y-86381323D01*
X59796042Y-86330451D01*
X59963279Y-86017575D01*
X60188339Y-85743339D01*
X60462575Y-85518279D01*
X60775451Y-85351042D01*
X60888615Y-85316714D01*
X61114942Y-85248059D01*
X61291331Y-85230686D01*
X61379524Y-85222000D01*
X61556476Y-85222000D01*
X61644669Y-85230686D01*
X61644669Y-85230686D01*
G37*
G36*
X160494677Y-87205465D02*
X160532364Y-87216898D01*
X160567103Y-87235466D01*
X160597548Y-87260452D01*
X160622534Y-87290897D01*
X160641102Y-87325636D01*
X160652535Y-87363323D01*
X160657000Y-87408661D01*
X160657000Y-88245339D01*
X160652535Y-88290677D01*
X160641102Y-88328364D01*
X160622534Y-88363103D01*
X160597548Y-88393548D01*
X160567103Y-88418534D01*
X160532364Y-88437102D01*
X160494677Y-88448535D01*
X160449339Y-88453000D01*
X159362661Y-88453000D01*
X159317323Y-88448535D01*
X159279636Y-88437102D01*
X159244897Y-88418534D01*
X159214452Y-88393548D01*
X159189466Y-88363103D01*
X159170898Y-88328364D01*
X159159465Y-88290677D01*
X159155000Y-88245339D01*
X159155000Y-87408661D01*
X159159465Y-87363323D01*
X159170898Y-87325636D01*
X159189466Y-87290897D01*
X159214452Y-87260452D01*
X159244897Y-87235466D01*
X159279636Y-87216898D01*
X159317323Y-87205465D01*
X159362661Y-87201000D01*
X160449339Y-87201000D01*
X160494677Y-87205465D01*
X160494677Y-87205465D01*
G37*
G36*
X153464677Y-87205465D02*
X153502364Y-87216898D01*
X153537103Y-87235466D01*
X153567548Y-87260452D01*
X153592534Y-87290897D01*
X153611102Y-87325636D01*
X153622535Y-87363323D01*
X153627000Y-87408661D01*
X153627000Y-88245339D01*
X153622535Y-88290677D01*
X153611102Y-88328364D01*
X153592534Y-88363103D01*
X153567548Y-88393548D01*
X153537103Y-88418534D01*
X153502364Y-88437102D01*
X153464677Y-88448535D01*
X153419339Y-88453000D01*
X152332661Y-88453000D01*
X152287323Y-88448535D01*
X152249636Y-88437102D01*
X152214897Y-88418534D01*
X152184452Y-88393548D01*
X152159466Y-88363103D01*
X152140898Y-88328364D01*
X152129465Y-88290677D01*
X152125000Y-88245339D01*
X152125000Y-87408661D01*
X152129465Y-87363323D01*
X152140898Y-87325636D01*
X152159466Y-87290897D01*
X152184452Y-87260452D01*
X152214897Y-87235466D01*
X152249636Y-87216898D01*
X152287323Y-87205465D01*
X152332661Y-87201000D01*
X153419339Y-87201000D01*
X153464677Y-87205465D01*
X153464677Y-87205465D01*
G37*
G36*
X158254677Y-87205465D02*
X158292364Y-87216898D01*
X158327103Y-87235466D01*
X158357548Y-87260452D01*
X158382534Y-87290897D01*
X158401102Y-87325636D01*
X158412535Y-87363323D01*
X158417000Y-87408661D01*
X158417000Y-88245339D01*
X158412535Y-88290677D01*
X158401102Y-88328364D01*
X158382534Y-88363103D01*
X158357548Y-88393548D01*
X158327103Y-88418534D01*
X158292364Y-88437102D01*
X158254677Y-88448535D01*
X158209339Y-88453000D01*
X157122661Y-88453000D01*
X157077323Y-88448535D01*
X157039636Y-88437102D01*
X157004897Y-88418534D01*
X156974452Y-88393548D01*
X156949466Y-88363103D01*
X156930898Y-88328364D01*
X156919465Y-88290677D01*
X156915000Y-88245339D01*
X156915000Y-87408661D01*
X156919465Y-87363323D01*
X156930898Y-87325636D01*
X156949466Y-87290897D01*
X156974452Y-87260452D01*
X157004897Y-87235466D01*
X157039636Y-87216898D01*
X157077323Y-87205465D01*
X157122661Y-87201000D01*
X158209339Y-87201000D01*
X158254677Y-87205465D01*
X158254677Y-87205465D01*
G37*
G36*
X155704677Y-87205465D02*
X155742364Y-87216898D01*
X155777103Y-87235466D01*
X155807548Y-87260452D01*
X155832534Y-87290897D01*
X155851102Y-87325636D01*
X155862535Y-87363323D01*
X155867000Y-87408661D01*
X155867000Y-88245339D01*
X155862535Y-88290677D01*
X155851102Y-88328364D01*
X155832534Y-88363103D01*
X155807548Y-88393548D01*
X155777103Y-88418534D01*
X155742364Y-88437102D01*
X155704677Y-88448535D01*
X155659339Y-88453000D01*
X154572661Y-88453000D01*
X154527323Y-88448535D01*
X154489636Y-88437102D01*
X154454897Y-88418534D01*
X154424452Y-88393548D01*
X154399466Y-88363103D01*
X154380898Y-88328364D01*
X154369465Y-88290677D01*
X154365000Y-88245339D01*
X154365000Y-87408661D01*
X154369465Y-87363323D01*
X154380898Y-87325636D01*
X154399466Y-87290897D01*
X154424452Y-87260452D01*
X154454897Y-87235466D01*
X154489636Y-87216898D01*
X154527323Y-87205465D01*
X154572661Y-87201000D01*
X155659339Y-87201000D01*
X155704677Y-87205465D01*
X155704677Y-87205465D01*
G37*
G36*
X149968677Y-86223465D02*
X150006364Y-86234898D01*
X150041103Y-86253466D01*
X150071548Y-86278452D01*
X150096534Y-86308897D01*
X150115102Y-86343636D01*
X150126535Y-86381323D01*
X150131000Y-86426661D01*
X150131000Y-87513339D01*
X150126535Y-87558677D01*
X150115102Y-87596364D01*
X150096534Y-87631103D01*
X150071548Y-87661548D01*
X150041103Y-87686534D01*
X150006364Y-87705102D01*
X149968677Y-87716535D01*
X149923339Y-87721000D01*
X149086661Y-87721000D01*
X149041323Y-87716535D01*
X149003636Y-87705102D01*
X148968897Y-87686534D01*
X148938452Y-87661548D01*
X148913466Y-87631103D01*
X148894898Y-87596364D01*
X148883465Y-87558677D01*
X148879000Y-87513339D01*
X148879000Y-86426661D01*
X148883465Y-86381323D01*
X148894898Y-86343636D01*
X148913466Y-86308897D01*
X148938452Y-86278452D01*
X148968897Y-86253466D01*
X149003636Y-86234898D01*
X149041323Y-86223465D01*
X149086661Y-86219000D01*
X149923339Y-86219000D01*
X149968677Y-86223465D01*
X149968677Y-86223465D01*
G37*
G36*
X147918677Y-86223465D02*
X147956364Y-86234898D01*
X147991103Y-86253466D01*
X148021548Y-86278452D01*
X148046534Y-86308897D01*
X148065102Y-86343636D01*
X148076535Y-86381323D01*
X148081000Y-86426661D01*
X148081000Y-87513339D01*
X148076535Y-87558677D01*
X148065102Y-87596364D01*
X148046534Y-87631103D01*
X148021548Y-87661548D01*
X147991103Y-87686534D01*
X147956364Y-87705102D01*
X147918677Y-87716535D01*
X147873339Y-87721000D01*
X147036661Y-87721000D01*
X146991323Y-87716535D01*
X146953636Y-87705102D01*
X146918897Y-87686534D01*
X146888452Y-87661548D01*
X146863466Y-87631103D01*
X146844898Y-87596364D01*
X146833465Y-87558677D01*
X146829000Y-87513339D01*
X146829000Y-86426661D01*
X146833465Y-86381323D01*
X146844898Y-86343636D01*
X146863466Y-86308897D01*
X146888452Y-86278452D01*
X146918897Y-86253466D01*
X146953636Y-86234898D01*
X146991323Y-86223465D01*
X147036661Y-86219000D01*
X147873339Y-86219000D01*
X147918677Y-86223465D01*
X147918677Y-86223465D01*
G37*
G36*
X176937000Y-87478000D02*
X176235000Y-87478000D01*
X176235000Y-86276000D01*
X176937000Y-86276000D01*
X176937000Y-87478000D01*
X176937000Y-87478000D01*
G37*
G36*
X177937000Y-87478000D02*
X177235000Y-87478000D01*
X177235000Y-86276000D01*
X177937000Y-86276000D01*
X177937000Y-87478000D01*
X177937000Y-87478000D01*
G37*
G36*
X192849767Y-85575452D02*
X192916627Y-85582037D01*
X193029853Y-85616384D01*
X193086467Y-85633557D01*
X193225087Y-85707652D01*
X193242991Y-85717222D01*
X193274814Y-85743339D01*
X193380186Y-85829814D01*
X193463448Y-85931271D01*
X193492778Y-85967009D01*
X193492779Y-85967011D01*
X193576443Y-86123533D01*
X193576443Y-86123534D01*
X193627963Y-86293373D01*
X193645359Y-86470000D01*
X193627963Y-86646627D01*
X193605059Y-86722131D01*
X193576443Y-86816467D01*
X193502348Y-86955087D01*
X193492778Y-86972991D01*
X193463448Y-87008729D01*
X193380186Y-87110186D01*
X193278729Y-87193448D01*
X193242991Y-87222778D01*
X193242989Y-87222779D01*
X193086467Y-87306443D01*
X193035307Y-87321962D01*
X192916627Y-87357963D01*
X192862205Y-87363323D01*
X192784260Y-87371000D01*
X192695740Y-87371000D01*
X192617795Y-87363323D01*
X192563373Y-87357963D01*
X192444693Y-87321962D01*
X192393533Y-87306443D01*
X192237011Y-87222779D01*
X192237009Y-87222778D01*
X192201271Y-87193448D01*
X192099814Y-87110186D01*
X192016552Y-87008729D01*
X191987222Y-86972991D01*
X191977652Y-86955087D01*
X191903557Y-86816467D01*
X191874941Y-86722131D01*
X191852037Y-86646627D01*
X191834641Y-86470000D01*
X191852037Y-86293373D01*
X191903557Y-86123534D01*
X191903557Y-86123533D01*
X191987221Y-85967011D01*
X191987222Y-85967009D01*
X192016552Y-85931271D01*
X192099814Y-85829814D01*
X192205186Y-85743339D01*
X192237009Y-85717222D01*
X192254913Y-85707652D01*
X192393533Y-85633557D01*
X192450147Y-85616384D01*
X192563373Y-85582037D01*
X192630233Y-85575452D01*
X192695740Y-85569000D01*
X192784260Y-85569000D01*
X192849767Y-85575452D01*
X192849767Y-85575452D01*
G37*
G36*
X182449677Y-85520465D02*
X182487364Y-85531898D01*
X182522103Y-85550466D01*
X182552548Y-85575452D01*
X182577534Y-85605897D01*
X182596102Y-85640636D01*
X182607535Y-85678323D01*
X182612000Y-85723661D01*
X182612000Y-86560339D01*
X182607535Y-86605677D01*
X182596102Y-86643364D01*
X182577534Y-86678103D01*
X182552548Y-86708548D01*
X182522103Y-86733534D01*
X182487364Y-86752102D01*
X182449677Y-86763535D01*
X182404339Y-86768000D01*
X181317661Y-86768000D01*
X181272323Y-86763535D01*
X181234636Y-86752102D01*
X181199897Y-86733534D01*
X181169452Y-86708548D01*
X181144466Y-86678103D01*
X181125898Y-86643364D01*
X181114465Y-86605677D01*
X181110000Y-86560339D01*
X181110000Y-85723661D01*
X181114465Y-85678323D01*
X181125898Y-85640636D01*
X181144466Y-85605897D01*
X181169452Y-85575452D01*
X181199897Y-85550466D01*
X181234636Y-85531898D01*
X181272323Y-85520465D01*
X181317661Y-85516000D01*
X182404339Y-85516000D01*
X182449677Y-85520465D01*
X182449677Y-85520465D01*
G37*
G36*
X165784677Y-84565465D02*
X165822364Y-84576898D01*
X165857103Y-84595466D01*
X165887548Y-84620452D01*
X165912534Y-84650897D01*
X165931102Y-84685636D01*
X165942535Y-84723323D01*
X165947000Y-84768661D01*
X165947000Y-85605339D01*
X165942535Y-85650677D01*
X165931102Y-85688364D01*
X165912534Y-85723103D01*
X165887548Y-85753548D01*
X165857103Y-85778534D01*
X165822364Y-85797102D01*
X165784677Y-85808535D01*
X165739339Y-85813000D01*
X164652661Y-85813000D01*
X164607323Y-85808535D01*
X164569636Y-85797102D01*
X164534897Y-85778534D01*
X164504452Y-85753548D01*
X164479466Y-85723103D01*
X164460898Y-85688364D01*
X164449465Y-85650677D01*
X164445000Y-85605339D01*
X164445000Y-84768661D01*
X164449465Y-84723323D01*
X164460898Y-84685636D01*
X164479466Y-84650897D01*
X164504452Y-84620452D01*
X164534897Y-84595466D01*
X164569636Y-84576898D01*
X164607323Y-84565465D01*
X164652661Y-84561000D01*
X165739339Y-84561000D01*
X165784677Y-84565465D01*
X165784677Y-84565465D01*
G37*
G36*
X163407676Y-84565465D02*
X163445363Y-84576898D01*
X163480102Y-84595466D01*
X163510547Y-84620452D01*
X163535533Y-84650897D01*
X163554101Y-84685636D01*
X163565534Y-84723323D01*
X163569999Y-84768661D01*
X163569999Y-85605339D01*
X163565534Y-85650677D01*
X163554101Y-85688364D01*
X163535533Y-85723103D01*
X163510547Y-85753548D01*
X163480102Y-85778534D01*
X163445363Y-85797102D01*
X163407676Y-85808535D01*
X163362338Y-85813000D01*
X162275660Y-85813000D01*
X162230322Y-85808535D01*
X162192635Y-85797102D01*
X162157896Y-85778534D01*
X162127451Y-85753548D01*
X162102465Y-85723103D01*
X162083897Y-85688364D01*
X162072464Y-85650677D01*
X162067999Y-85605339D01*
X162067999Y-84768661D01*
X162072464Y-84723323D01*
X162083897Y-84685636D01*
X162102465Y-84650897D01*
X162127451Y-84620452D01*
X162157896Y-84595466D01*
X162192635Y-84576898D01*
X162230322Y-84565465D01*
X162275660Y-84561000D01*
X163362338Y-84561000D01*
X163407676Y-84565465D01*
X163407676Y-84565465D01*
G37*
G36*
X160557000Y-84963000D02*
X159855000Y-84963000D01*
X159855000Y-83361000D01*
X160557000Y-83361000D01*
X160557000Y-84963000D01*
X160557000Y-84963000D01*
G37*
G36*
X155477000Y-84963000D02*
X154775000Y-84963000D01*
X154775000Y-83361000D01*
X155477000Y-83361000D01*
X155477000Y-84963000D01*
X155477000Y-84963000D01*
G37*
G36*
X159287000Y-84963000D02*
X158585000Y-84963000D01*
X158585000Y-83361000D01*
X159287000Y-83361000D01*
X159287000Y-84963000D01*
X159287000Y-84963000D01*
G37*
G36*
X156747000Y-84963000D02*
X156045000Y-84963000D01*
X156045000Y-83361000D01*
X156747000Y-83361000D01*
X156747000Y-84963000D01*
X156747000Y-84963000D01*
G37*
G36*
X154207000Y-84963000D02*
X153505000Y-84963000D01*
X153505000Y-83361000D01*
X154207000Y-83361000D01*
X154207000Y-84963000D01*
X154207000Y-84963000D01*
G37*
G36*
X152937000Y-84963000D02*
X152235000Y-84963000D01*
X152235000Y-83361000D01*
X152937000Y-83361000D01*
X152937000Y-84963000D01*
X152937000Y-84963000D01*
G37*
G36*
X158017000Y-84963000D02*
X157315000Y-84963000D01*
X157315000Y-83361000D01*
X158017000Y-83361000D01*
X158017000Y-84963000D01*
X158017000Y-84963000D01*
G37*
G36*
X178312000Y-84913000D02*
X169360000Y-84913000D01*
X169360000Y-83711000D01*
X178312000Y-83711000D01*
X178312000Y-84913000D01*
X178312000Y-84913000D01*
G37*
G36*
X192850443Y-83035519D02*
X192916627Y-83042037D01*
X193029853Y-83076384D01*
X193086467Y-83093557D01*
X193225087Y-83167652D01*
X193242991Y-83177222D01*
X193278729Y-83206552D01*
X193380186Y-83289814D01*
X193463448Y-83391271D01*
X193492778Y-83427009D01*
X193492779Y-83427011D01*
X193576443Y-83583533D01*
X193579916Y-83594983D01*
X193627963Y-83753373D01*
X193645359Y-83930000D01*
X193627963Y-84106627D01*
X193593616Y-84219853D01*
X193576443Y-84276467D01*
X193502348Y-84415087D01*
X193492778Y-84432991D01*
X193463448Y-84468729D01*
X193380186Y-84570186D01*
X193294241Y-84640718D01*
X193242991Y-84682778D01*
X193242989Y-84682779D01*
X193086467Y-84766443D01*
X193041527Y-84780075D01*
X192916627Y-84817963D01*
X192850443Y-84824481D01*
X192784260Y-84831000D01*
X192695740Y-84831000D01*
X192629557Y-84824481D01*
X192563373Y-84817963D01*
X192438473Y-84780075D01*
X192393533Y-84766443D01*
X192237011Y-84682779D01*
X192237009Y-84682778D01*
X192185759Y-84640718D01*
X192099814Y-84570186D01*
X192016552Y-84468729D01*
X191987222Y-84432991D01*
X191977652Y-84415087D01*
X191903557Y-84276467D01*
X191886384Y-84219853D01*
X191852037Y-84106627D01*
X191834641Y-83930000D01*
X191852037Y-83753373D01*
X191900084Y-83594983D01*
X191903557Y-83583533D01*
X191987221Y-83427011D01*
X191987222Y-83427009D01*
X192016552Y-83391271D01*
X192099814Y-83289814D01*
X192201271Y-83206552D01*
X192237009Y-83177222D01*
X192254913Y-83167652D01*
X192393533Y-83093557D01*
X192450147Y-83076384D01*
X192563373Y-83042037D01*
X192629557Y-83035519D01*
X192695740Y-83029000D01*
X192784260Y-83029000D01*
X192850443Y-83035519D01*
X192850443Y-83035519D01*
G37*
G36*
X182449677Y-83470465D02*
X182487364Y-83481898D01*
X182522103Y-83500466D01*
X182552548Y-83525452D01*
X182577534Y-83555897D01*
X182596102Y-83590636D01*
X182607535Y-83628323D01*
X182612000Y-83673661D01*
X182612000Y-84510339D01*
X182607535Y-84555677D01*
X182596102Y-84593364D01*
X182577534Y-84628103D01*
X182552548Y-84658548D01*
X182522103Y-84683534D01*
X182487364Y-84702102D01*
X182449677Y-84713535D01*
X182404339Y-84718000D01*
X181317661Y-84718000D01*
X181272323Y-84713535D01*
X181234636Y-84702102D01*
X181199897Y-84683534D01*
X181169452Y-84658548D01*
X181144466Y-84628103D01*
X181125898Y-84593364D01*
X181114465Y-84555677D01*
X181110000Y-84510339D01*
X181110000Y-83673661D01*
X181114465Y-83628323D01*
X181125898Y-83590636D01*
X181144466Y-83555897D01*
X181169452Y-83525452D01*
X181199897Y-83500466D01*
X181234636Y-83481898D01*
X181272323Y-83470465D01*
X181317661Y-83466000D01*
X182404339Y-83466000D01*
X182449677Y-83470465D01*
X182449677Y-83470465D01*
G37*
G36*
X165784677Y-82515465D02*
X165822364Y-82526898D01*
X165857103Y-82545466D01*
X165887548Y-82570452D01*
X165912534Y-82600897D01*
X165931102Y-82635636D01*
X165942535Y-82673323D01*
X165947000Y-82718661D01*
X165947000Y-83555339D01*
X165942535Y-83600677D01*
X165931102Y-83638364D01*
X165912534Y-83673103D01*
X165887548Y-83703548D01*
X165857103Y-83728534D01*
X165822364Y-83747102D01*
X165784677Y-83758535D01*
X165739339Y-83763000D01*
X164652661Y-83763000D01*
X164607323Y-83758535D01*
X164569636Y-83747102D01*
X164534897Y-83728534D01*
X164504452Y-83703548D01*
X164479466Y-83673103D01*
X164460898Y-83638364D01*
X164449465Y-83600677D01*
X164445000Y-83555339D01*
X164445000Y-82718661D01*
X164449465Y-82673323D01*
X164460898Y-82635636D01*
X164479466Y-82600897D01*
X164504452Y-82570452D01*
X164534897Y-82545466D01*
X164569636Y-82526898D01*
X164607323Y-82515465D01*
X164652661Y-82511000D01*
X165739339Y-82511000D01*
X165784677Y-82515465D01*
X165784677Y-82515465D01*
G37*
G36*
X163407676Y-82515465D02*
X163445363Y-82526898D01*
X163480102Y-82545466D01*
X163510547Y-82570452D01*
X163535533Y-82600897D01*
X163554101Y-82635636D01*
X163565534Y-82673323D01*
X163569999Y-82718661D01*
X163569999Y-83555339D01*
X163565534Y-83600677D01*
X163554101Y-83638364D01*
X163535533Y-83673103D01*
X163510547Y-83703548D01*
X163480102Y-83728534D01*
X163445363Y-83747102D01*
X163407676Y-83758535D01*
X163362338Y-83763000D01*
X162275660Y-83763000D01*
X162230322Y-83758535D01*
X162192635Y-83747102D01*
X162157896Y-83728534D01*
X162127451Y-83703548D01*
X162102465Y-83673103D01*
X162083897Y-83638364D01*
X162072464Y-83600677D01*
X162067999Y-83555339D01*
X162067999Y-82718661D01*
X162072464Y-82673323D01*
X162083897Y-82635636D01*
X162102465Y-82600897D01*
X162127451Y-82570452D01*
X162157896Y-82545466D01*
X162192635Y-82526898D01*
X162230322Y-82515465D01*
X162275660Y-82511000D01*
X163362338Y-82511000D01*
X163407676Y-82515465D01*
X163407676Y-82515465D01*
G37*
G36*
X182458677Y-81663465D02*
X182496364Y-81674898D01*
X182531103Y-81693466D01*
X182561548Y-81718452D01*
X182586534Y-81748897D01*
X182605102Y-81783636D01*
X182616535Y-81821323D01*
X182621000Y-81866661D01*
X182621000Y-82703339D01*
X182616535Y-82748677D01*
X182605102Y-82786364D01*
X182586534Y-82821103D01*
X182561548Y-82851548D01*
X182531103Y-82876534D01*
X182496364Y-82895102D01*
X182458677Y-82906535D01*
X182413339Y-82911000D01*
X181326661Y-82911000D01*
X181281323Y-82906535D01*
X181243636Y-82895102D01*
X181208897Y-82876534D01*
X181178452Y-82851548D01*
X181153466Y-82821103D01*
X181134898Y-82786364D01*
X181123465Y-82748677D01*
X181119000Y-82703339D01*
X181119000Y-81866661D01*
X181123465Y-81821323D01*
X181134898Y-81783636D01*
X181153466Y-81748897D01*
X181178452Y-81718452D01*
X181208897Y-81693466D01*
X181243636Y-81674898D01*
X181281323Y-81663465D01*
X181326661Y-81659000D01*
X182413339Y-81659000D01*
X182458677Y-81663465D01*
X182458677Y-81663465D01*
G37*
G36*
X192850442Y-80495518D02*
X192916627Y-80502037D01*
X193029853Y-80536384D01*
X193086467Y-80553557D01*
X193225087Y-80627652D01*
X193242991Y-80637222D01*
X193262629Y-80653339D01*
X193380186Y-80749814D01*
X193454430Y-80840282D01*
X193492778Y-80887009D01*
X193492779Y-80887011D01*
X193576443Y-81043533D01*
X193576443Y-81043534D01*
X193627963Y-81213373D01*
X193645359Y-81390000D01*
X193627963Y-81566627D01*
X193595119Y-81674898D01*
X193576443Y-81736467D01*
X193553194Y-81779962D01*
X193492778Y-81892991D01*
X193463448Y-81928729D01*
X193380186Y-82030186D01*
X193278729Y-82113448D01*
X193242991Y-82142778D01*
X193242989Y-82142779D01*
X193086467Y-82226443D01*
X193029853Y-82243616D01*
X192916627Y-82277963D01*
X192850442Y-82284482D01*
X192784260Y-82291000D01*
X192695740Y-82291000D01*
X192629558Y-82284482D01*
X192563373Y-82277963D01*
X192450147Y-82243616D01*
X192393533Y-82226443D01*
X192237011Y-82142779D01*
X192237009Y-82142778D01*
X192201271Y-82113448D01*
X192099814Y-82030186D01*
X192016552Y-81928729D01*
X191987222Y-81892991D01*
X191926806Y-81779962D01*
X191903557Y-81736467D01*
X191884881Y-81674898D01*
X191852037Y-81566627D01*
X191834641Y-81390000D01*
X191852037Y-81213373D01*
X191903557Y-81043534D01*
X191903557Y-81043533D01*
X191987221Y-80887011D01*
X191987222Y-80887009D01*
X192025570Y-80840282D01*
X192099814Y-80749814D01*
X192217371Y-80653339D01*
X192237009Y-80637222D01*
X192254913Y-80627652D01*
X192393533Y-80553557D01*
X192450147Y-80536384D01*
X192563373Y-80502037D01*
X192629558Y-80495518D01*
X192695740Y-80489000D01*
X192784260Y-80489000D01*
X192850442Y-80495518D01*
X192850442Y-80495518D01*
G37*
G36*
X182458677Y-79613465D02*
X182496364Y-79624898D01*
X182531103Y-79643466D01*
X182561548Y-79668452D01*
X182586534Y-79698897D01*
X182605102Y-79733636D01*
X182616535Y-79771323D01*
X182621000Y-79816661D01*
X182621000Y-80653339D01*
X182616535Y-80698677D01*
X182605102Y-80736364D01*
X182586534Y-80771103D01*
X182561548Y-80801548D01*
X182531103Y-80826534D01*
X182496364Y-80845102D01*
X182458677Y-80856535D01*
X182413339Y-80861000D01*
X181326661Y-80861000D01*
X181281323Y-80856535D01*
X181243636Y-80845102D01*
X181208897Y-80826534D01*
X181178452Y-80801548D01*
X181153466Y-80771103D01*
X181134898Y-80736364D01*
X181123465Y-80698677D01*
X181119000Y-80653339D01*
X181119000Y-79816661D01*
X181123465Y-79771323D01*
X181134898Y-79733636D01*
X181153466Y-79698897D01*
X181178452Y-79668452D01*
X181208897Y-79643466D01*
X181243636Y-79624898D01*
X181281323Y-79613465D01*
X181326661Y-79609000D01*
X182413339Y-79609000D01*
X182458677Y-79613465D01*
X182458677Y-79613465D01*
G37*
G36*
X38071000Y-80831000D02*
X35969000Y-80831000D01*
X35969000Y-79029000D01*
X38071000Y-79029000D01*
X38071000Y-80831000D01*
X38071000Y-80831000D01*
G37*
G36*
X165784677Y-79165465D02*
X165822364Y-79176898D01*
X165857103Y-79195466D01*
X165887548Y-79220452D01*
X165912534Y-79250897D01*
X165931102Y-79285636D01*
X165942535Y-79323323D01*
X165947000Y-79368661D01*
X165947000Y-80205339D01*
X165942535Y-80250677D01*
X165931102Y-80288364D01*
X165912534Y-80323103D01*
X165887548Y-80353548D01*
X165857103Y-80378534D01*
X165822364Y-80397102D01*
X165784677Y-80408535D01*
X165739339Y-80413000D01*
X164652661Y-80413000D01*
X164607323Y-80408535D01*
X164569636Y-80397102D01*
X164534897Y-80378534D01*
X164504452Y-80353548D01*
X164479466Y-80323103D01*
X164460898Y-80288364D01*
X164449465Y-80250677D01*
X164445000Y-80205339D01*
X164445000Y-79368661D01*
X164449465Y-79323323D01*
X164460898Y-79285636D01*
X164479466Y-79250897D01*
X164504452Y-79220452D01*
X164534897Y-79195466D01*
X164569636Y-79176898D01*
X164607323Y-79165465D01*
X164652661Y-79161000D01*
X165739339Y-79161000D01*
X165784677Y-79165465D01*
X165784677Y-79165465D01*
G37*
G36*
X163407676Y-79165465D02*
X163445363Y-79176898D01*
X163480102Y-79195466D01*
X163510547Y-79220452D01*
X163535533Y-79250897D01*
X163554101Y-79285636D01*
X163565534Y-79323323D01*
X163569999Y-79368661D01*
X163569999Y-80205339D01*
X163565534Y-80250677D01*
X163554101Y-80288364D01*
X163535533Y-80323103D01*
X163510547Y-80353548D01*
X163480102Y-80378534D01*
X163445363Y-80397102D01*
X163407676Y-80408535D01*
X163362338Y-80413000D01*
X162275660Y-80413000D01*
X162230322Y-80408535D01*
X162192635Y-80397102D01*
X162157896Y-80378534D01*
X162127451Y-80353548D01*
X162102465Y-80323103D01*
X162083897Y-80288364D01*
X162072464Y-80250677D01*
X162067999Y-80205339D01*
X162067999Y-79368661D01*
X162072464Y-79323323D01*
X162083897Y-79285636D01*
X162102465Y-79250897D01*
X162127451Y-79220452D01*
X162157896Y-79195466D01*
X162192635Y-79176898D01*
X162230322Y-79165465D01*
X162275660Y-79161000D01*
X163362338Y-79161000D01*
X163407676Y-79165465D01*
X163407676Y-79165465D01*
G37*
G36*
X192850443Y-77955519D02*
X192916627Y-77962037D01*
X193029853Y-77996384D01*
X193086467Y-78013557D01*
X193192409Y-78070185D01*
X193242991Y-78097222D01*
X193278729Y-78126552D01*
X193380186Y-78209814D01*
X193457110Y-78303548D01*
X193492778Y-78347009D01*
X193492779Y-78347011D01*
X193576443Y-78503533D01*
X193576443Y-78503534D01*
X193627963Y-78673373D01*
X193645359Y-78850000D01*
X193627963Y-79026627D01*
X193627243Y-79029000D01*
X193576443Y-79196467D01*
X193552790Y-79240718D01*
X193492778Y-79352991D01*
X193463448Y-79388729D01*
X193380186Y-79490186D01*
X193278729Y-79573448D01*
X193242991Y-79602778D01*
X193242989Y-79602779D01*
X193086467Y-79686443D01*
X193045411Y-79698897D01*
X192916627Y-79737963D01*
X192850443Y-79744481D01*
X192784260Y-79751000D01*
X192695740Y-79751000D01*
X192629557Y-79744481D01*
X192563373Y-79737963D01*
X192434589Y-79698897D01*
X192393533Y-79686443D01*
X192237011Y-79602779D01*
X192237009Y-79602778D01*
X192201271Y-79573448D01*
X192099814Y-79490186D01*
X192016552Y-79388729D01*
X191987222Y-79352991D01*
X191927210Y-79240718D01*
X191903557Y-79196467D01*
X191852757Y-79029000D01*
X191852037Y-79026627D01*
X191834641Y-78850000D01*
X191852037Y-78673373D01*
X191903557Y-78503534D01*
X191903557Y-78503533D01*
X191987221Y-78347011D01*
X191987222Y-78347009D01*
X192022890Y-78303548D01*
X192099814Y-78209814D01*
X192201271Y-78126552D01*
X192237009Y-78097222D01*
X192287591Y-78070185D01*
X192393533Y-78013557D01*
X192450147Y-77996384D01*
X192563373Y-77962037D01*
X192629557Y-77955519D01*
X192695740Y-77949000D01*
X192784260Y-77949000D01*
X192850443Y-77955519D01*
X192850443Y-77955519D01*
G37*
G36*
X152937000Y-79563000D02*
X152235000Y-79563000D01*
X152235000Y-77961000D01*
X152937000Y-77961000D01*
X152937000Y-79563000D01*
X152937000Y-79563000D01*
G37*
G36*
X154207000Y-79563000D02*
X153505000Y-79563000D01*
X153505000Y-77961000D01*
X154207000Y-77961000D01*
X154207000Y-79563000D01*
X154207000Y-79563000D01*
G37*
G36*
X155477000Y-79563000D02*
X154775000Y-79563000D01*
X154775000Y-77961000D01*
X155477000Y-77961000D01*
X155477000Y-79563000D01*
X155477000Y-79563000D01*
G37*
G36*
X156747000Y-79563000D02*
X156045000Y-79563000D01*
X156045000Y-77961000D01*
X156747000Y-77961000D01*
X156747000Y-79563000D01*
X156747000Y-79563000D01*
G37*
G36*
X158017000Y-79563000D02*
X157315000Y-79563000D01*
X157315000Y-77961000D01*
X158017000Y-77961000D01*
X158017000Y-79563000D01*
X158017000Y-79563000D01*
G37*
G36*
X159287000Y-79563000D02*
X158585000Y-79563000D01*
X158585000Y-77961000D01*
X159287000Y-77961000D01*
X159287000Y-79563000D01*
X159287000Y-79563000D01*
G37*
G36*
X160557000Y-79563000D02*
X159855000Y-79563000D01*
X159855000Y-77961000D01*
X160557000Y-77961000D01*
X160557000Y-79563000D01*
X160557000Y-79563000D01*
G37*
G36*
X178312000Y-79213000D02*
X169360000Y-79213000D01*
X169360000Y-78011000D01*
X178312000Y-78011000D01*
X178312000Y-79213000D01*
X178312000Y-79213000D01*
G37*
G36*
X163407676Y-77115465D02*
X163445363Y-77126898D01*
X163480102Y-77145466D01*
X163510547Y-77170452D01*
X163535533Y-77200897D01*
X163554101Y-77235636D01*
X163565534Y-77273323D01*
X163569999Y-77318661D01*
X163569999Y-78155339D01*
X163565534Y-78200677D01*
X163554101Y-78238364D01*
X163535533Y-78273103D01*
X163510547Y-78303548D01*
X163480102Y-78328534D01*
X163445363Y-78347102D01*
X163407676Y-78358535D01*
X163362338Y-78363000D01*
X162275660Y-78363000D01*
X162230322Y-78358535D01*
X162192635Y-78347102D01*
X162157896Y-78328534D01*
X162127451Y-78303548D01*
X162102465Y-78273103D01*
X162083897Y-78238364D01*
X162072464Y-78200677D01*
X162067999Y-78155339D01*
X162067999Y-77318661D01*
X162072464Y-77273323D01*
X162083897Y-77235636D01*
X162102465Y-77200897D01*
X162127451Y-77170452D01*
X162157896Y-77145466D01*
X162192635Y-77126898D01*
X162230322Y-77115465D01*
X162275660Y-77111000D01*
X163362338Y-77111000D01*
X163407676Y-77115465D01*
X163407676Y-77115465D01*
G37*
G36*
X165784677Y-77115465D02*
X165822364Y-77126898D01*
X165857103Y-77145466D01*
X165887548Y-77170452D01*
X165912534Y-77200897D01*
X165931102Y-77235636D01*
X165942535Y-77273323D01*
X165947000Y-77318661D01*
X165947000Y-78155339D01*
X165942535Y-78200677D01*
X165931102Y-78238364D01*
X165912534Y-78273103D01*
X165887548Y-78303548D01*
X165857103Y-78328534D01*
X165822364Y-78347102D01*
X165784677Y-78358535D01*
X165739339Y-78363000D01*
X164652661Y-78363000D01*
X164607323Y-78358535D01*
X164569636Y-78347102D01*
X164534897Y-78328534D01*
X164504452Y-78303548D01*
X164479466Y-78273103D01*
X164460898Y-78238364D01*
X164449465Y-78200677D01*
X164445000Y-78155339D01*
X164445000Y-77318661D01*
X164449465Y-77273323D01*
X164460898Y-77235636D01*
X164479466Y-77200897D01*
X164504452Y-77170452D01*
X164534897Y-77145466D01*
X164569636Y-77126898D01*
X164607323Y-77115465D01*
X164652661Y-77111000D01*
X165739339Y-77111000D01*
X165784677Y-77115465D01*
X165784677Y-77115465D01*
G37*
G36*
X37280443Y-76535519D02*
X37346627Y-76542037D01*
X37438934Y-76570038D01*
X37516467Y-76593557D01*
X37634287Y-76656534D01*
X37672991Y-76677222D01*
X37689779Y-76691000D01*
X37810186Y-76789814D01*
X37874649Y-76868364D01*
X37922778Y-76927009D01*
X37922779Y-76927011D01*
X38006443Y-77083533D01*
X38006443Y-77083534D01*
X38057963Y-77253373D01*
X38075359Y-77430000D01*
X38057963Y-77606627D01*
X38023616Y-77719853D01*
X38006443Y-77776467D01*
X37932348Y-77915087D01*
X37922778Y-77932991D01*
X37899791Y-77961000D01*
X37810186Y-78070186D01*
X37720333Y-78143925D01*
X37672991Y-78182778D01*
X37672989Y-78182779D01*
X37516467Y-78266443D01*
X37494511Y-78273103D01*
X37346627Y-78317963D01*
X37280443Y-78324481D01*
X37214260Y-78331000D01*
X36825740Y-78331000D01*
X36759557Y-78324481D01*
X36693373Y-78317963D01*
X36545489Y-78273103D01*
X36523533Y-78266443D01*
X36367011Y-78182779D01*
X36367009Y-78182778D01*
X36319667Y-78143925D01*
X36229814Y-78070186D01*
X36140209Y-77961000D01*
X36117222Y-77932991D01*
X36107652Y-77915087D01*
X36033557Y-77776467D01*
X36016384Y-77719853D01*
X35982037Y-77606627D01*
X35964641Y-77430000D01*
X35982037Y-77253373D01*
X36033557Y-77083534D01*
X36033557Y-77083533D01*
X36117221Y-76927011D01*
X36117222Y-76927009D01*
X36165351Y-76868364D01*
X36229814Y-76789814D01*
X36350221Y-76691000D01*
X36367009Y-76677222D01*
X36405713Y-76656534D01*
X36523533Y-76593557D01*
X36601066Y-76570038D01*
X36693373Y-76542037D01*
X36759557Y-76535519D01*
X36825740Y-76529000D01*
X37214260Y-76529000D01*
X37280443Y-76535519D01*
X37280443Y-76535519D01*
G37*
G36*
X192850442Y-75415518D02*
X192916627Y-75422037D01*
X193024955Y-75454898D01*
X193086467Y-75473557D01*
X193170956Y-75518718D01*
X193242991Y-75557222D01*
X193250806Y-75563636D01*
X193380186Y-75669814D01*
X193463448Y-75771271D01*
X193492778Y-75807009D01*
X193492779Y-75807011D01*
X193576443Y-75963533D01*
X193576443Y-75963534D01*
X193627963Y-76133373D01*
X193645359Y-76310000D01*
X193627963Y-76486627D01*
X193595526Y-76593557D01*
X193576443Y-76656467D01*
X193565349Y-76677222D01*
X193492778Y-76812991D01*
X193482936Y-76824983D01*
X193380186Y-76950186D01*
X193278729Y-77033448D01*
X193242991Y-77062778D01*
X193242989Y-77062779D01*
X193086467Y-77146443D01*
X193052096Y-77156869D01*
X192916627Y-77197963D01*
X192850443Y-77204481D01*
X192784260Y-77211000D01*
X192695740Y-77211000D01*
X192629557Y-77204481D01*
X192563373Y-77197963D01*
X192427904Y-77156869D01*
X192393533Y-77146443D01*
X192237011Y-77062779D01*
X192237009Y-77062778D01*
X192201271Y-77033448D01*
X192099814Y-76950186D01*
X191997064Y-76824983D01*
X191987222Y-76812991D01*
X191914651Y-76677222D01*
X191903557Y-76656467D01*
X191884474Y-76593557D01*
X191852037Y-76486627D01*
X191834641Y-76310000D01*
X191852037Y-76133373D01*
X191903557Y-75963534D01*
X191903557Y-75963533D01*
X191987221Y-75807011D01*
X191987222Y-75807009D01*
X192016552Y-75771271D01*
X192099814Y-75669814D01*
X192229194Y-75563636D01*
X192237009Y-75557222D01*
X192309044Y-75518718D01*
X192393533Y-75473557D01*
X192455045Y-75454898D01*
X192563373Y-75422037D01*
X192629558Y-75415518D01*
X192695740Y-75409000D01*
X192784260Y-75409000D01*
X192850442Y-75415518D01*
X192850442Y-75415518D01*
G37*
G36*
X148204677Y-75745465D02*
X148242364Y-75756898D01*
X148277103Y-75775466D01*
X148307548Y-75800452D01*
X148332534Y-75830897D01*
X148351102Y-75865636D01*
X148362535Y-75903323D01*
X148367000Y-75948661D01*
X148367000Y-76785339D01*
X148362535Y-76830677D01*
X148351102Y-76868364D01*
X148332534Y-76903103D01*
X148307548Y-76933548D01*
X148277103Y-76958534D01*
X148242364Y-76977102D01*
X148204677Y-76988535D01*
X148159339Y-76993000D01*
X147072661Y-76993000D01*
X147027323Y-76988535D01*
X146989636Y-76977102D01*
X146954897Y-76958534D01*
X146924452Y-76933548D01*
X146899466Y-76903103D01*
X146880898Y-76868364D01*
X146869465Y-76830677D01*
X146865000Y-76785339D01*
X146865000Y-75948661D01*
X146869465Y-75903323D01*
X146880898Y-75865636D01*
X146899466Y-75830897D01*
X146924452Y-75800452D01*
X146954897Y-75775466D01*
X146989636Y-75756898D01*
X147027323Y-75745465D01*
X147072661Y-75741000D01*
X148159339Y-75741000D01*
X148204677Y-75745465D01*
X148204677Y-75745465D01*
G37*
G36*
X150704677Y-75745465D02*
X150742364Y-75756898D01*
X150777103Y-75775466D01*
X150807548Y-75800452D01*
X150832534Y-75830897D01*
X150851102Y-75865636D01*
X150862535Y-75903323D01*
X150867000Y-75948661D01*
X150867000Y-76785339D01*
X150862535Y-76830677D01*
X150851102Y-76868364D01*
X150832534Y-76903103D01*
X150807548Y-76933548D01*
X150777103Y-76958534D01*
X150742364Y-76977102D01*
X150704677Y-76988535D01*
X150659339Y-76993000D01*
X149572661Y-76993000D01*
X149527323Y-76988535D01*
X149489636Y-76977102D01*
X149454897Y-76958534D01*
X149424452Y-76933548D01*
X149399466Y-76903103D01*
X149380898Y-76868364D01*
X149369465Y-76830677D01*
X149365000Y-76785339D01*
X149365000Y-75948661D01*
X149369465Y-75903323D01*
X149380898Y-75865636D01*
X149399466Y-75830897D01*
X149424452Y-75800452D01*
X149454897Y-75775466D01*
X149489636Y-75756898D01*
X149527323Y-75745465D01*
X149572661Y-75741000D01*
X150659339Y-75741000D01*
X150704677Y-75745465D01*
X150704677Y-75745465D01*
G37*
G36*
X153508677Y-75745465D02*
X153546364Y-75756898D01*
X153581103Y-75775466D01*
X153611548Y-75800452D01*
X153636534Y-75830897D01*
X153655102Y-75865636D01*
X153666535Y-75903323D01*
X153671000Y-75948661D01*
X153671000Y-76785339D01*
X153666535Y-76830677D01*
X153655102Y-76868364D01*
X153636534Y-76903103D01*
X153611548Y-76933548D01*
X153581103Y-76958534D01*
X153546364Y-76977102D01*
X153508677Y-76988535D01*
X153463339Y-76993000D01*
X152376661Y-76993000D01*
X152331323Y-76988535D01*
X152293636Y-76977102D01*
X152258897Y-76958534D01*
X152228452Y-76933548D01*
X152203466Y-76903103D01*
X152184898Y-76868364D01*
X152173465Y-76830677D01*
X152169000Y-76785339D01*
X152169000Y-75948661D01*
X152173465Y-75903323D01*
X152184898Y-75865636D01*
X152203466Y-75830897D01*
X152228452Y-75800452D01*
X152258897Y-75775466D01*
X152293636Y-75756898D01*
X152331323Y-75745465D01*
X152376661Y-75741000D01*
X153463339Y-75741000D01*
X153508677Y-75745465D01*
X153508677Y-75745465D01*
G37*
G36*
X155714677Y-75745465D02*
X155752364Y-75756898D01*
X155787103Y-75775466D01*
X155817548Y-75800452D01*
X155842534Y-75830897D01*
X155861102Y-75865636D01*
X155872535Y-75903323D01*
X155877000Y-75948661D01*
X155877000Y-76785339D01*
X155872535Y-76830677D01*
X155861102Y-76868364D01*
X155842534Y-76903103D01*
X155817548Y-76933548D01*
X155787103Y-76958534D01*
X155752364Y-76977102D01*
X155714677Y-76988535D01*
X155669339Y-76993000D01*
X154582661Y-76993000D01*
X154537323Y-76988535D01*
X154499636Y-76977102D01*
X154464897Y-76958534D01*
X154434452Y-76933548D01*
X154409466Y-76903103D01*
X154390898Y-76868364D01*
X154379465Y-76830677D01*
X154375000Y-76785339D01*
X154375000Y-75948661D01*
X154379465Y-75903323D01*
X154390898Y-75865636D01*
X154409466Y-75830897D01*
X154434452Y-75800452D01*
X154464897Y-75775466D01*
X154499636Y-75756898D01*
X154537323Y-75745465D01*
X154582661Y-75741000D01*
X155669339Y-75741000D01*
X155714677Y-75745465D01*
X155714677Y-75745465D01*
G37*
G36*
X158254677Y-75745465D02*
X158292364Y-75756898D01*
X158327103Y-75775466D01*
X158357548Y-75800452D01*
X158382534Y-75830897D01*
X158401102Y-75865636D01*
X158412535Y-75903323D01*
X158417000Y-75948661D01*
X158417000Y-76785339D01*
X158412535Y-76830677D01*
X158401102Y-76868364D01*
X158382534Y-76903103D01*
X158357548Y-76933548D01*
X158327103Y-76958534D01*
X158292364Y-76977102D01*
X158254677Y-76988535D01*
X158209339Y-76993000D01*
X157122661Y-76993000D01*
X157077323Y-76988535D01*
X157039636Y-76977102D01*
X157004897Y-76958534D01*
X156974452Y-76933548D01*
X156949466Y-76903103D01*
X156930898Y-76868364D01*
X156919465Y-76830677D01*
X156915000Y-76785339D01*
X156915000Y-75948661D01*
X156919465Y-75903323D01*
X156930898Y-75865636D01*
X156949466Y-75830897D01*
X156974452Y-75800452D01*
X157004897Y-75775466D01*
X157039636Y-75756898D01*
X157077323Y-75745465D01*
X157122661Y-75741000D01*
X158209339Y-75741000D01*
X158254677Y-75745465D01*
X158254677Y-75745465D01*
G37*
G36*
X160454677Y-75745465D02*
X160492364Y-75756898D01*
X160527103Y-75775466D01*
X160557548Y-75800452D01*
X160582534Y-75830897D01*
X160601102Y-75865636D01*
X160612535Y-75903323D01*
X160617000Y-75948661D01*
X160617000Y-76785339D01*
X160612535Y-76830677D01*
X160601102Y-76868364D01*
X160582534Y-76903103D01*
X160557548Y-76933548D01*
X160527103Y-76958534D01*
X160492364Y-76977102D01*
X160454677Y-76988535D01*
X160409339Y-76993000D01*
X159322661Y-76993000D01*
X159277323Y-76988535D01*
X159239636Y-76977102D01*
X159204897Y-76958534D01*
X159174452Y-76933548D01*
X159149466Y-76903103D01*
X159130898Y-76868364D01*
X159119465Y-76830677D01*
X159115000Y-76785339D01*
X159115000Y-75948661D01*
X159119465Y-75903323D01*
X159130898Y-75865636D01*
X159149466Y-75830897D01*
X159174452Y-75800452D01*
X159204897Y-75775466D01*
X159239636Y-75756898D01*
X159277323Y-75745465D01*
X159322661Y-75741000D01*
X160409339Y-75741000D01*
X160454677Y-75745465D01*
X160454677Y-75745465D01*
G37*
G36*
X182408677Y-75443465D02*
X182446364Y-75454898D01*
X182481103Y-75473466D01*
X182511548Y-75498452D01*
X182536534Y-75528897D01*
X182555102Y-75563636D01*
X182566535Y-75601323D01*
X182571000Y-75646661D01*
X182571000Y-76483339D01*
X182566535Y-76528677D01*
X182555102Y-76566364D01*
X182536534Y-76601103D01*
X182511548Y-76631548D01*
X182481103Y-76656534D01*
X182446364Y-76675102D01*
X182408677Y-76686535D01*
X182363339Y-76691000D01*
X181276661Y-76691000D01*
X181231323Y-76686535D01*
X181193636Y-76675102D01*
X181158897Y-76656534D01*
X181128452Y-76631548D01*
X181103466Y-76601103D01*
X181084898Y-76566364D01*
X181073465Y-76528677D01*
X181069000Y-76483339D01*
X181069000Y-75646661D01*
X181073465Y-75601323D01*
X181084898Y-75563636D01*
X181103466Y-75528897D01*
X181128452Y-75498452D01*
X181158897Y-75473466D01*
X181193636Y-75454898D01*
X181231323Y-75443465D01*
X181276661Y-75439000D01*
X182363339Y-75439000D01*
X182408677Y-75443465D01*
X182408677Y-75443465D01*
G37*
G36*
X180598677Y-75443465D02*
X180636364Y-75454898D01*
X180671103Y-75473466D01*
X180701548Y-75498452D01*
X180726534Y-75528897D01*
X180745102Y-75563636D01*
X180756535Y-75601323D01*
X180761000Y-75646661D01*
X180761000Y-76483339D01*
X180756535Y-76528677D01*
X180745102Y-76566364D01*
X180726534Y-76601103D01*
X180701548Y-76631548D01*
X180671103Y-76656534D01*
X180636364Y-76675102D01*
X180598677Y-76686535D01*
X180553339Y-76691000D01*
X179466661Y-76691000D01*
X179421323Y-76686535D01*
X179383636Y-76675102D01*
X179348897Y-76656534D01*
X179318452Y-76631548D01*
X179293466Y-76601103D01*
X179274898Y-76566364D01*
X179263465Y-76528677D01*
X179259000Y-76483339D01*
X179259000Y-75646661D01*
X179263465Y-75601323D01*
X179274898Y-75563636D01*
X179293466Y-75528897D01*
X179318452Y-75498452D01*
X179348897Y-75473466D01*
X179383636Y-75454898D01*
X179421323Y-75443465D01*
X179466661Y-75439000D01*
X180553339Y-75439000D01*
X180598677Y-75443465D01*
X180598677Y-75443465D01*
G37*
G36*
X148204677Y-73695465D02*
X148242364Y-73706898D01*
X148277103Y-73725466D01*
X148307548Y-73750452D01*
X148332534Y-73780897D01*
X148351102Y-73815636D01*
X148362535Y-73853323D01*
X148367000Y-73898661D01*
X148367000Y-74735339D01*
X148362535Y-74780677D01*
X148351102Y-74818364D01*
X148332534Y-74853103D01*
X148307548Y-74883548D01*
X148277103Y-74908534D01*
X148242364Y-74927102D01*
X148204677Y-74938535D01*
X148159339Y-74943000D01*
X147072661Y-74943000D01*
X147027323Y-74938535D01*
X146989636Y-74927102D01*
X146954897Y-74908534D01*
X146924452Y-74883548D01*
X146899466Y-74853103D01*
X146880898Y-74818364D01*
X146869465Y-74780677D01*
X146865000Y-74735339D01*
X146865000Y-73898661D01*
X146869465Y-73853323D01*
X146880898Y-73815636D01*
X146899466Y-73780897D01*
X146924452Y-73750452D01*
X146954897Y-73725466D01*
X146989636Y-73706898D01*
X147027323Y-73695465D01*
X147072661Y-73691000D01*
X148159339Y-73691000D01*
X148204677Y-73695465D01*
X148204677Y-73695465D01*
G37*
G36*
X155714677Y-73695465D02*
X155752364Y-73706898D01*
X155787103Y-73725466D01*
X155817548Y-73750452D01*
X155842534Y-73780897D01*
X155861102Y-73815636D01*
X155872535Y-73853323D01*
X155877000Y-73898661D01*
X155877000Y-74735339D01*
X155872535Y-74780677D01*
X155861102Y-74818364D01*
X155842534Y-74853103D01*
X155817548Y-74883548D01*
X155787103Y-74908534D01*
X155752364Y-74927102D01*
X155714677Y-74938535D01*
X155669339Y-74943000D01*
X154582661Y-74943000D01*
X154537323Y-74938535D01*
X154499636Y-74927102D01*
X154464897Y-74908534D01*
X154434452Y-74883548D01*
X154409466Y-74853103D01*
X154390898Y-74818364D01*
X154379465Y-74780677D01*
X154375000Y-74735339D01*
X154375000Y-73898661D01*
X154379465Y-73853323D01*
X154390898Y-73815636D01*
X154409466Y-73780897D01*
X154434452Y-73750452D01*
X154464897Y-73725466D01*
X154499636Y-73706898D01*
X154537323Y-73695465D01*
X154582661Y-73691000D01*
X155669339Y-73691000D01*
X155714677Y-73695465D01*
X155714677Y-73695465D01*
G37*
G36*
X158254677Y-73695465D02*
X158292364Y-73706898D01*
X158327103Y-73725466D01*
X158357548Y-73750452D01*
X158382534Y-73780897D01*
X158401102Y-73815636D01*
X158412535Y-73853323D01*
X158417000Y-73898661D01*
X158417000Y-74735339D01*
X158412535Y-74780677D01*
X158401102Y-74818364D01*
X158382534Y-74853103D01*
X158357548Y-74883548D01*
X158327103Y-74908534D01*
X158292364Y-74927102D01*
X158254677Y-74938535D01*
X158209339Y-74943000D01*
X157122661Y-74943000D01*
X157077323Y-74938535D01*
X157039636Y-74927102D01*
X157004897Y-74908534D01*
X156974452Y-74883548D01*
X156949466Y-74853103D01*
X156930898Y-74818364D01*
X156919465Y-74780677D01*
X156915000Y-74735339D01*
X156915000Y-73898661D01*
X156919465Y-73853323D01*
X156930898Y-73815636D01*
X156949466Y-73780897D01*
X156974452Y-73750452D01*
X157004897Y-73725466D01*
X157039636Y-73706898D01*
X157077323Y-73695465D01*
X157122661Y-73691000D01*
X158209339Y-73691000D01*
X158254677Y-73695465D01*
X158254677Y-73695465D01*
G37*
G36*
X160454677Y-73695465D02*
X160492364Y-73706898D01*
X160527103Y-73725466D01*
X160557548Y-73750452D01*
X160582534Y-73780897D01*
X160601102Y-73815636D01*
X160612535Y-73853323D01*
X160617000Y-73898661D01*
X160617000Y-74735339D01*
X160612535Y-74780677D01*
X160601102Y-74818364D01*
X160582534Y-74853103D01*
X160557548Y-74883548D01*
X160527103Y-74908534D01*
X160492364Y-74927102D01*
X160454677Y-74938535D01*
X160409339Y-74943000D01*
X159322661Y-74943000D01*
X159277323Y-74938535D01*
X159239636Y-74927102D01*
X159204897Y-74908534D01*
X159174452Y-74883548D01*
X159149466Y-74853103D01*
X159130898Y-74818364D01*
X159119465Y-74780677D01*
X159115000Y-74735339D01*
X159115000Y-73898661D01*
X159119465Y-73853323D01*
X159130898Y-73815636D01*
X159149466Y-73780897D01*
X159174452Y-73750452D01*
X159204897Y-73725466D01*
X159239636Y-73706898D01*
X159277323Y-73695465D01*
X159322661Y-73691000D01*
X160409339Y-73691000D01*
X160454677Y-73695465D01*
X160454677Y-73695465D01*
G37*
G36*
X150704677Y-73695465D02*
X150742364Y-73706898D01*
X150777103Y-73725466D01*
X150807548Y-73750452D01*
X150832534Y-73780897D01*
X150851102Y-73815636D01*
X150862535Y-73853323D01*
X150867000Y-73898661D01*
X150867000Y-74735339D01*
X150862535Y-74780677D01*
X150851102Y-74818364D01*
X150832534Y-74853103D01*
X150807548Y-74883548D01*
X150777103Y-74908534D01*
X150742364Y-74927102D01*
X150704677Y-74938535D01*
X150659339Y-74943000D01*
X149572661Y-74943000D01*
X149527323Y-74938535D01*
X149489636Y-74927102D01*
X149454897Y-74908534D01*
X149424452Y-74883548D01*
X149399466Y-74853103D01*
X149380898Y-74818364D01*
X149369465Y-74780677D01*
X149365000Y-74735339D01*
X149365000Y-73898661D01*
X149369465Y-73853323D01*
X149380898Y-73815636D01*
X149399466Y-73780897D01*
X149424452Y-73750452D01*
X149454897Y-73725466D01*
X149489636Y-73706898D01*
X149527323Y-73695465D01*
X149572661Y-73691000D01*
X150659339Y-73691000D01*
X150704677Y-73695465D01*
X150704677Y-73695465D01*
G37*
G36*
X153508677Y-73695465D02*
X153546364Y-73706898D01*
X153581103Y-73725466D01*
X153611548Y-73750452D01*
X153636534Y-73780897D01*
X153655102Y-73815636D01*
X153666535Y-73853323D01*
X153671000Y-73898661D01*
X153671000Y-74735339D01*
X153666535Y-74780677D01*
X153655102Y-74818364D01*
X153636534Y-74853103D01*
X153611548Y-74883548D01*
X153581103Y-74908534D01*
X153546364Y-74927102D01*
X153508677Y-74938535D01*
X153463339Y-74943000D01*
X152376661Y-74943000D01*
X152331323Y-74938535D01*
X152293636Y-74927102D01*
X152258897Y-74908534D01*
X152228452Y-74883548D01*
X152203466Y-74853103D01*
X152184898Y-74818364D01*
X152173465Y-74780677D01*
X152169000Y-74735339D01*
X152169000Y-73898661D01*
X152173465Y-73853323D01*
X152184898Y-73815636D01*
X152203466Y-73780897D01*
X152228452Y-73750452D01*
X152258897Y-73725466D01*
X152293636Y-73706898D01*
X152331323Y-73695465D01*
X152376661Y-73691000D01*
X153463339Y-73691000D01*
X153508677Y-73695465D01*
X153508677Y-73695465D01*
G37*
G36*
X182408677Y-73393465D02*
X182446364Y-73404898D01*
X182481103Y-73423466D01*
X182511548Y-73448452D01*
X182536534Y-73478897D01*
X182555102Y-73513636D01*
X182566535Y-73551323D01*
X182571000Y-73596661D01*
X182571000Y-74433339D01*
X182566535Y-74478677D01*
X182555102Y-74516364D01*
X182536534Y-74551103D01*
X182511548Y-74581548D01*
X182481103Y-74606534D01*
X182446364Y-74625102D01*
X182408677Y-74636535D01*
X182363339Y-74641000D01*
X181276661Y-74641000D01*
X181231323Y-74636535D01*
X181193636Y-74625102D01*
X181158897Y-74606534D01*
X181128452Y-74581548D01*
X181103466Y-74551103D01*
X181084898Y-74516364D01*
X181073465Y-74478677D01*
X181069000Y-74433339D01*
X181069000Y-73596661D01*
X181073465Y-73551323D01*
X181084898Y-73513636D01*
X181103466Y-73478897D01*
X181128452Y-73448452D01*
X181158897Y-73423466D01*
X181193636Y-73404898D01*
X181231323Y-73393465D01*
X181276661Y-73389000D01*
X182363339Y-73389000D01*
X182408677Y-73393465D01*
X182408677Y-73393465D01*
G37*
G36*
X180598677Y-73393465D02*
X180636364Y-73404898D01*
X180671103Y-73423466D01*
X180701548Y-73448452D01*
X180726534Y-73478897D01*
X180745102Y-73513636D01*
X180756535Y-73551323D01*
X180761000Y-73596661D01*
X180761000Y-74433339D01*
X180756535Y-74478677D01*
X180745102Y-74516364D01*
X180726534Y-74551103D01*
X180701548Y-74581548D01*
X180671103Y-74606534D01*
X180636364Y-74625102D01*
X180598677Y-74636535D01*
X180553339Y-74641000D01*
X179466661Y-74641000D01*
X179421323Y-74636535D01*
X179383636Y-74625102D01*
X179348897Y-74606534D01*
X179318452Y-74581548D01*
X179293466Y-74551103D01*
X179274898Y-74516364D01*
X179263465Y-74478677D01*
X179259000Y-74433339D01*
X179259000Y-73596661D01*
X179263465Y-73551323D01*
X179274898Y-73513636D01*
X179293466Y-73478897D01*
X179318452Y-73448452D01*
X179348897Y-73423466D01*
X179383636Y-73404898D01*
X179421323Y-73393465D01*
X179466661Y-73389000D01*
X180553339Y-73389000D01*
X180598677Y-73393465D01*
X180598677Y-73393465D01*
G37*
G36*
X72404677Y-61295465D02*
X72442364Y-61306898D01*
X72477103Y-61325466D01*
X72507548Y-61350452D01*
X72532534Y-61380897D01*
X72551102Y-61415636D01*
X72562535Y-61453323D01*
X72567000Y-61498661D01*
X72567000Y-62585339D01*
X72562535Y-62630677D01*
X72551102Y-62668364D01*
X72532534Y-62703103D01*
X72507548Y-62733548D01*
X72477103Y-62758534D01*
X72442364Y-62777102D01*
X72404677Y-62788535D01*
X72359339Y-62793000D01*
X71522661Y-62793000D01*
X71477323Y-62788535D01*
X71439636Y-62777102D01*
X71404897Y-62758534D01*
X71374452Y-62733548D01*
X71349466Y-62703103D01*
X71330898Y-62668364D01*
X71319465Y-62630677D01*
X71315000Y-62585339D01*
X71315000Y-61498661D01*
X71319465Y-61453323D01*
X71330898Y-61415636D01*
X71349466Y-61380897D01*
X71374452Y-61350452D01*
X71404897Y-61325466D01*
X71439636Y-61306898D01*
X71477323Y-61295465D01*
X71522661Y-61291000D01*
X72359339Y-61291000D01*
X72404677Y-61295465D01*
X72404677Y-61295465D01*
G37*
G36*
X68594677Y-61295465D02*
X68632364Y-61306898D01*
X68667103Y-61325466D01*
X68697548Y-61350452D01*
X68722534Y-61380897D01*
X68741102Y-61415636D01*
X68752535Y-61453323D01*
X68757000Y-61498661D01*
X68757000Y-62585339D01*
X68752535Y-62630677D01*
X68741102Y-62668364D01*
X68722534Y-62703103D01*
X68697548Y-62733548D01*
X68667103Y-62758534D01*
X68632364Y-62777102D01*
X68594677Y-62788535D01*
X68549339Y-62793000D01*
X67712661Y-62793000D01*
X67667323Y-62788535D01*
X67629636Y-62777102D01*
X67594897Y-62758534D01*
X67564452Y-62733548D01*
X67539466Y-62703103D01*
X67520898Y-62668364D01*
X67509465Y-62630677D01*
X67505000Y-62585339D01*
X67505000Y-61498661D01*
X67509465Y-61453323D01*
X67520898Y-61415636D01*
X67539466Y-61380897D01*
X67564452Y-61350452D01*
X67594897Y-61325466D01*
X67629636Y-61306898D01*
X67667323Y-61295465D01*
X67712661Y-61291000D01*
X68549339Y-61291000D01*
X68594677Y-61295465D01*
X68594677Y-61295465D01*
G37*
G36*
X66544677Y-61295465D02*
X66582364Y-61306898D01*
X66617103Y-61325466D01*
X66647548Y-61350452D01*
X66672534Y-61380897D01*
X66691102Y-61415636D01*
X66702535Y-61453323D01*
X66707000Y-61498661D01*
X66707000Y-62585339D01*
X66702535Y-62630677D01*
X66691102Y-62668364D01*
X66672534Y-62703103D01*
X66647548Y-62733548D01*
X66617103Y-62758534D01*
X66582364Y-62777102D01*
X66544677Y-62788535D01*
X66499339Y-62793000D01*
X65662661Y-62793000D01*
X65617323Y-62788535D01*
X65579636Y-62777102D01*
X65544897Y-62758534D01*
X65514452Y-62733548D01*
X65489466Y-62703103D01*
X65470898Y-62668364D01*
X65459465Y-62630677D01*
X65455000Y-62585339D01*
X65455000Y-61498661D01*
X65459465Y-61453323D01*
X65470898Y-61415636D01*
X65489466Y-61380897D01*
X65514452Y-61350452D01*
X65544897Y-61325466D01*
X65579636Y-61306898D01*
X65617323Y-61295465D01*
X65662661Y-61291000D01*
X66499339Y-61291000D01*
X66544677Y-61295465D01*
X66544677Y-61295465D01*
G37*
G36*
X70354677Y-61295465D02*
X70392364Y-61306898D01*
X70427103Y-61325466D01*
X70457548Y-61350452D01*
X70482534Y-61380897D01*
X70501102Y-61415636D01*
X70512535Y-61453323D01*
X70517000Y-61498661D01*
X70517000Y-62585339D01*
X70512535Y-62630677D01*
X70501102Y-62668364D01*
X70482534Y-62703103D01*
X70457548Y-62733548D01*
X70427103Y-62758534D01*
X70392364Y-62777102D01*
X70354677Y-62788535D01*
X70309339Y-62793000D01*
X69472661Y-62793000D01*
X69427323Y-62788535D01*
X69389636Y-62777102D01*
X69354897Y-62758534D01*
X69324452Y-62733548D01*
X69299466Y-62703103D01*
X69280898Y-62668364D01*
X69269465Y-62630677D01*
X69265000Y-62585339D01*
X69265000Y-61498661D01*
X69269465Y-61453323D01*
X69280898Y-61415636D01*
X69299466Y-61380897D01*
X69324452Y-61350452D01*
X69354897Y-61325466D01*
X69389636Y-61306898D01*
X69427323Y-61295465D01*
X69472661Y-61291000D01*
X70309339Y-61291000D01*
X70354677Y-61295465D01*
X70354677Y-61295465D01*
G37*
G36*
X126454677Y-61295465D02*
X126492364Y-61306898D01*
X126527103Y-61325466D01*
X126557548Y-61350452D01*
X126582534Y-61380897D01*
X126601102Y-61415636D01*
X126612535Y-61453323D01*
X126617000Y-61498661D01*
X126617000Y-62585339D01*
X126612535Y-62630677D01*
X126601102Y-62668364D01*
X126582534Y-62703103D01*
X126557548Y-62733548D01*
X126527103Y-62758534D01*
X126492364Y-62777102D01*
X126454677Y-62788535D01*
X126409339Y-62793000D01*
X125572661Y-62793000D01*
X125527323Y-62788535D01*
X125489636Y-62777102D01*
X125454897Y-62758534D01*
X125424452Y-62733548D01*
X125399466Y-62703103D01*
X125380898Y-62668364D01*
X125369465Y-62630677D01*
X125365000Y-62585339D01*
X125365000Y-61498661D01*
X125369465Y-61453323D01*
X125380898Y-61415636D01*
X125399466Y-61380897D01*
X125424452Y-61350452D01*
X125454897Y-61325466D01*
X125489636Y-61306898D01*
X125527323Y-61295465D01*
X125572661Y-61291000D01*
X126409339Y-61291000D01*
X126454677Y-61295465D01*
X126454677Y-61295465D01*
G37*
G36*
X128504677Y-61295465D02*
X128542364Y-61306898D01*
X128577103Y-61325466D01*
X128607548Y-61350452D01*
X128632534Y-61380897D01*
X128651102Y-61415636D01*
X128662535Y-61453323D01*
X128667000Y-61498661D01*
X128667000Y-62585339D01*
X128662535Y-62630677D01*
X128651102Y-62668364D01*
X128632534Y-62703103D01*
X128607548Y-62733548D01*
X128577103Y-62758534D01*
X128542364Y-62777102D01*
X128504677Y-62788535D01*
X128459339Y-62793000D01*
X127622661Y-62793000D01*
X127577323Y-62788535D01*
X127539636Y-62777102D01*
X127504897Y-62758534D01*
X127474452Y-62733548D01*
X127449466Y-62703103D01*
X127430898Y-62668364D01*
X127419465Y-62630677D01*
X127415000Y-62585339D01*
X127415000Y-61498661D01*
X127419465Y-61453323D01*
X127430898Y-61415636D01*
X127449466Y-61380897D01*
X127474452Y-61350452D01*
X127504897Y-61325466D01*
X127539636Y-61306898D01*
X127577323Y-61295465D01*
X127622661Y-61291000D01*
X128459339Y-61291000D01*
X128504677Y-61295465D01*
X128504677Y-61295465D01*
G37*
G36*
X130264677Y-61295465D02*
X130302364Y-61306898D01*
X130337103Y-61325466D01*
X130367548Y-61350452D01*
X130392534Y-61380897D01*
X130411102Y-61415636D01*
X130422535Y-61453323D01*
X130427000Y-61498661D01*
X130427000Y-62585339D01*
X130422535Y-62630677D01*
X130411102Y-62668364D01*
X130392534Y-62703103D01*
X130367548Y-62733548D01*
X130337103Y-62758534D01*
X130302364Y-62777102D01*
X130264677Y-62788535D01*
X130219339Y-62793000D01*
X129382661Y-62793000D01*
X129337323Y-62788535D01*
X129299636Y-62777102D01*
X129264897Y-62758534D01*
X129234452Y-62733548D01*
X129209466Y-62703103D01*
X129190898Y-62668364D01*
X129179465Y-62630677D01*
X129175000Y-62585339D01*
X129175000Y-61498661D01*
X129179465Y-61453323D01*
X129190898Y-61415636D01*
X129209466Y-61380897D01*
X129234452Y-61350452D01*
X129264897Y-61325466D01*
X129299636Y-61306898D01*
X129337323Y-61295465D01*
X129382661Y-61291000D01*
X130219339Y-61291000D01*
X130264677Y-61295465D01*
X130264677Y-61295465D01*
G37*
G36*
X248632677Y-61295465D02*
X248670364Y-61306898D01*
X248705103Y-61325466D01*
X248735548Y-61350452D01*
X248760534Y-61380897D01*
X248779102Y-61415636D01*
X248790535Y-61453323D01*
X248795000Y-61498661D01*
X248795000Y-62585339D01*
X248790535Y-62630677D01*
X248779102Y-62668364D01*
X248760534Y-62703103D01*
X248735548Y-62733548D01*
X248705103Y-62758534D01*
X248670364Y-62777102D01*
X248632677Y-62788535D01*
X248587339Y-62793000D01*
X247750661Y-62793000D01*
X247705323Y-62788535D01*
X247667636Y-62777102D01*
X247632897Y-62758534D01*
X247602452Y-62733548D01*
X247577466Y-62703103D01*
X247558898Y-62668364D01*
X247547465Y-62630677D01*
X247543000Y-62585339D01*
X247543000Y-61498661D01*
X247547465Y-61453323D01*
X247558898Y-61415636D01*
X247577466Y-61380897D01*
X247602452Y-61350452D01*
X247632897Y-61325466D01*
X247667636Y-61306898D01*
X247705323Y-61295465D01*
X247750661Y-61291000D01*
X248587339Y-61291000D01*
X248632677Y-61295465D01*
X248632677Y-61295465D01*
G37*
G36*
X246582677Y-61295465D02*
X246620364Y-61306898D01*
X246655103Y-61325466D01*
X246685548Y-61350452D01*
X246710534Y-61380897D01*
X246729102Y-61415636D01*
X246740535Y-61453323D01*
X246745000Y-61498661D01*
X246745000Y-62585339D01*
X246740535Y-62630677D01*
X246729102Y-62668364D01*
X246710534Y-62703103D01*
X246685548Y-62733548D01*
X246655103Y-62758534D01*
X246620364Y-62777102D01*
X246582677Y-62788535D01*
X246537339Y-62793000D01*
X245700661Y-62793000D01*
X245655323Y-62788535D01*
X245617636Y-62777102D01*
X245582897Y-62758534D01*
X245552452Y-62733548D01*
X245527466Y-62703103D01*
X245508898Y-62668364D01*
X245497465Y-62630677D01*
X245493000Y-62585339D01*
X245493000Y-61498661D01*
X245497465Y-61453323D01*
X245508898Y-61415636D01*
X245527466Y-61380897D01*
X245552452Y-61350452D01*
X245582897Y-61325466D01*
X245617636Y-61306898D01*
X245655323Y-61295465D01*
X245700661Y-61291000D01*
X246537339Y-61291000D01*
X246582677Y-61295465D01*
X246582677Y-61295465D01*
G37*
G36*
X192262677Y-61295465D02*
X192300364Y-61306898D01*
X192335103Y-61325466D01*
X192365548Y-61350452D01*
X192390534Y-61380897D01*
X192409102Y-61415636D01*
X192420535Y-61453323D01*
X192425000Y-61498661D01*
X192425000Y-62585339D01*
X192420535Y-62630677D01*
X192409102Y-62668364D01*
X192390534Y-62703103D01*
X192365548Y-62733548D01*
X192335103Y-62758534D01*
X192300364Y-62777102D01*
X192262677Y-62788535D01*
X192217339Y-62793000D01*
X191380661Y-62793000D01*
X191335323Y-62788535D01*
X191297636Y-62777102D01*
X191262897Y-62758534D01*
X191232452Y-62733548D01*
X191207466Y-62703103D01*
X191188898Y-62668364D01*
X191177465Y-62630677D01*
X191173000Y-62585339D01*
X191173000Y-61498661D01*
X191177465Y-61453323D01*
X191188898Y-61415636D01*
X191207466Y-61380897D01*
X191232452Y-61350452D01*
X191262897Y-61325466D01*
X191297636Y-61306898D01*
X191335323Y-61295465D01*
X191380661Y-61291000D01*
X192217339Y-61291000D01*
X192262677Y-61295465D01*
X192262677Y-61295465D01*
G37*
G36*
X190212677Y-61295465D02*
X190250364Y-61306898D01*
X190285103Y-61325466D01*
X190315548Y-61350452D01*
X190340534Y-61380897D01*
X190359102Y-61415636D01*
X190370535Y-61453323D01*
X190375000Y-61498661D01*
X190375000Y-62585339D01*
X190370535Y-62630677D01*
X190359102Y-62668364D01*
X190340534Y-62703103D01*
X190315548Y-62733548D01*
X190285103Y-62758534D01*
X190250364Y-62777102D01*
X190212677Y-62788535D01*
X190167339Y-62793000D01*
X189330661Y-62793000D01*
X189285323Y-62788535D01*
X189247636Y-62777102D01*
X189212897Y-62758534D01*
X189182452Y-62733548D01*
X189157466Y-62703103D01*
X189138898Y-62668364D01*
X189127465Y-62630677D01*
X189123000Y-62585339D01*
X189123000Y-61498661D01*
X189127465Y-61453323D01*
X189138898Y-61415636D01*
X189157466Y-61380897D01*
X189182452Y-61350452D01*
X189212897Y-61325466D01*
X189247636Y-61306898D01*
X189285323Y-61295465D01*
X189330661Y-61291000D01*
X190167339Y-61291000D01*
X190212677Y-61295465D01*
X190212677Y-61295465D01*
G37*
G36*
X188452677Y-61295465D02*
X188490364Y-61306898D01*
X188525103Y-61325466D01*
X188555548Y-61350452D01*
X188580534Y-61380897D01*
X188599102Y-61415636D01*
X188610535Y-61453323D01*
X188615000Y-61498661D01*
X188615000Y-62585339D01*
X188610535Y-62630677D01*
X188599102Y-62668364D01*
X188580534Y-62703103D01*
X188555548Y-62733548D01*
X188525103Y-62758534D01*
X188490364Y-62777102D01*
X188452677Y-62788535D01*
X188407339Y-62793000D01*
X187570661Y-62793000D01*
X187525323Y-62788535D01*
X187487636Y-62777102D01*
X187452897Y-62758534D01*
X187422452Y-62733548D01*
X187397466Y-62703103D01*
X187378898Y-62668364D01*
X187367465Y-62630677D01*
X187363000Y-62585339D01*
X187363000Y-61498661D01*
X187367465Y-61453323D01*
X187378898Y-61415636D01*
X187397466Y-61380897D01*
X187422452Y-61350452D01*
X187452897Y-61325466D01*
X187487636Y-61306898D01*
X187525323Y-61295465D01*
X187570661Y-61291000D01*
X188407339Y-61291000D01*
X188452677Y-61295465D01*
X188452677Y-61295465D01*
G37*
G36*
X186402677Y-61295465D02*
X186440364Y-61306898D01*
X186475103Y-61325466D01*
X186505548Y-61350452D01*
X186530534Y-61380897D01*
X186549102Y-61415636D01*
X186560535Y-61453323D01*
X186565000Y-61498661D01*
X186565000Y-62585339D01*
X186560535Y-62630677D01*
X186549102Y-62668364D01*
X186530534Y-62703103D01*
X186505548Y-62733548D01*
X186475103Y-62758534D01*
X186440364Y-62777102D01*
X186402677Y-62788535D01*
X186357339Y-62793000D01*
X185520661Y-62793000D01*
X185475323Y-62788535D01*
X185437636Y-62777102D01*
X185402897Y-62758534D01*
X185372452Y-62733548D01*
X185347466Y-62703103D01*
X185328898Y-62668364D01*
X185317465Y-62630677D01*
X185313000Y-62585339D01*
X185313000Y-61498661D01*
X185317465Y-61453323D01*
X185328898Y-61415636D01*
X185347466Y-61380897D01*
X185372452Y-61350452D01*
X185402897Y-61325466D01*
X185437636Y-61306898D01*
X185475323Y-61295465D01*
X185520661Y-61291000D01*
X186357339Y-61291000D01*
X186402677Y-61295465D01*
X186402677Y-61295465D01*
G37*
G36*
X132314677Y-61295465D02*
X132352364Y-61306898D01*
X132387103Y-61325466D01*
X132417548Y-61350452D01*
X132442534Y-61380897D01*
X132461102Y-61415636D01*
X132472535Y-61453323D01*
X132477000Y-61498661D01*
X132477000Y-62585339D01*
X132472535Y-62630677D01*
X132461102Y-62668364D01*
X132442534Y-62703103D01*
X132417548Y-62733548D01*
X132387103Y-62758534D01*
X132352364Y-62777102D01*
X132314677Y-62788535D01*
X132269339Y-62793000D01*
X131432661Y-62793000D01*
X131387323Y-62788535D01*
X131349636Y-62777102D01*
X131314897Y-62758534D01*
X131284452Y-62733548D01*
X131259466Y-62703103D01*
X131240898Y-62668364D01*
X131229465Y-62630677D01*
X131225000Y-62585339D01*
X131225000Y-61498661D01*
X131229465Y-61453323D01*
X131240898Y-61415636D01*
X131259466Y-61380897D01*
X131284452Y-61350452D01*
X131314897Y-61325466D01*
X131349636Y-61306898D01*
X131387323Y-61295465D01*
X131432661Y-61291000D01*
X132269339Y-61291000D01*
X132314677Y-61295465D01*
X132314677Y-61295465D01*
G37*
G36*
X250392677Y-61295465D02*
X250430364Y-61306898D01*
X250465103Y-61325466D01*
X250495548Y-61350452D01*
X250520534Y-61380897D01*
X250539102Y-61415636D01*
X250550535Y-61453323D01*
X250555000Y-61498661D01*
X250555000Y-62585339D01*
X250550535Y-62630677D01*
X250539102Y-62668364D01*
X250520534Y-62703103D01*
X250495548Y-62733548D01*
X250465103Y-62758534D01*
X250430364Y-62777102D01*
X250392677Y-62788535D01*
X250347339Y-62793000D01*
X249510661Y-62793000D01*
X249465323Y-62788535D01*
X249427636Y-62777102D01*
X249392897Y-62758534D01*
X249362452Y-62733548D01*
X249337466Y-62703103D01*
X249318898Y-62668364D01*
X249307465Y-62630677D01*
X249303000Y-62585339D01*
X249303000Y-61498661D01*
X249307465Y-61453323D01*
X249318898Y-61415636D01*
X249337466Y-61380897D01*
X249362452Y-61350452D01*
X249392897Y-61325466D01*
X249427636Y-61306898D01*
X249465323Y-61295465D01*
X249510661Y-61291000D01*
X250347339Y-61291000D01*
X250392677Y-61295465D01*
X250392677Y-61295465D01*
G37*
G36*
X252442677Y-61295465D02*
X252480364Y-61306898D01*
X252515103Y-61325466D01*
X252545548Y-61350452D01*
X252570534Y-61380897D01*
X252589102Y-61415636D01*
X252600535Y-61453323D01*
X252605000Y-61498661D01*
X252605000Y-62585339D01*
X252600535Y-62630677D01*
X252589102Y-62668364D01*
X252570534Y-62703103D01*
X252545548Y-62733548D01*
X252515103Y-62758534D01*
X252480364Y-62777102D01*
X252442677Y-62788535D01*
X252397339Y-62793000D01*
X251560661Y-62793000D01*
X251515323Y-62788535D01*
X251477636Y-62777102D01*
X251442897Y-62758534D01*
X251412452Y-62733548D01*
X251387466Y-62703103D01*
X251368898Y-62668364D01*
X251357465Y-62630677D01*
X251353000Y-62585339D01*
X251353000Y-61498661D01*
X251357465Y-61453323D01*
X251368898Y-61415636D01*
X251387466Y-61380897D01*
X251412452Y-61350452D01*
X251442897Y-61325466D01*
X251477636Y-61306898D01*
X251515323Y-61295465D01*
X251560661Y-61291000D01*
X252397339Y-61291000D01*
X252442677Y-61295465D01*
X252442677Y-61295465D01*
G37*
G36*
X47188677Y-61137039D02*
X47226364Y-61148472D01*
X47261103Y-61167040D01*
X47291548Y-61192026D01*
X47316534Y-61222471D01*
X47335102Y-61257210D01*
X47346535Y-61294897D01*
X47351000Y-61340235D01*
X47351000Y-62426913D01*
X47346535Y-62472251D01*
X47335102Y-62509938D01*
X47316534Y-62544677D01*
X47291548Y-62575122D01*
X47261103Y-62600108D01*
X47226364Y-62618676D01*
X47188677Y-62630109D01*
X47143339Y-62634574D01*
X46306661Y-62634574D01*
X46261323Y-62630109D01*
X46223636Y-62618676D01*
X46188897Y-62600108D01*
X46158452Y-62575122D01*
X46133466Y-62544677D01*
X46114898Y-62509938D01*
X46103465Y-62472251D01*
X46099000Y-62426913D01*
X46099000Y-61340235D01*
X46103465Y-61294897D01*
X46114898Y-61257210D01*
X46133466Y-61222471D01*
X46158452Y-61192026D01*
X46188897Y-61167040D01*
X46223636Y-61148472D01*
X46261323Y-61137039D01*
X46306661Y-61132574D01*
X47143339Y-61132574D01*
X47188677Y-61137039D01*
X47188677Y-61137039D01*
G37*
G36*
X49238677Y-61137039D02*
X49276364Y-61148472D01*
X49311103Y-61167040D01*
X49341548Y-61192026D01*
X49366534Y-61222471D01*
X49385102Y-61257210D01*
X49396535Y-61294897D01*
X49401000Y-61340235D01*
X49401000Y-62426913D01*
X49396535Y-62472251D01*
X49385102Y-62509938D01*
X49366534Y-62544677D01*
X49341548Y-62575122D01*
X49311103Y-62600108D01*
X49276364Y-62618676D01*
X49238677Y-62630109D01*
X49193339Y-62634574D01*
X48356661Y-62634574D01*
X48311323Y-62630109D01*
X48273636Y-62618676D01*
X48238897Y-62600108D01*
X48208452Y-62575122D01*
X48183466Y-62544677D01*
X48164898Y-62509938D01*
X48153465Y-62472251D01*
X48149000Y-62426913D01*
X48149000Y-61340235D01*
X48153465Y-61294897D01*
X48164898Y-61257210D01*
X48183466Y-61222471D01*
X48208452Y-61192026D01*
X48238897Y-61167040D01*
X48273636Y-61148472D01*
X48311323Y-61137039D01*
X48356661Y-61132574D01*
X49193339Y-61132574D01*
X49238677Y-61137039D01*
X49238677Y-61137039D01*
G37*
G36*
X161261000Y-62191000D02*
X160559000Y-62191000D01*
X160559000Y-60589000D01*
X161261000Y-60589000D01*
X161261000Y-62191000D01*
X161261000Y-62191000D01*
G37*
G36*
X159991000Y-62191000D02*
X159289000Y-62191000D01*
X159289000Y-60589000D01*
X159991000Y-60589000D01*
X159991000Y-62191000D01*
X159991000Y-62191000D01*
G37*
G36*
X158721000Y-62191000D02*
X158019000Y-62191000D01*
X158019000Y-60589000D01*
X158721000Y-60589000D01*
X158721000Y-62191000D01*
X158721000Y-62191000D01*
G37*
G36*
X156181000Y-62191000D02*
X155479000Y-62191000D01*
X155479000Y-60589000D01*
X156181000Y-60589000D01*
X156181000Y-62191000D01*
X156181000Y-62191000D01*
G37*
G36*
X157451000Y-62191000D02*
X156749000Y-62191000D01*
X156749000Y-60589000D01*
X157451000Y-60589000D01*
X157451000Y-62191000D01*
X157451000Y-62191000D01*
G37*
G36*
X153641000Y-62191000D02*
X152939000Y-62191000D01*
X152939000Y-60589000D01*
X153641000Y-60589000D01*
X153641000Y-62191000D01*
X153641000Y-62191000D01*
G37*
G36*
X154911000Y-62191000D02*
X154209000Y-62191000D01*
X154209000Y-60589000D01*
X154911000Y-60589000D01*
X154911000Y-62191000D01*
X154911000Y-62191000D01*
G37*
G36*
X128331000Y-60316000D02*
X127009000Y-60316000D01*
X127009000Y-59564000D01*
X128331000Y-59564000D01*
X128331000Y-60316000D01*
X128331000Y-60316000D01*
G37*
G36*
X251041000Y-60316000D02*
X249719000Y-60316000D01*
X249719000Y-57664000D01*
X251041000Y-57664000D01*
X251041000Y-60316000D01*
X251041000Y-60316000D01*
G37*
G36*
X248421000Y-60316000D02*
X247099000Y-60316000D01*
X247099000Y-59564000D01*
X248421000Y-59564000D01*
X248421000Y-60316000D01*
X248421000Y-60316000D01*
G37*
G36*
X188341000Y-60316000D02*
X187019000Y-60316000D01*
X187019000Y-59564000D01*
X188341000Y-59564000D01*
X188341000Y-60316000D01*
X188341000Y-60316000D01*
G37*
G36*
X68371000Y-60316000D02*
X67049000Y-60316000D01*
X67049000Y-59564000D01*
X68371000Y-59564000D01*
X68371000Y-60316000D01*
X68371000Y-60316000D01*
G37*
G36*
X70991000Y-60316000D02*
X69669000Y-60316000D01*
X69669000Y-57664000D01*
X70991000Y-57664000D01*
X70991000Y-60316000D01*
X70991000Y-60316000D01*
G37*
G36*
X190961000Y-60316000D02*
X189639000Y-60316000D01*
X189639000Y-57664000D01*
X190961000Y-57664000D01*
X190961000Y-60316000D01*
X190961000Y-60316000D01*
G37*
G36*
X130951000Y-60316000D02*
X129629000Y-60316000D01*
X129629000Y-57664000D01*
X130951000Y-57664000D01*
X130951000Y-60316000D01*
X130951000Y-60316000D01*
G37*
G36*
X47188677Y-58468826D02*
X47226364Y-58480259D01*
X47261103Y-58498827D01*
X47291548Y-58523813D01*
X47316534Y-58554258D01*
X47335102Y-58588997D01*
X47346535Y-58626684D01*
X47351000Y-58672022D01*
X47351000Y-59758700D01*
X47346535Y-59804038D01*
X47335102Y-59841725D01*
X47316534Y-59876464D01*
X47291548Y-59906909D01*
X47261103Y-59931895D01*
X47226364Y-59950463D01*
X47188677Y-59961896D01*
X47143339Y-59966361D01*
X46306661Y-59966361D01*
X46261323Y-59961896D01*
X46223636Y-59950463D01*
X46188897Y-59931895D01*
X46158452Y-59906909D01*
X46133466Y-59876464D01*
X46114898Y-59841725D01*
X46103465Y-59804038D01*
X46099000Y-59758700D01*
X46099000Y-58672022D01*
X46103465Y-58626684D01*
X46114898Y-58588997D01*
X46133466Y-58554258D01*
X46158452Y-58523813D01*
X46188897Y-58498827D01*
X46223636Y-58480259D01*
X46261323Y-58468826D01*
X46306661Y-58464361D01*
X47143339Y-58464361D01*
X47188677Y-58468826D01*
X47188677Y-58468826D01*
G37*
G36*
X49238677Y-58468826D02*
X49276364Y-58480259D01*
X49311103Y-58498827D01*
X49341548Y-58523813D01*
X49366534Y-58554258D01*
X49385102Y-58588997D01*
X49396535Y-58626684D01*
X49401000Y-58672022D01*
X49401000Y-59758700D01*
X49396535Y-59804038D01*
X49385102Y-59841725D01*
X49366534Y-59876464D01*
X49341548Y-59906909D01*
X49311103Y-59931895D01*
X49276364Y-59950463D01*
X49238677Y-59961896D01*
X49193339Y-59966361D01*
X48356661Y-59966361D01*
X48311323Y-59961896D01*
X48273636Y-59950463D01*
X48238897Y-59931895D01*
X48208452Y-59906909D01*
X48183466Y-59876464D01*
X48164898Y-59841725D01*
X48153465Y-59804038D01*
X48149000Y-59758700D01*
X48149000Y-58672022D01*
X48153465Y-58626684D01*
X48164898Y-58588997D01*
X48183466Y-58554258D01*
X48208452Y-58523813D01*
X48238897Y-58498827D01*
X48273636Y-58480259D01*
X48311323Y-58468826D01*
X48356661Y-58464361D01*
X49193339Y-58464361D01*
X49238677Y-58468826D01*
X49238677Y-58468826D01*
G37*
G36*
X248421000Y-58416000D02*
X247099000Y-58416000D01*
X247099000Y-57664000D01*
X248421000Y-57664000D01*
X248421000Y-58416000D01*
X248421000Y-58416000D01*
G37*
G36*
X188341000Y-58416000D02*
X187019000Y-58416000D01*
X187019000Y-57664000D01*
X188341000Y-57664000D01*
X188341000Y-58416000D01*
X188341000Y-58416000D01*
G37*
G36*
X128331000Y-58416000D02*
X127009000Y-58416000D01*
X127009000Y-57664000D01*
X128331000Y-57664000D01*
X128331000Y-58416000D01*
X128331000Y-58416000D01*
G37*
G36*
X68371000Y-58416000D02*
X67049000Y-58416000D01*
X67049000Y-57664000D01*
X68371000Y-57664000D01*
X68371000Y-58416000D01*
X68371000Y-58416000D01*
G37*
G36*
X47101000Y-57123148D02*
X45779000Y-57123148D01*
X45779000Y-56371148D01*
X47101000Y-56371148D01*
X47101000Y-57123148D01*
X47101000Y-57123148D01*
G37*
G36*
X49721000Y-57123148D02*
X48399000Y-57123148D01*
X48399000Y-54471148D01*
X49721000Y-54471148D01*
X49721000Y-57123148D01*
X49721000Y-57123148D01*
G37*
G36*
X161261000Y-56791000D02*
X160559000Y-56791000D01*
X160559000Y-55189000D01*
X161261000Y-55189000D01*
X161261000Y-56791000D01*
X161261000Y-56791000D01*
G37*
G36*
X159991000Y-56791000D02*
X159289000Y-56791000D01*
X159289000Y-55189000D01*
X159991000Y-55189000D01*
X159991000Y-56791000D01*
X159991000Y-56791000D01*
G37*
G36*
X158721000Y-56791000D02*
X158019000Y-56791000D01*
X158019000Y-55189000D01*
X158721000Y-55189000D01*
X158721000Y-56791000D01*
X158721000Y-56791000D01*
G37*
G36*
X156181000Y-56791000D02*
X155479000Y-56791000D01*
X155479000Y-55189000D01*
X156181000Y-55189000D01*
X156181000Y-56791000D01*
X156181000Y-56791000D01*
G37*
G36*
X154911000Y-56791000D02*
X154209000Y-56791000D01*
X154209000Y-55189000D01*
X154911000Y-55189000D01*
X154911000Y-56791000D01*
X154911000Y-56791000D01*
G37*
G36*
X153641000Y-56791000D02*
X152939000Y-56791000D01*
X152939000Y-55189000D01*
X153641000Y-55189000D01*
X153641000Y-56791000D01*
X153641000Y-56791000D01*
G37*
G36*
X157451000Y-56791000D02*
X156749000Y-56791000D01*
X156749000Y-55189000D01*
X157451000Y-55189000D01*
X157451000Y-56791000D01*
X157451000Y-56791000D01*
G37*
G36*
X47101000Y-55223148D02*
X45779000Y-55223148D01*
X45779000Y-54471148D01*
X47101000Y-54471148D01*
X47101000Y-55223148D01*
X47101000Y-55223148D01*
G37*
G36*
X130869312Y-45013271D02*
X130905104Y-45024129D01*
X130938096Y-45041763D01*
X130967008Y-45065492D01*
X130990737Y-45094404D01*
X131008371Y-45127396D01*
X131019229Y-45163188D01*
X131023500Y-45206555D01*
X131023500Y-50113445D01*
X131019229Y-50156812D01*
X131008371Y-50192604D01*
X130990737Y-50225596D01*
X130967008Y-50254508D01*
X130938096Y-50278237D01*
X130905104Y-50295871D01*
X130869312Y-50306729D01*
X130825945Y-50311000D01*
X129794055Y-50311000D01*
X129750688Y-50306729D01*
X129714896Y-50295871D01*
X129681904Y-50278237D01*
X129652992Y-50254508D01*
X129629263Y-50225596D01*
X129611629Y-50192604D01*
X129600771Y-50156812D01*
X129596500Y-50113445D01*
X129596500Y-45206555D01*
X129600771Y-45163188D01*
X129611629Y-45127396D01*
X129629263Y-45094404D01*
X129652992Y-45065492D01*
X129681904Y-45041763D01*
X129714896Y-45024129D01*
X129750688Y-45013271D01*
X129794055Y-45009000D01*
X130825945Y-45009000D01*
X130869312Y-45013271D01*
X130869312Y-45013271D01*
G37*
G36*
X133294312Y-45013271D02*
X133330104Y-45024129D01*
X133363096Y-45041763D01*
X133392008Y-45065492D01*
X133415737Y-45094404D01*
X133433371Y-45127396D01*
X133444229Y-45163188D01*
X133448500Y-45206555D01*
X133448500Y-50113445D01*
X133444229Y-50156812D01*
X133433371Y-50192604D01*
X133415737Y-50225596D01*
X133392008Y-50254508D01*
X133363096Y-50278237D01*
X133330104Y-50295871D01*
X133294312Y-50306729D01*
X133250945Y-50311000D01*
X132219055Y-50311000D01*
X132175688Y-50306729D01*
X132139896Y-50295871D01*
X132106904Y-50278237D01*
X132077992Y-50254508D01*
X132054263Y-50225596D01*
X132036629Y-50192604D01*
X132025771Y-50156812D01*
X132021500Y-50113445D01*
X132021500Y-45206555D01*
X132025771Y-45163188D01*
X132036629Y-45127396D01*
X132054263Y-45094404D01*
X132077992Y-45065492D01*
X132106904Y-45041763D01*
X132139896Y-45024129D01*
X132175688Y-45013271D01*
X132219055Y-45009000D01*
X133250945Y-45009000D01*
X133294312Y-45013271D01*
X133294312Y-45013271D01*
G37*
G36*
X193284312Y-44993271D02*
X193320104Y-45004129D01*
X193353096Y-45021763D01*
X193382008Y-45045492D01*
X193405737Y-45074404D01*
X193423371Y-45107396D01*
X193434229Y-45143188D01*
X193438500Y-45186555D01*
X193438500Y-50093445D01*
X193434229Y-50136812D01*
X193423371Y-50172604D01*
X193405737Y-50205596D01*
X193382008Y-50234508D01*
X193353096Y-50258237D01*
X193320104Y-50275871D01*
X193284312Y-50286729D01*
X193240945Y-50291000D01*
X192209055Y-50291000D01*
X192165688Y-50286729D01*
X192129896Y-50275871D01*
X192096904Y-50258237D01*
X192067992Y-50234508D01*
X192044263Y-50205596D01*
X192026629Y-50172604D01*
X192015771Y-50136812D01*
X192011500Y-50093445D01*
X192011500Y-45186555D01*
X192015771Y-45143188D01*
X192026629Y-45107396D01*
X192044263Y-45074404D01*
X192067992Y-45045492D01*
X192096904Y-45021763D01*
X192129896Y-45004129D01*
X192165688Y-44993271D01*
X192209055Y-44989000D01*
X193240945Y-44989000D01*
X193284312Y-44993271D01*
X193284312Y-44993271D01*
G37*
G36*
X190859312Y-44993271D02*
X190895104Y-45004129D01*
X190928096Y-45021763D01*
X190957008Y-45045492D01*
X190980737Y-45074404D01*
X190998371Y-45107396D01*
X191009229Y-45143188D01*
X191013500Y-45186555D01*
X191013500Y-50093445D01*
X191009229Y-50136812D01*
X190998371Y-50172604D01*
X190980737Y-50205596D01*
X190957008Y-50234508D01*
X190928096Y-50258237D01*
X190895104Y-50275871D01*
X190859312Y-50286729D01*
X190815945Y-50291000D01*
X189784055Y-50291000D01*
X189740688Y-50286729D01*
X189704896Y-50275871D01*
X189671904Y-50258237D01*
X189642992Y-50234508D01*
X189619263Y-50205596D01*
X189601629Y-50172604D01*
X189590771Y-50136812D01*
X189586500Y-50093445D01*
X189586500Y-45186555D01*
X189590771Y-45143188D01*
X189601629Y-45107396D01*
X189619263Y-45074404D01*
X189642992Y-45045492D01*
X189671904Y-45021763D01*
X189704896Y-45004129D01*
X189740688Y-44993271D01*
X189784055Y-44989000D01*
X190815945Y-44989000D01*
X190859312Y-44993271D01*
X190859312Y-44993271D01*
G37*
G36*
X251029312Y-44989271D02*
X251065104Y-45000129D01*
X251098096Y-45017763D01*
X251127008Y-45041492D01*
X251150737Y-45070404D01*
X251168371Y-45103396D01*
X251179229Y-45139188D01*
X251183500Y-45182555D01*
X251183500Y-50089445D01*
X251179229Y-50132812D01*
X251168371Y-50168604D01*
X251150737Y-50201596D01*
X251127008Y-50230508D01*
X251098096Y-50254237D01*
X251065104Y-50271871D01*
X251029312Y-50282729D01*
X250985945Y-50287000D01*
X249954055Y-50287000D01*
X249910688Y-50282729D01*
X249874896Y-50271871D01*
X249841904Y-50254237D01*
X249812992Y-50230508D01*
X249789263Y-50201596D01*
X249771629Y-50168604D01*
X249760771Y-50132812D01*
X249756500Y-50089445D01*
X249756500Y-45182555D01*
X249760771Y-45139188D01*
X249771629Y-45103396D01*
X249789263Y-45070404D01*
X249812992Y-45041492D01*
X249841904Y-45017763D01*
X249874896Y-45000129D01*
X249910688Y-44989271D01*
X249954055Y-44985000D01*
X250985945Y-44985000D01*
X251029312Y-44989271D01*
X251029312Y-44989271D01*
G37*
G36*
X70846812Y-44989271D02*
X70882604Y-45000129D01*
X70915596Y-45017763D01*
X70944508Y-45041492D01*
X70968237Y-45070404D01*
X70985871Y-45103396D01*
X70996729Y-45139188D01*
X71001000Y-45182555D01*
X71001000Y-50089445D01*
X70996729Y-50132812D01*
X70985871Y-50168604D01*
X70968237Y-50201596D01*
X70944508Y-50230508D01*
X70915596Y-50254237D01*
X70882604Y-50271871D01*
X70846812Y-50282729D01*
X70803445Y-50287000D01*
X69771555Y-50287000D01*
X69728188Y-50282729D01*
X69692396Y-50271871D01*
X69659404Y-50254237D01*
X69630492Y-50230508D01*
X69606763Y-50201596D01*
X69589129Y-50168604D01*
X69578271Y-50132812D01*
X69574000Y-50089445D01*
X69574000Y-45182555D01*
X69578271Y-45139188D01*
X69589129Y-45103396D01*
X69606763Y-45070404D01*
X69630492Y-45041492D01*
X69659404Y-45017763D01*
X69692396Y-45000129D01*
X69728188Y-44989271D01*
X69771555Y-44985000D01*
X70803445Y-44985000D01*
X70846812Y-44989271D01*
X70846812Y-44989271D01*
G37*
G36*
X73271812Y-44989271D02*
X73307604Y-45000129D01*
X73340596Y-45017763D01*
X73369508Y-45041492D01*
X73393237Y-45070404D01*
X73410871Y-45103396D01*
X73421729Y-45139188D01*
X73426000Y-45182555D01*
X73426000Y-50089445D01*
X73421729Y-50132812D01*
X73410871Y-50168604D01*
X73393237Y-50201596D01*
X73369508Y-50230508D01*
X73340596Y-50254237D01*
X73307604Y-50271871D01*
X73271812Y-50282729D01*
X73228445Y-50287000D01*
X72196555Y-50287000D01*
X72153188Y-50282729D01*
X72117396Y-50271871D01*
X72084404Y-50254237D01*
X72055492Y-50230508D01*
X72031763Y-50201596D01*
X72014129Y-50168604D01*
X72003271Y-50132812D01*
X71999000Y-50089445D01*
X71999000Y-45182555D01*
X72003271Y-45139188D01*
X72014129Y-45103396D01*
X72031763Y-45070404D01*
X72055492Y-45041492D01*
X72084404Y-45017763D01*
X72117396Y-45000129D01*
X72153188Y-44989271D01*
X72196555Y-44985000D01*
X73228445Y-44985000D01*
X73271812Y-44989271D01*
X73271812Y-44989271D01*
G37*
G36*
X253454312Y-44989271D02*
X253490104Y-45000129D01*
X253523096Y-45017763D01*
X253552008Y-45041492D01*
X253575737Y-45070404D01*
X253593371Y-45103396D01*
X253604229Y-45139188D01*
X253608500Y-45182555D01*
X253608500Y-50089445D01*
X253604229Y-50132812D01*
X253593371Y-50168604D01*
X253575737Y-50201596D01*
X253552008Y-50230508D01*
X253523096Y-50254237D01*
X253490104Y-50271871D01*
X253454312Y-50282729D01*
X253410945Y-50287000D01*
X252379055Y-50287000D01*
X252335688Y-50282729D01*
X252299896Y-50271871D01*
X252266904Y-50254237D01*
X252237992Y-50230508D01*
X252214263Y-50201596D01*
X252196629Y-50168604D01*
X252185771Y-50132812D01*
X252181500Y-50089445D01*
X252181500Y-45182555D01*
X252185771Y-45139188D01*
X252196629Y-45103396D01*
X252214263Y-45070404D01*
X252237992Y-45041492D01*
X252266904Y-45017763D01*
X252299896Y-45000129D01*
X252335688Y-44989271D01*
X252379055Y-44985000D01*
X253410945Y-44985000D01*
X253454312Y-44989271D01*
X253454312Y-44989271D01*
G37*
G36*
X181598097Y-45357825D02*
X181843337Y-45432218D01*
X181843339Y-45432219D01*
X182069353Y-45553026D01*
X182267454Y-45715603D01*
X182400879Y-45878182D01*
X182430033Y-45913706D01*
X182535239Y-46110533D01*
X182548703Y-46135721D01*
X182550840Y-46139720D01*
X182625233Y-46384960D01*
X182644058Y-46576095D01*
X182644058Y-48703905D01*
X182625233Y-48895040D01*
X182550840Y-49140280D01*
X182550839Y-49140282D01*
X182430032Y-49366296D01*
X182267455Y-49564397D01*
X182069354Y-49726974D01*
X181843340Y-49847781D01*
X181843338Y-49847782D01*
X181598098Y-49922175D01*
X181343058Y-49947294D01*
X181088019Y-49922175D01*
X180842779Y-49847782D01*
X180842777Y-49847781D01*
X180616763Y-49726974D01*
X180418662Y-49564397D01*
X180256085Y-49366296D01*
X180135278Y-49140282D01*
X180135277Y-49140280D01*
X180060884Y-48895040D01*
X180042059Y-48703905D01*
X180042058Y-46576096D01*
X180060883Y-46384961D01*
X180135276Y-46139721D01*
X180256083Y-45913707D01*
X180256084Y-45913705D01*
X180418661Y-45715604D01*
X180616763Y-45553026D01*
X180616762Y-45553026D01*
X180616764Y-45553025D01*
X180842778Y-45432218D01*
X181088018Y-45357825D01*
X181343058Y-45332706D01*
X181598097Y-45357825D01*
X181598097Y-45357825D01*
G37*
G36*
X176148097Y-45357825D02*
X176393337Y-45432218D01*
X176393339Y-45432219D01*
X176619353Y-45553026D01*
X176817454Y-45715603D01*
X176950879Y-45878182D01*
X176980033Y-45913706D01*
X177085239Y-46110533D01*
X177098703Y-46135721D01*
X177100840Y-46139720D01*
X177175233Y-46384960D01*
X177194058Y-46576095D01*
X177194058Y-48703905D01*
X177175233Y-48895040D01*
X177100840Y-49140280D01*
X177100839Y-49140282D01*
X176980032Y-49366296D01*
X176817455Y-49564397D01*
X176619354Y-49726974D01*
X176393340Y-49847781D01*
X176393338Y-49847782D01*
X176148098Y-49922175D01*
X175893058Y-49947294D01*
X175638019Y-49922175D01*
X175392779Y-49847782D01*
X175392777Y-49847781D01*
X175166763Y-49726974D01*
X174968662Y-49564397D01*
X174806085Y-49366296D01*
X174685278Y-49140282D01*
X174685277Y-49140280D01*
X174610884Y-48895040D01*
X174592059Y-48703905D01*
X174592058Y-46576096D01*
X174610883Y-46384961D01*
X174685276Y-46139721D01*
X174806083Y-45913707D01*
X174806084Y-45913705D01*
X174968661Y-45715604D01*
X175166763Y-45553026D01*
X175166762Y-45553026D01*
X175166764Y-45553025D01*
X175392778Y-45432218D01*
X175638018Y-45357825D01*
X175893058Y-45332706D01*
X176148097Y-45357825D01*
X176148097Y-45357825D01*
G37*
G36*
X241598055Y-45353825D02*
X241843295Y-45428218D01*
X241843297Y-45428219D01*
X242069311Y-45549026D01*
X242267412Y-45711603D01*
X242400837Y-45874182D01*
X242429991Y-45909706D01*
X242550798Y-46135720D01*
X242625191Y-46380960D01*
X242644016Y-46572095D01*
X242644016Y-48699905D01*
X242625191Y-48891040D01*
X242550798Y-49136280D01*
X242550797Y-49136282D01*
X242429990Y-49362296D01*
X242267413Y-49560397D01*
X242069312Y-49722974D01*
X242061827Y-49726975D01*
X241843296Y-49843782D01*
X241598056Y-49918175D01*
X241343016Y-49943294D01*
X241087977Y-49918175D01*
X240842737Y-49843782D01*
X240624206Y-49726975D01*
X240616721Y-49722974D01*
X240418620Y-49560397D01*
X240256043Y-49362296D01*
X240135236Y-49136282D01*
X240135235Y-49136280D01*
X240060842Y-48891040D01*
X240042017Y-48699905D01*
X240042016Y-46572096D01*
X240060841Y-46380961D01*
X240135234Y-46135721D01*
X240256041Y-45909707D01*
X240256042Y-45909705D01*
X240418619Y-45711604D01*
X240616721Y-45549026D01*
X240616720Y-45549026D01*
X240616722Y-45549025D01*
X240835251Y-45432219D01*
X240842734Y-45428219D01*
X240842736Y-45428218D01*
X241087976Y-45353825D01*
X241343016Y-45328706D01*
X241598055Y-45353825D01*
X241598055Y-45353825D01*
G37*
G36*
X236148055Y-45353825D02*
X236393295Y-45428218D01*
X236393297Y-45428219D01*
X236619311Y-45549026D01*
X236817412Y-45711603D01*
X236950837Y-45874182D01*
X236979991Y-45909706D01*
X237100798Y-46135720D01*
X237175191Y-46380960D01*
X237194016Y-46572095D01*
X237194016Y-48699905D01*
X237175191Y-48891040D01*
X237100798Y-49136280D01*
X237100797Y-49136282D01*
X236979990Y-49362296D01*
X236817413Y-49560397D01*
X236619312Y-49722974D01*
X236611827Y-49726975D01*
X236393296Y-49843782D01*
X236148056Y-49918175D01*
X235893016Y-49943294D01*
X235637977Y-49918175D01*
X235392737Y-49843782D01*
X235174206Y-49726975D01*
X235166721Y-49722974D01*
X234968620Y-49560397D01*
X234806043Y-49362296D01*
X234685236Y-49136282D01*
X234685235Y-49136280D01*
X234610842Y-48891040D01*
X234592017Y-48699905D01*
X234592016Y-46572096D01*
X234610841Y-46380961D01*
X234685234Y-46135721D01*
X234806041Y-45909707D01*
X234806042Y-45909705D01*
X234968619Y-45711604D01*
X235166721Y-45549026D01*
X235166720Y-45549026D01*
X235166722Y-45549025D01*
X235385251Y-45432219D01*
X235392734Y-45428219D01*
X235392736Y-45428218D01*
X235637976Y-45353825D01*
X235893016Y-45328706D01*
X236148055Y-45353825D01*
X236148055Y-45353825D01*
G37*
G36*
X121598139Y-45353825D02*
X121843379Y-45428218D01*
X121843381Y-45428219D01*
X122069395Y-45549026D01*
X122267496Y-45711603D01*
X122400921Y-45874182D01*
X122430075Y-45909706D01*
X122550882Y-46135720D01*
X122625275Y-46380960D01*
X122644100Y-46572095D01*
X122644100Y-48699905D01*
X122625275Y-48891040D01*
X122550882Y-49136280D01*
X122550881Y-49136282D01*
X122430074Y-49362296D01*
X122267497Y-49560397D01*
X122069396Y-49722974D01*
X122061911Y-49726975D01*
X121843380Y-49843782D01*
X121598140Y-49918175D01*
X121343100Y-49943294D01*
X121088061Y-49918175D01*
X120842821Y-49843782D01*
X120624290Y-49726975D01*
X120616805Y-49722974D01*
X120418704Y-49560397D01*
X120256127Y-49362296D01*
X120135320Y-49136282D01*
X120135319Y-49136280D01*
X120060926Y-48891040D01*
X120042101Y-48699905D01*
X120042100Y-46572096D01*
X120060925Y-46380961D01*
X120135318Y-46135721D01*
X120256125Y-45909707D01*
X120256126Y-45909705D01*
X120418703Y-45711604D01*
X120616805Y-45549026D01*
X120616804Y-45549026D01*
X120616806Y-45549025D01*
X120835335Y-45432219D01*
X120842818Y-45428219D01*
X120842820Y-45428218D01*
X121088060Y-45353825D01*
X121343100Y-45328706D01*
X121598139Y-45353825D01*
X121598139Y-45353825D01*
G37*
G36*
X61598181Y-45353825D02*
X61843421Y-45428218D01*
X61843423Y-45428219D01*
X62069437Y-45549026D01*
X62267538Y-45711603D01*
X62400963Y-45874182D01*
X62430117Y-45909706D01*
X62550924Y-46135720D01*
X62625317Y-46380960D01*
X62644142Y-46572095D01*
X62644142Y-48699905D01*
X62625317Y-48891040D01*
X62550924Y-49136280D01*
X62550923Y-49136282D01*
X62430116Y-49362296D01*
X62267539Y-49560397D01*
X62069438Y-49722974D01*
X62061953Y-49726975D01*
X61843422Y-49843782D01*
X61598182Y-49918175D01*
X61343142Y-49943294D01*
X61088103Y-49918175D01*
X60842863Y-49843782D01*
X60624332Y-49726975D01*
X60616847Y-49722974D01*
X60418746Y-49560397D01*
X60256169Y-49362296D01*
X60135362Y-49136282D01*
X60135361Y-49136280D01*
X60060968Y-48891040D01*
X60042143Y-48699905D01*
X60042142Y-46572096D01*
X60060967Y-46380961D01*
X60135360Y-46135721D01*
X60256167Y-45909707D01*
X60256168Y-45909705D01*
X60418745Y-45711604D01*
X60616847Y-45549026D01*
X60616846Y-45549026D01*
X60616848Y-45549025D01*
X60835377Y-45432219D01*
X60842860Y-45428219D01*
X60842862Y-45428218D01*
X61088102Y-45353825D01*
X61343142Y-45328706D01*
X61598181Y-45353825D01*
X61598181Y-45353825D01*
G37*
G36*
X56148181Y-45353825D02*
X56393421Y-45428218D01*
X56393423Y-45428219D01*
X56619437Y-45549026D01*
X56817538Y-45711603D01*
X56950963Y-45874182D01*
X56980117Y-45909706D01*
X57100924Y-46135720D01*
X57175317Y-46380960D01*
X57194142Y-46572095D01*
X57194142Y-48699905D01*
X57175317Y-48891040D01*
X57100924Y-49136280D01*
X57100923Y-49136282D01*
X56980116Y-49362296D01*
X56817539Y-49560397D01*
X56619438Y-49722974D01*
X56611953Y-49726975D01*
X56393422Y-49843782D01*
X56148182Y-49918175D01*
X55893142Y-49943294D01*
X55638103Y-49918175D01*
X55392863Y-49843782D01*
X55174332Y-49726975D01*
X55166847Y-49722974D01*
X54968746Y-49560397D01*
X54806169Y-49362296D01*
X54685362Y-49136282D01*
X54685361Y-49136280D01*
X54610968Y-48891040D01*
X54592143Y-48699905D01*
X54592142Y-46572096D01*
X54610967Y-46380961D01*
X54685360Y-46135721D01*
X54806167Y-45909707D01*
X54806168Y-45909705D01*
X54968745Y-45711604D01*
X55166847Y-45549026D01*
X55166846Y-45549026D01*
X55166848Y-45549025D01*
X55385377Y-45432219D01*
X55392860Y-45428219D01*
X55392862Y-45428218D01*
X55638102Y-45353825D01*
X55893142Y-45328706D01*
X56148181Y-45353825D01*
X56148181Y-45353825D01*
G37*
G36*
X116148139Y-45353825D02*
X116393379Y-45428218D01*
X116393381Y-45428219D01*
X116619395Y-45549026D01*
X116817496Y-45711603D01*
X116950921Y-45874182D01*
X116980075Y-45909706D01*
X117100882Y-46135720D01*
X117175275Y-46380960D01*
X117194100Y-46572095D01*
X117194100Y-48699905D01*
X117175275Y-48891040D01*
X117100882Y-49136280D01*
X117100881Y-49136282D01*
X116980074Y-49362296D01*
X116817497Y-49560397D01*
X116619396Y-49722974D01*
X116611911Y-49726975D01*
X116393380Y-49843782D01*
X116148140Y-49918175D01*
X115893100Y-49943294D01*
X115638061Y-49918175D01*
X115392821Y-49843782D01*
X115174290Y-49726975D01*
X115166805Y-49722974D01*
X114968704Y-49560397D01*
X114806127Y-49362296D01*
X114685320Y-49136282D01*
X114685319Y-49136280D01*
X114610926Y-48891040D01*
X114592101Y-48699905D01*
X114592100Y-46572096D01*
X114610925Y-46380961D01*
X114685318Y-46135721D01*
X114806125Y-45909707D01*
X114806126Y-45909705D01*
X114968703Y-45711604D01*
X115166805Y-45549026D01*
X115166804Y-45549026D01*
X115166806Y-45549025D01*
X115385335Y-45432219D01*
X115392818Y-45428219D01*
X115392820Y-45428218D01*
X115638060Y-45353825D01*
X115893100Y-45328706D01*
X116148139Y-45353825D01*
X116148139Y-45353825D01*
G37*
G36*
X171744058Y-49941000D02*
X169142058Y-49941000D01*
X169142058Y-45339000D01*
X171744058Y-45339000D01*
X171744058Y-49941000D01*
X171744058Y-49941000D01*
G37*
G36*
X51744142Y-49937000D02*
X49142142Y-49937000D01*
X49142142Y-45335000D01*
X51744142Y-45335000D01*
X51744142Y-49937000D01*
X51744142Y-49937000D01*
G37*
G36*
X111744100Y-49937000D02*
X109142100Y-49937000D01*
X109142100Y-45335000D01*
X111744100Y-45335000D01*
X111744100Y-49937000D01*
X111744100Y-49937000D01*
G37*
G36*
X231744016Y-49937000D02*
X229142016Y-49937000D01*
X229142016Y-45335000D01*
X231744016Y-45335000D01*
X231744016Y-49937000D01*
X231744016Y-49937000D01*
G37*
M02*
